<svg xmlns="http://www.w3.org/2000/svg" viewBox="0 0 332.53 331.73"><defs><style>.cls-1{fill:#010101;}</style></defs><g id="Layer_2" data-name="Layer 2"><g id="content"><path class="cls-1" d="M230,5.45c-.36.34-2.07,2.06.3,1.92C231.73,7.33,232.2,5.39,230,5.45Z"/><path class="cls-1" d="M153.06,6.92c-1.26,0,2.51,1.54,3.3,1.18C157.33,7.65,153.82,6.93,153.06,6.92Z"/><path class="cls-1" d="M92.72,8.45c1.85.11,2.32-.37,2.22-1l-1.18,0C93.19,7.71,92.67,8.1,92.72,8.45Z"/><path class="cls-1" d="M330.67,12.89c0,1.18.45-1.26,0,0Z"/><path class="cls-1" d="M325.65,1.93c-2.42.57.35,1.92-1.73,2.88.89-.41-2.43-1.09-3.54-.85-3.14.69-.15,1-.06,1.61-3.35-.28-1.42.77-1.68,1.34-.41.89-4.38-.89-3.43.57s2.83,2.22,0,3.51c-3.06,1.41-7.76-.66-2.6-.25,2.87.23,0-2.34.85-2.3.09,0,3,.6,1.71-.25a9.49,9.49,0,0,0-4.73-.92c-1.66,0-4.56.64-6,.11-.87-.31-.27-1.16-2-1.12s-1.8,1.31-3.28,1.13c-2.5-.31-1.55-1-4.74-.21a13.16,13.16,0,0,1-5.54-.29c-1.55-.4-1.34-1.46-3-1.41l.22,1.44c-1.24,0-4.3-2.82-4.93-1.45-.34.77-1.75.63-3.38.7-2,.09-3.38.9-4.54.09-.48-.33.26-1.06-.93-1.15-1.77-.13-1.91.9-2.44,1.32-.93.75-7.05-1.87-4.73.12.11.09-4.09-.29-4,.52-1.55,0-5-1.62-4.81-.36a2.21,2.21,0,0,1-1.31-.62c-.32,1-2.92,1.94-5.2,1.1-1-.37-.14-1.76-2-1.71-1.55,0-.94.84-1.08,1.2-.48,1.22-5.11,1.07-5.89.08-.39-.51-1.13.06-1.28-.92l-.25-1.59c-3.19.08-1.88,1.93-2.7,2.71a1.55,1.55,0,0,1-1.59.29c-2.06,0,.09-1,0-1.33-.28-.86-3.57-1.2-5.3-1.06-.79.06-1.7.64-2.4.49-1-.2-1.07-.73-1.92-.9.68.14-.67,2.81-.94,3.22.16-.23-1-.6-1.6-.44-2.25.63-1.34,1.07-4.72.65-1.45-.18-5.37-.55-5.62-.33,1.8-1.47-4.61.06-2.38-2.06.74-.71,2-.62,1.83-1.51.16-.45-.15-1-.22-1.44a12.66,12.66,0,0,1-3.42,2.62,3.9,3.9,0,0,0-1.93,1.49c-.36.8-4.15,0-3.32,1.29,0-.41-.58-.73-1.62-.79-1.46-.08-1,.38-1.92.66C198,8.26,197.86,6,198.79,6c-.86,0-2,.9-2.84,1.07a16.47,16.47,0,0,1-5.69,0C188,6.75,191,5.34,192,5c-1.35,0-2.36.1-2.26.73-.26-1.69-6.07-2.6-3.58-.1,4.12,1.47-3.32,3.67-5.62,2.07,5,.3.19-1.94,3.26-2-.14-1.28-3.1-1.26-3.62-.12-.12.25-2.54-.26-3.2-.17s.13,1.45-.24,1.78c-1,.89-2.81.85-4.67.45s3-.86,2.94-1.18a36.3,36.3,0,0,0-4.44.11c-1.43.19-.15,1-1.07,1.13-.62.08-3.29-.52-3.16.37-2-.55-2.17-1.77-3.62-.39-1,.94-1.8.7-3.56.08-5.13-1.8-8.64-2.41-13.56-.15,2.1-1-4.47-1.29-4.32-.35-1.84,1.76-5.8-.34-1.26-.45a2.82,2.82,0,0,0-3.7-.87c-1.28,0-1.08.65-1,1,1.15,0,3.59.72,1.9,1.09-2.82.62-4-.56-6.12-.5-2.74.07-4.48,0-6.5-.8-.77.73-2.57.7-4,.33a10.94,10.94,0,0,0-2.28-.64c-1.43-.08-1.14.43-2.22.68-2.49.59-1.55-1-2.63-1-2-.15-3.24-.21-3.39-1.19a3.26,3.26,0,0,1-.84,2.25c-.16-1-.25-3.28-3.85-1.81A17.85,17.85,0,0,1,101.2,7c-1.63.26-.93-1.88-2.79-.11,0,.32-4.69-1.4-5.62-1.11a14.41,14.41,0,0,0-4.88,2.34C87.71,7.88,86.13,6,85.81,6S85.13,7.32,84.34,7c-1.13-.4-.25-1.49-2-2-1.37-.42-4.72.15-6,.44-3.42.79,5.27-.12,4.31.64a13.55,13.55,0,0,1-4.28,2c-2,.57-2.74-.15-4,.07-1.47.27-2.15.74-4,.54-1.63-.17-3-.54-4.67-.68a13.7,13.7,0,0,0-3.07,0,7.24,7.24,0,0,0-1.36.54c.07,0-.28-2.92-.34-3.29a4.34,4.34,0,0,0-1.52-2.15c.2,1.3,1.68,5.25-2.83,5.52-3.2.2-8.19.06-10.7-.84-2.27-.81-1.66.53-3.06.38s-2.53-1.67-4.42-.74c-.7.34-2.91,2.3-3.17.63-1.91-.68-2.35.24-4.39.09q-.61-.13-.42-.45a9.53,9.53,0,0,0-3.19.4c-1.23.34-2-.58-3.83.26.14.91-3.53-.27-4.36-.31a17.8,17.8,0,0,0-3.42.17l-.79.1-.39.1a5,5,0,0,1-.79.13,7.82,7.82,0,0,1-2-.2A3.26,3.26,0,0,1,9.08,9.4,1.19,1.19,0,0,1,8,9.84a3,3,0,0,1,1.48.88,2,2,0,0,1,.43.68s0,.06,0,.11l0,.22q0,.23,0,.48c0,.34,0,.71,0,1.12a48.83,48.83,0,0,1-.76,5c-.3,2,.9,1.76,1,2.68,0,.31-1.82.07-2.1.51-.59.93,1.74,2.3,1.75,2.8,0,.17-1.43.26-1.4,1.55,0,.7,1.07,1.57,1.22,2.93.29,2.73.48,6.88-.7,8.42-2.06,2.67-1.5,1.22,0,3.86,1.12,1.92-1.39,5-.88,5.93.09.18,3.66-2.73,1.71,1.74-.8,1.82-1.55,1.39-.22,3.22,1,1.36-2,5.36-2.19,5.82.18-.51,2.47,2.92,2.19,5.51,0-.39-.79-.72-1-.64.07,2.85,1.53,3.59,1.67,7.07,0,.84,0,2.17-.47,2.24-.94.15,0,2.51-.55,3-.22.17-1-1.13-1.11.43-.13,1.22.84,2.7,1,3.71.47,2.49-1,1.32-1.57,1.56.06,2.51.76,1.67,1.38,3,.36.8-.6,1.76.06,3.32.29.69.89,4,.11,4.32-.14,0-2.34,1.07-2,1.76.18.38.93-.64,1.23-.59.63.09.54,1.51.57,2.69s.37.36.4,1.57c0,1.58-.29,2.8-.25,4.49.06,2.11,1,13.42-.64,12.57,0,.84,0,2.37.54,2.29.14,1-.1,2.31.22,3.18.6,1.62.12,5.46,0,8.07-.09,1.8-.32,3.57-.27,5.39l.06,2.37c.24,0,.37.24.38.83.05,1.74-.84,6.23.73,4.93.06,2.42-.47.75-.73,1.69a16.21,16.21,0,0,0-.54,4.41c.09,1.23,1.29,1.44.77,2.89s-1.46,1.83-2,3.32c-1.06,2.87,1.42,1.56,1.46,3.3,0,.54.21,8.28-.3,7.17,0,1.8.18,3.73.1,5.53-.11,2.64-1.86,1-1.78,4.23.6-.26,1.28-3.15,1.41-.61a46.82,46.82,0,0,1,.1,5.43c-.11,1.49-.41.45-.37,2.28.06,2.1.85,6.21-.4,7-.58.36-1,1.28-1.63,1.5,0,0-1-.72-.84,0,0,.06.51,1.5.1,1.82-.15.13-.58-1-.54.48,0,.3.36.32.72.27a4.42,4.42,0,0,0,.72-.18c.71-.11,1.75-1.88,2.44-1,.42.51.61-.2,1,0s-.55,2.73-.57,2.9c-.2,1.61.41.54.48,1.34.09,1-1.55,4.3-1.78,3.81.5,1.07,3.3,2.9.87,3.28A23.62,23.62,0,0,0,8.08,208c.11,1.23,1.52,6.47.46,6.74-.44.12-.62-.74-.83.14.07,2.94.51,1.11,1.06,2.3.2.44-1.74,3.43-1.87,3.62,1.29-1.86,3.13,7,2.62,9.53-.16.78-.49,1-.68,1.73-.28,1.07.36,2.93.37,4.18a4.84,4.84,0,0,1-.62,2.45,15.4,15.4,0,0,0-.17,4.1,69,69,0,0,1,0,8.86c-.14,1.22-.65,1.22-.68,2.46,0,1.77.67,2.85.85,4.63.29,3-.83,7.34-.29,9.78.27,1.23,1.87,5.19.43,5.61.49.11,1,.86,1,2.2-1.2-.31-1.14,3.22-2,5.16.29-.42.62-.75.81-.4.53,1-.72,2.77-.86,3.27a8.87,8.87,0,0,0,0,3.77c.29,1.24,1.49,1.21,1.56,1.68s-1.48,4.35.24,3.18c-1.42.32-1,5.1-1.25,7.44-.25,2.68-1.09,1.24-1.55,2.53,0,0,.5.29,1,.61a4.4,4.4,0,0,1,1.06.81c-.15-.61-2.06,4.32-1,4.8-.26-.12,2.61-.66,1.64.63a2.7,2.7,0,0,1-2.22,1.35A4.9,4.9,0,0,1,9.11,315c-.07,1.33-1,2.44-.95,3.1,0,1,1.17,1.36,1.29,2.14-.28-.24-.17,1,0,2.07,1.2-.13,2.26-.29,2.39-.26.86.24,1.08.82.86,1.45s-1,1.31-1,1.75c0-.22,1.73-.44,2-.5,1.17-.34.91-.64.91-1.1,0-.79,3.91-.5,4.85-.33a5,5,0,0,1,2,1c1,.59,1.44-.77,1.88-.93,2.12-.78,3.24.2,3-1.48.17,1.07,3.16.42,4.53.81.36.1.82.71.12.8-1.59.2.13,1-1.16,1a33.8,33.8,0,0,1,3.45,0c0,.07-3.42.87-2.33,1.26s3.5-1.15,3.74-1.36c1-.87-.17-1.37,2.42-2,3.93-.1,6.94,1.43,10.68.86,1.16-.17,3.66-1.18,5-1,.58.08-.35,1.2.37,1.52a1.24,1.24,0,0,0,1.89-.87c2-1.94,1.68.68,2.62.66a1,1,0,0,0,.85-1.22c2.26.8,5.79-.24,8.44-.16,1.87.06,7.92,1.27,8.12-.26.69,1.06,7.25-.28,9-.23,1.61,0,4.4.18,5.32.82,1.26,0,2.46.41,3.55-.09.88,0,3.52-.24,3.62.39,2,.17,3.82-.26,5.82.16l.86.31c.42.15.82.31.72.31,1.43,0,1.78-.49,3.45-.56,2.65-.12,5.16-.86,7.89-.88,1.86,0-1.34,1.4-1.3,1.65s3-.65,2.91-.61a10,10,0,0,1,3-.95c.71-.08,1.71.42,2.78.39-.1-.67,4.61-.95,4.74-.12,1.07.65-.42,1.89,1.43,2.56-.46-.17.05-1.5.9-1.64a11.58,11.58,0,0,0,2.17-.21c.71-.26.65-.88,1.45-1.2a9.59,9.59,0,0,1,5.88.19c4,.69,2.38-.78,5.36-.85-1.08,0-.84,1.7,1.88,1.63,1.35,0,9.53.14,9.4-.72,1.09-.5,4.78.24,4.88.84,0,0-4.35,1.6-1.63,1.61,1.82,0,2.75-2.27,3.23-2.73a1.55,1.55,0,0,1,2.31,0,4.72,4.72,0,0,1,.72.83c.17.25.28.43.28.43.43,0,1.15-.92,1.75-1.09.76-.21,2.2.52,2.61.66,2.05.69,2-.34,3.09-.88,2.05-1,1.56.23,1.84.63s5.3.28,4.6-.76c.6,1.58,8.73,1.15,11.69,1.39a21,21,0,0,0,3.66.35c1.47-.41,1-1.79,3.63-1.86.5.72-3.45,3.46.52,3.36-.32-1.19.56-2.33,1.7-3.41-.18.17.69,1.18,1.52,1.16.54,0,2.05-1.23,3-1.44,1.62-.35,3.67,1,5.86,1,2.68,0,2.54-.78,4.81-1.07a10.6,10.6,0,0,1,4.26.18c.77.27.94,1.68,1.51,1.72,1.66.12,4.4-1.48,6.44-.87A10.5,10.5,0,0,1,231,325c1-.46.34-1.16,2.16-1.67,1.39-.39,6.64-.54,6.91-1.13,1.1-2.43,2.44.08,2.61,1.25,1.57,0,.91-.3,1.1-.79s2.71-.26,3.37-.29c2.07-.09,3.31-.56,5.36-.61,1.23-.26,1.95-.16,2.18.28,1.16.33,2.07-.18,2.84-.12,1.07.08,0,1.4-.17,1.4,3.14-.08,2.24-2.1,6.47-1.37,1.62.28,2.8.77,1.4,1.41-.91.28-2.78,1.28-.12,1a23.17,23.17,0,0,0,4.46-1.24,32.31,32.31,0,0,1,6.81-1l7.42-.44,4.49-.3,1.46-.11a3,3,0,0,0,.56-.08c-.24.71-1,2.05,1,2.76-.61-.22,2.06-1.72,2.42-1.93,1.36-.75,2-1.08,3.66-.66s5.07-.35,6.55.24c.52.21.05,1,1.11,1,1.49,0,1.67-1.21,2.43-1.56-.2.09.59.9,1.18.95.11-.18.39-.28.83-.32a5.51,5.51,0,0,1,2.28.65,6.14,6.14,0,0,1,2.21,1.39c.31-.58,1.88-.95,3.39-1.09a5.52,5.52,0,0,1,2.63.14.93.93,0,0,1,.48.4c.13.17.26.36.44.56s.84-.2,1.35-.56.75-.81.61-1c-.41-.71-.56-1-.49-1.07s.15-.08.48.17a5.49,5.49,0,0,1,1.24,1.42c.16.19.3.38.43.56.32.52.35.8.92.92a4.14,4.14,0,0,0,.06-1.28,2.71,2.71,0,0,0-.86-.94,3.29,3.29,0,0,1-.94-1.06c-.15-.32.1-.36.39-.44s.61-.19.6-.45l-.26-.1a4.71,4.71,0,0,1-.59-.27,2.85,2.85,0,0,1-.59-.42,1,1,0,0,1-.21-.26,3.84,3.84,0,0,1-.09-.74c-.36-1.55-.63-3.53.42-2.44s.71-2,.28-3c-1-2.29-.51-.5.35-2.92-.42,1.18-1-.75-.36-2.46a24.5,24.5,0,0,0,.39-3.41c0-.47-.42-.45-.49-1.37-.16-2.09.17-4-.55-5.22-.94-1.56.74-3.28,1.28-3.17-2,.31-.44-6.26.18-4.92-1.31-2.84-1.24,0-.09-3.26-.42,1.17-1-2.76-1.22-3.21-.37-.81-.6.24-.64-1.4.23-1.32.64-3.66,1.35-3.77.43-.07.48-.19.45-1.26-.08-1.46-.66-.87-1.06-1.23s1.88-6,0-4.54c0-1.4.56-1.44,1.07-1.14a4.58,4.58,0,0,1-.23-3.74c1.16-.17.66-1.36-.05-2-.87-.79-1.45.28-.68-3,.41-1.72.81-2.12,1.57-2.24-1.64.25-.67-3.55-1.65-5.69-.87-.9-.92-5-.84-6.89a6.5,6.5,0,0,1,.41-2.42c.64-1,.12-2,.11-3.57,0-.92.41-2.37.41-2.72-.06-2.14-1.21-.22-1.23-1,0-.3.89-1.66,1-2.38.27-1.82-.12-2.67-.27-4.31-.26-2.75,1.51-.73,1.65-2.54.34-4.64-.93-2.5-1.86-4.12-.52-.9-.46-7.49-.16-8.73.36-1.44,1-2.26.18-4-.62-1.35-.24-2,.45-1.26.64-1.59,1-5.68-.35-4.3-.68.71-.43-6.51-.38-7.49.13-2.73,1.41.08,1.68-.68.1-.27-1.27-5.72-1.16-7.25.12-1.91.62-1.32,1.16-2,.87-1.1-1.33-2.73-1.31-2.12,0-1,1.41-1.31,1.37-2.88s-1.67.58-1.73-1.66c.58-.06,1.46.47,1.41-1.41-.28-1.4-1.7-.36-1.73-1.81-.05-1.66.91-3.42,1.13-5a34,34,0,0,0,.31-6c0-.78-.12-2.52-.58-2.44-1,.15-.06-2.21-.09-3.55-.37.05.4-2.52.39-3.26,0-2.66-.39-4.42.7-5.27.36-.28.18-2.36,1-2.49s1.21-4.35.55-4.24c-.1,0-1.91,5.33-1.12.76-.32-.93-.95-.87-1-2-.17-3.59.35-2.24-1-2.45-.73-.11-.63-2.08-.09-2.62,1.17-1.16,3-.17,4.33-.37-.13-5-4.46.52-4.41-3.63,0-1.6,1.21-11.33.09-12.23,1.69.15-.39-4.52-.26-6.8s2.21-8,1.52-9.67c-1.42-3.55-.32-4,1.17-4.19.82-2.31-2-2.07-2.46-2,.93-1.34,3-3.63,2.17-7.16-.31-1.32-.83,1.61-1.23,1.67-.66.1.22-3.14-.35-3.4-.31-.14-.73,1.49-.82-.39a12.19,12.19,0,0,1,.4-3.84c.31-1.11.89-1.3,1.39-1.37s1.43-1.94.42-1.78c-.31,0-2.83,2.17-2.55-.68.11-1,.36-2.31.54-3.24-.07-2.83,1.35-2.47,2.05-2.89,1.59-1-.65-2-.75-3.29s.42-3.59-.58-3.43c-1.54.24-.09-1.88.21-2.63.49-1.23,0-3.72-.19-4.87-.29-1.77.24-1.32.21-2.19,0-1.74-.62-2.72-.39-4.65.1-.84.88-4.21.47-5.11-.19-.41-.65,1.31-.81-.71-.07-.94-.38-5.84.32-5.94.54-.09-.28-6.83.27-8.36.35-.66,1.46-2.95.95-4.37-.44-1.18-1.27.17-1.59-1.77-.22-1.34,2.17-8.35.28-8.06a13.28,13.28,0,0,1,.94-3.39c.69-1.68-.21-1-.39-1.58s3.78-3.61,4.08-3.76c.49-.26,4.11-1.76,3.35.38,0,.74-1.9,6.47-1.6,6.67s.41-1.09.79-.61a2.82,2.82,0,0,0,.68,1.94c.54.55,1.79.49,1.73-1.59.16,6.13-.1,12.32-.11,18.47,0,4.86,0,9.75-.05,14.6,0,1-.38,2.91-.35,3.5.1,1.66,1.34,5.18.4,6.52-.64.92-2.25-2.09-2.5-1.39,0-.1.44,4.33.41,4.24.46,1.26,1.16,1,1.77.92-.94.14-.69,1.93-.38,2.78.47,1.28-.11,1.44.6,2.12s.31,2.45.09,3.37c-.27,1.09-.88,2.17-.63,3.65.18,1.11.8,1.73.5,3.14-.25,1.23-1.36,3.27-.63,5,.45,1.07.71.74.58,2.87-.1,1.87-.44,4.7-1.15,5.73-1.7,2.42.72,1.57,1.1,3.52a9.08,9.08,0,0,1-.12,3.21c-.14.75-1.44,3.76-1.44,3.88,0-.2,2.91,2.43,1.33,4.7-.2,1.44-.33,2.46-.47,4-.11,1.26-1.49,4.15-1.49,4.44,0-.63,1.61.91,1.72,1.12a6.1,6.1,0,0,1,.57,3.43c-1,.15-.42,6.28.51,5.86-1.47-.53-.55,11.8-.5,13.73.07,2.5-.89,2.83-.82,5.48-.12.69-.46,2-.11,2.65.23.44,1.41,1.15,1.42,1.75,0,.11-1.44.2-1,1.79.09.29,1.07,2.81.68,3.12-1.55,1.21.12,4-.08,6.77-.11,1.57-.41,1-.73,1.93s.38,3.76.39,4.87a16.91,16.91,0,0,1-.78,5.61c-.42,1.34,0,.94.27,1.88,1,3.56,1,11,.38,14.87-.52,3.45.73,1.24.72,4.17,0,2.07-.63,3.47-1.37,4,.51,0,1,.21,1.1,1.41.12,1.46-.4,2.8-.35,4.49s-1.09,1.14-1.47,1.62c-.5.63,1.39,3.12,1.54,4.41.22,1.84.58,6.65-.44,7.09,1.13,0,.88,6,.79,7.66a21.25,21.25,0,0,1-.72,5.4c-1,2.78.91,2.56.95,4.3a22.65,22.65,0,0,1-.58,3.91c-.17,1.36.33.63.36,1.77.06,2.28-.42,1.48-1,2.82-1.05,2.34-2.35,4.53-3.56,6.79a8.69,8.69,0,0,1,3-1.65c2.84-.4.1,1.42.18,4.28a9.8,9.8,0,0,1,.64-.87c.33-.4.68-.69.76-.31.34,1.79-1.06,5.25-1,7.5a10.32,10.32,0,0,1,.37,3.78c-.11.67-1.37,2.63-.74,3.2.39.35,1.27.12,1.31,1.78,0,1.33-.71,2.12-1.15,2,.76-.12.9,5.8.15,5.92,1.92-1.36.76,10.83.82,13.42,0,1.14.29,4.5-.19,5.37-.18.33-.86.68-.84,1.43a1,1,0,0,0,1.24,1c-.81.48-2.81,3.1-2.12,4.59.22.47,1.68-2.62,1.75.17.95,2.07-.89,2.89-.84,4.88,2.53-.9,0,3.67-1.35,3.78.05,2.08,1.95.08,2.33,1.71a11.42,11.42,0,0,1,.24,1.86c0,.35,0,.72,0,1.09,0,.52,0,1,0,1.56,0,2.84-.21,5.59-.4,7.23a5.45,5.45,0,0,1-1.09,2.33c-1.75-.5-3.16-.92-3.76-.61s0,.6.52.95,1.08.68.55.84l-5.33.09-2.59,0c-.5,0-1,0-1.48,0a7.27,7.27,0,0,1-3.38-.88c-1.51-.57-1.44.69-1.95,1-2.08,1.26-3.17-1.52-3.5-1.51a6.32,6.32,0,0,0-1.95.77c-1.55.71-3.14.55-5.07.34s-1.32.33-2.87.34a34.62,34.62,0,0,1-5.31-.61c-.79-.13-2.69.85-4.61.86-.9,0-1-.11-1.07-.45-1.41-.08-3.15.08-4.59.12-1.85,0-.73.11-2.28-.49s-1.12.71-1.71.93c-3.77,1.38-3.3-2.23-3.78-2.72-.67-.66-.79,2.23-.91,2.29-.78.4-5.6.68-5.26-.19.07-.18.62-3-.8-2.58-1.6.46-1.16,3.35-3.82,3.34-1,0,.17-.6-1.33-.56s-2.78.29-2.88-.41c-1.51.11-2.09.65-3.39.89-1.09.2-2.09-.75-3.71-.71.17,1.13-5.86-1.19-6-1.11-1,.46-.74,1-3,1.05a9.32,9.32,0,0,1-2.87-.33c-.18-.05-2.41-1.21-2.54-1-.44.68.81,1.54-2.39,1.36-2.6-.15-4.09-1.44-5.74.13.11.69-2.05-.59-3.54.09.07.47-3.65.69-4.32.74a16.64,16.64,0,0,1-5.39-.21c-2.09-.57-6.3-.07-8.63-.1-3,0-6.53-.08-9.52-.29-.57,0-5-1.09-4.26-1.43-1,.46,1.53,2,.49,2.27l-.23,0-.61-.15-1.8-.48a17.66,17.66,0,0,1-2.63-.81,6.11,6.11,0,0,0-3.1,1.11c-1.71.84-2.53-.39-4-.43-3.36-.08-3.79-.47-3.8-1.85.49,2.19-2.35,2-7.26,2.11-4.39.11-5.58,0-5.76-1.78a6.46,6.46,0,0,0-1.14,1.61c-.42.68-1.59.34-2.18-.08.66,0-3.28-.06-2.38.26-.52-.18-1.87-1.35-2.39-1.34-.36,0,.54,1.43-1.41,1.48-2.28.06-3.21-.78-4.61-1.28,1.51.54-3.38.82-3.42.9-.25.56-.67.36-2.36.4-.55-.23.23-1.16.27-1.15.34.12-9.1.76-10.41.7-1.06,0-3.12-.84-3-.18-2.19,1-4.48.73-7.48.51-.37,0-4.11-.13-3.55-.55s-.46-2.51-1.74-1.92,0,2-2.15,2.46-3.33-1.24-4.93-1.2c.09,0,1.43.94.62,1.13a23.4,23.4,0,0,1-6.42,0c-1.83-.41-1.45-.38-3.78,0a20.12,20.12,0,0,1-5.85.06c-1.85-.3-1.59-.77-3.28-.17a10.78,10.78,0,0,1-5.08,0c-.71-.16-1.93-1-2.92-.84-1.77.29-2.28,1.22-4.39,1.37-.13-.83-1.29-.29-2.34-.1-1.22.22-1.57-.52-2.15-.9.87.72-6,1.54-7.39,1.36-.18,0-6-3-6.62-1.67-.18.4,2,1.17-.86,1.07-1.62-.06-4-1.33-4.48-1.32.11,0-.23,1.21-2.33,1.26s-.5-.51-.85-.64a11.7,11.7,0,0,1-2.8.11c-1-.15-2.11-1.23-3.17-.9-1.87.58-4.92,2.82-8,1.59-.66-.26-.63-1.45-1.59-1.43-1.7.05-1.35,1.3-2.49,1.65-3.19,1-5.2-.43-7.13-1.16a8.09,8.09,0,0,0-3.55-.56c-1.32.18.36.89-.23,1.27-2.06,1.32-5-.43-7.12-.44.09.63-1.84.53-2.74.56-1.37,0-2,.53-3.69.47l-.7,0-.31,0-.16,0-.26,0c-.75-.05-1.4-.11-2-.18A18.67,18.67,0,0,1,8,330.72a20.57,20.57,0,0,0-4.77-1c-.73-.06-.73.12-.55.31s.55.39.43.36c-.32.57-1,.79-2.71,1-.08-.49-.15-1.14-.23-2-.54-5.32,1-2.85,1.6-4,0-2.19-.65-1.62-1-1.36,0-1.64.12-2.9.22-4.15l.06-.95.06-.58a12.26,12.26,0,0,0,0-1.25c0-.55-.5-.72-.64-1.51a14.32,14.32,0,0,1,0-4.62c.13-.71.9-3.71.18-3.6.08,0,1.32-.38,1-1.19C1.13,305-.11,306.39,0,303a3.78,3.78,0,0,1,.46-1.76,15.31,15.31,0,0,0,.17-4.09c-.06-3-.63-6.59.15-9.31.36-1.25,1.6-.4,1.29-1.91a58.18,58.18,0,0,1-.91-6c-.72.11-.75-6.34-.6-7.56s2.21-.67,1.37-2.38c-.29-.59-1.29-1.11-1.32-2.3s.93-.46.89-2a26.64,26.64,0,0,1-.61-2.86c-.18-2.15-.3-4.35-.39-6.53s-.14-4.4-.08-6.58c0-1.64.39-2.75.35-4.3,0-.93-.13-2.13-.06-3.06.06-.77.86-.3,1.08-.91.3-.83-1.11-4.38-1.24-5.77a41.6,41.6,0,0,1,0-6.79A7.26,7.26,0,0,1,1,226.62c.22-.42,1.05.66,1,.09C2,225.36.58,225,.4,223.25s.57-1.31.86-2.25a14.62,14.62,0,0,0,.34-5.41c-.26-2.31-1.43-3-.68-5.73.38-1.37,1.32-3.56.55-5.23-.69-1.5-.74.8-.82-2.36,0-1.54-.06-3,0-4.51.11-2.51-.29-14.1,1.32-14.1-1.71.9-1-7.48-.6-9.41.72-.11.91-2.3.87-3.7,0-2.06-.74-1.81-1-3.1a15.21,15.21,0,0,1-.55-4.82,1.84,1.84,0,0,1,.39-1.4c.07-.93-.15-1.85,0-2.78a62.8,62.8,0,0,0,1.21-6.72c.09-1.52-.33-3.42-1-2.4-.07-2.91-.21-5.84-.15-8.76,0-2.3.19-4.58.22-6.88,0-1.42-.09-2.84,0-4.26,0-.57.38-1.48.38-1.71l-.36-14.18a18.69,18.69,0,0,1,.16-4.35c.46-2.5-.34-4.62,0-7A26.34,26.34,0,0,0,1.83,97l.08-9c0-3.73-.2-8.13.21-11.76.16-1.38.68-1.36.34-3.21-.11-.6-1.6-3.57-1.07-4.36C2.52,67,1.25,67.05,1.31,65c.06-2.42,2.1-.72,2-3.92-.69-.27-1.33,1.58-1.44-.57-.09-1.74-.63-7.95.63-7.62-.76.29-1.45-2.14-1-3.85.21-.91.61-.57.85-1.47a11.32,11.32,0,0,0-.06-4.34A13.1,13.1,0,0,0,1.35,40c0-1.45.43-2.06.41-2.85,0-1.32-.57-7.82.28-7.95-1.44-2.7-.47-3.34.33-6-.4.07-.67-3.59-.77-7.48,0-1,0-1.95,0-2.9,0-1.29,0-2.52,0-3.63a49,49,0,0,1,.26-5.57A16.87,16.87,0,0,0,2,.59C3.82.57,5.88.46,7.14.44A16.85,16.85,0,0,1,11,.85a14.21,14.21,0,0,0,1.83.2A7.61,7.61,0,0,0,14.51.9C16.23.59,16.22.27,18.26.22c1.35,0,.61.37,2,.41C23.1.7,23,1.08,25,1.79c-.26-.09.58-1,1.18-1S28.56,1.84,29.26,2c1,.26.63-.51.61-.66C30.47.8,32.21.45,33.55.25c2.76-.41,1.85.44,4.65.42,2.38,0,4.45.47,6.41.26,8.2-.91,18-.55,26.47-.61,6.31,0,13,.09,19.38.23,7.16.16,14.28.36,21.34.67,1.57.56,2.16-.06,4.14-.11s3.88,0,5.25-.61c-.15-1,1.47.2,1.63.24,1.85.41,4.84,0,6.86,0,.85,0,1.07.11,1.12.44.12.76.6.82,2.23,1.08,3.23.5.12-1.78.46-1.93S138,1,138.86,1c1.24,0,1-.54,2.54-.38.48.05,3.39,1,3.94.49.28-.27-1.79-1.53,1.25-1a19.32,19.32,0,0,0,4.46.5c6.11,0,12.15-.34,18.26-.06,1.46.06,2.39.39,3.78.47a35.33,35.33,0,0,0,5.1-.29c4.18-.32,8.64-.44,12.89-.36s9-.23,12.88.33c1.72.25,1.64.58,3.82.27A68,68,0,0,1,214.7.55c3.71-.14,7.35.13,11.08.14,4.27,0,11.86-.68,15.49.62,1.53.54,2.54,1,2.37-.06-.14-.93,3.58-.11,4.66-.6,1.51-.7,4.41.18,6,.33,2.09-.06,3.15.2,5.23.23,6.37.09,12.8-.22,19.15-.36,2.38-.06,8-.52,10.08.22,2.84.49,1.8.31,1.9-.32,0-.33,4.91.11,5.19.14,2.43-.07,4.79.36,7.18.3.84,0,2.36-.11,2.44.42a12.61,12.61,0,0,0,3.28-.43c4.25-.65,8.93.12,13.28,0C323.16,1.16,329.05,1.13,325.65,1.93ZM78.79,330.18a1.12,1.12,0,0,1,.29.14A2,2,0,0,0,78.79,330.18Z"/><path class="cls-1" d="M322.3,122.36a.3.3,0,0,0-.3,0A1.17,1.17,0,0,0,322.3,122.36Z"/><path class="cls-1" d="M332.18,300.13a.62.62,0,0,0,.23-.08A.35.35,0,0,0,332.18,300.13Z"/><path class="cls-1" d="M74.94,321.54a.39.39,0,0,0,0,.37A.86.86,0,0,0,74.94,321.54Z"/><path class="cls-1" d="M324.28,7.93c-.19-1.08-.95-1.47-1,.15S324.32,9.7,324.28,7.93Z"/><path class="cls-1" d="M329.59,8.3c0-.86-.74-1.54-.72-.72,0,.3.45,3.38.7,2.66A11.41,11.41,0,0,0,329.59,8.3Z"/><path class="cls-1" d="M327.16,7.49c.83.44.9-1.38.42-2.44l-1.64.25C326.77,5.17,327.1,5.22,327.16,7.49Z"/></g></g></svg>