<svg xmlns="http://www.w3.org/2000/svg" viewBox="0 0 163.76 164.17"><defs><style>.cls-1{fill:#010101;}</style></defs><g id="Layer_2" data-name="Layer 2"><g id="content"><path class="cls-1" d="M2.83,50.66c.19.18,1.08,1,1-.15C3.82,49.82,2.81,49.59,2.83,50.66Z"/><path class="cls-1" d="M3.6,88.58c0,.62.8-1.24.61-1.62S3.61,88.21,3.6,88.58Z"/><path class="cls-1" d="M4.4,118.31c.06-.91-.19-1.14-.53-1.09v.58C4,118.08,4.21,118.33,4.4,118.31Z"/><path class="cls-1" d="M6.49,1c.58,0-.62-.24,0,0Z"/><path class="cls-1" d="M1,3.55c.29,1.19,1-.17,1.49.85C2.29,4,1.93,5.6,2.06,6.15c.36,1.55.54.07.84,0-.15,1.65.4.7.7.83.46.2-.47,2.15.29,1.68s1.16-1.39,1.83,0S5.38,12.51,5.59,10c.12-1.41-1.22,0-1.2-.42,0-.05.31-1.49-.13-.84A4.51,4.51,0,0,0,3.78,11c0,.82.34,2.25.06,3-.16.43-.6.14-.58,1s.68.89.58,1.62c-.16,1.23-.49.77-.1,2.34a6.24,6.24,0,0,1-.15,2.73c-.21.76-.76.66-.74,1.49L3.6,23c0,.62-1.47,2.12-.75,2.43.4.17.32.87.36,1.67,0,1,.47,1.66,0,2.24-.17.23-.55-.13-.6.45-.07.88.47,1,.69,1.2.39.47-1,3.48.06,2.34,0-.06-.15,2,.27,2,0,.76-.85,2.46-.19,2.37a1,1,0,0,1-.32.64c.52.16,1,1.44.57,2.56-.19.49-.91.07-.89,1,0,.77.44.47.63.53.63.24.55,2.52,0,2.9-.27.2,0,.56-.48.64l-.83.12c0,1.57,1,.92,1.41,1.33a.72.72,0,0,1,.15.78c0,1-.52,0-.69,0-.44.14-.62,1.76-.55,2.61,0,.39.33.84.26,1.19s-.39.52-.47.94c.07-.33,1.46.33,1.67.46-.12-.07-.31.5-.22.79.32,1.11.55.66.33,2.33a14.41,14.41,0,0,0-.17,2.77c-.77-.89,0,2.27-1.07,1.17-.37-.37-.33-1-.79-.9-.23-.08-.51.07-.75.11a6.08,6.08,0,0,1,1.36,1.68,1.94,1.94,0,0,0,.78.95c.42.18,0,2.05.67,1.64-.21,0-.38.28-.41.79,0,.73.2.48.34,1,.24.77-.93.84-.94.38,0,.43.47,1,.56,1.4a7.53,7.53,0,0,1,0,2.8c-.19,1.11-.92-.36-1.11-.83,0,.67.05,1.16.38,1.11-.88.13-1.36,3-.06,1.77.77-2,1.92,1.63,1.08,2.77.16-2.46-1-.1-1.05-1.61-.66.07-.65,1.53-.06,1.79.13,0-.13,1.25-.09,1.57s.76-.06.93.12A2.58,2.58,0,0,1,4,79.24c-.2.89-.44-1.47-.61-1.45A16.83,16.83,0,0,0,3.4,80c.1.7.53.07.59.53,0,.3-.27,1.62.19,1.55-.29,1-.92,1.07-.21,1.79.5.48.37.88,0,1.75-.94,2.53-1.26,4.26-.08,6.68-.5-1-.67,2.2-.18,2.13.91.91-.18,2.85-.24.62a1.35,1.35,0,0,0-.45,1.82c0,.63.34.54.51.51,0-.57.38-1.77.57-.94.33,1.39-.29,2-.26,3a6.84,6.84,0,0,1-.41,3.2,2.3,2.3,0,0,1,.17,2,4.72,4.72,0,0,0-.33,1.12c0,.71.22.57.35,1.1.31,1.23-.5.76-.54,1.29-.08,1-.11,1.6-.62,1.68a1.68,1.68,0,0,1,1.17.41c-.52.08-1.71.12-.94,1.89a8.59,8.59,0,0,1,.89,2c.13.8-1,.46-.06,1.37.17,0-.73,2.31-.58,2.78a7.17,7.17,0,0,0,1.22,2.4c-.11.1-1.11.88-1.1,1s.7.34.55.73c-.21.55-.77.12-1.05,1a8,8,0,0,0,.23,3c.41,1.68-.07-2.6.33-2.13a6.59,6.59,0,0,1,1,2.11c.29,1-.08,1.35,0,2a5.08,5.08,0,0,1,.28,2c-.09.81-.28,1.48-.36,2.31a6.92,6.92,0,0,0,0,1.51,6,6,0,0,0,.28.67s-1.51.14-1.71.17a2.25,2.25,0,0,0-1.12.75c.68-.1,2.73-.84,2.88,1.39A15.74,15.74,0,0,1,4,142.35c-.42,1.12.27.82.2,1.51s-.87,1.24-.39,2.18c.18.34,1.2,1.43.33,1.56-.36.94.13,1.16.05,2.16q-.08.3-.24.21a4.39,4.39,0,0,0,.21,1.57c.18.61-.3,1,.13,1.89.48-.07-.13,1.74-.16,2.14a9.08,9.08,0,0,0,.09,1.69l0,.2,0,.1.06.19a2.32,2.32,0,0,1,.06.38,3.53,3.53,0,0,1-.1,1c.36.14.79.43.7.9a1.69,1.69,0,0,1,.47-.77c.27-.2.26-.32,1.21-.27a20.55,20.55,0,0,1,2.47.4c1,.15.86-.47,1.32-.53.15,0,0,1,.25,1.1.46.31,1.13-.91,1.38-.92.08,0,.12.75.76.74.34,0,.78-.56,1.44-.64,1.35-.15,3.4-.25,4.15.36,1.32,1.08.61.79,1.9,0,.95-.58,2.48.73,2.93.46.08-.05-1.35-1.91.85-.89.9.42.69.81,1.59.11.67-.51,2.64,1.06,2.87,1.15-.25-.1,1.43-1.29,2.71-1.14-.19,0-.35.41-.32.5,1.41,0,1.78-.8,3.49-.87.42,0,1.07,0,1.1.24.08.49,1.24,0,1.45.29.09.11-.55.49.22.58.6.06,1.33-.44,1.83-.54,1.22-.25.65.53.77.81,1.23,0,.82-.4,1.47-.72.4-.19.87.32,1.64,0,.34-.15,2-.46,2.13-.06,0,.08.53,1.22.86,1.06s-.31-.49-.29-.65c0-.32.75-.28,1.33-.29s.18-.19.77-.21c.78,0,1.38.15,2.21.13,1,0,6.62-.54,6.2.33.41,0,1.17,0,1.13-.28a8.75,8.75,0,0,0,1.56-.11c.8-.31,2.69-.06,4,0,.88,0,1.75.17,2.65.14l1.17,0c0-.12.12-.19.41-.2.86,0,3.07.44,2.43-.37,1.19,0,.37.24.83.37a7.34,7.34,0,0,0,2.17.29c.61,0,.71-.68,1.43-.41s.9.77,1.63,1.05c1.42.55.77-.74,1.63-.76.26,0,4.08-.11,3.53.16.89,0,1.84-.1,2.72-.06,1.31.06.51,1,2.09.93-.13-.31-1.55-.66-.3-.73a19.84,19.84,0,0,1,2.67-.05c.74.06.23.21,1.13.19s3.06-.44,3.43.21c.17.3.63.52.74.85,0,0-.36.5,0,.43,0,0,.74-.26.89,0s-.48.3.24.28c.3,0,0-.75,0-.75,0-.37-.92-.91-.51-1.27.25-.22-.1-.32,0-.5s1.34.28,1.43.29c.79.11.26-.21.66-.25s2.11.81,1.87.93c.53-.26,1.43-1.72,1.62-.45a10.75,10.75,0,0,0,3.13.38c.6-.06,3.19-.79,3.32-.24.06.23-.37.32.07.43,1.45,0,.54-.26,1.13-.55.22-.1,1.69.91,1.78,1-.91-.68,3.42-1.63,4.7-1.37.38.09.48.26.85.36a10.82,10.82,0,0,0,2.06-.19,2.21,2.21,0,0,1,1.21.32,7.44,7.44,0,0,0,2,.09,30.22,30.22,0,0,1,4.36,0c.6.07.6.33,1.22.35a17.26,17.26,0,0,0,2.28-.44c1.48-.15,3.61.43,4.81.15.61-.14,2.56-1,2.77-.23,0-.25.42-.5,1.08-.52-.15.63,1.59.6,2.54,1-.2-.15-.36-.32-.2-.42.48-.28,1.37.37,1.62.44a4,4,0,0,0,1.86,0c.6-.14.59-.77.82-.81s2.14.77,1.57-.12c.16.73,2.51.54,3.66.65,1.33.13.62.56,1.25.81a6.54,6.54,0,0,1,.7-1.08c-.3.07,2.13,1.07,2.36.52-.05.13-.32-1.36.32-.86a1.43,1.43,0,0,1,.66,1.16,2.38,2.38,0,0,1,1.92-1c.65,0,1.2.5,1.52.49s.59-.61,1-.67c-.11.14.49.09,1,0-.06-.6-.15-1.12-.13-1.18a.53.53,0,0,1,.76-.39c.32.11.68.51.9.54-.11,0-.22-.85-.25-1-.18-.57-.34-.44-.58-.44-.41,0-.26-1.93-.17-2.39a2.45,2.45,0,0,1,.5-1c.31-.51-.4-.71-.48-.93-.41-1,.1-1.59-.78-1.46.57-.09.22-1.56.43-2.23,0-.18.37-.41.41-.06.11.78.51-.07.53.57a16.59,16.59,0,0,1,0-1.7s.46,1.68.66,1.15-.6-1.73-.71-1.85c-.45-.5-.71.09-1-1.19,0-1.93.75-3.42.45-5.26a10.92,10.92,0,0,1-.52-2.44c0-.29.62.17.79-.19a.62.62,0,0,0-.46-.93c-1-1,.36-.83.35-1.29s-.51-.49-.64-.42c.42-1.11-.13-2.85-.08-4.16,0-.92.66-3.9-.14-4,.55-.35-.15-3.58-.12-4.45A6.59,6.59,0,0,1,159,120c0-.62.21-1.21,0-1.74,0-.44-.12-1.74.21-1.79a19.52,19.52,0,0,1,.08-2.86,5.64,5.64,0,0,1,.32-.78c0-.71-.25-.88-.29-1.71-.06-1.3-.45-2.54-.46-3.88,0-.92.73.66.86.64s-.34-1.48-.32-1.43a5,5,0,0,1-.49-1.47c0-.35.22-.84.2-1.37-.35,0-.49-2.27-.06-2.33.34-.53,1,.21,1.33-.71-.09.23-.78,0-.85-.44a6.06,6.06,0,0,0-.11-1.07c-.14-.35-.46-.32-.62-.72a4.4,4.4,0,0,1,.1-2.89c.35-2-.41-1.18-.45-2.64,0,.53.89.41.85-.93,0-.66.07-4.69-.37-4.63-.27-.54.12-2.36.43-2.4,0,0,.83,2.14.84.8,0-.89-1.18-1.36-1.42-1.59a.74.74,0,0,1,0-1.14,2.5,2.5,0,0,1,.65-.49c0-.21-.48-.57-.56-.87s.27-1.08.34-1.28c.36-1-.17-1-.46-1.52-.53-1,.12-.77.33-.91s.15-2.61-.39-2.26c.81-.3.59-4.3.72-5.77a10.14,10.14,0,0,0,.18-1.8c-.21-.72-.93-.51-1-1.79.38-.24,1.8,1.7,1.75-.25-.62.16-1.21-.28-1.78-.84.09.09.62-.34.61-.75s-.64-1-.75-1.47c-.18-.79.52-1.81.54-2.89,0-1.32-.4-1.24-.56-2.36a5.05,5.05,0,0,1,.1-2.1c.14-.38.87-.47.89-.75.07-.82-.77-2.16-.45-3.17a5.38,5.38,0,0,1,1.38-1.45c-.24-.48-.6-.16-.87-1.06-.2-.69-.28-3.27-.59-3.41-1.26-.54.05-1.2.65-1.28,0-.78-.15-.45-.41-.55s-.13-1.33-.15-1.66c-.05-1-.29-1.63-.32-2.64-.13-.6-.08-1,.15-1.07.17-.57-.1-1-.07-1.4.05-.53.73,0,.74.09-.05-1.55-1.1-1.11-.72-3.19.15-.8.4-1.38.74-.69.14.45.66,1.36.51.06a11.21,11.21,0,0,0-.65-2.2,15.69,15.69,0,0,1-.5-3.36c0-.31-.13-2-.23-3.65-.06-.82-.11-1.62-.15-2.21,0-.3-.05-.55-.06-.72a1.51,1.51,0,0,0,0-.28c.37.12,1.06.48,1.43-.49-.11.3-.89-1-1-1.2a1.87,1.87,0,0,1-.34-1.79c.23-.9-.19-2.5.12-3.23.11-.26.52,0,.51-.55,0-.73-.64-.82-.82-1.2.05.1.47-.29.5-.58-.1-.05-.15-.19-.17-.41a2.69,2.69,0,0,1,.34-1.12,3,3,0,0,1,.72-1.09c-.3-.15-.49-.93-.57-1.67a2.41,2.41,0,0,1,.08-1.27,4.06,4.06,0,0,1,.5-.44,1.24,1.24,0,0,0-.29-.64c-.19-.26-.42-.35-.55-.27-.36.21-.52.3-.55.27s.11-.42.83-.9l.29-.22c.27-.17.42-.2.48-.48a1.61,1.61,0,0,0-.63,0c-.37.15-.59.73-1,.93-.29.16-.13-.52-.41-.51a2.12,2.12,0,0,1-.21.44,1.73,1.73,0,0,1-.22.31l-.13.11-.08,0h-.19c-.76.19-1.74.33-1.2-.22s-1-.36-1.46-.14c-1.13.54-.25.27-1.44-.18.58.21-.37.5-1.21.18a12.66,12.66,0,0,0-1.68-.2c-.23,0-.22.22-.68.26-1,.08-2-.09-2.57.28a1.1,1.1,0,0,1-1.56-.66c.15,1-3.08.22-2.43-.1-1.4.68,0,.65-1.6.05.58.22-1.36.52-1.58.63-.4.2.12.32-.69.34-.65-.12-1.81-.33-1.86-.7s-.09-.25-.62-.24c-.72,0-.43.34-.6.55s-3-1-2.24,0c-.69,0-.71-.29-.56-.56a2.12,2.12,0,0,1-1.84.12c-.09-.6-.68-.34-1,0s.14.75-1.47.35c-.85-.21-1.05-.42-1.11-.82.13.86-1.75.35-2.8.86-.45.45-2.47.48-3.4.44a3.13,3.13,0,0,1-1.19-.21c-.48-.33-1-.07-1.76-.06-.45,0-1.16-.22-1.34-.21-1,0-.1.63-.49.64-.15,0-.82-.47-1.17-.52a6.49,6.49,0,0,0-2.13.14c-1.35.13-.35-.79-1.25-.86-2.29-.18-1.23.48-2,1a14,14,0,0,1-4.3.09c-.71-.19-1.11-.51-2-.09-.66.32-1,.12-.62-.24-.79-.33-2.8-.5-2.12.18.35.36-3.2.23-3.69.2-1.34-.07,0-.73-.33-.87-.14,0-2.82.66-3.57.6-.95-.06-.66-.32-1-.61-.54-.45-1.34.7-1,.69-.51,0-.64-.73-1.42-.71s.29.87-.82.9c0-.31.23-.76-.69-.74-.69.15-.18.89-.89.9A14.52,14.52,0,0,1,85,4.85a17,17,0,0,0-3-.16c-.38,0-1.24.06-1.2.31.08.53-1.09,0-1.75,0,0,.19-1.24-.2-1.6-.2-1.31,0-2.18.2-2.6-.36-.14-.19-1.16-.1-1.23-.55s-2.14-.63-2.09-.28c0,.05,2.63,1,.38.58-.46.17-.43.5-1,.53-1.77.08-1.11-.19-1.21.52,0,.38-1,.33-1.29,0-.57-.61-.08-1.58-.18-2.25-2.45.06.25,2.32-1.79,2.29-.79,0-5.58-.63-6,0,.07-.88-2.23.21-3.36.14s-3.92-1.15-4.76-.8c-1.75.74-2,.18-2.07-.6-1.13-.43-1,1.06-1,1.28a4,4,0,0,0-3.53-1.13c-.65.16.79.43.82.64S45,4.73,44.88,5s.74.38-.19.43a5.75,5.75,0,0,1-1.89-.21.8.8,0,0,1-.68-.72c0-.3-.95-.75-.88-.22,0,.16,1.08,1.47-.33,1.32-.5,0-1.14-.18-1.6-.27-1.39,0-1.21-.71-1.42-1.08-.47-.82-1,.34-1.62.4s-1.77-.22-1.69.3c.12.8-.93,0-1.3-.11a5.4,5.4,0,0,0-2.4.1c-.87.15-.65-.12-1.07-.11a12.08,12.08,0,0,1-2.3.2A8.15,8.15,0,0,0,25,4.82c-.21.1.64.34-.35.42-.47,0-2.88.2-2.93-.17s-3.37.15-4.12-.14c-.32-.18-1.45-.76-2.15-.49s.08.66-.87.83c-.66.11-4.12-1.14-4-.15a6.35,6.35,0,0,1-1.67-.49c-.83-.36-.49.11-.78.2s-1.78-2-1.86-2.12S5.44.57,6.49,1c.37,0,3.19,1,3.29.83s-.54-.21-.3-.41A1.3,1.3,0,0,0,10.43,1c.27-.28.24-.93-.78-.9,3-.08,6.07.06,9.1.06,2.39,0,4.8,0,7.19,0,.49,0,1.43.19,1.72.18.83-.05,2.56-.7,3.22-.21.45.33-1,1.17-.69,1.3,0,0,2.14-.23,2.09-.21.62-.24.5-.61.45-.92.08.49,1,.36,1.38.19.62-.24.71.06,1-.31s1.21-.16,1.66,0a3.89,3.89,0,0,0,1.8.33c.55-.1.85-.42,1.54-.27s1.61.71,2.47.33A1.7,1.7,0,0,1,44,.29a7,7,0,0,1,2.83.6c1.19.88.77-.38,1.73-.58a4.39,4.39,0,0,1,1.58.07c.37.07,1.85.75,1.91.75-.1,0,1.2-1.52,2.32-.69.71.1,1.21.17,2,.24a17.71,17.71,0,0,1,2.19.77c-.31,0,.44-.83.55-.89A2.8,2.8,0,0,1,60.81.27c.07.52,3.09.21,2.88-.27-.26.76,5.82.28,6.77.26,1.23,0,1.39.46,2.7.43.34.06,1,.23,1.31.05S75,0,75.33,0c0,0,.09.75.88.52.14,0,1.38-.55,1.54-.35.59.81,2-.06,3.33,0,.77.06.52.22,1,.38a12,12,0,0,0,2.4-.2,8.13,8.13,0,0,1,2.77.4c.66.22.46,0,.92-.14A22.45,22.45,0,0,1,95.45.46c1.7.27.61-.38,2-.38a2.43,2.43,0,0,1,2,.71c0-.26.1-.52.69-.57s1.38.21,2.21.19.57.56.8.76,1.54-.73,2.18-.8c.9-.12,3.27-.3,3.49.22,0-.58,2.94-.45,3.77-.41a10.28,10.28,0,0,1,2.66.38c1.37.52,1.26-.47,2.12-.49a10.14,10.14,0,0,1,1.93.3c.67.09.31-.18.87-.19,1.12,0,.73.22,1.39.53,1.15.54,2.23,1.22,3.35,1.85A4.4,4.4,0,0,1,124.11,1c-.2-1.48.7-.06,2.11-.09,0,0-1-.66-.58-.73.88-.18,2.59.55,3.69.52A4.77,4.77,0,0,1,131.2.5c.32.05,1.29.71,1.57.38s.06-.66.88-.69c.66,0,1,.38,1,.61-.06-.4,2.85-.47,2.91-.08-.67-1,5.34-.4,6.61-.43a8.89,8.89,0,0,1,2.65.1c.16.09.33.45.7.44A.52.52,0,0,0,148,.18c.23.42,1.52,1.46,2.26,1.1.23-.11-1.29-.87.08-.91,1-.49,1.42.47,2.41.44-.45-1.32,1.8,0,1.86.7,1,0,0-1,.84-1.21a5.58,5.58,0,0,1,.92-.12l.54,0h.92c1.39,0,2.74.1,3.55.2a2.6,2.6,0,0,1,1.12.57c-.26.88-.48,1.58-.32,1.87s.31,0,.49-.28.35-.55.44-.3c0,.86,0,1.75,0,2.63,0,.44,0,.89,0,1.33V7a3.53,3.53,0,0,1-.46,1.66c-.3.75.36.71.51,1,.66,1-.79,1.57-.78,1.73a3,3,0,0,0,.4,1,4.34,4.34,0,0,1,.17,2.5c-.11,1,.18.65.18,1.41a15.77,15.77,0,0,1-.32,2.62c-.06.39.45,1.32.45,2.27,0,.44-.06.5-.23.53-.05.69,0,1.55.06,2.26,0,.91,0,.36-.25,1.12s.36.55.48.85c.72,1.85-1.16,1.62-1.41,1.86s1.15.38,1.19.44c.21.39.35,2.76-.1,2.59-.1,0-1.56-.3-1.35.4s1.75.57,1.74,1.88c0,.5-.31-.08-.29.66s.15,1.36-.21,1.42a10.22,10.22,0,0,0,.46,1.66c.1.54-.39,1-.37,1.83.59-.08-.62,2.89-.58,3,.24.5.51.37.55,1.48a4.47,4.47,0,0,1-.17,1.41c0,.09-.63,1.19-.53,1.25.36.22.81-.4.71,1.18-.08,1.28-.75,2,.07,2.83.36-.06-.31,1,0,1.74.25,0,.37,1.8.39,2.13a7.9,7.9,0,0,1-.11,2.65,20.82,20.82,0,0,0,0,4.26c0,1.49-.05,3.22-.15,4.69,0,.28-.57,2.47-.75,2.1.24.5,1.06-.76,1.19-.25a4.15,4.15,0,0,0-.11.42l-.25.89a8.23,8.23,0,0,1-.42,1.29,2.9,2.9,0,0,0,.58,1.53c.43.84-.21,1.25-.23,2,0,1.66-.24,1.87-1,1.88,1.14-.24,1,1.15,1.1,3.57,0,2.16,0,2.75-.93,2.84a3.41,3.41,0,0,0,.84.56c.35.21.17.79,0,1.08,0-.33,0,1.61.13,1.17-.09.25-.7.92-.7,1.18s.75-.27.78.69a4.7,4.7,0,0,1-.67,2.27c.28-.74.43,1.67.47,1.69.29.12.19.33.21,1.16-.12.27-.61-.11-.6-.13s.39,4.48.36,5.13-.43,1.53-.09,1.48a7,7,0,0,1,.27,3.69c0,.18-.07,2-.29,1.75s-1.31.23-1,.86,1.06,0,1.28,1-.65,1.65-.63,2.44c0,0,.49-.71.59-.31a10.8,10.8,0,0,1,0,3.16,3,3,0,0,0,0,1.86,9.33,9.33,0,0,1,0,2.89c-.16.91-.4.78-.09,1.61a5.08,5.08,0,0,1,0,2.51c-.08.34-.52,1-.43,1.43.15.88.63,1.12.71,2.17-.43.06-.15.63,0,1.15s-.27.77-.47,1.06c.38-.43.8,3,.71,3.64,0,.09-1.57,3-.87,3.26.2.09.6-1,.55.42a13.35,13.35,0,0,1-.68,2.21c0-.05.63.12.66,1.15s-.27.25-.34.42a5.6,5.6,0,0,1,.06,1.38c-.08.48-.64,1-.47,1.56.3.92,1.47,2.42.83,3.93-.14.32-.76.31-.75.78,0,.84.68.66.86,1.23.51,1.57-.22,2.56-.6,3.51a3.79,3.79,0,0,0-.3,1.75c.1.65.47-.18.67.11.68,1-.23,2.45-.23,3.51.33,0,.28.91.29,1.35a15.14,15.14,0,0,1,.25,1.82l-.06.87c0,.37-.06.69-.09,1a9.32,9.32,0,0,1-.28,1.31,9.48,9.48,0,0,0-.54,2.32c-.06.73.38,0,.35.07.3.18.41.51.52,1.37-.24,0-.56.08-1,.12-2.6.28-1.43-.49-2-.83-1.08,0-.78.33-.65.51-.8,0-1.43-.06-2.05-.11l-.9-.06a4.1,4.1,0,0,0-.62,0c-.27,0-.35.26-.74.34a7,7,0,0,1-2.28,0c-.35-.07-1.83-.47-1.77-.09,0-.05-.19-.69-.59-.49-.56.27.1.92-1.55.85a1.81,1.81,0,0,1-.87-.24,7,7,0,0,0-2-.09c-1.47,0-3.25.33-4.59-.07-.62-.19-.2-.84-.94-.67a28.33,28.33,0,0,1-2.95.47c.06.37-3.12.39-3.72.31s-.33-1.15-1.17-.71c-.3.15-.55.67-1.14.68s-.22-.48-1-.46a13.35,13.35,0,0,1-1.41.32c-1.06.09-2.14.16-3.22.2s-2.16.08-3.24,0c-.81,0-1.36-.2-2.12-.18a12.56,12.56,0,0,1-1.5,0c-.38,0-.15-.45-.45-.56s-2.16.58-2.85.65a18.63,18.63,0,0,1-3.34,0,3.41,3.41,0,0,1-1.14-.21c-.2-.12.33-.55,0-.55-.67,0-.86.73-1.71.83s-.65-.29-1.11-.45a6.92,6.92,0,0,0-2.67-.18c-1.13.14-1.48.75-2.82.36-.67-.2-1.75-.69-2.57-.29s.39.39-1.17.43c-.76,0-1.46,0-2.22,0-1.23-.06-6.95.14-6.95-.69.45.89-3.68.53-4.63.31-.06-.38-1.14-.47-1.82-.45-1,0-.9.38-1.53.54a7,7,0,0,1-2.38.28c-.35,0-.58-.06-.68-.2a12.71,12.71,0,0,1-1.38,0,28.91,28.91,0,0,0-3.31-.62c-.75-.05-1.68.17-1.18.54-1.43,0-2.88.1-4.31.07-1.14,0-2.26-.09-3.4-.11-.7,0-1.39,0-2.09,0a7.6,7.6,0,0,1-.84-.2l-7,.19a8.76,8.76,0,0,1-2.14-.09c-1.24-.24-2.28.18-3.46,0a12,12,0,0,0-2.56-.21l-4.44-.05a53.09,53.09,0,0,1-5.79-.11c-.68-.08-.67-.35-1.59-.17-.29.06-1.75.83-2.14.55-.83-.59-.79.08-1.78.05-1.19,0-.35-1.1-1.93-1.05-.13.35.78.69-.28.75-.86,0-3.92.32-3.76-.33.15.39-1.05.75-1.89.54-.45-.11-.29-.31-.73-.44a5.32,5.32,0,0,0-2.14,0,6.4,6.4,0,0,0-1.58.48,13,13,0,0,1-1.41-.22c-.65,0-3.85.3-3.91-.14-1.34.74-1.65.24-3-.18,0,.22-1.77.35-3.69.41a59,59,0,0,1-6.09-.13,7.66,7.66,0,0,0-1.51-.07c0-.91-.06-1.94-.08-2.54a8.31,8.31,0,0,1,.21-1.89,4.87,4.87,0,0,0,0-1.87A7.5,7.5,0,0,1,.11,155c0-.66.2-.3.22-1a4.54,4.54,0,0,1,.6-2.33c0,.12-.54-.29-.55-.58s.58-1.16.68-1.51-.27-.31-.35-.3a4.1,4.1,0,0,1-.58-1.81c-.21-1.36.23-.91.22-2.29,0-1.17.24-2.2.13-3.16a128.11,128.11,0,0,1-.31-13c0-3.11,0-6.43.12-9.55.08-3.53.18-7,.34-10.51.3-.78,0-1.06-.05-2a7,7,0,0,0-.32-2.59c-.51.08.1-.72.12-.8a18.11,18.11,0,0,0,0-3.38c0-.42.05-.53.22-.55.4-.06.43-.3.57-1.1.26-1.59-.93-.06-1-.23S.51,96,.52,95.58c0-.61-.28-.52-.19-1.25,0-.24.53-1.67.25-1.94s-.79.88-.51-.62a9.31,9.31,0,0,0,.27-2.2c0-3-.18-6,0-9,0-.72.21-1.18.25-1.86A17.19,17.19,0,0,0,.4,76.2a61,61,0,0,1-.19-6.35A53.29,53.29,0,0,1,.38,63.5a3.89,3.89,0,0,0,.14-1.88,31.65,31.65,0,0,1-.23-3.41c-.07-1.83.06-3.62.07-5.46,0-2.1-.36-5.84.32-7.63.28-.75.53-1.25,0-1.17S.6,42.19.34,41.66c-.36-.74.09-2.17.17-2.95,0-1,.11-1.55.12-2.58C.68,33,.51,29.82.44,26.69c0-1.17-.27-3.94.11-5,.26-1.4.17-.89-.16-.93a12.49,12.49,0,0,1,.07-2.57c0-1.19.19-2.35.16-3.53,0-.41-.06-1.16.22-1.2a6.33,6.33,0,0,0-.22-1.62c-.34-2.09.05-4.4,0-6.54C.6,4.78.59,1.88,1,3.55ZM163,125.17A.45.45,0,0,1,163,125,.61.61,0,0,0,163,125.17Z"/><path class="cls-1" d="M60.43,5.32a.16.16,0,0,0,0,.16A1.1,1.1,0,0,0,60.43,5.32Z"/><path class="cls-1" d="M148,.18a.83.83,0,0,0,0-.12S148,.13,148,.18Z"/><path class="cls-1" d="M158.45,127.07a.24.24,0,0,0,.19,0A.33.33,0,0,0,158.45,127.07Z"/><path class="cls-1" d="M4.05,4.29c-.53.1-.73.5.07.5S4.92,4.27,4.05,4.29Z"/><path class="cls-1" d="M4.23,1.53c-.42,0-.76.38-.36.37.15,0,1.67-.23,1.31-.36A5,5,0,0,0,4.23,1.53Z"/><path class="cls-1" d="M3.83,2.8c.22-.44-.68-.48-1.2-.22l.12.85C2.69,3,2.71,2.83,3.83,2.8Z"/></g></g></svg>