<svg xmlns="http://www.w3.org/2000/svg" viewBox="0 0 164.17 163.76"><defs><style>.cls-1{fill:#010101;}</style></defs><g id="Layer_2" data-name="Layer 2"><g id="content"><path class="cls-1" d="M50.66,160.92c.17-.18,1-1.07-.15-1C49.82,159.94,49.59,161,50.66,160.92Z"/><path class="cls-1" d="M88.58,160.15c.62,0-1.24-.8-1.62-.61S88.21,160.15,88.58,160.15Z"/><path class="cls-1" d="M118.31,159.36c-.91-.06-1.14.19-1.09.53l.58,0C118.08,159.74,118.33,159.54,118.31,159.36Z"/><path class="cls-1" d="M1,157.26c0-.58-.24.62,0,0Z"/><path class="cls-1" d="M3.55,162.75c1.19-.3-.17-1,.85-1.5-.44.21,1.2.57,1.75.45,1.55-.36.07-.54,0-.84,1.65.14.7-.4.83-.7.2-.47,2.15.46,1.68-.3s-1.39-1.15,0-1.83,3.82.35,1.28.13c-1.41-.11,0,1.23-.42,1.2-.05,0-1.49-.31-.84.13A4.41,4.41,0,0,0,11,160a10.63,10.63,0,0,1,3-.06c.43.17.14.61,1,.59s.89-.68,1.62-.59c1.23.16.77.5,2.34.11a6.09,6.09,0,0,1,2.73.15c.76.21.66.76,1.49.74l-.11-.75c.62,0,2.12,1.46,2.43.75.17-.4.87-.33,1.67-.37,1,0,1.66-.47,2.24,0,.23.17-.13.55.45.59.88.07,1-.46,1.2-.68.47-.39,3.48,1,2.34-.06-.06,0,2,.15,2-.27.76,0,2.46.84,2.37.18a1,1,0,0,1,.64.33c.16-.53,1.44-1,2.56-.57.49.19.07.91,1,.88.77,0,.47-.43.53-.62.24-.64,2.52-.56,2.9,0,.2.26.56,0,.64.48l.12.83c1.57-.05.92-1,1.33-1.42a.73.73,0,0,1,.78-.15c1,0,0,.53,0,.69.14.45,1.76.63,2.61.56.39,0,.84-.34,1.19-.26s.52.38.94.47c-.33-.07.33-1.46.46-1.68-.07.12.5.32.79.23,1.11-.33.66-.55,2.33-.34a14.59,14.59,0,0,0,2.77.18c-.89.76,2.27,0,1.17,1.07-.37.37-1,.32-.9.79-.08.23.07.51.11.74a6.08,6.08,0,0,1,1.68-1.36c.47-.25.82-.46.95-.78s2.05,0,1.64-.67c0,.21.28.38.79.41.72,0,.48-.19,1-.34.77-.23.84.93.38.94.43,0,1-.47,1.4-.56a7.75,7.75,0,0,1,2.8,0c1.11.19-.36.93-.83,1.12.67,0,1.16,0,1.11-.38.13.88,3,1.35,1.77.05-2-.76,1.63-1.91,2.77-1.08-2.46-.15-.1,1-1.61,1.05.07.67,1.53.66,1.79.06,0-.13,1.25.14,1.57.09s-.06-.75.12-.93a2.61,2.61,0,0,1,2.3-.23c.89.21-1.47.45-1.45.61a15.23,15.23,0,0,0,2.19-.06c.7-.09.07-.52.53-.58.3,0,1.62.27,1.55-.19,1,.28,1.07.92,1.79.2.48-.49.88-.36,1.75,0,2.53.93,4.26,1.25,6.68.07-1,.51,2.2.68,2.13.19.91-.92,2.85.17.62.23a1.35,1.35,0,0,0,1.82.46c.63,0,.54-.34.51-.52-.57,0-1.77-.37-.94-.57,1.39-.32,2,.29,3,.26a6.84,6.84,0,0,1,3.2.42,2.3,2.3,0,0,1,2-.18,5.24,5.24,0,0,0,1.12.34c.71,0,.57-.22,1.1-.36,1.23-.3.76.5,1.29.54,1,.08,1.6.12,1.68.63a1.67,1.67,0,0,1,.41-1.17c.08.51.12,1.7,1.89.94a8.59,8.59,0,0,1,2-.89c.8-.14.46,1,1.37.06,0-.17,2.31.73,2.78.57a7,7,0,0,0,2.4-1.21c.1.1.88,1.1,1,1.1s.34-.7.73-.56c.55.21.12.78,1,1.06a8,8,0,0,0,3-.23c1.68-.41-2.6.06-2.13-.33a6.59,6.59,0,0,1,2.11-1.05c1-.29,1.35.08,2,0a4.9,4.9,0,0,1,2-.28c.81.09,1.48.28,2.31.35a6.35,6.35,0,0,0,1.51,0,3.63,3.63,0,0,0,.67-.28s.14,1.52.17,1.71a2.25,2.25,0,0,0,.75,1.12c-.1-.68-.84-2.73,1.39-2.87a15.74,15.74,0,0,1,5.27.44c1.12.42.82-.28,1.51-.2s1.24.87,2.18.38c.34-.17,1.43-1.19,1.56-.32.94.35,1.16-.13,2.16-.05.2.05.27.13.21.23a4.39,4.39,0,0,0,1.57-.21c.61-.17,1,.3,1.89-.13-.07-.47,1.74.14,2.14.16a8.3,8.3,0,0,0,1.69-.09l.2,0,.1,0,.19-.05a2.32,2.32,0,0,1,.38-.07,4,4,0,0,1,1,.11c.14-.36.43-.79.9-.71a1.61,1.61,0,0,1-.77-.47c-.2-.27-.32-.26-.27-1.2a20.23,20.23,0,0,1,.4-2.47c.15-1-.47-.87-.53-1.32,0-.15,1,0,1.1-.25.31-.46-.91-1.14-.92-1.38,0-.09.75-.13.74-.77,0-.34-.56-.77-.64-1.44-.15-1.34-.25-3.39.36-4.15,1.08-1.31.79-.6,0-1.9-.58-1,.73-2.47.46-2.92-.05-.09-1.91,1.34-.89-.86.42-.9.81-.68.11-1.59-.51-.66,1.06-2.63,1.15-2.86-.1.25-1.29-1.44-1.14-2.72,0,.19.41.36.5.32,0-1.41-.8-1.77-.87-3.49,0-.41,0-1.06.24-1.1.49-.07,0-1.24.29-1.45.11-.08.49.55.58-.21.06-.6-.44-1.33-.54-1.83-.25-1.23.53-.65.81-.77,0-1.23-.4-.82-.72-1.48-.19-.39.32-.86,0-1.63-.15-.34-.46-2-.06-2.13.08,0,1.22-.53,1.06-.87-.1-.19-.49.32-.65.29-.32,0-.28-.74-.29-1.32s-.19-.18-.21-.78c0-.78.15-1.38.13-2.21,0-1-.54-6.61.33-6.19,0-.42,0-1.17-.28-1.13a8.87,8.87,0,0,0-.11-1.57c-.31-.8-.06-2.69,0-4,0-.89.17-1.76.14-2.66l0-1.16c-.12,0-.19-.12-.2-.41,0-.86.44-3.08-.37-2.44,0-1.19.24-.36.37-.83a7.3,7.3,0,0,0,.29-2.17c0-.6-.68-.71-.41-1.42s.77-.91,1.05-1.64c.55-1.41-.74-.76-.76-1.62,0-.27-.11-4.08.16-3.54,0-.88-.1-1.83-.06-2.72.06-1.3,1-.5.93-2.09-.31.13-.66,1.56-.73.31a20,20,0,0,1-.05-2.68c.06-.73.21-.22.19-1.12s-.44-3.06.21-3.43c.3-.18.52-.63.85-.74,0,0,.5.35.43,0,0,0-.26-.74,0-.9s.3.48.28-.24c0-.29-.75,0-.75,0-.37.06-.91.93-1.27.52s-.32.09-.5,0,.28-1.35.29-1.43c.11-.79-.21-.27-.25-.66s.81-2.12.93-1.87c-.26-.54-1.72-1.44-.45-1.62a10.79,10.79,0,0,0,.38-3.13c-.06-.61-.79-3.19-.24-3.32.23-.06.32.36.43-.07,0-1.45-.26-.55-.55-1.14-.1-.21.91-1.69,1-1.78-.68.92-1.63-3.42-1.37-4.69.09-.39.26-.49.36-.86a10.79,10.79,0,0,0-.19-2A2.16,2.16,0,0,1,159.7,46a7.48,7.48,0,0,0,.09-2,30.22,30.22,0,0,1,0-4.36c.07-.61.33-.61.35-1.22a17,17,0,0,0-.44-2.28c-.15-1.48.43-3.62.15-4.82-.14-.6-1-2.55-.23-2.76-.25-.06-.5-.43-.52-1.09.63.16.6-1.58,1-2.54-.15.21-.32.37-.42.2-.28-.47.37-1.36.44-1.61a4,4,0,0,0,0-1.86c-.14-.61-.77-.59-.81-.83s.77-2.14-.12-1.56c.73-.16.54-2.52.65-3.67.13-1.32.56-.61.81-1.25a6,6,0,0,1-1.08-.7c.07.31,1.07-2.12.52-2.36.13.06-1.36.33-.86-.31a1.43,1.43,0,0,1,1.16-.66,2.4,2.4,0,0,1-1-1.92c0-.66.5-1.2.49-1.53s-.61-.59-.67-1c.14.11.09-.5,0-1-.6.07-1.12.15-1.18.14a.53.53,0,0,1-.39-.76c.11-.33.51-.68.54-.91,0,.11-.85.23-1,.26-.57.17-.44.33-.44.57,0,.41-1.93.26-2.39.17a2.44,2.44,0,0,1-1-.49c-.51-.31-.71.39-.93.48-1,.41-1.59-.11-1.46.77-.09-.56-1.56-.22-2.23-.42-.18,0-.41-.37-.06-.42.78-.1-.07-.51.57-.52a16.26,16.26,0,0,1-1.7,0s1.68-.45,1.15-.66-1.73.61-1.85.71c-.5.46.09.72-1.19,1-1.93,0-3.42-.75-5.26-.46a10.4,10.4,0,0,1-2.44.53c-.29,0,.17-.62-.19-.79a.61.61,0,0,0-.93.45c-1,1-.83-.35-1.29-.34s-.49.51-.42.64c-1.11-.42-2.85.12-4.16.08-.92,0-3.9-.66-4,.13-.35-.55-3.58.15-4.45.12A6.42,6.42,0,0,1,120,4.8c-.62,0-1.21-.21-1.74,0-.44,0-1.74.13-1.79-.2a21,21,0,0,1-2.86-.08,4.57,4.57,0,0,1-.78-.33c-.71,0-.88.26-1.71.3-1.3.06-2.54.44-3.88.45-.92,0,.66-.72.64-.86s-1.48.34-1.43.32A5,5,0,0,1,105,5c-.35,0-.84-.22-1.37-.21,0,.35-2.27.5-2.33.06-.53-.33.21-1-.71-1.33.23.09,0,.78-.44.86A5.24,5.24,0,0,0,99,4.44c-.35.13-.32.45-.72.62A4.4,4.4,0,0,1,95.42,5c-2-.36-1.18.41-2.64.45.53,0,.41-.89-.93-.86-.66,0-4.69-.06-4.63.38-.54.26-2.36-.13-2.4-.44,0,0,2.14-.83.8-.83-.89,0-1.36,1.18-1.59,1.42a.73.73,0,0,1-1.14,0,2.5,2.5,0,0,1-.49-.65c-.21,0-.57.48-.87.57s-1.08-.27-1.28-.34c-1-.36-1,.17-1.52.45-1,.54-.77-.12-.91-.32s-2.61-.15-2.26.39c-.3-.82-4.3-.6-5.77-.72A10.22,10.22,0,0,0,68,4.27c-.72.22-.51.94-1.79,1C66,4.87,67.9,3.44,66,3.49c.16.62-.28,1.21-.84,1.78.09-.09-.34-.62-.75-.61s-1,.65-1.47.75c-.79.19-1.81-.52-2.89-.54-1.32,0-1.24.41-2.36.56a4.9,4.9,0,0,1-2.1-.09c-.38-.15-.47-.88-.75-.9-.82-.06-2.16.77-3.17.46a5.54,5.54,0,0,1-1.45-1.38c-.48.23-.16.6-1.06.86-.69.21-3.27.29-3.41.59-.54,1.27-1.2,0-1.28-.65-.78,0-.45.16-.55.41s-1.33.14-1.66.16c-1,0-1.63.29-2.64.31-.6.13-1,.09-1.07-.14-.57-.18-1,.09-1.4.06-.53,0,0-.73.09-.73-1.55,0-1.11,1.09-3.19.71-.8-.14-1.38-.4-.69-.73.45-.15,1.36-.67.06-.51a11.23,11.23,0,0,0-2.2.64,14.53,14.53,0,0,1-3.36.5l-3.65.23L22,5.39l-.72.06a.82.82,0,0,0-.28,0c.12-.37.48-1.07-.49-1.44.3.12-1,.9-1.2,1a1.85,1.85,0,0,1-1.79.35c-.9-.23-2.5.18-3.23-.13-.26-.11,0-.52-.55-.5-.73,0-.82.63-1.2.81.1,0-.29-.47-.58-.49-.05.09-.19.15-.41.16a2.43,2.43,0,0,1-1.12-.34,3,3,0,0,1-1.09-.72c-.15.31-.93.5-1.67.57a2.57,2.57,0,0,1-1.27-.07,4.06,4.06,0,0,1-.44-.5c0-.05-.4.1-.64.29S4.92,4.9,5,5c.21.37.3.53.27.56s-.42-.11-.9-.83l-.22-.29C4,4.19,4,4,3.67,4a1.61,1.61,0,0,0,0,.63c.15.36.73.59.93,1s-.52.13-.51.41a3,3,0,0,1,.44.21,1.73,1.73,0,0,1,.31.22,1.34,1.34,0,0,1,.11.14l0,.07a1.09,1.09,0,0,1,0,.19c.19.77.33,1.74-.22,1.2s-.36,1-.14,1.47c.54,1.12.27.24-.18,1.43.21-.58.5.37.18,1.22a12.51,12.51,0,0,0-.2,1.67c0,.24.22.23.26.68.08,1-.09,2,.28,2.57a1.09,1.09,0,0,1-.66,1.56c1-.15.22,3.09-.1,2.43.68,1.4.65,0,.05,1.6.22-.57.52,1.36.63,1.59.2.4.32-.12.34.69-.12.65-.34,1.8-.7,1.85s-.25.1-.24.62c0,.73.34.43.55.61s-1,2.95,0,2.24c0,.69-.29.71-.56.56a2.11,2.11,0,0,1,.12,1.84c-.6.09-.34.67,0,1s.75-.14.35,1.48c-.21.85-.42,1-.82,1.1.86-.12.35,1.75.86,2.8.45.45.48,2.48.44,3.4a3.13,3.13,0,0,1-.21,1.19c-.33.49-.07,1-.06,1.76,0,.45-.22,1.17-.21,1.34,0,1.06.63.11.64.49,0,.15-.47.83-.52,1.18A6.45,6.45,0,0,0,5,50.56c.13,1.36-.79.36-.86,1.25-.18,2.29.48,1.24,1,2a14,14,0,0,1,.09,4.3c-.19.72-.51,1.12-.09,2,.32.67.12,1-.24.62-.33.79-.5,2.8.18,2.12.36-.35.23,3.21.2,3.69-.07,1.35-.73,0-.87.34,0,.13.66,2.82.6,3.57-.06.94-.32.65-.61,1-.45.54.7,1.35.69,1,0,.51-.73.65-.71,1.42s.87-.28.9.82c-.31,0-.76-.23-.74.7.15.69.89.17.9.89a14.52,14.52,0,0,1-.59,2.49,16.9,16.9,0,0,0-.16,2.95c0,.39.06,1.24.31,1.21.53-.08,0,1.09,0,1.75.19,0-.2,1.23-.2,1.6,0,1.31.2,2.18-.36,2.6-.19.14-.1,1.16-.55,1.22s-.63,2.14-.28,2.09c.05,0,1-2.62.58-.37.17.46.5.43.53,1,.08,1.76-.19,1.1.52,1.2.38.06.33,1,0,1.29-.61.58-1.58.09-2.25.19C3.14,98,5.4,95.26,5.37,97.3c0,.8-.63,5.59,0,6-.88-.07.21,2.23.14,3.35s-1.15,3.92-.8,4.77c.74,1.74.18,2-.6,2.06-.43,1.14,1.06,1,1.28,1A3.93,3.93,0,0,0,4.21,118c.16.65.43-.79.64-.82s-.12,1.55.18,1.68.38-.74.43.19A5.78,5.78,0,0,1,5.25,121a.8.8,0,0,1-.72.68c-.3,0-.75,1-.22.87.16,0,1.47-1.07,1.32.33,0,.51-.18,1.14-.27,1.6,0,1.4-.71,1.22-1.08,1.43-.82.47.34,1,.4,1.62s-.22,1.76.3,1.69c.8-.12,0,.92-.11,1.29a5.39,5.39,0,0,0,.1,2.4c.15.87-.12.65-.11,1.08a12,12,0,0,1,.2,2.29,8.24,8.24,0,0,0-.24,2.52c.1.2.34-.65.42.35,0,.46.2,2.87-.17,2.93s.15,3.36-.14,4.11c-.18.33-.76,1.46-.49,2.16s.66-.09.83.87c.11.66-1.14,4.11-.15,4a6.35,6.35,0,0,1-.49,1.67c-.36.83.11.48.2.78s-2,1.78-2.12,1.85-2.14.87-1.74-.19c0-.36,1-3.19.83-3.28s-.21.54-.41.3a1.32,1.32,0,0,0-.36-1c-.28-.27-.93-.24-.9.78-.08-3,.06-6.06.06-9.09,0-2.4,0-4.81,0-7.2,0-.48.19-1.43.18-1.72-.05-.82-.7-2.55-.21-3.22.33-.45,1.17,1,1.3.69,0,.05-.23-2.13-.21-2.09C1,130.85.67,131,.36,131c.49-.07.36-1,.19-1.37-.24-.63.06-.71-.31-1s-.16-1.21,0-1.67a3.85,3.85,0,0,0,.33-1.79c-.1-.55-.42-.85-.27-1.55S1,122,.59,121.14a1.74,1.74,0,0,1-.3-1.42,6.94,6.94,0,0,1,.6-2.82c.88-1.19-.38-.77-.58-1.73a4.45,4.45,0,0,1,.07-1.59c.07-.36.75-1.85.75-1.91,0,.1-1.52-1.19-.69-2.31.1-.71.17-1.21.24-2a17.12,17.12,0,0,1,.77-2.19c0,.31-.83-.45-.89-.55A2.82,2.82,0,0,1,.27,103c.52-.08.21-3.1-.27-2.89.76.26.28-5.82.26-6.77,0-1.23.46-1.39.43-2.69.06-.34.23-1,.05-1.31S0,88.72,0,88.43c0-.06.75-.1.52-.89C.48,87.4,0,86.16.17,86c.81-.6-.06-2,0-3.34.06-.77.22-.51.38-1a12.07,12.07,0,0,0-.2-2.4,8.07,8.07,0,0,1,.4-2.76c.22-.66,0-.46-.14-.93a22.38,22.38,0,0,1-.19-7.32c.27-1.7-.38-.61-.38-2.06a2.39,2.39,0,0,1,.71-2c-.26,0-.52-.11-.57-.7s.21-1.38.19-2.21.56-.56.76-.8-.73-1.53-.8-2.17c-.12-.91-.3-3.28.22-3.49-.58,0-.45-3-.41-3.78a10.34,10.34,0,0,1,.38-2.66c.52-1.37-.47-1.26-.49-2.12a10,10,0,0,1,.3-1.92c.09-.67-.18-.31-.19-.87,0-1.13.22-.73.53-1.39C1.25,41,1.93,40,2.56,38.83A4.53,4.53,0,0,1,1,39.64c-1.48.2-.06-.7-.09-2.1,0,0-.66,1-.73.58-.18-.88.55-2.59.52-3.7A4.7,4.7,0,0,1,.5,32.56c.05-.33.71-1.3.38-1.58s-.66-.06-.69-.87c0-.66.38-1.05.61-1-.4.06-.47-2.86-.08-2.91-1,.66-.4-5.34-.43-6.62A8.83,8.83,0,0,1,.39,17c.09-.17.45-.34.44-.71a.51.51,0,0,0-.65-.51c.42-.24,1.46-1.53,1.1-2.26-.11-.24-.87,1.29-.91-.09-.49-1,.47-1.42.44-2.4-1.32.44,0-1.81.7-1.86,0-1-1,0-1.21-.85a5.45,5.45,0,0,1-.12-.91c0-.18,0-.36,0-.54s0-.61,0-.92c0-1.4.1-2.75.2-3.55A2.54,2.54,0,0,1,.94,1.25c.88.26,1.58.48,1.87.32s0-.31-.28-.49S2,.72,2.23.64L4.86.59H7a3.31,3.31,0,0,1,1.66.46c.75.3.71-.36,1-.52,1-.65,1.57.79,1.73.79a3.22,3.22,0,0,0,1-.4,4.34,4.34,0,0,1,2.5-.18c1,.11.65-.17,1.41-.17a15.78,15.78,0,0,1,2.62.31c.39.07,1.32-.44,2.27-.45.44,0,.5.06.53.24.69,0,1.55,0,2.26-.06.91,0,.36-.06,1.12.25s.55-.37.85-.48c1.85-.72,1.62,1.16,1.86,1.41S28.12.63,28.18.6c.39-.21,2.76-.35,2.59.1,0,.09-.3,1.55.4,1.34S31.74.3,33.05.3c.5,0-.08.32.66.3s1.36-.15,1.42.21A11.34,11.34,0,0,0,36.79.35c.54-.11,1,.39,1.83.36-.08-.58,2.89.62,3,.58.5-.24.37-.51,1.48-.54a4.2,4.2,0,0,1,1.41.17c.09,0,1.19.63,1.25.52.22-.35-.4-.8,1.18-.7,1.28.07,2,.74,2.83-.07-.06-.36,1,.31,1.74-.05,0-.24,1.8-.36,2.13-.39a7.63,7.63,0,0,1,2.65.12A22.35,22.35,0,0,0,60.52.4c1.49,0,3.21,0,4.69.15.28,0,2.47.56,2.1.74.5-.24-.76-1-.25-1.18l.42.11.89.24a7.73,7.73,0,0,1,1.29.43A2.9,2.9,0,0,0,71.19.31c.84-.44,1.25.2,2,.22,1.66,0,1.87.25,1.88,1C74.78.36,76.17.46,78.59.4c2.17-.06,2.75,0,2.84.92A3.08,3.08,0,0,0,82,.48c.21-.35.79-.17,1.08.05-.33,0,1.61,0,1.17-.14.25.1.92.71,1.18.7s-.27-.74.69-.77A4.7,4.7,0,0,1,88.38,1C87.64.71,90.05.56,90.07.52c.12-.29.33-.19,1.16-.21.27.12-.11.6-.13.6s4.48-.4,5.13-.37,1.53.44,1.48.1C98.8.11,99.92.26,101.4.37c.18,0,2,.07,1.75.29s.23,1.3.86,1,0-1.06,1-1.28,1.65.64,2.44.62c0,0-.71-.49-.31-.59a11.15,11.15,0,0,1,3.16,0,2.92,2.92,0,0,0,1.86,0,9.33,9.33,0,0,1,2.89,0c.91.16.78.4,1.61.08a5.08,5.08,0,0,1,2.51,0c.34.08,1,.52,1.43.44.88-.15,1.12-.64,2.16-.72.07.44.64.16,1.16.06s.77.27,1.06.46c-.43-.37,3-.8,3.64-.7.09,0,3,1.57,3.26.87.09-.21-1-.61.42-.56a12.27,12.27,0,0,1,2.21.69c-.05,0,.12-.63,1.15-.66s.25.27.42.33a5.76,5.76,0,0,1,1.38,0c.48.07,1,.64,1.56.47.92-.3,2.42-1.47,3.93-.83.32.13.31.75.78.74.83,0,.66-.67,1.23-.86,1.57-.51,2.56.23,3.51.61a3.93,3.93,0,0,0,1.75.29c.65-.1-.18-.46.11-.66,1-.69,2.45.22,3.51.22,0-.32.91-.27,1.35-.28A15.14,15.14,0,0,1,157.06.1l.87,0c.37,0,.69.06,1,.1a9.32,9.32,0,0,1,1.31.28,9.09,9.09,0,0,0,2.32.53c.73.07,0-.38.07-.35.18-.29.51-.41,1.37-.51q.06.36.12,1c.28,2.61-.49,1.44-.83,2,0,1.07.33.78.51.64,0,.81-.06,1.43-.11,2.05,0,.29,0,.59-.06.91a3.92,3.92,0,0,0,0,.61c0,.27.26.36.34.75a6.91,6.91,0,0,1,0,2.27c-.07.35-.47,1.83-.09,1.78-.05,0-.69.19-.49.58.27.57.92-.09.85,1.55a1.74,1.74,0,0,1-.24.87,7.08,7.08,0,0,0-.09,2c0,1.46.33,3.24-.07,4.59-.19.61-.84.19-.67.93a28.76,28.76,0,0,1,.47,3c.37-.05.39,3.12.31,3.73s-1.15.33-.71,1.17c.15.29.67.54.68,1.13s-.48.23-.46,1a12.77,12.77,0,0,1,.32,1.41c.09,1.06.16,2.14.2,3.22s.08,2.16,0,3.24c0,.81-.2,1.35-.18,2.11a12.69,12.69,0,0,1,0,1.51c0,.38-.45.15-.56.45s.58,2.16.65,2.84a18.74,18.74,0,0,1,0,3.35,3.46,3.46,0,0,1-.21,1.14c-.12.2-.55-.33-.55,0,0,.66.73.86.83,1.71s-.29.64-.45,1.11a6.85,6.85,0,0,0-.18,2.66c.14,1.14.75,1.48.36,2.82-.2.68-.69,1.75-.29,2.58s.39-.39.43,1.16c0,.76,0,1.46,0,2.22-.06,1.24.14,6.95-.69,6.95.89-.44.53,3.69.31,4.64-.38,0-.47,1.13-.45,1.82,0,1,.38.89.54,1.53a7,7,0,0,1,.28,2.37c0,.35-.06.58-.2.69a12.52,12.52,0,0,1,0,1.37,29.75,29.75,0,0,0-.62,3.31c-.05.75.17,1.68.54,1.18,0,1.44.1,2.88.07,4.32,0,1.13-.09,2.26-.11,3.39,0,.7,0,1.4,0,2.1a8.21,8.21,0,0,1-.2.84l.19,7a8.76,8.76,0,0,1-.09,2.14c-.24,1.23.18,2.27,0,3.45a12.18,12.18,0,0,0-.21,2.57l-.05,4.44a53.09,53.09,0,0,1-.11,5.79c-.08.68-.35.67-.17,1.58.06.29.83,1.76.55,2.15-.59.83.08.78.05,1.77,0,1.2-1.1.36-1.05,1.94.35.13.69-.78.75.28,0,.86.32,3.91-.33,3.75.39-.14.75,1.06.54,1.9-.11.45-.31.28-.44.72a5.32,5.32,0,0,0,0,2.14,6.35,6.35,0,0,0,.48,1.59,13.11,13.11,0,0,1-.22,1.4c0,.65.3,3.85-.14,3.92.74,1.33.24,1.64-.18,2.95.22,0,.35,1.77.41,3.68a59,59,0,0,1-.13,6.09,7.77,7.77,0,0,0-.07,1.52l-2.54.08a8.23,8.23,0,0,1-1.89-.22,5.31,5.31,0,0,0-1.87,0,7.06,7.06,0,0,1-1.85.36c-.66,0-.3-.19-1-.21a4.64,4.64,0,0,1-2.33-.61c.12.05-.29.54-.58.55a16.2,16.2,0,0,1-1.51-.67c-.49-.14-.31.26-.3.34a4,4,0,0,1-1.81.58c-1.36.22-.91-.22-2.29-.21-1.17,0-2.2-.25-3.16-.14a128.08,128.08,0,0,1-13,.32c-3.11,0-6.43-.05-9.55-.12-3.53-.09-7-.19-10.51-.35-.78-.29-1.06,0-2,.06a6.75,6.75,0,0,0-2.59.32c.08.5-.72-.11-.8-.13a18.13,18.13,0,0,0-3.38,0c-.42,0-.53-.06-.55-.23-.06-.4-.3-.43-1.1-.56-1.59-.26-.06.92-.23,1s-2.22-.32-2.64-.33c-.61,0-.52.28-1.25.2-.24,0-1.67-.53-1.94-.26s.88.8-.62.51a9.35,9.35,0,0,0-2.2-.26c-3,0-6,.18-9,0-.72,0-1.18-.2-1.86-.24a14.79,14.79,0,0,0-2.51.15c-2.06.17-4.26.23-6.35.19a51.24,51.24,0,0,1-6.35-.18,3.89,3.89,0,0,0-1.88-.14,31.63,31.63,0,0,1-3.41.24c-1.83.07-3.62-.07-5.46-.07-2.1,0-5.84.35-7.63-.32-.75-.29-1.25-.54-1.17,0s-1.76,0-2.29.31c-.74.36-2.17-.1-2.95-.17-1,0-1.55-.11-2.58-.13-3.14,0-6.31.12-9.44.19-1.17,0-3.94.28-5-.11-1.4-.25-.89-.16-.93.17a11.86,11.86,0,0,1-2.57-.08c-1.19,0-2.35-.18-3.53-.15-.41,0-1.16.05-1.2-.22a5.55,5.55,0,0,0-1.62.22c-2.09.34-4.4-.06-6.54,0C4.78,163.15,1.88,163.17,3.55,162.75ZM125.17.81A.43.43,0,0,1,125,.73Z"/><path class="cls-1" d="M5.32,103.33a.18.18,0,0,0,.16,0Z"/><path class="cls-1" d="M.18,15.75l-.12,0A.24.24,0,0,0,.18,15.75Z"/><path class="cls-1" d="M127.07,5.3a.24.24,0,0,0,0-.19A.32.32,0,0,0,127.07,5.3Z"/><path class="cls-1" d="M4.29,159.71c.1.53.5.72.5-.08S4.27,158.84,4.29,159.71Z"/><path class="cls-1" d="M1.53,159.52c0,.43.38.76.37.36,0-.15-.23-1.66-.36-1.31A5,5,0,0,0,1.53,159.52Z"/><path class="cls-1" d="M2.8,159.92c-.44-.21-.48.68-.22,1.21l.85-.13C3,161.07,2.83,161,2.8,159.92Z"/></g></g></svg>