<svg xmlns="http://www.w3.org/2000/svg" viewBox="0 0 332.53 331.73"><defs><style>.cls-1{fill:#010101;}</style></defs><g id="Layer_2" data-name="Layer 2"><g id="content"><path class="cls-1" d="M102.49,326.29c.36-.35,2.07-2.06-.29-1.92C100.8,324.4,100.33,326.34,102.49,326.29Z"/><path class="cls-1" d="M179.47,324.82c1.25,0-2.51-1.55-3.3-1.18C175.19,324.08,178.71,324.8,179.47,324.82Z"/><path class="cls-1" d="M239.81,323.29c-1.85-.12-2.32.36-2.22,1l1.18,0C239.33,324,239.86,323.64,239.81,323.29Z"/><path class="cls-1" d="M1.86,318.85c0-1.19-.45,1.25,0,0Z"/><path class="cls-1" d="M6.87,329.8c2.43-.57-.34-1.92,1.74-2.88-.89.41,2.43,1.1,3.54.86,3.14-.69.14-1,.06-1.61,3.34.27,1.42-.77,1.68-1.35.41-.89,4.38.89,3.42-.57s-2.82-2.21,0-3.51c3.05-1.4,7.75.66,2.6.25-2.87-.22,0,2.35-.85,2.3-.1,0-3-.59-1.72.25a9.44,9.44,0,0,0,4.74.93c1.65,0,4.56-.64,6-.11.87.31.27,1.16,1.94,1.11s1.81-1.31,3.29-1.12c2.49.31,1.55.95,4.74.2a13.16,13.16,0,0,1,5.54.3c1.55.4,1.34,1.45,3,1.41l-.22-1.44c1.25,0,4.31,2.81,4.93,1.44.35-.76,1.76-.62,3.39-.7,2-.08,3.38-.9,4.54-.09.48.34-.27,1.06.92,1.15,1.78.14,1.92-.9,2.44-1.32.94-.75,7.06,1.87,4.74-.12-.11-.09,4.09.29,4-.51,1.54,0,5,1.62,4.81.36a2.09,2.09,0,0,1,1.3.61c.32-1,2.93-1.93,5.2-1.09,1,.36.15,1.75,2,1.71,1.56,0,1-.85,1.09-1.21.48-1.22,5.11-1.06,5.88-.08.4.51,1.14-.06,1.29.93l.25,1.59c3.19-.08,1.88-1.94,2.69-2.72a1.54,1.54,0,0,1,1.59-.28c2.07-.05-.08,1,0,1.32.29.86,3.58,1.2,5.31,1.07.79-.06,1.7-.65,2.4-.5,1,.2,1.07.73,1.92.9-.68-.13.66-2.81.93-3.22-.15.24,1,.61,1.61.44,2.24-.63,1.34-1.06,4.72-.64,1.45.18,5.37.55,5.61.32-1.8,1.47,4.61-.06,2.39,2.07-.74.71-2,.62-1.84,1.51-.15.44.16,1,.23,1.44a12.46,12.46,0,0,1,3.42-2.62,3.83,3.83,0,0,0,1.92-1.5c.37-.8,4.16-.05,3.33-1.28-.05.4.58.72,1.61.78,1.47.08,1-.37,1.93-.65,1.55-.45,1.7,1.78.76,1.81.87,0,2-.91,2.84-1.08a16.23,16.23,0,0,1,5.69,0c2.26.37-.73,1.78-1.69,2.15,1.36,0,2.36-.1,2.27-.74.26,1.69,6.07,2.61,3.58.11-4.12-1.48,3.31-3.68,5.61-2.07-5-.31-.18,1.93-3.25,2,.14,1.28,3.1,1.26,3.62.12.12-.26,2.54.25,3.2.17s-.13-1.45.23-1.79c1-.88,2.82-.85,4.68-.44s-3,.86-2.94,1.17a36.34,36.34,0,0,0,4.44-.11c1.43-.18.15-1,1.07-1.13.61-.08,3.29.52,3.15-.36,2,.54,2.18,1.77,3.63.39,1-1,1.8-.7,3.56-.09,5.13,1.8,8.64,2.41,13.56.15-2.1,1,4.46,1.3,4.32.36,1.84-1.77,5.79.33,1.26.45a2.82,2.82,0,0,0,3.69.87c1.29,0,1.09-.65,1-1-1.15,0-3.59-.72-1.9-1.09,2.82-.63,4,.55,6.11.5,2.75-.07,4.48,0,6.51.8.76-.73,2.57-.71,4-.34a10.27,10.27,0,0,0,2.27.64c1.44.08,1.15-.43,2.23-.68,2.49-.59,1.55,1,2.62,1,2,.15,3.25.22,3.4,1.2a3.21,3.21,0,0,1,.84-2.25c.15,1,.25,3.28,3.84,1.81,1.18-.48,2.48-1.45,4.09-1.71s.94,1.88,2.79.11c-.05-.32,4.69,1.4,5.63,1.11a14.54,14.54,0,0,0,4.87-2.34c.21.2,1.79,2.12,2.11,2.11s.68-1.34,1.47-1.06c1.13.4.25,1.49,2,2,1.38.43,4.73-.15,6-.44,3.41-.79-5.27.12-4.32-.63a13.4,13.4,0,0,1,4.29-2c2-.56,2.73.16,3.95-.07,1.47-.26,2.15-.74,4-.54,1.63.18,3,.54,4.67.69a15,15,0,0,0,3.07,0,8.21,8.21,0,0,0,1.36-.55c-.07,0,.28,2.92.34,3.29a4.28,4.28,0,0,0,1.52,2.15c-.2-1.3-1.69-5.24,2.82-5.52,3.2-.19,8.2-.05,10.71.85,2.27.81,1.66-.53,3.06-.38s2.53,1.66,4.42.74c.7-.35,2.91-2.31,3.17-.63,1.9.68,2.35-.25,4.38-.1.41.1.55.25.42.46a9.84,9.84,0,0,0,3.2-.41c1.23-.34,2,.58,3.83-.25-.14-.92,3.53.26,4.35.31a18.71,18.71,0,0,0,3.43-.17l.79-.11.39-.09a4.1,4.1,0,0,1,.78-.13,7.45,7.45,0,0,1,2,.2,3.21,3.21,0,0,1,.63-1.09,1.21,1.21,0,0,1,1.1-.44,2.94,2.94,0,0,1-1.48-.87,2,2,0,0,1-.43-.69.24.24,0,0,1,0-.11l0-.22a3.64,3.64,0,0,1,0-.48,10.42,10.42,0,0,1,0-1.11,49,49,0,0,1,.76-5c.29-2-.9-1.76-1-2.68,0-.31,1.82-.07,2.1-.51.59-.93-1.74-2.29-1.76-2.79,0-.18,1.44-.26,1.41-1.55,0-.7-1.07-1.58-1.22-2.93-.29-2.74-.49-6.89.69-8.42,2.07-2.67,1.51-1.23,0-3.87-1.12-1.92,1.39-5,.88-5.93-.09-.17-3.67,2.74-1.71-1.74.79-1.82,1.55-1.39.21-3.22-1-1.36,2-5.35,2.2-5.81-.18.5-2.47-2.92-2.19-5.52,0,.39.79.72,1,.65-.07-2.86-1.54-3.6-1.67-7.08,0-.84,0-2.17.47-2.24.94-.14,0-2.51.55-2.94.22-.17.94,1.12,1.11-.43.13-1.22-.84-2.7-1-3.72-.48-2.49,1-1.32,1.57-1.56-.07-2.5-.77-1.67-1.38-3-.37-.79.6-1.76-.06-3.31-.3-.7-.89-4-.11-4.33.14-.05,2.33-1.07,2-1.76-.18-.38-.94.64-1.24.6-.63-.1-.53-1.51-.56-2.69s-.37-.37-.4-1.58c0-1.58.29-2.8.24-4.48-.05-2.12-1-13.43.65-12.58,0-.84,0-2.37-.54-2.29-.14-1,.1-2.31-.23-3.18-.59-1.62-.11-5.46,0-8.07.09-1.79.31-3.56.27-5.39l-.06-2.36c-.24,0-.37-.24-.38-.84,0-1.74.84-6.23-.73-4.93-.06-2.42.46-.74.72-1.69a15.8,15.8,0,0,0,.55-4.4c-.09-1.23-1.3-1.45-.78-2.9s1.47-1.83,2-3.31c1.06-2.88-1.42-1.56-1.46-3.3,0-.54-.21-8.28.3-7.18,0-1.8-.18-3.72-.11-5.52.11-2.65,1.87-1,1.79-4.24-.6.26-1.28,3.16-1.42.62a46.9,46.9,0,0,1-.09-5.43c.11-1.5.41-.46.36-2.29-.05-2.09-.84-6.2.41-7,.58-.35,1-1.28,1.63-1.5,0,0,1,.72.84,0,0-.06-.51-1.5-.1-1.82.15-.12.57,1,.54-.48,0-.3-.36-.32-.72-.27a4.42,4.42,0,0,0-.72.18c-.71.11-1.75,1.88-2.44,1.05-.43-.52-.61.2-1,0s.55-2.73.57-2.9c.2-1.61-.42-.54-.48-1.34-.09-1,1.55-4.29,1.77-3.8-.49-1.08-3.3-2.91-.86-3.28a23.71,23.71,0,0,0,.74-6.35c-.12-1.24-1.52-6.48-.47-6.75.45-.12.62.74.84-.14-.08-2.94-.51-1.11-1.06-2.3-.2-.44,1.74-3.43,1.87-3.62-1.3,1.86-3.13-6.94-2.62-9.53.15-.77.48-1,.68-1.73.27-1.07-.37-2.93-.37-4.17a4.79,4.79,0,0,1,.61-2.46,15,15,0,0,0,.18-4.1,67,67,0,0,1,0-8.85c.14-1.22.65-1.23.68-2.47,0-1.76-.67-2.85-.85-4.63-.29-3,.83-7.34.29-9.77-.28-1.24-1.87-5.19-.43-5.62-.49-.11-1-.86-1-2.2,1.2.32,1.14-3.22,2-5.15-.29.41-.61.74-.8.4-.53-1,.71-2.77.85-3.28a8.56,8.56,0,0,0,0-3.77c-.28-1.24-1.49-1.2-1.55-1.68s1.48-4.34-.24-3.17c1.41-.32,1-5.11,1.25-7.45.25-2.68,1.09-1.24,1.55-2.53,0,0-.51-.28-1-.61a4,4,0,0,1-1.05-.81c.15.62,2.06-4.31,1-4.79.26.11-2.62.66-1.64-.64a2.66,2.66,0,0,1,2.22-1.34,4.92,4.92,0,0,1-1.85-3.9c.07-1.33,1-2.44.94-3.09,0-1-1.17-1.37-1.28-2.15.27.24.17-1,0-2.07-1.21.14-2.27.3-2.39.26-.86-.24-1.08-.82-.86-1.45s1-1.31,1-1.74c0,.21-1.74.43-2,.49-1.17.34-.91.64-.91,1.1,0,.79-3.92.51-4.85.33a4.91,4.91,0,0,1-2-1c-1.05-.59-1.44.76-1.88.92-2.12.78-3.25-.2-3,1.49-.16-1.08-3.16-.42-4.52-.81-.36-.11-.82-.71-.12-.8,1.59-.21-.13-1,1.16-1a30.86,30.86,0,0,1-3.45,0c0-.07,3.42-.87,2.33-1.26s-3.51,1.16-3.74,1.36c-1,.88.17,1.38-2.42,2-3.93.1-6.94-1.44-10.69-.87-1.16.18-3.65,1.18-4.95,1-.59-.08.35-1.2-.37-1.52a1.24,1.24,0,0,0-1.89.87c-2,1.94-1.68-.68-2.62-.66a1,1,0,0,0-.85,1.23c-2.26-.81-5.8.24-8.44.15-1.87-.06-7.92-1.26-8.12.26-.7-1.05-7.26.29-9,.24-1.61-.05-4.4-.19-5.32-.83-1.26,0-2.46-.41-3.55.09-.88,0-3.53.24-3.63-.39-2-.16-3.81.27-5.81-.15l-.86-.31c-.43-.16-.83-.31-.72-.32-1.43,0-1.78.49-3.46.57-2.64.11-5.15.85-7.88.87-1.86,0,1.33-1.39,1.29-1.65s-3,.65-2.9.62a10.38,10.38,0,0,1-3,.94c-.72.08-1.71-.42-2.79-.39.11.67-4.6,1-4.73.12-1.07-.65.42-1.89-1.43-2.55.46.16-.05,1.49-.9,1.63a13.77,13.77,0,0,0-2.18.21c-.71.26-.64.88-1.45,1.2a9.49,9.49,0,0,1-5.87-.19c-4-.69-2.39.78-5.36.86,1.08,0,.84-1.71-1.89-1.64-1.34,0-9.52-.13-9.39.72-1.09.5-4.79-.24-4.88-.84,0,0,4.35-1.6,1.63-1.6-1.82,0-2.75,2.26-3.24,2.72a1.54,1.54,0,0,1-2.3,0A4.69,4.69,0,0,1,167.2,9c-.18-.25-.29-.44-.29-.44-.42,0-1.15.92-1.75,1.09-.75.21-2.19-.52-2.6-.65-2.05-.69-2,.33-3.09.88-2.05,1-1.56-.24-1.84-.64s-5.3-.28-4.6.76c-.6-1.57-8.73-1.14-11.69-1.39a23.17,23.17,0,0,0-3.67-.35c-1.47.41-1,1.79-3.62,1.86-.51-.72,3.45-3.46-.52-3.36.32,1.19-.57,2.33-1.7,3.42.18-.17-.69-1.19-1.52-1.17-.54,0-2.05,1.24-3,1.44-1.61.35-3.66-1-5.85-1-2.68,0-2.54.77-4.81,1.07a10.77,10.77,0,0,1-4.26-.18c-.78-.28-1-1.68-1.51-1.73-1.67-.12-4.4,1.49-6.45.88a10.74,10.74,0,0,1-2.93-2.65c-1,.45-.34,1.15-2.16,1.66-1.4.39-6.64.55-6.91,1.14C91.33,12,90,9.47,89.83,8.3c-1.57,0-.92.3-1.11.79s-2.7.27-3.37.3c-2.07.09-3.3.55-5.36.61-1.22.25-1.94.15-2.18-.29-1.15-.33-2.06.19-2.83.13-1.07-.08,0-1.4.17-1.41-3.15.08-2.24,2.1-6.47,1.37-1.62-.28-2.8-.77-1.41-1.41.92-.28,2.78-1.28.13-1a24.24,24.24,0,0,0-4.47,1.24,32.76,32.76,0,0,1-6.81,1l-7.41.43-4.49.3-1.46.12a2.5,2.5,0,0,0-.56.07c.24-.71,1-2-1-2.75.61.22-2.06,1.72-2.43,1.92-1.35.75-2,1.08-3.65.66s-5.07.36-6.55-.24c-.52-.21-.05-1-1.12-1C26,9.2,25.79,10.38,25,10.73c.21-.1-.59-.91-1.17-1-.11.17-.39.28-.84.31a5.45,5.45,0,0,1-2.28-.65,5.75,5.75,0,0,1-2.2-1.39c-.31.59-1.88.95-3.4,1.1A5.65,5.65,0,0,1,12.5,9,1,1,0,0,1,12,8.6c-.12-.16-.26-.35-.44-.56a2.73,2.73,0,0,0-1.34.56c-.54.37-.76.81-.61,1.05.4.7.56,1,.49,1.06s-.16.08-.48-.17A5.4,5.4,0,0,1,8.4,9.13c-.16-.2-.31-.39-.43-.57-.32-.52-.36-.8-.92-.92A3.85,3.85,0,0,0,7,8.92a2.54,2.54,0,0,0,.86.94,3.24,3.24,0,0,1,.93,1.06c.16.32-.1.36-.38.45s-.62.18-.61.44l.27.1a5.6,5.6,0,0,1,.58.27,3,3,0,0,1,.6.43,1,1,0,0,1,.2.26,3.06,3.06,0,0,1,.1.73c.36,1.56.62,3.54-.42,2.44s-.71,2-.28,3c1,2.28.51.49-.36,2.91.42-1.18,1,.75.37,2.47a24.19,24.19,0,0,0-.39,3.4c0,.48.42.45.49,1.38.16,2.08-.17,4,.55,5.21.94,1.56-.74,3.28-1.28,3.17,2-.31.43,6.26-.18,4.93,1.31,2.84,1.24,0,.08,3.25.42-1.17,1,2.76,1.22,3.22.38.81.6-.25.65,1.39-.23,1.33-.64,3.66-1.35,3.77-.44.07-.48.19-.45,1.26.08,1.47.65.87,1.05,1.23s-1.88,6,.06,4.54c0,1.4-.57,1.44-1.07,1.14A4.59,4.59,0,0,1,8.46,66c-1.17.18-.66,1.37,0,2,.86.8,1.45-.28.68,3-.41,1.73-.82,2.13-1.57,2.25C9.26,73,8.29,76.84,9.27,79c.86.91.92,5,.84,6.89a6.29,6.29,0,0,1-.42,2.42c-.63,1-.11,2-.1,3.58,0,.91-.42,2.36-.41,2.71.06,2.15,1.21.22,1.23,1,0,.3-.89,1.67-1,2.38-.28,1.82.12,2.67.27,4.31C9.94,105,8.17,103,8,104.81c-.35,4.64.92,2.5,1.85,4.11.52.9.47,7.49.16,8.73-.35,1.45-1,2.26-.17,4,.62,1.34.23,2-.45,1.25-.64,1.6-1,5.68.34,4.3.69-.71.43,6.51.39,7.49-.13,2.73-1.41-.07-1.68.68-.1.27,1.26,5.72,1.16,7.25-.13,1.91-.62,1.32-1.17,2-.87,1.11,1.34,2.73,1.32,2.12,0,1-1.41,1.31-1.37,2.88s1.67-.57,1.73,1.67c-.58.05-1.46-.47-1.41,1.4.28,1.41,1.69.36,1.73,1.81,0,1.67-.91,3.43-1.14,5.06a35.89,35.89,0,0,0-.31,6c0,.77.13,2.51.59,2.44,1-.16.05,2.21.09,3.55.36-.06-.4,2.51-.39,3.25,0,2.66.39,4.42-.7,5.27-.36.29-.19,2.36-1,2.5s-1.22,4.34-.56,4.24c.11,0,1.91-5.33,1.13-.77.32.93.95.88,1,2,.17,3.58-.35,2.24,1,2.44.73.12.62,2.08.09,2.62-1.17,1.16-3,.17-4.33.37.13,5,4.46-.52,4.41,3.63,0,1.61-1.21,11.33-.09,12.23-1.69-.15.39,4.52.26,6.8s-2.21,8-1.53,9.68c1.42,3.54.33,4-1.16,4.19-.83,2.31,2,2.06,2.46,2-.94,1.34-3,3.63-2.17,7.17.31,1.31.83-1.61,1.22-1.68.67-.1-.21,3.15.35,3.4.32.15.74-1.49.83.39a12.46,12.46,0,0,1-.4,3.84c-.31,1.12-.89,1.3-1.39,1.38s-1.43,1.93-.42,1.78c.31-.05,2.83-2.18,2.54.67-.1,1-.35,2.31-.53,3.24.07,2.83-1.35,2.47-2.06,2.9-1.58.95.65,2,.75,3.28s-.42,3.59.59,3.43c1.54-.23.09,1.88-.21,2.63-.5,1.23,0,3.72.19,4.87.29,1.77-.24,1.33-.22,2.19.05,1.74.62,2.72.39,4.65-.1.84-.87,4.22-.46,5.11.19.42.65-1.31.8.71.08.95.38,5.84-.31,5.95-.54.08.27,6.83-.27,8.35-.35.66-1.47,3-1,4.37.43,1.19,1.27-.16,1.59,1.77.22,1.34-2.18,8.35-.28,8.06a13.15,13.15,0,0,1-.95,3.39c-.68,1.69.22,1,.39,1.58s-3.78,3.61-4.07,3.76c-.49.26-4.12,1.77-3.35-.37,0-.75,1.9-6.48,1.6-6.67s-.41,1.09-.79.6A2.84,2.84,0,0,0,2,310.84c-.55-.54-1.79-.49-1.74,1.59C.1,306.31.36,300.11.37,294c0-4.86,0-9.75,0-14.61,0-1,.38-2.9.34-3.49-.09-1.67-1.34-5.18-.4-6.53.65-.92,2.26,2.1,2.51,1.39,0,.1-.44-4.33-.41-4.24-.46-1.26-1.17-1-1.77-.91.94-.15.69-1.94.37-2.79-.47-1.27.12-1.44-.59-2.12s-.31-2.45-.09-3.37c.26-1.09.87-2.17.63-3.65-.18-1.11-.8-1.72-.51-3.13.26-1.23,1.37-3.27.64-5a3.69,3.69,0,0,1-.59-2.88c.11-1.87.44-4.7,1.16-5.73C3.4,234.49,1,235.35.6,233.39a9.32,9.32,0,0,1,.13-3.21c.13-.74,1.44-3.75,1.43-3.88,0,.21-2.91-2.42-1.32-4.69.2-1.44.33-2.46.46-4,.11-1.26,1.5-4.15,1.49-4.44,0,.63-1.6-.91-1.71-1.11a6,6,0,0,1-.57-3.44c1-.15.42-6.28-.51-5.86,1.46.53.54-11.8.49-13.73-.06-2.5.9-2.83.83-5.47.12-.69.46-2,.11-2.66C1.2,180.43,0,179.73,0,179.13c0-.12,1.45-.2,1-1.8-.08-.29-1.06-2.81-.67-3.12,1.55-1.21-.13-4,.08-6.77.11-1.56.41-1,.72-1.92s-.37-3.77-.38-4.88A17,17,0,0,1,1.52,155c.42-1.34,0-.94-.27-1.88-.94-3.56-1-11-.37-14.87.51-3.44-.73-1.23-.72-4.17,0-2.07.63-3.47,1.36-4-.5,0-1-.21-1.09-1.41-.12-1.46.39-2.8.35-4.49s1.09-1.13,1.46-1.61c.5-.64-1.39-3.12-1.54-4.42-.21-1.83-.57-6.65.44-7.09-1.12,0-.87-6-.79-7.66a21.67,21.67,0,0,1,.73-5.39c1-2.78-.91-2.56-.95-4.31a21.72,21.72,0,0,1,.58-3.91c.17-1.35-.34-.63-.37-1.76-.05-2.29.42-1.49,1-2.82,1.05-2.34,2.35-4.53,3.56-6.8a8.46,8.46,0,0,1-3,1.65c-2.84.41-.11-1.42-.18-4.27a10.37,10.37,0,0,1-.65.87c-.33.39-.68.69-.75.3-.35-1.78,1.06-5.25,1-7.49A10.19,10.19,0,0,1,1,65.72c.11-.66,1.37-2.62.73-3.19-.39-.35-1.26-.12-1.31-1.79,0-1.33.72-2.12,1.16-2-.76.12-.9-5.8-.15-5.91C-.55,54.23.62,42,.56,39.45c0-1.15-.29-4.5.18-5.38.18-.33.87-.67.85-1.43a1,1,0,0,0-1.24-1c.81-.47,2.8-3.1,2.12-4.59-.22-.47-1.68,2.62-1.75-.17-.95-2.07.89-2.88.84-4.88-2.54.9,0-3.67,1.35-3.77C2.85,16.1,1,18.1.58,16.47a10.17,10.17,0,0,1-.24-1.86c0-.35,0-.72,0-1.09s0-1,0-1.56c0-2.84.2-5.58.4-7.23A5.55,5.55,0,0,1,1.8,2.4C3.56,2.9,5,3.32,5.57,3c.45-.23,0-.6-.52-.94S4,1.38,4.5,1.22l5.33-.09,2.59,0c.5,0,1,0,1.47,0A7.28,7.28,0,0,1,17.28,2c1.5.58,1.44-.68,1.94-1,2.09-1.26,3.18,1.52,3.5,1.52a6.64,6.64,0,0,0,2-.78c1.54-.71,3.14-.54,5.07-.34s1.32-.33,2.86-.33a32,32,0,0,1,5.31.61c.8.12,2.69-.86,4.62-.86.9,0,1,.11,1.07.44,1.41.09,3.15-.08,4.59-.11,1.85,0,.72-.11,2.28.48S51.6.94,52.19.73C56-.66,55.48,3,56,3.44c.67.67.78-2.23.91-2.29.77-.4,5.6-.68,5.26.19-.08.18-.62,3,.8,2.58C64.53,3.46,64.1.57,66.76.58c1,0-.17.6,1.33.56S70.86.86,71,1.55c1.5-.1,2.09-.65,3.38-.89,1.1-.2,2.09.75,3.72.71-.17-1.13,5.85,1.19,6,1.12,1-.47.74-1,3-1.05A9.58,9.58,0,0,1,90,1.76c.18.06,2.41,1.21,2.54,1,.45-.68-.81-1.54,2.4-1.36,2.59.16,4.09,1.44,5.73-.13-.1-.69,2.06.6,3.55-.09-.07-.47,3.64-.69,4.32-.74a16.55,16.55,0,0,1,5.38.22c2.1.56,6.31.06,8.64.09,3,0,6.53.09,9.51.29.58,0,5,1.09,4.27,1.44,1-.47-1.53-2-.5-2.28l.24.05.6.16,1.81.47a19.11,19.11,0,0,1,2.63.81A5.86,5.86,0,0,0,144.16.59c1.72-.84,2.54.4,4,.43,3.35.09,3.79.47,3.8,1.85-.49-2.19,2.34-2,7.26-2.11,4.38-.1,5.57,0,5.75,1.78A6.26,6.26,0,0,0,166.1.93c.42-.68,1.59-.33,2.18.08-.66,0,3.27.06,2.38-.26.51.19,1.87,1.36,2.39,1.34.35,0-.55-1.43,1.41-1.48,2.28,0,3.21.79,4.6,1.29-1.51-.54,3.39-.82,3.43-.91.25-.55.67-.36,2.35-.4.56.24-.22,1.17-.26,1.15C184.23,1.62,193.67,1,195,1c1,.05,3.12.84,3,.18,2.19-1,4.48-.72,7.47-.51.38,0,4.11.13,3.55.55s.47,2.51,1.75,1.93-.05-2,2.14-2.47,3.34,1.24,4.94,1.2c-.09,0-1.43-.94-.62-1.13a24.21,24.21,0,0,1,6.42,0c1.83.42,1.45.38,3.78,0a20.12,20.12,0,0,1,5.85-.06c1.84.31,1.58.77,3.27.17a11,11,0,0,1,5.09,0c.71.16,1.93,1,2.91.85C246.34,1.5,246.84.56,249,.41c.13.83,1.29.29,2.35.1,1.22-.22,1.56.52,2.15.9-.87-.72,6-1.54,7.38-1.35.19,0,6,3,6.63,1.67.18-.4-2-1.17.86-1.07,1.62,0,4,1.33,4.48,1.31-.12,0,.23-1.21,2.33-1.26s.5.52.84.64a12.4,12.4,0,0,1,2.81-.11c1,.15,2.11,1.23,3.17.9,1.86-.57,4.91-2.82,8-1.59.65.26.63,1.46,1.59,1.43,1.69,0,1.34-1.29,2.49-1.64,3.19-1,5.19.43,7.13,1.15a8.09,8.09,0,0,0,3.55.57c1.32-.19-.37-.9.23-1.28,2.06-1.31,5,.43,7.12.44-.1-.62,1.84-.53,2.73-.55,1.38,0,2-.54,3.69-.48l.7,0,.32,0h.15l.26,0c.76.05,1.4.11,2,.19a18.21,18.21,0,0,1,2.67.54,21.41,21.41,0,0,0,4.78,1c.73.06.73-.12.55-.31s-.55-.39-.44-.36c.33-.57,1-.79,2.72-1,.07.49.14,1.15.23,2,.54,5.32-.95,2.86-1.61,4,0,2.18.65,1.61,1,1.36,0,1.63-.12,2.89-.21,4.14,0,.32,0,.63-.07.95l0,.58a10,10,0,0,0,0,1.25c0,.55.5.72.64,1.52a14,14,0,0,1,0,4.62c-.13.71-.9,3.71-.17,3.6-.09,0-1.32.38-.95,1.18.53,1.15,1.77-.2,1.65,3.15a3.74,3.74,0,0,1-.46,1.76,15,15,0,0,0-.18,4.1c.07,3,.64,6.58-.14,9.31-.36,1.24-1.61.4-1.29,1.9a56.12,56.12,0,0,1,.9,6c.73-.12.75,6.33.6,7.55s-2.21.67-1.37,2.38c.3.6,1.3,1.11,1.33,2.3s-.93.46-.89,2a26.13,26.13,0,0,1,.6,2.86c.19,2.15.31,4.34.39,6.53s.15,4.39.08,6.58c0,1.64-.38,2.75-.34,4.3,0,.92.13,2.12.06,3-.06.77-.87.3-1.09.92-.29.83,1.12,4.38,1.25,5.77a40.39,40.39,0,0,1,0,6.78,7.34,7.34,0,0,1-.42,2.32c-.23.41-1.06-.67-1-.1,0,1.35,1.4,1.74,1.59,3.47s-.57,1.3-.87,2.25a15,15,0,0,0-.34,5.41c.27,2.31,1.43,3,.69,5.72-.38,1.37-1.33,3.56-.56,5.23.69,1.5.75-.79.83,2.36,0,1.54.06,3,0,4.51-.11,2.51.29,14.11-1.32,14.11,1.7-.91,1,7.48.6,9.41-.73.11-.91,2.3-.87,3.69.05,2.06.73,1.81,1,3.11a15.15,15.15,0,0,1,.54,4.81,1.8,1.8,0,0,1-.38,1.4c-.08.93.14,1.85,0,2.78a65.88,65.88,0,0,0-1.2,6.72c-.09,1.53.33,3.42,1,2.4.07,2.91.2,5.84.14,8.76,0,2.3-.18,4.59-.21,6.89,0,1.42.09,2.83,0,4.25,0,.58-.39,1.48-.38,1.71l.36,14.18a18.13,18.13,0,0,1-.17,4.35c-.46,2.5.35,4.62,0,7a25.77,25.77,0,0,0-.41,5.21l-.09,9a112.17,112.17,0,0,1-.21,11.76c-.15,1.37-.67,1.35-.33,3.21.11.59,1.6,3.56,1.06,4.36-1.13,1.68.14,1.58.09,3.6-.06,2.42-2.1.72-2,3.92.69.27,1.33-1.58,1.44.57.09,1.75.63,7.95-.63,7.62.76-.29,1.44,2.14,1.05,3.85-.21.92-.61.58-.85,1.47a11.32,11.32,0,0,0,.06,4.34,13.1,13.1,0,0,0,.91,3.22,25.86,25.86,0,0,1-.41,2.85c0,1.32.57,7.82-.28,7.95,1.44,2.71.47,3.34-.33,6,.4-.06.67,3.6.77,7.48,0,1,0,2,0,2.9,0,1.29,0,2.52,0,3.63a48.88,48.88,0,0,1-.26,5.57,16.73,16.73,0,0,0-.15,3.08c-1.83,0-3.89.14-5.15.15a16.85,16.85,0,0,1-3.81-.41,12.9,12.9,0,0,0-1.83-.19,7.61,7.61,0,0,0-1.74.14c-1.72.32-1.7.63-3.74.69-1.35,0-.61-.38-2-.42-2.81-.07-2.74-.45-4.74-1.16.26.09-.57,1-1.17,1.05s-2.36-1.1-3.06-1.28c-1-.27-.62.51-.6.65-.6.58-2.34.92-3.69,1.12-2.76.42-1.85-.43-4.65-.42-2.37,0-4.45-.47-6.4-.25-8.21.9-18,.55-26.47.6-6.31,0-13.06-.09-19.39-.23-7.15-.16-14.28-.36-21.33-.66-1.58-.57-2.16.05-4.14.1s-3.89,0-5.25.62c.15,1-1.47-.21-1.63-.24-1.86-.42-4.84,0-6.86-.05-.85,0-1.07-.11-1.12-.43-.12-.77-.6-.83-2.24-1.09-3.23-.5-.12,1.78-.45,1.94s-4.52-.62-5.37-.64c-1.24,0-1,.54-2.54.38-.49-.06-3.39-1-3.94-.5-.28.27,1.79,1.54-1.25,1a18.77,18.77,0,0,0-4.47-.51c-6.11,0-12.15.34-18.26.07-1.46-.07-2.39-.4-3.77-.48a35.33,35.33,0,0,0-5.1.29c-4.18.33-8.64.45-12.9.36-4.1-.08-9,.24-12.87-.33-1.72-.25-1.64-.58-3.83-.27a67.76,67.76,0,0,1-6.91.45c-3.71.14-7.36-.13-11.09-.13-4.26,0-11.85.68-15.49-.62-1.52-.55-2.53-1-2.36.06.14.92-3.58.1-4.66.6-1.51.69-4.41-.19-6-.33-2.09.05-3.15-.21-5.24-.24-6.36-.09-12.79.23-19.15.37-2.38.05-8,.52-10.07-.22-2.84-.49-1.8-.31-1.9.32-.05.32-4.91-.12-5.2-.14-2.42.06-4.78-.36-7.17-.3-.84,0-2.36.1-2.44-.42a12.18,12.18,0,0,0-3.28.42c-4.25.65-8.94-.11-13.28,0C9.36,330.58,3.48,330.6,6.87,329.8ZM253.73,1.55a.8.8,0,0,1-.28-.14A1,1,0,0,0,253.73,1.55Z"/><path class="cls-1" d="M10.23,209.37a.3.3,0,0,0,.3.06A1.22,1.22,0,0,0,10.23,209.37Z"/><path class="cls-1" d="M.35,31.6a.87.87,0,0,0-.23.08A.37.37,0,0,0,.35,31.6Z"/><path class="cls-1" d="M257.59,10.19a.39.39,0,0,0,0-.37A.84.84,0,0,0,257.59,10.19Z"/><path class="cls-1" d="M8.25,323.8c.19,1.08.95,1.48,1-.15S8.21,322,8.25,323.8Z"/><path class="cls-1" d="M2.94,323.43c0,.86.74,1.55.72.73,0-.3-.45-3.38-.71-2.66A11.3,11.3,0,0,0,2.94,323.43Z"/><path class="cls-1" d="M5.37,324.24c-.83-.43-.91,1.38-.42,2.44l1.64-.25C5.76,326.56,5.43,326.51,5.37,324.24Z"/></g></g></svg>