<svg xmlns="http://www.w3.org/2000/svg" viewBox="0 0 163.76 164.17"><defs><style>.cls-1{fill:#010101;}</style></defs><g id="Layer_2" data-name="Layer 2"><g id="content"><path class="cls-1" d="M160.92,113.51c-.18-.18-1.07-1-1,.15C159.94,114.34,161,114.58,160.92,113.51Z"/><path class="cls-1" d="M160.15,75.59c0-.62-.8,1.23-.61,1.62S160.15,76,160.15,75.59Z"/><path class="cls-1" d="M159.36,45.86c-.06.91.19,1.14.53,1.09l0-.58C159.74,46.09,159.54,45.83,159.36,45.86Z"/><path class="cls-1" d="M157.26,163.2c-.58,0,.62.23,0,0Z"/><path class="cls-1" d="M162.75,160.62c-.3-1.2-1,.17-1.5-.86.22.44.57-1.19.45-1.74-.36-1.55-.54-.07-.84,0,.14-1.65-.4-.7-.7-.83-.47-.2.46-2.15-.3-1.68s-1.15,1.39-1.83,0,.35-3.82.13-1.28c-.11,1.41,1.23,0,1.2.42,0,0-.31,1.49.13.84a4.41,4.41,0,0,0,.48-2.33,10.69,10.69,0,0,1-.06-3c.17-.43.61-.13.59-1s-.68-.89-.59-1.61c.16-1.23.5-.77.11-2.34a6.09,6.09,0,0,1,.15-2.73c.21-.76.76-.66.74-1.49l-.75.1c0-.61,1.46-2.12.75-2.42-.4-.18-.33-.87-.37-1.67,0-1-.47-1.67,0-2.24.17-.23.55.13.59-.45.07-.88-.46-1-.68-1.21-.39-.46,1-3.47-.06-2.33,0,0,.15-2-.27-2,0-.76.84-2.47.18-2.37a1,1,0,0,1,.33-.64c-.53-.16-1-1.44-.58-2.56.2-.49.92-.08.89-1s-.43-.47-.62-.54c-.64-.23-.56-2.51,0-2.89.26-.2,0-.56.48-.64l.82-.12c0-1.57-1-.93-1.41-1.33A.73.73,0,0,1,160,116c0-1,.53,0,.69,0,.45-.14.63-1.76.56-2.61,0-.4-.34-.84-.26-1.19s.38-.53.47-.94c-.07.33-1.46-.33-1.68-.46.12.07.32-.5.23-.8-.33-1.1-.55-.66-.34-2.32a14.63,14.63,0,0,0,.18-2.77c.76.89,0-2.27,1.07-1.17.37.36.32,1,.79.9.23.08.51-.07.74-.11a6.23,6.23,0,0,1-1.36-1.68c-.25-.48-.46-.82-.78-1s0-2-.67-1.64c.21,0,.38-.29.41-.8,0-.72-.19-.47-.34-.94-.23-.77.93-.84.94-.38,0-.43-.47-1-.56-1.4a7.75,7.75,0,0,1,0-2.8c.19-1.11.93.36,1.12.83,0-.67,0-1.16-.38-1.12.88-.12,1.35-3,.05-1.76-.76,2-1.91-1.63-1.08-2.77-.15,2.45,1,.1,1.05,1.61.67-.07.66-1.53.06-1.79-.13,0,.14-1.25.09-1.57s-.75.06-.93-.12a2.61,2.61,0,0,1-.23-2.3c.21-.89.45,1.47.61,1.44a15.09,15.09,0,0,0-.06-2.18c-.09-.7-.52-.08-.58-.53,0-.3.27-1.62-.19-1.55.28-1,.92-1.08.2-1.79-.49-.48-.36-.88,0-1.75.93-2.53,1.25-4.26.07-6.68.51,1,.68-2.2.19-2.13-.92-.91.17-2.86.23-.62a1.35,1.35,0,0,0,.46-1.82c0-.64-.34-.54-.52-.51,0,.57-.37,1.76-.57.93-.32-1.39.29-2,.26-3a6.9,6.9,0,0,1,.42-3.21,2.27,2.27,0,0,1-.18-2,5.16,5.16,0,0,0,.34-1.13c0-.7-.22-.56-.36-1.09-.3-1.23.5-.76.54-1.3.08-1,.12-1.59.63-1.67a1.71,1.71,0,0,1-1.17-.41c.51-.08,1.7-.12.94-1.9a8.5,8.5,0,0,1-.89-2c-.14-.8,1-.46.06-1.38-.17,0,.73-2.31.57-2.77a7,7,0,0,0-1.21-2.4c.1-.1,1.1-.88,1.1-1s-.7-.33-.56-.72c.21-.56.78-.12,1.06-1a8,8,0,0,0-.23-3c-.41-1.68.06,2.6-.33,2.12a6.39,6.39,0,0,1-1.05-2.11c-.29-1,.08-1.34,0-1.94a4.92,4.92,0,0,1-.28-2c.09-.8.28-1.47.35-2.3a6.35,6.35,0,0,0,0-1.51,3.35,3.35,0,0,0-.28-.67s1.52-.14,1.71-.17a2.25,2.25,0,0,0,1.12-.75c-.68.1-2.73.83-2.87-1.39a15.7,15.7,0,0,1,.44-5.27c.42-1.12-.28-.82-.2-1.51s.87-1.25.38-2.18c-.17-.34-1.19-1.43-.32-1.56.35-.94-.13-1.16-.05-2.16.05-.2.13-.27.23-.21a4.39,4.39,0,0,0-.21-1.57c-.17-.61.3-1-.13-1.89-.48.07.14-1.74.16-2.14a8.3,8.3,0,0,0-.09-1.69l0-.2,0-.1-.05-.19a2.53,2.53,0,0,1-.07-.38,4,4,0,0,1,.11-1c-.36-.14-.79-.43-.71-.9a1.66,1.66,0,0,1-.47.77c-.27.2-.26.32-1.2.27a25,25,0,0,1-2.47-.4c-1-.15-.87.47-1.32.52-.15,0,0-.95-.25-1.09-.46-.31-1.14.91-1.38.91-.09,0-.13-.74-.77-.73-.34,0-.77.56-1.44.64-1.34.15-3.39.25-4.15-.36-1.31-1.08-.6-.79-1.9,0-1,.59-2.47-.72-2.92-.46-.09,0,1.34,1.91-.86.9-.9-.42-.68-.81-1.59-.12-.66.52-2.63-1-2.86-1.14.25.1-1.44,1.29-2.72,1.14.19,0,.36-.41.32-.5-1.41,0-1.77.8-3.49.87-.41,0-1.06,0-1.1-.24-.07-.49-1.24,0-1.45-.29-.08-.11.55-.49-.21-.58-.6-.07-1.33.44-1.83.54-1.23.25-.65-.53-.77-.81-1.23,0-.82.4-1.48.71-.39.19-.86-.31-1.63,0-.34.15-2,.46-2.13,0,0-.07-.53-1.21-.87-1-.19.1.32.49.29.64,0,.33-.74.28-1.32.3s-.18.19-.78.21c-.78,0-1.38-.15-2.21-.13-1,0-6.61.53-6.19-.34-.42,0-1.17,0-1.13.29a8,8,0,0,0-1.57.11c-.8.31-2.69.06-4,0-.89,0-1.76-.16-2.66-.14l-1.16,0c0,.12-.12.19-.41.19-.86,0-3.08-.43-2.44.38-1.19,0-.36-.24-.83-.37a7.3,7.3,0,0,0-2.17-.29c-.6,0-.71.68-1.42.41s-.91-.77-1.64-1c-1.41-.56-.76.73-1.62.76-.27,0-4.08.11-3.54-.16-.88,0-1.83.09-2.72,0-1.3,0-.5-1-2.09-.92.13.31,1.56.66.31.73a20,20,0,0,1-2.68,0c-.73-.06-.22-.21-1.12-.19s-3.06.44-3.43-.21c-.18-.3-.63-.52-.74-.85,0,0,.35-.5,0-.43,0,0-.74.26-.9.05s.48-.3-.24-.28c-.29,0,0,.74,0,.74.06.37.93.92.52,1.28s.09.31,0,.5-1.35-.28-1.43-.3c-.79-.1-.27.22-.66.26s-2.12-.81-1.88-.93c-.53.26-1.43,1.72-1.61.45a11.15,11.15,0,0,0-3.13-.39c-.61.06-3.19.79-3.32.25-.06-.23.36-.33-.07-.44-1.45,0-.55.27-1.14.55-.21.11-1.69-.9-1.78-1,.92.67-3.42,1.63-4.69,1.36-.39-.08-.49-.25-.86-.35a10.79,10.79,0,0,0-2,.19A2.16,2.16,0,0,1,46,4.47a7.1,7.1,0,0,0-2-.09,31.73,31.73,0,0,1-4.36,0c-.61-.07-.61-.33-1.22-.35a17,17,0,0,0-2.28.44c-1.48.15-3.62-.43-4.82-.15-.6.14-2.55,1-2.76.22-.06.26-.43.51-1.09.53.16-.63-1.58-.6-2.54-1,.21.15.37.32.2.42-.47.28-1.36-.37-1.61-.45a4.17,4.17,0,0,0-1.86,0c-.61.14-.59.77-.83.8s-2.14-.77-1.56.13c-.16-.74-2.52-.54-3.67-.65-1.32-.13-.61-.57-1.25-.81a6,6,0,0,1-.7,1.08c.31-.08-2.12-1.07-2.36-.52.06-.13.33,1.36-.31.85a1.4,1.4,0,0,1-.66-1.15,2.4,2.4,0,0,1-1.92,1c-.66,0-1.2-.5-1.53-.49s-.59.61-1,.67c.11-.14-.5-.09-1,0C5,5.5,5.05,6,5,6.09a.53.53,0,0,1-.76.39C4,6.37,3.6,6,3.37,5.93c.11,0,.23.86.26,1,.17.58.33.45.57.45.41,0,.26,1.93.17,2.39a2.44,2.44,0,0,1-.49,1c-.31.51.39.71.48.92.41,1.05-.11,1.6.77,1.47-.56.08-.22,1.56-.42,2.23,0,.18-.37.41-.42.06-.1-.78-.51.06-.52-.57a16.26,16.26,0,0,1,0,1.7s-.45-1.69-.66-1.15.61,1.73.71,1.85c.46.5.72-.09,1,1.19,0,1.93-.75,3.42-.46,5.26a10.4,10.4,0,0,1,.53,2.44c0,.29-.62-.17-.79.18a.6.6,0,0,0,.45.93c1,1-.35.83-.34,1.3s.51.49.64.42c-.42,1.11.12,2.85.08,4.15,0,.92-.66,3.91.13,4-.55.35.15,3.58.12,4.45a6.34,6.34,0,0,1-.43,2.62c0,.62-.21,1.22,0,1.75,0,.44.13,1.74-.2,1.79a21,21,0,0,1-.08,2.86,4.57,4.57,0,0,1-.33.78c0,.71.26.88.3,1.7C4.6,54.38,5,55.61,5,57c0,.92-.72-.66-.86-.64s.34,1.48.32,1.43A5,5,0,0,1,5,59.21c0,.36-.22.85-.21,1.38.35-.05.5,2.27.06,2.33-.33.53-1-.21-1.33.71.09-.23.78,0,.86.44a5.32,5.32,0,0,0,.11,1.07c.13.35.45.32.62.71a4.43,4.43,0,0,1-.1,2.9c-.36,2,.41,1.17.45,2.64,0-.53-.89-.42-.86.93,0,.66-.06,4.69.38,4.63.26.53-.13,2.35-.44,2.4,0,0-.83-2.14-.83-.8,0,.89,1.18,1.35,1.42,1.59a.73.73,0,0,1,0,1.14,2.8,2.8,0,0,1-.65.49c0,.21.48.57.57.86s-.27,1.08-.34,1.29c-.36,1,.17,1,.45,1.52.54,1-.12.77-.32.91s-.15,2.61.39,2.26c-.82.3-.6,4.3-.72,5.76a10.42,10.42,0,0,0-.19,1.81c.22.72.94.51,1,1.79-.37.24-1.8-1.71-1.75.25.62-.16,1.21.28,1.78.84-.09-.09-.62.34-.61.75,0,.26.65,1,.75,1.47.19.79-.52,1.8-.54,2.88,0,1.32.41,1.25.56,2.37a4.9,4.9,0,0,1-.09,2.1c-.15.38-.88.47-.9.74-.06.82.77,2.17.46,3.18A5.32,5.32,0,0,1,3.52,114c.23.49.6.17.86,1.07.21.69.29,3.27.59,3.4,1.27.55,0,1.21-.65,1.29,0,.77.16.45.41.54s.14,1.34.16,1.66c0,1,.29,1.63.31,2.65.13.6.09,1-.14,1.07-.18.57.09,1,.06,1.4s-.73,0-.73-.09c0,1.55,1.09,1.1.71,3.19-.14.8-.4,1.38-.73.69-.15-.45-.67-1.37-.51-.06A11.44,11.44,0,0,0,4.5,133a14.53,14.53,0,0,1,.5,3.36c0,.3.13,2,.23,3.65.06.82.12,1.62.16,2.21,0,.3,0,.55.06.72a1,1,0,0,0,0,.28c-.37-.12-1.07-.49-1.44.49.12-.3.9,1,1,1.19a1.87,1.87,0,0,1,.35,1.8c-.23.89.18,2.5-.13,3.23-.11.26-.52,0-.5.55,0,.73.63.82.81,1.2,0-.1-.47.29-.49.58.09.05.15.19.16.41a2.43,2.43,0,0,1-.34,1.12,3,3,0,0,1-.72,1.09c.31.15.5.92.57,1.67a2.57,2.57,0,0,1-.07,1.27,3.38,3.38,0,0,1-.5.43c-.05,0,.1.41.29.65s.42.35.54.27c.37-.22.53-.3.56-.27s-.11.42-.83.9l-.29.22c-.27.17-.42.2-.48.48a2.19,2.19,0,0,0,.63,0c.36-.15.59-.73,1-.93s.13.52.41.51a3,3,0,0,1,.21-.44,1.73,1.73,0,0,1,.22-.31l.14-.11.07,0,.19,0c.77-.19,1.74-.32,1.2.22s1,.37,1.47.15c1.12-.54.24-.27,1.43.18-.58-.22.37-.51,1.22-.19a11,11,0,0,0,1.67.21c.24,0,.23-.22.68-.26,1-.08,2,.09,2.57-.29a1.1,1.1,0,0,1,1.56.67c-.15-1,3.09-.23,2.43.09,1.4-.68,0-.64,1.6,0-.57-.22,1.36-.53,1.59-.64.4-.19-.12-.31.69-.33.65.12,1.8.33,1.85.7s.1.25.62.24c.73,0,.43-.35.61-.55s2.95,1,2.24,0c.69,0,.71.29.56.56a2.11,2.11,0,0,1,1.84-.12c.09.6.67.34,1,0s-.14-.75,1.48-.35c.85.21,1,.42,1.1.81-.12-.85,1.75-.35,2.8-.86.45-.45,2.48-.47,3.4-.43a3,3,0,0,1,1.19.21c.49.33,1,.06,1.76.06.45,0,1.17.21,1.34.21,1.06,0,.11-.63.49-.64.15,0,.83.46,1.18.52a6.73,6.73,0,0,0,2.12-.14c1.36-.13.36.79,1.25.86,2.29.18,1.24-.48,2-1a14.31,14.31,0,0,1,4.3-.08c.72.18,1.12.5,2,.09.67-.32,1-.12.62.24.79.33,2.8.5,2.12-.18-.35-.36,3.21-.23,3.69-.2,1.35.06,0,.73.34.87.13.05,2.82-.66,3.57-.61.94.07.65.33,1,.61.54.46,1.35-.69,1-.68.51,0,.65.73,1.42.71s-.28-.87.82-.9c0,.3-.23.76.7.74.69-.15.17-.89.89-.91a15.56,15.56,0,0,1,2.49.6,16.9,16.9,0,0,0,2.95.16c.39,0,1.24-.07,1.21-.31-.08-.53,1.09,0,1.75,0,0-.2,1.23.2,1.6.2,1.31,0,2.18-.2,2.6.36.14.19,1.16.1,1.22.54s2.14.64,2.09.29c0-.05-2.62-1-.37-.58.46-.17.43-.5,1-.53,1.76-.09,1.1.18,1.2-.53.06-.37,1-.32,1.29,0,.58.61.09,1.58.19,2.25,2.44-.06-.26-2.32,1.78-2.29.8,0,5.59.63,6,0-.07.88,2.23-.2,3.35-.13s3.92,1.15,4.77.79c1.74-.74,2-.17,2.06.61,1.14.43,1-1.06,1-1.28A3.93,3.93,0,0,0,118,160c.65-.16-.79-.43-.82-.64s1.55.11,1.68-.18-.74-.38.19-.43a5.52,5.52,0,0,1,1.89.21.8.8,0,0,1,.68.72c0,.3,1,.74.87.22,0-.16-1.07-1.48.33-1.33.51.06,1.14.19,1.6.28,1.4,0,1.22.71,1.43,1.07.47.83,1-.34,1.62-.39s1.76.22,1.69-.3c-.12-.8.92-.05,1.29.11a5.39,5.39,0,0,0,2.4-.1c.87-.15.65.12,1.08.11a12,12,0,0,1,2.29-.2,8.24,8.24,0,0,0,2.52.24c.2-.1-.65-.34.35-.42.46,0,2.87-.2,2.93.16s3.36-.14,4.11.14c.33.19,1.46.77,2.16.5s-.09-.66.87-.83c.66-.11,4.11,1.13,4,.15a6,6,0,0,1,1.67.49c.83.35.48-.11.78-.2s1.78,2,1.85,2.12.87,2.14-.19,1.74c-.36,0-3.19-1-3.28-.83s.54.21.3.41a1.37,1.37,0,0,0-1,.35c-.27.29-.24.93.78.91-3,.08-6.06-.06-9.09-.06-2.4,0-4.81,0-7.2,0-.48,0-1.43-.2-1.72-.18-.82,0-2.55.7-3.22.21-.45-.34,1-1.17.69-1.31.05,0-2.13.23-2.09.22-.62.24-.49.61-.45.92-.07-.49-1-.36-1.37-.2-.63.25-.71-.05-1,.32s-1.21.16-1.67,0a3.85,3.85,0,0,0-1.79-.33c-.55.1-.85.42-1.55.27s-1.61-.72-2.46-.34a1.74,1.74,0,0,1-1.42.31,7.11,7.11,0,0,1-2.82-.6c-1.19-.88-.77.37-1.73.57a4.24,4.24,0,0,1-1.59-.06c-.36-.07-1.85-.75-1.91-.75.1,0-1.19,1.52-2.31.69-.71-.1-1.21-.17-2-.24a16.86,16.86,0,0,1-2.19-.78c.31,0-.45.84-.55.9a2.82,2.82,0,0,1-1.69.29c-.08-.52-3.1-.21-2.89.27.26-.76-5.82-.29-6.77-.26-1.23,0-1.39-.46-2.69-.43-.34-.06-1-.24-1.31-.06s-.57.74-.86.75c-.06,0-.1-.76-.89-.52-.14,0-1.38.55-1.53.35-.6-.81-2,.06-3.34,0-.77-.06-.51-.22-1-.38a11.37,11.37,0,0,0-2.4.2,7.82,7.82,0,0,1-2.76-.41c-.66-.21-.46,0-.93.15a22.38,22.38,0,0,1-7.32.19c-1.7-.27-.61.38-2.06.37a2.36,2.36,0,0,1-2-.7c0,.26-.11.52-.7.57s-1.38-.21-2.21-.19-.56-.56-.8-.76-1.53.72-2.17.8c-.91.11-3.28.3-3.49-.23,0,.59-3,.46-3.78.41a9.93,9.93,0,0,1-2.66-.37c-1.37-.52-1.26.47-2.12.49a10.88,10.88,0,0,1-1.92-.3c-.67-.09-.31.17-.87.19-1.13,0-.73-.22-1.39-.53-1.16-.54-2.23-1.22-3.35-1.85a4.53,4.53,0,0,1,.81,1.57c.2,1.48-.7.06-2.1.09,0,0,1,.66.58.73-.88.18-2.59-.55-3.7-.52a4.7,4.7,0,0,1-1.86.19c-.33,0-1.3-.71-1.58-.38s-.06.66-.87.68c-.66,0-1.05-.37-1-.6.06.4-2.86.47-2.91.08.66,1-5.34.4-6.62.43a8.83,8.83,0,0,1-2.64-.1c-.17-.09-.34-.45-.71-.44a.51.51,0,0,0-.51.65c-.24-.42-1.53-1.46-2.26-1.11-.24.12,1.29.88-.09.91-1,.5-1.42-.46-2.4-.43.44,1.32-1.81,0-1.86-.71-1,0,0,1-.85,1.22a5.45,5.45,0,0,1-.91.12l-.54,0H5.92a33.15,33.15,0,0,1-3.55-.21,2.43,2.43,0,0,1-1.12-.56c.26-.88.48-1.59.32-1.87s-.31,0-.49.28-.36.55-.44.3c0-.87,0-1.75-.05-2.63,0-.45,0-.89,0-1.34v-.81a3.38,3.38,0,0,1,.46-1.67c.3-.74-.36-.71-.52-1-.65-1,.79-1.57.79-1.73a3.11,3.11,0,0,0-.4-1,4.34,4.34,0,0,1-.18-2.5c.11-1-.17-.65-.17-1.41a15.65,15.65,0,0,1,.31-2.62c.07-.39-.44-1.32-.45-2.27,0-.45.06-.5.24-.53,0-.69,0-1.55-.06-2.26,0-.91-.06-.36.25-1.12s-.37-.55-.48-.85c-.72-1.85,1.16-1.62,1.41-1.86S.63,136.05.6,136c-.21-.38-.35-2.76.1-2.59.09,0,1.55.31,1.34-.39S.3,132.43.3,131.12c0-.51.32.08.3-.66S.45,129.09.81,129a11.85,11.85,0,0,0-.46-1.67c-.11-.54.39-1,.36-1.83-.58.09.62-2.88.58-3-.24-.5-.51-.37-.54-1.48a4.2,4.2,0,0,1,.17-1.41c0-.09.63-1.19.52-1.25-.35-.22-.8.4-.7-1.18.07-1.28.74-2-.07-2.83-.36,0,.31-1-.05-1.75-.24,0-.36-1.79-.39-2.12a7.71,7.71,0,0,1,.12-2.66,22.23,22.23,0,0,0,.05-4.25c0-1.49,0-3.22.15-4.69,0-.28.56-2.47.74-2.1-.24-.5-1,.76-1.18.24,0,0,0-.16.11-.41s.15-.56.24-.89a8,8,0,0,1,.43-1.3A2.86,2.86,0,0,0,.31,93c-.44-.84.2-1.25.22-2,0-1.65.25-1.86,1-1.87C.36,89.39.46,88,.4,85.57c-.06-2.16,0-2.74.92-2.83a3.12,3.12,0,0,0-.84-.57c-.35-.2-.17-.78.05-1.07,0,.32,0-1.61-.14-1.17.1-.26.71-.93.7-1.18s-.74.27-.77-.69A4.63,4.63,0,0,1,1,75.79c-.28.74-.43-1.67-.47-1.69C.23,74,.33,73.77.31,72.94c.12-.27.6.11.6.13-.07.17-.4-4.48-.37-5.13S1,66.4.64,66.45c-.53-1.08-.38-2.2-.27-3.68,0-.18.07-2,.29-1.75s1.3-.23,1-.86S.6,60.18.38,59.1,1,57.46,1,56.67c0,0-.49.71-.59.31a11.22,11.22,0,0,1,0-3.17A2.91,2.91,0,0,0,.42,52a9.27,9.27,0,0,1,0-2.88c.16-.91.4-.78.08-1.61A5.08,5.08,0,0,1,.49,45c.08-.35.52-1,.44-1.43-.15-.88-.64-1.13-.72-2.17.44-.06.16-.63.06-1.15s.27-.77.46-1.06c-.37.43-.8-3-.7-3.64,0-.09,1.57-3,.87-3.26-.21-.09-.61,1-.56-.43A12.55,12.55,0,0,1,1,29.6c0,.06-.63-.11-.66-1.14S.64,28.21.7,28a5.76,5.76,0,0,1,0-1.38c.07-.48.64-1,.47-1.56-.3-.92-1.47-2.42-.83-3.93.13-.32.75-.31.74-.78,0-.84-.67-.66-.86-1.23-.51-1.57.23-2.56.61-3.51a4,4,0,0,0,.29-1.75c-.1-.65-.46.18-.66-.11-.69-1,.22-2.46.22-3.51-.32.05-.27-.91-.28-1.35A15.14,15.14,0,0,1,.1,7.11l0-.87c0-.37.06-.69.1-1A9.46,9.46,0,0,1,.53,4a9.09,9.09,0,0,0,.53-2.32c.07-.73-.38,0-.35-.08C.42,1.4.3,1.07.2.21l1-.12c2.61-.28,1.44.49,2,.83C4.24.91,4,.58,3.81.41c.81,0,1.43.06,2.05.11l.91.06a5.72,5.72,0,0,0,.61,0c.27,0,.36-.26.75-.34a6.41,6.41,0,0,1,2.27,0c.35.07,1.83.47,1.78.09,0,0,.19.68.58.49.57-.27-.09-.92,1.55-.86a1.74,1.74,0,0,1,.87.24,6.74,6.74,0,0,0,2,.09c1.46,0,3.24-.33,4.59.08.61.19.19.84.93.67a28.76,28.76,0,0,1,3-.47C25.62.23,28.79.22,29.4.3s.33,1.15,1.17.71c.29-.15.54-.67,1.13-.69s.23.48,1,.46c-.08,0,1.12-.28,1.41-.31,1.06-.1,2.14-.16,3.22-.2s2.16-.08,3.24,0c.81,0,1.35.2,2.11.18.46,0,1-.07,1.51,0s.15.45.45.57S46.8.36,47.48.29a19.72,19.72,0,0,1,3.35,0A3.45,3.45,0,0,1,52,.49c.2.12-.33.55,0,.55.66,0,.86-.74,1.71-.83s.64.29,1.11.45A7.06,7.06,0,0,0,57.4.83C58.54.7,58.88.09,60.22.48c.68.19,1.75.69,2.58.29S62.41.38,64,.34c.76,0,1.46,0,2.22,0C67.42.4,73.13.19,73.13,1,72.69.14,76.82.49,77.77.72c0,.37,1.13.47,1.82.45,1,0,.89-.38,1.53-.54A7,7,0,0,1,83.49.35a.83.83,0,0,1,.69.2,12.52,12.52,0,0,1,1.37,0,29.77,29.77,0,0,0,3.31.63c.75.05,1.68-.17,1.18-.54,1.44,0,2.88-.11,4.32-.08,1.13,0,2.26.1,3.39.11.7,0,1.4,0,2.1,0a8.21,8.21,0,0,1,.84.2l7-.19a8.76,8.76,0,0,1,2.14.09c1.23.24,2.27-.18,3.45,0a12.88,12.88,0,0,0,2.57.21l4.44.05a53.1,53.1,0,0,1,5.79.1c.68.09.67.36,1.58.18.29-.06,1.76-.83,2.15-.55.83.58.78-.08,1.77,0,1.2,0,.36,1.1,1.94,1,.13-.36-.78-.69.28-.75.86,0,3.91-.33,3.75.33-.14-.39,1.06-.75,1.9-.54.45.11.28.31.72.44a5.32,5.32,0,0,0,2.14,0A6.35,6.35,0,0,0,143.89.7a10.94,10.94,0,0,1,1.4.22c.65,0,3.85-.3,3.92.14,1.33-.75,1.64-.24,2.95.17,0-.21,1.77-.35,3.68-.4a59,59,0,0,1,6.09.13,7.77,7.77,0,0,0,1.52.07c0,.9.06,1.94.08,2.54a8.23,8.23,0,0,1-.22,1.89,5.31,5.31,0,0,0,0,1.87,7.07,7.07,0,0,1,.36,1.84c0,.67-.19.31-.21,1a4.64,4.64,0,0,1-.61,2.33c.05-.13.54.29.55.58a16.2,16.2,0,0,1-.67,1.51c-.14.49.26.31.34.29a4.06,4.06,0,0,1,.58,1.82c.22,1.36-.22.91-.21,2.29,0,1.17-.25,2.19-.14,3.16a128.08,128.08,0,0,1,.32,13c0,3.1-.05,6.43-.12,9.55-.09,3.52-.19,7-.35,10.51-.29.78,0,1.06.06,2a6.78,6.78,0,0,0,.32,2.59c.5-.08-.11.72-.13.8a18.12,18.12,0,0,0,0,3.38c0,.42-.06.53-.23.55-.4.06-.43.3-.56,1.1-.26,1.59.92.06,1,.23s-.32,2.22-.33,2.64c0,.61.28.51.2,1.25,0,.24-.53,1.67-.26,1.94s.8-.88.51.62a9.35,9.35,0,0,0-.26,2.2c0,3,.18,6,0,9,0,.71-.2,1.17-.24,1.85a14.85,14.85,0,0,0,.15,2.52c.17,2.06.23,4.26.19,6.35a51.08,51.08,0,0,1-.18,6.34,3.94,3.94,0,0,0-.14,1.89,31.45,31.45,0,0,1,.24,3.4c.07,1.83-.07,3.63-.07,5.47,0,2.1.35,5.84-.32,7.63-.29.75-.54,1.25,0,1.16s0,1.77.31,2.3c.36.74-.1,2.17-.17,2.95,0,1-.11,1.55-.13,2.58,0,3.14.12,6.3.19,9.43,0,1.18.28,3.95-.11,5-.25,1.4-.16.88.17.93a11.75,11.75,0,0,1-.08,2.56c0,1.2-.18,2.36-.15,3.54,0,.41.05,1.16-.22,1.2a5.48,5.48,0,0,0,.22,1.61c.34,2.1-.06,4.41,0,6.55C163.15,159.39,163.17,162.29,162.75,160.62ZM.81,39a.58.58,0,0,1-.08.14A1,1,0,0,0,.81,39Z"/><path class="cls-1" d="M103.33,158.84a.16.16,0,0,0,0-.15A.49.49,0,0,0,103.33,158.84Z"/><path class="cls-1" d="M15.75,164a.42.42,0,0,0,0,.12A.21.21,0,0,0,15.75,164Z"/><path class="cls-1" d="M5.3,37.1a.2.2,0,0,0-.19,0A.43.43,0,0,0,5.3,37.1Z"/><path class="cls-1" d="M159.71,159.87c.53-.09.72-.49-.08-.5S158.84,159.9,159.71,159.87Z"/><path class="cls-1" d="M159.52,162.64c.43,0,.76-.39.36-.37-.15,0-1.66.23-1.31.36A6,6,0,0,0,159.52,162.64Z"/><path class="cls-1" d="M159.92,161.37c-.21.43.68.47,1.21.22l-.13-.85C161.06,161.17,161,161.34,159.92,161.37Z"/></g></g></svg>