<svg xmlns="http://www.w3.org/2000/svg" viewBox="0 0 331.73 332.53"><defs><style>.cls-1{fill:#010101;}</style></defs><g id="Layer_2" data-name="Layer 2"><g id="content"><path class="cls-1" d="M326.29,230c-.35-.36-2.06-2.07-1.92.3C324.4,231.73,326.34,232.2,326.29,230Z"/><path class="cls-1" d="M324.82,153.06c0-1.26-1.55,2.51-1.18,3.3C324.08,157.33,324.8,153.82,324.82,153.06Z"/><path class="cls-1" d="M323.29,92.72c-.12,1.85.36,2.32,1,2.22l0-1.18C324,93.19,323.64,92.67,323.29,92.72Z"/><path class="cls-1" d="M318.85,330.67c-1.19,0,1.25.45,0,0Z"/><path class="cls-1" d="M329.8,325.65c-.57-2.42-1.92.35-2.88-1.73.41.89,1.1-2.43.86-3.54-.69-3.14-1-.15-1.61-.06.27-3.35-.77-1.42-1.35-1.68-.89-.41.89-4.38-.56-3.43s-2.22,2.83-3.52,0c-1.4-3.06.66-7.76.25-2.6-.22,2.87,2.35,0,2.3.85,0,.09-.59,3,.25,1.71a9.38,9.38,0,0,0,.93-4.73c0-1.66-.64-4.56-.11-6,.31-.87,1.16-.27,1.11-2s-1.31-1.8-1.12-3.28c.31-2.5.95-1.55.2-4.74a13.15,13.15,0,0,1,.3-5.54c.4-1.55,1.45-1.34,1.41-3l-1.44.22c0-1.24,2.81-4.3,1.44-4.93-.76-.35-.62-1.75-.7-3.38-.08-2-.9-3.38-.09-4.54.34-.48,1.06.26,1.15-.93.14-1.77-.9-1.91-1.32-2.44-.75-.93,1.87-7.05-.12-4.73-.09.11.29-4.09-.51-4,0-1.54,1.62-5,.36-4.8a2.15,2.15,0,0,1,.61-1.31c-1-.32-1.93-2.92-1.09-5.2.36-1,1.75-.14,1.71-2,0-1.55-.85-.94-1.21-1.08-1.22-.48-1.06-5.11-.08-5.89.51-.39-.06-1.13.93-1.28l1.59-.25c-.08-3.19-1.94-1.88-2.72-2.7a1.53,1.53,0,0,1-.28-1.59c-.05-2.06,1,.09,1.32,0,.86-.28,1.2-3.57,1.07-5.3-.06-.79-.65-1.7-.5-2.4.2-1,.73-1.07.9-1.92-.13.68-2.81-.67-3.22-.94.24.16.61-1,.44-1.6-.63-2.25-1.06-1.34-.64-4.72.18-1.45.55-5.37.32-5.62,1.47,1.8-.06-4.61,2.07-2.38.71.74.62,2,1.51,1.83.44.16,1-.15,1.44-.22a12.46,12.46,0,0,1-2.62-3.42,3.91,3.91,0,0,0-1.5-1.93c-.8-.36-.05-4.15-1.28-3.32.4,0,.72-.58.78-1.62.08-1.46-.37-1-.65-1.92-.45-1.55,1.78-1.7,1.81-.77,0-.86-.91-2-1.08-2.84a16.23,16.23,0,0,1,0-5.69c.37-2.25,1.78.74,2.15,1.69,0-1.35-.1-2.36-.74-2.26,1.69-.26,2.61-6.07.11-3.58-1.48,4.12-3.68-3.32-2.07-5.62-.31,5,1.93.19,2,3.26,1.28-.14,1.26-3.1.12-3.62-.26-.12.25-2.54.17-3.2s-1.45.13-1.79-.24c-.88-1-.85-2.81-.44-4.67s.86,3,1.17,2.94a36.3,36.3,0,0,0-.11-4.44c-.18-1.43-1-.15-1.13-1.07-.08-.62.52-3.29-.36-3.16.54-2,1.77-2.17.39-3.62-1-1-.7-1.8-.09-3.56,1.8-5.13,2.41-8.64.15-13.56,1,2.1,1.3-4.47.36-4.32-1.76-1.84.33-5.8.45-1.26a2.83,2.83,0,0,0,.87-3.7c0-1.28-.65-1.08-1-1,0,1.15-.72,3.59-1.09,1.9-.63-2.82.55-4,.5-6.12-.07-2.74,0-4.48.8-6.5-.73-.77-.71-2.57-.34-4a10.36,10.36,0,0,0,.64-2.28c.08-1.43-.43-1.14-.68-2.22-.59-2.49,1-1.55,1-2.63.15-2,.22-3.24,1.2-3.39a3.26,3.26,0,0,1-2.25-.84c1-.16,3.28-.25,1.81-3.85-.48-1.17-1.45-2.47-1.71-4.09s1.88-.93.11-2.79c-.32,0,1.4-4.69,1.11-5.62a14.6,14.6,0,0,0-2.34-4.88c.2-.2,2.12-1.78,2.11-2.1s-1.34-.68-1.06-1.47c.4-1.13,1.49-.25,2-2,.43-1.37-.15-4.72-.44-6-.79-3.42.12,5.27-.63,4.31a13.34,13.34,0,0,1-2-4.28c-.56-2,.16-2.74-.07-4-.26-1.47-.74-2.15-.54-4,.18-1.63.54-3,.69-4.67a15,15,0,0,0,0-3.07,7.85,7.85,0,0,0-.55-1.36c0,.07,2.92-.28,3.29-.34a4.34,4.34,0,0,0,2.15-1.52c-1.3.2-5.24,1.68-5.52-2.83-.19-3.2-.05-8.19.85-10.7.81-2.27-.53-1.66-.38-3.06s1.66-2.53.74-4.42c-.35-.7-2.31-2.91-.63-3.17.68-1.91-.25-2.35-.1-4.39.1-.41.25-.55.46-.42a9.77,9.77,0,0,0-.41-3.19c-.34-1.23.58-2-.25-3.83-.92.14.26-3.54.31-4.36a18.65,18.65,0,0,0-.17-3.42l-.11-.79-.09-.39a4.07,4.07,0,0,1-.13-.79,7.38,7.38,0,0,1,.2-2,3.21,3.21,0,0,1-1.09-.63,1.21,1.21,0,0,1-.44-1.1A3,3,0,0,1,321,9.46a2,2,0,0,1-.69.43l-.11,0L320,10l-.48,0c-.33,0-.71,0-1.12,0a49.26,49.26,0,0,1-5-.76c-2-.3-1.76.9-2.68,1-.31,0-.07-1.82-.51-2.1-.93-.59-2.3,1.74-2.79,1.75-.18,0-.26-1.43-1.56-1.4-.69,0-1.57,1.07-2.93,1.22-2.73.29-6.88.48-8.41-.7-2.67-2.06-1.23-1.5-3.87,0-1.92,1.12-5-1.39-5.93-.88-.17.09,2.73,3.66-1.74,1.71-1.82-.8-1.39-1.55-3.22-.22-1.36,1-5.35-2-5.81-2.19.5.18-2.92,2.47-5.52,2.19.39,0,.72-.79.65-1-2.86.07-3.6,1.53-7.08,1.67-.84,0-2.17,0-2.24-.47-.14-.94-2.51,0-2.94-.55-.17-.22,1.12-1-.43-1.11-1.22-.13-2.7.84-3.72,1-2.49.47-1.32-1-1.56-1.57-2.5.06-1.67.76-3,1.38-.79.36-1.76-.6-3.31.06-.7.29-4,.89-4.33.11-.05-.14-1.07-2.34-1.76-2-.38.18.64.93.6,1.23-.1.63-1.51.54-2.69.57s-.37.37-1.58.4c-1.58,0-2.8-.29-4.48-.25-2.12.06-13.43,1-12.58-.64-.84,0-2.37,0-2.29.54-1,.14-2.31-.1-3.18.22-1.62.6-5.46.12-8.07,0C202.64,9.18,200.87,9,199,9l-2.36.06c0,.24-.24.37-.84.38-1.74.05-6.23-.84-4.93.73-2.42.06-.74-.47-1.69-.73a16.18,16.18,0,0,0-4.4-.54c-1.23.09-1.45,1.29-2.9.77s-1.83-1.46-3.31-2c-2.88-1.06-1.56,1.42-3.3,1.46-.54,0-8.28.21-7.18-.3-1.8,0-3.72.18-5.52.1-2.65-.11-1-1.86-4.24-1.78.26.6,3.16,1.28.62,1.41a46.91,46.91,0,0,1-5.43.1c-1.5-.11-.46-.41-2.29-.37-2.09.06-6.2.85-7-.4-.35-.58-1.28-1-1.5-1.63,0,0,.72-1,0-.84-.06,0-1.5.51-1.82.1-.12-.15,1-.58-.48-.54-.3,0-.32.36-.27.72a4.42,4.42,0,0,0,.18.72c.11.71,1.88,1.75,1.05,2.44-.52.42.2.61,0,1s-2.73-.55-2.9-.57c-1.61-.2-.54.41-1.34.48-1,.09-4.29-1.55-3.8-1.78-1.08.5-2.91,3.3-3.28.87a23.71,23.71,0,0,0-6.35-.74c-1.24.11-6.48,1.52-6.75.46-.12-.44.74-.62-.14-.83-2.94.07-1.11.51-2.3,1.06C114.15,9,111.16,7,111,6.9c1.86,1.29-6.94,3.13-9.53,2.62-.77-.16-1-.49-1.73-.68-1.07-.28-2.93.36-4.17.37a4.88,4.88,0,0,1-2.46-.62A15.38,15.38,0,0,0,89,8.42a68.79,68.79,0,0,1-8.85,0c-1.22-.14-1.23-.65-2.47-.68-1.76,0-2.85.67-4.63.85-3,.29-7.34-.83-9.77-.29-1.24.27-5.19,1.87-5.62.43-.11.49-.86,1-2.2,1,.32-1.2-3.22-1.14-5.15-2,.41.29.74.62.4.81-1,.53-2.77-.72-3.28-.86a8.87,8.87,0,0,0-3.77,0c-1.24.29-1.2,1.49-1.68,1.56s-4.34-1.48-3.17.24c-.32-1.42-5.11-1-7.45-1.25-2.68-.25-1.24-1.09-2.53-1.55,0,0-.28.5-.61,1a3.92,3.92,0,0,1-.81,1.06c.62-.15-4.31-2.06-4.8-1,.12-.26.67,2.61-.63,1.64a2.7,2.7,0,0,1-1.35-2.22,4.88,4.88,0,0,1-3.89,1.85c-1.33-.07-2.44-1-3.09-.95-1,0-1.37,1.17-2.15,1.29.24-.28-1-.17-2.07,0,.14,1.2.3,2.26.26,2.39-.24.86-.82,1.08-1.45.86s-1.31-1-1.74-1c.21,0,.43,1.73.49,2,.34,1.17.64.91,1.1.91.79,0,.51,3.91.33,4.85a5,5,0,0,1-1,2c-.59,1,.76,1.44.92,1.88.78,2.12-.2,3.24,1.49,3-1.08.17-.42,3.16-.81,4.53-.11.36-.71.82-.8.12-.21-1.59-1,.13-1-1.16a30.86,30.86,0,0,1,0,3.45c-.07,0-.87-3.42-1.26-2.33s1.16,3.5,1.36,3.74c.88,1,1.38-.17,2,2.42C9.45,41,7.91,44,8.48,47.74c.18,1.16,1.18,3.66,1,5-.08.58-1.2-.35-1.52.37A1.24,1.24,0,0,0,8.84,55c1.94,2-.68,1.68-.66,2.62a1,1,0,0,0,1.23.85c-.81,2.26.24,5.79.15,8.44C9.5,68.74,8.3,74.79,9.82,75c-1.05.69.29,7.25.24,9-.05,1.61-.19,4.4-.83,5.32,0,1.26-.41,2.46.09,3.55,0,.88.24,3.52-.39,3.62-.16,2,.27,3.82-.15,5.82,0,0-.16.44-.31.86s-.31.82-.32.72c0,1.43.49,1.78.57,3.45.11,2.65.85,5.16.87,7.89,0,1.86-1.39-1.34-1.65-1.3s.65,3,.62,2.91a10.28,10.28,0,0,1,.94,3c.08.71-.42,1.71-.39,2.78.67-.1,1,4.61.12,4.74-.65,1.07-1.89-.42-2.55,1.43.16-.46,1.49.05,1.63.9a13.53,13.53,0,0,0,.21,2.17c.26.71.88.65,1.2,1.45a9.51,9.51,0,0,1-.19,5.88c-.69,4,.78,2.38.86,5.36,0-1.08-1.71-.84-1.64,1.88,0,1.35-.13,9.53.72,9.4.5,1.09-.24,4.78-.84,4.88,0,0-1.6-4.35-1.6-1.63,0,1.82,2.26,2.75,2.72,3.23a1.55,1.55,0,0,1,0,2.31,4.69,4.69,0,0,1-.82.72c-.25.17-.44.28-.44.28,0,.43.92,1.15,1.09,1.75.21.76-.52,2.2-.65,2.61-.69,2.05.33,2,.88,3.09,1,2.05-.24,1.56-.64,1.84s-.28,5.3.76,4.6c-1.57.6-1.14,8.73-1.39,11.69a23.16,23.16,0,0,0-.35,3.66c.41,1.47,1.79,1,1.86,3.63-.72.5-3.46-3.45-3.36.52,1.19-.32,2.33.56,3.42,1.7-.17-.18-1.19.69-1.17,1.52,0,.54,1.24,2.05,1.44,3,.35,1.62-1,3.67-1,5.86,0,2.68.77,2.54,1.07,4.81a10.78,10.78,0,0,1-.18,4.26c-.28.77-1.68.94-1.73,1.51-.12,1.66,1.49,4.4.88,6.44A10.66,10.66,0,0,1,6.76,231c.45,1,1.15.34,1.66,2.16.39,1.39.55,6.64,1.14,6.91,2.43,1.1-.09,2.44-1.26,2.61,0,1.57.3.91.79,1.1s.27,2.71.3,3.37c.09,2.07.55,3.31.61,5.36.25,1.23.15,1.95-.29,2.18-.33,1.16.19,2.07.13,2.84-.08,1.07-1.4,0-1.41-.17.08,3.14,2.1,2.24,1.37,6.47-.28,1.62-.77,2.8-1.41,1.4-.28-.91-1.28-2.78-1-.12a23.91,23.91,0,0,0,1.24,4.46,33,33,0,0,1,1,6.81c0,.63.24,4.1.43,7.42.11,1.66.22,3.28.3,4.49.05.61.09,1.11.12,1.46a2.63,2.63,0,0,0,.07.56c-.71-.24-2-1-2.75,1,.22-.61,1.72,2.06,1.92,2.42.75,1.36,1.08,2,.66,3.66s.36,5.07-.24,6.55c-.21.52-1,.05-1,1.11,0,1.49,1.22,1.67,1.57,2.43-.1-.2-.91.59-1,1.18.17.11.28.39.31.83a5.37,5.37,0,0,1-.65,2.28A5.88,5.88,0,0,1,8.05,314c.59.31.95,1.88,1.1,3.39A5.62,5.62,0,0,1,9,320a.93.93,0,0,1-.4.48c-.16.13-.35.26-.56.44a2.75,2.75,0,0,0,.56,1.35c.37.53.81.75,1.05.61.7-.41,1-.56,1.06-.49s.08.15-.17.48a5.59,5.59,0,0,1-1.41,1.24l-.57.43c-.52.32-.8.35-.92.92a4.17,4.17,0,0,0,1.28.06,2.62,2.62,0,0,0,.94-.86,3.39,3.39,0,0,1,1.06-.94c.32-.15.36.1.45.39s.18.61.44.6a1.92,1.92,0,0,0,.1-.26c.06-.16.16-.37.27-.59a2.89,2.89,0,0,1,.43-.59.86.86,0,0,1,.26-.21,3.73,3.73,0,0,1,.73-.09c1.56-.36,3.54-.63,2.44.42s2,.71,3,.28c2.28-1,.49-.51,2.91.35-1.18-.42.75-1,2.47-.36a24.19,24.19,0,0,0,3.4.39c.48,0,.45-.42,1.38-.49,2.08-.16,4,.17,5.21-.55,1.56-.94,3.28.74,3.17,1.28-.31-2,6.26-.44,4.93.18,2.84-1.31,0-1.24,3.25-.09-1.17-.42,2.76-1,3.22-1.22.81-.37-.25-.6,1.39-.64,1.33.23,3.66.64,3.77,1.35.07.43.19.48,1.26.45,1.47-.08.87-.66,1.23-1.06s6,1.88,4.54,0c1.4,0,1.44.56,1.14,1.07a4.59,4.59,0,0,1,3.74-.23c.18,1.16,1.37.66,2-.05.8-.87-.28-1.45,3-.68,1.73.41,2.13.81,2.24,1.57-.25-1.64,3.56-.67,5.69-1.65.9-.87,5-.92,6.89-.84a6.5,6.5,0,0,1,2.42.41c1,.64,2,.12,3.58.11.91,0,2.36.41,2.71.41,2.15-.06.22-1.21,1-1.23.3,0,1.67.89,2.38,1,1.82.27,2.67-.12,4.31-.27,2.75-.26.73,1.51,2.55,1.65,4.64.34,2.5-.93,4.11-1.86.9-.52,7.49-.46,8.73-.16,1.45.36,2.26,1,4,.18,1.35-.62,2-.24,1.26.45,1.6.64,5.68,1,4.3-.35-.71-.68,6.51-.43,7.49-.38,2.73.13-.08,1.41.68,1.68.27.1,5.72-1.27,7.25-1.16,1.92.12,1.32.62,2,1.16,1.11.87,2.73-1.33,2.12-1.31,1,0,1.31,1.41,2.88,1.37s-.57-1.67,1.67-1.73c.05.58-.47,1.46,1.4,1.41,1.41-.28.36-1.7,1.81-1.73,1.66-.05,3.43.91,5.06,1.13a33.89,33.89,0,0,0,6,.31c.77,0,2.51-.12,2.44-.58-.16-1,2.21-.06,3.55-.09-.06-.37,2.51.4,3.25.39,2.66,0,4.42-.39,5.27.7.29.36,2.36.18,2.5,1s4.34,1.21,4.24.55c0-.1-5.33-1.91-.77-1.12.93-.32.87-.95,2-1,3.58-.17,2.24.35,2.44-1,.11-.73,2.08-.63,2.62-.09,1.16,1.17.17,3,.37,4.33,5-.13-.52-4.46,3.63-4.41,1.61,0,11.33,1.21,12.23.09-.15,1.69,4.52-.39,6.8-.26s8,2.21,9.67,1.52c3.55-1.42,4-.32,4.2,1.17,2.31.82,2.06-2,2-2.46,1.34.93,3.63,3,7.17,2.17,1.31-.31-1.61-.83-1.68-1.23-.1-.66,3.15.22,3.4-.35.15-.31-1.49-.73.39-.82a12.16,12.16,0,0,1,3.84.4c1.12.31,1.3.89,1.38,1.39s1.93,1.43,1.78.42c-.05-.31-2.18-2.83.67-2.55,1,.11,2.31.36,3.24.54,2.83-.07,2.47,1.35,2.9,2.05.95,1.59,2-.65,3.28-.75s3.59.42,3.43-.58c-.23-1.54,1.88-.09,2.63.21,1.23.49,3.72,0,4.87-.19,1.77-.29,1.33.24,2.19.21,1.74,0,2.72-.62,4.65-.39.84.1,4.21.88,5.11.47.42-.19-1.31-.65.71-.81.95-.07,5.84-.38,5.95.32.08.54,6.83-.28,8.35.27.66.35,3,1.46,4.37.95,1.19-.44-.16-1.27,1.77-1.59,1.34-.22,8.35,2.17,8.06.28a13.16,13.16,0,0,1,3.39.94c1.69.69,1-.21,1.58-.39s3.61,3.78,3.76,4.08c.26.49,1.77,4.11-.37,3.35-.75,0-6.48-1.9-6.67-1.6s1.09.41.6.79a2.84,2.84,0,0,0-1.94.68c-.54.54-.49,1.79,1.59,1.73-6.12.16-12.32-.1-18.46-.11-4.86,0-9.75,0-14.61-.05-1,0-2.9-.38-3.49-.35-1.67.1-5.18,1.34-6.53.4-.92-.64,2.1-2.25,1.4-2.5.09,0-4.34.44-4.25.41-1.26.46-1,1.16-.91,1.77-.15-.94-1.94-.69-2.79-.38-1.27.47-1.44-.11-2.12.6s-2.45.31-3.37.09c-1.09-.27-2.17-.88-3.65-.63-1.11.18-1.72.8-3.13.5-1.23-.25-3.27-1.36-5-.63-1.07.45-.75.71-2.88.58-1.87-.1-4.7-.44-5.73-1.15-2.42-1.7-1.56.72-3.52,1.1a9.08,9.08,0,0,1-3.21-.12c-.74-.14-3.75-1.44-3.88-1.44.21,0-2.42,2.91-4.69,1.33-1.44-.2-2.46-.33-4-.47-1.26-.11-4.15-1.49-4.44-1.49.63,0-.91,1.61-1.11,1.72a6.14,6.14,0,0,1-3.44.57c-.15-1-6.28-.42-5.86.51.53-1.47-11.8-.55-13.73-.5-2.5.07-2.83-.89-5.47-.82-.69-.12-2-.46-2.66-.11-.44.23-1.14,1.41-1.74,1.42-.12,0-.2-1.44-1.8-1-.29.09-2.81,1.07-3.11.68-1.22-1.55-4,.12-6.78-.08-1.56-.11-1-.41-1.92-.73s-3.77.38-4.88.39A17,17,0,0,1,155,331c-1.34-.42-.94,0-1.88.27-3.56,1-11,1-14.87.38-3.44-.52-1.23.73-4.17.72-2.07,0-3.47-.63-4-1.37,0,.51-.21,1-1.41,1.1-1.46.12-2.8-.4-4.49-.35s-1.14-1.09-1.61-1.47c-.64-.5-3.12,1.39-4.42,1.54-1.83.22-6.65.58-7.09-.44,0,1.13-6,.88-7.66.79a21.23,21.23,0,0,1-5.39-.72c-2.78-1-2.56.91-4.31.95a22.65,22.65,0,0,1-3.91-.58c-1.35-.17-.63.33-1.76.36-2.29.06-1.49-.42-2.82-1-2.34-1.05-4.53-2.35-6.8-3.56a8.37,8.37,0,0,1,1.65,3c.41,2.84-1.42.1-4.27.18,0,0,.47.31.87.64s.69.68.3.76c-1.78.34-5.25-1.06-7.49-1a10.4,10.4,0,0,1-3.79.37c-.66-.11-2.62-1.37-3.19-.74-.35.39-.12,1.27-1.79,1.31-1.33,0-2.12-.71-2-1.15.12.76-5.8.9-5.91.15,1.36,1.92-10.84.76-13.42.82-1.15,0-4.5.29-5.38-.19-.33-.18-.67-.86-1.43-.84a1,1,0,0,0-1,1.24c-.47-.81-3.1-2.81-4.59-2.12-.47.22,2.62,1.68-.17,1.75-2.07.95-2.88-.89-4.88-.84.9,2.53-3.67,0-3.77-1.35-2.09.05-.09,1.95-1.72,2.33a11.13,11.13,0,0,1-1.86.24c-.35,0-.72,0-1.09,0H12c-2.84,0-5.58-.21-7.23-.4a5.56,5.56,0,0,1-2.33-1.09c.5-1.75.92-3.16.61-3.76s-.6,0-.94.52-.69,1.08-.85.55c0-1.75-.06-3.54-.09-5.33,0-.87,0-1.73,0-2.59,0-.5,0-1,0-1.48A7.27,7.27,0,0,1,2,315.25c.58-1.51-.68-1.44-1-1.95-1.26-2.08,1.52-3.17,1.52-3.5a6.57,6.57,0,0,0-.78-1.95c-.71-1.55-.54-3.14-.34-5.07s-.33-1.32-.33-2.87a32.3,32.3,0,0,1,.61-5.31c.12-.79-.86-2.69-.86-4.61,0-.9.11-1,.44-1.07.09-1.41-.08-3.15-.11-4.59,0-1.85-.11-.73.48-2.28s-.71-1.12-.92-1.71C-.66,276.57,3,277,3.44,276.56c.67-.67-2.23-.79-2.29-.91-.4-.78-.68-5.6.19-5.26.18.07,3,.62,2.58-.8-.46-1.6-3.35-1.16-3.34-3.82,0-1,.6.17.56-1.33s-.28-2.78.41-2.88c-.1-1.51-.65-2.09-.89-3.39-.2-1.09.75-2.09.71-3.71-1.13.17,1.19-5.86,1.12-6-.47-1-1-.74-1.05-3a9.64,9.64,0,0,1,.32-2.87c.06-.18,1.21-2.41,1-2.54-.68-.44-1.54.81-1.36-2.39.16-2.6,1.44-4.09-.13-5.74-.69.11.6-2.05-.09-3.54-.47.07-.69-3.65-.74-4.32a16.62,16.62,0,0,1,.22-5.39c.56-2.09.06-6.3.09-8.63,0-3,.09-6.53.29-9.52,0-.57,1.09-5,1.44-4.26-.47-1-2,1.53-2.28.49l.05-.23c0-.15.09-.36.16-.61l.47-1.8a19.11,19.11,0,0,1,.81-2.63,5.93,5.93,0,0,0-1.11-3.1c-.84-1.71.4-2.53.43-4,.09-3.36.47-3.79,1.85-3.8-2.19.49-2-2.35-2.11-7.26-.1-4.39,0-5.58,1.78-5.76a6.46,6.46,0,0,0-1.61-1.14c-.68-.42-.33-1.59.08-2.18,0,.66.06-3.28-.26-2.38.19-.52,1.36-1.87,1.34-2.39,0-.36-1.43.54-1.48-1.41,0-2.28.79-3.21,1.29-4.61C1.36,155,1.08,150.08,1,150c-.55-.25-.36-.67-.4-2.36.24-.55,1.17.23,1.15.27-.12.34-.76-9.1-.7-10.41.05-1.06.84-3.12.18-3C.21,132.33.5,130,.71,127c0-.37.13-4.11.55-3.55s2.51-.46,1.93-1.74-2,0-2.47-2.15,1.24-3.33,1.2-4.93c0,.09-.94,1.43-1.13.62a24.21,24.21,0,0,1,0-6.42c.42-1.83.38-1.45,0-3.78a20.12,20.12,0,0,1-.06-5.85c.31-1.85.77-1.59.17-3.28a10.91,10.91,0,0,1,0-5.08C1.1,90.17,2,89,1.79,88,1.5,86.19.56,85.68.41,83.57c.83-.13.29-1.29.1-2.34-.22-1.22.52-1.57.9-2.15-.72.87-1.54-6-1.35-7.39,0-.18,3-6,1.67-6.62-.4-.18-1.17,2-1.07-.86,0-1.62,1.33-4,1.31-4.48C2,59.84.76,59.5.71,57.4s.52-.5.64-.85a12.27,12.27,0,0,1-.11-2.8c.15-1,1.23-2.11.9-3.17-.57-1.87-2.82-4.92-1.59-8C.81,42,2,42,2,41c0-1.7-1.29-1.35-1.64-2.49-1-3.19.43-5.2,1.15-7.13a8.09,8.09,0,0,0,.57-3.55c-.19-1.32-.9.36-1.28-.23-1.31-2.06.43-5,.44-7.12-.62.09-.53-1.84-.55-2.74,0-1.37-.54-2-.48-3.69,0-.25,0-.48,0-.7l0-.31V12.9l0-.26c.05-.75.11-1.4.19-2A18.67,18.67,0,0,1,1,8,21.18,21.18,0,0,0,2,3.23c.06-.73-.12-.73-.31-.55s-.39.55-.36.43C.8,2.79.58,2.14.38.4.87.32,1.53.25,2.35.17c5.32-.54,2.86,1,4,1.6,2.19,0,1.62-.65,1.37-1C9.33.8,10.59.9,11.84,1l.95.06.58.06a12.34,12.34,0,0,0,1.25,0c.55,0,.72-.5,1.52-.64a14.32,14.32,0,0,1,4.62,0c.71.13,3.71.9,3.6.18,0,.08.38,1.32,1.18,1,1.15-.53-.2-1.77,3.15-1.65a3.74,3.74,0,0,1,1.76.46,15.38,15.38,0,0,0,4.1.17c3-.06,6.58-.63,9.31.15,1.24.36.4,1.6,1.9,1.29a59,59,0,0,1,6-.91C51.63.45,58.08.42,59.3.57S60,2.78,61.68,1.94c.6-.29,1.11-1.29,2.3-1.32s.46.93,2,.89A25.56,25.56,0,0,1,68.87.9C71,.72,73.21.6,75.4.51S79.79.37,82,.43c1.64,0,2.75.39,4.3.35.92,0,2.12-.13,3-.06.77.06.3.86.92,1.08C91.08,2.1,94.63.69,96,.56a41.47,41.47,0,0,1,6.78,0,7.32,7.32,0,0,1,2.32.43c.41.22-.67,1.05-.1,1,1.35,0,1.74-1.41,3.47-1.59s1.3.57,2.25.86a14.61,14.61,0,0,0,5.41.34c2.31-.26,3-1.43,5.72-.68,1.37.38,3.56,1.32,5.23.55,1.5-.69-.79-.74,2.36-.82,1.54,0,3-.06,4.51,0C136.48.77,148.08.37,148.08,2c-.91-1.71,7.48-1,9.41-.6.11.72,2.3.91,3.69.87,2.06,0,1.81-.74,3.11-1A15.14,15.14,0,0,1,169.1.66a1.84,1.84,0,0,1,1.4.39c.93.07,1.85-.15,2.78,0A63.25,63.25,0,0,0,180,2.27c1.53.09,3.42-.33,2.4-1,2.91-.07,5.84-.21,8.76-.15,2.3,0,4.59.19,6.89.22,1.42,0,2.83-.09,4.25,0,.58,0,1.48.38,1.71.38l14.18-.36a18.69,18.69,0,0,1,4.35.16c2.5.46,4.62-.34,7,0a26.45,26.45,0,0,0,5.21.42l9,.08c3.72,0,8.12-.2,11.76.21,1.37.16,1.35.68,3.21.34.59-.11,3.56-1.6,4.36-1.07,1.68,1.13,1.58-.14,3.6-.08,2.42.06.72,2.1,3.92,2,.27-.69-1.58-1.33.57-1.44,1.75-.09,7.95-.63,7.62.63-.29-.76,2.14-1.45,3.85-1,.92.21.58.61,1.47.85a11.32,11.32,0,0,0,4.34-.06,13.1,13.1,0,0,0,3.22-.91c1.45,0,2.06.43,2.85.41,1.32,0,7.82-.57,7.95.28,2.71-1.44,3.34-.47,6,.33-.06-.41,3.6-.67,7.48-.77l2.9,0,3.63,0a48.88,48.88,0,0,1,5.57.26,16.93,16.93,0,0,0,3.08.14c0,1.84.14,3.9.15,5.16a16.85,16.85,0,0,1-.41,3.81,12.74,12.74,0,0,0-.19,1.83,7,7,0,0,0,.14,1.73c.32,1.72.63,1.71.69,3.75,0,1.35-.38.61-.42,2-.07,2.8-.45,2.74-1.16,4.73.09-.26,1,.58,1.05,1.18s-1.1,2.35-1.28,3.05c-.27,1,.51.63.65.61.58.6.92,2.34,1.12,3.68.42,2.76-.43,1.85-.41,4.65,0,2.38-.48,4.45-.26,6.41.9,8.2.55,18,.6,26.47,0,6.31-.09,13-.23,19.38-.16,7.16-.36,14.28-.66,21.34-.57,1.57.05,2.16.1,4.14s0,3.88.62,5.25c1-.15-.21,1.47-.24,1.63-.42,1.85,0,4.84-.05,6.86,0,.85-.11,1.07-.43,1.12-.77.12-.83.6-1.09,2.23-.5,3.23,1.78.12,1.94.46s-.62,4.52-.64,5.37c0,1.24.54,1,.38,2.54-.06.48-1,3.39-.5,3.94.27.28,1.54-1.79,1,1.25a18.75,18.75,0,0,0-.51,4.46c0,6.11.34,12.15.07,18.26-.07,1.46-.4,2.39-.48,3.78a35.33,35.33,0,0,0,.29,5.1c.33,4.18.45,8.64.36,12.89s.24,9-.33,12.88c-.25,1.72-.58,1.64-.27,3.82a68,68,0,0,1,.45,6.92c.14,3.71-.13,7.35-.13,11.08,0,4.27.68,11.86-.62,15.49-.55,1.53-1,2.54.06,2.37.92-.14.1,3.58.6,4.66.69,1.51-.19,4.41-.33,6,.05,2.09-.21,3.15-.24,5.23-.09,6.37.23,12.8.37,19.15.05,2.38.52,8-.22,10.08-.49,2.84-.31,1.8.32,1.9.32,0-.12,4.91-.14,5.19.06,2.43-.36,4.79-.3,7.18,0,.84.1,2.36-.42,2.44a12.24,12.24,0,0,0,.42,3.28c.65,4.25-.11,8.93,0,13.28C330.58,323.16,330.6,329.05,329.8,325.65ZM1.55,78.79a.87.87,0,0,1-.14.29A1,1,0,0,0,1.55,78.79Z"/><path class="cls-1" d="M209.37,322.3a.3.3,0,0,0,.06-.3A1.22,1.22,0,0,0,209.37,322.3Z"/><path class="cls-1" d="M31.6,332.18a.87.87,0,0,0,.08.23A.35.35,0,0,0,31.6,332.18Z"/><path class="cls-1" d="M10.19,74.94a.39.39,0,0,0-.37,0A.84.84,0,0,0,10.19,74.94Z"/><path class="cls-1" d="M323.8,324.28c1.08-.19,1.48-.95-.15-1S322,324.32,323.8,324.28Z"/><path class="cls-1" d="M323.43,329.59c.86,0,1.55-.74.73-.72-.3,0-3.38.45-2.66.7A11.29,11.29,0,0,0,323.43,329.59Z"/><path class="cls-1" d="M324.24,327.16c-.43.83,1.38.9,2.44.42l-.25-1.64C326.56,326.77,326.51,327.1,324.24,327.16Z"/></g></g></svg>