<svg xmlns="http://www.w3.org/2000/svg" viewBox="0 0 164.17 163.76"><defs><style>.cls-1{fill:#010101;}</style></defs><g id="Layer_2" data-name="Layer 2"><g id="content"><path class="cls-1" d="M113.51,2.83c-.18.19-1,1.08.15,1C114.34,3.82,114.58,2.81,113.51,2.83Z"/><path class="cls-1" d="M75.59,3.6c-.62,0,1.23.8,1.62.61S76,3.61,75.59,3.6Z"/><path class="cls-1" d="M45.86,4.4c.91.06,1.14-.19,1.09-.53h-.58C46.09,4,45.83,4.21,45.86,4.4Z"/><path class="cls-1" d="M163.2,6.49c0,.58.23-.62,0,0Z"/><path class="cls-1" d="M160.62,1c-1.2.29.17,1-.86,1.49.44-.21-1.19-.57-1.74-.44-1.55.36-.07.54,0,.84-1.65-.15-.7.4-.83.7-.2.46-2.15-.47-1.68.29s1.39,1.16,0,1.83-3.82-.34-1.28-.13c1.41.12,0-1.22.42-1.2,0,0,1.49.31.84-.13a4.51,4.51,0,0,0-2.33-.48c-.82,0-2.25.34-3,.06-.43-.16-.13-.6-1-.58s-.89.68-1.61.58c-1.23-.16-.77-.49-2.34-.1a6.24,6.24,0,0,1-2.73-.15c-.76-.21-.66-.76-1.49-.74l.1.75c-.61,0-2.12-1.47-2.42-.75-.18.4-.87.32-1.67.36-1,0-1.67.47-2.24,0-.23-.17.13-.55-.45-.6-.88-.07-1,.47-1.21.69-.46.39-3.47-1-2.33.06,0,0-2-.15-2,.27-.76,0-2.47-.85-2.37-.19a1.05,1.05,0,0,1-.64-.32c-.16.52-1.44,1-2.56.57-.49-.19-.08-.91-1-.89s-.47.44-.54.63c-.23.63-2.51.55-2.89,0-.2-.27-.56,0-.64-.48l-.12-.83c-1.57,0-.93,1-1.33,1.41a.72.72,0,0,1-.78.15c-1,0,0-.52,0-.69-.14-.44-1.76-.62-2.61-.55-.4,0-.84.33-1.19.26s-.53-.39-.94-.47c.33.07-.33,1.46-.46,1.67.07-.12-.5-.31-.8-.22-1.1.32-.66.55-2.32.33a14.44,14.44,0,0,0-2.77-.17c.89-.77-2.27,0-1.17-1.07.36-.37,1-.33.9-.79.08-.23-.07-.51-.11-.75a6.23,6.23,0,0,1-1.68,1.36,1.89,1.89,0,0,0-1,.78c-.18.42-2,0-1.64.67,0-.21-.29-.38-.8-.41-.72,0-.47.2-.94.34-.77.24-.84-.93-.38-.94-.43,0-1,.47-1.4.56a7.53,7.53,0,0,1-2.8,0c-1.11-.19.36-.92.83-1.11-.67,0-1.16.05-1.12.38-.12-.88-3-1.36-1.76-.06,2,.77-1.63,1.92-2.77,1.08,2.45.16.1-1,1.61-1.05-.07-.66-1.53-.65-1.79-.06,0,.13-1.25-.13-1.57-.09s.06.76-.12.93a2.58,2.58,0,0,1-2.3.23c-.89-.2,1.47-.44,1.44-.61a16.68,16.68,0,0,0-2.18.06c-.7.1-.08.53-.53.59-.3,0-1.62-.27-1.55.19-1-.29-1.08-.92-1.79-.21-.48.5-.88.37-1.75,0-2.53-.94-4.26-1.26-6.68-.08,1-.5-2.2-.67-2.13-.18-.91.91-2.86-.18-.62-.24a1.35,1.35,0,0,0-1.82-.45c-.64,0-.54.34-.51.51.57,0,1.76.38.93.57-1.39.33-2-.29-3-.26a6.9,6.9,0,0,1-3.21-.41,2.27,2.27,0,0,1-2,.17,4.67,4.67,0,0,0-1.13-.33c-.7,0-.56.22-1.09.35-1.23.31-.76-.5-1.3-.54-1-.08-1.59-.11-1.67-.62A1.73,1.73,0,0,1,54,3.68c-.08-.52-.12-1.71-1.9-.94a8.5,8.5,0,0,1-2,.89c-.8.13-.46-1-1.38-.06,0,.17-2.31-.73-2.77-.58a7.17,7.17,0,0,0-2.4,1.22c-.1-.11-.88-1.11-1-1.1s-.33.7-.72.55c-.56-.21-.12-.77-1-1.05a8,8,0,0,0-3,.23c-1.68.41,2.6-.07,2.12.33a6.39,6.39,0,0,1-2.11,1c-1,.29-1.34-.08-1.94,0a5.1,5.1,0,0,1-2,.28c-.8-.09-1.47-.28-2.3-.36a6.92,6.92,0,0,0-1.51,0,5.22,5.22,0,0,0-.67.28s-.14-1.51-.17-1.71a2.25,2.25,0,0,0-.75-1.12c.1.68.83,2.73-1.39,2.88A15.7,15.7,0,0,1,21.82,4c-1.12-.42-.82.27-1.51.2s-1.25-.87-2.18-.39c-.34.18-1.43,1.2-1.56.33-.94-.36-1.16.13-2.16.05q-.3-.08-.21-.24a4.39,4.39,0,0,0-1.57.21c-.61.18-1-.3-1.89.13.07.48-1.74-.13-2.14-.16a9.08,9.08,0,0,0-1.69.09l-.2,0-.1,0-.19.06A2.5,2.5,0,0,1,6,4.43a3.49,3.49,0,0,1-1-.1c-.14.36-.43.79-.9.7a1.75,1.75,0,0,1,.77.47c.2.27.32.26.27,1.21s-.27,1.63-.4,2.47.47.86.52,1.32c0,.15-.94,0-1.09.25-.31.46.91,1.13.91,1.38,0,.08-.74.12-.73.76,0,.34.56.78.64,1.44.15,1.35.25,3.4-.36,4.15-1.08,1.32-.79.61,0,1.9.59.95-.72,2.48-.46,2.93,0,.08,1.91-1.35.9.85-.42.9-.81.69-.12,1.59.52.67-1,2.64-1.14,2.87C4,28.37,5.16,30.05,5,31.33c0-.19-.41-.35-.5-.32,0,1.41.8,1.78.87,3.49,0,.42,0,1.07-.24,1.1-.49.08,0,1.24-.29,1.45-.11.09-.49-.55-.58.22-.07.6.44,1.33.54,1.83.25,1.22-.53.65-.81.77,0,1.23.4.82.71,1.47.19.4-.31.87,0,1.64.15.34.46,2,0,2.13-.07,0-1.21.53-1,.86s.49-.31.64-.29c.33,0,.28.75.3,1.33s.19.18.21.77c0,.78-.15,1.38-.13,2.21,0,1,.53,6.62-.34,6.2,0,.41,0,1.17.29,1.13a7.91,7.91,0,0,0,.11,1.56c.31.8.06,2.69,0,4,0,.88-.16,1.75-.14,2.65l0,1.17c.12,0,.19.12.19.41,0,.86-.43,3.07.38,2.43,0,1.19-.24.37-.37.83a7.34,7.34,0,0,0-.29,2.17c0,.61.68.71.41,1.43s-.77.9-1,1.63c-.56,1.42.73.77.76,1.63,0,.26.11,4.08-.16,3.53,0,.89.09,1.84,0,2.72,0,1.31-1,.51-.92,2.09.31-.13.66-1.55.73-.3a19.84,19.84,0,0,1,0,2.67c-.06.74-.21.23-.19,1.13s.44,3.06-.21,3.43c-.3.17-.52.63-.85.74,0,0-.5-.36-.43,0,0,0,.26.74.05.89s-.3-.48-.28.24c0,.3.74,0,.74,0,.37,0,.92-.92,1.28-.51.22.25.31-.1.5,0s-.28,1.34-.3,1.43c-.1.79.22.26.26.66s-.81,2.11-.93,1.87c.26.53,1.72,1.43.45,1.62a11.1,11.1,0,0,0-.39,3.13c.06.6.79,3.19.25,3.32-.23.06-.33-.37-.44.07,0,1.45.27.54.55,1.13.11.22-.9,1.69-1,1.78.68-.91,1.63,3.42,1.36,4.7-.08.38-.25.48-.35.85a10.82,10.82,0,0,0,.19,2.06,2.21,2.21,0,0,1-.32,1.21,7.06,7.06,0,0,0-.09,2,31.73,31.73,0,0,1,0,4.36c-.07.6-.33.6-.35,1.22a17.26,17.26,0,0,0,.44,2.28c.15,1.48-.43,3.61-.15,4.81.14.61,1,2.56.22,2.77.26,0,.51.42.53,1.08-.63-.15-.6,1.59-1,2.54.15-.2.32-.36.42-.2.28.48-.37,1.37-.45,1.62a4.17,4.17,0,0,0,0,1.86c.14.6.77.59.8.82S4.08,145,5,144.47c-.74.16-.54,2.51-.65,3.66-.13,1.33-.57.62-.81,1.25a6.54,6.54,0,0,1,1.08.7c-.08-.3-1.07,2.13-.52,2.36-.13-.05,1.36-.32.85.32a1.4,1.4,0,0,1-1.15.66,2.38,2.38,0,0,1,1,1.92c0,.65-.5,1.2-.49,1.52s.61.59.67,1c-.14-.11-.09.49,0,1,.6-.06,1.12-.15,1.18-.13a.53.53,0,0,1,.39.76c-.11.32-.51.68-.55.9,0-.11.86-.22,1-.25.58-.18.45-.34.45-.58,0-.41,1.93-.26,2.39-.17a2.45,2.45,0,0,1,1,.5c.51.31.71-.4.92-.48,1.05-.41,1.6.1,1.47-.78.08.57,1.56.22,2.23.43.18,0,.41.37.06.41-.78.11.06.51-.57.53a16.57,16.57,0,0,1,1.7,0s-1.69.46-1.15.66,1.73-.6,1.85-.71c.5-.45-.09-.71,1.19-1,1.93,0,3.42.75,5.26.45a10.92,10.92,0,0,1,2.44-.52c.29,0-.17.62.18.79a.61.61,0,0,0,.93-.46c1-1,.83.36,1.3.35s.49-.51.42-.64c1.11.42,2.85-.13,4.15-.08.92,0,3.91.66,4-.14.35.55,3.58-.15,4.45-.12a6.5,6.5,0,0,1,2.62.43c.63,0,1.22.21,1.75,0,.44,0,1.74-.12,1.79.21a19.52,19.52,0,0,1,2.86.08,5.64,5.64,0,0,1,.78.32c.71,0,.88-.25,1.7-.29,1.31-.06,2.54-.45,3.89-.46.92,0-.66.73-.64.86s1.48-.34,1.43-.32a5,5,0,0,1,1.46-.49c.36,0,.85.22,1.38.2-.05-.35,2.27-.49,2.33-.06.53.34-.21,1,.71,1.33-.23-.09,0-.78.44-.85a6.16,6.16,0,0,0,1.07-.11c.35-.14.32-.46.71-.62a4.43,4.43,0,0,1,2.9.1c2,.35,1.17-.41,2.64-.45-.53,0-.42.89.93.85.66,0,4.69.07,4.63-.37.53-.27,2.35.12,2.4.43,0,0-2.14.83-.8.84.89,0,1.35-1.18,1.59-1.42a.74.74,0,0,1,1.14,0,2.8,2.8,0,0,1,.49.65c.21,0,.57-.48.87-.56s1.07.27,1.28.34c1,.36,1-.17,1.52-.46,1-.53.77.12.91.33s2.61.15,2.26-.39c.3.81,4.3.59,5.76.72a10.34,10.34,0,0,0,1.81.18c.72-.21.51-.93,1.79-1,.24.38-1.71,1.8.25,1.75-.16-.62.28-1.21.84-1.78-.09.09.34.62.75.61.26,0,1-.64,1.47-.75.79-.18,1.8.52,2.88.54,1.32,0,1.25-.4,2.37-.56a5.06,5.06,0,0,1,2.1.1c.38.14.47.87.74.89.82.07,2.17-.77,3.18-.45a5.17,5.17,0,0,1,1.44,1.38c.49-.24.17-.6,1.07-.87.69-.2,3.27-.28,3.4-.59.55-1.26,1.21.05,1.29.65.77,0,.45-.15.54-.41s1.34-.13,1.66-.15c1-.05,1.63-.29,2.65-.32.6-.13,1-.08,1.07.15.57.17,1-.1,1.4-.07s0,.73-.09.74c1.55-.05,1.1-1.1,3.19-.72.8.15,1.38.4.69.74-.45.14-1.37.66-.06.51a11.42,11.42,0,0,0,2.2-.65,15.69,15.69,0,0,1,3.36-.5l3.65-.23,2.21-.15.72-.06.28,0c-.12.37-.48,1.06.49,1.43-.3-.11,1-.89,1.19-1a1.9,1.9,0,0,1,1.8-.34c.89.23,2.5-.19,3.23.12.26.11,0,.52.55.51.73,0,.82-.64,1.2-.82-.1.05.29.47.58.5.05-.1.19-.15.41-.17a2.69,2.69,0,0,1,1.12.34,3,3,0,0,1,1.09.72c.15-.3.92-.49,1.67-.57a2.41,2.41,0,0,1,1.27.08,3.38,3.38,0,0,1,.43.5,1.23,1.23,0,0,0,.65-.29c.25-.19.35-.42.27-.55-.22-.36-.3-.52-.27-.55s.42.11.9.83l.22.29c.17.27.2.42.48.48a2.19,2.19,0,0,0,0-.63c-.15-.37-.73-.59-.93-1-.16-.29.52-.13.51-.41a2.12,2.12,0,0,1-.44-.21,1.73,1.73,0,0,1-.31-.22l-.11-.13,0-.08c0-.05,0-.12,0-.19-.19-.76-.32-1.74.22-1.2s.37-1,.15-1.46c-.54-1.13-.27-.25.18-1.44-.22.58-.51-.37-.19-1.21a11.18,11.18,0,0,0,.21-1.68c0-.23-.22-.22-.26-.68-.08-1,.09-2-.29-2.57a1.1,1.1,0,0,1,.67-1.56c-1,.15-.23-3.08.09-2.43-.68-1.4-.64,0,0-1.6-.22.58-.53-1.36-.64-1.58-.19-.4-.31.12-.33-.69.12-.65.33-1.81.7-1.86s.25-.09.24-.62c0-.72-.35-.43-.55-.6s1-3,0-2.24c0-.69.29-.71.56-.56a2.12,2.12,0,0,1-.12-1.84c.6-.09.34-.68,0-1s-.75.14-.35-1.47c.21-.85.42-1.05.81-1.11-.85.13-.35-1.75-.86-2.8-.45-.45-.47-2.47-.43-3.4a3,3,0,0,1,.21-1.19c.33-.48.06-1,.06-1.76,0-.45.21-1.16.21-1.34,0-1-.63-.1-.64-.49,0-.15.46-.82.52-1.17a6.78,6.78,0,0,0-.14-2.13c-.13-1.35.79-.35.86-1.25.18-2.29-.48-1.23-1-2a14.31,14.31,0,0,1-.08-4.3c.18-.71.5-1.11.09-2-.32-.66-.12-1,.24-.62.33-.79.5-2.8-.18-2.12-.36.35-.23-3.2-.2-3.69.06-1.34.73,0,.87-.33.05-.14-.66-2.82-.61-3.57.07-.95.33-.65.61-1,.46-.54-.69-1.34-.68-1,0-.51.73-.64.71-1.42s-.87.29-.9-.82c.3,0,.76.23.74-.69-.15-.69-.89-.18-.91-.89a15.56,15.56,0,0,1,.6-2.49,17,17,0,0,0,.16-3c0-.38-.07-1.24-.31-1.2-.53.08,0-1.09,0-1.75-.2,0,.2-1.24.2-1.6,0-1.31-.2-2.18.36-2.6.19-.14.1-1.16.54-1.23s.64-2.14.29-2.09c-.05,0-1,2.63-.58.38-.17-.46-.5-.43-.53-1-.09-1.77.18-1.11-.53-1.21-.37,0-.32-1,0-1.29.61-.57,1.58-.08,2.25-.18-.06-2.45-2.32.25-2.29-1.79,0-.79.63-5.58,0-6,.88.07-.2-2.23-.13-3.36s1.15-3.92.79-4.76c-.74-1.75-.17-2,.61-2.07.43-1.13-1.06-1-1.28-1A4,4,0,0,0,160,45.73c-.16-.65-.43.79-.64.82s.11-1.54-.18-1.67-.38.74-.43-.19a5.49,5.49,0,0,1,.21-1.89.8.8,0,0,1,.72-.68c.3,0,.74-.95.22-.88-.16,0-1.47,1.08-1.33-.33.06-.5.19-1.14.28-1.6,0-1.39.71-1.21,1.07-1.42.83-.47-.34-1-.39-1.62s.22-1.77-.3-1.69c-.8.12-.05-.93.11-1.3a5.4,5.4,0,0,0-.1-2.4c-.15-.87.12-.65.11-1.07a12.08,12.08,0,0,1-.2-2.3,8.15,8.15,0,0,0,.24-2.51c-.1-.21-.34.64-.42-.35,0-.47-.2-2.88.16-2.93s-.14-3.37.14-4.12a3.12,3.12,0,0,0,.5-2.15c-.23-.59-.66.08-.83-.87-.11-.66,1.13-4.12.15-4a6,6,0,0,1,.49-1.67c.35-.83-.11-.49-.2-.78s2-1.78,2.12-1.86,2.14-.86,1.74.19c0,.37-1,3.19-.83,3.29s.21-.54.41-.3a1.34,1.34,0,0,0,.35.95c.29.27.93.24.91-.78.08,3-.06,6.07-.06,9.1,0,2.39,0,4.8,0,7.19,0,.49-.2,1.43-.18,1.72,0,.83.7,2.56.21,3.22-.34.45-1.17-1-1.31-.69,0,0,.23,2.14.22,2.09.24.62.61.5.92.45-.49.08-.36,1-.2,1.38.25.62-.05.71.32,1s.16,1.21,0,1.66a3.89,3.89,0,0,0-.33,1.8c.1.55.42.85.27,1.54s-.72,1.61-.34,2.47a1.7,1.7,0,0,1,.31,1.41,7.2,7.2,0,0,1-.6,2.83c-.88,1.19.37.77.57,1.73a4.18,4.18,0,0,1-.06,1.58c-.07.37-.75,1.85-.75,1.91,0-.1,1.52,1.2.69,2.32-.1.71-.17,1.21-.24,2a17.43,17.43,0,0,1-.78,2.19c0-.31.84.44.9.55a2.8,2.8,0,0,1,.29,1.69c-.52.07-.21,3.09.27,2.88-.76-.26-.28,5.82-.26,6.77,0,1.23-.46,1.39-.43,2.7-.06.34-.24,1-.06,1.31s.74.56.75.86c0,0-.76.09-.52.88,0,.14.55,1.38.35,1.54-.81.59.06,2,0,3.33-.06.77-.22.52-.38,1a11.32,11.32,0,0,0,.2,2.4,7.88,7.88,0,0,1-.41,2.77c-.21.66,0,.46.15.92a22.45,22.45,0,0,1,.19,7.33c-.27,1.7.38.61.37,2a2.4,2.4,0,0,1-.7,2c.26,0,.52.1.57.69s-.21,1.38-.19,2.21-.56.57-.76.8.72,1.54.8,2.18c.11.9.3,3.27-.23,3.49.59,0,.46,2.94.41,3.77a9.88,9.88,0,0,1-.37,2.66c-.52,1.37.47,1.26.49,2.12a11,11,0,0,1-.3,1.93c-.09.67.17.31.19.87,0,1.12-.22.73-.53,1.39-.54,1.15-1.22,2.23-1.85,3.35a4.4,4.4,0,0,1,1.57-.82c1.48-.2.06.7.09,2.11,0,0,.66-1,.73-.58.18.88-.55,2.59-.52,3.69a4.77,4.77,0,0,1,.19,1.87c0,.32-.71,1.29-.38,1.57s.66.06.68.88c0,.66-.37,1-.6,1,.4-.06.47,2.85.08,2.91,1-.67.4,5.34.43,6.61a8.89,8.89,0,0,1-.1,2.65c-.09.16-.45.33-.44.7a.52.52,0,0,0,.65.52c-.42.23-1.46,1.52-1.11,2.26.12.23.88-1.29.91.08.5,1-.46,1.42-.43,2.41,1.32-.45,0,1.8-.71,1.86,0,1,1,0,1.22.84a5.58,5.58,0,0,1,.12.92c0,.17,0,.35,0,.54s0,.61,0,.92a33.5,33.5,0,0,1-.21,3.55,2.48,2.48,0,0,1-.56,1.12c-.88-.26-1.59-.48-1.87-.32s0,.31.28.49.55.35.3.44l-2.63,0h-2.15a3.61,3.61,0,0,1-1.67-.46c-.74-.3-.71.36-1,.51-1,.66-1.57-.79-1.73-.78a2.89,2.89,0,0,0-1,.4,4.34,4.34,0,0,1-2.5.17c-1-.11-.65.18-1.41.18a15.64,15.64,0,0,1-2.62-.32c-.39-.06-1.32.45-2.27.45-.45,0-.5-.06-.53-.23-.69-.05-1.55,0-2.26.06-.91,0-.36,0-1.12-.25s-.55.36-.85.48c-1.85.72-1.62-1.16-1.86-1.41s-.38,1.15-.45,1.19c-.38.21-2.76.35-2.59-.1,0-.1.31-1.56-.39-1.35s-.57,1.75-1.88,1.74c-.5,0,.08-.31-.66-.29s-1.37.15-1.42-.21a10.64,10.64,0,0,0-1.67.46c-.54.1-1-.39-1.83-.37.09.59-2.88-.62-3-.58-.5.24-.37.51-1.48.55a4.47,4.47,0,0,1-1.41-.17c-.09,0-1.19-.63-1.25-.53-.22.36.4.81-1.18.71-1.28-.08-2-.75-2.83.07,0,.36-1-.31-1.75,0,0,.25-1.79.37-2.12.39a8,8,0,0,1-2.66-.11,20.71,20.71,0,0,0-4.25,0c-1.49,0-3.22-.05-4.69-.15-.28,0-2.47-.57-2.1-.75-.5.24.76,1.06.24,1.19l-.41-.11-.89-.25a9,9,0,0,1-1.3-.42,2.86,2.86,0,0,0-1.52.58c-.84.43-1.25-.21-2-.23-1.65,0-1.86-.24-1.87-1,.24,1.14-1.15,1-3.58,1.1-2.16,0-2.74,0-2.83-.93a3.47,3.47,0,0,0-.57.84c-.2.35-.78.17-1.07,0,.32,0-1.61,0-1.17.13-.26-.09-.93-.7-1.18-.7s.27.75-.69.78a4.63,4.63,0,0,1-2.27-.67c.74.28-1.67.43-1.69.47-.12.29-.33.19-1.16.21-.27-.12.11-.61.13-.6.17.06-4.48.39-5.13.36s-1.54-.43-1.49-.09a7,7,0,0,1-3.68.27c-.18,0-2-.07-1.75-.29s-.23-1.31-.86-1,0,1.06-1.06,1.28-1.64-.65-2.43-.63c0,0,.71.49.31.59a10.86,10.86,0,0,1-3.17,0,3,3,0,0,0-1.86,0,9.27,9.27,0,0,1-2.88,0c-.91-.16-.78-.4-1.61-.09a5.08,5.08,0,0,1-2.51,0c-.35-.08-1-.52-1.43-.43-.88.15-1.13.63-2.17.71-.06-.43-.63-.15-1.15,0s-.77-.27-1.06-.47c.43.38-3,.8-3.64.71-.09,0-3-1.57-3.26-.87-.09.2,1,.6-.43.55a13.67,13.67,0,0,1-2.21-.68c.06,0-.11.63-1.14.66s-.25-.27-.42-.34a5.6,5.6,0,0,1-1.38.06c-.48-.08-1-.64-1.56-.47-.92.3-2.42,1.47-3.93.83-.32-.14-.31-.76-.78-.75-.84,0-.66.68-1.23.86-1.57.51-2.56-.22-3.51-.6a3.81,3.81,0,0,0-1.75-.3c-.65.1.18.47-.11.67-1,.68-2.46-.23-3.51-.23.05.32-.91.28-1.35.29a15.14,15.14,0,0,1-1.82.25l-.87-.06c-.37,0-.69-.06-1-.09a9.46,9.46,0,0,1-1.3-.28,9.48,9.48,0,0,0-2.32-.54c-.73-.06,0,.38-.08.35-.17.3-.5.41-1.36.52,0-.24-.08-.56-.12-1-.28-2.6.49-1.43.83-2,0-1.08-.34-.78-.51-.65,0-.8.06-1.43.11-2.05,0-.29,0-.58.06-.9a6,6,0,0,0,0-.62c0-.27-.26-.35-.34-.74a6.47,6.47,0,0,1,0-2.28c.07-.35.47-1.83.09-1.77,0,0,.68-.19.49-.59-.27-.56-.92.1-.86-1.55a1.81,1.81,0,0,1,.24-.87,6.67,6.67,0,0,0,.09-2c0-1.47-.33-3.25.08-4.59.19-.62.84-.2.67-.94a28.33,28.33,0,0,1-.47-2.95c-.38.06-.39-3.12-.31-3.72s1.15-.33.71-1.17c-.15-.3-.67-.55-.69-1.14s.48-.22.46-1c0,.08-.28-1.13-.31-1.41-.1-1.06-.16-2.14-.2-3.22s-.08-2.16,0-3.24c0-.81.2-1.36.18-2.12,0-.46-.07-1,0-1.5s.45-.15.57-.45S.36,117,.29,116.27a19.6,19.6,0,0,1,0-3.34,3.4,3.4,0,0,1,.22-1.14c.12-.2.55.33.55,0,0-.67-.74-.86-.83-1.71s.29-.65.45-1.11a7.12,7.12,0,0,0,.17-2.67c-.13-1.13-.74-1.48-.35-2.82.19-.67.69-1.75.29-2.57s-.39.39-.43-1.17c0-.76,0-1.46,0-2.22C.4,96.34.19,90.62,1,90.62.14,91.07.49,86.94.72,86c.37-.06.47-1.14.45-1.82,0-1-.38-.9-.54-1.53a7,7,0,0,1-.28-2.38c0-.35.06-.58.2-.68a12.71,12.71,0,0,1,0-1.38,28.92,28.92,0,0,0,.63-3.31c.05-.75-.17-1.68-.54-1.18,0-1.43-.11-2.88-.08-4.31,0-1.14.1-2.26.11-3.4,0-.7,0-1.39,0-2.09a7.6,7.6,0,0,1,.2-.84l-.19-7a8.76,8.76,0,0,1,.09-2.14C1,52.7.58,51.66.74,50.48A12.71,12.71,0,0,0,1,47.92L1,43.48a53.1,53.1,0,0,1,.1-5.79c.09-.68.36-.67.18-1.59C1.22,35.81.45,34.35.73,34c.58-.83-.08-.79,0-1.78,0-1.19,1.1-.35,1-1.93C1.37,30.12,1,31,1,30c0-.86-.33-3.92.33-3.76-.39.15-.75-1.05-.54-1.89.11-.45.31-.29.44-.73a5.32,5.32,0,0,0,0-2.14A6.4,6.4,0,0,0,.7,19.87a10.86,10.86,0,0,1,.22-1.41c0-.65-.3-3.85.14-3.91-.75-1.34-.24-1.65.17-3C1,11.63.88,9.83.83,7.91A59,59,0,0,1,1,1.82,7.66,7.66,0,0,0,1,.31L3.57.23A8.31,8.31,0,0,1,5.46.44a4.87,4.87,0,0,0,1.87,0A7.07,7.07,0,0,1,9.17.11c.67,0,.31.2,1,.22a4.54,4.54,0,0,1,2.33.6c-.12,0,.29-.54.58-.55s1.16.58,1.51.68.31-.27.29-.35A4.19,4.19,0,0,1,16.71.13c1.36-.21.91.23,2.29.22,1.17,0,2.19.24,3.16.13a128.11,128.11,0,0,1,13-.31c3.1,0,6.43,0,9.55.12,3.52.08,7,.18,10.51.34.78.3,1.06,0,2-.05A7,7,0,0,0,59.89.26c-.08-.51.72.1.8.12a18.1,18.1,0,0,0,3.38,0c.42,0,.53.05.55.22.06.4.3.43,1.1.57,1.59.26.06-.93.23-1s2.22.32,2.64.33c.61,0,.51-.28,1.25-.19.24,0,1.67.53,1.94.25s-.88-.79.62-.51a9.31,9.31,0,0,0,2.2.27c3,0,6-.18,9,0,.71,0,1.17.21,1.85.25A17.24,17.24,0,0,0,88,.4,61,61,0,0,1,94.32.21a53.12,53.12,0,0,1,6.34.17,3.94,3.94,0,0,0,1.89.14A31.47,31.47,0,0,1,106,.29c1.83-.07,3.63.06,5.47.07,2.1,0,5.84-.36,7.63.32.75.28,1.25.53,1.16,0S122,.6,122.51.34c.74-.36,2.17.09,2.95.17,1,0,1.55.11,2.58.12,3.14.05,6.3-.12,9.43-.19,1.18,0,3.95-.27,5,.11,1.4.26.88.17.93-.16a12.38,12.38,0,0,1,2.56.07c1.2,0,2.36.19,3.54.16.41,0,1.16-.06,1.2.22a6.25,6.25,0,0,0,1.61-.22c2.1-.34,4.41.05,6.55,0C159.39.6,162.29.59,160.62,1ZM39,163l.14.07Z"/><path class="cls-1" d="M158.84,60.43a.14.14,0,0,0-.15,0Z"/><path class="cls-1" d="M164,148l.12,0A.16.16,0,0,0,164,148Z"/><path class="cls-1" d="M37.1,158.45a.2.2,0,0,0,0,.19A.44.44,0,0,0,37.1,158.45Z"/><path class="cls-1" d="M159.87,4.05c-.09-.53-.49-.73-.5.07S159.9,4.92,159.87,4.05Z"/><path class="cls-1" d="M162.64,4.23c0-.42-.39-.76-.37-.36,0,.15.23,1.67.36,1.31A6,6,0,0,0,162.64,4.23Z"/><path class="cls-1" d="M161.37,3.83c.43.22.47-.68.22-1.2l-.85.12C161.17,2.69,161.34,2.71,161.37,3.83Z"/></g></g></svg>