<svg xmlns="http://www.w3.org/2000/svg" viewBox="0 0 409.47 106.48"><defs><style>.cls-1{fill:#f5ff2e;}.cls-2{fill:#f5ff2f;}</style></defs><g id="Layer_2" data-name="Layer 2"><g id="content"><rect class="cls-1" x="4.67" y="6.22" width="398.37" height="93.82"/><path class="cls-2" d="M5.06,80.5c.35.27,2.07,1.59,1.92-.23A1,1,0,1,0,5.06,80.5Z"/><path class="cls-2" d="M44.28,98.17c1,0-1.93-1.54-2.54-1.18S43.69,98.16,44.28,98.17Z"/><path class="cls-2" d="M90.64,96.64c-1.42-.12-1.78.36-1.7,1l.91,0C90.28,97.38,90.68,97,90.64,96.64Z"/><path class="cls-2" d="M10.69,2.25c.91,0-1-.45,0,0Z"/><path class="cls-2" d="M1.55,7c.57,1.86,1.92-.27,2.88,1.33-.41-.68-1.1,1.87-.86,2.72.69,2.42,1,.11,1.61,0-.27,2.57.77,1.09,1.35,1.29.89.31-.89,3.36.57,2.63s2.21-2.17,3.51,0c1.41,2.34-.66,6-.25,2,.22-2.21-2.35,0-2.3-.66,0-.07.59-2.32-.25-1.32a5.79,5.79,0,0,0-.92,3.64c0,1.28.63,3.51.11,4.64-.32.67-1.17.21-1.12,1.5S7.19,26.23,7,27.36c-.31,1.92-1,1.2-.2,3.64a7.86,7.86,0,0,1-.3,4.26c-.4,1.2-1.45,1-1.41,2.34l1.44-.18c0,1-2.81,3.31-1.44,3.79.77.27.63,1.35.7,2.61.08,1.53.9,2.59.09,3.49-.34.36-1.06-.21-1.15.7-.13,1.37.9,1.48,1.32,1.88.75.72-1.87,5.42.12,3.64.09-.09-.29,3.14.51,3,0,1.19-1.62,3.85-.36,3.7a1.53,1.53,0,0,1-.61,1c1,.25,1.93,2.25,1.09,4-.36.76-1.75.11-1.71,1.53,0,1.2.85.73,1.21.84,1.22.36,1.06,3.92.08,4.52-.51.3.06.87-.93,1l-1.59.19c.08,2.45,1.94,1.44,2.72,2.07a1,1,0,0,1,.28,1.22c0,1.59-1-.06-1.32,0-.86.22-1.2,2.74-1.07,4.07.06.61.65,1.31.5,1.85-.2.75-.73.82-.9,1.47.13-.52,2.81.51,3.22.72-.24-.12-.61.77-.44,1.24.63,1.72,1.06,1,.64,3.62-.09.56-.22,1.59-.31,2.5,0,.46-.08.89-.08,1.22s0,.41.07.47c-1.47-.89.06,2.42-2.07,1.81-.71-.3-.62-1.35-1.51-1.13-.44-.1-1,.25-1.44.4,1,.92,1.81,1.41,2.62,2.21a1.14,1.14,0,0,0,1.5.29c.36-.19.41.22.46.59a1.53,1.53,0,0,0,1.46-.83c-.36.4-.32.73.19.79.72.08.71-.38,1.26-.66s.45.22.4.73-.3,1.07-.62,1.08a2.18,2.18,0,0,0,1-.48l.45-.36a1.13,1.13,0,0,1,.45-.23,9.77,9.77,0,0,1,4.37,0c1.73.37-.57,1.78-1.3,2.15,1,0,1.81-.1,1.74-.73.2,1.69,4.66,2.6,2.75.1-3.17-1.47,2.55-3.68,4.32-2.07-3.83-.3-.15,1.93-2.5,2,.1,1.28,2.38,1.26,2.78.12.08-.25,1.95.26,2.46.17s-.11-1.45.17-1.78c.76-.89,2.17-.85,3.6-.45s-2.3.86-2.26,1.18a20.44,20.44,0,0,0,3.41-.12c1.1-.18.12-1,.82-1.12.47-.08,2.53.51,2.42-.37,1.52.55,1.68,1.77,2.79.39.76-.94,1.38-.7,2.73-.08,4,1.8,6.65,2.41,10.43.15-1.62,1,3.43,1.29,3.32.35,1.41-1.76,4.45.34,1,.45a1.91,1.91,0,0,0,2.84.87c1,0,.84-.65.8-1-.89,0-2.76-.72-1.46-1.09,2.17-.62,3.09.56,4.7.5,2.11-.07,3.44,0,5,.8.59-.73,2-.7,3.09-.33a6.82,6.82,0,0,0,1.75.64c1.09.07.87-.43,1.71-.69,1.91-.58,1.18,1,2,1,1.54.15,2.5.22,2.61,1.2A3.76,3.76,0,0,1,78,98c.11,1,.19,3.28,3,1.81a12.32,12.32,0,0,1,3.14-1.71c1.26-.26.72,1.88,2.15.11,0-.32,3.6,1.4,4.32,1.11A10.25,10.25,0,0,0,94.34,97c.15.21,1.37,2.12,1.61,2.12s.52-1.35,1.13-1.07c.87.41.2,1.49,1.51,2,1.06.42,3.63-.15,4.62-.45,2.63-.78-4,.13-3.31-.63a9.6,9.6,0,0,1,3.29-2c1.51-.56,2.1.16,3-.06,1.13-.27,1.65-.75,3.09-.54,1.26.17,2.3.54,3.59.68a8.48,8.48,0,0,0,2.36,0,6.45,6.45,0,0,0,1-.54,1.65,1.65,0,0,0,0,.46l.08,1c.07.77.15,1.59.17,1.77a4.45,4.45,0,0,0,1.17,2.16c-.16-1.31-1.3-5.25,2.17-5.52,2.45-.2,6.29-.06,8.22.84,1.75.81,1.28-.53,2.35-.38s1.95,1.67,3.4.74c.54-.34,2.24-2.3,2.44-.63,1.46.68,1.8-.24,3.37-.09.31.09.42.24.32.45a5.73,5.73,0,0,0,2.45-.4c.95-.35,1.55.57,2.95-.26-.11-.91,2.71.27,3.34.31,2,.14,3.33-.43,5.21-.5,2.25-.08,6.09.48,6.26,1.93-.13-1.11.56-2.17,3.07-2a29.15,29.15,0,0,1,3.85.76c1.54.3,1.36-.9,2.07-1,.23,0,.05,1.82.39,2.1.71.59,1.76-1.74,2.14-1.76.14,0,.2,1.44,1.2,1.41.54,0,1.21-1.07,2.25-1.22,2.1-.29,5.29-.48,6.47.7,2.05,2.06.94,1.5,3,0,1.47-1.12,3.86,1.39,4.56.88.13-.09-2.11-3.67,1.33-1.71,1.4.8,1.07,1.55,2.48.21,1-1,4.11,2,4.46,2.2-.38-.18,2.25-2.47,4.24-2.19-.3,0-.55.79-.49,1,2.19-.07,2.76-1.54,5.44-1.67.64,0,1.66,0,1.72.47.11.94,1.92,0,2.26.55.13.22-.87.94.33,1.11.94.13,2.07-.84,2.85-1,1.92-.48,1,1,1.2,1.57,1.93-.06,1.28-.77,2.31-1.38.61-.37,1.35.6,2.54-.06.54-.3,3.11-.89,3.33-.11,0,.14.82,2.33,1.35,2,.29-.18-.49-.94-.46-1.23.08-.64,1.16-.54,2.07-.57s.28-.37,1.21-.4c1.22,0,2.15.29,3.45.24,1.62,0,10.31-1,9.66.65.64,0,1.82,0,1.76-.54.75-.14,1.77.1,2.44-.22,1.25-.6,4.2-.12,6.21,0,1.37.09,2.73.31,4.14.27l1.81-.06c0-.24.19-.37.64-.38,1.34-.05,4.79.84,3.8-.73,1.85-.06.57.46,1.29.72a9.53,9.53,0,0,0,3.39.55c.94-.09,1.11-1.3,2.22-.78s1.41,1.47,2.55,2c2.21,1.06,1.2-1.42,2.54-1.46.41,0,6.36-.21,5.51.3,1.38,0,2.86-.18,4.24-.11,2,.11.79,1.87,3.26,1.79-.2-.6-2.43-1.28-.47-1.41a26.38,26.38,0,0,1,4.17-.1c1.15.11.35.41,1.75.36,1.61,0,4.77-.84,5.35.41.28.58,1,1,1.15,1.63,0,0-.55,1,0,.84,0,0,1.15-.51,1.4-.1.09.15-.75.57.37.54.23,0,.25-.36.2-.72a6.81,6.81,0,0,0-.13-.72c-.09-.71-1.45-1.75-.81-2.44.4-.43-.15-.61,0-1s2.1.55,2.23.57c1.23.2.41-.42,1-.48.8-.09,3.3,1.55,2.92,1.77.83-.49,2.24-3.29,2.52-.86a14.24,14.24,0,0,0,4.88.74c.95-.12,5-1.52,5.19-.47.09.45-.57.62.1.84,2.26-.08.85-.51,1.77-1.06.34-.2,2.64,1.74,2.78,1.87C321.27,98.28,328,96.45,330,97c.6.16.76.49,1.33.68.83.27,2.26-.37,3.21-.37a3,3,0,0,1,1.89.61,8.89,8.89,0,0,0,3.15.18,39.61,39.61,0,0,1,6.8,0c.94.14,1,.65,1.9.68,1.36,0,2.19-.67,3.56-.85,2.31-.29,5.64.83,7.51.29.95-.28,4-1.87,4.31-.43.09-.49.66-1,1.69-1-.24,1.2,2.48,1.14,4,2-.33-.29-.58-.61-.31-.8.74-.53,2.13.71,2.52.86a5.17,5.17,0,0,0,2.89,0c.95-.28.93-1.49,1.29-1.55s3.34,1.48,2.44-.24c.25,1.41,3.93,1,5.72,1.25,2.06.25.95,1.09,1.95,1.55,0,0,.22-.51.47-1a4.08,4.08,0,0,1,.62-1.06c-.47.15,3.31,2.06,3.68,1-.08.26-.5-2.62.49-1.64a2.91,2.91,0,0,1,1,2.22c.48-.6,1.36-2,3-1.85a3.24,3.24,0,0,1,1.38.51c.32.23.56.44.75.44s.42-.31.59-.61.31-.63.61-.68c-.12.27.81.17,1.59,0-.13-1-.29-1.81-.26-1.9.24-.6.82-.64,1.45-.32s1.31,1,1.75,1.17c-.22-.08-.44-1.44-.49-1.56-.34-.86-.65-.65-1.11-.68-.78.11-.5-3-.32-3.67a3.5,3.5,0,0,1,.95-1.57c.59-.8-.77-1.11-.93-1.45-.78-1.62.2-2.49-1.48-2.29,1.08-.13.42-2.43.81-3.47.1-.28.71-.64.8-.1.2,1.22,1-.1,1,.9a20.11,20.11,0,0,1,0-2.66c.08,0,.88,2.63,1.27,1.79s-1.16-2.69-1.36-2.87c-.88-.79-1.38.13-2-1.86-.1-3,1.44-5.33.87-8.21-.18-.89-1.19-2.81-1-3.81.07-.45,1.19.27,1.52-.28.62-1.07-.65-1.48-.87-1.45-1.94-1.56.68-1.3.65-2s-1-.77-1.22-.65c.8-1.74-.24-4.45-.16-6.49.06-1.43,1.27-6.09-.25-6.24,1.05-.53-.29-5.57-.24-6.93s.18-3.39.83-4.1c0-1,.41-1.89-.09-2.72,0-.68-.25-2.71.39-2.79.16-1.53-.27-2.93.15-4.46a8.57,8.57,0,0,1,.62-1.22c0-1.1-.48-1.37-.56-2.66-.12-2-.86-4-.88-6.05,0-1.43,1.4,1,1.65,1s-.65-2.31-.61-2.23a6.78,6.78,0,0,1-1-2.28c0-.35.07-.4.18-.65a1.51,1.51,0,0,0,.22-.71c-.34.11-.58-.27-.63-.66a1.67,1.67,0,0,1,.51-1.36,6.18,6.18,0,0,1,1.19-1.27,4,4,0,0,0,1.24-1.68s0-.08-.06-.11c.17.16-1.54,1.49-2.08,1.63s-.82,0-1.31.21-.82.88-1.26,1.2a1.45,1.45,0,0,1-1.15.37l-.13,0a.81.81,0,0,0-.2,0l-.58-.13a5.5,5.5,0,0,1-1-.36c-3.08-.69-1.83.78-4.12.86.83,0,.65-1.71-1.45-1.64-1,0-7.32-.13-7.22.72-.83.5-3.67-.24-3.75-.84,0,0,3.34-1.6,1.26-1.6-1.4,0-2.12,2.26-2.49,2.73a1,1,0,0,1-1.77,0,5.21,5.21,0,0,1-.56-.82l-.21-.44c-.33,0-.89.92-1.35,1.09s-1.68-.52-2-.65c-1.57-.69-1.54.33-2.38.88-1.57,1-1.19-.24-1.41-.64s-4.07-.28-3.53.76c-.47-1.57-6.71-1.14-9-1.38A13.19,13.19,0,0,0,352.08,8c-1.13.41-.8,1.79-2.79,1.86-.39-.72,2.65-3.46-.4-3.36.25,1.19-.43,2.33-1.31,3.42.14-.17-.53-1.19-1.16-1.17-.42,0-1.58,1.24-2.3,1.44-1.24.35-2.81-1-4.5-1-2.06,0-1.95.77-3.69,1.07a6.44,6.44,0,0,1-3.28-.18c-.59-.28-.72-1.68-1.15-1.73-1.29-.12-3.39,1.49-5,.88a9.47,9.47,0,0,1-2.25-2.65c-.76.45-.26,1.15-1.66,1.66-1.07.39-5.11.55-5.31,1.14-.85,2.43-1.88-.09-2-1.26-1.21,0-.7.3-.85.79s-2.08.27-2.59.3c-1.59.09-2.54.55-4.12.61-.94.25-1.49.15-1.67-.29-.89-.33-1.59.19-2.18.13-.82-.08,0-1.4.13-1.41-2.42.08-1.72,2.1-5,1.37-1.25-.28-2.15-.77-1.08-1.41.7-.28,2.13-1.28.1-1a15.27,15.27,0,0,0-3.44,1.24,19.82,19.82,0,0,1-5.23,1l-5.7.44-3.45.29a12.5,12.5,0,0,0-1.55.19c.18-.71.75-2-.77-2.75.47.22-1.58,1.72-1.86,1.92-1,.75-1.5,1.08-2.81.66s-3.9.36-5-.24c-.4-.21,0-1-.86-1-1.14,0-1.28,1.22-1.87,1.57.16-.1-.45-.91-.9-.95a.74.74,0,0,1-.64.31,3.44,3.44,0,0,1-1.75-.65,4.58,4.58,0,0,1-1.7-1.39c-.24.59-1.44.95-2.61,1.1-2.14.26-2.27-.29-2.9-1.11-.13-.17-3.18,1.14-3.35,1.61-.79,2.07-2.2.74-1.07-.66.4-1.14,1.09-1.48-1.08-1.41-.51.3-.06,1.4-.94,1.8-.67.3-1-1-1.59-1a2.91,2.91,0,0,1-.24.85,1.58,1.58,0,0,1-1.49.89c-1.19.37-2.72.63-1.88-.42s-1.56-.7-2.28-.28c-1.76,1-.38.51-2.24-.35.9.42-.58,1-1.9.36a14.52,14.52,0,0,0-2.61-.39c-.37,0-.35.43-1.06.5-1.6.16-3.09-.18-4,.55-1.19.94-2.52-.75-2.43-1.29.24,2-4.81.44-3.79-.17-2.18,1.3,0,1.23-2.5.08.9.42-2.12,1-2.47,1.22-.62.37.19.6-1.07.64-1-.22-2.81-.64-2.9-1.35-.05-.43-.14-.47-1-.45-1.13.08-.68.66-1,1.06s-4.61-1.88-3.49,0c-1.08,0-1.11-.56-.87-1.07a2.77,2.77,0,0,1-2.88.23c-.13-1.16-1.05-.65-1.55.05-.61.87.22,1.45-2.3.68-1.32-.4-1.63-.81-1.72-1.57.19,1.65-2.73.67-4.37,1.65-.7.87-3.86.92-5.3.84a3.74,3.74,0,0,1-1.86-.41c-.75-.63-1.55-.12-2.74-.11a17.84,17.84,0,0,1-2.09-.4c-1.65,0-.17,1.21-.77,1.23-.23,0-1.28-.9-1.83-1-1.4-.28-2.05.11-3.31.27-2.11.25-.56-1.52-2-1.65-3.57-.35-1.93.92-3.17,1.85-.69.52-5.75.47-6.71.16s-1.73-1-3.06-.18c-1,.62-1.51.24-1-.45-1.23-.64-4.37-1-3.31.35.55.68-5,.43-5.75.38-2.1-.12.06-1.4-.52-1.67-.21-.1-4.4,1.26-5.57,1.16-1.48-.13-1-.63-1.55-1.17-.85-.87-2.1,1.33-1.63,1.32-.79,0-1-1.41-2.21-1.37s.44,1.67-1.28,1.72c0-.58.36-1.45-1.08-1.41-1.08.29-.28,1.7-1.39,1.74-1.28,0-2.64-.92-3.89-1.14a20.71,20.71,0,0,0-4.61-.31c-.59,0-1.93.12-1.87.58.12,1-1.7.06-2.73.09,0,.37-1.93-.39-2.5-.39-2,0-3.4.39-4-.69-.22-.37-1.82-.19-1.92-1s-3.34-1.21-3.26-.55c0,.1,4.1,1.91.59,1.12-.71.33-.67,1-1.56,1-2.76.17-1.72-.34-1.88,1-.09.73-1.6.62-2,.08-.9-1.16-.13-3-.29-4.32-3.82.12.4,4.45-2.79,4.41-1.23,0-8.71-1.21-9.39-.09.11-1.7-3.48.38-5.23.25s-6.12-2.21-7.44-1.52c-2.72,1.42-3,.33-3.22-1.16-1.77-.83-1.58,2-1.53,2.46-1-.94-2.79-3-5.51-2.17-1,.31,1.24.83,1.29,1.22.08.66-2.41-.22-2.61.35-.11.32,1.15.73-.3.82a7.29,7.29,0,0,1-3-.4,1.45,1.45,0,0,1-1.06-1.38c-.07-.58-1.49-1.43-1.37-.42,0,.31,1.68,2.83-.51,2.54-.78-.1-1.78-.36-2.49-.53-2.18.07-1.9-1.36-2.23-2.06-.73-1.58-1.54.65-2.53.75S54.38,9,54.5,10c.18,1.54-1.45.09-2-.22-.95-.49-2.86,0-3.74.2-1.36.28-1-.24-1.68-.22-1.34,0-2.1.62-3.58.39-.64-.1-3.24-.88-3.92-.46-.32.19,1,.64-.55.8-.73.07-4.49.38-4.57-.31s-5.25.27-6.42-.27c-.51-.36-2.27-1.47-3.36-.95-.91.43.13,1.27-1.35,1.58-1,.22-6.42-2.17-6.2-.27a8.81,8.81,0,0,1-2.61-1c-1.29-.68-.75.21-1.21.39S10.52,5.89,10.4,5.6c-.2-.49-1.36-4.12.29-3.35.57,0,5,1.89,5.13,1.6s-.84-.41-.47-.79a2,2,0,0,0,1.49-.69c.42-.54.37-1.78-1.22-1.73,4.71-.16,9.47.11,14.19.11C33.54.76,37.3.7,41,.8c.75,0,2.23.38,2.69.35,1.28-.09,4-1.34,5-.4.71.64-1.61,2.25-1.07,2.51-.07,0,3.33-.45,3.26-.41,1-.46.77-1.17.7-1.77.11.94,1.49.68,2.14.37,1-.47,1.11.11,1.63-.6S57.27.54,58,.77s1.67.87,2.81.63c.85-.19,1.32-.81,2.41-.51.94.26,2.51,1.37,3.84.64.82-.45.57-.71,2.21-.59,1.43.11,3.61.44,4.4,1.16,1.86,1.69,1.2-.72,2.7-1.11a5.55,5.55,0,0,1,2.47.12c.58.14,2.89,1.44,3,1.44-.15,0,1.87-2.91,3.61-1.32,1.11.2,1.89.32,3.09.46,1,.11,3.19,1.5,3.42,1.49-.49,0,.69-1.61.85-1.71A3.67,3.67,0,0,1,95.41.9c.12,1,4.83.41,4.5-.51-.4,1.46,9.08.54,10.56.49,1.92-.06,2.17.89,4.2.83.53.11,1.55.45,2,.11s.88-1.41,1.34-1.43c.09,0,.16,1.44,1.39,1,.22-.08,2.15-1.07,2.39-.67.93,1.55,3-.13,5.2.07,1.21.12.8.41,1.48.73s2.9-.38,3.75-.39a10.24,10.24,0,0,1,4.31.78c1,.42.72,0,1.44-.27,2.74-.95,8.45-1,11.43-.38,2.65.52.95-.73,3.21-.71a3.41,3.41,0,0,1,3.06,1.36c0-.5.16-1,1.08-1.1,1.13-.11,2.16.4,3.45.36s.88,1.08,1.25,1.46,2.39-1.39,3.39-1.54c1.41-.22,5.11-.58,5.45.44,0-1.13,4.59-.87,5.88-.79a13.1,13.1,0,0,1,4.15.73c2.14,1,2-.91,3.31-1a13.08,13.08,0,0,1,3,.59c1,.16.49-.34,1.36-.37,1.75-.06,1.14.42,2.17,1,1.79,1,3.48,2.35,5.22,3.55a9.42,9.42,0,0,1-1.27-3c-.31-2.84,1.09-.11,3.28-.18,0,0-.36-.32-.66-.65s-.54-.68-.24-.75c1.37-.35,4,1.05,5.76,1a6.09,6.09,0,0,1,2.91-.36c.51.1,2,1.36,2.45.73.27-.39.1-1.27,1.38-1.31,1,0,1.62.72,1.5,1.15-.09-.76,4.46-.9,4.55-.15C214-.16,223.4,1,225.39.94c.88,0,3.46-.29,4.13.19.25.18.52.86,1.1.84.76,0,.87-.79.8-1.23.36.8,2.38,2.8,3.52,2.12.37-.22-2-1.69.14-1.76,1.59-.95,2.21.89,3.75.84-.7-2.53,2.82,0,2.9,1.35,1.6,0,.06-1.94,1.32-2.33a15,15,0,0,1,6.25.15c.83.21,2.26,2.28,3,1.69.61-.46-.48-1.46.06-1.79C253.9,1,255.46.84,257,.92a4.69,4.69,0,0,1,2.6.88c1.16.58,1.11-.68,1.49-1,1.61-1.26,2.45,1.52,2.69,1.52a4.53,4.53,0,0,0,1.51-.78c1.19-.71,2.41-.54,3.9-.34s1-.33,2.19-.33a19.76,19.76,0,0,1,4.08.61c.62.12,2.07-.86,3.55-.86.69,0,.79.11.83.44A34.67,34.67,0,0,0,283.32,1c1.42,0,.56-.11,1.75.48s.86-.7,1.32-.92c2.89-1.39,2.53,2.22,2.9,2.71.51.67.6-2.23.7-2.29.6-.4,4.31-.68,4,.19-.06.18-.48,3,.62,2.58s.89-3.35,2.93-3.34c.78,0-.13.6,1,.56s2.14-.28,2.22.41c1.15-.1,1.6-.65,2.6-.89.84-.19,1.61.75,2.85.71-.13-1.13,4.5,1.19,4.63,1.12.78-.47.57-1,2.3-1a5.8,5.8,0,0,1,2.21.32c.14.06,1.85,1.21,1.95,1,.34-.68-.62-1.54,1.84-1.35,2,.15,3.14,1.43,4.41-.14-.09-.69,1.58.6,2.72-.09-.05-.47,2.8-.69,3.32-.74a9.87,9.87,0,0,1,4.14.22c1.61.56,4.84.06,6.63.09,2.33,0,5,.09,7.32.29.44,0,3.85,1.09,3.27,1.44.78-.47-1.18-2-.38-2.28l.65.21,1.39.47a12.76,12.76,0,0,1,2,.81c1.36-.12,1.59-.61,2.38-1.11,1.31-.84,1.94.4,3.05.43C362.7.9,363,1.28,363,2.66c-.38-2.19,1.8-2,5.58-2.11,3.37-.1,4.28,0,4.42,1.78a6.92,6.92,0,0,0,.88-1.61c.32-.68,1.22-.33,1.68.08-.51,0,2.51.06,1.83-.25.39.18,1.43,1.35,1.83,1.34S378.84.45,380.34.4c1.75-.05,2.47.79,3.54,1.29-1.16-.54,2.6-.82,2.63-.91.2-.55.52-.36,1.81-.4.43.24-.17,1.17-.2,1.15a75.51,75.51,0,0,1,8-.7l2.28.36c.85.12,1.5.15,1.53-.18a26.57,26.57,0,0,1,8.94-.62c0,.72-.08,1.48-.11,2.27,0,.58-.14,6-.56,5.37-.18-.27-.81.18-1.32.79a2,2,0,0,0-.6,2c.29.69.81.63,1.29.71a1,1,0,0,1,.69.39,1.78,1.78,0,0,1,.28.57,1.81,1.81,0,0,0,.11.3,1.23,1.23,0,0,1,.09.29c.4,1.58-1.24,2.56-1.2,3.79,0-.07.94-1.1,1.13-.47a13.84,13.84,0,0,1,0,4.93c-.41,1.4-.38,1.11,0,2.9a11.74,11.74,0,0,1,.05,4.5c-.3,1.42-.77,1.22-.17,2.52a6.34,6.34,0,0,1,0,3.9c-.16.55-1,1.49-.84,2.24.29,1.37,1.22,1.75,1.37,3.38-.83.09-.29,1-.1,1.8s-.51,1.2-.9,1.65c.72-.67,1.54,4.63,1.36,5.67,0,.15-3,4.63-1.67,5.09.4.14,1.17-1.55,1.07.67-.06,1.24-1.33,3.08-1.32,3.44,0-.09,1.21.18,1.27,1.79s-.52.38-.65.65a7,7,0,0,1,.11,2.15c-.14.75-1.23,1.62-.9,2.44.58,1.43,2.83,3.78,1.6,6.13-.27.5-1.46.48-1.44,1.22,0,1.3,1.3,1,1.65,1.91,1,2.45-.43,4-1.15,5.48a5,5,0,0,0-.57,2.73c.18,1,.89-.28,1.27.17,1.32,1.59-.43,3.83-.43,5.47.62-.07.52,1.42.55,2.11a4.53,4.53,0,0,0,.27,1.31,5.5,5.5,0,0,1,.16.67l0,.19v.31c0,.28,0,.58,0,.91-.14,6-1.46,5.33-1.85,8.79-.13,1.12.72.11.67.24.57.38.78.93,1,2.32-.36.07-.84.14-1.46.23-4,.54-2.41-1-3.43-1.61-1.67,0-1.09.65-.82,1-2.53,0-3.91-.41-6.52-.36l-.26,0-.12.06a2,2,0,0,0-.24.19,1.45,1.45,0,0,1-.65.37,8.49,8.49,0,0,1-3.55,0c-.55-.14-2.85-.91-2.77-.18,0-.09-.29-1.32-.91-1-.88.53.15,1.77-2.42,1.65a2.38,2.38,0,0,1-1.35-.46,8.89,8.89,0,0,0-3.15-.18c-2.28.07-5.06.64-7.15-.14-1-.36-.31-1.61-1.47-1.29a35.3,35.3,0,0,1-4.6.91c.09.72-4.87.74-5.8.59s-.52-2.2-1.83-1.37c-.46.3-.85,1.3-1.77,1.33s-.35-.93-1.55-.89a16.93,16.93,0,0,1-2.2.6c-1.66.19-3.34.31-5,.4s-3.38.14-5.06.07c-1.26-.05-2.11-.38-3.3-.34a20.49,20.49,0,0,1-2.35.06c-.59-.06-.23-.87-.7-1.08-.64-.3-3.37,1.11-4.43,1.24a24,24,0,0,1-5.22,0,4.53,4.53,0,0,1-1.78-.42c-.31-.23.51-1.06.07-1-1,0-1.33,1.41-2.66,1.59s-1-.57-1.73-.87a8.85,8.85,0,0,0-4.16-.33c-1.77.26-2.31,1.43-4.39.68-1.05-.38-2.74-1.32-4-.56s.61.75-1.81.83c-1.19,0-2.29.06-3.47,0-1.93-.11-10.84.29-10.84-1.32.69,1.71-5.75,1-7.23.6-.09-.72-1.77-.91-2.84-.87-1.58,0-1.39.73-2.39,1a9.11,9.11,0,0,1-3.7.54,1.18,1.18,0,0,1-1.07-.38,19.12,19.12,0,0,1-2.14,0,39.91,39.91,0,0,0-5.16-1.2c-1.17-.09-2.63.33-1.85,1-2.23.07-4.49.2-6.73.14-1.76,0-3.52-.18-5.29-.21-1.09,0-2.18.09-3.27,0a10.85,10.85,0,0,1-1.31-.38l-10.9.36A10.73,10.73,0,0,1,237,105c-1.92-.46-3.55.35-5.39,0a15.25,15.25,0,0,0-4-.42l-6.92-.08a68,68,0,0,1-9-.22c-1.06-.15-1-.67-2.47-.33-.45.11-2.74,1.6-3.35,1.06-1.29-1.13-1.21.14-2.76.09-1.87-.06-.56-2.1-3-2-.2.69,1.21,1.33-.43,1.44-1.35.09-6.11.63-5.86-.63.22.76-1.65,1.44-3,1.05-.7-.21-.44-.61-1.13-.85a6.75,6.75,0,0,0-3.34.06,8.46,8.46,0,0,0-2.47.91c-1.11,0-1.58-.43-2.19-.41-1,0-6,.57-6.11-.28-2.08,1.44-2.56.47-4.6-.33.1.81-11.24,1.07-12.54.53-.77-.32-2.87,0-3.82,0-1.55,0-1.64-1-3.83-.46-1.32.31-1.31.63-2.88.68-1,0-.47-.38-1.56-.41-2.16-.07-2.11-.45-3.64-1.16.19.09-.45,1-.91,1a25.51,25.51,0,0,1-2.35-1.29c-.76-.26-.48.51-.46.66a5.72,5.72,0,0,1-2.83,1.12c-2.12.41-1.42-.44-3.58-.42-1.82,0-3.42-.47-4.92-.26-6.3.9-13.84.55-20.34.61-4.84,0-10-.1-14.89-.24-5.5-.16-11-.35-16.4-.66-1.21-.56-1.66,0-3.18.11s-3,0-4,.61c.11,1-1.14-.2-1.26-.24-1.42-.42-3.72,0-5.27,0-.65,0-.82-.11-.86-.44-.09-.76-.46-.83-1.72-1.08-2.48-.5-.09,1.78-.35,1.93s-3.47-.62-4.12-.64c-1,0-.8.54-1.95.38-.38,0-2.61-1-3-.49-.22.27,1.37,1.53-1,1a11.92,11.92,0,0,0-3.43-.51c-4.7,0-9.34.35-14,.07-1.12-.07-1.83-.39-2.9-.47a20.07,20.07,0,0,0-3.91.28,79.8,79.8,0,0,1-9.91.37c-.79,0-1.62,0-2.46,0l-3.32,0a70.86,70.86,0,0,1-8.1-.34l-.72-.12a11.44,11.44,0,0,0,.16-4.14C.47,98.83.37,97.39.31,95.89c0-.75,0-1.51-.08-2.26q0-.69-.06-1.35C0,89.43.3,86.63.3,83.76c0-3.27-.68-9.11.62-11.9.55-1.17,1-2-.06-1.82-.92.11-.1-2.75-.6-3.58-.69-1.16.19-3.39.33-4.6,0-1.61.21-2.42.24-4C.92,52.94.6,48,.46,43.12.41,41.29-.06,37,.68,35.38,1.17,33.19,1,34,.36,33.92c-.32,0,.12-3.78.14-4-.06-1.86.36-3.67.3-5.51,0-.64-.1-1.81.42-1.87A7.3,7.3,0,0,0,.8,20C.15,16.75.91,13.15.8,9.81.77,8.93.75,4.41,1.55,7ZM407.91,44.44a1.21,1.21,0,0,1,.14-.22A1.64,1.64,0,0,0,407.91,44.44Z"/><path class="cls-2" d="M94.82,10.62a.33.33,0,0,0,0,.29A1.77,1.77,0,0,0,94.82,10.62Z"/><path class="cls-2" d="M231.42.74a2.08,2.08,0,0,0-.06-.24A.42.42,0,0,0,231.42.74Z"/><path class="cls-2" d="M399.28,47.4a.46.46,0,0,0,.37,0A1,1,0,0,0,399.28,47.4Z"/><path class="cls-2" d="M6.88,8.64c-.83.18-1.13.95.12,1S8.24,8.59,6.88,8.64Z"/><path class="cls-2" d="M7.17,3.33c-.66,0-1.19.73-.56.71.23,0,2.6-.44,2-.7A6.65,6.65,0,0,0,7.17,3.33Z"/><path class="cls-2" d="M6.54,5.76c.34-.83-1.06-.91-1.87-.42L4.86,7C4.76,6.14,4.8,5.81,6.54,5.76Z"/></g></g></svg>