<svg xmlns="http://www.w3.org/2000/svg" viewBox="0 0 863.01 141.94"><defs><style>.cls-1{fill:#c8ff31;}.cls-2{fill:#c8ff32;}</style></defs><g id="Layer_2" data-name="Layer 2"><g id="content"><rect class="cls-1" x="4.67" y="6.22" width="851.91" height="129.29"/><path class="cls-2" d="M23.46,135.11c.55-.35,3.17-2.06-.46-1.92C20.87,133.22,20.14,135.16,23.46,135.11Z"/><path class="cls-2" d="M141.38,133.64c1.92,0-3.85-1.55-5.06-1.18C134.83,132.91,140.21,133.62,141.38,133.64Z"/><path class="cls-2" d="M233.81,132.11c-2.83-.12-3.56.36-3.4,1l1.81,0C233.08,132.85,233.89,132.46,233.81,132.11Z"/><path class="cls-2" d="M16.67,2.25c1.82,0-1.92-.45,0,0Z"/><path class="cls-2" d="M1.55,7.81c.57,3.72,1.92-.53,2.88,2.67C4,9.11,3.33,14.2,3.57,15.89c.69,4.82,1,.23,1.61.09-.27,5.13.77,2.18,1.35,2.58.89.63-.89,6.71.57,5.25s2.21-4.33,3.51,0c1.41,4.68-.66,11.88-.25,4,.22-4.4-2.35,0-2.3-1.3,0-.15.59-4.63-.25-2.63a20.91,20.91,0,0,0-.92,7.25c0,2.54.63,7,.11,9.26-.32,1.34-1.17.42-1.12,3,0,2.75,1.31,2.77,1.12,5-.31,3.83-1,2.38-.2,7.26a30.61,30.61,0,0,1-.3,8.49c-.4,2.38-1.45,2-1.41,4.65l1.44-.34c0,1.91-2.81,6.6-1.44,7.55.77.54.63,2.69.7,5.19.08,3.06.9,5.17.09,7-.34.73-1.06-.41-1.15,1.41-.13,2.72.9,2.94,1.32,3.74.75,1.43-1.87,10.81.12,7.25.09-.17-.29,6.26.51,6.07,0,2.37-1.62,7.66-.36,7.37a4.06,4.06,0,0,1-.61,2c1,.5,1.93,4.48,1.09,8-.36,1.52-1.75.22-1.71,3.06,0,2.39.85,1.46,1.21,1.67.87.78,1,2.55.71,4.51.51.13.89.34,1,.63.16.5,1.29-.07,1.12.92a14.24,14.24,0,0,0-.15,1.59,8.52,8.52,0,0,0,2.78-.35,1.47,1.47,0,0,0,.89-.75c.27-.57.08-1.23.71-1.62a3.31,3.31,0,0,1,2.43-.28c3.16-.05-.13,1,0,1.32.43.86,5.47,1.2,8.12,1.07,1.21-.06,2.6-.65,3.68-.5,1.49.21,1.64.74,2.93.9-1-.13,1-2.81,1.44-3.22-.24.24,1.54.61,2.46.44,3.44-.62,2-1.06,7.23-.64,2.22.18,8.22.55,8.6.33-2.75,1.47,7.06-.07,3.66,2.06-1.14.71-3,.62-2.81,1.51-.24.45.23,1,.34,1.44a20.05,20.05,0,0,1,5.24-2.62c1.47-.48,2.53-.9,3-1.5.56-.8,6.36-.05,5.09-1.28-.07.4.89.73,2.47.78,2.25.08,1.47-.37,3-.65,2.38-.45,2.61,1.78,1.18,1.81,1.32,0,3-.9,4.35-1.08a37.86,37.86,0,0,1,8.71,0c3.45.37-1.12,1.78-2.59,2.15,2.08,0,3.62-.1,3.47-.74.4,1.69,9.3,2.61,5.48.11-6.3-1.47,5.08-3.68,8.61-2.07-7.62-.31-.29,1.93-5,2,.21,1.28,4.75,1.26,5.54.12.18-.26,3.89.25,4.9.17s-.2-1.45.36-1.79c1.5-.88,4.31-.85,7.16-.44s-4.57.86-4.5,1.17c0,.15,6.17-.06,6.8-.11,2.18-.18.23-1,1.64-1.13.94-.08,5,.52,4.83-.36,3,.54,3.34,1.77,5.55.39,1.51-.95,2.76-.7,5.45-.09,7.86,1.8,13.25,2.41,20.78.15-3.22,1,6.84,1.3,6.62.36,2.82-1.76,8.88.33,1.93.45.52.79,3,1.68,5.66.87,2,0,1.67-.65,1.58-1-1.76,0-5.49-.72-2.91-1.09,4.32-.63,6.16.55,9.37.5,4.21-.07,6.87,0,10,.8,1.17-.73,3.94-.71,6.15-.34a22.94,22.94,0,0,0,3.49.64c2.19.08,1.75-.42,3.41-.68,3.81-.59,2.37,1,4,1,3.07.15,5,.22,5.2,1.2-.19-.83.49-1.45,1.29-2.25.23,1,.38,3.28,5.89,1.81,1.8-.48,3.79-1.45,6.26-1.71s1.44,1.88,4.28.11c-.08-.32,7.18,1.4,8.62,1.11a28.61,28.61,0,0,0,7.46-2.34c.31.2,2.74,2.12,3.23,2.11s1-1.34,2.25-1.06c1.73.4.38,1.49,3,2,2.11.43,7.23-.14,9.21-.44,5.24-.79-8.07.13-6.61-.63a26.43,26.43,0,0,1,6.56-2c3-.56,4.2.16,6.05-.06,2.26-.27,3.3-.75,6.18-.55,2.5.18,4.58.54,7.15.69a35.23,35.23,0,0,0,4.71,0A19.15,19.15,0,0,0,285,132a26.15,26.15,0,0,0,.52,3.28c.19.81,1.18,1.4,2.33,2.16-.31-1.31-2.58-5.25,4.33-5.53,4.9-.19,12.55,0,16.4.85,3.47.81,2.54-.53,4.69-.38s3.87,1.66,6.77.74c1.07-.35,4.46-2.3,4.85-.63,2.92.68,3.61-.25,6.72-.1.62.1.84.25.64.46a22,22,0,0,0,4.9-.41c1.88-.34,3.08.58,5.86-.25-.21-.92,5.42.26,6.67.31,3.9.14,6.63-.43,10.38-.5,4.49-.09,12.14.48,12.48,1.93-.27-1.12,1.12-2.17,6.13-2,2.88.1,5.08.5,7.68.76,3.06.29,2.7-.91,4.11-1,.47,0,.1,1.83.78,2.11,1.43.59,3.52-1.75,4.28-1.76.27,0,.4,1.44,2.38,1.41,1.07,0,2.41-1.08,4.48-1.22,4.19-.3,10.55-.49,12.9.69,4.09,2.06,1.88,1.51,5.92,0,2.94-1.13,7.69,1.38,9.09.88.27-.1-4.19-3.67,2.66-1.72,2.79.8,2.13,1.55,4.94.22,2.08-1,8.2,2,8.9,2.2-.77-.18,4.48-2.48,8.45-2.2-.6,0-1.1.79-1,1,4.37-.08,5.51-1.54,10.84-1.67,1.29,0,3.33,0,3.43.47.23.94,3.85,0,4.51.55.26.21-1.72.94.66,1.11,1.87.13,4.14-.85,5.69-1,3.81-.48,2,1,2.4,1.57,3.83-.07,2.55-.77,4.59-1.38,1.22-.37,2.69.6,5.07-.06,1.07-.3,6.2-.9,6.63-.11.08.14,1.64,2.33,2.69,2,.59-.17-1-.93-.9-1.23.15-.63,2.31-.54,4.12-.57,2,0,.56-.37,2.41-.4,2.42,0,4.29.29,6.87.25,3.24-.05,20.56-1,19.26.64,1.29,0,3.64,0,3.51-.54a40.13,40.13,0,0,0,4.87-.22c2.49-.6,8.37-.12,12.37,0,2.74.09,5.46.32,8.25.27l3.63-.06c-.06-.24.36-.36,1.27-.38,2.67,0,9.55.84,7.56-.73,3.71-.06,1.14.47,2.59.73a37.32,37.32,0,0,0,6.74.55c1.89-.1,2.21-1.3,4.44-.78s2.81,1.47,5.08,2c4.4,1.06,2.39-1.42,5-1.47.83,0,12.69-.21,11,.3,2.76,0,5.71-.18,8.47-.1,4,.11,1.56,1.87,6.48,1.78-.39-.59-4.83-1.27-.94-1.41,2.59-.09,5.74-.22,8.32-.09,2.29.11.7.41,3.5.36,3.21,0,9.5-.84,10.67.4.54.59,2,1,2.29,1.64,0,0-1.1,1,0,.83.09,0,2.3-.51,2.79-.1.19.16-1.49.58.74.54.45,0,.49-.36.41-.71a3.13,3.13,0,0,0-.28-.72c-.17-.71-2.88-1.76-1.6-2.44.79-.43-.31-.62.05-1s4.18.54,4.45.57c2.46.19.82-.42,2.05-.49,1.59-.08,6.58,1.55,5.83,1.78,1.65-.49,4.45-3.3,5-.87,1.37.47,8.07.85,9.73.75,1.89-.12,9.92-1.52,10.34-.47.17.44-1.14.62.21.83,4.5-.07,1.7-.51,3.52-1,.67-.2,5.26,1.74,5.54,1.87-2.84-1.3,10.64-3.14,14.6-2.62,1.19.15,1.5.48,2.66.67,1.63.28,4.49-.36,6.39-.36a10.58,10.58,0,0,1,3.77.61,34.89,34.89,0,0,0,6.27.17c4.26-.06,9.37-.34,13.57,0,1.87.15,1.88.65,3.78.68,2.7,0,4.36-.67,7.09-.84,4.6-.3,11.24.83,15,.29,1.89-.28,8-1.88,8.6-.44.17-.49,1.32-1,3.37-1-.48,1.2,4.94,1.15,7.9,2-.64-.29-1.14-.61-.62-.8,1.48-.54,4.25.71,5,.85a19.92,19.92,0,0,0,5.77,0c1.89-.28,1.85-1.49,2.58-1.55s6.65,1.48,4.86-.25c.49,1.42,7.82,1,11.4,1.26,4.11.24,1.9,1.08,3.88,1.55,0,0,.1-.13.28-.32l.65-.7a4.81,4.81,0,0,1,1.25-1c-1,.14,6.6,2.06,7.34,1-.18.25-1-2.62,1-1.64,1.46.71,2.07,1.4,2.05,2.21a9.35,9.35,0,0,1,6-1.85c2,.08,3.73,1,4.74.95a6.84,6.84,0,0,0,2.1-.61,12.16,12.16,0,0,1,1.36-.43c.25-.06.52-.12.8-.16l.39-.05.24,0c-.52.28,1.44.17,3.15,0-.07-.84-.14-1.69-.19-2.36q0-.47-.06-.78a3.55,3.55,0,0,1,0-.45c.48-5.94,2.33-1.23,3.2-1.44-.22.05-.44-2.71-.49-3-.34-1.79-.65-1.39-1.11-1.39-.78,0-.5-6-.32-7.44a9.79,9.79,0,0,1,.95-3.12c.59-1.6-.77-2.21-.93-2.88-.78-3.24.2-5-1.48-4.57,1.08-.25.42-4.84.81-6.93.1-.55.71-1.26.8-.19.2,2.44,1-.19,1,1.79,0-.64-.14-5.26,0-5.29s.88,5.24,1.27,3.57c.34-1.47-1.16-5.37-1.36-5.74-.88-1.57-1.38.26-2-3.7-.1-6,1.44-10.63.87-16.37-.18-1.77-1.19-5.59-1-7.59.08-.89,1.19.54,1.52-.56.62-2.14-.64-2.95-.87-2.9-1.94-3.11.68-2.57.65-4,0-1.27-1-1.53-1.22-1.3.8-3.45-.24-8.87-.16-12.93.06-2.86,1.27-12.13-.25-12.43,1-1.07-.29-11.12-.24-13.83,0-.62,0-1.35.06-2.12,0-.39,0-.78,0-1.18l0-.59a.69.69,0,0,1,0-.2l0-.14a7.13,7.13,0,0,1,.64-2.13,9.78,9.78,0,0,1,.1-1.39,3.55,3.55,0,0,0-1.92.19c-.39,0-1.14.07-1.78.05-1.14,0-2.23-.12-2.29-.44C844.83,8.56,842,9,839,8.57l-1.33-.31c-.64-.16-1.26-.31-1.09-.32-2.19,0-2.73.49-5.3.57-4,.11-7.89.85-12.07.87-2.86,0,2-1.39,2-1.65s-4.6.66-4.45.62a22.32,22.32,0,0,1-4.55.94c-1.1.08-2.62-.42-4.27-.39.16.67-7,.95-7.25.12-1.64-.65.64-1.89-2.19-2.55.7.16-.08,1.49-1.38,1.63a32,32,0,0,0-3.34.21c-1.08.26-1,.88-2.21,1.2a22,22,0,0,1-9-.19c-6.15-.69-3.66.78-8.22.86,1.66,0,1.3-1.71-2.88-1.64-2.06,0-14.59-.13-14.39.72-1.67.5-7.33-.24-7.48-.84,0,0,6.66-1.6,2.5-1.6-2.79,0-4.22,2.26-5,2.73a3.29,3.29,0,0,1-3.53,0,6.52,6.52,0,0,1-1.11-.82c-.26-.25-.42-.44-.43-.44-.65,0-1.76.92-2.68,1.09-1.16.21-3.36-.52-4-.65-3.14-.69-3.07.33-4.74.88-3.13,1-2.38-.24-2.81-.64s-8.12-.28-7,.76c-.92-1.57-13.37-1.14-17.91-1.38A51.39,51.39,0,0,0,697.24,8c-2.25.41-1.58,1.79-5.56,1.86-.77-.72,5.29-3.46-.79-3.36.49,1.19-.87,2.33-2.61,3.42.27-.17-1-1.19-2.32-1.17-.83,0-3.14,1.24-4.58,1.44-2.47.35-5.61-1-9-1-4.11,0-3.88.77-7.37,1.07a25.06,25.06,0,0,1-6.52-.18c-1.19-.28-1.45-1.68-2.31-1.73-2.55-.12-6.75,1.49-9.88.88a16,16,0,0,1-4.49-2.65c-1.51.45-.52,1.15-3.31,1.66-2.14.39-10.18.55-10.59,1.14-1.69,2.43-3.74-.09-4-1.26-2.4,0-1.4.3-1.69.79s-4.15.27-5.16.3c-3.17.09-5.07.55-8.21.61-1.87.25-3,.15-3.34-.29-1.77-.33-3.17.19-4.35.13-1.64-.08-.05-1.4.27-1.41-4.82.08-3.43,2.1-9.91,1.37-2.49-.28-4.3-.77-2.16-1.41,1.4-.28,4.26-1.28.2-1a53.25,53.25,0,0,0-6.85,1.24,75.58,75.58,0,0,1-10.43,1L561,9.85l-6.88.29-2.23.12a8.48,8.48,0,0,0-.86.07c.36-.71,1.49-2-1.53-2.75.94.22-3.16,1.72-3.72,1.92a8.84,8.84,0,0,1-5.59.66c-2.77-.44-7.78.36-10-.24-.8-.21-.08-1-1.71-1-2.28,0-2.55,1.22-3.72,1.57.31-.1-.91-.91-1.8-.95a2.16,2.16,0,0,1-1.28.31,11.72,11.72,0,0,1-3.49-.65,10.26,10.26,0,0,1-3.38-1.39c-.47.59-2.88.95-5.2,1.1-4.27.26-4.54-.29-5.79-1.11-.26-.17-6.33,1.14-6.68,1.61-1.57,2.07-4.37.74-2.13-.66.8-1.14,2.17-1.48-2.15-1.41-1,.3-.11,1.4-1.87,1.8-1.35.3-2.07-1-3.17-1-.09,0,0,1.69-3.46,1.74-2.37.37-5.41.63-3.73-.42,1.52-.95-3.11-.7-4.56-.28-3.5,1-.76.51-4.46-.35,1.8.42-1.16,1-3.78.36-1.62-.18-3.44-.36-5.21-.39-.73,0-.7.43-2.12.5-3.19.16-6.15-.18-8,.55-2.38.94-5-.75-4.85-1.29.48,2-9.58.44-7.54-.17-4.36,1.3-.06,1.23-5,.08,1.8.42-4.23,1-4.92,1.22-1.24.37.37.6-2.14.64-2-.22-5.61-.64-5.78-1.35-.1-.43-.29-.47-1.93-.45-2.24.08-1.33.66-1.88,1.06s-9.18-1.88-6.95,0c-2.15,0-2.22-.56-1.75-1.07a10.26,10.26,0,0,1-5.73.23c-.27-1.16-2.09-.65-3.09.05-1.21.87.44,1.45-4.58.68-2.65-.4-3.26-.81-3.44-1.57.38,1.65-5.44.67-8.71,1.65-1.39.87-7.69.92-10.56.84a13.93,13.93,0,0,1-3.71-.41c-1.5-.63-3.1-.12-5.47-.11-1.4,0-3.63-.41-4.16-.4-3.29,0-.34,1.21-1.53,1.23-.47,0-2.56-.9-3.65-1-2.79-.28-4.09.11-6.61.27-4.21.25-1.11-1.52-3.89-1.65-7.11-.35-3.83.92-6.3,1.85-1.38.52-11.48.47-13.38.16-2.21-.35-3.46-1-6.1-.18-2.06.62-3,.24-1.93-.45-2.44-.64-8.7-1-6.59.35,1.1.68-10,.43-11.47.38-4.18-.12.12-1.4-1-1.67-.41-.1-8.76,1.26-11.1,1.16-2.94-.13-2-.63-3.09-1.17-1.69-.87-4.18,1.33-3.24,1.32-1.58,0-2-1.41-4.42-1.37-2.58,0,.89,1.67-2.54,1.72-.09-.58.71-1.45-2.16-1.41-2.15.29-.54,1.7-2.77,1.74-2.55,0-5.25-.92-7.74-1.14a81.7,81.7,0,0,0-9.19-.31c-1.19,0-3.85.12-3.74.58.24,1-3.39.06-5.44.09.09.37-3.85-.39-5-.39-4.08,0-6.78.39-8.08-.69-.44-.37-3.62-.19-3.82-1s-6.65-1.21-6.5-.55c0,.1,8.17,1.91,1.18,1.12-1.43.33-1.34,1-3.12,1-5.49.17-3.43-.34-3.75,1-.17.73-3.19.62-4,.08-1.78-1.16-.26-3-.56-4.32-7.62.12.79,4.45-5.57,4.41-2.46,0-17.36-1.21-18.73-.09.22-1.7-6.93.38-10.42.25s-12.2-2.21-14.82-1.52c-5.43,1.42-6.07.33-6.42-1.16-3.54-.83-3.16,2-3.06,2.46-2-.94-5.56-3-11-2.17-2,.31,2.47.83,2.56,1.22.16.66-4.81-.22-5.21.35-.22.32,2.29.73-.6.82a28.07,28.07,0,0,1-5.87-.4c-1.71-.3-2-.88-2.11-1.38s-3-1.43-2.73-.42c.07.31,3.34,2.83-1,2.54-1.56-.1-3.54-.36-5-.53-4.34.07-3.79-1.36-4.44-2.06-1.46-1.58-3.06.65-5,.75S103.77,9,104,10c.36,1.54-2.88.09-4-.22-1.88-.49-5.69,0-7.46.2-2.7.28-2-.24-3.35-.22-2.66,0-4.17.62-7.13.39-1.28-.1-6.45-.88-7.82-.46-.64.19,2,.64-1.09.8-1.45.07-8.94.38-9.11-.31s-10.46.27-12.8-.27c-1-.36-4.53-1.47-6.69-.95-1.82.43.25,1.27-2.71,1.58-2.06.22-12.79-2.17-12.34-.27a29.85,29.85,0,0,1-5.2-1c-2.58-.68-1.5.21-2.42.39S16.33,5.89,16.1,5.6c-.4-.49-2.71-4.12.57-3.35,1.14,0,9.92,1.89,10.22,1.6s-1.67-.41-.93-.79a6,6,0,0,0,3-.69c.83-.54.74-1.78-2.44-1.73C35.88.48,45.37.75,54.78.75,62.23.76,69.72.7,77.16.8c1.5,0,4.45.38,5.35.35,2.55-.09,7.94-1.34,10-.4,1.41.64-3.21,2.25-2.14,2.51-.14,0,6.64-.45,6.5-.41,1.93-.46,1.55-1.17,1.4-1.77.23.94,3,.68,4.27.37,2-.47,2.21.11,3.25-.6.85-.59,3.75-.31,5.16-.08,1.68.26,3.33.87,5.59.63,1.71-.19,2.65-.81,4.8-.51,1.89.26,5,1.37,7.66.64,1.64-.45,1.15-.71,4.41-.59,2.86.11,7.2.44,8.77,1.16,3.72,1.69,2.41-.72,5.4-1.11a21.76,21.76,0,0,1,4.92.12c1.14.14,5.75,1.44,5.94,1.44-.31,0,3.71-2.91,7.19-1.32,2.21.2,3.77.32,6.17.46,1.93.11,6.35,1.5,6.8,1.49-1,0,1.39-1.61,1.71-1.71A13.4,13.4,0,0,1,185.57.9c.24,1,9.62.41,9-.51-.81,1.46,18.09.54,21,.49,3.83-.06,4.34.89,8.39.83,1.06.11,3.09.45,4.07.11.67-.24,1.75-1.41,2.67-1.43.17,0,.3,1.44,2.75,1,.45-.08,4.3-1.07,4.77-.67,1.86,1.55,6.09-.13,10.38.07,2.4.12,1.59.41,2.95.73s5.77-.38,7.47-.39a38.88,38.88,0,0,1,8.59.78c2.05.42,1.44,0,2.88-.27,5.46-.95,16.83-1,22.77-.38,5.29.52,1.9-.73,6.4-.71,3.16,0,5.31.63,6.11,1.36,0-.5.32-1,2.16-1.1,2.23-.11,4.28.4,6.87.36s1.75,1.08,2.48,1.46c1,.5,4.78-1.39,6.76-1.54,2.82-.22,10.2-.58,10.86.44,0-1.13,9.16-.87,11.74-.79a50,50,0,0,1,8.26.73c4.26,1,3.92-.91,6.6-1a49.42,49.42,0,0,1,6,.59c2.09.16,1-.34,2.71-.37,3.5-.06,2.27.42,4.32,1,3.59,1,6.94,2.35,10.41,3.55-1-1-2.3-2-2.53-3-.61-2.84,2.18-.11,6.55-.18l-.43-.2c-.26-.12-.6-.28-.9-.45-.6-.33-1.06-.68-.47-.75,2.74-.35,8,1.05,11.49,1a23.49,23.49,0,0,1,5.8-.36c1,.1,4,1.36,4.89.73.54-.39.18-1.27,2.73-1.31,2,0,3.25.72,3,1.15-.18-.76,8.89-.9,9.06-.15C422-.16,440.72,1,444.68.94c1.75,0,6.9-.29,8.23.19.52.18,1,.86,2.19.84,1.52,0,1.74-.79,1.6-1.23.73.8,4.75,2.8,7,2.12.72-.22-4-1.69.27-1.76,3.16-.95,4.41.89,7.47.84-1.38-2.53,5.62,0,5.78,1.35,3.19,0,.13-1.94,2.63-2.33a59,59,0,0,1,12.47.15c1.65.21,4.51,2.28,6.08,1.69,1.21-.46-1-1.46.12-1.79,3-.05,6.09-.17,9.07-.09a16.15,16.15,0,0,1,5.18.88c2.31.58,2.21-.68,3-1,3.19-1.26,4.87,1.52,5.36,1.52a13.88,13.88,0,0,0,3-.78c2.36-.71,4.81-.54,7.76-.34s2-.33,4.39-.33a77,77,0,0,1,8.13.61c1.22.12,4.12-.86,7.07-.86,1.38,0,1.56.11,1.64.44,2.16.09,4.83-.08,7-.11,2.83,0,1.11-.11,3.49.48,2.58.64,1.72-.7,2.63-.92,5.77-1.39,5,2.22,5.79,2.71,1,.67,1.2-2.23,1.39-2.29,1.18-.4,8.58-.68,8,.19-.11.18-.95,3,1.23,2.58,2.45-.46,1.78-3.35,5.85-3.34,1.56,0-.25.6,2,.56,2.13,0,4.25-.28,4.42.41,2.3-.1,3.19-.65,5.18-.89,1.67-.19,3.2.75,5.69.71-.27-1.13,9,1.19,9.23,1.12,1.55-.47,1.13-1,4.58-1a22.19,22.19,0,0,1,4.39.32c.28.06,3.7,1.21,3.9,1,.68-.68-1.24-1.54,3.67-1.35,4,.15,6.26,1.43,8.78-.14-.16-.69,3.15.6,5.44-.09-.12-.47,5.58-.69,6.61-.74a38.72,38.72,0,0,1,8.25.22C664,1,670.43.52,674,.55c4.64,0,10,.09,14.57.29.88,0,7.69,1.09,6.54,1.44,1.55-.47-2.35-2-.76-2.28l.36.05.92.16,2.77.47c2,.36,4,.73,4,.81A12.25,12.25,0,0,0,707.18.38c2.63-.84,3.88.4,6.08.43,5.15.09,5.81.47,5.83,1.85-.75-2.19,3.59-2,11.12-2.11,6.72-.1,8.54,0,8.82,1.78A7.31,7.31,0,0,0,740.78.72c.64-.68,2.44-.33,3.35.08-1,0,5,.06,3.64-.25.78.18,2.87,1.35,3.66,1.34.54,0-.83-1.44,2.15-1.49,3.5-.05,4.92.79,7.06,1.29-1.15-.27.14-.48,1.73-.63l2.35-.18a10.75,10.75,0,0,0,1.17-.1c.38-.55,1-.36,3.61-.4.85.24-.35,1.17-.41,1.15C768.56,1.41,783,.78,785,.83c1.61.05,4.78.84,4.62.18C793,0,796.52.29,801.12.5c.57,0,6.29.13,5.44.55s.71,2.51,2.67,1.93-.07-2,3.28-2.47c3.15-.39,5.11,1.24,7.57,1.2-.15,0-2.19-.94-1-1.13a56.61,56.61,0,0,1,9.83,0c2.8.42,2.22.38,5.79,0a47,47,0,0,1,9-.06c2.83.31,2.43.77,5,.17q.39-.09.84-.15L850,.5h.36l.46,0c1.25-.05,2.61-.06,3.95,0,2.69,0,5.31.15,7.15.31h.11c-.1,1.1-.34,2.66-.55,4.17a22.32,22.32,0,0,0-.29,4.24c.07,1.15.19,2.1.32,3a4.43,4.43,0,0,0,.1.59l.1.36.22.7a13.16,13.16,0,0,1,.64,3.55c-.84.2-.3,2-.11,3.6.23,1.87-.51,2.39-.9,3.29.73-1.33,1.54,9.24,1.36,11.31,0,.29-3,9.21-1.67,10.15.4.28,1.17-3.11,1.07,1.32-.06,2.48-1.33,6.14-1.32,6.87,0-.18,1.21.35,1.27,3.56s-.52.77-.65,1.29a26.37,26.37,0,0,1,.11,4.3c-.14,1.49-1.23,3.23-.9,4.86.58,2.86,2.83,7.53,1.6,12.21-.27,1-1.46,1-1.43,2.43,0,2.6,1.29,2.06,1.64,3.82,1,4.89-.43,8-1.15,10.92a18.43,18.43,0,0,0-.57,5.44c.18,2,.89-.56,1.27.35,1.32,3.16-.43,7.62-.43,10.91.62-.15.53,2.82.55,4.19,0,2.11.53,3,.48,5.65a26.82,26.82,0,0,1-.29,3.58c-.08.47-.16.88-.25,1.25l-.07.28,0,.14,0,.23-.15.94a56.47,56.47,0,0,0-1,7.86c-.07,1.15.11,1.06.31.68s.38-1.05.36-.86c.57.19.78,1.07,1,3.64-.78.07-1.83.14-3.14.23-4.18.26-5.22,0-5.26-.36s.65-.92,0-1.25c-3.37,0-2.82.65-2.62,1l-1.63,0-.85,0-1.58-.13a30.05,30.05,0,0,0-3.54-.16c-.84,0-1.09.51-2.32.65a32.76,32.76,0,0,1-7.07,0c-1.09-.13-5.69-.9-5.52-.17a1.51,1.51,0,0,0-1.81-1c-1.77.53.3,1.77-4.83,1.65a7.84,7.84,0,0,1-2.69-.47,35.92,35.92,0,0,0-6.28-.17c-4.55.06-10.09.64-14.26-.15-1.91-.36-.61-1.6-2.92-1.28-3.39.47-5.66.64-9.16.9.17.72-9.71.75-11.58.6s-1-2.21-3.65-1.37c-.91.29-1.7,1.29-3.52,1.32-1.62,0-.71-.92-3.1-.88.25,0-3.5.55-4.38.6-3.3.19-6.65.31-10,.39s-6.73.15-10.08.08c-2.51,0-4.21-.38-6.58-.34-1.42,0-3.26.12-4.68.06-1.18-.06-.46-.87-1.4-1.09-1.28-.3-6.71,1.12-8.84,1.24a94.76,94.76,0,0,1-10.39,0,16.62,16.62,0,0,1-3.55-.42c-.63-.23,1-1.06.14-1.05-2.06,0-2.66,1.41-5.31,1.6-2.44.17-2-.57-3.44-.87a35.07,35.07,0,0,0-8.29-.34c-3.54.26-4.61,1.43-8.77.68-2.1-.37-5.45-1.32-8-.55-2.3.69,1.21.75-3.62.83-2.36,0-4.55.06-6.91,0-3.84-.12-21.6.28-21.6-1.33,1.38,1.71-11.46,1-14.42.6-.17-.72-3.52-.9-5.66-.87-3.15.06-2.77.74-4.76,1.05a35.72,35.72,0,0,1-7.37.54,3.87,3.87,0,0,1-2.14-.39c-1.43-.07-2.84.15-4.27,0-3.15-.35-7-1.08-10.29-1.2-2.34-.09-5.23.32-3.68,1-4.46.08-9,.21-13.41.15-3.52-.05-7-.19-10.55-.21-2.18,0-4.35.09-6.53,0-.87,0-2.26-.39-2.61-.38l-21.73.36a43.63,43.63,0,0,1-6.66-.17c-3.83-.46-7.07.35-10.74,0a61.25,61.25,0,0,0-8-.42L493,140c-5.7,0-12.44.21-18-.21-2.1-.16-2.07-.68-4.92-.33-.91.11-5.46,1.59-6.67,1.06-2.58-1.13-2.43.14-5.52.09-3.71-.06-1.11-2.11-6-2-.41.69,2.42,1.33-.87,1.45-2.67.09-12.18.63-11.67-.64.44.76-3.28,1.45-5.91,1.05-1.4-.21-.87-.6-2.24-.84a26.52,26.52,0,0,0-6.66.05,29.69,29.69,0,0,0-4.93.91c-2.22,0-3.15-.43-4.36-.41-2,0-12,.57-12.18-.28-4.15,1.44-5.11.47-9.17-.33.19.81-22.42,1.07-25,.53-1.53-.32-5.71,0-7.62,0-3.08.06-3.26-1-7.63-.46-2.63.32-2.61.63-5.73.69-2.08,0-.94-.38-3.12-.42-4.31-.07-4.2-.44-7.26-1.16.39.09-.88,1-1.8,1.06-.75,0-3.61-1.11-4.69-1.29-1.52-.27-.95.51-.92.66-.92.57-3.58.91-5.65,1.11-4.23.42-2.83-.43-7.12-.41-3.64,0-6.82-.48-9.81-.26-12.57.9-27.59.55-40.55.6-9.66.05-20-.09-29.7-.23-11-.16-21.87-.35-32.68-.66-2.41-.57-3.3,0-6.34.1-2.86.05-6,0-8,.62.23,1-2.26-.2-2.5-.24-2.84-.42-7.41,0-10.51,0-1.3,0-1.64-.1-1.72-.43-.18-.77-.92-.83-3.42-1.08-5-.51-.18,1.77-.7,1.93s-6.92-.62-8.22-.64c-1.9,0-1.6.54-3.89.38-.75-.06-5.2-1-6-.5-.44.28,2.73,1.54-1.93,1a43.21,43.21,0,0,0-6.83-.51c-9.36,0-18.61.34-28,.07-2.23-.07-3.66-.4-5.78-.47-2.91-.11-5.08.14-7.81.28-6.41.33-13.24.45-19.75.37-6.3-.08-13.75.23-19.73-.34-2.63-.25-2.51-.58-5.86-.27s-7.09.37-10.59.46c-5.69.13-11.27-.13-17-.14-3.27,0-7.81.17-12.23.17-2.21,0-4.39,0-6.36-.15l-2.22-.1L7,139.65c-1.38-.11-2.58-.24-3.56-.4l-2.12-.37c.32-2.46.39-3.66-.43-2.84-.46.52-.48-1.77-.46-4.45,0-1.13,0-2.35,0-3.43a7.4,7.4,0,0,0-.18-1.85c-.69-2.31.19-6.75.33-9.17,0-3.2.21-4.83.24-8C.92,99.36.6,89.51.46,79.78.41,76.14-.06,67.52.68,64.35,1.17,60,1,61.59.36,61.44c-.32-.07.12-7.52.14-8-.06-3.71.36-7.33.3-11,0-1.28-.1-3.61.42-3.74a28.11,28.11,0,0,0-.42-5C.15,27.21.91,20,.8,13.38.77,11.63.75,2.61,1.55,7.81Zm859.9,16.86a2.56,2.56,0,0,1,.14-.44A4.56,4.56,0,0,0,861.45,24.67Z"/><path class="cls-2" d="M184.38,10.62a.21.21,0,0,0-.09.29A.74.74,0,0,0,184.38,10.62Z"/><path class="cls-2" d="M456.7.74a.67.67,0,0,0-.12-.24C456.56.56,456.61.64,456.7.74Z"/><path class="cls-2" d="M852.82,30.57a.29.29,0,0,0,.37-.07A.52.52,0,0,0,852.82,30.57Z"/><path class="cls-2" d="M9.09,8.64c-1.66.18-2.27.95.22,1C11.61,9.56,11.79,8.59,9.09,8.64Z"/><path class="cls-2" d="M9.65,3.33c-1.32,0-2.37.73-1.11.71.46,0,5.17-.44,4.07-.7A26.55,26.55,0,0,0,9.65,3.33Z"/><path class="cls-2" d="M8.41,5.76c.66-.83-2.12-.91-3.74-.42L5.05,7C4.86,6.14,4.93,5.81,8.41,5.76Z"/></g></g></svg>