<svg xmlns="http://www.w3.org/2000/svg" viewBox="0 0 569.91 141.94"><defs><style>.cls-1{fill:#c8ff31;}.cls-2{fill:#c8ff32;}</style></defs><g id="Layer_2" data-name="Layer 2"><g id="content"><rect class="cls-1" x="4.67" y="6.22" width="558.82" height="129.29"/><path class="cls-2" d="M5.06,110.06c.35.39,2.07,2.23,1.92-.32C7,108.24,5,107.73,5.06,110.06Z"/><path class="cls-2" d="M61.92,133.64c1.35,0-2.7-1.55-3.54-1.18C57.33,132.91,61.1,133.62,61.92,133.64Z"/><path class="cls-2" d="M126.74,132.11c-2-.12-2.49.36-2.38,1l1.27,0C126.23,132.85,126.8,132.46,126.74,132.11Z"/><path class="cls-2" d="M13.09,2.25c1.27,0-1.35-.45,0,0Z"/><path class="cls-2" d="M1.55,7.34C2.12,9.94,3.47,7,4.43,9.2c-.41-1-1.1,2.62-.86,3.8.69,3.38,1,.16,1.61.07-.27,3.59.77,1.53,1.35,1.81.89.43-.89,4.7.57,3.67s2.21-3,3.51,0c1.41,3.28-.66,8.33-.25,2.79.22-3.08-2.35,0-2.3-.91,0-.1.59-3.25-.25-1.84a10.6,10.6,0,0,0-.92,5.08c0,1.78.63,4.9.11,6.49-.32.94-1.17.29-1.12,2.09S7.19,34.19,7,35.78c-.31,2.68-1,1.67-.2,5.09a15.2,15.2,0,0,1-.3,6c-.4,1.66-1.45,1.43-1.41,3.26l1.44-.24c0,1.33-2.81,4.62-1.44,5.29.77.38.63,1.89.7,3.64.08,2.15.9,3.63.09,4.88-.34.51-1.06-.29-1.15,1-.13,1.91.9,2.06,1.32,2.62.75,1-1.87,7.58.12,5.09.09-.12-.29,4.39.51,4.26,0,1.66-1.62,5.37-.36,5.16a2.34,2.34,0,0,1-.61,1.4c1,.35,1.93,3.14,1.09,5.59-.36,1.06-1.75.16-1.71,2.15,0,1.67.85,1,1.21,1.17,1.22.51,1.06,5.49.08,6.32-.51.42.06,1.22-.93,1.38l-1.59.26c.08,3.43,1.94,2,2.72,2.9a1.74,1.74,0,0,1,.28,1.71c0,2.21-1-.09-1.32,0-.86.31-1.2,3.84-1.07,5.7.06.85.65,1.83.5,2.58-.2,1.05-.73,1.15-.9,2.06.13-.73,2.81.71,3.22,1-.24-.16-.61,1.08-.44,1.73.63,2.41,1.06,1.44.64,5.07-.17,1.56-.55,5.77-.32,6-.37-.48-.55-.41-.65-.08l-.06.3,0,.27c0,.2,0,.42,0,.63a2.94,2.94,0,0,1-.26,1.18c-.18.28-.49.46-1,.11-.71-.5-.62-2-1.51-1.75-.44-.18-1,.25-1.44.41,1,1.39,1.81,2.16,2.62,3.37.48.69.9.93,1.5.56a.18.18,0,0,1,.09,0,5.08,5.08,0,0,1,2-.4c.66-.06,1.15-.2,1.16-.79-.22.4.06.73.81.78.53,0,.7-.05.84-.19a1.87,1.87,0,0,1,.83-.46c1.67-.45,1.83,1.78.83,1.81.93,0,2.11-.9,3.05-1.08a18.7,18.7,0,0,1,6.11,0c2.42.37-.79,1.78-1.81,2.15,1.45,0,2.53-.1,2.43-.74.28,1.69,6.52,2.61,3.84.11-4.42-1.47,3.57-3.68,6-2.07-5.35-.31-.2,1.93-3.5,2,.15,1.28,3.33,1.26,3.89.12.12-.26,2.73.25,3.44.17s-.15-1.45.25-1.79c1-.88,3-.85,5-.44s-3.21.86-3.15,1.17a39.58,39.58,0,0,0,4.76-.11c1.54-.18.17-1,1.15-1.13.66-.08,3.54.52,3.39-.36,2.11.54,2.34,1.77,3.89.39,1.07-.95,1.94-.7,3.83-.09,5.51,1.8,9.28,2.41,14.57.15-2.26,1,4.8,1.3,4.64.36,2-1.76,6.23.33,1.35.45.37.79,2.08,1.68,4,.87,1.38,0,1.17-.65,1.12-1-1.24,0-3.86-.72-2-1.09,3-.63,4.32.55,6.57.5,3-.07,4.82,0,7,.8.82-.73,2.76-.71,4.32-.34a11.73,11.73,0,0,0,2.44.64c1.54.08,1.24-.42,2.4-.68,2.67-.59,1.66,1,2.82,1,2.15.15,3.48.22,3.64,1.2-.13-.83.34-1.45.91-2.25.16,1,.26,3.28,4.13,1.81,1.26-.48,2.66-1.45,4.39-1.71s1,1.88,3,.11c-.06-.32,5,1.4,6,1.11a16.23,16.23,0,0,0,5.24-2.34c.22.2,1.91,2.12,2.26,2.11s.73-1.34,1.58-1.06c1.21.4.27,1.49,2.11,2,1.48.43,5.07-.14,6.46-.44,3.67-.79-5.66.12-4.63-.63a14.67,14.67,0,0,1,4.6-2c2.1-.56,2.94.16,4.24-.06,1.58-.27,2.31-.75,4.33-.55,1.75.18,3.21.54,5,.69a17.43,17.43,0,0,0,3.31,0,10.87,10.87,0,0,0,1.46-.54c-.08,0,.3,2.91.36,3.28.14.81.83,1.4,1.64,2.16-.22-1.31-1.82-5.25,3-5.53,3.44-.19,8.8,0,11.5.85,2.44.81,1.79-.53,3.29-.38s2.71,1.66,4.75.74c.75-.35,3.12-2.3,3.4-.63,2,.68,2.53-.25,4.71-.1.44.1.59.25.45.46a11,11,0,0,0,3.44-.41c1.32-.34,2.16.58,4.11-.25-.15-.92,3.8.26,4.68.31,2.73.14,4.64-.43,7.28-.5,3.14-.09,8.51.48,8.75,1.93-.19-1.12.79-2.18,4.3-2,2,.11,3.56.51,5.38.77,2.15.29,1.89-.91,2.88-1,.33,0,.08,1.83.55,2.11,1,.59,2.47-1.75,3-1.76.19,0,.28,1.44,1.67,1.41.75,0,1.69-1.08,3.15-1.22,2.93-.3,7.39-.49,9,.69,2.87,2.06,1.32,1.51,4.15,0,2.07-1.13,5.4,1.38,6.38.88.18-.1-2.94-3.67,1.86-1.72,2,.8,1.5,1.55,3.46.22,1.46-1,5.75,2,6.25,2.2-.54-.18,3.14-2.48,5.92-2.2-.41,0-.77.79-.69,1,3.07-.08,3.86-1.54,7.6-1.67.91,0,2.33,0,2.41.47.16.94,2.7,0,3.16.55.19.21-1.21.94.46,1.11,1.32.13,2.91-.85,4-1,2.67-.48,1.42,1,1.67,1.56,2.69-.06,1.79-.76,3.23-1.37.85-.37,1.88.6,3.55-.06.75-.3,4.35-.9,4.65-.11.06.14,1.15,2.33,1.89,2,.41-.17-.68-.93-.64-1.23.11-.63,1.63-.54,2.89-.57s.4-.37,1.69-.4c1.71,0,3,.29,4.82.25,2.28-.05,14.42-1,13.51.64.9,0,2.55,0,2.46-.54a19.93,19.93,0,0,0,3.42-.22c1.74-.6,5.87-.12,8.67,0,1.93.09,3.83.32,5.79.27l2.54-.06c0-.24.26-.36.89-.38,1.88,0,6.7.84,5.31-.73,2.6-.06.79.47,1.81.73a18.59,18.59,0,0,0,4.73.55c1.32-.1,1.55-1.3,3.11-.78s2,1.47,3.56,2c3.09,1.06,1.68-1.42,3.55-1.47.58,0,8.89-.21,7.7.3,1.94,0,4-.18,5.94-.1,2.84.11,1.09,1.87,4.55,1.78-.28-.59-3.39-1.27-.66-1.41a51.56,51.56,0,0,1,5.83-.09c1.61.11.49.41,2.46.36,2.25,0,6.66-.84,7.48.4.38.59,1.37,1,1.61,1.64,0,0-.78,1,0,.83.07,0,1.62-.51,2-.1.13.16-1,.58.52.54.32,0,.34-.36.29-.71a4.2,4.2,0,0,0-.2-.72c-.12-.71-2-1.76-1.12-2.44.55-.43-.21-.62,0-1s2.93.54,3.12.56c1.72.2.57-.41,1.43-.48,1.12-.08,4.62,1.55,4.09,1.78,1.16-.5,3.12-3.3,3.53-.87.95.47,5.65.85,6.82.75s6.95-1.52,7.25-.47c.12.44-.8.62.15.83,3.15-.07,1.18-.51,2.47-1,.46-.2,3.68,1.74,3.88,1.87-2-1.3,7.46-3.14,10.24-2.62.84.15,1,.48,1.86.67,1.15.28,3.15-.36,4.48-.36a5.47,5.47,0,0,1,2.65.61,17.68,17.68,0,0,0,4.4.17,79.43,79.43,0,0,1,9.51,0c1.31.15,1.32.65,2.65.68,1.9,0,3.06-.67,5-.84,3.23-.3,7.89.83,10.5.29,1.33-.28,5.58-1.88,6-.44.12-.49.93-1,2.37-1-.34,1.2,3.46,1.15,5.54,2-.45-.29-.8-.61-.43-.8,1-.54,3,.71,3.52.85a9.87,9.87,0,0,0,4,0c1.33-.28,1.29-1.49,1.8-1.55s4.67,1.48,3.41-.25c.35,1.42,5.49,1,8,1.26,2.88.24,1.33,1.08,2.72,1.55,0,0,.31-.51.65-1a4,4,0,0,1,.88-1c-.67.14,4.63,2.06,5.15,1-.13.25-.71-2.62.68-1.64a2.62,2.62,0,0,1,1.44,2.21,5.46,5.46,0,0,1,4.19-1.85c1.43.08,2.62,1,3.32.95a1.75,1.75,0,0,0,.69-.19l.37-.19a1.25,1.25,0,0,0,.35-.23,2.41,2.41,0,0,1,1.12-.68c-.28.28,1.07.17,2.22,0-.13-1.29-.29-2.42-.26-2.55a1.73,1.73,0,0,1,.58-1,.69.69,0,0,1,.87-.12,6.71,6.71,0,0,1,.95.58c.3.21.58.43.8.42-.11,0-.22-.47-.31-1l-.19-1.14c-.34-1.26-.64-1-1.1-1-.79,0-.5-4.21-.33-5.22a5.52,5.52,0,0,1,1-2.19c.59-1.12-.77-1.55-.93-2-.78-2.28.2-3.48-1.48-3.2,1.07-.18.42-3.4.81-4.86.1-.39.71-.89.8-.14.2,1.71,1-.13,1,1.25,0-.45-.14-3.68,0-3.7s.87,3.67,1.26,2.5-1.15-3.77-1.36-4c-.87-1.11-1.37.18-2-2.6-.1-4.22,1.43-7.46.86-11.48-.17-1.24-1.18-3.92-1-5.32.08-.63,1.2.38,1.52-.4a1.34,1.34,0,0,0-.86-2c-2-2.18.68-1.8.65-2.82a1,1,0,0,0-1.22-.91c.8-2.42-.24-6.22-.16-9.07.06-2,1.27-8.51-.26-8.72,1.06-.75-.28-7.79-.23-9.7,0-1.73.18-4.72.82-5.72,0-1.35.41-2.64-.09-3.81,0-.94-.24-3.79.39-3.89.17-2.15-.26-4.1.16-6.25l.31-.93c.15-.45.31-.88.31-.77,0-1.53-.49-1.91-.56-3.71-.12-2.84-.86-5.54-.88-8.47,0-2,1.4,1.43,1.65,1.39s-.65-3.23-.61-3.12a11.36,11.36,0,0,1-1-3.19,2.76,2.76,0,0,1,0-.63l.07-.35a1,1,0,0,1,.08-.23,2.37,2.37,0,0,0,.21-1c-.26.1-.47-.25-.57-.66a2.84,2.84,0,0,1,.08-1.46c-.09-.08-.1-.2,0-.37,0-.33.4-.8.81-1.27s.76-1,0-1.28c.35.16-1.12,1.49-1.78,1.63a8.13,8.13,0,0,0-1.68.21,1.08,1.08,0,0,0-.52.58c-.08.11-.09.23-.22.34a1.71,1.71,0,0,1-.49.28,11,11,0,0,1-6.32-.19c-4.31-.69-2.56.78-5.76.86,1.16,0,.91-1.71-2-1.64-1.44,0-10.23-.13-10.09.72-1.17.5-5.14-.24-5.24-.84,0,0,4.66-1.6,1.75-1.6-2,0-3,2.26-3.48,2.73a1.75,1.75,0,0,1-2.48,0,4.76,4.76,0,0,1-.77-.82c-.19-.25-.31-.44-.31-.44-.45,0-1.23.92-1.88,1.09-.81.21-2.35-.52-2.79-.65-2.2-.69-2.15.33-3.33.88-2.19,1-1.67-.24-2-.64s-5.69-.28-4.94.76c-.65-1.57-9.38-1.14-12.56-1.38A25.48,25.48,0,0,0,490.36,8c-1.58.41-1.11,1.79-3.9,1.86-.54-.72,3.72-3.46-.55-3.36.34,1.19-.61,2.33-1.83,3.42.19-.17-.74-1.19-1.63-1.17-.58,0-2.2,1.24-3.21,1.44-1.73.35-3.94-1-6.29-1-2.88,0-2.72.77-5.17,1.07a12.37,12.37,0,0,1-4.57-.18c-.83-.28-1-1.68-1.62-1.73-1.79-.12-4.73,1.49-6.93.88a11.23,11.23,0,0,1-3.15-2.65c-1.06.45-.36,1.15-2.32,1.66-1.5.39-7.14.55-7.42,1.14-1.19,2.43-2.63-.09-2.81-1.26-1.69,0-1,.3-1.19.79s-2.91.27-3.62.3c-2.22.09-3.55.55-5.76.61-1.31.25-2.09.15-2.33-.29-1.25-.33-2.23.19-3.06.13-1.14-.08,0-1.4.19-1.41-3.38.08-2.4,2.1-6.95,1.37-1.74-.28-3-.77-1.51-1.41,1-.28,3-1.28.14-1a27.22,27.22,0,0,0-4.8,1.24,37.9,37.9,0,0,1-7.32,1l-8,.44-4.82.29-1.57.12a4.46,4.46,0,0,0-.6.07c.26-.71,1-2-1.07-2.75.65.22-2.22,1.72-2.61,1.92a4.56,4.56,0,0,1-3.92.66c-1.94-.44-5.45.36-7-.24-.56-.21-.06-1-1.2-1-1.6,0-1.79,1.22-2.61,1.57.22-.1-.63-.91-1.26-.95-.12.17-.42.28-.9.31a6.13,6.13,0,0,1-2.45-.65,6.36,6.36,0,0,1-2.37-1.39c-.33.59-2,.95-3.64,1.1-3,.26-3.19-.29-4.07-1.11-.18-.17-4.43,1.14-4.68,1.61-1.1,2.07-3.07.74-1.49-.66C349,7.64,350,7.3,347,7.37c-.72.3-.08,1.4-1.31,1.8-1,.3-1.45-1-2.23-1-.06,0,0,1.69-2.42,1.74-1.67.37-3.8.63-2.62-.42s-2.18-.7-3.19-.28c-2.46,1-.54.51-3.14-.35,1.27.42-.8,1-2.65.36a27.76,27.76,0,0,0-3.65-.39c-.51,0-.49.43-1.48.5-2.24.16-4.32-.18-5.6.55-1.68.94-3.53-.75-3.41-1.29.34,2-6.72.44-5.29-.17-3.05,1.3,0,1.23-3.49.08,1.25.42-3,1-3.46,1.22-.87.37.26.6-1.5.64-1.42-.22-3.93-.64-4-1.35-.07-.43-.2-.47-1.35-.45-1.58.08-.94.66-1.32,1.06s-6.44-1.88-4.88,0c-1.51,0-1.55-.56-1.23-1.07a5.14,5.14,0,0,1-4,.23c-.19-1.16-1.47-.65-2.17.05-.85.87.31,1.45-3.21.68-1.86-.4-2.29-.81-2.42-1.57.28,1.65-3.81.67-6.1,1.65-1,.87-5.4.92-7.41.84a7,7,0,0,1-2.6-.41c-1-.63-2.17-.12-3.84-.11-1,0-2.54-.41-2.91-.4-2.31,0-.24,1.21-1.08,1.23-.32,0-1.79-.9-2.55-1-2-.28-2.88.11-4.64.27-2.95.25-.78-1.52-2.73-1.65-5-.35-2.69.92-4.42,1.85-1,.52-8.05.47-9.38.16-1.55-.35-2.43-1-4.28-.18-1.44.62-2.12.24-1.35-.45-1.71-.64-6.1-1-4.62.35.77.68-7,.43-8,.38-2.93-.12.09-1.4-.72-1.67-.3-.1-6.15,1.26-7.79,1.16-2.06-.13-1.42-.63-2.16-1.17-1.19-.87-2.94,1.33-2.28,1.32-1.11,0-1.41-1.41-3.1-1.37s.62,1.67-1.78,1.72c-.06-.58.5-1.45-1.51-1.41-1.51.29-.39,1.7-2,1.74-1.78,0-3.68-.92-5.43-1.14a40.24,40.24,0,0,0-6.44-.31c-.84,0-2.7.12-2.63.58.17,1-2.37.06-3.81.09.06.37-2.7-.39-3.49-.39-2.86,0-4.76.39-5.67-.69-.3-.37-2.53-.19-2.68-1s-4.66-1.21-4.55-.55c0,.1,5.72,1.91.82,1.12-1,.33-.94,1-2.19,1-3.85.17-2.4-.34-2.63,1-.12.73-2.23.62-2.81.08-1.24-1.16-.18-3-.39-4.32-5.34.12.55,4.45-3.9,4.41-1.73,0-12.18-1.21-13.14-.09.15-1.7-4.86.38-7.31.25S114.84,8.66,113,9.35c-3.81,1.42-4.26.33-4.51-1.16-2.48-.83-2.21,2-2.14,2.46-1.44-.94-3.9-3-7.7-2.17-1.41.31,1.74.83,1.8,1.22.11.66-3.37-.22-3.65.35-.16.32,1.6.73-.42.82a14,14,0,0,1-4.12-.4c-1.2-.3-1.4-.88-1.48-1.38s-2.08-1.43-1.91-.42c0,.31,2.34,2.83-.72,2.54-1.1-.1-2.49-.36-3.49-.53-3,.07-2.65-1.36-3.11-2.06-1-1.58-2.15.65-3.53.75S74.17,9,74.34,10c.25,1.54-2,.09-2.83-.22-1.32-.49-4,0-5.23.2-1.9.28-1.42-.24-2.35-.22-1.87,0-2.93.62-5,.39-.9-.1-4.52-.88-5.49-.46-.45.19,1.41.64-.76.8-1,.07-6.27.38-6.39-.31s-7.34.27-9-.27c-.71-.36-3.18-1.47-4.7-.95-1.27.43.18,1.27-1.9,1.58-1.44.22-9-2.17-8.65-.27a15.46,15.46,0,0,1-3.65-1c-1.81-.68-1.05.21-1.7.39s-3.87-3.78-4-4.07c-.27-.49-1.89-4.12.41-3.35.8,0,7,1.89,7.16,1.6s-1.17-.41-.65-.79a3.25,3.25,0,0,0,2.09-.69c.58-.54.52-1.78-1.71-1.73C26.56.48,33.21.75,39.81.75,45,.76,50.29.7,55.51.8c1.05,0,3.12.38,3.75.35,1.79-.09,5.56-1.34,7-.4,1,.64-2.25,2.25-1.5,2.51-.1,0,4.66-.45,4.56-.41,1.35-.46,1.08-1.17,1-1.77.16.94,2.08.68,3,.37,1.37-.47,1.55.11,2.27-.6S78.21.54,79.21.77c1.17.26,2.33.87,3.92.63C84.32,1.21,85,.59,86.49.89c1.32.26,3.51,1.37,5.37.64C93,1.08,92.67.82,95,.94c2,.11,5.06.44,6.16,1.16,2.6,1.69,1.68-.72,3.78-1.11a10.75,10.75,0,0,1,3.45.12c.8.14,4,1.44,4.17,1.44-.22,0,2.6-2.91,5-1.32,1.55.2,2.64.32,4.32.46,1.36.11,4.46,1.5,4.78,1.49-.68,0,1-1.61,1.19-1.71A6.82,6.82,0,0,1,131.53.9c.17,1,6.75.41,6.3-.51-.57,1.46,12.68.54,14.75.49,2.68-.06,3,.89,5.88.83.74.12,2.17.45,2.85.11.47-.24,1.23-1.41,1.88-1.43a1.44,1.44,0,0,0,1.93,1c.31-.08,3-1.07,3.34-.67,1.31,1.55,4.27-.13,7.28.07,1.68.12,1.12.41,2.07.73s4.05-.38,5.24-.39a19.41,19.41,0,0,1,6,.78c1.44.42,1,0,2-.27,3.83-.95,11.81-1,16-.38,3.71.52,1.33-.73,4.49-.71,2.22,0,3.73.63,4.28,1.36,0-.5.23-1,1.52-1.1,1.57-.11,3,.4,4.82.36s1.22,1.08,1.74,1.46c.68.5,3.35-1.39,4.74-1.54,2-.22,7.15-.58,7.62.44,0-1.13,6.42-.87,8.23-.79a24.89,24.89,0,0,1,5.79.73c3,1,2.75-.91,4.63-1a24.86,24.86,0,0,1,4.2.59c1.46.16.68-.34,1.9-.37,2.45-.06,1.59.42,3,1,2.52,1,4.87,2.35,7.3,3.55-.7-1-1.61-2-1.77-3-.43-2.84,1.53-.11,4.59-.18,0,0-.51-.32-.93-.65s-.74-.68-.33-.75c1.92-.35,5.64,1.05,8.06,1A11.63,11.63,0,0,1,285,1.34c.71.1,2.82,1.36,3.43.73.38-.39.13-1.27,1.92-1.31,1.43,0,2.27.72,2.1,1.15-.12-.76,6.23-.9,6.36-.15C297.37-.16,310.47,1,313.25.94c1.22,0,4.83-.29,5.77.19.36.18.73.86,1.54.84,1.06,0,1.21-.79,1.11-1.23.52.8,3.33,2.8,4.93,2.12.51-.22-2.81-1.69.19-1.76,2.22-.95,3.1.89,5.24.84-1-2.53,3.94,0,4.06,1.35,2.23,0,.09-1.94,1.84-2.33a29.15,29.15,0,0,1,8.75.15c1.16.21,3.15,2.28,4.26,1.69.85-.46-.68-1.46.08-1.79,2.09-.05,4.27-.17,6.37-.09A8.39,8.39,0,0,1,361,1.8c1.62.58,1.55-.68,2.09-1,2.24-1.26,3.41,1.52,3.76,1.52a7.36,7.36,0,0,0,2.1-.78c1.66-.71,3.38-.54,5.45-.34s1.41-.33,3.07-.33a38.26,38.26,0,0,1,5.71.61c.86.12,2.89-.86,5-.86,1,0,1.09.11,1.15.44,1.51.09,3.38-.08,4.92-.11,2,0,.79-.11,2.46.48s1.2-.7,1.84-.92c4.05-1.39,3.54,2.22,4.06,2.71.71.67.84-2.23,1-2.29.83-.4,6-.68,5.65.19-.08.18-.67,3,.86,2.58,1.72-.46,1.25-3.35,4.11-3.34,1.09,0-.18.6,1.42.56s3-.28,3.1.41c1.61-.1,2.24-.65,3.64-.89,1.17-.19,2.24.75,4,.71-.19-1.13,6.29,1.19,6.47,1.12,1.09-.47.79-1,3.22-1a11,11,0,0,1,3.07.32c.2.06,2.6,1.21,2.73,1,.49-.68-.86-1.54,2.58-1.35,2.79.15,4.39,1.43,6.16-.14-.12-.69,2.21.6,3.81-.09-.08-.47,3.91-.69,4.64-.74a19.09,19.09,0,0,1,5.78.22c2.25.56,6.77.06,9.28.09,3.26,0,7,.09,10.22.29.62,0,5.39,1.09,4.59,1.44,1.08-.47-1.65-2-.54-2.28l.26.05.64.16,1.94.47a21.65,21.65,0,0,1,2.83.81A6.61,6.61,0,0,0,497.33.38c1.85-.84,2.72.4,4.27.43,3.61.09,4.07.47,4.09,1.85-.53-2.19,2.51-2,7.79-2.11,4.72-.1,6,0,6.19,1.78A6.45,6.45,0,0,0,520.9.72c.45-.68,1.71-.33,2.34.08-.71,0,3.52.06,2.56-.25.55.18,2,1.35,2.57,1.34.38,0-.59-1.44,1.51-1.49,2.45-.05,3.45.79,5,1.29-1.63-.54,3.63-.82,3.67-.91.28-.55.72-.36,2.54-.4.59.24-.24,1.17-.29,1.15-.37-.12,9.77-.76,11.19-.7,1.13.05,3.35.84,3.24.18A8.33,8.33,0,0,1,557,.48a2.43,2.43,0,0,1,.37,0l.45,0,.9-.05c.6,0,1.22,0,1.85,0,2.53,0,5.21.09,8.14.2h.51c0,2-.17,7.76-.54,6.92-.19-.4-.81.16-1.32,1a3.31,3.31,0,0,0-.6,2.73c.29,1,.8,1,1.29,1.14a.9.9,0,0,1,.36.19c.12.1.23.25.33.33a2.14,2.14,0,0,1,.48,1.16c.4,2.21-1.24,3.59-1.2,5.31,0-.11.94-1.54,1.13-.67a27,27,0,0,1,0,6.9c-.41,2-.38,1.55,0,4.05a23.24,23.24,0,0,1,.06,6.29c-.3,2-.77,1.7-.17,3.52a12.43,12.43,0,0,1,0,5.46c-.16.76-1,2.08-.84,3.13.29,1.91,1.22,2.45,1.37,4.72-.83.14-.29,1.38-.1,2.52.22,1.31-.52,1.68-.9,2.31.72-.93,1.54,6.48,1.36,7.93,0,.2-3,6.46-1.67,7.12.4.19,1.17-2.18,1.07.92-.06,1.74-1.33,4.31-1.32,4.82,0-.13,1.21.24,1.26,2.5s-.51.54-.64.9a13.7,13.7,0,0,1,.11,3c-.14,1-1.23,2.26-.9,3.41.58,2,2.83,5.28,1.59,8.56-.26.7-1.45.68-1.43,1.71.05,1.82,1.3,1.44,1.65,2.67,1,3.43-.43,5.58-1.16,7.66a9.26,9.26,0,0,0-.56,3.81c.18,1.42.89-.39,1.27.25,1.32,2.22-.43,5.35-.44,7.65.63-.1.53,2,.56,2.94,0,1.48.53,2.1.47,4a13.93,13.93,0,0,1-.1,1.42l0,.3,0,.5c0,.35-.07.68-.1,1a22,22,0,0,1-.54,2.91,24.66,24.66,0,0,0-1,5.21c-.06.79.12.77.31.57s.39-.63.36-.5c.58.3.79,1,1,2.85-.53.07-1.24.14-2.13.23-5.76.53-3-.95-4.16-1.61-2.35,0-1.79.65-1.54,1-1.75,0-3.1-.12-4.44-.21l-1.23-.12c-.41,0-.85-.05-1.35,0s-.77.51-1.63.65a16.17,16.17,0,0,1-5,0c-.76-.13-4-.9-3.86-.17,0-.09-.42-1.32-1.28-1-1.23.53.21,1.77-3.38,1.65a4.07,4.07,0,0,1-1.89-.47,17.7,17.7,0,0,0-4.4-.17c-3.19.06-7.08.64-10-.15-1.34-.36-.44-1.6-2-1.28a64.18,64.18,0,0,1-6.43.9c.12.72-6.81.75-8.12.6s-.72-2.21-2.55-1.37c-.64.29-1.2,1.29-2.48,1.32-1.13,0-.49-.92-2.17-.88.18,0-2.46.55-3.07.6-2.31.19-4.67.31-7,.39s-4.72.15-7.07.08c-1.76,0-2.95-.38-4.62-.34-1,0-2.28.12-3.28.05-.83-.05-.32-.86-1-1.08-.89-.3-4.71,1.12-6.2,1.24a46.68,46.68,0,0,1-7.29,0,8.44,8.44,0,0,1-2.49-.42c-.44-.23.72-1.06.11-1.05-1.45,0-1.87,1.41-3.73,1.6-1.71.17-1.4-.57-2.41-.87a17.38,17.38,0,0,0-5.82-.34c-2.48.26-3.23,1.43-6.14.68-1.48-.37-3.83-1.32-5.63-.55-1.61.69.86.75-2.53.83-1.66,0-3.19.06-4.84,0-2.7-.12-15.16.28-15.16-1.33,1,1.71-8,1-10.11.6-.12-.72-2.47-.9-4-.87-2.21.05-1.94.74-3.33,1.05a17.85,17.85,0,0,1-5.18.54,2.08,2.08,0,0,1-1.5-.39c-1-.07-2,.15-3,0a72,72,0,0,0-7.22-1.2c-1.63-.09-3.67.32-2.58,1-3.12.08-6.27.21-9.4.15-2.47-.05-4.93-.19-7.4-.21-1.53,0-3.05.08-4.58,0-.61,0-1.59-.39-1.83-.38l-15.24.36a21.51,21.51,0,0,1-4.67-.17c-2.68-.46-5,.35-7.53,0a30.4,30.4,0,0,0-5.59-.42l-9.68-.08c-4,0-8.73.21-12.63-.21-1.48-.16-1.46-.68-3.45-.33-.64.11-3.83,1.59-4.68,1.06-1.81-1.13-1.71.14-3.88.09-2.6-.06-.77-2.11-4.21-2-.29.69,1.7,1.33-.61,1.45-1.87.09-8.54.63-8.19-.64.31.76-2.3,1.45-4.14,1.05-1-.21-.61-.6-1.57-.84a13.09,13.09,0,0,0-4.67.05,15.63,15.63,0,0,0-3.46.91c-1.55,0-2.21-.43-3.06-.41-1.42,0-8.39.57-8.54-.28-2.9,1.44-3.58.47-6.43-.33.13.81-15.72,1.07-17.54.53-1.07-.32-4,0-5.34,0-2.16.06-2.29-1-5.35-.46-1.85.32-1.83.63-4,.69-1.46,0-.66-.38-2.19-.42-3-.07-3-.44-5.09-1.16.28.09-.62,1-1.26,1.06s-2.53-1.11-3.29-1.29c-1.06-.27-.67.51-.64.66-.65.57-2.52.91-4,1.11-3,.42-2-.43-5-.41-2.55,0-4.78-.48-6.88-.26-8.82.9-19.35.55-28.43.6-6.78.05-14-.09-20.83-.23-7.69-.16-15.34-.36-22.92-.66-1.7-.57-2.32,0-4.45.1s-4.18,0-5.64.62c.16,1-1.58-.2-1.75-.24-2-.42-5.2,0-7.37,0-.92,0-1.15-.1-1.21-.43-.12-.77-.64-.83-2.4-1.08-3.47-.51-.13,1.77-.49,1.93s-4.85-.62-5.77-.64c-1.33,0-1.11.54-2.72.38-.52-.06-3.64-1-4.23-.5-.31.28,1.92,1.54-1.35,1a21.51,21.51,0,0,0-4.79-.51c-6.57,0-13.06.34-19.62.07-1.57-.07-2.57-.4-4.06-.47a39.27,39.27,0,0,0-5.48.28c-4.49.33-9.28.45-13.85.37-2.21,0-4.62,0-7,0l-1.78,0-2.14-.05c-2,0-3.84-.14-5.5-.28-2.07-.17-2.42-.39-3.91-.39,0-.6,0-1.33-.12-2.39-.15-1.79-.25-3.82-.31-5.92,0-1.53-.1-3.08-.14-4.58-.14-4,.13-7.91.13-11.91,0-4.58-.68-12.74.62-16.64.55-1.64,1-2.73-.06-2.55-.92.16-.1-3.84-.6-5C-.43,88.82.45,85.7.59,84c0-2.25.21-3.39.24-5.63C.92,71.54.6,64.63.46,57.81.41,55.25-.06,49.21.68,47c.49-3.06.31-1.94-.32-2C0,44.89.48,39.67.5,39.36c-.06-2.6.36-5.14.3-7.7,0-.9-.1-2.54.42-2.63A14,14,0,0,0,.8,25.51c-.65-4.57.11-9.6,0-14.27C.77,10,.75,3.69,1.55,7.34ZM568.36,57.77a1.06,1.06,0,0,1,.14-.3A2.75,2.75,0,0,0,568.36,57.77Z"/><path class="cls-2" d="M130.7,10.62a.24.24,0,0,0-.06.29A1.15,1.15,0,0,0,130.7,10.62Z"/><path class="cls-2" d="M321.67.74a.67.67,0,0,0-.08-.24A.39.39,0,0,0,321.67.74Z"/><path class="cls-2" d="M559.73,61.92a.35.35,0,0,0,.36-.06A.7.7,0,0,0,559.73,61.92Z"/><path class="cls-2" d="M7.77,8.64c-1.17.18-1.59.95.15,1S9.66,8.59,7.77,8.64Z"/><path class="cls-2" d="M8.16,3.33c-.92,0-1.66.73-.78.71.33,0,3.63-.44,2.86-.7A13.13,13.13,0,0,0,8.16,3.33Z"/><path class="cls-2" d="M7.29,5.76c.47-.83-1.48-.91-2.62-.42L4.94,7C4.8,6.14,4.85,5.81,7.29,5.76Z"/></g></g></svg>