<svg xmlns="http://www.w3.org/2000/svg" viewBox="0 0 864.02 151.5"><defs><style>.cls-1{fill:#c8ff31;}.cls-2{fill:#c8ff32;}</style></defs><g id="Layer_2" data-name="Layer 2"><g id="content"><rect class="cls-1" x="366.6" y="-350.75" width="129.29" height="851.91" transform="translate(350.72 505.5) rotate(-89.29)"/><path class="cls-2" d="M23.32,134.42c.56-.34,3.2-2-.43-1.92C20.75,132.51,20,134.44,23.32,134.42Z"/><path class="cls-2" d="M141.25,134.41c1.92,0-3.83-1.59-5-1.24C134.71,133.6,140.08,134.38,141.25,134.41Z"/><path class="cls-2" d="M233.69,134c-2.83-.15-3.56.32-3.41,1h1.81C233,134.75,233.77,134.37,233.69,134Z"/><path class="cls-2" d="M18.18,1.49c1.81,0-1.92-.47,0,0Z"/><path class="cls-2" d="M3,6.87c.53,3.72,1.93-.51,2.85,2.7-.39-1.38-1.14,3.71-.92,5.4.63,4.83,1,.24,1.61.11-.34,5.13.74,2.19,1.31,2.6.89.63-1,6.69.5,5.25s2.28-4.3,3.52,0c1.35,4.7-.81,11.88-.3,4,.28-4.4-2.35-.06-2.29-1.34,0-.14.66-4.62-.21-2.62a21.15,21.15,0,0,0-1,7.23c0,2.54.56,7,0,9.25-.33,1.34-1.17.41-1.16,3,0,2.75,1.28,2.78,1.07,5-.36,3.82-1,2.37-.29,7.26a30.84,30.84,0,0,1-.4,8.48c-.44,2.37-1.49,2-1.47,4.63l1.44-.32c0,1.91-2.9,6.56-1.54,7.54.76.54.6,2.69.64,5.19,0,3.06.84,5.18,0,7-.34.72-1.05-.42-1.17,1.4-.16,2.72.87,3,1.28,3.75.73,1.45-2,10.79,0,7.25.09-.16-.37,6.26.44,6.08,0,2.37-1.72,7.64-.45,7.36a4.21,4.21,0,0,1-.64,2c1,.51,1.88,4.51,1,8-.38,1.52-1.76.2-1.74,3,0,2.39.82,1.47,1.18,1.69.87.78,1,2.56.65,4.51.51.14.9.36,1,.64.15.51,1.29,0,1.11.94a14.12,14.12,0,0,0-.17,1.58,8.56,8.56,0,0,0,2.78-.31,1.48,1.48,0,0,0,.91-.74c.27-.56.09-1.23.72-1.61a3.37,3.37,0,0,1,2.44-.25c3.16,0-.14,1,0,1.32.43.87,5.46,1.27,8.11,1.17,1.22-.05,2.62-.61,3.69-.45,1.49.22,1.63.75,2.92.93-1-.14,1.06-2.79,1.48-3.2-.24.23,1.53.63,2.46.47,3.44-.58,2.06-1,7.23-.55,2.22.2,8.22.65,8.6.43-2.78,1.44,7.06,0,3.63,2.11-1.15.7-3,.58-2.83,1.47-.24.45.22,1,.32,1.45a20.29,20.29,0,0,1,5.28-2.56c1.47-.46,2.54-.86,3-1.45.57-.8,6.36,0,5.11-1.23-.08.4.88.74,2.46.82,2.25.11,1.48-.36,3-.62,2.38-.42,2.58,1.82,1.15,1.82,1.33,0,3-.86,4.37-1a38.45,38.45,0,0,1,8.71.07c3.44.41-1.14,1.76-2.62,2.11,2.08,0,3.62-.05,3.48-.69.38,1.7,9.27,2.72,5.48.17-6.28-1.55,5.13-3.61,8.63-2-7.61-.4-.31,1.93-5,2,.19,1.28,4.73,1.32,5.54.19.18-.25,3.89.3,4.9.23s-.19-1.46.38-1.78c1.51-.87,4.32-.8,7.16-.36s-4.58.81-4.51,1.12c0,.14,6.17,0,6.8,0,2.19-.15.24-1,1.65-1.1.94-.07,5,.57,4.84-.31,3,.58,3.31,1.81,5.54.46,1.53-.93,2.77-.67,5.45,0,7.84,1.9,13.22,2.57,20.78.41-3.23.92,6.82,1.38,6.61.43,2.85-1.72,8.87.45,1.92.48.52.8,3,1.71,5.66.94,2,0,1.67-.63,1.59-1-1.76,0-5.48-.79-2.9-1.13,4.33-.57,6.15.63,9.37.62,4.2,0,6.86,0,10,.92,1.18-.72,3.95-.66,6.16-.26a22.36,22.36,0,0,0,3.48.68c2.19.11,1.76-.4,3.42-.64,3.82-.54,2.35,1,4,1.09,3.06.19,5,.28,5.18,1.26-.18-.83.51-1.44,1.32-2.23.22,1,.34,3.29,5.86,1.88,1.81-.45,3.82-1.39,6.29-1.63s1.41,1.9,4.27.16c-.07-.32,7.17,1.49,8.61,1.22a28.06,28.06,0,0,0,7.49-2.25c.31.21,2.71,2.16,3.2,2.16s1.05-1.34,2.27-1c1.72.43.36,1.5,3,2.06,2.1.45,7.23-.06,9.21-.33,5.25-.72-8.07,0-6.59-.71a26.37,26.37,0,0,1,6.58-1.93c3-.52,4.19.21,6.05,0,2.26-.24,3.3-.7,6.18-.46,2.5.2,4.57.59,7.14.77a35.28,35.28,0,0,0,4.71.1,17.7,17.7,0,0,0,2.09-.52,26.91,26.91,0,0,0,.48,3.29c.18.81,1.16,1.42,2.3,2.19-.29-1.31-2.51-5.28,4.4-5.47,4.9-.14,12.55.1,16.39,1,3.46.86,2.55-.49,4.69-.32s3.85,1.71,6.76.82c1.07-.32,4.49-2.24,4.86-.57,2.91.72,3.61-.2,6.72,0,.63.11.84.26.64.47a22.42,22.42,0,0,0,4.9-.35c1.89-.32,3.08.62,5.87-.18-.21-.92,5.41.33,6.66.39,3.9.19,6.63-.34,10.39-.37,4.49,0,12.12.63,12.45,2.08-.25-1.11,1.15-2.15,6.15-1.91,2.88.14,5.07.57,7.67.85,3.06.34,2.71-.87,4.13-.95.47,0,.08,1.83.75,2.11,1.42.61,3.54-1.7,4.3-1.7.27,0,.38,1.44,2.36,1.44,1.07,0,2.43-1.05,4.5-1.17,4.19-.24,10.56-.35,12.89.86,4.07,2.11,1.86,1.53,5.92,0,3-1.08,7.68,1.48,9.08,1,.26-.1-4.15-3.72,2.67-1.68,2.79.83,2.12,1.57,4.94.27,2.09-1,8.18,2.14,8.88,2.31-.77-.19,4.5-2.42,8.47-2.09-.59-.05-1.11.78-1,.95,4.38,0,5.53-1.47,10.87-1.53,1.28,0,3.32.05,3.42.51.21.94,3.84,0,4.5.6.26.22-1.73.93.65,1.12,1.86.16,4.15-.79,5.7-1,3.82-.43,2,1.06,2.37,1.6,3.84,0,2.57-.73,4.61-1.32,1.23-.35,2.69.63,5.08,0,1.07-.28,6.2-.82,6.63,0,.07.15,1.61,2.36,2.66,2.05.6-.17-1-.94-.89-1.24.16-.63,2.32-.51,4.13-.52,2,0,.56-.36,2.41-.37,2.43,0,4.29.35,6.87.33,3.24,0,20.58-.77,19.26.89,1.28,0,3.63,0,3.52-.5,1.49-.12,3.53.14,4.86-.16,2.5-.57,8.38,0,12.37.16,2.75.13,5.45.39,8.25.37H565c-.06-.24.37-.36,1.27-.37,2.67,0,9.54,1,7.57-.63,3.71,0,1.13.48,2.58.76a37.91,37.91,0,0,0,6.74.63c1.88-.07,2.22-1.27,4.44-.73s2.79,1.51,5.06,2.08c4.38,1.12,2.4-1.39,5.07-1.4.83,0,12.69,0,11,.44,2.76,0,5.72-.11,8.47,0,4.05.16,1.54,1.88,6.46,1.86-.38-.6-4.81-1.33-.92-1.42,2.59-.06,5.74-.15,8.32,0,2.28.14.69.42,3.49.4,3.21,0,9.52-.72,10.66.54.54.59,2,1,2.28,1.66,0,0-1.12,1,0,.84.09,0,2.31-.48,2.79-.07.18.16-1.5.56.73.55.45,0,.49-.35.42-.71a3.35,3.35,0,0,0-.27-.72c-.16-.71-2.86-1.79-1.57-2.47.79-.41-.3-.61.06-1s4.18.59,4.44.62c2.46.23.83-.41,2.06-.46,1.59-.07,6.56,1.63,5.8,1.85,1.66-.47,4.5-3.24,5-.8,1.36.48,8.06.94,9.72.86,1.89-.09,9.94-1.4,10.34-.34.17.45-1.15.61.2.84,4.51,0,1.7-.49,3.54-1,.67-.19,5.23,1.81,5.51,1.94-2.82-1.33,10.68-3,14.63-2.44,1.2.17,1.5.51,2.65.71,1.63.3,4.5-.3,6.4-.29a10.55,10.55,0,0,1,3.76.67,36.53,36.53,0,0,0,6.27.25c4.26,0,9.37-.23,13.56.14,1.87.17,1.88.68,3.78.73,2.7.08,4.36-.62,7.1-.76,4.61-.23,11.23,1,15,.47,1.9-.25,8-1.77,8.61-.32.17-.49,1.33-1,3.38-1-.49,1.19,4.92,1.21,7.88,2.06-.64-.29-1.14-.62-.61-.81,1.48-.51,4.24.77,5,.92a20,20,0,0,0,5.78,0c1.89-.26,1.86-1.47,2.59-1.52s6.63,1.56,4.86-.19c.48,1.43,7.81,1.14,11.39,1.4,4.1.3,1.88,1.11,3.86,1.6l.28-.32.67-.69a5.11,5.11,0,0,1,1.25-1c-.94.14,6.58,2.15,7.33,1.1-.18.25-1-2.63,1-1.63,1.45.73,2.06,1.43,2,2.24a9.33,9.33,0,0,1,6-1.78c2,.1,3.72,1,4.72,1a7,7,0,0,0,2.11-.58,12.42,12.42,0,0,1,1.37-.42c.25-.06.52-.11.8-.15.12,0,.33,0,.39,0l.24,0c-.52.27,1.44.19,3.15.06-.06-.83-.11-1.68-.16-2.35l0-.78a3.51,3.51,0,0,1,0-.46c.55-5.93,2.34-1.2,3.21-1.4-.22,0-.4-2.71-.45-3-.32-1.8-.63-1.4-1.09-1.4-.79,0-.43-6-.23-7.45a9.88,9.88,0,0,1,1-3.11c.61-1.59-.74-2.21-.9-2.89-.74-3.25.27-5-1.42-4.58,1.08-.25.48-4.84.89-6.92.11-.56.73-1.26.81-.18.17,2.43,1-.18,1,1.79,0-.64-.08-5.26,0-5.28s.81,5.25,1.22,3.58c.36-1.46-1.09-5.38-1.29-5.75-.85-1.59-1.38.24-1.94-3.73,0-6,1.57-10.61,1.07-16.35C855,80,854,76.2,854.19,74.21c.09-.89,1.19.56,1.52-.54.65-2.13-.6-3-.83-2.91-1.9-3.13.71-2.57.7-4,0-1.27-1-1.55-1.2-1.32.84-3.44-.13-8.87,0-12.93.1-2.86,1.42-12.11-.1-12.43,1.06-1.06-.15-11.12-.07-13.84,0-.61,0-1.34.08-2.11,0-.39.05-.78.07-1.18l0-.59a.69.69,0,0,1,0-.2l0-.14a7.3,7.3,0,0,1,.67-2.12,11.6,11.6,0,0,1,.11-1.39,3.54,3.54,0,0,0-1.92.17c-.38,0-1.13,0-1.78,0-1.13,0-2.23-.15-2.28-.46-3.06-.2-5.85.19-8.91-.27L839,17.64a4.26,4.26,0,0,1-1.09-.33c-2.19,0-2.73.45-5.3.5-4.06.06-7.91.76-12.09.72-2.85,0,2.06-1.36,2-1.62s-4.61.59-4.46.56a22.61,22.61,0,0,1-4.55.89c-1.1.06-2.62-.45-4.27-.45.15.68-7.06.87-7.25,0-1.64-.67.67-1.88-2.16-2.58.7.18-.09,1.5-1.4,1.62a29.73,29.73,0,0,0-3.34.17c-1.08.25-1,.87-2.23,1.17a21.94,21.94,0,0,1-9-.3c-6.13-.77-3.66.74-8.22.76,1.66,0,1.31-1.7-2.87-1.68-2,0-14.58-.31-14.39.54-1.68.49-7.33-.33-7.47-.93,0,0,6.68-1.51,2.52-1.57-2.79,0-4.25,2.21-5,2.67a3.28,3.28,0,0,1-3.53,0,6,6,0,0,1-1.1-.84c-.26-.25-.41-.44-.43-.44-.64,0-1.77.9-2.69,1.06-1.16.2-3.35-.56-4-.71-3.13-.73-3.07.3-4.75.83-3.15,1-2.38-.27-2.81-.67s-8.11-.39-7,.67c-.9-1.59-13.36-1.31-17.9-1.61a49.74,49.74,0,0,0-5.6-.42c-2.26.38-1.6,1.77-5.58,1.79-.76-.73,5.33-3.4-.75-3.37.48,1.2-.9,2.32-2.65,3.38.27-.17-1-1.2-2.31-1.19-.83,0-3.16,1.19-4.59,1.38-2.48.32-5.61-1.07-9-1.14-4.11-.1-3.9.72-7.38,1a24.51,24.51,0,0,1-6.52-.25c-1.19-.3-1.43-1.7-2.29-1.76-2.55-.15-6.77,1.4-9.89.75a15.57,15.57,0,0,1-4.46-2.7c-1.52.43-.53,1.15-3.33,1.62-2.14.36-10.18.42-10.6,1-1.72,2.41-3.74-.13-4-1.31-2.41,0-1.41.29-1.7.77s-4.15.22-5.17.23c-3.17.05-5.07.5-8.22.51-1.87.23-3,.12-3.33-.32-1.76-.35-3.17.14-4.35.07-1.64-.1,0-1.4.28-1.4-4.82,0-3.45,2-9.93,1.24-2.48-.31-4.28-.82-2.13-1.43,1.4-.27,4.27-1.23.2-1a53.83,53.83,0,0,0-6.85,1.15,73.87,73.87,0,0,1-10.45.84l-11.36.3-6.88.21-2.24.09a5.31,5.31,0,0,0-.86.06c.37-.7,1.52-2-1.49-2.77.93.23-3.18,1.68-3.74,1.88a8.92,8.92,0,0,1-5.61.59c-2.76-.48-7.77.26-10-.36-.8-.23-.07-1-1.69-1-2.28,0-2.57,1.19-3.75,1.52.32-.09-.89-.91-1.78-1a2.24,2.24,0,0,1-1.29.3,12.16,12.16,0,0,1-3.48-.69,10.64,10.64,0,0,1-3.37-1.44c-.47.58-2.89.92-5.21,1-4.27.21-4.53-.34-5.78-1.18-.26-.18-6.33,1.06-6.69,1.52-1.6,2.05-4.39.69-2.12-.68.81-1.14,2.18-1.45-2.14-1.44-1,.29-.13,1.4-1.89,1.78-1.35.29-2.06-1-3.16-1-.09,0,0,1.68-3.47,1.7-2.39.33-5.42.56-3.74-.47s-3.1-.74-4.55-.33c-3.51,1-.76.5-4.46-.41,1.8.44-1.16,1-3.78.31-1.61-.2-3.43-.4-5.21-.45-.73,0-.7.41-2.11.47-3.2.12-6.16-.25-8,.45-2.4.91-5-.81-4.84-1.34.45,2-9.59.31-7.54-.27-4.37,1.25-.07,1.23-5,0,1.79.44-4.25,1-4.94,1.16-1.25.35.36.6-2.15.61-2-.25-5.6-.71-5.76-1.42-.1-.43-.28-.48-1.92-.47-2.25,0-1.35.64-1.9,1s-9.16-2-6.95,0c-2.15,0-2.21-.59-1.74-1.09a10.35,10.35,0,0,1-5.73.16c-.26-1.17-2.08-.69-3.08,0-1.23.85.41,1.45-4.6.62-2.64-.44-3.25-.85-3.42-1.61.37,1.65-5.45.6-8.73,1.54-1.4.85-7.7.83-10.57.71a14.06,14.06,0,0,1-3.7-.46c-1.5-.65-3.1-.15-5.47-.17-1.4,0-3.62-.46-4.16-.46-3.28,0-.35,1.21-1.54,1.21-.47,0-2.54-.92-3.63-1-2.79-.31-4.1.06-6.62.18-4.21.21-1.09-1.52-3.87-1.69-7.1-.44-3.84.87-6.32,1.77-1.39.51-11.48.33-13.38,0-2.21-.38-3.45-1-6.1-.25-2.07.59-3,.19-1.92-.48-2.44-.67-8.69-1.08-6.59.27,1.08.69-10,.3-11.48.24-4.18-.18.14-1.41-1-1.69-.41-.1-8.77,1.16-11.11,1-2.94-.16-2-.65-3.07-1.2-1.68-.89-4.2,1.28-3.26,1.27-1.58,0-2-1.43-4.4-1.42-2.59,0,.86,1.68-2.57,1.7-.08-.59.73-1.45-2.14-1.44-2.15.25-.57,1.69-2.79,1.7-2.55,0-5.24-1-7.73-1.24a83.66,83.66,0,0,0-9.19-.42c-1.19,0-3.85.08-3.74.54.23,1-3.39,0-5.44,0,.08.37-3.85-.44-5-.45-4.08,0-6.78.31-8.07-.8-.43-.36-3.61-.23-3.8-1.09s-6.64-1.29-6.49-.63c0,.1,8.14,2,1.16,1.14-1.44.3-1.35.93-3.13,1-5.5.1-3.43-.39-3.76,1-.18.72-3.2.58-4,0-1.77-1.19-.22-3-.52-4.33-7.61,0,.74,4.47-5.61,4.34-2.46-.05-17.35-1.42-18.73-.32.24-1.69-6.94.3-10.43.13-3.33-.17-12.16-2.36-14.79-1.71-5.45,1.35-6.08.25-6.41-1.24-3.53-.87-3.18,2-3.09,2.42-2-1-5.52-3.07-11-2.3-2,.28,2.46.85,2.55,1.25.15.66-4.81-.28-5.21.29-.23.31,2.28.76-.61.81a28.57,28.57,0,0,1-5.87-.47c-1.71-.33-2-.91-2.09-1.42s-3-1.46-2.72-.45c.07.31,3.3,2.87-1.06,2.53-1.56-.12-3.54-.4-5-.59-4.34,0-3.77-1.4-4.41-2.11-1.45-1.61-3.07.61-5,.68s-5.48-.48-5.26.53c.35,1.54-2.88.05-4-.27-1.87-.51-5.69-.06-7.46.1-2.7.26-2-.26-3.34-.25-2.67,0-4.18.56-7.14.3C82.16,10,77,9.2,75.63,9.6c-.65.18,2,.67-1.1.79-1.45,0-9,.27-9.1-.43-.12-.54-10.47.15-12.8-.43-1-.36-4.51-1.52-6.68-1-1.82.41.24,1.27-2.73,1.56-2.06.19-12.77-2.34-12.34-.43a30.42,30.42,0,0,1-5.19-1c-2.57-.72-1.49.19-2.42.36s-5.48-3.85-5.71-4.15c-.39-.5-2.65-4.15.62-3.34,1.14,0,9.89,2,10.19,1.72s-1.66-.43-.91-.8a5.88,5.88,0,0,0,3-.64C31.28,1.23,31.2,0,28,0,37.41,0,46.89.34,56.3.47,63.75.56,71.24.6,78.68.79c1.5,0,4.44.44,5.35.41C86.58,1.14,92,0,94,.93c1.4.66-3.24,2.21-2.17,2.48-.15,0,6.64-.36,6.5-.33,1.94-.44,1.56-1.15,1.43-1.75.21.94,2.95.72,4.26.42,2-.44,2.21.14,3.25-.56.86-.57,3.76-.26,5.17,0,1.67.29,3.31.92,5.58.7,1.71-.16,2.65-.77,4.81-.45,1.88.29,5,1.43,7.65.74,1.64-.44,1.15-.7,4.41-.54,2.86.14,7.2.53,8.76,1.27,3.69,1.74,2.41-.69,5.4-1A21.7,21.7,0,0,1,154,2c1.15.15,5.74,1.51,5.93,1.51-.32,0,3.75-2.86,7.21-1.23,2.2.22,3.76.37,6.15.54,1.93.13,6.34,1.57,6.79,1.57-1,0,1.41-1.59,1.73-1.69a13.59,13.59,0,0,1,5.26-.51c.23,1,9.63.54,9-.4-.83,1.46,18.07.77,21,.76,3.83,0,4.32.94,8.37.93,1.06.13,3.08.49,4.07.16.67-.23,1.77-1.39,2.69-1.4.17,0,.29,1.45,2.74,1,.44-.08,4.31-1,4.78-.61,1.84,1.57,6.08-.06,10.37.2,2.4.14,1.59.43,2.94.76s5.78-.3,7.48-.29a38.76,38.76,0,0,1,8.57.88c2,.45,1.45,0,2.89-.23,5.47-.88,16.84-.76,22.78-.1,5.27.58,1.9-.71,6.4-.64,3.17.05,5.31.7,6.09,1.44,0-.5.34-1,2.17-1.07,2.24-.09,4.29.45,6.88.44S318,5.2,318.77,5.58c1,.52,4.79-1.33,6.78-1.45,2.81-.18,10.2-.45,10.85.57,0-1.12,9.17-.76,11.75-.64a50.28,50.28,0,0,1,8.25.82c4.25,1,3.93-.86,6.61-.87a51.07,51.07,0,0,1,6,.66c2.08.19,1-.32,2.71-.33,3.49,0,2.26.45,4.3,1.07,3.58,1.09,6.92,2.43,10.37,3.68-1-1-2.28-2-2.49-3C383.3,3.2,386.06,6,390.43,6L390,5.74c-.26-.12-.59-.29-.89-.46-.6-.34-1.06-.69-.47-.76,2.75-.31,8,1.16,11.48,1.14a23.67,23.67,0,0,1,5.8-.29c1,.12,4,1.41,4.88.79.55-.38.2-1.27,2.75-1.28,2,0,3.24.76,3,1.2-.17-.77,8.89-.8,9.06,0-2.06-1.95,16.61-.56,20.57-.57,1.75,0,6.9-.2,8.23.29.51.19,1,.87,2.18.87,1.52,0,1.74-.77,1.61-1.22.72.82,4.71,2.86,7,2.21.73-.21-4-1.73.29-1.75,3.18-.91,4.4,1,7.47.93-1.36-2.55,5.61.08,5.76,1.42,3.19,0,.15-1.94,2.66-2.3a59.55,59.55,0,0,1,12.46.3c1.65.24,4.48,2.34,6.06,1.77,1.22-.44-.94-1.48.14-1.78,3,0,6.09-.1,9.07,0a15.93,15.93,0,0,1,5.18.94c2.29.6,2.21-.66,3-1,3.2-1.22,4.84,1.58,5.34,1.58a13.58,13.58,0,0,0,3-.74c2.37-.68,4.82-.49,7.77-.24s2-.31,4.39-.28a76.19,76.19,0,0,1,8.12.71c1.22.13,4.13-.81,7.09-.78,1.37,0,1.56.13,1.63.47,2.16.11,4.83,0,7,0,2.84,0,1.12-.09,3.5.53,2.57.67,1.72-.69,2.63-.89,5.79-1.32,5,2.28,5.75,2.78,1,.68,1.23-2.21,1.43-2.27,1.18-.39,8.59-.57,8,.29-.12.18-1,3,1.19,2.6,2.45-.43,1.83-3.33,5.9-3.28,1.55,0-.27.6,2,.59,2.13,0,4.26-.23,4.42.47,2.3-.08,3.2-.62,5.19-.83,1.68-.18,3.19.79,5.68.78-.25-1.13,9,1.3,9.21,1.23,1.57-.45,1.15-1,4.6-1a21.24,21.24,0,0,1,4.39.38c.28,0,3.68,1.25,3.88,1.06.69-.68-1.22-1.56,3.69-1.32,4,.2,6.24,1.52,8.78,0-.16-.7,3.15.63,5.44,0-.11-.48,5.59-.63,6.62-.66a38.85,38.85,0,0,1,8.24.31c3.2.61,9.66.19,13.23.26,4.65.1,10,.21,14.57.47.88,0,7.68,1.18,6.52,1.52,1.56-.45-2.33-2.06-.74-2.29l.37.06.92.16,2.76.51a40.45,40.45,0,0,1,4,.86,12.45,12.45,0,0,0,4.76-1c2.63-.8,3.87.44,6.07.51,5.14.15,5.8.54,5.81,1.92-.73-2.2,3.61-1.95,11.14-2,6.72,0,8.54.11,8.8,1.88a7.18,7.18,0,0,0,1.77-1.58c.65-.67,2.44-.31,3.34.12-1,0,5,.12,3.65-.21.78.19,2.85,1.38,3.64,1.38.54,0-.81-1.44,2.17-1.45,3.5,0,4.91.84,7.05,1.37-1.16-.29.14-.48,1.74-.61l2.34-.15a9.07,9.07,0,0,0,1.17-.09c.39-.55,1-.34,3.62-.35.84.24-.36,1.16-.43,1.15-.52-.13,14-.59,16-.51,1.62.07,4.77.9,4.62.24,3.37-1,6.87-.64,11.46-.37.57,0,6.29.21,5.43.62s.69,2.52,2.65,2,0-2,3.32-2.43c3.15-.35,5.09,1.31,7.54,1.3-.14,0-2.17-1-.93-1.14a54.72,54.72,0,0,1,9.83.1c2.8.45,2.22.4,5.79.09a47.07,47.07,0,0,1,9,.06c2.82.34,2.42.8,5,.23.26-.06.54-.1.84-.14l.46-.05h.83c1.25,0,2.6,0,3.94,0,2.69.06,5.31.22,7.15.4h.1c-.1,1.1-.37,2.66-.59,4.17a22.57,22.57,0,0,0-.35,4.23c.06,1.15.16,2.1.28,3a4.63,4.63,0,0,0,.1.6l.1.36.21.7a13.46,13.46,0,0,1,.59,3.56c-.84.19-.32,2-.15,3.6.2,1.87-.55,2.38-.94,3.28.74-1.33,1.43,9.25,1.22,11.32,0,.29-3.13,9.18-1.8,10.13.4.28,1.21-3.09,1.06,1.33-.09,2.48-1.41,6.13-1.41,6.85,0-.18,1.21.37,1.22,3.58s-.52.76-.65,1.28a28.64,28.64,0,0,1,.05,4.3c-.16,1.49-1.27,3.22-1,4.85.54,2.87,2.73,7.57,1.44,12.23-.27,1-1.46,1-1.46,2.42,0,2.59,1.27,2.07,1.6,3.83.92,4.9-.53,8-1.29,10.91a18.45,18.45,0,0,0-.63,5.43c.16,2,.9-.55,1.27.37,1.27,3.17-.53,7.61-.57,10.9.62-.14.49,2.83.5,4.2,0,2.1.49,3,.4,5.65a25.81,25.81,0,0,1-.33,3.58c-.08.46-.17.87-.26,1.25l-.08.27,0,.14,0,.24c-.06.31-.11.62-.16.93a57,57,0,0,0-1.12,7.85c-.08,1.15.1,1.06.3.68s.4-1.05.37-.86c.57.2.78,1.08.94,3.65-.79.07-1.83.13-3.14.19-4.18.22-5.22,0-5.26-.41s.66-.92,0-1.25c-3.36,0-2.82.61-2.62.95l-1.63,0-.86-.07-1.57-.15a31.32,31.32,0,0,0-3.54-.2c-.84,0-1.1.49-2.32.62a32.84,32.84,0,0,1-7.08-.12c-1.08-.14-5.67-1-5.51-.24a1.52,1.52,0,0,0-1.8-1c-1.78.51.27,1.77-4.85,1.59a8,8,0,0,1-2.69-.5,35.55,35.55,0,0,0-6.27-.25c-4.55,0-10.1.51-14.26-.32-1.91-.38-.6-1.61-2.9-1.32-3.4.42-5.67.56-9.18.79.16.72-9.72.63-11.58.45s-1-2.22-3.63-1.41c-.92.28-1.72,1.27-3.54,1.28-1.62,0-.7-.94-3.09-.93.25,0-3.51.51-4.39.55-3.3.15-6.65.23-10,.27s-6.73.06-10.08,0c-2.51-.08-4.2-.43-6.58-.42-1.42,0-3.26.09-4.68,0-1.18-.07-.45-.87-1.39-1.1-1.27-.31-6.72,1-8.85,1.13a94.8,94.8,0,0,1-10.39-.09,17,17,0,0,1-3.55-.47c-.62-.23,1-1,.16-1-2.06,0-2.67,1.38-5.33,1.53-2.44.14-2-.59-3.43-.91a34.82,34.82,0,0,0-8.29-.44c-3.53.22-4.62,1.37-8.77.57-2.09-.4-5.44-1.39-8-.65-2.3.66,1.21.76-3.62.78-2.36,0-4.55,0-6.91-.09-3.84-.16-21.61,0-21.59-1.59,1.37,1.72-11.47.89-14.42.42-.16-.72-3.51-.95-5.65-.94-3.15,0-2.78.7-4.77,1a34.09,34.09,0,0,1-7.38.45,3.76,3.76,0,0,1-2.14-.41c-1.42-.09-2.84.12-4.26-.06-3.15-.4-7-1.17-10.28-1.33-2.33-.12-5.24.26-3.69,1-4.46,0-9,.09-13.41,0-3.52-.09-7-.27-10.55-.34-2.18,0-4.35,0-6.52-.06-.88,0-2.26-.41-2.61-.41l-21.73.09a41.87,41.87,0,0,1-6.66-.25c-3.82-.5-7.08.26-10.74-.09a61.43,61.43,0,0,0-8-.51l-13.79-.25c-5.71-.09-12.45,0-18-.44-2.1-.18-2.06-.7-4.91-.39-.91.1-5.48,1.53-6.69,1-2.56-1.16-2.43.11-5.52,0-3.71-.11-1.08-2.12-6-2.1-.42.69,2.4,1.36-.89,1.43-2.68.06-12.19.48-11.67-.77.44.76-3.3,1.4-5.91,1-1.4-.23-.87-.61-2.24-.87a26.42,26.42,0,0,0-6.65,0,29.57,29.57,0,0,0-5,.85c-2.22,0-3.14-.47-4.35-.46-2,0-12,.42-12.17-.43-4.17,1.38-5.13.4-9.18-.45.19.81-22.42.8-25,.22-1.52-.34-5.71-.09-7.61-.08-3.09,0-3.26-1-7.63-.56-2.64.29-2.62.6-5.74.62-2.07,0-.93-.39-3.12-.45-4.3-.13-4.19-.5-7.24-1.26.39.1-.89,1-1.81,1-.75,0-3.6-1.15-4.67-1.35-1.52-.28-1,.5-.93.65-.92.56-3.6.87-5.66,1-4.23.37-2.83-.46-7.12-.5-3.64,0-6.81-.56-9.8-.38-12.59.75-27.6.21-40.55.11-9.67-.08-20-.34-29.7-.6-11-.3-21.87-.63-32.67-1.07-2.41-.6-3.31,0-6.34,0-2.87,0-6-.08-8,.52.21,1-2.26-.23-2.5-.27-2.84-.45-7.41-.12-10.51-.17-1.3,0-1.64-.13-1.71-.46-.17-.77-.91-.84-3.41-1.12-4.94-.57-.2,1.77-.72,1.92s-6.91-.7-8.22-.74c-1.9-.06-1.6.52-3.89.33-.74-.06-5.18-1.08-6-.57-.44.27,2.71,1.57-1.94,1a44.81,44.81,0,0,0-6.83-.59c-9.36-.13-18.61.11-28-.28-2.24-.09-3.66-.44-5.78-.54-2.91-.14-5.08.08-7.81.19-6.41.24-13.25.28-19.76.12-6.29-.16-13.75.06-19.71-.58-2.64-.28-2.51-.61-5.86-.34s-7.1.28-10.6.32c-5.69.06-11.27-.27-17-.35-3.27,0-7.81.07-12.23,0-2.2,0-4.38-.09-6.36-.23L9,138.93l-2.19-.17c-1.38-.12-2.58-.27-3.56-.44l-2.11-.4c.35-2.45.43-3.65-.39-2.84-.47.51-.47-1.78-.41-4.46,0-1.13,0-2.35.08-3.43a7.7,7.7,0,0,0-.15-1.85c-.67-2.32.26-6.75.44-9.17,0-3.2.27-4.82.34-8,.21-9.76,0-19.61,0-29.34,0-3.65-.37-12.27.41-15.43.54-4.35.35-2.76-.28-2.91-.33-.08.21-7.52.23-8,0-3.71.46-7.33.44-11,0-1.28-.06-3.61.47-3.73a29,29,0,0,0-.36-5c-.57-6.52.28-13.68.25-20.35C2.16,10.67,2.25,1.66,3,6.87ZM862.61,34.34a1.86,1.86,0,0,1,.15-.43A2.41,2.41,0,0,0,862.61,34.34Z"/><path class="cls-2" d="M185.77,11.93c-.11.08-.16.18-.09.3A1.62,1.62,0,0,0,185.77,11.93Z"/><path class="cls-2" d="M458.19,5.41a.62.62,0,0,0-.12-.23C458.05,5.23,458.1,5.32,458.19,5.41Z"/><path class="cls-2" d="M853.91,40.14a.29.29,0,0,0,.37-.07A.48.48,0,0,0,853.91,40.14Z"/><path class="cls-2" d="M10.51,7.78c-1.66.17-2.28.93.22,1C13,8.74,13.22,7.77,10.51,7.78Z"/><path class="cls-2" d="M11.14,2.48c-1.32,0-2.37.71-1.12.7.46,0,5.18-.38,4.08-.65A26.46,26.46,0,0,0,11.14,2.48Z"/><path class="cls-2" d="M9.87,4.9c.67-.83-2.11-.94-3.74-.47L6.5,6.07C6.31,5.24,6.39,4.91,9.87,4.9Z"/></g></g></svg>