<svg xmlns="http://www.w3.org/2000/svg" viewBox="0 0 584.85 159.49"><defs><style>.cls-1{fill:#c8ff31;}.cls-2{fill:#c8ff32;}</style></defs><g id="Layer_2" data-name="Layer 2"><g id="content"><rect class="cls-1" x="5.63" y="14.41" width="571.15" height="132.14" transform="translate(-2.28 8.75) rotate(-1.72)"/><path class="cls-2" d="M7.35,129.06c.36.39,2.13,2.21,1.91-.38C9.18,127.15,7.23,126.69,7.35,129.06Z"/><path class="cls-2" d="M66.17,151.45c1.38-.07-2.8-1.46-3.66-1.07C61.45,150.86,65.33,151.46,66.17,151.45Z"/><path class="cls-2" d="M132.35,147.94c-2-.06-2.54.44-2.41,1.09l1.3-.07C131.85,148.69,132.42,148.28,132.35,147.94Z"/><path class="cls-2" d="M12.26,18.76c1.3-.07-1.39-.41,0,0Z"/><path class="cls-2" d="M.7,24.22c.65,2.65,1.91-.44,2.93,1.82-.44-1-1,2.7-.73,3.91.79,3.43,1,.13,1.6,0-.16,3.68.82,1.54,1.4,1.81.91.42-.74,4.83.68,3.73s2.13-3.16,3.52-.11c1.5,3.31-.41,8.54-.17,2.87.13-3.16-2.34,0-2.33-.87,0-.1.5-3.33-.3-1.87a11.24,11.24,0,0,0-.77,5.22c.08,1.82.79,5,.31,6.62-.28,1-1.15.34-1.06,2.18S7.15,51.49,7,53.12c-.23,2.75-.9,1.73,0,5.2a15.79,15.79,0,0,1-.11,6.1c-.35,1.71-1.41,1.51-1.31,3.37L7,67.5C7.05,68.87,4.31,72.31,5.7,73c.78.36.68,1.9.81,3.69.15,2.19,1,3.68.24,5-.32.54-1.07-.26-1.12,1.05-.08,2,1,2.08,1.4,2.64.78,1-1.64,7.8.27,5.19.09-.12-.15,4.5.65,4.34.09,1.69-1.46,5.53-.2,5.28a2.44,2.44,0,0,1-.58,1.45c1,.33,2,3.15,1.27,5.68-.33,1.1-1.75.21-1.64,2.24,0,1.71.87,1,1.24,1.16,1.24.49,1.23,5.58.27,6.46-.49.45.1,1.24-.88,1.44l-1.58.31c.18,3.5,2,2,2.8,2.88A1.83,1.83,0,0,1,9,123.49c.12,2.26-1-.06-1.32.06-.86.34-1.09,4-.9,5.85.09.87.7,1.85.58,2.62-.17,1.08-.7,1.2-.84,2.13.11-.75,2.83.65,3.25.94-.24-.17-.57,1.12-.39,1.77.7,2.45,1.11,1.44.8,5.16-.13,1.6-.37,5.91-.14,6.18-.77-1-.71.44-.75,1.2a2.85,2.85,0,0,1-.23,1.2c-.17.29-.47.48-1,.12-.72-.5-.68-2-1.56-1.77-.46-.18-1,.27-1.43.43,1,1.41,1.88,2.19,2.72,3.42.5.7.93.95,1.52.56a.18.18,0,0,1,.09,0,5.17,5.17,0,0,1,2-.45c.68-.09,1.18-.24,1.15-.83-.21.4.1.72.87.75,1.07.05.74-.39,1.74-.7,1.69-.51,1.92,1.73.89,1.78.95-.05,2.13-1,3.09-1.17a19.8,19.8,0,0,1,6.24-.23c2.48.3-.75,1.81-1.79,2.21,1.49-.08,2.59-.18,2.46-.81.34,1.68,6.74,2.4,3.93,0-4.56-1.33,3.53-3.78,6.11-2.25-5.47-.14-.15,1.94-3.51,2.12.19,1.27,3.44,1.15,4,0,.12-.26,2.8.17,3.52.06s-.19-1.44.2-1.79c1.05-.91,3.07-.94,5.12-.6s-3.25,1-3.19,1.27A40,40,0,0,0,47,152.4c1.56-.23.13-1,1.14-1.16.67-.1,3.62.41,3.45-.47,2.17.48,2.44,1.7,4,.28,1-1,1.95-.76,3.9-.21,5.69,1.63,9.56,2.13,14.89-.29-2.28,1,4.94,1.15,4.75.21,2-1.82,6.37.14,1.4.41.4.78,2.17,1.61,4.08.75,1.41-.08,1.18-.69,1.11-1-1.27.07-4-.6-2.12-1,3.08-.71,4.42.43,6.73.31,3-.16,4.91-.19,7.16.58.82-.76,2.8-.79,4.4-.47a12,12,0,0,0,2.52.57c1.57,0,1.24-.47,2.42-.76,2.72-.66,1.73.91,2.91,1,2.2.08,3.57.11,3.76,1.08-.16-.82.31-1.46.86-2.28.2,1,.37,3.28,4.27,1.69,1.28-.52,2.68-1.53,4.44-1.84s1.08,1.84,3.06,0c-.06-.32,5.19,1.25,6.21.93a16.66,16.66,0,0,0,5.28-2.5c.23.2,2,2.06,2.38,2s.7-1.36,1.58-1.11c1.25.37.32,1.48,2.21,2,1.53.38,5.18-.3,6.59-.64,3.73-.9-5.78.3-4.75-.49a15.47,15.47,0,0,1,4.64-2.15c2.13-.62,3,.07,4.33-.19,1.61-.32,2.34-.82,4.41-.68,1.8.12,3.3.44,5.14.53a17.36,17.36,0,0,0,3.38-.06,9.65,9.65,0,0,0,1.47-.58c-.08,0,.4,2.9.47,3.27.17.8.89,1.37,1.74,2.1-.26-1.29-2-5.19,2.93-5.61,3.51-.3,9-.32,11.78.49,2.51.74,1.81-.58,3.34-.48s2.83,1.58,4.88.59c.75-.36,3.12-2.39,3.46-.73,2.11.62,2.57-.32,4.81-.24.45.08.61.23.47.44a11.31,11.31,0,0,0,3.49-.5c1.35-.39,2.23.51,4.2-.39-.18-.91,3.89.15,4.79.17,2.8.06,4.73-.57,7.42-.72,3.21-.18,8.71.22,9,1.66-.22-1.11.75-2.2,4.34-2.12,2.07,0,3.65.4,5.52.59,2.2.23,1.91-1,2.92-1.09.33,0,.13,1.82.62,2.09,1,.56,2.47-1.82,3-1.85.2,0,.33,1.43,1.75,1.35.77,0,1.7-1.12,3.18-1.31,3-.38,7.54-.71,9.26.42,3,2,1.39,1.46,4.24-.17,2.07-1.18,5.55,1.22,6.54.69.18-.1-3.12-3.58,1.85-1.77,2,.74,1.57,1.5,3.54.11,1.46-1,5.94,1.85,6.45,2-.56-.16,3.13-2.56,6-2.37-.42,0-.76.81-.67,1,3.13-.16,3.9-1.65,7.72-1.89.92-.06,2.38-.06,2.47.39.18.94,2.75-.09,3.24.45.2.21-1.2,1,.51,1.1,1.34.09,2.94-.93,4.05-1.16,2.71-.56,1.48,1,1.76,1.51,2.74-.14,1.8-.82,3.25-1.47.86-.39,1.94.54,3.63-.17.75-.32,4.41-1,4.74-.26.07.15,1.25,2.3,2,2,.42-.19-.72-.91-.68-1.21.09-.63,1.64-.59,2.93-.65s.39-.39,1.72-.46c1.74-.09,3.08.2,4.93.1,2.32-.12,14.7-1.46,13.82.23.92,0,2.6-.09,2.5-.61,1.06-.17,2.53,0,3.48-.33,1.76-.65,6-.3,8.86-.25,2,0,3.92.2,5.92.09l2.6-.14c-.05-.23.25-.37.9-.4,1.91-.11,6.87.63,5.39-.89,2.65-.14.83.44,1.88.67a19.16,19.16,0,0,0,4.85.4c1.34-.14,1.54-1.35,3.15-.87s2.06,1.4,3.7,1.9c3.18,1,1.67-1.47,3.58-1.57.59,0,9.08-.48,7.88.07,2-.11,4.09-.31,6.06-.29,2.91,0,1.17,1.83,4.7,1.64-.3-.58-3.5-1.17-.71-1.39a56.41,56.41,0,0,1,5.95-.27c1.64.06.51.39,2.52.29,2.3-.12,6.78-1,7.65.17.41.57,1.44,1,1.69,1.59,0,0-.75,1,0,.83.07,0,1.63-.56,2-.16.13.15-1.06.61.54.53.33,0,.34-.37.27-.73a4.38,4.38,0,0,0-.22-.71c-.14-.71-2.11-1.69-1.22-2.41.55-.44-.24-.6,0-1s3,.46,3.2.48c1.77.14.58-.44,1.46-.53,1.14-.12,4.76,1.41,4.23,1.65,1.16-.53,3.09-3.39,3.57-1a28.21,28.21,0,0,0,7,.53c1.35-.16,7.06-1.73,7.39-.69.14.44-.79.65.18.83,3.23-.17,1.2-.54,2.5-1.13.47-.22,3.81,1.63,4,1.75-2.08-1.24,7.53-3.36,10.38-2.93.86.13,1.09.45,1.92.62,1.18.24,3.21-.46,4.57-.51a5.63,5.63,0,0,1,2.72.54,18.25,18.25,0,0,0,4.5,0,83.28,83.28,0,0,1,9.72-.31c1.34.11,1.36.61,2.73.6,1.93,0,3.1-.76,5-1,3.29-.4,8.08.58,10.74,0,1.34-.31,5.64-2,6.15-.61.1-.5.91-1,2.38-1.08-.31,1.21,3.57,1,5.72,1.8-.47-.28-.84-.59-.47-.79,1-.57,3.07.62,3.63.75a10.64,10.64,0,0,0,4.13-.17c1.35-.32,1.28-1.53,1.8-1.61s4.81,1.34,3.48-.35c.39,1.41,5.63.87,8.2,1,2.95.16,1.4,1.05,2.83,1.47,0,0,.3-.52.64-1a4.28,4.28,0,0,1,.86-1.09c-.68.17,4.79,1.92,5.29.85-.12.26-.81-2.6.65-1.67,1.07.69,1.53,1.37,1.54,2.18a5.56,5.56,0,0,1,4.22-2c1.46,0,2.7.88,3.42.85a3.79,3.79,0,0,0,1.47-.66,2.54,2.54,0,0,1,1.14-.71c-.28.28,1.09.14,2.27-.05-.17-1.3-.37-2.45-.34-2.58.22-.88.78-1.6,1.42-1.23a10.65,10.65,0,0,1,1,.58,1.83,1.83,0,0,0,.81.39c-.21,0-.49-1.91-.55-2.13-.38-1.28-.68-1-1.14-1-.78,0-.63-4.28-.48-5.31a5.69,5.69,0,0,1,.88-2.27c.56-1.16-.81-1.56-1-2-.85-2.3.1-3.56-1.58-3.23,1.08-.21.32-3.48.66-5,.1-.41.69-.93.8-.16.26,1.73,1-.17,1,1.24,0-.45-.25-3.76-.14-3.78s1,3.72,1.34,2.52-1.27-3.82-1.48-4.07c-.91-1.1-1.38.23-2.07-2.6-.23-4.3,1.21-7.66.52-11.75-.22-1.27-1.31-4-1.18-5.41.06-.64,1.21.35,1.51-.45.58-1.54-.7-2.09-.93-2-2-2.17.62-1.87.57-2.9a1,1,0,0,0-1.25-.9c.73-2.5-.43-6.35-.44-9.26,0-2,1-8.73-.52-8.9,1-.8-.53-8-.53-9.9,0-1.78,0-4.84.65-5.87-.07-1.38.33-2.71-.21-3.89,0-1-.35-3.86.27-4,.1-2.2-.39-4.18,0-6.38,0,0,.14-.49.28-1s.28-.92.29-.8c-.09-1.57-.55-1.94-.68-3.78-.2-2.9-1-5.63-1.13-8.62-.08-2,1.43,1.42,1.69,1.37s-.75-3.28-.71-3.17a12,12,0,0,1-1-3.23,2.79,2.79,0,0,1,0-.64c0-.12,0-.24,0-.36l0-.19,0-.12a2.43,2.43,0,0,0,.19-1c-.27.11-.48-.25-.59-.67a2.91,2.91,0,0,1,0-1.49c-.1-.08-.12-.2,0-.37-.05-.33.36-.81.76-1.3s.73-1,0-1.28c.37.15-1.06,1.53-1.72,1.69a7.56,7.56,0,0,0-1.71.26c-.58.28-.36.89-1.27,1.24a11.45,11.45,0,0,1-6.46,0c-4.42-.56-2.59.86-5.86,1,1.19-.06.88-1.73-2.11-1.57-1.48.08-10.46.18-10.29,1-1.18.54-5.26-.08-5.38-.68,0,0,4.72-1.74,1.74-1.66-2,.06-3,2.36-3.47,2.84a1.82,1.82,0,0,1-2.53.09,4.82,4.82,0,0,1-.82-.8c-.2-.25-.32-.43-.32-.43-.46,0-1.23,1-1.89,1.15-.82.24-2.42-.45-2.88-.57-2.27-.62-2.18.4-3.36,1-2.22,1.1-1.72-.18-2-.57s-5.82-.11-5,.91c-.71-1.56-9.62-.86-12.88-1a25.54,25.54,0,0,0-4-.24c-1.6.46-1.08,1.83-3.93,2-.57-.7,3.69-3.57-.67-3.34.39,1.18-.55,2.34-1.76,3.47.19-.18-.79-1.17-1.7-1.12-.59,0-2.21,1.31-3.24,1.54-1.76.41-4.05-.88-6.46-.84-2.94.05-2.75.86-5.24,1.23a12.87,12.87,0,0,1-4.68,0c-.86-.25-1.09-1.65-1.71-1.67-1.83-.07-4.79,1.62-7.05,1.08a11.5,11.5,0,0,1-3.3-2.55c-1.07.48-.33,1.16-2.32,1.73-1.52.44-7.27.77-7.55,1.36-1.14,2.47-2.68,0-2.9-1.17-1.72.1-1,.34-1.19.83s-3,.35-3.69.41c-2.27.15-3.61.66-5.86.78q-2,.44-2.4-.21c-1.28-.29-2.26.25-3.12.22-1.17,0-.07-1.4.15-1.41-3.45.18-2.39,2.17-7.06,1.58-1.78-.23-3.09-.68-1.58-1.36,1-.32,3-1.38.11-1A28.55,28.55,0,0,0,418,12.81,39.12,39.12,0,0,1,410.56,14l-8.13.68-4.92.44-1.59.17a3,3,0,0,0-.62.09c.24-.72,1-2.08-1.18-2.72.68.2-2.21,1.79-2.6,2a4.75,4.75,0,0,1-4,.78c-2-.38-5.56.53-7.2,0-.58-.19-.08-1-1.25-.94-1.63.09-1.79,1.27-2.62,1.65.22-.1-.68-.89-1.32-.91-.12.18-.42.29-.9.34a6.42,6.42,0,0,1-2.53-.58,6.6,6.6,0,0,1-2.46-1.31c-.32.59-2,1-3.69,1.21-3.05.35-3.26-.19-4.18-1-.2-.17-4.5,1.27-4.74,1.74-1.07,2.1-3.11.84-1.55-.61.54-1.16,1.51-1.52-1.58-1.36-.72.32,0,1.4-1.28,1.84-1,.33-1.52-1-2.31-.93-.06,0,0,1.69-2.42,1.82-1.69.42-3.86.74-2.69-.34s-2.25-.64-3.27-.18c-2.48,1.11-.53.53-3.21-.26,1.3.38-.8,1-2.7.45a28,28,0,0,0-3.74-.28c-.53,0-.49.44-1.5.54-2.28.22-4.42,0-5.71.72-1.68,1-3.62-.64-3.51-1.18.4,2-6.86.64-5.42,0-3.07,1.4,0,1.24-3.56.19,1.29.39-3,1.11-3.5,1.33-.87.4.29.59-1.51.69-1.46-.19-4-.52-4.18-1.23-.09-.43-.22-.47-1.39-.4-1.61.12-.94.68-1.32,1.09s-6.63-1.68-5,.2c-1.54.09-1.6-.51-1.29-1a5.41,5.41,0,0,1-4.09.35c-.23-1.15-1.52-.61-2.21.12-.85.89.35,1.44-3.27.78-1.9-.35-2.36-.74-2.51-1.5.33,1.64-3.88.79-6.19,1.84-1,.9-5.48,1.08-7.54,1.06a7.33,7.33,0,0,1-2.67-.33c-1.1-.6-2.22-.05-3.92,0-1,0-2.61-.33-3-.31-2.36.12-.21,1.21-1.06,1.26-.34,0-1.86-.84-2.65-.92-2-.22-2.93.2-4.72.41-3,.35-.84-1.49-2.84-1.57-5.11-.19-2.72,1-4.46,2-1,.55-8.21.71-9.58.45-1.6-.31-2.51-.9-4.38,0-1.45.66-2.16.3-1.39-.41-1.77-.58-6.26-.78-4.71.49.8.66-7.13.65-8.21.63-3,0,.05-1.41-.79-1.65-.3-.09-6.24,1.45-7.92,1.4-2.11-.07-1.47-.58-2.25-1.11-1.23-.83-3,1.43-2.28,1.39-1.13.06-1.48-1.37-3.21-1.28s.69,1.66-1.77,1.79c-.08-.58.47-1.48-1.59-1.37-1.53.33-.34,1.71-1.93,1.79-1.82.1-3.79-.8-5.58-1a42.55,42.55,0,0,0-6.6-.11c-.85.06-2.75.21-2.66.67.21,1-2.42.13-3.89.2.07.37-2.77-.31-3.58-.28-2.92.11-4.85.53-5.81-.52-.32-.36-2.6-.11-2.77-1s-4.8-1.08-4.67-.42c0,.1,5.91,1.74.88,1.1-1,.35-.94,1-2.21,1.07-3.93.29-2.47-.27-2.65,1.1-.1.73-2.27.69-2.87.17-1.31-1.13-.28-3-.54-4.31-5.45.29.7,4.44-3.85,4.53-1.76,0-12.47-.84-13.42.31.1-1.7-5,.53-7.47.48s-8.8-2-10.66-1.21c-3.84,1.54-4.33.46-4.63-1-2.56-.75-2.2,2.1-2.12,2.52-1.5-.89-4.07-2.88-7.93-1.93-1.43.35,1.8.77,1.88,1.17.13.66-3.46-.12-3.72.46-.15.32,1.66.68-.41.83a14.48,14.48,0,0,1-4.22-.27c-1.23-.27-1.45-.84-1.55-1.34s-2.17-1.37-2-.36c.06.31,2.48,2.76-.66,2.56-1.12-.07-2.55-.28-3.57-.43-3.11.17-2.76-1.26-3.24-2-1.1-1.55-2.18.72-3.59.86s-3.94-.3-3.74.7c.3,1.53-2.07.15-2.9-.12-1.36-.46-4.08.12-5.34.35-1.93.34-1.46-.2-2.4-.15-1.91.11-3,.71-5.1.55-.92-.08-4.65-.74-5.62-.3-.45.21,1.46.61-.76.83-1,.1-6.39.57-6.53-.12-.1-.54-7.49.5-9.18,0-.73-.33-3.28-1.36-4.82-.8-1.29.47.22,1.26-1.89,1.64-1.47.27-9.23-1.9-8.86,0a15.69,15.69,0,0,1-3.75-.83c-1.87-.63-1.06.24-1.72.44S12.13,22.41,12,22.12c-.3-.48-2.06-4.06.31-3.36.82,0,7.17,1.68,7.37,1.38s-1.21-.37-.69-.77a3.28,3.28,0,0,0,2.11-.75c.58-.56.48-1.8-1.79-1.68,6.71-.35,13.52-.3,20.26-.49,5.34-.16,10.7-.37,16-.43,1.07,0,3.19.28,3.84.23,1.83-.15,5.64-1.51,7.15-.61,1,.61-2.23,2.32-1.45,2.55-.11,0,4.74-.59,4.64-.55,1.37-.5,1.07-1.2,1-1.8.19.93,2.14.62,3.07.28,1.39-.51,1.59.07,2.31-.67s2.68-.39,3.7-.19c1.2.23,2.41.8,4,.51,1.21-.22,1.87-.86,3.42-.61,1.36.22,3.63,1.26,5.51.47,1.16-.49.8-.74,3.14-.68,2,0,5.17.29,6.32,1,2.71,1.61,1.7-.78,3.83-1.22a11,11,0,0,1,3.53,0c.82.12,4.16,1.32,4.3,1.31-.23,0,2.57-3,5.11-1.48,1.59.16,2.71.25,4.43.33,1.39.07,4.6,1.37,4.92,1.35-.69,0,.95-1.64,1.18-1.75a7.16,7.16,0,0,1,3.74-.68c.21,1,6.91.21,6.42-.71-.54,1.48,13,.16,15.09.05,2.74-.15,3.13.8,6,.64.76.1,2.23.39,2.92,0,.47-.25,1.21-1.45,1.87-1.49a1.46,1.46,0,0,0,2,.94c.32-.09,3-1.16,3.4-.77,1.38,1.51,4.36-.26,7.44-.15,1.72.06,1.15.38,2.13.66s4.13-.5,5.34-.54A20.17,20.17,0,0,1,192,13c1.48.38,1,0,2.05-.33,3.89-1.07,12-1.32,16.31-.87,3.8.41,1.34-.77,4.56-.85,2.27-.06,3.83.51,4.42,1.23,0-.5.2-1,1.51-1.14,1.6-.17,3.09.3,4.94.2s1.28,1.05,1.82,1.41c.71.48,3.38-1.49,4.8-1.68,2-.28,7.28-.79,7.79.2-.06-1.12,6.54-1.06,8.39-1a26.1,26.1,0,0,1,5.94.55c3.08.91,2.78-1,4.7-1.09a26.65,26.65,0,0,1,4.3.45c1.5.13.69-.35,1.93-.42,2.5-.13,1.64.37,3.13.92,2.59,1,5,2.2,7.56,3.34-.75-1-1.71-1.94-1.9-3-.53-2.82,1.55-.15,4.68-.32,0,0-.53-.3-1-.61s-.78-.66-.36-.75c1.95-.4,5.8.88,8.26.75A12.5,12.5,0,0,1,290,9.53c.73.09,2.92,1.28,3.53.63.37-.4.1-1.27,1.92-1.37,1.46-.08,2.35.65,2.18,1.09-.15-.75,6.34-1.09,6.49-.34C302.61,7.66,316,8.42,318.87,8.27c1.25-.06,4.93-.43,5.9,0,.37.17.77.85,1.59.8,1.09-.06,1.22-.83,1.11-1.27.55.79,3.49,2.7,5.1,2,.51-.24-2.92-1.6.14-1.76,2.24-1,3.19.8,5.38.68-1.07-2.5,4-.11,4.18,1.23,2.29-.13,0-1.95,1.82-2.39A30.39,30.39,0,0,1,353,7.42c1.19.17,3.3,2.18,4.41,1.56.85-.48-.73-1.45,0-1.79,2.13-.11,4.36-.3,6.5-.28a8.47,8.47,0,0,1,3.74.76c1.67.53,1.56-.73,2.1-1,2.25-1.33,3.53,1.42,3.89,1.4a7.79,7.79,0,0,0,2.13-.84c1.67-.76,3.43-.65,5.55-.51s1.43-.37,3.13-.43a40.72,40.72,0,0,1,5.85.44c.88.09,2.92-.94,5-1,1,0,1.12.07,1.19.41,1.54,0,3.45-.19,5-.27,2-.11.8-.13,2.52.41s1.21-.74,1.86-1c4.09-1.51,3.68,2.12,4.22,2.59.76.64.8-2.25.93-2.32.84-.43,6.13-.86,5.78,0-.08.18-.59,3,.95,2.55C419.6,7.57,419,4.7,422,4.61c1.12,0-.17.61,1.47.52s3-.37,3.18.32c1.65-.16,2.27-.72,3.69-1,1.19-.24,2.32.68,4.1.59-.23-1.13,6.46,1,6.64.91,1.1-.5.78-1,3.26-1.15a11.35,11.35,0,0,1,3.15.23c.2,0,2.68,1.13,2.82.93.47-.7-.93-1.52,2.59-1.43,2.85.06,4.53,1.3,6.29-.33-.14-.68,2.27.53,3.89-.2-.09-.47,4-.81,4.72-.89a20.38,20.38,0,0,1,5.91,0c2.32.5,6.92-.14,9.48-.18,3.33-.07,7.17-.14,10.45,0,.63,0,5.54.92,4.73,1.29,1.1-.49-1.75-2-.62-2.25A1.16,1.16,0,0,1,498,2l.66.13,2,.42a21.7,21.7,0,0,1,2.91.72,6.87,6.87,0,0,0,3.36-1.21c1.86-.89,2.79.31,4.38.3,3.68,0,4.17.35,4.23,1.73-.61-2.18,2.51-2.08,7.9-2.35,4.81-.25,6.12-.18,6.37,1.59A6.43,6.43,0,0,0,531,1.7c.44-.69,1.73-.38,2.4,0-.73,0,3.59,0,2.6-.33.57.16,2.09,1.29,2.66,1.26.39,0-.64-1.42,1.5-1.53,2.5-.13,3.55.68,5.1,1.13-1.68-.49,3.68-.93,3.73-1,.26-.56.72-.38,2.57-.47.61.21-.21,1.17-.26,1.15-.38-.11,10-1,11.41-1,1.16,0,3.45.74,3.32.08a8.51,8.51,0,0,1,1.81-.59l.25,0,.45,0,.92-.08c.62,0,1.25-.08,1.9-.11,2.58-.11,5.32-.06,8.32,0h.52c0,2,.07,7.93-.33,7.07-.2-.41-.81.17-1.29,1a3.47,3.47,0,0,0-.52,2.8c.33,1,.84,1,1.33,1.15a1.41,1.41,0,0,1,.37.18,1.16,1.16,0,0,1,.33.23,2.41,2.41,0,0,1,.52,1.17c.46,2.24-1.13,3.7-1,5.46,0-.11.89-1.6,1.11-.72a28.69,28.69,0,0,1,.23,7.05c-.35,2-.33,1.6.1,4.14a24.23,24.23,0,0,1,.25,6.42c-.25,2-.72,1.77-.06,3.6a13.15,13.15,0,0,1,.13,5.59c-.14.78-.94,2.15-.75,3.22.35,1.94,1.3,2.46,1.52,4.78-.82.16-.25,1.42,0,2.58.26,1.33-.47,1.73-.83,2.38.69-1,1.74,6.57,1.6,8.06,0,.21-2.81,6.69-1.45,7.32.4.19,1.1-2.26,1.09.92,0,1.78-1.19,4.44-1.16,5,0-.13,1.21.21,1.33,2.51s-.5.57-.61.95a14.3,14.3,0,0,1,.2,3.07c-.11,1.07-1.16,2.35-.79,3.51.63,2,3,5.31,1.85,8.7-.24.73-1.43.74-1.38,1.79.1,1.86,1.34,1.43,1.73,2.68,1.08,3.48-.26,5.71-.92,7.86a9.71,9.71,0,0,0-.45,3.91c.23,1.45.88-.42,1.28.22,1.38,2.22-.27,5.47-.2,7.83.62-.13.59,2,.64,3,.08,1.51.6,2.14.6,4a36.57,36.57,0,0,1-.64,6.15,25.94,25.94,0,0,0-.87,5.37c0,.82.14.79.33.57s.37-.66.34-.53c.58.29.82,1,1.08,2.86-.54.09-1.27.18-2.18.29-5.87.72-3.07-.85-4.26-1.47-2.4.1-1.82.7-1.56,1-1.79,0-3.19,0-4.52-.08a15.56,15.56,0,0,0-2.54-.07c-.6,0-.77.52-1.64.69a16.93,16.93,0,0,1-5.07.13c-.79-.11-4.11-.78-4-.06,0-.09-.46-1.3-1.33-.91-1.25.57.27,1.76-3.41,1.75a4.3,4.3,0,0,1-1.94-.4,17.76,17.76,0,0,0-4.5,0c-3.26.16-7.21.85-10.23.16-1.38-.32-.48-1.59-2.12-1.23-2.42.55-4,.76-6.54,1.11.14.71-6.94,1-8.28.84s-.8-2.18-2.65-1.29c-.65.31-1.18,1.33-2.49,1.4-1.16.06-.53-.91-2.25-.82.18,0-2.49.63-3.12.7-2.35.25-4.75.45-7.15.6s-4.82.29-7.22.3c-1.81,0-3-.3-4.73-.21-1,.06-2.33.2-3.35.16-.85,0-.36-.85-1-1-.92-.27-4.77,1.26-6.29,1.43a48.71,48.71,0,0,1-7.45.26,9,9,0,0,1-2.55-.34c-.46-.22.7-1.08.07-1.05-1.48.08-1.86,1.46-3.76,1.71-1.74.22-1.45-.53-2.49-.8a18.08,18.08,0,0,0-5.95-.16c-2.53.34-3.26,1.53-6.26.87-1.51-.33-3.95-1.2-5.76-.38-1.62.74.89.72-2.56.9-1.7.09-3.26.16-4.95.14-2.76,0-15.48.75-15.52-.86,1,1.68-8.18,1.28-10.31.91-.15-.72-2.56-.83-4.09-.75-2.25.12-2,.8-3.37,1.15a18.26,18.26,0,0,1-5.27.7,2.15,2.15,0,0,1-1.55-.34c-1,0-2,.21-3,.08a73.46,73.46,0,0,0-7.41-1c-1.68,0-3.74.44-2.61,1.11-3.19.17-6.4.4-9.6.44-2.53,0-5,0-7.57,0-1.56,0-3.11.18-4.67.17-.63,0-1.63-.34-1.88-.32l-15.56.82a22.37,22.37,0,0,1-4.78,0c-2.75-.38-5.05.5-7.69.27a31.47,31.47,0,0,0-5.72-.25l-9.89.22c-4.09.1-8.91.47-12.92.17-1.51-.11-1.5-.63-3.53-.23-.65.13-3.86,1.72-4.75,1.21-1.88-1.07-1.74.19-3.95.21-2.67,0-.86-2.08-4.37-1.9-.27.7,1.77,1.28-.58,1.46-1.91.15-8.7.89-8.38-.38.34.75-2.31,1.52-4.2,1.18-1-.19-.65-.59-1.63-.8a13.44,13.44,0,0,0-4.77.2,16.14,16.14,0,0,0-3.51,1c-1.59.09-2.27-.36-3.13-.31-1.45.08-8.57.82-8.74,0-2.92,1.52-3.65.58-6.58-.13.16.8-16,1.55-17.9,1.06-1.1-.29-4.09.1-5.46.18-2.21.11-2.37-.92-5.48-.3-1.87.37-1.85.69-4.08.8-1.49.08-.69-.35-2.25-.34-3.09,0-3-.36-5.24-1,.29.09-.6,1.06-1.25,1.09s-2.62-1-3.4-1.18c-1.1-.23-.67.53-.64.68-.64.59-2.54,1-4,1.23-3,.51-2-.37-5.11-.26-2.61.09-4.9-.33-7,0-9,1.17-19.75,1.14-29,1.48-6.92.25-14.33.33-21.28.4-7.86.08-15.68.12-23.44,0-1.74-.51-2.36.12-4.54.24s-4.26.12-5.74.79c.19,1-1.62-.16-1.8-.19-2.05-.35-5.31.13-7.53.18-.93,0-1.18-.07-1.24-.4-.15-.76-.69-.8-2.49-1-3.55-.4-.07,1.78-.44,1.94s-5-.47-5.91-.46c-1.36,0-1.12.57-2.78.46-.53,0-3.75-.9-4.33-.36-.31.28,2,1.47-1.35,1a24.11,24.11,0,0,0-4.91-.36c-6.71.19-13.33.74-20,.67-1.61,0-2.64-.32-4.16-.35a43.77,43.77,0,0,0-5.59.45c-4.58.47-9.47.74-14.14.79-2.25,0-4.71.16-7.15.23l-1.81,0h-2.1c-2,0-3.92,0-5.63-.11-2.13-.11-2.49-.32-4-.28,0-.61-.07-1.35-.2-2.43-.21-1.83-.36-3.91-.49-6-.09-1.53-.19-3.08-.28-4.58-.25-4.07-.11-8.08-.23-12.17-.13-4.68-1.07-13,.12-17,.49-1.69.94-2.81-.14-2.6-.92.19-.22-3.92-.75-5.09-.75-1.64,0-4.84.13-6.58-.12-2.3.1-3.47.06-5.76-.12-7-.65-14-1-21C1,73.21.37,67.05,1,64.76c.4-3.14.26-2-.38-2.08-.32,0,0-5.39,0-5.71-.14-2.66.2-5.26.07-7.88,0-.92-.18-2.59.34-2.69a15.46,15.46,0,0,0-.53-3.59C-.29,38.16.32,33,.07,28.23,0,27-.21,20.52.7,24.22Zm580.42,34.2a1,1,0,0,1,.13-.32A1.53,1.53,0,0,0,581.12,58.42Z"/><path class="cls-2" d="M132.67,23.53a.26.26,0,0,0-.06.3A1.32,1.32,0,0,0,132.67,23.53Z"/><path class="cls-2" d="M327.47,7.81a.85.85,0,0,0-.09-.23A.38.38,0,0,0,327.47,7.81Z"/><path class="cls-2" d="M572.61,62.91a.36.36,0,0,0,.37-.07A.75.75,0,0,0,572.61,62.91Z"/><path class="cls-2" d="M7,25.31c-1.18.22-1.6,1,.19,1C8.85,26.18,9,25.21,7,25.31Z"/><path class="cls-2" d="M7.26,20c-.94.05-1.67.79-.77.74.33,0,3.69-.56,2.9-.79A13.81,13.81,0,0,0,7.26,20Z"/><path class="cls-2" d="M6.44,22.45c.46-.85-1.54-.87-2.69-.34l.33,1.62C3.91,22.91,4,22.58,6.44,22.45Z"/></g></g></svg>