<svg xmlns="http://www.w3.org/2000/svg" viewBox="0 0 411.64 119.22"><defs><style>.cls-1{fill:#f5ff2e;}.cls-2{fill:#f5ff2f;}</style></defs><g id="Layer_2" data-name="Layer 2"><g id="content"><rect class="cls-1" x="5.4" y="13.43" width="398.37" height="93.82" transform="translate(-2.1 7.66) rotate(-2.13)"/><path class="cls-2" d="M7,95.09c.36.26,2.12,1.51,1.91-.3A1,1,0,1,0,7,95.09Z"/><path class="cls-2" d="M46.79,111.3c1-.07-2-1.48-2.58-1.09S46.21,111.3,46.79,111.3Z"/><path class="cls-2" d="M93.07,108c-1.42-.06-1.77.43-1.67,1.08l.91-.06C92.73,108.79,93.12,108.39,93.07,108Z"/><path class="cls-2" d="M9.66,16.69c.91-.07-1-.42,0,0Z"/><path class="cls-2" d="M.7,21.79c.64,1.85,1.91-.33,2.93,1.23-.44-.67-1,1.91-.75,2.75.77,2.39,1,.07,1.61,0-.18,2.58.81,1.06,1.39,1.24.9.28-.77,3.39.66,2.6s2.14-2.25,3.52-.13c1.49,2.29-.44,6-.18,2,.14-2.22-2.35.07-2.32-.57,0-.07.5-2.34-.3-1.31a5.87,5.87,0,0,0-.79,3.67c.07,1.27.77,3.48.28,4.63-.29.69-1.15.26-1.06,1.54s1.36,1.34,1.22,2.48c-.24,1.93-.91,1.23-.07,3.65a7.92,7.92,0,0,1-.13,4.27c-.36,1.2-1.42,1.08-1.33,2.38L6.81,52c.07,1-2.69,3.41-1.3,3.83.78.24.68,1.33.8,2.58.14,1.53,1,2.56.22,3.48-.32.38-1.07-.16-1.12.75-.09,1.37,1,1.44,1.38,1.83.78.69-1.66,5.49.26,3.63.09-.09-.17,3.15.63,3,.08,1.18-1.48,3.9-.23,3.7a1.52,1.52,0,0,1-.57,1c1,.21,2,2.18,1.24,4-.34.77-1.75.17-1.65,1.6,0,1.19.87.69,1.23.79,1.24.32,1.22,3.88.25,4.51-.49.32.09.87-.88,1L5.48,88c.18,2.45,2,1.37,2.8,2a1,1,0,0,1,.32,1.21c.11,1.58-1,0-1.32.07-.85.25-1.09,2.79-.91,4.11.08.61.69,1.28.56,1.83-.17.75-.7.84-.84,1.5.11-.53,2.82.41,3.24.6-.24-.11-.58.79-.39,1.25.69,1.7,1.1,1,.78,3.6-.07.56-.17,1.59-.22,2.51,0,.46,0,.89,0,1.22s0,.41.09.46c-1.51-.83.15,2.42-2,1.9-.72-.28-.67-1.33-1.55-1.08-.45-.08-1,.29-1.42.46,1,.88,1.86,1.33,2.7,2.11a1.13,1.13,0,0,0,1.5.23c.35-.2.42.2.48.57a1.54,1.54,0,0,0,1.43-.88c-.34.42-.29.74.23.78.71,0,.69-.41,1.23-.71s.46.21.43.72-.26,1.08-.58,1.1a2,2,0,0,0,1-.52l.45-.37a1,1,0,0,1,.43-.25,9.63,9.63,0,0,1,4.37-.21c1.74.3-.5,1.8-1.22,2.2,1-.08,1.81-.17,1.71-.8.26,1.68,4.76,2.43,2.75,0-3.21-1.35,2.41-3.77,4.24-2.23-3.83-.16-.07,1.94-2.42,2.1.15,1.28,2.42,1.17,2.78,0,.08-.26,2,.18,2.46.08s-.16-1.45.11-1.79c.72-.91,2.14-.94,3.58-.58S30,112.1,30,112.42a21.56,21.56,0,0,0,3.4-.24c1.09-.23.08-1,.78-1.16.47-.1,2.54.42,2.41-.45,1.53.48,1.74,1.7,2.79.28.73-1,1.36-.75,2.73-.18,4,1.65,6.73,2.16,10.42-.24-1.57,1,3.48,1.16,3.34.23,1.35-1.82,4.46.17,1,.41a1.91,1.91,0,0,0,2.87.76c1-.07.81-.68.76-1-.89.06-2.78-.62-1.5-1,2.14-.7,3.1.44,4.71.33,2.11-.15,3.44-.17,5,.61.56-.75,2-.78,3.07-.45a6.8,6.8,0,0,0,1.77.57c1.11,0,.87-.46,1.69-.74,1.89-.66,1.22.91,2,1,1.54.09,2.5.13,2.65,1.1a3.75,3.75,0,0,1,.57-2.27c.15,1,.31,3.27,3,1.7.89-.51,1.85-1.52,3.08-1.83s.79,1.85,2.15,0c-.05-.32,3.65,1.27,4.36.95a10.28,10.28,0,0,0,3.65-2.48c.17.2,1.45,2.07,1.7,2s.47-1.36,1.09-1.1c.88.37.25,1.48,1.58,2,1.08.38,3.62-.28,4.6-.62,2.6-.88-4,.28-3.33-.51a9.4,9.4,0,0,1,3.21-2.12c1.49-.62,2.11.07,3-.18,1.13-.31,1.63-.81,3.08-.66,1.26.13,2.31.45,3.61.55a8.12,8.12,0,0,0,2.36,0c.38-.08.91-.56,1-.58a2.68,2.68,0,0,0,0,.47l.12,1,.24,1.77a4.54,4.54,0,0,0,1.24,2.12c-.2-1.3-1.49-5.2,2-5.6,2.45-.29,6.29-.29,8.25.53,1.77.75,1.26-.57,2.34-.46s2,1.59,3.42.61c.52-.36,2.15-2.38,2.41-.72,1.49.63,1.8-.31,3.36-.22.32.08.43.23.34.44a5.92,5.92,0,0,0,2.44-.49c.93-.38,1.57.52,2.93-.37-.14-.91,2.72.16,3.36.19,2,.06,3.3-.55,5.18-.7,2.25-.17,6.1.26,6.33,1.7-.18-1.11.48-2.19,3-2.11a30.38,30.38,0,0,1,3.87.62c1.55.24,1.32-.95,2-1.08.23,0,.12,1.82.47,2.09.73.56,1.69-1.81,2.08-1.84.13,0,.25,1.43,1.24,1.36.54,0,1.17-1.11,2.2-1.3,2.09-.37,5.27-.68,6.49.46,2.13,2,1,1.47,3-.15,1.43-1.18,3.91,1.24,4.59.71.13-.1-2.24-3.59,1.27-1.76,1.43.74,1.13,1.51,2.48.12,1-1,4.19,1.88,4.55,2-.4-.17,2.15-2.55,4.15-2.35-.3,0-.52.81-.46,1,2.19-.15,2.71-1.64,5.37-1.87.65,0,1.67,0,1.74.41.15.93,1.93-.08,2.28.46.14.21-.83,1,.37,1.1.95.09,2-.92,2.82-1.14,1.89-.55,1.05,1,1.26,1.52,1.91-.14,1.25-.82,2.25-1.47.59-.39,1.37.55,2.54-.15.52-.32,3.07-1,3.32-.24,0,.14.91,2.3,1.42,2,.29-.19-.52-.92-.5-1.21.05-.64,1.14-.59,2.05-.65s.26-.38,1.19-.44c1.21-.09,2.16.21,3.45.11,1.62-.11,10.27-1.41,9.68.29.65,0,1.82-.09,1.74-.61.75-.16,1.78,0,2.43-.31,1.23-.64,4.2-.27,6.2-.22a40.91,40.91,0,0,0,4.15.12l1.82-.13c0-.24.17-.37.62-.41,1.34-.09,4.82.67,3.76-.86,1.86-.13.59.44,1.33.67a9.36,9.36,0,0,0,3.4.42c.94-.13,1.06-1.33,2.19-.86s1.46,1.42,2.62,1.92c2.25,1,1.15-1.46,2.48-1.55.42,0,6.35-.45,5.52.09,1.38-.09,2.86-.28,4.24-.26,2,0,.85,1.84,3.32,1.66-.22-.59-2.47-1.19-.52-1.39a26.33,26.33,0,0,1,4.16-.25c1.15.07.37.39,1.77.3,1.61-.12,4.73-1,5.36.2.29.57,1,1,1.21,1.59,0,0-.51,1,0,.83.05,0,1.13-.55,1.39-.15.1.16-.72.61.39.53.23,0,.24-.37.18-.72a5.36,5.36,0,0,0-.16-.72c-.11-.7-1.51-1.7-.9-2.41.38-.44-.17-.6,0-1s2.12.47,2.25.49c1.25.15.4-.43,1-.52.8-.12,3.36,1.42,3,1.66.81-.52,2.11-3.37,2.49-1a14.3,14.3,0,0,0,4.9.56c.94-.16,4.92-1.71,5.17-.66.1.43-.55.64.13.83,2.26-.16.83-.54,1.73-1.13.33-.21,2.7,1.64,2.85,1.77-1.48-1.24,5.21-3.33,7.22-2.89.6.13.77.45,1.35.63.83.24,2.24-.45,3.19-.49a3,3,0,0,1,1.92.54,9,9,0,0,0,3.15.06,39.73,39.73,0,0,1,6.8-.27c.94.1,1,.61,1.92.6,1.35,0,2.16-.75,3.52-1,2.3-.38,5.67.62,7.52,0,.93-.31,3.91-2,4.29-.59.07-.49.63-1,1.65-1.06-.19,1.21,2.52,1,4,1.82-.33-.28-.6-.6-.34-.79.72-.57,2.15.63,2.55.76a5.27,5.27,0,0,0,2.89-.15c.94-.32.87-1.53,1.23-1.6s3.39,1.35,2.43-.34c.3,1.41,4,.89,5.76,1,2.07.17,1,1,2,1.48,0,0,.2-.52.43-1a3.91,3.91,0,0,1,.58-1.08c-.47.16,3.39,1.93,3.72.86-.08.26-.61-2.59.43-1.66a2.92,2.92,0,0,1,1.11,2.18c.46-.62,1.29-2,2.92-2a3.31,3.31,0,0,1,1.4.46c.33.22.57.43.77.41s.41-.32.56-.63.29-.63.59-.7c-.11.28.81.14,1.59,0-.17-1-.36-1.8-.33-1.88.22-.62.8-.68,1.44-.39s1.35,1,1.79,1.11c-.22-.07-.49-1.42-.55-1.54-.38-.85-.67-.62-1.13-.64-.78.14-.62-3-.47-3.66a3.52,3.52,0,0,1,.9-1.6c.56-.82-.81-1.08-1-1.41-.84-1.59.11-2.49-1.57-2.23,1.07-.17.33-2.45.68-3.51.09-.28.69-.66.8-.12.25,1.21,1-.13,1,.86a20.25,20.25,0,0,1-.13-2.65c.08,0,1,2.59,1.33,1.74s-1.25-2.65-1.46-2.83c-.91-.75-1.38.19-2.06-1.78-.21-3,1.24-5.38.56-8.23-.21-.89-1.28-2.77-1.15-3.77.06-.45,1.21.22,1.51-.34.58-1.09-.7-1.46-.92-1.42-2-1.49.63-1.32.58-2s-1-.73-1.25-.61c.74-1.76-.41-4.44-.4-6.47,0-1.44,1-6.13-.48-6.23,1-.57-.5-5.56-.5-6.92s.06-3.39.67-4.12c-.06-1,.34-1.91-.19-2.72,0-.68-.34-2.7.29-2.8.1-1.54-.38-2.92,0-4.47a8.14,8.14,0,0,1,.57-1.24c-.07-1.09-.53-1.34-.66-2.63-.19-2-1-3.92-1.1-6-.07-1.43,1.43,1,1.68.93s-.73-2.28-.69-2.21a6.64,6.64,0,0,1-1-2.24c-.05-.35.05-.4.15-.65a1.44,1.44,0,0,0,.19-.72c-.33.12-.58-.25-.65-.64a1.69,1.69,0,0,1,.46-1.37,6.44,6.44,0,0,1,1.14-1.32,4.12,4.12,0,0,0,1.18-1.72s0-.08-.07-.11c.18.15-1.48,1.55-2,1.71s-.82,0-1.3.26-.79.91-1.22,1.24a1.46,1.46,0,0,1-1.13.41l-.14,0a.71.71,0,0,0-.2,0,5.4,5.4,0,0,1-.58-.1,5.65,5.65,0,0,1-1.05-.32c-3.11-.58-1.81.85-4.09,1,.83-.06.59-1.73-1.51-1.59-1,.08-7.31.14-7.18,1-.82.53-3.69-.1-3.78-.7,0,0,3.28-1.72,1.19-1.65-1.4.05-2,2.35-2.38,2.82a1,1,0,0,1-1.77.08,4.42,4.42,0,0,1-.59-.8l-.23-.42c-.33,0-.85,1-1.31,1.13s-1.7-.45-2-.58c-1.6-.63-1.52.39-2.34,1-1.53,1.09-1.2-.19-1.44-.58s-4.07-.13-3.5.89c-.52-1.56-6.74-.89-9-1A12.72,12.72,0,0,0,351,9.73c-1.11.45-.72,1.82-2.71,2-.42-.7,2.52-3.55-.53-3.34.3,1.18-.34,2.34-1.17,3.46.13-.17-.58-1.17-1.21-1.12-.42,0-1.53,1.29-2.24,1.52-1.23.4-2.86-.89-4.54-.86-2.06,0-1.92.85-3.65,1.2a6.37,6.37,0,0,1-3.28-.05c-.6-.26-.79-1.66-1.22-1.68-1.29-.08-3.33,1.61-4.92,1a9.52,9.52,0,0,1-2.35-2.56c-.74.48-.22,1.17-1.6,1.73-1.05.42-5.08.73-5.26,1.33-.76,2.46-1.88,0-2-1.18-1.21.08-.7.33-.82.82s-2.07.34-2.58.39c-1.59.15-2.52.65-4.09.76-.93.29-1.49.22-1.69-.22-.89-.29-1.58.24-2.17.21-.83-.05-.08-1.4.08-1.41-2.41.17-1.64,2.16-4.92,1.55-1.25-.23-2.18-.68-1.13-1.37.69-.3,2.09-1.36.06-1a15.1,15.1,0,0,0-3.38,1.37,19.8,19.8,0,0,1-5.2,1.16l-5.68.65-3.43.42a10.79,10.79,0,0,0-1.54.25c.15-.71.67-2.07-.87-2.72.47.2-1.52,1.77-1.8,2-1,.79-1.46,1.13-2.78.76s-3.88.5-5-.05c-.41-.19-.07-1-.89-.94-1.14.08-1.23,1.26-1.81,1.64.16-.1-.48-.89-.93-.92-.08.18-.29.29-.63.34a3.51,3.51,0,0,1-1.78-.59A4.54,4.54,0,0,1,259.53,13c-.22.59-1.41,1-2.57,1.19-2.13.35-2.29-.2-2.94-1a8.31,8.31,0,0,0-3.29,1.72c-.71,2.1-2.17.83-1.09-.61.35-1.16,1-1.52-1.13-1.37-.51.32,0,1.4-.87,1.83-.67.33-1.08-1-1.63-.93a3.14,3.14,0,0,1-.21.86,1.59,1.59,0,0,1-1.46,1c-1.18.41-2.69.72-1.89-.35s-1.58-.65-2.29-.2c-1.72,1.1-.36.53-2.25-.27.92.39-.54,1-1.88.44A13.24,13.24,0,0,0,233.4,15c-.37,0-.33.43-1,.53-1.6.22-3.09-.06-4,.69-1.17,1-2.55-.64-2.48-1.19.31,2-4.79.62-3.79,0-2.14,1.38,0,1.23-2.5.17.92.39-2.08,1.09-2.42,1.32-.61.39.21.59-1.05.68-1-.19-2.84-.54-2.95-1.24-.07-.43-.16-.47-1-.42-1.12.12-.65.69-.9,1.09s-4.68-1.7-3.49.19c-1.07.07-1.13-.52-.92-1a2.78,2.78,0,0,1-2.86.34c-.18-1.16-1.07-.62-1.54.11s.27,1.44-2.28.76c-1.34-.36-1.66-.75-1.78-1.5.26,1.63-2.7.77-4.3,1.81-.67.89-3.83,1.06-5.27,1a3.84,3.84,0,0,1-1.87-.34c-.78-.6-1.56-.06-2.75,0a17.41,17.41,0,0,1-2.1-.32c-1.64.11-.12,1.21-.72,1.25-.23,0-1.31-.84-1.86-.93-1.41-.22-2,.19-3.31.4-2.1.33-.61-1.5-2-1.58-3.58-.21-1.89,1-3.09,2-.67.55-5.73.68-6.7.41-1.12-.31-1.77-.9-3.06-.06-1,.65-1.51.29-1-.42-1.25-.59-4.39-.8-3.29.47.58.66-5,.62-5.73.6-2.1-.05,0-1.41-.59-1.66-.21-.09-4.34,1.43-5.52,1.37-1.47-.07-1-.58-1.59-1.11-.88-.84-2.05,1.41-1.57,1.38-.8.06-1.07-1.37-2.27-1.29s.5,1.65-1.21,1.78c-.07-.58.3-1.47-1.14-1.37-1.06.32-.21,1.7-1.32,1.78-1.28.09-2.67-.81-3.92-1a20.91,20.91,0,0,0-4.62-.14c-.6.05-1.93.19-1.86.65.16,1-1.69.12-2.72.2.06.36-2-.33-2.51-.3-2,.1-3.38.51-4.08-.55-.23-.35-1.82-.12-2-1s-3.38-1.09-3.28-.43c0,.1,4.17,1.76.63,1.1-.7.35-.63,1-1.52,1.07-2.75.27-1.73-.29-1.84,1.08-.06.73-1.58.68-2,.16-.93-1.13-.24-3-.44-4.31-3.82.27.56,4.44-2.63,4.51-1.23,0-8.75-.89-9.39.26,0-1.7-3.46.51-5.22.45s-6.19-2-7.48-1.25c-2.67,1.53-3,.45-3.26-1-1.81-.76-1.51,2.1-1.44,2.52-1.07-.9-2.9-2.9-5.59-2-1,.34,1.27.78,1.33,1.17.11.66-2.42-.13-2.59.45-.1.32,1.17.69-.27.83a7.2,7.2,0,0,1-3-.29,1.47,1.47,0,0,1-1.11-1.35c-.09-.57-1.54-1.37-1.38-.37,0,.31,1.77,2.77-.43,2.57a24.28,24.28,0,0,1-2.51-.45c-2.17.16-1.94-1.28-2.3-2-.79-1.55-1.51.71-2.49.85s-2.77-.32-2.61.68c.24,1.53-1.44.14-2-.14-1-.46-2.86.11-3.73.33-1.35.34-1-.2-1.69-.15-1.33.09-2.07.7-3.56.52-.65-.07-3.27-.75-3.94-.31-.31.2,1,.61-.52.82-.72.1-4.46.55-4.57-.14s-5.24.47-6.43,0c-.52-.34-2.32-1.38-3.39-.83-.89.47.18,1.27-1.3,1.64-1,.26-6.49-1.94-6.2,0a8.2,8.2,0,0,1-2.64-.85c-1.32-.63-.74.24-1.2.44s-2.91-3.68-3-4c-.21-.49-1.5-4.07.17-3.36.57,0,5,1.71,5.18,1.4s-.85-.37-.49-.77a1.92,1.92,0,0,0,1.46-.74c.4-.55.31-1.79-1.28-1.68,4.69-.33,9.46-.25,14.18-.42,3.73-.13,7.48-.33,11.22-.36.75,0,2.24.29,2.69.24,1.28-.14,3.93-1.49,5-.58.73.61-1.53,2.31-1,2.54-.07,0,3.31-.57,3.24-.53.95-.5.73-1.2.64-1.8.15.94,1.51.64,2.15.3,1-.51,1.12.07,1.61-.66s1.87-.38,2.59-.18,1.7.81,2.82.52c.85-.21,1.3-.85,2.39-.59s2.56,1.27,3.86.49c.81-.48.55-.73,2.19-.67,1.44.05,3.63.31,4.44,1,1.92,1.63,1.18-.76,2.66-1.2a5.42,5.42,0,0,1,2.47,0c.58.11,2.94,1.33,3,1.32-.15,0,1.76-3,3.56-1.45,1.11.15,1.9.25,3.11.34,1,.08,3.24,1.38,3.46,1.37-.48,0,.64-1.64.8-1.75a3.73,3.73,0,0,1,2.61-.67c.16,1,4.84.24,4.48-.67-.35,1.47,9.09.2,10.57.1,1.91-.14,2.2.81,4.23.67.54.1,1.57.39,2,0s.83-1.44,1.29-1.48c.09,0,.21,1.44,1.42.95.22-.09,2.11-1.14,2.36-.76,1,1.52,3-.24,5.21-.12,1.2.07.81.38,1.5.68s2.88-.49,3.73-.53a10.16,10.16,0,0,1,4.34.62c1,.38.72-.05,1.43-.33,2.7-1.05,8.4-1.27,11.41-.8,2.66.42.92-.77,3.17-.84A3.41,3.41,0,0,1,154.57,11c0-.5.12-1,1-1.13,1.12-.16,2.16.31,3.46.22s.91,1.05,1.3,1.42,2.34-1.48,3.33-1.67c1.4-.27,5.09-.76,5.46.24-.07-1.13,4.56-1,5.85-1a13.07,13.07,0,0,1,4.17.57c2.18.92,1.93-1,3.27-1.07a12.82,12.82,0,0,1,3,.47c1.05.13.48-.36,1.35-.42,1.75-.12,1.15.38,2.2.94,1.84,1,3.57,2.21,5.35,3.36a9.6,9.6,0,0,1-1.38-3c-.41-2.83,1.09-.15,3.28-.31a7.15,7.15,0,0,1-.69-.61c-.32-.33-.56-.67-.27-.75,1.36-.4,4.07.9,5.8.78A6.13,6.13,0,0,1,204,8.54c.51.09,2.07,1.29,2.48.64.26-.4.05-1.27,1.32-1.36,1-.07,1.66.66,1.55,1.1-.12-.76,4.42-1.07,4.54-.32-1.12-1.89,8.29-1.07,10.27-1.21.88-.06,3.45-.42,4.14,0,.26.18.55.85,1.12.81.76-.06.84-.83.76-1.27.39.79,2.48,2.71,3.6,2,.36-.23-2.07-1.61.07-1.76,1.55-1,2.25.81,3.78.7-.79-2.51,2.81-.09,2.94,1.24,1.6-.11,0-2,1.24-2.38a15,15,0,0,1,6.25-.08c.84.18,2.35,2.2,3.11,1.57.59-.47-.53-1.44,0-1.78,1.49-.11,3.05-.29,4.55-.26a4.54,4.54,0,0,1,2.63.78c1.18.53,1.08-.73,1.46-1.05,1.55-1.31,2.49,1.43,2.74,1.42A4.76,4.76,0,0,0,264,6.52c1.16-.75,2.39-.64,3.88-.49s1-.37,2.18-.41a19.51,19.51,0,0,1,4.1.46c.62.09,2-.94,3.52-1,.69,0,.78.08.84.42a34.92,34.92,0,0,0,3.51-.25c1.42-.1.56-.13,1.77.42s.84-.74,1.28-1c2.85-1.5,2.62,2.13,3,2.6.53.65.51-2.25.61-2.32.58-.42,4.28-.83,4,0-.05.19-.36,3,.71,2.56s.77-3.38,2.81-3.45c.78,0-.1.61,1,.53s2.13-.37,2.23.32c1.15-.15,1.58-.71,2.57-1,.83-.23,1.63.69,2.88.6-.18-1.12,4.54,1,4.67.94.76-.49.53-1,2.26-1.13a5.68,5.68,0,0,1,2.21.24c.14,0,1.9,1.14,2,.94.32-.7-.68-1.52,1.79-1.43,2,.08,3.19,1.32,4.39-.29-.1-.69,1.61.53,2.73-.2-.08-.46,2.77-.79,3.29-.86a9.87,9.87,0,0,1,4.14.06c1.63.51,4.84-.11,6.63-.15,2.33-.05,5-.1,7.32,0,.44,0,3.89.94,3.33,1.31.76-.5-1.26-2-.47-2.26l.65.18,1.41.42a11.84,11.84,0,0,1,2.05.74,4.07,4.07,0,0,0,2.34-1.2c1.28-.89,1.95.32,3.06.32,2.58,0,2.93.36,3,1.74-.46-2.18,1.73-2.06,5.49-2.32,3.37-.23,4.29-.15,4.49,1.61a6.45,6.45,0,0,0,.82-1.64c.3-.69,1.21-.38,1.68,0-.51,0,2.52,0,1.82-.32.4.16,1.48,1.29,1.88,1.27s-.47-1.42,1-1.52c1.74-.13,2.49.69,3.58,1.15-1.18-.5,2.57-.92,2.6-1,.17-.56.5-.37,1.79-.46.44.21-.13,1.17-.16,1.15a74,74,0,0,1,8-1l2.3.27c.85.09,1.49.1,1.51-.24A26.72,26.72,0,0,1,407.49,0c0,.72,0,1.48,0,2.27,0,.59.1,6-.35,5.39-.19-.26-.81.21-1.29.83a2,2,0,0,0-.53,2c.32.67.83.6,1.32.66a1,1,0,0,1,.71.37,2.46,2.46,0,0,1,.3.55,1.14,1.14,0,0,0,.12.3,2,2,0,0,1,.1.29c.45,1.56-1.14,2.6-1.06,3.83,0-.07.9-1.13,1.11-.52a14.09,14.09,0,0,1,.21,4.93c-.37,1.42-.34,1.13.08,2.9a11.91,11.91,0,0,1,.22,4.49c-.25,1.43-.72,1.25-.07,2.53a6.48,6.48,0,0,1,.11,3.9c-.14.55-.95,1.52-.76,2.27.34,1.35,1.29,1.7,1.5,3.32-.82.13-.25,1,0,1.81s-.48,1.22-.84,1.68c.7-.69,1.71,4.57,1.57,5.62,0,.14-2.84,4.73-1.48,5.15.4.12,1.11-1.6,1.09.62,0,1.25-1.21,3.13-1.19,3.49,0-.09,1.22.13,1.33,1.74s-.5.4-.62.67a6.87,6.87,0,0,1,.19,2.15c-.11.75-1.16,1.67-.81,2.47.63,1.41,3,3.67,1.83,6.06-.25.52-1.44.54-1.39,1.28.09,1.3,1.33,1,1.72,1.85,1.07,2.41-.29,4-.95,5.52a4.84,4.84,0,0,0-.47,2.74c.22,1,.88-.31,1.28.13,1.37,1.54-.29,3.84-.23,5.49.62-.1.58,1.39.63,2.08a4.5,4.5,0,0,0,.32,1.3,4.8,4.8,0,0,1,.18.66l0,.19v.11l0,.2c0,.28,0,.58,0,.91.1,6-1.25,5.38-1.52,8.85-.08,1.13.73.09.68.22.58.36.82.9,1.07,2.28-.35.08-.84.17-1.45.28-3.94.69-2.45-.86-3.49-1.47-1.67.09-1.07.69-.78,1-2.54.06-3.93-.27-6.53-.13l-.26,0a.67.67,0,0,0-.12.06l-.23.2a1.43,1.43,0,0,1-.64.39,8.5,8.5,0,0,1-3.55.11c-.55-.11-2.88-.8-2.77-.07,0-.09-.34-1.31-.94-.92-.87.56.21,1.77-2.36,1.74a2.42,2.42,0,0,1-1.37-.41,9,9,0,0,0-3.15-.06c-2.28.15-5,.83-7.16.12-1-.32-.36-1.59-1.51-1.23a36.45,36.45,0,0,1-4.56,1.08c.11.71-4.84.92-5.78.81s-.6-2.19-1.88-1.3c-.44.31-.8,1.32-1.71,1.39s-.39-.92-1.59-.83a17.1,17.1,0,0,1-2.17.68c-1.65.25-3.33.43-5,.58s-3.36.27-5.05.27c-1.26,0-2.12-.31-3.31-.22a18.37,18.37,0,0,1-2.34.14c-.6,0-.27-.85-.75-1-.65-.28-3.32,1.24-4.38,1.4a23.29,23.29,0,0,1-5.21.23,4.39,4.39,0,0,1-1.79-.35c-.33-.22.47-1.08,0-1.05-1,.08-1.28,1.46-2.6,1.69s-1-.53-1.76-.8a9,9,0,0,0-4.17-.18c-1.76.33-2.26,1.51-4.37.84-1.06-.33-2.78-1.22-4-.4s.64.72-1.78.89a33.34,33.34,0,0,1-3.46.12c-1.93,0-10.82.69-10.88-.92.76,1.68-5.71,1.25-7.2.87-.12-.72-1.81-.84-2.87-.76-1.58.11-1.37.79-2.35,1.13a9.18,9.18,0,0,1-3.68.68c-.54,0-.91-.09-1.08-.35a17,17,0,0,1-2.14.07,39,39,0,0,0-5.21-1c-1.17,0-2.61.43-1.8,1.1-2.23.16-4.48.38-6.72.4-1.77,0-3.53,0-5.3,0-1.09,0-2.17.17-3.27.15a13.11,13.11,0,0,1-1.32-.33L243,111a10.92,10.92,0,0,1-3.34,0c-1.94-.39-3.54.48-5.38.24a15.59,15.59,0,0,0-4-.27l-6.92.18a68.31,68.31,0,0,1-9,.12c-1.06-.11-1.06-.63-2.48-.24-.45.13-2.67,1.7-3.3,1.19-1.34-1.08-1.22.18-2.77.19-1.86,0-.63-2.08-3.08-1.91-.18.7,1.26,1.28-.39,1.46-1.33.14-6.08.86-5.87-.42.25.76-1.59,1.51-2.92,1.16-.71-.18-.46-.59-1.16-.8a6.73,6.73,0,0,0-3.33.18,8.65,8.65,0,0,0-2.44,1c-1.11.08-1.6-.37-2.2-.33-1,.08-6,.8-6.12,0-2,1.52-2.54.57-4.61-.16.13.81-11.2,1.49-12.52,1-.77-.29-2.86.09-3.81.15-1.55.11-1.68-.93-3.84-.32-1.31.37-1.29.68-2.85.79-1,.08-.49-.36-1.58-.35-2.16,0-2.13-.37-3.69-1,.21.09-.4,1.06-.86,1.09s-1.85-1-2.39-1.2c-.78-.24-.46.53-.44.68a5.69,5.69,0,0,1-2.79,1.22c-2.11.49-1.44-.38-3.59-.29-1.82.09-3.43-.34-4.92-.07-6.27,1.14-13.82,1.06-20.31,1.36-4.84.22-10,.28-14.89.32-5.5,0-11,.06-16.41,0-1.23-.52-1.66.12-3.18.22s-3,.1-4,.77c.15,1-1.14-.16-1.27-.19-1.44-.37-3.71.11-5.26.15-.66,0-.83-.08-.88-.41-.12-.76-.49-.81-1.76-1-2.5-.41,0,1.78-.28,1.94s-3.49-.49-4.14-.48c-1,0-.78.56-1.94.45-.37,0-2.64-.92-3-.38-.21.28,1.43,1.48-.93,1a11.29,11.29,0,0,0-3.44-.38c-4.7.16-9.32.69-14,.58-1.13,0-1.85-.32-2.92-.36a20.81,20.81,0,0,0-3.91.43,79.1,79.1,0,0,1-9.88.74c-.79,0-1.62,0-2.46.08l-3.31.15a71.85,71.85,0,0,1-8.11,0L3.24,119a11.65,11.65,0,0,0,0-4.14c-.2-1.26-.35-2.71-.47-4.2l-.16-2.26-.12-1.34c-.24-2.85-.08-5.65-.18-8.52-.11-3.27-1-9.08.18-11.92.5-1.19,1-2-.13-1.81-.92.14-.2-2.74-.73-3.56-.74-1.13.06-3.39.16-4.61-.11-1.6.12-2.43.09-4-.1-4.89-.6-9.82-.92-14.69C.84,56.09.21,51.78.89,50.17c.41-2.2.26-1.4-.37-1.45-.33,0,0-3.77,0-4C.38,42.87.73,41,.6,39.21c0-.65-.16-1.81.35-1.89a7.55,7.55,0,0,0-.51-2.51C-.33,31.57.3,28,.06,24.61,0,23.74-.19,19.22.7,21.79ZM408.18,44.06a.64.64,0,0,1,.13-.22A1,1,0,0,0,408.18,44.06Z"/><path class="cls-2" d="M94,21.92a.35.35,0,0,0,0,.3A1.78,1.78,0,0,0,94,21.92Z"/><path class="cls-2" d="M230.18,7a.9.9,0,0,0-.07-.23A.4.4,0,0,0,230.18,7Z"/><path class="cls-2" d="M399.66,47.34a.46.46,0,0,0,.37-.05A1.3,1.3,0,0,0,399.66,47.34Z"/><path class="cls-2" d="M6.09,23.21c-.82.22-1.1,1,.15,1S7.45,23.12,6.09,23.21Z"/><path class="cls-2" d="M6.18,17.9c-.66,0-1.16.78-.53.73.23,0,2.58-.54,2-.78A6.69,6.69,0,0,0,6.18,17.9Z"/><path class="cls-2" d="M5.65,20.35c.3-.84-1.1-.87-1.89-.35L4,21.63C3.88,20.8,3.91,20.47,5.65,20.35Z"/></g></g></svg>