<svg xmlns="http://www.w3.org/2000/svg" viewBox="0 0 1922.18 13.6"><defs><style>.cls-1{fill:#f5ff2e;}.cls-2{fill:#f5ff2f;}</style></defs><g id="Layer_2" data-name="Layer 2"><g id="menu"><rect class="cls-1" y="7.16" width="1922.18"/><path class="cls-2" d="M1632.1,7.56c-1.09.35-6.22,2.06.88,1.92C1637.17,9.44,1638.59,7.5,1632.1,7.56Z" transform="translate(0)"/><path class="cls-2" d="M1401.09,9c-3.77,0,7.54,1.54,9.9,1.18C1413.92,9.76,1403.38,9,1401.09,9Z" transform="translate(0)"/><path class="cls-2" d="M1220,10.56c5.54.12,7-.36,6.65-1l-3.55,0C1221.44,9.82,1219.85,10.21,1220,10.56Z" transform="translate(0)"/><path class="cls-2" d="M1898.66,11.13c-3.55,0,3.77.45,0,0Z" transform="translate(0)"/><path class="cls-2" d="M1919.05,4c-7.28.58,1,1.92-5.22,2.88,2.69-.41-7.29-1.09-10.61-.85-9.43.69-.44,1-.18,1.61-10-.28-4.27.77-5,1.34-1.22.9-13.13-.89-10.27.57s8.48,2.22,0,3.52c-9.16,1.4-23.27-.66-7.8-.26,8.62.23.06-2.34,2.56-2.3.28,0,9.07.6,5.14-.24a78.91,78.91,0,0,0-14.21-.93c-5,0-13.68.64-18.12.11-2.62-.31-.83-1.16-5.85-1.12-5.38.05-5.42,1.31-9.85,1.13-7.49-.31-4.66-.95-14.22-.2a117,117,0,0,1-16.64-.3c-4.65-.4-4-1.46-9.1-1.41L1800.3,9c-3.73,0-12.92-2.82-14.79-1.45-1,.77-5.27.63-10.17.7-6,.09-10.13.91-13.63.09-1.42-.33.8-1.06-2.76-1.15-5.34-.13-5.76.9-7.33,1.32-2.81.75-21.17-1.86-14.2.12.32.09-12.27-.29-11.9.52-4.63,0-15-1.62-14.42-.36a14.21,14.21,0,0,1-3.92-.62c-1,1-8.77,1.94-15.61,1.1-3-.37-.43-1.76-6-1.71-4.68,0-2.85.84-3.27,1.2-1.43,1.23-15.34,1.07-17.66.08-1.19-.5-3.4.06-3.86-.92l-.73-1.59c-9.58.08-5.65,1.93-8.1,2.72a12.2,12.2,0,0,1-4.77.28c-6.19.05.25-1-.06-1.32-.87-.87-10.73-1.2-15.91-1.07-2.39.06-5.11.64-7.22.5-2.93-.21-3.21-.74-5.75-.9,2,.13-2,2.8-2.81,3.22.46-.24-3-.61-4.83-.44-6.72.62-4,1.06-14.15.64-4.35-.18-16.11-.55-16.86-.33,5.4-1.47-13.83.06-7.16-2.06,2.23-.71,5.92-.62,5.51-1.51.46-.45-.46-1-.66-1.44A60.74,60.74,0,0,1,1567,7.27c-2.87.48-5,.89-5.78,1.49-1.09.81-12.45.05-10,1.29.13-.4-1.75-.73-4.85-.79-4.4-.08-2.89.38-5.77.66-4.67.45-5.12-1.79-2.31-1.81-2.6,0-5.9.9-8.52,1.07a147.44,147.44,0,0,1-17.08.05c-6.75-.37,2.2-1.78,5.07-2.15-4.07,0-7.08.1-6.78.73-.79-1.69-18.23-2.6-10.75-.1,12.35,1.47-10,3.68-16.86,2.07,14.93.3.56-1.93,9.76-2-.41-1.28-9.3-1.26-10.86-.12-.34.25-7.62-.26-9.6-.17-1.82.08.41,1.45-.7,1.78-2.94.89-8.45.86-14,.45s9-.86,8.81-1.18a16.81,16.81,0,0,0-1.93,0l-4.29,0c-3.16,0-6.48.1-7.09.13-4.28.18-.46,1-3.21,1.12-1.85.08-9.87-.51-9.47.37-5.9-.55-6.54-1.77-10.87-.39-3,.94-5.4.7-10.68.08-15.4-1.8-26-2.41-40.7-.15,6.3-1-13.41-1.29-13-.35-5.53,1.76-17.39-.34-3.78-.45-1-.8-5.8-1.68-11.09-.87-3.86,0-3.26.65-3.11,1,3.46,0,10.77.72,5.71,1.09-8.47.62-12.06-.56-18.36-.5-8.23.07-13.44,0-19.52-.8-2.3.73-7.72.7-12.06.34-2.22-.19-4.1-.59-6.83-.64-4.3-.08-3.44.42-6.68.68-7.47.58-4.64-1-7.88-1-6-.15-9.73-.22-10.19-1.2.39.83-1,1.45-2.52,2.25-.46-1-.74-3.28-11.53-1.81-3.53.48-7.44,1.44-12.28,1.71s-2.81-1.88-8.37-.11c.15.32-14.07-1.4-16.89-1.11a98.36,98.36,0,0,0-14.62,2.34c-.61-.21-5.35-2.12-6.32-2.11s-2,1.34-4.41,1.06c-3.39-.41-.75-1.49-5.89-2-4.13-.43-14.18.14-18,.44-10.26.78,15.81-.13,12.94.63a92.65,92.65,0,0,1-12.85,2c-5.89.56-8.21-.16-11.85.06-4.43.27-6.45.75-12.09.54-4.91-.17-9-.53-14-.68-2.88-.08-6.31-.18-9.23,0-1.49.07-3.64.53-4.07.54.22,0-.85-2.91-1-3.28-.38-.81-2.31-1.41-4.56-2.16.6,1.31,5.06,5.25-8.48,5.52-9.6.2-24.59.06-32.13-.84-6.81-.81-5,.53-9.18.38-4.41-.16-7.58-1.67-13.27-.74-2.09.34-8.73,2.3-9.51.63-5.71-.68-7.06.25-13.15.09-1.23-.09-1.65-.24-1.27-.45a83.5,83.5,0,0,0-9.58.4c-3.7.35-6.05-.57-11.5.26.42.91-10.6-.27-13.07-.31-7.63-.14-13,.43-20.33.5-8.79.08-23.77-.48-24.44-1.93.52,1.11-2.2,2.17-12,2-5.64-.1-9.94-.51-15-.76-6-.29-5.29.9-8.06,1-.92,0-.2-1.82-1.53-2.1-2.79-.59-6.88,1.74-8.37,1.76-.53,0-.79-1.44-4.67-1.41-2.09,0-4.73,1.07-8.79,1.22-8.2.29-20.66.49-25.26-.69-8-2.07-3.68-1.51-11.6,0-5.76,1.12-15.07-1.39-17.8-.88-.52.09,8.21,3.67-5.21,1.71-5.48-.79-4.18-1.55-9.67-.21-4.08,1-16.07-2-17.45-2.2,1.51.18-8.77,2.47-16.54,2.19,1.16.05,2.14-.79,1.93-1-8.57.07-10.79,1.54-21.25,1.67-2.52,0-6.5,0-6.71-.47-.44-.94-7.53,0-8.84-.55-.51-.22,3.38-.94-1.29-1.11-3.66-.13-8.11.84-11.15,1-7.46.48-4-1-4.69-1.57-7.5.07-5,.77-9,1.38-2.38.37-5.27-.6-9.93.06-2.09.3-12.14.89-13,.11-.15-.14-3.21-2.33-5.27-2-1.16.18,1.91.94,1.77,1.24-.29.63-4.53.53-8.07.56-3.88,0-1.09.37-4.72.4-4.76,0-8.4-.29-13.46-.24-6.35,0-40.29,1-37.74-.65-2.52,0-7.12,0-6.88.54-2.93.14-6.92-.1-9.53.23-4.88.59-16.4.11-24.23,0-5.38-.09-10.69-.31-16.17-.27l-7.1.06c.11.24-.72.37-2.5.38-5.22.05-18.71-.84-14.81.73-7.26.06-2.23-.46-5.07-.72-3.26-.3-9.44-.65-13.21-.55s-4.33,1.3-8.68.78c-4.62-.55-5.51-1.47-10-2-8.62-1.06-4.68,1.42-9.9,1.46-1.62,0-24.85.21-21.53-.3-5.39.05-11.18.18-16.58.11-7.93-.11-3.05-1.87-12.71-1.79.78.6,9.47,1.28,1.84,1.42-5.06.08-11.23.22-16.29.09-4.48-.11-1.37-.41-6.85-.36-6.29.05-18.63.84-20.9-.41C412.73,8,410,7.6,409.3,7c0,0,2.15-1,.06-.84-.19,0-4.51.51-5.47.1-.37-.15,2.92-.57-1.44-.54-.9,0-1,.36-.81.72a2.92,2.92,0,0,0,.55.72c.33.71,5.63,1.75,3.13,2.44-1.55.43.6.61-.1,1-.45.23-8.2-.55-8.71-.57-4.83-.2-1.61.42-4,.48-3.12.09-12.89-1.55-11.42-1.77-3.23.49-8.72,3.3-9.85.86-2.67-.46-15.8-.84-19.05-.74-3.7.12-19.43,1.52-20.25.47-.34-.45,2.24-.62-.42-.84-8.82.08-3.32.51-6.9,1.06-1.31.2-10.29-1.74-10.85-1.87,5.57,1.3-20.85,3.13-28.6,2.62-2.34-.15-2.94-.48-5.2-.68-3.2-.27-8.8.37-12.53.37a38.81,38.81,0,0,1-7.37-.61c-2.65-.35-9.17-.2-12.3-.18-8.35.06-18.35.35-26.57,0-3.67-.14-3.69-.65-7.41-.68-5.29,0-8.54.67-13.89.85-9,.29-22-.83-29.33-.29-3.7.28-15.58,1.87-16.85.43-.33.49-2.58,1-6.6,1,.94-1.2-9.67-1.14-15.48-2,1.26.29,2.24.61,1.21.8-2.89.53-8.31-.71-9.84-.85a76.24,76.24,0,0,0-11.31,0c-3.71.28-3.62,1.49-5,1.55-1.68.07-13-1.48-9.53.24-1-1.41-15.32-1-22.34-1.25-8-.25-3.71-1.09-7.6-1.55,0,0-.2.13-.54.32l-1.28.7a11.39,11.39,0,0,1-2.44,1.05c1.85-.15-12.94-2.06-14.39-1,.35-.26,2,2.62-1.91,1.64-2.86-.72-4.06-1.41-4-2.22A30.87,30.87,0,0,1,30.89,9.83c-4-.07-7.31-1-9.28-.95-2.43,0-5.17,1.18-10.1,1.29,1.7-.26-4-.18-10.26-.05l-1.19,0H0c0-2.66,0,6,0-6H1.13l2.36-.06L7.85,4c2.63-.06,4.59-.09,5-.08,11.63.48,2.42,2.33,2.82,3.2-.1-.22,5.3-.44,5.87-.49,3.52-.34,2.73-.64,2.73-1.1,0-.79,11.75-.51,14.57-.33A33.77,33.77,0,0,1,45,6.14c3.12.59,4.32-.76,5.64-.93,6.35-.78,9.73.21,8.95-1.48.5,1.08,9.49.42,13.58.81,1.08.11,2.47.71.37.8-4.77.21.37,1-3.5,1l5.63-.06h3.26a9.55,9.55,0,0,1,1.46,0,3.39,3.39,0,0,1-.42,0l-1.11.12-3.18.34c-2.16.26-3.91.55-2.28.75,2.88.34,10.52-1.16,11.24-1.36,3.09-.88-.51-1.38,7.26-2,11.79-.1,20.83,1.44,32.06.87,3.48-.18,11-1.18,14.87-1,1.76.08-1.06,1.2,1.1,1.52,4.19.62,5.78-.64,5.68-.87,6.09-1.94,5,.68,7.87.66,2.49,0,3-1,2.55-1.23,6.77.81,17.39-.24,25.33-.15,5.61.06,23.77,1.26,24.36-.26,2.09,1.05,21.77-.29,27.09-.24,4.85.05,13.21.19,16,.83,3.78,0,7.39.41,10.65-.09,2.65,0,10.59-.24,10.88.39,6,.16,11.44-.27,17.44.15l2.6.31a12.84,12.84,0,0,1,2.15.32c4.29,0,5.34-.49,10.38-.57,7.93-.11,15.46-.85,23.65-.87,5.59,0-4,1.39-3.89,1.65s9-.66,8.73-.62a81.15,81.15,0,0,1,8.9-.94c2.15-.08,5.14.42,8.37.39-.31-.67,13.82-1,14.2-.12,3.22.65-1.26,1.89,4.3,2.55-1.37-.16.14-1.49,2.7-1.63,2.16-.12,4.6,0,6.53-.21,2.13-.26,1.94-.88,4.35-1.2a83.56,83.56,0,0,1,17.63.19c12,.69,7.15-.78,16.08-.86-3.24,0-2.53,1.71,5.66,1.64,4,0,28.58.13,28.19-.72,3.27-.5,14.36.24,14.64.84,0,0-13,1.6-4.89,1.6,5.46,0,8.27-2.26,9.72-2.73a11.91,11.91,0,0,1,6.92,0,14,14,0,0,1,2.16.82c.52.25.82.44.85.44,1.27,0,3.45-.92,5.25-1.09,2.28-.21,6.58.52,7.82.65,6.14.69,6-.33,9.28-.88,6.14-1,4.66.24,5.52.64,1.06.5,15.89.28,13.79-.76,1.81,1.57,26.2,1.14,35.1,1.38,2.53.07,9.21.52,11,.36,4.41-.41,3.09-1.8,10.89-1.86,1.5.72-10.37,3.46,1.55,3.36-1-1.19,1.69-2.33,5.1-3.42-.53.17,2.07,1.19,4.55,1.17,1.63,0,6.16-1.24,9-1.44,4.84-.36,11,1,17.58,1,8,0,7.61-.77,14.43-1.07a95.88,95.88,0,0,1,12.78.18c2.33.28,2.84,1.68,4.53,1.72,5,.13,13.21-1.48,19.34-.87,2.23.23,9.26,2.58,8.81,2.65,3-.45,1-1.15,6.49-1.66,4.18-.39,19.92-.55,20.73-1.14,3.32-2.43,7.34.09,7.84,1.26,4.71,0,2.74-.31,3.31-.79s8.12-.27,10.11-.3c6.21-.09,9.93-.55,16.09-.61,3.66-.25,5.84-.16,6.53.29,3.47.33,6.21-.19,8.53-.13,3.2.08.09,1.4-.53,1.41,9.45-.08,6.72-2.1,19.42-1.37,4.87.28,8.41.77,4.22,1.41-2.75.28-8.34,1.28-.38,1,5.68-.22,8.8-.81,13.4-1.24,6-.56,13.26-.84,20.44-1l22.26-.44,13.47-.29,4.38-.12,1.23,0,.45,0c-.71.7-2.93,2,3,2.75-1.84-.22,6.19-1.72,7.28-1.92a32.51,32.51,0,0,1,11-.66c5.42.44,15.23-.36,19.66.24,1.57.21.15,1,3.34,1,4.47,0,5-1.22,7.3-1.57-.61.1,1.77.91,3.52,1a7.58,7.58,0,0,1,2.51-.31,43.43,43.43,0,0,1,6.85.65C919,4.55,922,5,923,5.54c.92-.59,5.64-1,10.18-1.1,8.37-.26,8.89.29,11.35,1.11.51.17,12.39-1.14,13.08-1.61,3.08-2.07,8.57-.74,4.17.66C960.2,5.74,957.53,6.08,966,6c2-.3.23-1.4,3.66-1.8,2.64-.31,4.06,1,6.22,1,.17,0,0-1.69,6.77-1.74,4.66-.37,10.6-.63,7.32.42-3,1,6.09.7,8.92.28,6.85-1,1.49-.51,8.75.35-3.53-.42,2.26-1,7.4-.36,3.16.18,6.73.36,10.21.38,1.43,0,1.36-.42,4.14-.49,6.26-.16,12.06.18,15.65-.55,4.67-.94,9.84.75,9.5,1.29-.92-2,18.78-.44,14.79.17,8.52-1.3.1-1.23,9.76-.08-3.51-.42,8.29-1,9.65-1.22,2.43-.37-.73-.6,4.19-.64,4,.22,11,.64,11.32,1.35.2.43.57.47,3.77.45,4.4-.08,2.62-.66,3.69-1.06s18,1.88,13.62,0c4.22,0,4.34.56,3.43,1.07A38.62,38.62,0,0,1,1140,4.54c.54,1.16,4.1.65,6,0,2.38-.87-.85-1.45,9-.68,5.18.4,6.39.81,6.74,1.57-.76-1.65,10.66-.67,17.06-1.65,2.72-.87,15.07-.92,20.69-.84a52.38,52.38,0,0,1,7.26.41c3,.63,6.07.12,10.72.11,2.75,0,7.1.41,8.15.4,6.44-.05.67-1.21,3-1.23.91,0,5,.9,7.15,1,5.47.28,8-.11,12.94-.27,8.25-.25,2.18,1.52,7.63,1.65,13.93.35,7.51-.92,12.34-1.85,2.71-.52,22.48-.47,26.22-.16,4.33.35,6.77,1,11.94.18,4-.62,5.93-.24,3.77.45,4.79.64,17.05,1,12.91-.35-2.14-.68,19.52-.43,22.48-.38,8.18.12-.24,1.4,2,1.67.82.1,17.17-1.26,21.76-1.16,5.74.13,4,.63,6,1.17,3.31.87,8.2-1.33,6.35-1.32,3.1,0,3.94,1.41,8.65,1.37,5.07,0-1.73-1.67,5-1.72.17.58-1.41,1.45,4.21,1.41,4.22-.29,1.08-1.7,5.44-1.74,5,0,10.28.92,15.16,1.14,5.67.26,12,.39,18,.31,2.33,0,7.54-.12,7.33-.58-.48-1,6.63-.06,10.65-.09-.17-.37,7.55.39,9.76.39,8,0,13.27-.39,15.82.69.86.37,7.09.19,7.48,1s13,1.22,12.74.56c-.05-.1-16-1.91-2.31-1.13,2.8-.32,2.63-1,6.11-1,10.76-.18,6.72.34,7.35-1,.33-.73,6.24-.62,7.84-.08,3.49,1.16.51,3,1.12,4.32,14.92-.12-1.56-4.45,10.89-4.41,4.82,0,34,1.21,36.7.09-.44,1.69,13.58-.38,20.42-.25,6.53.12,23.89,2.21,29,1.52,10.65-1.42,11.9-.33,12.59,1.16,6.93.83,6.18-2,6-2.46a61.6,61.6,0,0,0,21.5,2.17c3.93-.31-4.84-.83-5-1.22-.3-.66,9.43.22,10.21-.35.43-.32-4.49-.73,1.17-.82a104.59,104.59,0,0,1,11.51.4c3.35.3,3.9.88,4.13,1.38s5.81,1.43,5.34.42c-.14-.31-6.53-2.83,2-2.54,3,.1,7,.36,9.73.53,8.49-.07,7.41,1.36,8.69,2.06,2.87,1.58,6-.65,9.87-.75s10.75.42,10.29-.59c-.72-1.54,5.64-.09,7.89.22,3.69.49,11.15,0,14.62-.2,5.29-.29,4,.24,6.56.22,5.21,0,8.17-.62,14-.39,2.52.1,12.64.88,15.33.46,1.25-.19-3.93-.64,2.13-.8,2.84-.07,17.52-.38,17.84.31.25.54,20.5-.27,25.07.27,2,.36,8.88,1.47,13.12,1,3.56-.43-.5-1.27,5.3-1.58,4-.22,25.07,2.17,24.19.27,4.74.27,6.58.46,10.18.95,5.06.68,2.93-.21,4.74-.39s10.83,3.78,11.29,4.07c.77.49,5.3,4.12-1.13,3.35-2.23,0-19.43-1.89-20-1.6-.42.22,3.28.41,1.82.79a21,21,0,0,0-5.82.69c-1.63.54-1.46,1.78,4.77,1.73-18.38.16-37-.11-55.41-.11-14.59,0-29.26,0-43.84-.06-2.94,0-8.71-.37-10.48-.34-5,.09-15.54,1.34-19.59.4-2.76-.64,6.29-2.26,4.19-2.51.29,0-13,.45-12.73.41-3.78.46-3,1.17-2.75,1.77-.43-.94-5.8-.68-8.36-.37-3.83.47-4.33-.11-6.35.6-1.68.59-7.36.31-10.13.08-3.27-.26-6.51-.87-11-.63-3.34.18-5.18.81-9.4.51-3.69-.26-9.81-1.37-15-.64-3.21.45-2.24.71-8.63.59-5.6-.11-14.11-.44-17.18-1.16-7.28-1.69-4.71.72-10.57,1.11a83.26,83.26,0,0,1-9.64-.12c-2.24-.14-11.27-1.44-11.64-1.44.61,0-7.28,2.91-14.09,1.32-4.32-.2-7.38-.32-12.08-.46-3.78-.11-12.45-1.5-13.33-1.49,1.89,0-2.72,1.61-3.35,1.71a50.22,50.22,0,0,1-10.29.57c-.47-1-18.86-.41-17.59.51,1.59-1.46-35.43-.54-41.22-.49-7.49.06-8.48-.89-16.42-.83-2.08-.12-6-.45-8-.11-1.31.24-3.44,1.41-5.23,1.43-.34,0-.61-1.44-5.4-1-.87.08-8.42,1.07-9.35.67-3.64-1.55-11.92.13-20.32-.07-4.7-.12-3.13-.41-5.78-.73s-11.31.38-14.63.39a147.37,147.37,0,0,1-16.83-.78c-4-.42-2.83,0-5.64.27-10.7.95-33,1-44.62.38-10.35-.52-3.72.73-12.53.71-6.2,0-10.41-.63-12-1.36.09.5-.64,1-4.23,1.1-4.38.11-8.4-.4-13.47-.36-5.26,0-3.42-1.08-4.85-1.46-1.91-.5-9.36,1.39-13.25,1.54-5.51.22-20,.58-21.28-.44.09,1.12-17.94.87-23,.79-5.31-.09-12-.23-16.19-.73-8.35-1-7.69.91-12.93,1-4.68,0-7.71-.42-11.72-.59s-1.9.34-5.31.37c-6.85.06-4.44-.42-8.46-1-7-1-13.6-2.35-20.39-3.55,2,1,4.51,2,5,3,1.21,2.84-4.26.11-12.83.18l.85.2c.51.12,1.17.28,1.76.45,1.18.33,2.08.68.92.75-5.36.35-15.75-1.05-22.5-1A87.59,87.59,0,0,1,1139,12c-2-.1-7.87-1.36-9.58-.73-1.06.39-.36,1.27-5.36,1.31-4,0-6.35-.72-5.88-1.15.35.75-17.4.9-17.75.15,4.08,1.92-32.51.76-40.28.82-3.42,0-13.5.29-16.12-.19a14,14,0,0,0-4.29-.84c-3,0-3.39.79-3.13,1.23-1.43-.8-9.3-2.8-13.76-2.12-1.43.22,7.84,1.68-.53,1.76-6.2,1-8.65-.9-14.65-.84,2.72,2.53-11,0-11.31-1.35-6.26.05-.26,1.94-5.16,2.33a226,226,0,0,1-24.43-.15c-3.24-.21-8.82-2.28-11.9-1.69-2.38.46,1.88,1.46-.23,1.79-5.83,0-11.93.17-17.78.09a59.62,59.62,0,0,1-10.15-.88c-4.52-.58-4.32.68-5.84,1-6.25,1.26-9.53-1.52-10.5-1.52a48.65,48.65,0,0,0-5.88.78c-4.63.71-9.43.54-15.22.34s-3.95.33-8.59.33c-5.74,0-10.67-.35-15.93-.61-2.4-.12-8.07.86-13.86.86-2.69,0-3-.11-3.21-.44-4.23-.09-9.45.08-13.76.11-5.55.05-2.19.11-6.85-.48-5.05-.64-3.36.7-5.14.92-11.31,1.39-9.88-2.22-11.34-2.71-2-.67-2.35,2.22-2.73,2.29-2.32.4-16.81.68-15.77-.19.22-.18,1.86-3-2.4-2.58-4.8.46-3.5,3.35-11.48,3.34-3,0,.51-.6-4-.56-4.17,0-8.33.28-8.66-.41-4.5.1-6.26.65-10.15.89-3.28.19-6.28-.75-11.15-.71.52,1.12-17.57-1.2-18.07-1.12-3.06.47-2.22,1-9,1.05a84.57,84.57,0,0,1-8.6-.32c-.54-.06-7.24-1.21-7.63-1-1.34.68,2.43,1.54-7.19,1.35-7.79-.15-12.27-1.43-17.2.14.32.69-6.18-.6-10.65.09.22.47-10.93.69-13,.74a148.16,148.16,0,0,1-16.16-.22c-6.28-.56-18.91-.06-25.91-.09-9.1,0-19.59-.09-28.56-.29-1.72,0-15.06-1.09-12.8-1.44-3,.47,4.6,2,1.5,2.28l-8-.68-5.41-.51L555.93,12a3.57,3.57,0,0,1-.69-.11A43.84,43.84,0,0,0,546,13c-5.15.84-7.6-.4-11.92-.43-10.07-.09-11.38-.47-11.41-1.85,1.48,2.19-7,2-21.78,2.11-13.17.1-16.74,0-17.28-1.78a14.6,14.6,0,0,0-3.43,1.61c-1.26.68-4.78.33-6.55-.08,2,0-9.83-.07-7.15.25-1.53-.18-5.61-1.35-7.17-1.34-1.06,0,1.64,1.44-4.21,1.49-6.85,0-9.64-.79-13.83-1.29,2.26.27-.28.48-3.4.63l-4.58.18-1.63.06a5.24,5.24,0,0,0-.67,0c-.75.55-2,.36-7.07.4-1.66-.24.67-1.17.8-1.15,1,.12-27.29.75-31.25.7-3.16-.05-9.36-.84-9.05-.18-6.58,1-13.44.72-22.44.51-1.12,0-12.33-.13-10.66-.55,1.48-.38-1.39-2.52-5.24-1.93s.15,2-6.43,2.47c-6.16.39-10-1.24-14.81-1.2.28,0,4.29.93,1.86,1.13-3.78.29-15.46.3-19.27,0-5.48-.42-4.34-.38-11.33,0-5.36.27-12.15.36-17.55.06-5.55-.31-4.77-.78-9.84-.17a97.21,97.21,0,0,1-15.26,0c-2.13-.16-5.8-1-8.75-.85-5.33.29-6.84,1.23-13.17,1.38-.39-.83-3.87-.29-7-.1-3.66.22-4.69-.52-6.45-.9,2.61.72-18.09,1.54-22.15,1.35-.56,0-18.05-3-19.88-1.67-.55.4,6.08,1.17-2.59,1.07-4.86,0-12-1.33-13.45-1.31.35,0-.68,1.21-7,1.26s-1.49-.52-2.52-.64c.69.08-6.6.2-8.42.11-2.92-.15-6.33-1.23-9.52-.9-5.6.57-14.75,2.82-23.92,1.59-2-.26-1.89-1.46-4.77-1.43-5.08,0-4,1.29-7.47,1.64-9.58,1-15.59-.43-21.4-1.15a69.4,69.4,0,0,0-10.65-.57c-4,.19,1.09.9-.7,1.28-6.18,1.31-14.93-.44-21.36-.44.29.62-5.53.53-8.21.55-4.13,0-5.88.54-11.08.48C11,13.27,11,11.94,2.1,11.55c-2.84-.13,1.28.73.81.67.18.39-.13.62-1.11.78-.25.05-.53.08-.87.12l-.53.05-.29,0H0V1.12H0l.16,0L3.34.89C11.92.35,6.84,1.84,8,2.5c3.86,0,3.27-.65,3.11-1,5.18,0,7.89.41,13.53.36,1.65,0,2.15-.5,4.54-.64A125.62,125.62,0,0,1,43,1.26c2.13.13,11.14.9,10.81.17,0,.09,1.15,1.32,3.55,1,3.46-.53-.59-1.77,9.46-1.65a30.24,30.24,0,0,1,5.28.46c2.64.35,9.17.2,12.29.18,8.91-.07,19.77-.64,27.94.14,3.74.36,1.2,1.61,5.71,1.29,6.65-.47,11.09-.64,18-.9-.33-.73,19-.75,22.68-.6,3.43.14,2,2.21,7.14,1.37,1.79-.3,3.33-1.3,6.91-1.33,3.17,0,1.38.93,6.07.89-.49,0,6.86-.55,8.58-.6,6.46-.19,13-.31,19.6-.39s13.19-.15,19.75-.08c4.92.05,8.25.38,12.9.34,2.79,0,6.39-.13,9.17-.06,2.31.06.9.87,2.74,1.09,2.5.29,13.15-1.12,17.32-1.25,6.55-.2,13.77-.21,20.36,0a62.58,62.58,0,0,1,6.95.42c1.24.23-2,1.06-.28,1,4,0,5.2-1.4,10.4-1.59,4.78-.17,3.91.57,6.75.87a133.85,133.85,0,0,0,16.24.34c6.92-.27,9-1.43,17.17-.69,4.11.38,10.68,1.33,15.7.56,4.5-.69-2.38-.75,7.08-.83,4.63,0,8.91-.06,13.53,0,7.54.11,42.33-.29,42.33,1.32-2.71-1.7,22.45-1,28.24-.6.33.73,6.91.91,11.09.87,6.18-.05,5.44-.73,9.32-1a133.63,133.63,0,0,1,14.45-.54,13.76,13.76,0,0,1,4.19.38c2.79.08,5.57-.14,8.36,0,6.18.35,13.64,1.07,20.16,1.2,4.58.09,10.25-.33,7.21-1,8.73-.07,17.53-.2,26.28-.14L575.06,2c4.26,0,8.51-.09,12.77,0,1.72,0,4.44.39,5.12.38L635.51,2c5.43,0,8.35-.12,13.06.17,7.5.46,13.85-.35,21,0,5.69.24,8.26.48,15.62.41l27,.09c11.17,0,24.38-.21,35.29.21,4.13.15,4.06.67,9.64.33,1.78-.11,10.7-1.6,13.08-1.06,5,1.13,4.76-.14,10.81-.09,7.27.06,2.16,2.1,11.77,2,.81-.69-4.74-1.33,1.7-1.44,5.24-.09,23.86-.63,22.87.63-.86-.76,6.43-1.44,11.57-1.05,2.74.21,1.72.61,4.4.85a101.2,101.2,0,0,0,13-.06c3.62-.2,7.06-.51,9.67-.91,4.35,0,6.17.43,8.54.41,4,0,23.46-.57,23.86.28,8.12-1.44,10-.47,18,.33-.09-.2,2.61-.37,6.78-.5s9.84-.22,15.67-.27c11.66-.1,24,0,26.55.24,3,.32,11.18,0,14.91,0,6,0,6.4,1,15,.47,5.16-.32,5.12-.64,11.23-.69,4.06,0,1.84.38,6.12.41,8.43.07,8.23.45,14.22,1.17-.78-.1,1.72-1,3.52-1.06,1.47,0,7.07,1.1,9.18,1.29,3,.26,1.87-.51,1.8-.66,1.8-.57,7-.91,11.07-1.12,8.28-.41,5.55.44,14,.42,7.13,0,13.36.47,19.22.26,24.63-.9,54.06-.55,79.43-.61,18.94,0,39.19.1,58.19.24q32.2.24,64,.66c4.73.57,6.47-.05,12.42-.1,5.61,0,11.67,0,15.76-.62-.45-1,4.42.2,4.9.24,5.56.42,14.52,0,20.58,0,2.55,0,3.21.11,3.37.44.35.76,1.8.83,6.7,1.08,9.69.51.36-1.78,1.37-1.93s13.56.62,16.11.64c3.72,0,3.12-.54,7.62-.38,1.46,0,10.17,1,11.82.49.85-.27-5.36-1.53,3.77-1,5,.3,7,.5,13.38.51,18.35,0,36.47-.35,54.81-.07,4.38.07,7.17.39,11.32.47,5.71.11,10-.14,15.31-.28,12.54-.33,25.93-.45,38.69-.37,12.33.08,26.93-.23,38.64.33,5.16.25,4.92.58,11.49.27s13.89-.37,20.74-.45c11.14-.13,22.08.13,33.27.14,12.79,0,35.57-.68,46.49.62,4.58.55,7.6,1,7.1-.06-.43-.93,10.74-.1,14-.6,4.53-.7,13.23.18,18,.33,6.27,0,9.46.21,15.72.24,19.1.09,38.4-.23,57.46-.37,7.14,0,24-.52,30.23.22,8.53.49,5.41.31,5.7-.32.15-.33,14.74.12,15.6.14,7.27-.06,14.36.36,21.53.3,2.51,0,7.08-.1,7.32.42,5.09,0,6.15-.24,9.84-.42,12.77-.66,26.82.11,39.87,0C1911.58,3.27,1929.24,3.25,1919.05,4ZM217.13,12a5,5,0,0,1,.85.14A6.55,6.55,0,0,0,217.13,12Z" transform="translate(0)"/><path class="cls-2" d="M1570.12,2.76c.21-.08.3-.18.17-.3A.62.62,0,0,0,1570.12,2.76Z" transform="translate(0)"/><path class="cls-2" d="M1036.64,12.64a.69.69,0,0,0,.24.24C1036.91,12.82,1036.81,12.74,1036.64,12.64Z" transform="translate(0)"/><path class="cls-2" d="M205.57,3.4c-.16.15-.07.27.14.37C205.75,3.66,205.72,3.54,205.57,3.4Z" transform="translate(0)"/><path class="cls-2" d="M1913.52,4.74c3.25-.18,4.44-1-.44-1C1908.58,3.82,1908.22,4.79,1913.52,4.74Z" transform="translate(0)"/><path class="cls-2" d="M1912.42,10.05c2.58,0,4.63-.73,2.17-.71-.9,0-10.13.44-8,.7C1908.53,10.1,1910.46,10.1,1912.42,10.05Z" transform="translate(0)"/><path class="cls-2" d="M1914.86,7.62c-1.31.83,4.14.91,7.32.42l-.76-1.63C1921.81,7.24,1921.66,7.56,1914.86,7.62Z" transform="translate(0)"/></g></g></svg>