<svg xmlns="http://www.w3.org/2000/svg" viewBox="0 0 1921.09 9.38"><defs><style>.cls-1{fill:#010101;}</style></defs><g id="Layer_2" data-name="Layer 2"><g id="content"><line y1="4.69" x2="1921.09" y2="4.69"/><path class="cls-1" d="M1776.13,5c-.54.25-3.1,1.5.44,1.4C1778.67,6.35,1779.38,4.94,1776.13,5Z"/><path class="cls-1" d="M1660.69,6.05c-1.88,0,3.77,1.13,5,.86C1667.11,6.58,1661.84,6.06,1660.69,6.05Z"/><path class="cls-1" d="M1570.21,7.17c2.77.08,3.48-.27,3.32-.75l-1.77,0C1570.92,6.63,1570.13,6.91,1570.21,7.17Z"/><path class="cls-1" d="M11.75,1.8c1.78,0-1.88-.33,0,0Z"/><path class="cls-1" d="M1919.53,2.42c-3.64.42.52,1.4-2.61,2.1,1.34-.3-3.65-.8-5.3-.63-4.72.51-.22.76-.09,1.18-5-.2-2.14.56-2.53,1-.61.65-6.56-.65-5.13.41s4.23,1.62,0,2.56c-4.58,1-11.63-.48-3.9-.18,4.3.16,0-1.71,1.27-1.68.14,0,4.54.44,2.57-.18a27.45,27.45,0,0,0-7.09-.67c-2.49,0-6.84.46-9.06.08-1.31-.23-.41-.85-2.92-.82-2.69,0-2.71,1-4.93.82-3.74-.22-2.33-.69-7.1-.14A40.81,40.81,0,0,1,1864.4,6c-2.32-.29-2-1.06-4.55-1,.11.35.22.7.34,1-1.87,0-6.46-2-7.4-1-.52.56-2.63.45-5.08.51-3,.06-5.06.66-6.81.06-.71-.24.4-.77-1.38-.83a5,5,0,0,0-3.66,1c-1.41.54-10.58-1.36-7.1.08.16.07-6.13-.21-5.94.38-2.32,0-7.5-1.18-7.21-.26a5.12,5.12,0,0,1-2-.45c-.48.73-4.38,1.41-7.8.8-1.48-.27-.22-1.28-3-1.25-2.33,0-1.42.62-1.63.88-.71.89-7.66.78-8.82.06-.59-.37-1.7,0-1.93-.68-.12-.38-.24-.77-.37-1.15-4.78,0-2.82,1.41-4,2a4.35,4.35,0,0,1-2.39.2c-3.09,0,.13-.73,0-1-.43-.63-5.36-.88-8-.78a32.23,32.23,0,0,1-3.6.36c-1.47-.15-1.61-.53-2.88-.65,1,.09-1,2-1.4,2.34.23-.17-1.51-.44-2.42-.32-3.36.46-2,.78-7.07.47-2.17-.13-8-.4-8.42-.24,2.7-1.07-6.91,0-3.58-1.5,1.11-.52,3-.45,2.75-1.1.23-.33-.23-.72-.33-1.05a23.33,23.33,0,0,1-5.13,1.91,6.83,6.83,0,0,0-2.89,1.09c-.55.58-6.22,0-5,.93.07-.29-.87-.53-2.43-.57-2.19-.06-1.44.28-2.88.48-2.33.33-2.55-1.3-1.15-1.32-1.3,0-3,.66-4.26.78a49.58,49.58,0,0,1-8.53,0c-3.38-.27,1.1-1.3,2.53-1.57-2,0-3.54.07-3.39.54-.39-1.24-9.11-1.9-5.37-.08,6.17,1.07-5,2.68-8.43,1.51,7.46.22.29-1.41,4.88-1.47-.2-.93-4.65-.91-5.42-.08-.18.18-3.81-.19-4.8-.13s.2,1.06-.35,1.3c-1.47.65-4.23.62-7,.32s4.47-.62,4.4-.85-6,0-6.65.08c-2.14.14-.23.74-1.61.82-.92.06-4.93-.37-4.73.27-3-.4-3.26-1.29-5.43-.29-1.48.69-2.7.52-5.34.07-7.69-1.31-13-1.76-20.34-.11,3.15-.71-6.7-1-6.48-.26-2.76,1.28-8.69-.24-1.88-.33-.52-.58-2.91-1.22-5.55-.63-1.93,0-1.63.47-1.55.72,1.73,0,5.38.52,2.85.79-4.23.46-6-.4-9.17-.36a43.94,43.94,0,0,1-9.76-.58c-1.15.53-3.85.51-6,.24a29.48,29.48,0,0,0-3.42-.47c-2.14-.05-1.72.31-3.34.5-3.73.43-2.31-.7-3.93-.76-3-.11-4.87-.15-5.09-.87.19.61-.48,1.06-1.26,1.64-.23-.72-.37-2.39-5.77-1.32a46.58,46.58,0,0,1-6.13,1.25c-2.45.19-1.41-1.37-4.18-.08.07.23-7-1-8.45-.81a35.5,35.5,0,0,0-7.3,1.7,19.71,19.71,0,0,0-3.16-1.54c-.52,0-1,1-2.21.78-1.69-.3-.37-1.09-2.94-1.48a50.8,50.8,0,0,0-9,.33c-5.13.57,7.89-.1,6.46.46a33.11,33.11,0,0,1-6.42,1.46c-2.94.41-4.11-.12-5.93,0a32.15,32.15,0,0,1-6,.39c-2.45-.13-4.48-.39-7-.5a44.29,44.29,0,0,0-4.61,0c-.75,0-1.82.39-2,.4a13.8,13.8,0,0,0-.51-2.39c-.19-.59-1.15-1-2.28-1.58.3,1,2.53,3.83-4.23,4-4.8.14-12.29,0-16.06-.62-3.4-.59-2.49.39-4.59.28s-3.79-1.21-6.63-.54c-1,.25-4.36,1.68-4.75.46-2.86-.5-3.53.18-6.57.07-.62-.07-.83-.18-.64-.33a29.13,29.13,0,0,0-4.79.29c-1.84.25-3-.42-5.74.19.21.66-5.3-.19-6.53-.23-3.82-.1-6.49.31-10.16.37-4.39.06-11.88-.35-12.21-1.41.26.81-1.1,1.58-6,1.45-2.82-.07-5-.37-7.51-.55-3-.22-2.64.65-4,.73-.46,0-.1-1.33-.76-1.53-1.4-.43-3.44,1.27-4.19,1.28-.26,0-.39-1.05-2.33-1-1,0-2.36.78-4.39.89-4.1.21-10.33.35-12.62-.51-4-1.5-1.84-1.09-5.8,0-2.88.82-7.53-1-8.9-.64-.26.07,4.1,2.67-2.6,1.25-2.74-.59-2.09-1.13-4.83-.16-2,.72-8-1.48-8.72-1.6.75.13-4.38,1.8-8.27,1.6.58,0,1.07-.58,1-.71-4.28.06-5.39,1.12-10.61,1.22-1.26,0-3.25,0-3.36-.34-.22-.69-3.76,0-4.41-.4-.26-.16,1.69-.69-.65-.81-1.83-.1-4.05.61-5.57.75-3.73.35-2-.74-2.34-1.14-3.75,0-2.5.56-4.5,1-1.19.26-2.63-.44-5,0-1,.22-6.06.65-6.48.08-.08-.1-1.61-1.7-2.64-1.47-.58.13,1,.68.89.9-.15.46-2.27.39-4,.41-1.94,0-.54.27-2.35.3-2.38,0-4.2-.22-6.73-.18-3.17,0-20.13.74-18.86-.47-1.26,0-3.56,0-3.44.39-1.46.1-3.46-.07-4.76.16-2.44.44-8.2.09-12.11,0-2.69-.06-5.34-.23-8.08-.19l-3.55,0c.06.17-.36.27-1.24.28-2.62,0-9.35-.62-7.41.53-3.62,0-1.11-.34-2.53-.53a47.87,47.87,0,0,0-6.6-.4c-1.85.07-2.17.95-4.34.57s-2.75-1.07-5-1.47c-4.3-.77-2.33,1-4.94,1.06-.81,0-12.42.16-10.76-.22-2.7,0-5.59.14-8.29.08-4-.08-1.52-1.36-6.35-1.3.39.44,4.73.93.92,1-2.53.06-5.61.16-8.14.07-2.24-.08-.68-.3-3.42-.27-3.15,0-9.31.62-10.45-.29-.53-.42-1.92-.73-2.24-1.19,0,0,1.08-.71,0-.61-.1,0-2.26.37-2.74.07-.18-.11,1.46-.42-.72-.39-.89,0-.13,1-.13,1,.17.51,2.82,1.27,1.57,1.78-.77.31.3.44,0,.7a35.92,35.92,0,0,1-4.35-.41c-2.41-.15-.81.3-2,.35-1.56.06-6.44-1.13-5.71-1.3-1.61.36-4.36,2.41-4.92.64a71.29,71.29,0,0,0-9.52-.55c-1.85.09-9.71,1.11-10.12.34-.17-.32,1.12-.45-.21-.6-4.41,0-1.66.37-3.45.77-.65.14-5.14-1.27-5.42-1.37,2.79,1-10.42,2.29-14.29,1.91-1.17-.11-1.47-.35-2.6-.49-1.6-.2-4.4.26-6.26.27a14,14,0,0,1-3.69-.45,47.45,47.45,0,0,0-6.14-.13c-4.17,0-9.17.25-13.28,0-1.83-.11-1.84-.47-3.7-.5-2.64,0-4.27.49-6.94.62-4.51.21-11-.61-14.66-.21-1.85.2-7.78,1.36-8.42.31-.16.36-1.29.71-3.3.73.47-.87-4.83-.83-7.73-1.43.63.21,1.11.45.6.59-1.44.38-4.15-.52-4.92-.63a26.68,26.68,0,0,0-5.65,0c-1.85.21-1.8,1.09-2.52,1.13s-6.51-1.07-4.76.18c-.48-1-7.66-.75-11.16-.91-4-.18-1.86-.79-3.8-1.13A11.49,11.49,0,0,1,992,6.44c.93-.11-6.46-1.5-7.19-.73.18-.19,1,1.91-.95,1.19-1.43-.52-2-1-2-1.61A11.24,11.24,0,0,1,976,6.64c-2-.06-3.65-.71-4.64-.69-1.21,0-2.58.85-5,.94,1.7-.38-11.31.22-12.19.17-5.81-.35-1.21-1.7-1.41-2.33a18.14,18.14,0,0,1-2.94.36c-1.75.24-1.36.47-1.36.8,0,.57-5.87.37-7.28.24a11.68,11.68,0,0,1-3.06-.7c-1.56-.43-2.16.56-2.81.68-3.18.57-4.87-.15-4.48,1.08-.25-.78-4.74-.31-6.78-.59-.55-.07-1.24-.52-.19-.58,2.39-.15-.19-.71,1.75-.74-.63,0-5.15.1-5.17,0s5.12-.63,3.49-.92c-1.44-.25-5.26.84-5.62,1-1.54.64.26,1-3.63,1.45-5.88.07-10.4-1.05-16-.63-1.74.13-5.48.86-7.44.73-.87,0,.53-.87-.55-1.1-2.09-.46-2.88.46-2.83.63-3,1.41-2.52-.5-3.94-.48-1.24,0-1.5.71-1.27.89-3.38-.58-8.69.18-12.66.12-2.8-.05-11.88-.93-12.17.18-1-.76-10.88.21-13.54.18-2.42,0-6.6-.14-8-.61-1.89,0-3.69-.3-5.32.07-1.32,0-5.29.17-5.43-.29-3-.11-5.72.2-8.72-.11,0,0-2.69-.45-2.37-.45-2.14,0-2.67.35-5.19.41-4,.09-7.72.62-11.82.64-2.79,0,2-1,1.94-1.2a35.91,35.91,0,0,0-4.36.44,27.36,27.36,0,0,1-4.45.69c-1.07.06-2.56-.3-4.18-.28.16.49-6.9.69-7.09.08-1.61-.47.63-1.37-2.15-1.86.69.12-.07,1.09-1.35,1.19-1.08.09-2.3,0-3.26.16s-1,.64-2.18.87A28.53,28.53,0,0,1,761.48,7c-6-.5-3.57.57-8,.63,1.62,0,1.27-1.25-2.82-1.2-2,0-14.28-.09-14.09.53-1.63.36-7.18-.18-7.31-.61,0,0,6.51-1.17,2.44-1.17-2.73,0-4.13,1.65-4.86,2-2.65,1.23-4.91-.91-5-.91-.63,0-1.72.67-2.63.79a16,16,0,0,1-3.9-.47c-3.07-.51-3,.24-4.64.64-3.07.75-2.33-.17-2.75-.46S700,6.5,701,7.26c-.9-1.15-13.09-.83-17.54-1-1.26,0-4.6-.38-5.49-.26-2.2.3-1.55,1.31-5.44,1.36-.75-.53,5.18-2.52-.78-2.45.49.87-.84,1.69-2.55,2.49.27-.13-1-.87-2.27-.85-.81,0-3.08.9-4.48,1-2.42.25-5.5-.73-8.79-.76-4,0-3.8.57-7.21.78a32.7,32.7,0,0,1-6.38-.13c-1.17-.2-1.42-1.22-2.26-1.25-2.5-.09-6.61,1.08-9.67.63a16.82,16.82,0,0,1-4.4-1.93c-1.48.33-.51.84-3.25,1.21-2.08.29-10,.4-10.35.83-1.66,1.77-3.67-.06-3.92-.91-2.36,0-1.37.22-1.66.57s-4.06.2-5.05.22c-3.11.06-5,.4-8,.44-1.83.19-2.92.12-3.27-.2a28.13,28.13,0,0,0-4.25.09c-1.61-.06-.05-1,.26-1-4.72.06-3.36,1.53-9.71,1-2.43-.2-4.2-.56-2.1-1,1.37-.2,4.16-.93.19-.71-2.84.16-4.4.59-6.7.9a97.37,97.37,0,0,1-10.22.7c-1.88,0-20.81.59-20.88.68.36-.52,1.47-1.49-1.5-2,.92.16-3.09,1.26-3.64,1.4a11.39,11.39,0,0,1-5.47.49c-2.71-.33-7.61.26-9.83-.18-.78-.15-.07-.73-1.67-.71-2.23,0-2.49.89-3.64,1.14.3-.06-.89-.65-1.77-.69a2.51,2.51,0,0,1-1.25.23,15.27,15.27,0,0,1-3.42-.47,12.42,12.42,0,0,1-3.31-1c-.46.43-2.82.7-5.09.8-4.18.2-4.44-.2-5.67-.8A33.13,33.13,0,0,0,482,7c-1.53,1.51-4.27.54-2.08-.48.79-.83,2.12-1.08-2.1-1-1,.22-.11,1-1.83,1.31-1.32.22-2-.73-3.11-.72-.08,0,0,1.23-3.38,1.27-2.33.27-5.3.46-3.66-.31,1.49-.69-3-.51-4.46-.2-3.42.76-.74.37-4.37-.26,1.77.31-1.13.72-3.7.27-1.58-.13-3.36-.26-5.1-.28-.72,0-.68.3-2.07.35-3.12.12-6-.12-7.82.4-2.34.69-4.92-.54-4.75-.93.47,1.46-9.38.32-7.39-.13-4.26,1-.05.9-4.88.06,1.76.31-4.14.74-4.82.89-1.21.27.37.44-2.09.47-2-.17-5.49-.47-5.66-1-.1-.32-.28-.35-1.88-.33-2.2.06-1.31.48-1.85.77s-9-1.37-6.8,0c-2.11,0-2.17-.41-1.72-.78a13.44,13.44,0,0,1-5.6.16c-.27-.84-2.05-.47-3,0-1.19.63.42,1.06-4.49.5-2.59-.3-3.2-.6-3.37-1.15.38,1.2-5.33.49-8.53,1.2-1.36.64-7.53.68-10.34.62a19.27,19.27,0,0,1-3.63-.3c-1.47-.47-3-.09-5.35-.08-1.37,0-3.55-.3-4.07-.3-3.22,0-.34.88-1.5.9-.46,0-2.5-.65-3.57-.73a42.54,42.54,0,0,0-6.47.2c-4.12.18-1.09-1.11-3.81-1.21-7-.25-3.75.68-6.17,1.35-1.35.38-11.24.34-13.1.12-2.17-.26-3.38-.71-6-.13-2,.45-3,.17-1.89-.33-2.39-.46-8.51-.7-6.45.26,1.08.49-9.75.31-11.23.28-4.09-.1.12-1-1-1.23-.41-.07-8.58.93-10.88.85-2.87-.09-2-.45-3-.85-1.66-.64-4.1,1-3.18,1-1.55,0-2-1-4.32-1-2.54,0,.86,1.22-2.5,1.26-.08-.42.7-1.06-2.1-1-2.11.21-.54,1.24-2.72,1.26-2.49,0-5.14-.66-7.58-.83-2.83-.19-6-.28-9-.22-1.16,0-3.77.09-3.66.43.24.75-3.31,0-5.32.06.08.27-3.77-.29-4.88-.28-4,0-6.63.28-7.91-.51-.42-.26-3.54-.14-3.73-.76s-6.52-.89-6.37-.4c0,.07,8,1.39,1.15.82-1.4.23-1.31.69-3,.73-5.37.12-3.36-.25-3.67.74-.17.53-3.12.45-3.92.06-1.74-.85-.26-2.2-.56-3.15-7.45.09.78,3.25-5.44,3.21-2.41,0-17-.88-18.34-.06.22-1.24-6.78.28-10.21.18C162.46,8,153.79,6.47,151.22,7c-5.32,1-5.94.24-6.29-.84-3.46-.61-3.09,1.48-3,1.79A21.74,21.74,0,0,0,131.2,6.34c-2,.22,2.42.6,2.51.89.15.48-4.71-.16-5.1.25-.22.23,2.24.54-.59.6a36.07,36.07,0,0,1-5.75-.29c-1.67-.22-2-.64-2.06-1s-2.91-1-2.67-.3c.07.22,3.26,2.06-1,1.85-1.53-.08-3.47-.26-4.86-.39-4.25,0-3.71-1-4.35-1.5-1.43-1.15-3,.48-4.93.55s-5.37-.31-5.14.42c.36,1.13-2.82.07-3.94-.15-1.85-.36-5.58,0-7.31.14-2.64.21-2-.17-3.28-.16-2.6,0-4.08.45-7,.29-1.26-.08-6.32-.64-7.66-.34-.63.14,2,.47-1.07.58-1.42.06-8.75.28-8.91-.22s-10.25.2-12.53-.2c-1-.26-4.44-1.07-6.56-.69-1.78.31.25.92-2.65,1.15-2,.16-12.52-1.58-12.08-.2a37.21,37.21,0,0,1-5.09-.69c-2.53-.49-1.47.16-2.37.29s-5.41-2.76-5.64-3c-.39-.36-2.65-3,.56-2.44,1.12,0,9.71,1.38,10,1.16s-1.63-.29-.9-.57a7.45,7.45,0,0,0,2.91-.5c.81-.39.73-1.3-2.39-1.26C30.56.52,39.85.71,49.06.71c7.29,0,14.62,0,21.91,0,1.47,0,4.35.27,5.24.25C78.7.93,84,0,86,.71c1.38.47-3.14,1.64-2.09,1.82-.14,0,6.5-.32,6.36-.29,1.89-.34,1.52-.85,1.38-1.29.21.68,2.9.5,4.17.27C97.73.88,98,1.3,99,.78c.84-.43,3.67-.22,5.06-.06a24,24,0,0,0,5.47.46c1.67-.13,2.59-.59,4.7-.37,1.85.19,4.9,1,7.5.46A10.44,10.44,0,0,1,126,.85c2.8.07,7.05.32,8.59.84,3.64,1.23,2.35-.53,5.28-.81a29.65,29.65,0,0,1,4.82.09c1.12.1,5.63,1.05,5.81,1.05a9.21,9.21,0,0,1,7-1c2.17.14,3.69.23,6,.33,1.89.08,6.22,1.09,6.66,1.09-.94,0,1.36-1.17,1.68-1.25a17.6,17.6,0,0,1,5.14-.41c.23.73,9.43.3,8.79-.38-.79,1.07,17.7.4,20.6.36,3.74,0,4.24.65,8.2.61a16.23,16.23,0,0,0,4,.08c.65-.17,1.71-1,2.61-1,.17,0,.3,1.05,2.7.72.43-.06,4.21-.77,4.67-.49,1.82,1.13,5.95-.09,10.16.06,2.34.08,1.56.3,2.88.53S247.34,1,249,1a51.27,51.27,0,0,1,8.4.56c2,.31,1.42,0,2.82-.19a148.76,148.76,0,0,1,22.3-.28c5.17.38,1.86-.53,6.26-.52,3.1,0,5.2.46,6,1,0-.36.32-.73,2.11-.8,2.19-.08,4.2.29,6.74.26s1.71.79,2.42,1.07c.95.36,4.68-1,6.62-1.12,2.76-.16,10-.42,10.63.32,0-.82,9-.64,11.49-.58a65,65,0,0,1,8.09.53C347,2,346.71.57,349.33.54c2.34,0,3.85.3,5.86.42s.95-.24,2.65-.27c3.42,0,2.22.31,4.23.75,3.51.76,6.79,1.71,10.19,2.59-1-.73-2.26-1.45-2.48-2.2-.6-2.07,2.14-.08,6.41-.13,0,0-2.91-.92-1.76-1,2.68-.25,7.88.77,11.25.72a31.16,31.16,0,0,1,5.67-.26c1,.07,3.94,1,4.79.53.53-.28.18-.92,2.68-.95,2,0,3.17.52,2.94.84-.18-.56,8.69-.66,8.87-.11-2-1.4,16.24-.56,20.12-.6,1.72,0,6.75-.21,8.06.13A5.06,5.06,0,0,0,441,1.6c1.49,0,1.7-.58,1.57-.9.71.59,4.64,2,6.88,1.54.71-.16-3.92-1.22.26-1.27,3.1-.7,4.32.65,7.32.61-1.36-1.85,5.5,0,5.65,1,3.13,0,.13-1.42,2.58-1.7A77.69,77.69,0,0,1,477.42,1c1.62.15,4.41,1.66,5.95,1.23,1.18-.33-.94-1.06.11-1.3,2.91,0,6-.12,8.89-.06a20.48,20.48,0,0,1,5.07.63c2.26.42,2.16-.49,2.92-.72,3.12-.91,4.76,1.11,5.24,1.11a16.62,16.62,0,0,0,2.94-.57,28.54,28.54,0,0,1,7.61-.24c2.94.15,2-.25,4.29-.25,2.87,0,5.33.25,8,.45,1.2.08,4-.63,6.92-.63,1.35,0,1.53.08,1.61.32,2.11.06,4.72,0,6.88-.08,2.77,0,1.09-.08,3.42.35,2.52.47,1.68-.51,2.57-.67,5.65-1,4.94,1.62,5.66,2,1,.49,1.18-1.62,1.37-1.66,1.16-.29,8.4-.5,7.88.14-.11.13-.93,2.17,1.2,1.88,2.4-.34,1.75-2.44,5.73-2.44,1.53,0-.25.44,2,.41,2.08,0,4.16-.2,4.32.3,2.25-.08,3.13-.47,5.07-.65,1.64-.14,3.14.55,5.58.52-.27-.82,8.77.87,9,.81,1.52-.34,1.11-.72,4.49-.76a27.5,27.5,0,0,1,4.3.23,30.76,30.76,0,0,0,3.81.74c.67-.5-1.22-1.12,3.59-1,3.89.11,6.13,1,8.6-.1-.16-.5,3.08.44,5.32-.06-.11-.34,5.46-.51,6.48-.54A49.09,49.09,0,0,1,642.3.5c3.14.41,9.45,0,13,.07,4.55,0,9.79.06,14.27.21.86,0,7.52.79,6.4,1,1.52-.34-2.3-1.48-.75-1.66.07,0,7.88,1,7.91,1.09a15.77,15.77,0,0,0,4.65-.81c2.57-.61,3.79.29,5.95.31,5,.07,5.69.35,5.7,1.35C698.64.51,702.9.65,710.27.56c6.58-.07,8.36,0,8.63,1.3A6.81,6.81,0,0,0,720.62.69c.63-.5,2.38-.24,3.27.06-1,0,4.91,0,3.57-.19a33.38,33.38,0,0,0,3.58,1c.53,0-.81-1,2.11-1.08a27.83,27.83,0,0,1,6.91.93c-2.26-.39,5.08-.6,5.13-.66.38-.4,1-.26,3.54-.29.83.17-.34.85-.4.84C747.81,1.19,762,.73,764,.77c1.58,0,4.67.61,4.52.13,3.29-.74,6.72-.53,11.21-.37.56,0,6.17.09,5.33.4s.7,1.83,2.62,1.4S787.55.84,790.84.54c3.08-.29,5,.9,7.4.87-.14,0-2.14-.68-.93-.82a72,72,0,0,1,9.63,0,19,19,0,0,0,5.67,0,62.59,62.59,0,0,1,8.77,0c2.77.22,2.37.56,4.91.12a33,33,0,0,1,7.63,0,22.66,22.66,0,0,0,4.37.61c2.66-.21,3.42-.89,6.58-1,.19.6,1.94.21,3.52.07a5.74,5.74,0,0,1,3.23.66c-1.31-.53,9-1.12,11.07-1,.27,0,9,2.19,9.93,1.22.27-.29-3-.85,1.29-.78,2.43,0,6,1,6.73,1-.18,0,.34-.88,3.49-.92s.74.37,1.26.46a38.91,38.91,0,0,1,4.2-.08c1.46.11,3.17.9,4.76.66,2.8-.42,7.38-2.06,12-1.16,1,.19.94,1.06,2.38,1,2.54,0,2-.94,3.73-1.2,4.79-.71,7.79.32,10.69.85a24.71,24.71,0,0,0,5.33.41c2-.14-.55-.65.35-.93,3.09-1,7.46.31,10.67.32-.14-.46,2.76-.39,4.11-.4,2.06,0,2.93-.39,5.53-.35,5.94.09,5.95,1.06,10.4,1.35,1.41.09-.64-.53-.41-.49-.18-.57.62-.66,3.12-.89,4.29-.39,1.75.69,2.31,1.17,1.93,0,1.63-.47,1.56-.72,2.59,0,3.94.3,6.76.27.82,0,1.07-.37,2.27-.47a43.2,43.2,0,0,1,6.92,0c1.07.09,5.57.65,5.4.13a1.59,1.59,0,0,0,1.78.69c1.73-.39-.29-1.29,4.72-1.2a10,10,0,0,1,2.64.33,47.49,47.49,0,0,0,6.14.13c4.46,0,9.88-.47,14,.11,1.87.26.6,1.16,2.85.93,3.33-.34,5.54-.46,9-.66-.17-.52,9.5-.54,11.33-.43s1,1.61,3.57,1c.89-.22,1.66-.95,3.45-1,1.58,0,.69.68,3,.65-.24,0,3.43-.41,4.29-.44,3.23-.14,6.52-.22,9.8-.29s6.59-.1,9.87,0c2.46,0,4.12.28,6.44.25,1.39,0,3.19-.1,4.58,0,1.16,0,.46.63,1.37.79,1.25.22,6.57-.81,8.66-.9,3.27-.15,6.88-.16,10.17,0a22,22,0,0,1,3.48.31c.61.16-1,.77-.15.76,2,0,2.61-1,5.2-1.16,2.39-.13,2,.41,3.38.63a45.52,45.52,0,0,0,8.11.25c3.46-.19,4.51-1,8.58-.5,2,.27,5.34,1,7.85.4,2.24-.5-1.19-.54,3.53-.6,2.32,0,4.46,0,6.77,0,3.76.08,21.15-.21,21.15,1C1171.61.2,1184.19.69,1187.08,1c.17.52,3.45.66,5.54.63,3.09,0,2.72-.54,4.66-.76a46.83,46.83,0,0,1,7.22-.4,4.91,4.91,0,0,1,2.1.29c1.39,0,2.78-.11,4.17,0,3.09.26,6.82.79,10.08.88,2.29.07,5.12-.24,3.6-.75,4.36-.06,8.76-.15,13.13-.11,3.45,0,6.88.14,10.33.15,2.13,0,4.25-.06,6.38,0,.86,0,2.22.28,2.56.28l21.27-.26a55.2,55.2,0,0,1,6.52.12c3.75.33,6.93-.25,10.52,0a77,77,0,0,0,7.8.3c4.5,0,9,0,13.51.06,5.59,0,12.18-.15,17.64.16,2.06.11,2,.49,4.81.24.9-.08,5.35-1.16,6.54-.77,2.52.82,2.38-.11,5.41-.07,3.63.05,1.07,1.53,5.87,1.48.41-.51-2.36-1,.86-1.06,2.61-.06,11.92-.45,11.42.47-.43-.56,3.22-1.06,5.79-.77,1.36.16.85.44,2.19.62a35.51,35.51,0,0,0,6.52,0,38.06,38.06,0,0,0,4.83-.67c2.17,0,3.08.32,4.27.3,2,0,11.72-.41,11.92.21,4.06-1,5-.35,9,.24-.19-.59,21.94-.78,24.48-.39a71.24,71.24,0,0,0,7.45,0c3,0,3.2.72,7.48.34a45.3,45.3,0,0,1,5.61-.5c2,0,.92.28,3.06.3a27.57,27.57,0,0,1,7.1.85c-.39-.07.86-.76,1.76-.77.74,0,3.53.8,4.59.94,1.49.19.93-.37.9-.48a23.3,23.3,0,0,1,5.53-.81c4.14-.31,2.77.31,7,.3,3.57,0,6.68.34,9.61.19,12.3-.66,27-.4,39.69-.44,9.46,0,19.58.06,29.07.17,10.73.11,21.42.25,32,.48,2.36.41,3.23,0,6.21-.08a43.75,43.75,0,0,0,7.87-.45c-.23-.71,2.21.15,2.45.18,2.78.3,7.25,0,10.28,0,1.28,0,1.61.08,1.69.32.17.56.9.6,3.35.79,4.84.36.17-1.3.68-1.41s6.77.45,8.05.46c1.86,0,1.56-.39,3.81-.27.72,0,5.08.74,5.9.36.43-.2-2.67-1.12,1.89-.72a57.9,57.9,0,0,0,6.69.37c9.16,0,18.22-.25,27.38-.05,2.19.05,3.59.29,5.66.35,2.85.07,5-.11,7.65-.21,6.27-.24,13-.33,19.34-.27,6.16.06,13.45-.17,19.3.25a25.3,25.3,0,0,0,5.74.19c3.27-.22,7-.27,10.37-.33,5.57-.1,11,.1,16.63.1,6.39,0,17.77-.49,23.23.45,2.28.4,3.8.75,3.54,0s5.37-.08,7-.44c2.26-.5,6.61.14,9,.24,3.14,0,4.73.15,7.85.18,9.55.06,19.2-.17,28.72-.27,3.57,0,12-.38,15.11.16,4.26.35,2.7.22,2.85-.23.07-.24,7.36.08,7.79.1,3.63,0,7.18.26,10.76.22,1.26,0,3.54-.08,3.66.3a35.71,35.71,0,0,0,4.91-.31c6.39-.47,13.41.09,19.93,0C1915.79,1.85,1924.62,1.84,1919.53,2.42ZM852,1.14a2.15,2.15,0,0,1-.42-.1A2.58,2.58,0,0,0,852,1.14Z"/><path class="cls-1" d="M175.93,7.9c-.1.06-.15.13-.09.21A.46.46,0,0,0,175.93,7.9Z"/><path class="cls-1" d="M442.52.7a.43.43,0,0,0-.12-.17S442.43.63,442.52.7Z"/><path class="cls-1" d="M857.82,7.43c.08-.11,0-.19-.07-.27A.3.3,0,0,0,857.82,7.43Z"/><path class="cls-1" d="M4.32,6.45c-1.62.14-2.21.7.23.7C6.79,7.13,7,6.42,4.32,6.45Z"/><path class="cls-1" d="M4.88,2.59c-1.29,0-2.32.53-1.09.52.45,0,5.07-.33,4-.52S5.86,2.55,4.88,2.59Z"/><path class="cls-1" d="M3.66,4.36C4.31,3.75,1.59,3.7,0,4.05L.38,5.24C.19,4.64.26,4.4,3.66,4.36Z"/></g></g></svg>