<svg xmlns="http://www.w3.org/2000/svg" viewBox="0 0 65.21 51.9"><defs><style>.cls-1{fill:#fff;}</style></defs><g id="Layer_2" data-name="Layer 2"><g id="menu"><path class="cls-1" d="M24.5,14.76c.43.07-.08-.08-.2-.09s0,.07.13.09S24.71,14.79,24.5,14.76Z"/><path class="cls-1" d="M19.41,12.91c-.26-.08.23.1,0,0Z"/><path class="cls-1" d="M22.59,14c-.36-.12-.37,0,0,.07S22.85,14.13,22.59,14Z"/><path class="cls-1" d="M6.59,3.49c-.22-.24-.29-.26,0,0S6.77,3.71,6.59,3.49Z"/><path class="cls-1" d="M25.53,15c0-.09-.9-.22-.25-.06Z"/><path class="cls-1" d="M34.61,4.76a1.66,1.66,0,0,0-.54.57A6.77,6.77,0,0,0,34.61,4.76Z"/><path class="cls-1" d="M51,1.74c0-.06-.81-.46-.24-.13Z"/><path class="cls-1" d="M52.57,2.78l-.2-.17C51.74,2.22,52.57,2.82,52.57,2.78Z"/><path class="cls-1" d="M31.66,10.11c-.08.33-.06.41,0,0S31.74,9.83,31.66,10.11Z"/><path class="cls-1" d="M62.37,9.3c-.16.2-.25.39,0,.13S62.82,8.77,62.37,9.3Z"/><path class="cls-1" d="M57.33,21.44c0,.27,0,.21,0,.11l0,.29C57.4,21.41,57.4,20.42,57.33,21.44Z"/><path class="cls-1" d="M42.46,45c-.21.17-.57.54.09.09C42.54,45.06,42.51,44.94,42.46,45Z"/><path class="cls-1" d="M63.39,7.8l-.23.34C63.72,7.49,63.75,7.28,63.39,7.8Z"/><path class="cls-1" d="M57.25,21.14c-.08.51,0,.37,0,0S57.3,20.8,57.25,21.14Z"/><path class="cls-1" d="M56.7,24l-.05.26C56.74,24.31,56.86,23.35,56.7,24Z"/><path class="cls-1" d="M18.64,51.77c.27,0-.27,0,0,0Z"/><path class="cls-1" d="M42.53,45.15c.13-.1-.37.19-.42.22C40.89,46.06,42,45.53,42.53,45.15Z"/><path class="cls-1" d="M31.3,50.44c-1.05.45,1.9-.58.11,0Z"/><path class="cls-1" d="M18.36,51.8c.43,0,1.38,0,.28,0C18.42,51.76,18.37,51.78,18.36,51.8Z"/><path class="cls-1" d="M41.49,45.9a4.48,4.48,0,0,0-.44.32C41.35,46.06,41.5,46,41.49,45.9Z"/><path class="cls-1" d="M43.67,44.43s-1.12.75-1.3.9C42.89,45,43.11,44.85,43.67,44.43Z"/><path class="cls-1" d="M11.23,30.72c0,.06.84.39.25.11Z"/><path class="cls-1" d="M7.36,19.39c-1.15-.23.08.09.45.13,0-.06-.44-.07-.46-.11S7.59,19.44,7.36,19.39Z"/><path class="cls-1" d="M8.88,29.42c-.34-.23-.29-.11-.05,0S9.19,29.63,8.88,29.42Z"/><path class="cls-1" d="M15.6,42.81c.35-.18.23-.19,0-.07S15.22,43,15.6,42.81Z"/><path class="cls-1" d="M19,40.79c-.1.07-.13.17.09,0S19.09,40.71,19,40.79Z"/><path class="cls-1" d="M62.56,1.79c-.13.35-.24.69-.4,1C62.31,2.5,62.43,2.13,62.56,1.79Z"/><path class="cls-1" d="M17.61,41.65a1.25,1.25,0,0,0,.4-.23C19,40.57,16.41,42.55,17.61,41.65Z"/><path class="cls-1" d="M65.21,5.47c-1.36.46-2.07.83-1.08.46l.34-.14.67-.27,0,.09A.67.67,0,0,0,65.21,5.47Z"/><path class="cls-1" d="M15.52,39.86c.37.12.11-.07-.31-.19S15,39.7,15.52,39.86Z"/><path class="cls-1" d="M58.42,7.74c.08-.07-.11,0,0,0Z"/><path class="cls-1" d="M60.49,5.6l-.11.18c0-.06-.19.24,0,.06-.13.15-.25.31-.34.43C60.34,5.88,60.52,5.64,60.49,5.6Z"/><path class="cls-1" d="M60.58,7.2c-.15.06-.31.12-.24.12C60.83,7.18,60.9,7.14,60.58,7.2Z"/><path class="cls-1" d="M58.43,7.75l.22-.08S58.19,7.81,58.43,7.75Z"/><path class="cls-1" d="M6.5,17.56c.19.19-.17-.21,0,0Z"/><path class="cls-1" d="M8.13,31.88h0s0,0,0,.05v0l0,0c0,.11.07.26.08.28h0c0-.1-.06-.2-.08-.3A.81.81,0,0,1,8.13,31.88Z"/><path class="cls-1" d="M14.87,10.7l-.13-.1C14.59,10.51,14.82,10.67,14.87,10.7Z"/><path class="cls-1" d="M40.14,1.09h-.06C39.91,1.16,40.09,1.11,40.14,1.09Z"/><path class="cls-1" d="M27.58,51.27h0c.07,0,.2,0,.22,0s0,0,0,0l-.18,0Z"/><path class="cls-1" d="M3.72,22.45c.13.37.21.31,0-.1.09.21-.09-.27,0-.16C3.6,21.92,3.51,21.8,3.72,22.45Z"/><path class="cls-1" d="M4.62,24.34a1.79,1.79,0,0,1-.12-.24C4.38,24.13,4.94,25,4.62,24.34Z"/><path class="cls-1" d="M60.57,10.81c.11-.13.23-.26.17-.23C60.36,11,60.31,11,60.57,10.81Z"/><path class="cls-1" d="M61.1,10.47l.11-.1s0,0,0,0C61.78,9.62,60.41,11,61.1,10.47Z"/><path class="cls-1" d="M64.66,5.91c-.39.16-.31.1,0,0a13.65,13.65,0,0,0-1.74.74c.2,0-5.73,2.11-4.81,1.19-.1.09.46-.12.21-.11A11.39,11.39,0,0,0,61.91,2.8c.31-.73.38-1.12.26-1.27a12.78,12.78,0,0,1-5.44,7l.45,0c-.22,0-.44.08-.66.1a12.92,12.92,0,0,0,5.63-7h0l0-.09-.09.05c-.75-.38-4.92,3.13-9.16,1.86l.09.08a1.62,1.62,0,0,1,.18.19,3.55,3.55,0,0,1-.31-.28l-.41-.14.42.34-.45-.35a7.28,7.28,0,0,1-2.2-1.36c-.13-.07-.25-.14-.39-.2l.35.16c-.17-.16-.34-.32-.51-.5.5.23,2.43,1,.79.24C50.17,1.27,46,.09,47,.38,42.38-1,37.8,1.41,34.79,5c.1-.1.2-.22.33-.37-.19.21-.37.43-.55.66a6.7,6.7,0,0,0-.45.6c-.15.21-.3.41-.44.63l-.21.33.05-.07c-.18.3-.34.6-.49.91V7.63a14.93,14.93,0,0,0-1.14,2.64c0-.06,0,0,0,.13s-.2.8-.2.61a10.18,10.18,0,0,0-.16,4.83.4.4,0,0,0,.13-.13c.42.74-4.1-.44-3.18,0-5.19-1.21-6.69-1.47-9.57-3,.18,0,1.46.48.3,0,.18,0-.71-.32-.68-.36-.13.06.51.28.37.36-.36-.18-.73-.38-1.14-.61.55.34.14.14-.36-.09a1.73,1.73,0,0,1-.64,0l.45.26-.5-.27a5.69,5.69,0,0,1-2.12-1.22l-.4-.24.33.18c-.26-.21-.52-.43-.78-.68L13.67,10c-2.5-2.3-5.37-5.78-7.42-6.42,0,0,0,0,0,0A1.57,1.57,0,0,0,5,3.67a11.83,11.83,0,0,1-.46,1.12.71.71,0,0,1,0-.15,8.36,8.36,0,0,0,.39-1l0,0a1.24,1.24,0,0,0-.07.19c-.07.09,0,0,0-.17-.61.41-1,1.42-1.25,3.24,0-.31-.39,1.75-.12,1.23,0,0,0,.21,0,.22A11.26,11.26,0,0,0,3.5,11,13.56,13.56,0,0,0,8,19.25s0,0,0,0c.17.14.23.21.16.18l.39.35a8.26,8.26,0,1,0-1.18-.18c-1.06.06-4.32-1.46-3.66-1.44-1-.9.14,2.46-.4.76a13,13,0,0,0,.14,1.4c0-.08,0,0,.07.19.06.49.13.89,0,.47,0,.25.11.49.17.73a1,1,0,0,1,.06.15,4.92,4.92,0,0,1,.11.51,13,13,0,0,0,5.77,7.58h0c-.09-.11,1.12.5.88.47a11.51,11.51,0,0,0,2.5.85A14.08,14.08,0,0,1,8,31.11a5.26,5.26,0,0,0,.12.78h0c0-.29.16.35.1.39s.08.3.13.44c0-.13,0-.21.11.11s.09.33,0,.09a11.49,11.49,0,0,0,3,4.24c-.09,0-.2-.2-.28-.24.09.14.87.89.58.51a12.85,12.85,0,0,0,5.79,2.93c-.28-.09-.35-.19.34-.08s-.14,0-.15,0,1.12.18.48.15h-.06a9.67,9.67,0,0,0,1.53.13C12.72,45.51,6.34,46.07.32,45.52c1.09.64,1.52.94,1.26.81,1.29.73,2.48,1.36,3.62,1.91-.21-.11-.31-.19,0,0s.24.13.22.14a31.5,31.5,0,0,0,8.26,2.72l0,0c0-.08.39,0,.58.12a56.9,56.9,0,0,0,6.58.64c-.79-.35-.68-.17-2.55-.37a31.58,31.58,0,0,0,3.51.07c-.3.61,2.33.44,5.74-.24t0-.06s.19,0,.26,0l.53-.12a3,3,0,0,1,.45-.1,48.48,48.48,0,0,0,7.57-2.31l.32-.13c.67-.28,1.29-.58,1.85-.88-1,0,3.22-1.51,1.78-1.23.26-.21.23-.12.24-.1-.14.2,1.44-.88.43-.3l1.07-.8c-.23.17-1.5,1-.56.33.22-.14,1.43-.88.31-.25a8.33,8.33,0,0,0,2.33-1.67c-.12.1.16-.16.13-.13,1.24-.61,1.15-.84,2.65-2.3-.19.13,1.18-1.59.66-.85-.41.39-.19.2,0,.11-.78,1.11,2.78-3,1.3-1.4,0,0,.25-.43.27-.52,1.32-1.11,2.15-2.64,3.56-4.7-.25.07,1-1.88,1.38-2.56-.41.4.42-1.21-.07,0a31.79,31.79,0,0,0,2.22-6.75,4.12,4.12,0,0,0-.18.59c0,.13-.11.27-.15.37.16-.51.3-1,.43-1.53a1.21,1.21,0,0,1,0,.2l.45-2.06a1.84,1.84,0,0,1,0-.25h0c0-.11,0-.22.07-.33s0,.06,0,.08c.08-.45.16-.89.23-1.33,0,.18,0,.33-.05.48.79-3.7,1.64-7.3,3.56-10.25a18,18,0,0,0-2.15,2,17.48,17.48,0,0,1,2.41-2.37,13.11,13.11,0,0,1,2.58-2.75l.11-.16A1.46,1.46,0,0,0,63.79,7l-.31.38c.26-.2.51-.42.8-.61.33-.47.46-.72.44-.82C64.59,6.12,64.41,6.35,64.66,5.91Zm-5,.31c.28-.31.2-.17.22-.14C59.58,6.39,59.25,6.64,59.64,6.22Zm1-4.14A1,1,0,0,1,60.93,2C60.5,2.22,60.24,2.29,60.67,2.08Zm.86-.29c-3.2,1.71-4.14,1.78,0,0ZM57,3.74a4.17,4.17,0,0,1,.55-.17C57.37,3.64,57.18,3.68,57,3.74Zm-.19-.21c.36-.15.36,0,.12.08C57.09,3.55,56.22,3.73,56.81,3.53Zm-53,3.72A11.07,11.07,0,0,1,4.15,6c-.09.34-.16.69-.22,1,.08-.66-.18.67-.14.74A3.15,3.15,0,0,1,3.82,7.25Zm-.26,2.5c0-.18,0-.43.07,0S3.57,10.1,3.56,9.75ZM3.74,8.5s.06-.47,0-.41V8c0,.42-.07.84-.07,1.27C3.73,9,3.72,8.78,3.74,8.5Zm0,.95a12.82,12.82,0,0,0,.38,3,4.4,4.4,0,0,1-.22-1A6.75,6.75,0,0,1,3.73,9.45Zm.38,3.7c.19.3.29.43.16-.12a2.22,2.22,0,0,1,.23.83A2.79,2.79,0,0,1,4.11,13.15Zm1,2.1a2.35,2.35,0,0,0-.34-.65,1.56,1.56,0,0,0-.1-.35,13.2,13.2,0,0,0,.82,1.64A2.84,2.84,0,0,1,5.15,15.25Zm4.3-8.46L9.62,7C9.14,6.63,9.15,6.51,9.45,6.79Zm0,13.27h0ZM9.2,6.76l.08.07L9,6.57A1.47,1.47,0,0,1,9.2,6.76ZM9.35,20a4.19,4.19,0,0,1-.71-.52C8.87,19.63,9.1,19.8,9.35,20ZM8.77,6c.11.13.28.32,0,0S8.53,5.79,8.77,6ZM7,4.44c.2.26.13.21-.22-.16C6.74,4.21,6.86,4.33,7,4.44ZM6.5,17.56c-.09-.1-.5-.62-.24-.34S6.75,17.81,6.5,17.56Zm.8.68A7.66,7.66,0,0,1,5.58,16a13,13,0,0,0,2.18,2.7A3.26,3.26,0,0,1,7.3,18.24Zm1,.94c-.19,0-.12-.15-.32-.32l.54.47A.78.78,0,0,0,8.27,19.18ZM8,5.59c.13.13.33.32.48.45s.07,0,.24.27ZM8.66,20c.13,0,.23,0,.4,0-.06,0-.06,0,0,.07L8.52,20Zm-1.35-.22s0,0,0,0l-.37-.08A3.76,3.76,0,0,1,7.31,19.76Zm-2.08-.58c-.87-.35-1.48-.8-1.61-.33C3.48,18.06,4.77,19,5.23,19.18Zm-1.62-.25a2,2,0,0,0,0,.63C3.57,19.38,3.51,18.83,3.61,18.93Zm.07.86c0,.34.07.67.13,1C3.77,20.52,3.71,20.1,3.68,19.79Zm.21,1.77c0-.33,0-.26.11.25C4,21.88,3.94,21.71,3.89,21.56Zm.44,1.77c0-.15-.1-.32,0-.25S4.63,24,4.33,23.33Zm0-.56a25.5,25.5,0,0,0,1.25,2.75A14.86,14.86,0,0,1,4.32,22.77Zm3.35,5.61c-.23-.25-.16-.21.23.16C7.93,28.6,7.8,28.49,7.67,28.38Zm1.44.83a13.23,13.23,0,0,1-2.75-2.68,12.88,12.88,0,0,0,3.58,3.16C9.81,29.68,9.19,29.21,9.11,29.21ZM11,8.19c-.46-.31-.48-.42-.16-.19C10.85,8,11.61,8.68,11,8.19Zm.69,22.36h0l.15.06ZM11.43,8.38c-2-1.39,0-.28.56.5C11.71,8.66,11.78,8.62,11.43,8.38ZM18.7,51.57a4.55,4.55,0,0,0,.61,0C19.5,51.61,18.72,51.68,18.7,51.57ZM25.18,15.1c.43.08.2.11-.27,0C24.92,15.06,24.91,15,25.18,15.1ZM21.44,14c.58.21.58.26,0,0S20.83,13.76,21.44,14ZM13.57,31.15c-.07,0-.14,0-.24-.06Zm-.7-.12-.23-.1C13.07,31.07,13.32,31.14,12.87,31Zm.56.28.14,0c-.36.08-.72.16-1.09.21A7.78,7.78,0,0,1,13.43,31.31Zm-.95,0c.49-.08.51-.07.51,0S11.48,31.63,12.48,31.33Zm-.27.25h.12l-.4,0A2,2,0,0,1,12.21,31.58Zm0,5.84c-.13-.09-.06,0,0,.09-.1-.12-.22-.24-.46-.49ZM8.83,31.35c.16,0,.5.14.06.07S8.15,31.24,8.83,31.35Zm2.05.29.29,0a11.46,11.46,0,0,1-2.42-.13A12.92,12.92,0,0,0,10.88,31.64Zm.2,4.83c0-.15-.45-.49-.68-.79.18.19-1.44-2-1.3-1.86s.31.47,0-.1a12.93,12.93,0,0,0,2.23,3A1.16,1.16,0,0,0,11.08,36.47Zm1.23,1.35c-1.11-1,0-.06.23.14C12.53,38,12.53,38,12.31,37.82Zm.88.61c-.14-.11-.34-.28,0,0S13.46,38.62,13.19,38.43Zm1.58,1c-.12-.1-.81-.48-.09-.13C14.93,39.38,14.78,39.38,14.77,39.39Zm0-.26A10.16,10.16,0,0,1,12.94,38C14,38.73,16.52,40,14.74,39.13Zm1.45.8-.09,0c-1.23-.46-.21-.11.27.07Zm1.33.21a11.86,11.86,0,0,1-1.59-.53,13.52,13.52,0,0,0,2.63.67A7.62,7.62,0,0,1,17.52,40.14Zm-.9,2.54c0,.19-.33.21-.48.32ZM12.06,44.5c.46-.12,0,.07-.25.13C11.81,44.61,11.79,44.59,12.06,44.5Zm0,.2-.74.23c.06,0-.06,0-.14,0C11.44,44.82,11.69,44.81,12,44.7Zm-1,.29.09,0-.42.12A2.39,2.39,0,0,1,11.07,45ZM6,45.66c.13,0,.26,0,.25,0C5.75,45.72,5.47,45.69,6,45.66Zm-1,.12c.64,0-.23,0-.26,0S4.61,45.78,4.9,45.78Zm-.53.15a23.82,23.82,0,0,1-2.68-.12C2.58,45.82,3.42,45.94,4.37,45.93Zm-2.27.46A4.45,4.45,0,0,1,1.57,46c.49.31,1,.61,1.49.89C2.74,46.75,2.42,46.58,2.1,46.39Zm4.68,2.35a23.88,23.88,0,0,1-3-1.45A37.53,37.53,0,0,0,7.45,49Zm3.28-3.5a25.2,25.2,0,0,1-2.48.45C8.46,45.59,9.2,45.4,10.06,45.24ZM8.88,49.75c-.17-.07-.39-.23,0-.08S9.25,49.89,8.88,49.75Zm1.34.25a9.85,9.85,0,0,1-1.46-.53c.55.2,1.1.39,1.67.56Zm.75.27a1,1,0,0,0-.36-.19l.86.22A4,4,0,0,1,11,50.27Zm.75.16c-.6-.26.29,0,.56.08Zm.6-5.81c-.17.06-.43.11,0,0Zm.49-.29c-.4.13-.26,0-.26,0C13,44.19,13.27,44.13,12.81,44.33Zm1,6.53-.43-.1c.54.11,1.1.21,1.65.3Zm1.16-7.26c-.21.1-.44.18-.66.28C14.52,43.76,15.39,43.27,14.94,43.6Zm1.16,7.66s-.15,0-.37-.08l.63.07A1.06,1.06,0,0,0,16.1,51.26Zm.64.05a1.23,1.23,0,0,1-.35-.06l.49.06Zm.64-9a.54.54,0,0,1,.36-.22Zm.89-.54c.2-.2.12-.08.38-.25Zm1.43-1c.17-.16.22-.27.19-.33l.29,0Zm2.64,10.82c-.33,0-.25,0,.27-.06C22.68,51.55,22.51,51.57,22.34,51.59Zm-4-38.72a48.13,48.13,0,0,0,6.56,2.34A36.78,36.78,0,0,1,18.35,12.87Zm5.79,38.91c-.33,0-.25,0,.27-.06C24.48,51.74,24.31,51.76,24.14,51.78Zm1.33-.21c-.17,0-.46,0,0-.07S25.83,51.51,25.47,51.57Zm-.16-.25a5.12,5.12,0,0,1-.67,0l1.3-.14ZM27,51.15c-.17,0-.46,0,0-.07S27.4,51.09,27,51.15Zm.59-35.33h0a1.85,1.85,0,0,1,.57.1Zm.45,35.24-.26,0C27.69,51.06,28.81,50.88,28.08,51.06ZM32.5,8.94a13,13,0,0,0-.78,4.16A8.34,8.34,0,0,1,32.5,8.94Zm-2.24,7.21s0,0,.11,0l-.48-.05Zm-.13,34.31c-.45.13-.08,0-.16.08s-.83.21-.85.25-.25,0-.6,0c.66-.13,1.31-.27,1.95-.43Zm1-34.22c.65.05.9.07.79-.75C32,16.11,32.08,16.5,31.1,16.24Zm1.81,33.49c-.41.11-.41.07-.69.14.49-.15,1-.3,1.43-.47A4.74,4.74,0,0,0,32.91,49.73Zm1.51-.3c-.16,0-.45.1,0-.07S34.79,49.28,34.42,49.43Zm.74-.3-.25.08C35.33,49,35.59,49,35.16,49.13Zm.48-.24c-.58.23.21-.19.21-.19S35.93,48.78,35.64,48.89ZM43.7.33c.11,0,.43.06,0,.06S43.23.36,43.7.33Zm-3.62.77h.06c.33,0-1.44.58-.24.13C40.1,1.13,39.56,1.29,40.08,1.1ZM36.47,3.34c.2-.12.5-.35.83-.58-.28.2-.56.4-.83.62C36.48,3.36,36.49,3.34,36.47,3.34Zm2-1.28c-.32.18-.64.38-1,.58A5.92,5.92,0,0,1,38.42,2.06ZM36.16,48.4h0c.35-.15.7-.32,1-.48A3.66,3.66,0,0,1,36.16,48.4ZM38,47.55a.7.7,0,0,1-.57.27l.62-.31Zm.28,0c-.44.28.18-.14.22-.18S38.46,47.44,38.23,47.56ZM39.77,1.43A10.37,10.37,0,0,0,38.6,2,5.9,5.9,0,0,1,39.77,1.43Zm-.4,45.42c-.31.13-.25.08.21-.16C39.65,46.67,39.51,46.76,39.37,46.85Zm1.75-1.16c-.13.29-1.24.81-1.68,1,.37-.21.73-.43,1.09-.66-.35.34.57-.32.36-.23l.27-.17ZM41,1A20,20,0,0,1,43.27.52C43.12.61,41.88.76,41,1Zm1.09,44c-.5.35-.15.23-.58.41.43-.3.86-.6,1.28-.92A7.3,7.3,0,0,1,42.11,45Zm1.64-1.25a7.57,7.57,0,0,1-.75.6l.75-.6ZM44.21.51c-.22,0-.44,0-.65,0C43.66.53,44.32.38,44.21.51Zm1,42.33c-.32.29-.21.1.18-.21C45.36,42.64,45.39,42.66,45.17,42.84Zm0-.35-.11.09.5-.44Zm-.55-42a3.36,3.36,0,0,1,1.4,0c-.16,0-1.79-.06-.39.1C45.35.52,45,.49,44.67.49Zm1,.06a1.82,1.82,0,0,1,.75.09Q46.09.58,45.71.55Zm.95-.1c-.47-.07.28,0,.68.11,0,0,0,0,.07,0l-.07,0s.15.06.13,0C47.66.7,47,.5,46.66.45Zm.26,40.4c.08-.07.13-.17.21-.2A1.94,1.94,0,0,1,46.92,40.85Zm1.38-1.49a11.71,11.71,0,0,1-.85.92q.51-.56,1-1.11A1.82,1.82,0,0,1,48.3,39.36ZM47.19.76a5.77,5.77,0,0,1,1.3.33C48.06,1,47.63.85,47.19.76ZM48.35,1c-1.05-.4.29-.15.17-.08S48,.79,48.35,1Zm.3.12a5.23,5.23,0,0,1,.59.23Zm.71.28a2.12,2.12,0,0,1,.39.14Zm4.87,3.09-.23,0c-.26-.28-.54-.55-.83-.81C53.56,4.05,53.84,4.52,54.23,4.51Zm-3.5,31.7a4.47,4.47,0,0,1-.51.72c.19-.26.37-.53.56-.8A.35.35,0,0,0,50.73,36.21Zm.49-.3c-.11.14-.27.34,0,0S51.4,35.63,51.22,35.91Zm1.17-2.21c-.21.2-.64,1-.93,1.41.49-.76.95-1.53,1.37-2.32A9.29,9.29,0,0,1,52.39,33.7ZM53,33c-.18.27-.16.19.09-.27C53.18,32.71,53.11,32.87,53,33Zm0-.61a1.58,1.58,0,0,1-.18.3l.31-.59C53.14,32.23,53.1,32.32,53.06,32.42Zm1-1.91a8,8,0,0,1-.66,1.28c.38-.74.73-1.48,1.06-2.24C54.3,29.86,54.09,30.35,54,30.51Zm.76-1.35c-.56,1.26.11-.33.19-.5A2.44,2.44,0,0,1,54.78,29.16Zm.48-1.59a6,6,0,0,1-.31.67c.15-.37.28-.75.42-1.12A1.32,1.32,0,0,1,55.26,27.57Zm.39-1.23a6.9,6.9,0,0,1-.25.68c.09-.26.19-.52.28-.79C55.67,26.27,55.66,26.29,55.65,26.34Zm4.21-18.6c.47-.1,0,.07-.25.11C59.61,7.83,59.59,7.81,59.86,7.74Zm-1.57.37c.59-.1,0,.08-.25.09A.48.48,0,0,1,58.29,8.11ZM57.6,8c.29-.21.44-.21.25-.07S57.32,8.16,57.6,8Zm-.17,9.78a3.68,3.68,0,0,1-.11.82c.06-.49.1-1,.13-1.47A4.8,4.8,0,0,1,57.43,17.73Zm.26-2.92c0,.49,0-.06,0-.27C57.66,14.54,57.69,14.53,57.69,14.81Zm0,1.74c0-.22.07.28.08.4S57.64,16.88,57.66,16.55Zm.65-3.86.06-.08Zm5.3-5.56a5.65,5.65,0,0,0,.31-.6,25.52,25.52,0,0,1-5.58,1.75,56.23,56.23,0,0,0,5.83-1.87A3.58,3.58,0,0,0,63.61,7.13Z"/><path class="cls-1" d="M63,8l-.11.13S62.9,8.13,63,8Z"/><path class="cls-1" d="M57,21.26l-.06.27Z"/><path class="cls-1" d="M63.35,7.53,63,8C63.11,7.87,63.23,7.7,63.35,7.53Z"/><path class="cls-1" d="M57,21a1.36,1.36,0,0,0,0-.2l0,.14C57,21.13,57,21.49,57,21Z"/><path class="cls-1" d="M56.47,24.18a2.51,2.51,0,0,0,.37-1C57,22.7,56.5,24,56.47,24.18Z"/><path class="cls-1" d="M64.66,5.86s.06,0,.06.06a.52.52,0,0,0,.07-.12Z"/><path class="cls-1" d="M62.71,8.36l.15-.19L63,7.88C62.92,8.05,62.81,8.2,62.71,8.36Z"/><path class="cls-1" d="M63.35,7.53l.13-.18,0,0Z"/><path class="cls-1" d="M56.29,25l.08-.25C56.36,24.54,56,25.54,56.29,25Z"/><path class="cls-1" d="M60.87,10.13c-.09.12-.18.25-.26.38a11.55,11.55,0,0,0,2.1-2.15A20.54,20.54,0,0,1,60.87,10.13Z"/><path class="cls-1" d="M16.21,11.64c-.26-.15-.26-.09-.28-.08C16.44,11.84,16.52,11.85,16.21,11.64Z"/><path class="cls-1" d="M0,45.42l1.22.7C1,46,.62,45.76.15,45.46,1,45.48.42,45.43,0,45.42Z"/><path class="cls-1" d="M52,2.81a11.94,11.94,0,0,0-1.76-1,.08.08,0,0,1,0,0A13.24,13.24,0,0,1,52,2.81Z"/><path class="cls-1" d="M33.22,7.24a1.65,1.65,0,0,0-.19.39c.14-.26.29-.51.44-.75Z"/><path class="cls-1" d="M14.87,10.7A7.28,7.28,0,0,0,13.68,10h0l.06.05C14,10.32,15.34,11,14.87,10.7Z"/><path class="cls-1" d="M31.52,15.86v0Z"/><path class="cls-1" d="M31.68,11v0c.06-.25.13-.49.21-.74A2.61,2.61,0,0,0,31.68,11Z"/><path class="cls-1" d="M52.9,3.33h0C52.84,3.27,52.83,3.27,52.9,3.33Z"/><path class="cls-1" d="M31.51,15.86c-1.12-.35-.41.23,0,0Z"/><path class="cls-1" d="M52.44,3.15l-.29-.22.31.25h0Z"/><path class="cls-1" d="M16.75,12.06c-.47-.27-1.05-.58-1.47-.81.46.28.94.54,1.42.8Z"/><path class="cls-1" d="M62.17,1.52h0Z"/><path class="cls-1" d="M15.23,11.22a2.84,2.84,0,0,0-.72-.45l.07.06Z"/><path class="cls-1" d="M15.28,11.25l0,0h0Z"/><path class="cls-1" d="M62.71,6.66a.83.83,0,0,0,.21-.06Z"/><path class="cls-1" d="M34.57,5.32,34.79,5A3.89,3.89,0,0,0,33.64,6.6l0,0c.14-.22.29-.42.44-.63A6.7,6.7,0,0,1,34.57,5.32Z"/><path class="cls-1" d="M3.79,22.08c.1.25.13.3.13.25-.06-.22-.12-.44-.17-.66C3.71,21.63,3.72,21.76,3.79,22.08Z"/><path class="cls-1" d="M5.46,48.38h0l-.27-.13Z"/><path class="cls-1" d="M5.89,3.26,6,3.35a2.1,2.1,0,0,1,.15.22L6,3.37l.24.25h0l-.33-.36c.16.18-.09-.08,0-.06s0,0,0,0c-.43-.53-.66-.11-.88.47H5C5.23,3.14,5.49,2.78,5.89,3.26Z"/><path class="cls-1" d="M1.58,46.33l-.36-.21Z"/><path class="cls-1" d="M14.18,51.25c.26,0,.22,0,.1-.07s-.37,0-.55-.09A1.31,1.31,0,0,0,14.18,51.25Z"/><path class="cls-1" d="M56.32,24.16l-.09.37A2,2,0,0,0,56.32,24.16Z"/><path class="cls-1" d="M28.36,51.13h.24a4.82,4.82,0,0,0,1.19-.23,6,6,0,0,0-1,.12l-.45.1S28.33,51.13,28.36,51.13Z"/><path class="cls-1" d="M57,21.26c0-.12,0-.24.07-.36a.88.88,0,0,0,0-.14S57,21,57,21.26Z"/><path class="cls-1" d="M4.91,3.61l0,.12.06,0C5,3.64,5,3.59,4.91,3.61Z"/><path class="cls-1" d="M56.6,22.91c.06-.27.13-.55.2-.8.14-.53,0-.08,0-.25a2,2,0,0,0,0,.24C56.71,22.37,56.66,22.64,56.6,22.91Z"/><path class="cls-1" d="M3.54,20.78a1.24,1.24,0,0,1,0,.16c0-.22-.07-.44-.1-.66A1.66,1.66,0,0,0,3.54,20.78Z"/><path class="cls-1" d="M8.08,19.31l.11.08L8,19.25Z"/><path class="cls-1" d="M8.4,32.83a.3.3,0,0,0,0,.08,1.67,1.67,0,0,1-.08-.2A.56.56,0,0,0,8.4,32.83Z"/><path class="cls-1" d="M18.12,40.45l-.61-.1A2,2,0,0,0,18.12,40.45Z"/><path class="cls-1" d="M10.52,30.36h.05c-.3-.14-.6-.3-.88-.46C9.44,30,10.47,30.34,10.52,30.36Z"/></g></g></svg>