<svg xmlns="http://www.w3.org/2000/svg" viewBox="0 0 68.55 50.62"><defs><style>.cls-1{fill:#fff;}</style></defs><g id="Layer_2" data-name="Layer 2"><g id="menu"><path class="cls-1" d="M40,24.51s0,0,.06,0S40,24.5,40,24.51Z"/><path class="cls-1" d="M39.85,24.7s.07-.06,0-.08S39.83,24.68,39.85,24.7Z"/><path class="cls-1" d="M41.48,33.81c.05,0,.15-.06.07-.12S41.47,33.8,41.48,33.81Z"/><path class="cls-1" d="M41.58,33.65s.14.27.08.11S41.62,33.65,41.58,33.65Z"/><path class="cls-1" d="M39.3,31l0,0C39.42,31,39.26,31,39.3,31Z"/><path class="cls-1" d="M41.57,33.59c.17.08,0,0,0-.05S41.44,33.55,41.57,33.59Z"/><path class="cls-1" d="M39,26.68a.09.09,0,0,0,0,.07C39.1,26.68,39,26.59,39,26.68Z"/><path class="cls-1" d="M38.9,27.16c0,.05.07.13.09,0S38.92,27.07,38.9,27.16Z"/><polygon class="cls-1" points="39.19 26.2 39.18 26.25 39.21 26.17 39.19 26.2"/><path class="cls-1" d="M39.2,30.69s0,0,0,0l.06,0S39.07,30.58,39.2,30.69Z"/><path class="cls-1" d="M39.07,30.69c0,.07,0,0,0,0S39.05,30.65,39.07,30.69Z"/><path class="cls-1" d="M44.46,22.4s0-.1,0,0S44.44,22.43,44.46,22.4Z"/><path class="cls-1" d="M44.29,22.41c0,.11.12,0,0,0Z"/><path class="cls-1" d="M43.43,34.48a.08.08,0,0,0,.08,0S43.44,34.43,43.43,34.48Z"/><path class="cls-1" d="M38.9,27.16c0-.07,0,0,0,0Z"/><path class="cls-1" d="M49.42,31.06c0,.08,0,0,0,0Z"/><path class="cls-1" d="M41.79,22.89a.09.09,0,0,0,.12,0A.09.09,0,0,0,41.79,22.89Z"/><path class="cls-1" d="M42.36,34.16c.07,0,.12-.07,0-.07S42.29,34.14,42.36,34.16Z"/><path class="cls-1" d="M41.75,33.7a.1.1,0,0,0,.07,0S41.78,33.66,41.75,33.7Z"/><path class="cls-1" d="M42.6,22.72s0-.06,0,0S42.56,22.73,42.6,22.72Z"/><path class="cls-1" d="M43,34.33s0,0,0,0h0C43.23,34.34,43.09,34.26,43,34.33Z"/><path class="cls-1" d="M44.7,22.54a0,0,0,0,0,0-.08C44.65,22.46,44.66,22.53,44.7,22.54Z"/><path class="cls-1" d="M49.51,26.72c0-.06-.11-.06-.07,0S49.56,26.76,49.51,26.72Z"/><path class="cls-1" d="M49.51,26.72s0-.07,0,0Z"/><path class="cls-1" d="M49.14,25.67s0,0,0,0S49.13,25.48,49.14,25.67Z"/><path class="cls-1" d="M49.65,30.36s-.08,0,0-.08S49.54,30.47,49.65,30.36Z"/><path class="cls-1" d="M49.37,30.92c0-.05-.08-.06-.08,0S49.39,31,49.37,30.92Z"/><path class="cls-1" d="M45.41,22.54s0-.06,0-.06S45.42,22.52,45.41,22.54Z"/><path class="cls-1" d="M49,31.59c0-.07,0-.11-.05,0S49,31.68,49,31.59Z"/><path class="cls-1" d="M49.68,27v0C49.57,27,49.69,27.07,49.68,27Z"/><path class="cls-1" d="M49.8,28.31s0,0,0-.07S49.79,28.28,49.8,28.31Z"/><path class="cls-1" d="M49.78,27.88c0-.06-.08,0-.08,0S49.78,27.93,49.78,27.88Z"/><path class="cls-1" d="M38.83,28.26c0-.07,0,0,0,0Z"/><path class="cls-1" d="M44.87,34.46s-.09,0-.1,0S44.89,34.52,44.87,34.46Z"/><path class="cls-1" d="M38.8,28.76s.08.06.07,0S38.8,28.67,38.8,28.76Z"/><path class="cls-1" d="M38.65,28.51v0C38.68,28.63,38.73,28.5,38.65,28.51Z"/><path class="cls-1" d="M38.83,28.26c-.08.14.05,0,.07,0S38.83,28.22,38.83,28.26Z"/><path class="cls-1" d="M38.9,27.88s0-.05,0,0S38.86,27.92,38.9,27.88Z"/><path class="cls-1" d="M48.76,31.81c.16-.23-.14,0,0,.09C48.77,31.89,48.77,31.81,48.76,31.81Z"/><path class="cls-1" d="M45.28,22.64c0-.08-.08-.12,0-.2C45.09,22.57,45.14,22.52,45.28,22.64Z"/><path class="cls-1" d="M47.19,23.32s-.06,0,0,0S47.23,23.35,47.19,23.32Z"/><path class="cls-1" d="M48.61,32.1c0-.05,0-.07-.06-.05A0,0,0,1,0,48.61,32.1Z"/><path class="cls-1" d="M18.84,25.47s0,0,.06,0S18.85,25.45,18.84,25.47Z"/><path class="cls-1" d="M18.66,25.65c.05,0,.06,0,0-.07S18.64,25.63,18.66,25.65Z"/><path class="cls-1" d="M17.63,29.22c0-.07,0,0,0,0Z"/><path class="cls-1" d="M18,31.64h0l.06,0S17.87,31.53,18,31.64Z"/><path class="cls-1" d="M17.63,29.22c-.08.14.05,0,.07,0S17.64,29.17,17.63,29.22Z"/><path class="cls-1" d="M17.7,28.83s0,0,0,0S17.67,28.87,17.7,28.83Z"/><path class="cls-1" d="M20.37,34.55c.17.08,0,0,0-.06S20.24,34.5,20.37,34.55Z"/><path class="cls-1" d="M17.71,28.11c-.06.05.07.14.09,0S17.72,28,17.71,28.11Z"/><path class="cls-1" d="M17.85,27.63a.11.11,0,0,0,0,.08C17.9,27.63,17.82,27.54,17.85,27.63Z"/><path class="cls-1" d="M17.71,28.11c0-.07,0,0,0,0Z"/><path class="cls-1" d="M18.11,32s0,0,0,0S18.07,31.9,18.11,32Z"/><path class="cls-1" d="M23.1,23.37c0,.11.13,0,0,0Z"/><path class="cls-1" d="M21.85,35.28c-.06,0,0,0,0,0s.05,0,0,0C22,35.3,21.89,35.22,21.85,35.28Z"/><path class="cls-1" d="M20.28,34.77s.16-.06.07-.12S20.27,34.76,20.28,34.77Z"/><path class="cls-1" d="M28.23,32c0,.08,0,0,0,0Z"/><path class="cls-1" d="M22.23,35.44a.11.11,0,0,0,.08,0S22.24,35.39,22.23,35.44Z"/><path class="cls-1" d="M23.27,23.36c0-.05,0-.1,0,0S23.26,23.39,23.27,23.36Z"/><path class="cls-1" d="M20.39,34.6s.13.28.07.11S20.42,34.61,20.39,34.6Z"/><path class="cls-1" d="M20.55,34.66a.12.12,0,0,0,.08,0S20.58,34.62,20.55,34.66Z"/><path class="cls-1" d="M21.41,23.68s0-.06,0-.05S21.38,23.69,21.41,23.68Z"/><path class="cls-1" d="M20.6,23.85a.12.12,0,0,0,.13,0S20.64,23.81,20.6,23.85Z"/><path class="cls-1" d="M21.16,35.11c.07,0,.12-.06,0-.06S21.09,35.1,21.16,35.11Z"/><path class="cls-1" d="M17.61,29.72s.07.05.07,0S17.6,29.62,17.61,29.72Z"/><path class="cls-1" d="M28.18,31.87c0-.05-.09-.05-.08,0S28.19,31.94,28.18,31.87Z"/><path class="cls-1" d="M28.6,29.27s0-.06,0-.08A.11.11,0,0,0,28.6,29.27Z"/><path class="cls-1" d="M28.59,28.83a0,0,0,0,0-.08,0C28.52,28.89,28.59,28.88,28.59,28.83Z"/><path class="cls-1" d="M28.5,27.92s0,0,0,0S28.51,28,28.5,27.92Z"/><path class="cls-1" d="M28.33,27.66s0-.06,0,0Z"/><path class="cls-1" d="M28.33,27.66c0-.05-.11-.05-.07,0S28.39,27.71,28.33,27.66Z"/><path class="cls-1" d="M28.46,31.31c-.05,0-.08,0-.06-.07S28.35,31.42,28.46,31.31Z"/><path class="cls-1" d="M24.22,23.5s0-.06,0-.06S24.23,23.48,24.22,23.5Z"/><path class="cls-1" d="M23.67,35.42s-.08,0-.1,0S23.69,35.48,23.67,35.42Z"/><path class="cls-1" d="M28,26.64c0-.06-.09-.16,0,0S28.05,26.81,28,26.64Z"/><path class="cls-1" d="M24.09,23.6c0-.08-.07-.12,0-.21C23.9,23.53,24,23.48,24.09,23.6Z"/><path class="cls-1" d="M23.51,23.5a0,0,0,0,0,0-.08C23.47,23.42,23.48,23.49,23.51,23.5Z"/><path class="cls-1" d="M17.45,29.47v0C17.49,29.58,17.53,29.45,17.45,29.47Z"/><path class="cls-1" d="M27.56,32.77c.11,0,0-.26,0,0S27.61,32.89,27.56,32.77Z"/><path class="cls-1" d="M27.83,32.55c0-.07,0-.12,0,0S27.77,32.64,27.83,32.55Z"/><path class="cls-1" d="M26,24.31s.07,0,0,0S26,24.29,26,24.31Z"/><path class="cls-1" d="M27.41,33.05s0-.07-.06,0S27.38,33.1,27.41,33.05Z"/><path class="cls-1" d="M6,47.53l-.28-.11C5.12,47.09,6.13,47.78,6,47.53Z"/><path class="cls-1" d="M12.52,50c-.07.12-2-.36-.37.07-.23,0,.94.18.92.23C13.21,50.23,12.32,50.16,12.52,50Z"/><path class="cls-1" d="M11.86,50c.32.07-.3-.08,0,0Z"/><path class="cls-1" d="M7.89,48.71c.44.19.45.12.05-.07S7.59,48.56,7.89,48.71Z"/><path class="cls-1" d="M60.26,8.14h0S60.25,8.14,60.26,8.14Z"/><path class="cls-1" d="M.35,32.93c0-.42,0-.36,0,0S.31,33.39.35,32.93Z"/><path class="cls-1" d="M47.65,45.58l-.31-.35C47.48,45.58,48.64,46.53,47.65,45.58Z"/><path class="cls-1" d="M51.69,49.08c-.39.08-.17.12.42,0S52.2,49,51.69,49.08Z"/><path class="cls-1" d="M1.44,25.84c0-.09-.34,1.44-.11.58A2.85,2.85,0,0,0,1.44,25.84Z"/><path class="cls-1" d="M41.54,44.2c.44-.11.39-.2-.12,0S40.71,44.39,41.54,44.2Z"/><path class="cls-1" d="M43.57,43.56c0,.12,1.1-.28.31-.07Z"/><path class="cls-1" d="M32.64,45c.37,0-1.37-.06-1.57-.09A10.39,10.39,0,0,0,32.64,45Z"/><path class="cls-1" d="M41.42,44.16c.31-.09-.62.14,0,0Z"/><path class="cls-1" d="M5.73,47.42c.3.12-.29-.15,0,0Z"/><path class="cls-1" d="M34,2.76h.32C34.29,2.65,33.14,2.78,34,2.76Z"/><path class="cls-1" d="M30.94,2.87l.33-.08c-.45.06-1.68.3-.52.12C31,2.88,31.14,2.83,30.94,2.87Z"/><path class="cls-1" d="M60.06,8a.54.54,0,0,0,.16.2c-.14-.15-.36-.67-.46-.79s0,.15.21.45C59.92,7.76,60.09,8,60.06,8Z"/><path class="cls-1" d="M30.48,3.05c.61,0,.43-.07,0,0S30.08,3.09,30.48,3.05Z"/><path class="cls-1" d="M60.23,46.9c-1,.59.19,0,.44-.16C62,45.91,60.79,46.62,60.23,46.9Z"/><path class="cls-1" d="M47.4.52a3.26,3.26,0,0,0-.89-.15C45.48.27,47.78.65,47.4.52Z"/><path class="cls-1" d="M40.6,1.6c1.55.34.82.24-.06-.13C40.88,1.05,40.16,1.63,40.6,1.6Z"/><path class="cls-1" d="M24.74,1.91l.11.12S24.81,2,24.74,1.91Z"/><path class="cls-1" d="M24.87,2.06l0,0s0,.06-.05.08S24.91,2.09,24.87,2.06Z"/><path class="cls-1" d="M24.76,2.13l0,0a.67.67,0,0,1-.17.07Z"/><path class="cls-1" d="M24.52,2.22l-.76.27Z"/><path class="cls-1" d="M4.62,46.76c-.08.07,1,.62.27.17Z"/><path class="cls-1" d="M52.08,41.65l-.08,0C51.79,41.78,52.08,41.66,52.08,41.65Z"/><path class="cls-1" d="M15.82,42.41c-.28-.15.27.17,0,0Z"/><path class="cls-1" d="M52.84,48.84l-.15,0h-.11c-.54.06-1.18.16.06,0h.08Z"/><path class="cls-1" d="M13.82,50.33l.23.07Z"/><path class="cls-1" d="M47.46,44.88l-.2-.19a0,0,0,0,1,0,0A1,1,0,0,1,47.46,44.88Z"/><path class="cls-1" d="M47,44.27c-.09,0,0,.15.14.26-.13-.19,0-.31.23-.41h0A1.62,1.62,0,0,0,47,44.27Z"/><path class="cls-1" d="M41.12,44.09a2,2,0,0,0,.3-.09l-.78.13S40.74,44.16,41.12,44.09Z"/><path class="cls-1" d="M14.36,41.27h0Z"/><path class="cls-1" d="M22.31,45.29l-.42-.13v0Z"/><path class="cls-1" d="M22.24,45.41a.3.3,0,0,0,.07-.1l-.22.31h0C22.14,45.55,22.2,45.48,22.24,45.41Z"/><path class="cls-1" d="M47.14,44.53l.12.16A.47.47,0,0,0,47.14,44.53Z"/><path class="cls-1" d="M39.57,44.34a3.63,3.63,0,0,0,.38-.09l-.93.13C38.82,44.44,39.06,44.46,39.57,44.34Z"/><path class="cls-1" d="M14.35,41.28c-.31-.24-.33-.2-.27-.13l.15.11A.18.18,0,0,0,14.35,41.28Z"/><path class="cls-1" d="M41.6.31c.14-.21.2-.33-.14.09C40.92,1.16,41.34.8,41.6.31Z"/><path class="cls-1" d="M.58,33.21c.07-.72-.17.7-.13.71C.44,34.26.56,33.5.58,33.21Z"/><path class="cls-1" d="M16.58,2.53c.29-.11.3-.28-.14-.08C15.73,2.72,16.78,2.45,16.58,2.53Z"/><path class="cls-1" d="M42.54,0l-.32,0C41.38,0,42.07,0,42.54,0Z"/><path class="cls-1" d="M51.48,1.81s0,0,0-.06h0c-.07-.05-.25-.08-.26-.11S51.54,1.82,51.48,1.81Z"/><path class="cls-1" d="M50.58,1.45h0l-.1-.05-.18-.07a9.84,9.84,0,0,0-1.4-.43A7,7,0,0,0,50.58,1.45Z"/><path class="cls-1" d="M51,49.1h0l0,0Z"/><path class="cls-1" d="M51.87,48.81Z"/><path class="cls-1" d="M28,44.49c.59.07.25,0-.29-.08A1.1,1.1,0,0,0,28,44.49Z"/><path class="cls-1" d="M21.62,1.26a.93.93,0,0,0-.31,0C20.73,1.38,21.08,1.35,21.62,1.26Z"/><path class="cls-1" d="M50.94,49.07c-.28-.51-.76-.62,0,0Z"/><path class="cls-1" d="M51.22,48.85a6,6,0,0,1,.65,0,2,2,0,0,1-.34-.05c-.49.13-.7,0-1-.43l-.07,0C50.73,48.63,51,48.88,51.22,48.85Z"/><path class="cls-1" d="M52.24,40.25c-.16.29.93-.46,1-.5a.36.36,0,0,0,.07-.07c-.35.2-.71.38-1.06.57Z"/><polygon class="cls-1" points="38.39 27.98 38.39 27.98 38.39 27.98 38.39 27.98"/><path class="cls-1" d="M49.63,26.65v0S49.63,26.65,49.63,26.65Z"/><path class="cls-1" d="M49.85,28.13s0,0,0,0,0-.08,0-.12h0C49.71,28,49.79,28.09,49.85,28.13Z"/><path class="cls-1" d="M16.37,50.31c-.63-.06-.74-.05-.41,0l.29,0C16.38,50.36,16.37,50.32,16.37,50.31Z"/><path class="cls-1" d="M14.17,41.23l-.07-.06Z"/><path class="cls-1" d="M23.13,35.69h0s0,0,0,0S23.17,35.72,23.13,35.69Z"/><polygon class="cls-1" points="45.88 22.54 45.88 22.54 45.88 22.54 45.88 22.54"/><path class="cls-1" d="M18.44,50.55h0l-.21,0H18.1a.86.86,0,0,0,.86-.25l-.07,0A.42.42,0,0,1,18.44,50.55Z"/><path class="cls-1" d="M22.11,46a4.18,4.18,0,0,0,.23-.36,1.52,1.52,0,0,0-.23.25A.4.4,0,0,1,22.11,46Z"/><path class="cls-1" d="M39.22,31s0,0-.06,0l0,.06A.1.1,0,0,0,39.22,31Z"/><path class="cls-1" d="M25,35.26h0Z"/><path class="cls-1" d="M20.61,35.15h0l0,0Z"/><path class="cls-1" d="M44.33,34.74h0s0,0,0,0S44.37,34.77,44.33,34.74Z"/><path class="cls-1" d="M24.23,35.38h0s0,0,0,0S24.23,35.37,24.23,35.38Z"/><path class="cls-1" d="M45.42,34.42h0s0,0,0,0S45.42,34.41,45.42,34.42Z"/><path class="cls-1" d="M43.34,34.42h.11C43.38,34.39,43.34,34.37,43.34,34.42Z"/><path class="cls-1" d="M42.64,22.48a0,0,0,0,0,0,0h0Z"/><path class="cls-1" d="M21.17,1.36a10.58,10.58,0,0,0-3.79,1c1.23-.37,2.4-.67,3.41-.87Z"/><path class="cls-1" d="M68.37,36.28c.32,1.42,0-1.51,0-.28-.26-2.89-1.84-10.36-1.07-7.18-.47-2-.92-3.77-1.38-5.43.06.27.07.43,0,0s-.07-.32,0-.31a71.38,71.38,0,0,0-3.4-9.79c0,.09-.06.05-.2-.24a4.18,4.18,0,0,1-.09-.41c-.95-2.16-2.07-4.43-3.47-7,.18,1,.2.71,1.11,2.61-1.51-3.09-1.63-2.64-3.72-3.92.87.49,2.32,1.32,1.48.72s1,.65,1.08.42c-.28-1-3.93-2.54-7.77-3.72l.24.09c.13.09-1.1-.31-.34-.12A34.82,34.82,0,0,0,43.44.07c.07,0,0,0-.28,0a.81.81,0,0,1-.28,0c-.57,0-1,.13-1.08.36a.45.45,0,0,0-.18.44,1,1,0,0,1,.13-.3c0,.26.23.64.79,1.14.34.18.74.36,1.18.54h.07s0,0,0,0l.68.25c-.54-.14-1-.28-1.48-.44.18.15.37.3.6.46-.92-.86,3.62,1.46,2.58.67.42.23,1.69.81.74.3l1.48.53c-.32-.13-1.93-.85-.69-.34.27.13,1.8.85.45.16,1.07.5,1.94,1.1,3,1.5-.17-.09.23.1.19.08l.38.2c-.9-.31.16.24.48.39-2.59-.93-3.08-1.14-5.68-1.89.17.23-2.47-.57-3.39-.73.57.3-1.51-.09,0,.08a57.35,57.35,0,0,0-9.29-.62l.34.08c-.12,0-.72,0-1.08-.06a55.91,55.91,0,0,0-5.78.51c.64,0-.64.12-1,.21a14.91,14.91,0,0,0-4,.76c.47-.14,1.21-.31,1.66-.39-4.73,1.16-7.87,2-12.28,4.36a9.11,9.11,0,0,1,2-1.34c-.45-.06,1.91-1,2.41-1.43-.51.47.69-.27.39-.15,1.11-.45,2.07-.86,2.91-1.23l-.09,0c.39-.17.66-.29.78-.36A18.11,18.11,0,0,0,23.5,2.05c-3.28,1.2-9.22,3.83-13.15,7a43.84,43.84,0,0,1,13.16-7,2.71,2.71,0,0,0,.29-.26l.22.07a2.09,2.09,0,0,0-.14-.17c.46-.62-.71-.68-2.63-.34h-.06l-.4.08A31.2,31.2,0,0,0,14.9,3.49c.83-.41,1.66-.82,2.48-1.18-3.16,1-6.69,2.47-8.71,4.16-.2.14-.41.31-.13.11l-.23.21A4.93,4.93,0,0,0,6.7,8.7c-.23.38-1.2,3-.73,1.64-2.16,5.49-1.23,3.58-2.63,7.87-.52.16-1.21,4.12-1.82,8.44,0,.82,0,.17.22-.57-.12.63-.23,1.29-.33,2a6.94,6.94,0,0,0,.05-1C.71,32.41.07,38.11,0,37.78c.69,3.7-1.24,3.67,1.89,6.44,5.32,5,7.05,4.59,11.93,6.11-.37-.11.11,0,.7.05.91,0-.44-.11-.54-.1,1.6-.09,3,.42,4.12.31l-.11,0c-.65-.07.17,0,.41,0a2.22,2.22,0,0,0,.49-.18c.25-.29.36-.82.53-.75a2.28,2.28,0,0,1-.46.72,2.82,2.82,0,0,0,1.16-1.42c1.34-1.28,1.93-2.2,2-2.91a9,9,0,0,1-1.27,1.61,17.87,17.87,0,0,0,1.27-1.72,1.18,1.18,0,0,0,0-.27c-.24.34-.54.77-.76,1l.76-1.05a1.34,1.34,0,0,0-.19-.44c-.45-.13-.88-.26-1.3-.4a2.08,2.08,0,0,1,.35.1l.94.28c-1-1.44-4.95-1.83-7.66-3.9l-.06,0A23.52,23.52,0,0,0,16.61,43a18.7,18.7,0,0,1-3.37-2.5l.09.06c.25.23.51.42.77.63l0,0a6.87,6.87,0,0,1-1.2-1.21c.24.14.58.51.22.1l.25.11-.08-.06a36.44,36.44,0,0,0,7.79,3,92.13,92.13,0,0,0,10.33,1.75s1.06,0,1.26-.06A47,47,0,0,0,39,44.38l.2,0a2.93,2.93,0,0,1,.73-.1l.69-.12.17-.06c.26-.06.74-.13.61-.07a38.52,38.52,0,0,0,10.82-3.75,3.52,3.52,0,0,1,1.06-.57c.9-.52,1.78-1.08,2.63-1.69-1,1.42-1.15,1.26-3.21,3,.15-.11-.21.12-.17.1-1.23,1.31-6.64,3.32-5.23,2.86a.66.66,0,0,0,0,.15l.21-.08c-.07,0,0,0,.1,0l-.31.1a6,6,0,0,0,3.06,4.18c-.38-.42-.78-1-1-1.27a16.55,16.55,0,0,1,1.12,1.3,6,6,0,0,0,2.08.53c.4-.06.75-.09.26,0l-.12,0a12.31,12.31,0,0,0,5-1l.36-.13c.44-.17.72-.3.59-.27,4.94-2.22,9.62-6.51,9.9-8.45C68.46,38.32,68.38,36.77,68.37,36.28ZM59.8,7.93a5.05,5.05,0,0,0-.33-.66C59.34,7.08,59.89,7.84,59.8,7.93ZM57,4.65c.32.25.24.2-.3-.12C56.68,4.47,56.87,4.56,57,4.65ZM19,4c.46-.2.3-.08.3,0C18.89,4.18,18.44,4.32,19,4ZM15.91,5.51c.46-.25.5-.15.07.08C15.79,5.67,15.44,5.78,15.91,5.51Zm-3,1.84c0-.06,1.09-.72.38-.2C13.06,7.31,12.73,7.5,12.92,7.35ZM.49,38.24c0,.6,0,1.21,0,1.82C.47,39.51.44,38.81.49,38.24ZM.42,41.48a3.77,3.77,0,0,0,.07-.67c0,.19,0,.38,0,.57C.49,41.33.45,41.49.42,41.48ZM.52,37c0-.18,0-.32,0-.55C.54,36.64.52,36.82.52,37Zm.12-2.33c0,.43-.05.87-.07,1.31,0-.07,0-.12,0-.12A6.14,6.14,0,0,1,.64,34.68Zm0,7.74s0,0,0-.12.14.2.34.45Zm.05-8a10.29,10.29,0,0,1,.28-3C.83,32.44.73,33.42.66,34.43Zm.49-4.69c-.11.07.09-.75.17-1.15C1.26,29,1.21,29.35,1.15,29.74ZM21.64,46.39c.34-.56.49-.66.21-.22C21.9,46.22,21.06,47.16,21.64,46.39Zm-.42-1.59.29.11C20.81,44.77,20.76,44.66,21.22,44.8Zm-5.4-2.39a5.45,5.45,0,0,1,.53.33C16.21,42.72,15.38,42.17,15.82,42.41ZM50.12,28.8c0-.09-.13-.15,0-.14S50.18,29,50.12,28.8Zm0,.28s.07,0,.07-.07c0,.19,0,.37-.07.55A2.55,2.55,0,0,0,50.09,29.08Zm.09-.82v.07a.07.07,0,0,1,0,0S50.17,28.27,50.18,28.26Zm0,.28s0,.06,0,0A.07.07,0,0,0,50.18,28.54Zm-.06,0a.11.11,0,0,1,0-.08S50.15,28.51,50.12,28.51Zm0-.57c0-.07,0-.22-.06-.23s0-.06,0-.13C50.12,27.67,50.19,28.08,50.13,27.94Zm-.1-.61a0,0,0,0,0,0,0c0,.06,0,.12,0,.18S50.06,27.33,50,27.33Zm-.88-22A13.08,13.08,0,0,1,51.09,6C50.44,5.76,49.79,5.54,49.15,5.34ZM50,29.84s0,.07,0,.06a1,1,0,0,1,0,.17A.77.77,0,0,0,50,29.84Zm-.53,1.72c-.07.15-.32.59-.2.32C49.34,31.78,49.33,31.49,49.45,31.56Zm-.19-.25c0-.12.18-.09.16,0C49.29,31.3,49.35,31.44,49.26,31.31Zm.16-.19v-.06C49.5,30.86,49.44,31.13,49.42,31.12Zm0-.24s.13-.1.08,0S49.48,30.88,49.46,30.88Zm0,.45c.27-.34.08-.06,0,.16C49.49,31.44,49.48,31.39,49.49,31.33Zm.17-.77c-.1,0,0-.16.06-.12S49.62,30.54,49.66,30.56Zm0,.12c0,.05-.07,0,0,0S49.68,30.62,49.66,30.68Zm.19-.08c-.05.15-.1.29-.16.44,0,0,0,0,0,0S49.8,30.69,49.85,30.6Zm-.05-.08a.25.25,0,0,0,.1-.08.56.56,0,0,0,0,.12S49.83,30.51,49.8,30.52Zm0-.88s.07-.05.07,0A0,0,0,1,1,49.81,29.64Zm.07.67s0,0,.06,0l0,.14S49.91,30.32,49.88,30.31Zm.08-.15a.29.29,0,0,1,0,.09S49.94,30.18,50,30.16Zm-.09-.59s0,0,0,0H50A.08.08,0,0,1,49.87,29.57Zm.13-.8s.07.21-.06.06S50,28.76,50,28.77Zm-.06-2.11c.1.35.11.63,0,.11A.43.43,0,0,1,49.94,26.66Zm0,2.69s-.07.07-.07,0S50,29.3,50,29.35Zm-.31-3.5.12.27C49.72,26,49.5,26,49.64,25.85Zm0,.62c-.07-.06,0-.11,0-.06S49.65,26.55,49.6,26.47Zm.16-.33,0,.08C49.71,26.22,49.64,26.17,49.76,26.14Zm.07.61s0,.08,0,.08S49.79,26.74,49.83,26.75Zm0,.94s0,0,0,0S49.86,27.62,49.86,27.69Zm0-1.17c0-.05,0-.05.06,0S49.84,26.54,49.82,26.52Zm-.28-.92s0,0,0-.07Zm-.12-.31s0,.09,0,.14-.09-.08-.13-.12S49.41,25.31,49.42,25.29Zm-.1-.2c0-.05-.07,0-.11,0s0-.07,0-.1Zm.1-20c.19.08.48.2,0,0S49,5,49.42,5.13ZM49.23,25c-.09-.13-.18-.09-.15-.26Zm-.15.25a.07.07,0,0,1,0-.06C49.14,25.21,49.12,25.27,49.08,25.21ZM49,24.56a1,1,0,0,1,.08.14C49,24.75,49,24.64,49,24.56Zm0,.22s.07.09,0,.06S48.9,24.76,49,24.78Zm-.08-.33s0,0,0-.05a1.13,1.13,0,0,1,.1.13S48.89,24.5,48.88,24.45Zm-1.56-20h0l0,0ZM45.5,4c.38.12.29.11-.33,0C45.1,3.93,45.31,4,45.5,4ZM49,5.29a47,47,0,0,0-8.32-1.78,11,11,0,0,1,1.64.17A39.63,39.63,0,0,1,49,5.29Zm-.12,19.1s0,0-.07,0,0,0,0-.06Zm-.23-.13s.07-.06,0-.13c.15.14,0,.2-.13.16A.29.29,0,0,0,48.63,24.26ZM48.51,24c-.32-.1.05-.1.11.1C48.56,24.09,48.54,24,48.51,24Zm-.29-.31s0,0,0-.05l.1.11Zm.05.2c0,.05,0,.09-.06.05S48.22,23.84,48.27,23.87Zm-.13-.26c-.14,0-.13-.13-.19-.21l.12.11C48,23.48,48.12,23.62,48.14,23.61Zm-.47-.41c-.12,0-.18-.13-.27-.22a3.91,3.91,0,0,1,.41.3C47.76,23.27,47.73,23.21,47.67,23.2Zm0,0s-.06,0-.09,0S47.64,23.24,47.68,23.24ZM47.31,23s0,0-.06,0S47.24,22.93,47.31,23Zm.13.13s-.1-.05,0-.05S47.5,23.11,47.44,23.1Zm-.22-.25c-.09,0-.22-.14-.26-.05a.08.08,0,0,0,0-.09A2,2,0,0,1,47.22,22.85Zm-.76-.4c.11.05.49.2.43.23S46.6,22.55,46.46,22.45Zm.33.35,0-.05C46.87,22.75,46.84,22.83,46.79,22.8Zm-.22-.14c0,.05-.11-.11,0-.06S46.64,22.65,46.57,22.66Zm0,.06c.06.13-.29,0-.22-.12C46.41,22.71,46.49,22.68,46.59,22.72Zm.3.2s0,.06,0,0S46.84,22.89,46.89,22.92Zm-.76-.6a.39.39,0,0,0-.15,0c-.1,0-.11,0-.22-.09C45.88,22.25,46,22.27,46.13,22.32Zm-.37-.05s0,.07-.06.06S45.68,22.24,45.76,22.27Zm-.2-.11.11,0-.1,0S45.6,22.17,45.56,22.16Zm-.18,0c-.22-.07-.45-.06-.85-.15a5.14,5.14,0,0,1,1,.16s-.07,0-.1,0S45.4,22.16,45.38,22.15Zm-.49.06c-.09,0-.09-.06,0,0S45,22.22,44.89,22.21Zm-.52-.07s0,.06-.07.05A.05.05,0,0,1,44.37,22.14ZM44.28,22l-.17,0,.22,0Zm.08.07a.15.15,0,0,1,.16-.07C44.56,22.17,44.45,22.08,44.36,22.07ZM44,22s-.06.05-.09,0Zm-.34,0s0,0-.09,0Zm-.6.34s0,0,0,0h0Zm-.17-.19.15,0C42.94,22.13,42.93,22.16,42.86,22.15Zm.16,0,.45-.08s0,.07,0,.1C43.39,22,43.17,22.12,43,22.1Zm-.21.06c-.05,0-.08.07-.14,0Zm-.16.08c0,.05-.37.33-.16,0C42,22.47,42.46,22.18,42.65,22.24Zm-.57.19s-.1,0-.14,0l.14-.06A0,0,0,0,0,42.08,22.43Zm-.16,0c-.18.21-.06.21-.18.1l-.19.08C41.67,22.58,41.79,22.53,41.92,22.47Zm-.56.32c-.09,0-.21.16-.31.17C41.15,22.91,41.31,22.75,41.36,22.79ZM41,23a.16.16,0,0,1-.1.05L41,23S41,23,41,23Zm0,.15c0,.06,0,0,0,.12S40.91,23.13,41,23.17Zm-.48.22c-.17.13.17-.19.26-.24C40.72,23.23,40.6,23.3,40.53,23.39Zm0,.23s-.1,0,0,0S40.61,23.57,40.56,23.62ZM40.5,3.26c1.63.22-.42,0-.63,0A2.93,2.93,0,0,1,40.5,3.26Zm-.06,20.19s0,.09,0,.1S40.4,23.48,40.44,23.45Zm-.17.45c.06,0,0,.11-.07.09S40.24,23.93,40.27,23.9Zm-.11-.17s0-.05,0-.06S40.19,23.73,40.16,23.73Zm.11.06s.13-.23,0-.15C40.37,23.46,40.38,23.69,40.27,23.79ZM40,24S40,24,40,24C40.18,23.9,40.1,24.26,40,24Zm-.14,0h0C40.05,23.81,40.1,23.83,39.89,24ZM36.09,3h0V3Zm-1.23-.11h.31C35.94,3,34.66,3,34.86,2.93Zm5.09.5c-3.53-.14-6.32-.23-8.85-.13A40.09,40.09,0,0,1,40,3.43Zm-.2,20.81s-.09.07-.15.14l.2-.27C39.77,24.16,39.71,24.21,39.75,24.24Zm-.12.38s0,.05-.06.05S39.6,24.6,39.63,24.62Zm-.23.65c0,.06-.12,0-.11-.05S39.44,25.19,39.4,25.27Zm0-.45s0,0-.05,0a.41.41,0,0,0,.05-.09S39.36,24.79,39.38,24.82Zm-.45.75a.91.91,0,0,1-.14.34C38.8,25.6,39.39,25,38.93,25.57Zm.1.17-.06,0C39,25.69,39.06,25.68,39,25.74Zm-.25,5a.22.22,0,0,1,0,.06,2.36,2.36,0,0,1-.12-.28s.07.19.15.24S38.79,30.77,38.78,30.75Zm.14.36-.09-.2C38.89,30.85,38.9,31.06,38.92,31.11Zm-.4-3.37s0,0,0,0S38.56,27.79,38.52,27.74Zm0-.32c.06,0,0,.14,0,.09S38.52,27.45,38.52,27.42Zm0,1.69c0,.05,0,0-.05,0S38.52,29.09,38.53,29.11Zm.11,1.16a.34.34,0,0,1,0,.2c0-.17-.08-.34-.12-.51C38.59,30,38.57,30.22,38.64,30.27Zm0-.36a.11.11,0,0,1,0-.06C38.67,29.82,38.69,29.94,38.64,29.91Zm0-.92c0,.06-.08.08-.09,0s.1,0,.09,0h0S38.66,29,38.67,29Zm-.11-1.9c0-.06.11,0,.1,0S38.55,27.16,38.56,27.09Zm.12,1.24s0,.06,0,0S38.68,28.28,38.68,28.33ZM38.39,28h0a15.53,15.53,0,0,0,.11,1.89,6.27,6.27,0,0,1,.22-3.64A6.6,6.6,0,0,0,38.39,28Zm.32-1.85s0-.07,0-.11S38.76,26.1,38.71,26.13Zm.1.55c0,.06-.11.1-.09,0S38.78,26.68,38.81,26.68Zm.27-1.43a3.3,3.3,0,0,1,.18-.32c0,.11-.13.14-.1.25S39.1,25.22,39.08,25.25ZM28.92,29.76c0-.09-.13-.16,0-.15S29,29.92,28.92,29.76Zm0,.28S29,30,29,30a5.14,5.14,0,0,1-.06.55A2.55,2.55,0,0,0,28.9,30Zm-.12.76s0,.07,0,.06,0,.11,0,.16A.56.56,0,0,0,28.78,30.8Zm-.52,1s.14-.1.09,0S28.28,31.84,28.26,31.83Zm0,.25s0-.06,0-.06C28.31,31.82,28.25,32.09,28.23,32.08Zm.07.2c.27-.33.08-.05,0,.17A1,1,0,0,1,28.3,32.28Zm.16-.77c-.09,0,.05-.16.07-.12S28.42,31.5,28.46,31.51Zm0,.12c0,.05-.06,0,0,0S28.48,31.57,28.46,31.63Zm.2-.08c-.05.15-.11.3-.17.44,0,0,0,0,0,0S28.61,31.65,28.66,31.55Zm-.05-.08a.16.16,0,0,0,.09-.08l0,.12A0,0,0,0,0,28.61,31.47Zm0-.88s.07-.05.07,0S28.6,30.64,28.61,30.59Zm.08.68s0,0,0-.05a.61.61,0,0,1,0,.13S28.71,31.28,28.69,31.27Zm.08-.16s0,.06,0,.09S28.75,31.13,28.77,31.11Zm-.1-.58a.05.05,0,0,1,0,0s0,0,0,0h.06S28.71,30.55,28.67,30.53Zm.08-.22s-.07.06-.06,0S28.78,30.26,28.75,30.31Zm0-.52c0-.07,0-.07.07-.07S28.88,29.94,28.74,29.79Zm.06-1.71c.06-.15,0-.33,0-.46C28.78,27.76,28.92,28,28.8,28.08Zm.09.15c0,.06,0,.12,0,.18s0-.13-.07-.13S28.89,28.27,28.89,28.23ZM29,29.49s0,.07,0,.05S29,29.52,29,29.49Zm0-.26h0v.07S29,29.26,29,29.23Zm-.06.23s0-.06,0-.07S29,29.46,28.92,29.46Zm0-.57c0-.07,0-.21-.06-.23s0-.06.05-.12C28.93,28.63,29,29,28.94,28.89Zm-.36-1.82s-.06-.13-.09-.15C28.3,26.74,28.59,26.89,28.58,27.07Zm-.16.35c-.07-.06,0-.12,0-.06S28.48,27.5,28.42,27.42Zm.2-.25h0C28.41,27.15,28.61,27,28.62,27.17Zm0,.53s0,.08,0,.08S28.61,27.69,28.65,27.7Zm0,.94s0,0-.05,0S28.67,28.57,28.67,28.64Zm0-1.17s0,0,.06,0S28.66,27.49,28.64,27.47Zm-.27-.93s-.05,0,0-.06Zm-.13-.3a.75.75,0,0,1,.06.13c0-.06-.09-.07-.14-.12S28.24,26.26,28.24,26.24Zm-.08-.17.05.1,0-.05A.43.43,0,0,1,28.16,26.07Zm-.26-.42a2.26,2.26,0,0,1,.16.26s0,0,0,0S27.88,25.8,27.9,25.65Zm0,.51s0-.05,0-.06S27.94,26.22,27.91,26.16Zm.18-.21a.41.41,0,0,0,.05.09c0-.05-.07,0-.1,0S28.09,26,28.09,26Zm-.29-.16s-.06-.05,0-.06S27.87,25.83,27.8,25.79Zm-.1-.39a.11.11,0,0,1,0,0l.1.13S27.72,25.45,27.7,25.4Zm.12.24s0-.09,0-.13S28,25.71,27.82,25.64Zm-.14-.3s0,0-.07,0,0,0,0-.06Zm-.2-.26c.16.14,0,.2-.13.16C27.44,25.23,27.55,25.19,27.48,25.08Zm0,0h0C27.07,24.81,27.27,24.78,27.44,25Zm-.4-.41s0,0,0,0l.1.1Zm0,.26s0-.09.05-.05S27.07,24.91,27,24.88ZM27,24.56c-.14,0-.13-.13-.19-.21l.12.12C26.79,24.43,26.94,24.58,27,24.56Zm-.47-.41c-.12,0-.18-.13-.27-.22.14.1.28.19.41.3C26.58,24.22,26.54,24.17,26.49,24.15Zm0,0s-.06,0-.09,0A.1.1,0,0,1,26.49,24.19ZM26,23.81c-.08,0-.21-.14-.25,0a.11.11,0,0,0,0-.1Zm-.76-.41c.12.06.49.21.43.24S25.41,23.51,25.27,23.4Zm.34.35,0,0C25.69,23.71,25.66,23.78,25.61,23.75Zm-.22-.14c0,.06-.12-.11,0-.06S25.45,23.61,25.39,23.61Zm0,.07c.05.13-.29,0-.23-.12C25.22,23.67,25.3,23.64,25.41,23.68Zm.3.19c.05,0,0,.07,0,.05S25.65,23.85,25.71,23.87Zm-.77-.59a.34.34,0,0,0-.14,0c-.1,0-.12,0-.23-.09C24.7,23.21,24.82,23.23,24.94,23.28Zm-.37-.05s0,.07-.06.06S24.49,23.2,24.57,23.23Zm-.19-.11.11,0-.1,0S24.41,23.12,24.38,23.12Zm-.18,0c-.23-.07-.46-.06-.86-.15a5,5,0,0,1,1,.16.25.25,0,0,0-.09,0C24.36,23.13,24.22,23.12,24.2,23.11Zm-.5.06c-.09,0-.08-.06,0,0S23.79,23.18,23.7,23.17Zm-.51-.07s0,.06-.08,0S23.14,23.09,23.19,23.1ZM23.1,23l-.18,0,.22,0Zm.07.07a.14.14,0,0,1,.16-.07C23.37,23.13,23.27,23,23.17,23Zm-.39-.1s-.05.05-.09,0Zm-.34,0s0,0-.08,0Zm-.6.33h0Zm-.17-.18.16-.05C21.75,23.08,21.74,23.12,21.67,23.11Zm.16-.05.45-.08s0,.07,0,.1C22.2,22.93,22,23.08,21.83,23.06Zm4.29.86s0,0-.06,0S26.06,23.88,26.12,23.92Zm.14.14s-.1,0,0,0S26.32,24.06,26.26,24.06ZM25.4,3.76c.2-.06.33,0,0,.07h0c-.35.11-.67.11,0-.06ZM23,4.33c.58-.1-.05.07-.3.12C22.72,4.43,22.7,4.4,23,4.33ZM16.73,6.27c.38-.11.29-.06-.29.16C16.36,6.44,16.55,6.36,16.73,6.27Zm-1,.22s0,0,.05,0c.23-.08.23-.08.17,0C17,6.11,14.88,7,15.78,6.49ZM12.7,8c.6-.29.33,0-.07.17A45.69,45.69,0,0,1,21.8,4.81a84.82,84.82,0,0,0-9.35,3.51c-.77.4-1.41.75-1.93,1,.1-.22,1.9-1,1.08-.72C12.72,8,12.44,8.4,12.7,8Zm8.93,15.1c-.05,0-.08.06-.15,0Zm-.19.05c.09,0-.39.38-.14.07C20.86,23.4,21.23,23.2,21.44,23.17Zm-.55.18c0,.08-.06.06-.14.06Zm-.16.07c-.18.22-.06.21-.18.11a1.07,1.07,0,0,0-.19.07Zm-.56.33c-.09,0-.2.16-.31.16C20,23.86,20.12,23.7,20.17,23.75Zm-.36.23a.18.18,0,0,1-.1,0l.14-.1A.31.31,0,0,0,19.81,24Zm0,.14c0,.07,0,.05,0,.13S19.72,24.09,19.82,24.12Zm-.48.23c-.17.12.17-.2.26-.25C19.53,24.18,19.41,24.26,19.34,24.35Zm0,.22s-.1,0,0,0S19.42,24.53,19.37,24.57Zm-.12-.17c0,.05,0,.15-.07.06Zm-.17.46c.06-.05,0,.1-.07.08S19,24.88,19.08,24.86ZM19,24.69s.07-.11.06,0S19,24.68,19,24.69Zm.13,0s.13-.23,0-.15C19.18,24.41,19.19,24.64,19.08,24.74Zm-.24.19s-.05,0-.07,0C19,24.85,18.91,25.22,18.84,24.93Zm-.15,0,.17-.19a.07.07,0,0,1,0,0A1.07,1.07,0,0,0,18.69,25Zm-.13.22s-.1.07-.16.15c.07-.09.14-.19.21-.27S18.52,25.16,18.56,25.19Zm-.12.39a.08.08,0,0,1-.06,0S18.41,25.56,18.44,25.58Zm-.25.19h-.05l.09-.16C18.21,25.68,18.12,25.72,18.19,25.77Zm0,.45c0,.07-.12,0-.11,0S18.25,26.14,18.21,26.22Zm-.54.48a5.16,5.16,0,0,1,.21-.49s0,.07,0,.08S17.8,26.48,17.67,26.7Zm.17,0s0,0-.06,0S17.86,26.63,17.84,26.69Zm-.23.95c0,.05-.1.09-.08,0S17.58,27.63,17.61,27.64Zm-.09-.56a.42.42,0,0,1,0-.1S17.57,27.06,17.52,27.08Zm.37-.88c.05-.11.12-.21.18-.32C18,26,18,26.11,17.89,26.2Zm-.3,5.57a2.36,2.36,0,0,0-.12-.28,0,0,0,0,1,0,0c0,.06.26.34.1.2C17.59,31.71,17.59,31.73,17.59,31.77ZM17.47,30c0,.05-.08.08-.08,0s.09,0,.08,0h0S17.47,30,17.47,30Zm-.14-1.48s0-.06,0-.1S17.38,28.51,17.33,28.47Zm0,.21s0,.05,0,0S17.36,28.61,17.37,28.68Zm0,1.38q0,.07-.06,0S17.32,30,17.34,30.06Zm.1,1.17a.41.41,0,0,1,0,.19,4.23,4.23,0,0,1-.13-.51C17.39,31,17.37,31.18,17.44,31.23Zm0-.37a.06.06,0,0,1,0-.05C17.48,30.77,17.49,30.9,17.44,30.86ZM17.37,28c0-.06.11,0,.09,0S17.36,28.11,17.37,28Zm.11,1.24s0,.06-.05,0S17.48,29.24,17.48,29.28Zm-.17,1.54a6.59,6.59,0,0,1,.2-3.71A9.47,9.47,0,0,0,17.31,30.82ZM11.93,39l0,0s0,0,0,0ZM9.13,10.13a1,1,0,0,1,.28-.21C9.34,10,9.21,10.13,9.13,10.13Zm2.41-1.74s0-.05,0,0C11.62,8.24,12,8,11.54,8.39Zm-1,.57-.12.1S10.48,9,10.58,9Zm1.85-4.35.41-.17-.7.33Zm-.8.26a1.43,1.43,0,0,1,.28-.13C11.44,5,11.16,5.15,11.63,4.87ZM7.85,7.66a8,8,0,0,0,.94-.78S9.85,6.2,10.2,6C9.43,6.46,8.64,7,7.85,7.66ZM6.69,9.06c.37-.8.06-.18.07.12C7.25,8.32,6.33,10.06,6.69,9.06Zm-.16.8c.18-.41.41-.91.62-1.35-.17.36-.42.92-.74,1.68A2.19,2.19,0,0,1,6.53,9.86ZM5.08,13.54c.09.1-.17.51-.22.76A4.12,4.12,0,0,1,5.08,13.54Zm-.36.52c0-.11.24-.44.08,0S4.54,14.59,4.72,14.06ZM2.4,22.9c0,.11,0,.21-.07.31C2.3,23.16,2.36,23.13,2.4,22.9Zm.36,21.83a2.07,2.07,0,0,1-.49-.46l.5.47ZM2.49,22.54c.16-.74.31-1.42.52-2.11C2.83,21.11,2.66,21.82,2.49,22.54Zm.59-2.39a12.18,12.18,0,0,1,.35-1.28C3.31,19.29,3.2,19.71,3.08,20.15Zm.12-1c.08-.38.13-.61.21-1S3.41,18.73,3.2,19.18Zm1-2.93c1.12-3.44-.06.16-.56,1.87C3.79,17.56,4,17,4.2,16.25Zm.85,30.52c-.44-.26-.19-.19.31.14C5.34,46.92,5.34,47,5.05,46.77Zm-.9-.88-.3-.24c.46.36,1,.73,1.54,1.09A7.33,7.33,0,0,1,4.15,45.89ZM5.31,13a.44.44,0,0,1,0-.27,12.18,12.18,0,0,1,.43-1.31c.08,0-.63,1.79-.16.78C5.51,12.5,5.41,12.76,5.31,13Zm.46-1.22,0-.18a4.19,4.19,0,0,1,.2-.46ZM6.23,10l.06-.09C6.46,9.79,5.3,12.17,6.23,10Zm3,38.88c-.69-.25-.7-.31,0,0S10,49.18,9.27,48.9ZM20.1,44.32c.19.08.47.21,0,0S19.73,44.19,20.1,44.32Zm-1.05-.14c.32.14.81.29,1.13.46-.5-.18-1-.37-1.42-.57Zm-1.6-.84c.33.21.24.19-.31-.11C17.08,43.17,17.27,43.26,17.45,43.34Zm.4,7a5.3,5.3,0,0,1-1.6.06.9.9,0,0,1-.22,0H16c-1.49-.18-3.11-.71-4.35-.82l-1.06-.44A29,29,0,0,0,17.85,50.3Zm-5-10.5v0l0,0Zm-.15-.33a2.05,2.05,0,0,1-.46-.33C12.55,39.37,14.16,40.14,12.72,39.47Zm2.19,1.07A8.5,8.5,0,0,1,13.82,40c.41.21.83.42,1.24.61Zm.41.4c-.19-.1-.45-.27,0-.06S15.7,41.11,15.32,40.94Zm3,1A11.29,11.29,0,0,1,15.93,41c.85.37,1.69.69,2.48,1Zm-.61-10a1.05,1.05,0,0,0,.05.19S17.61,31.78,17.68,31.88Zm.31.27,0,0C18,32.3,17.92,32.17,18,32.15Zm0,.48a.59.59,0,0,0,0,.17C18,32.73,17.9,32.49,18,32.63Zm-.06-.3h0l-.06,0Zm-.16-.07s0,0,.05,0C18,32.65,17.94,32.57,17.81,32.26Zm0,0,0-.09C17.85,32.13,17.82,32.22,17.8,32.25Zm.47.78a.91.91,0,0,1,.07.14C18.2,33,18,32.72,18.27,33Zm0-.34s.11.11.08.13Zm.14.53c0,.05.11.05.08.11Zm.2.26a1.34,1.34,0,0,1-.11-.14S18.64,33.38,18.58,33.48Zm.08-.31s0,0,.07,0S18.71,33.23,18.66,33.17Zm.47,9.24c.45,0,.66,0-.24-.3C19.67,42.33,20.74,42.74,19.13,42.41Zm-.34-8.65a.33.33,0,0,1,.13.17C18.87,33.88,18.84,33.82,18.79,33.76Zm.19-.19s0,.08,0,0S19,33.54,19,33.57Zm.07.51c.1,0,0,.06.1.1Zm.12.11c.21.11.26.23.44.39C19.45,34.45,19.31,34.32,19.17,34.19Zm.68.52c0,.08-.14-.08-.22-.12C19.73,34.59,19.78,34.77,19.85,34.71Zm0-.24s.07,0,.09,0A.06.06,0,0,1,19.84,34.47Zm.06.32H20a.17.17,0,0,1,.12.11Zm1,.57-.5-.26s0,0,0,0l.15.07.05,0s0,.05,0,0A1.2,1.2,0,0,1,20.93,35.36Zm-.11-.21s.05,0,.08,0Zm-.41-.06c-.1-.06-.22-.1-.32-.17a1.59,1.59,0,0,1,.33.13S20.4,35.07,20.41,35.09ZM21.85,43a2.58,2.58,0,0,0-.85-.21c.05,0-.13-.07-.34-.15.63.19,1.28.37,2,.54A6.8,6.8,0,0,1,21.85,43Zm.18-7.4a1.37,1.37,0,0,0,.31.13,5.4,5.4,0,0,1-1.07-.26C21.56,35.52,21.81,35.72,22,35.63Zm-.69-.48s.05,0,.06.05S21.33,35.18,21.34,35.15Zm.14.05s0,.09,0,.07S21.43,35.18,21.48,35.2Zm.93.29s-.05-.05,0-.09S22.41,35.46,22.41,35.49Zm.05.15s.06.08,0,.08S22.41,35.64,22.46,35.64Zm.24-.14s.06.08,0,.07S22.65,35.49,22.7,35.5Zm-.54-.06c-.05-.15,0-.1.12,0S22.15,35.57,22.16,35.44Zm.16.11c.08,0,0,.06,0,0S22.29,35.54,22.32,35.55Zm-1.1-.27s0-.11.07-.09S21.22,35.28,21.22,35.28Zm0,.15s-.05,0,0,0l-.28-.12C21.07,35.35,21.13,35.49,21.26,35.43ZM25,43.9c.06,0-.34-.06-.08,0C23.37,43.62,25.25,43.87,25,43.9Zm1.65.14A19,19,0,0,1,23,43.28c1.22.3,2.53.57,3.91.79ZM24,35.75l0,0h0Zm.31-.07.05,0h0Zm.27-.06s.06,0,.07-.07,0,0,0,0Zm.13,0c0-.18,0,0,.12,0Zm.29-.1h.05C24.93,35.56,24.75,35.45,25,35.47Zm.51-.4s0,0-.05,0S25.61,35,25.53,35.07Zm.21.08-.23.12s0,0,0-.06S25.68,35.16,25.74,35.15Zm-.25.13-.13,0C25.45,35.29,25.4,35.2,25.49,35.28ZM26,35c.05,0,.12-.09.17-.09Zm.39-.28h.06S26.34,34.79,26.35,34.74Zm.28-.31s-.05,0-.06,0S26.6,34.39,26.63,34.43Zm0-.17h.06S26.58,34.3,26.63,34.26Zm.11-.19c-.3.39-1,1-.64.5-.26.19-.77.73-.46.22a2.25,2.25,0,0,1-.63.47s.08.06,0,.08-.07-.05,0-.08l-.24.16c0-.08-.24-.08-.5,0,.06,0,.11.12,0,.13s-.09-.09-.08-.13c-.59.09-1.33.37-.51.4a3.94,3.94,0,0,1-1,0,.9.9,0,0,0,.37-.1,0,0,0,0,0,0,0h0c.23-.14.24-.35-.17-.36,0,.05-.2.08-.26.07.17.05-.24.12-.2.06-.24-.38-1.08.22-.73-.25-.46-.24-.6.23-.8-.35,0,.48-.35-.38-.36.07,0-.28-.08-.06-.27-.14.32.29-.17-.14,0,.08-.24-.19-.22-.59-.54-.44.2-.43-.06,0-.11-.22-.47.27.16-.59-.44-.2.07-.26,0-.55-.35-.55.25-.18-.05-.06,0-.26,0,.17-.25-.17-.23-.32,0,.17-.3,0-.07,0-.13-.29-.5-.23-.33-.46-.13.08-.15,0-.09-.11A1.39,1.39,0,0,0,18,32,.1.1,0,0,1,18,32c-.1.18,0-.1,0-.14l-.12-.24s0,0,0,0-.05,0-.05,0c-.07-.16-.15-.34-.22-.53,0,0-.06,0-.06-.05h.05a2.18,2.18,0,0,1-.07-1.25c-.12.14-.23-.58,0-.42a2.64,2.64,0,0,1,0-1.34c.05.1.2,0,.06,0,.18,0,0-.19,0-.27s.34-.13,0-.09c.4-.36,0-.06,0-.33.06,0,.32-.26.11-.21.08-.05.13-.18,0-.22.86-.63.25-.74,1.07-1.68-.24.65.32-.41.33-.23a4.33,4.33,0,0,1,1.36-1.15c0,.08.25-.12.21-.16.26,0,.07-.29.38,0a.91.91,0,0,1,.31-.21c-.05,0-.12,0-.06-.06s.09,0,.09,0a1.46,1.46,0,0,1,.35-.12s0,0,0,0,0,.09.11.08,0-.08,0-.09c.13,0,.19.05.08.26.14-.2.59-.08.3-.15s.24-.23.23.06c-.1-.49,1.28-.19,1.06-.13.22.25.16,0,.23,0-.23-.27.38.12.46-.1-.16.32.25,0,.47.26,0-.1.46,0,0,0,0,0,0,0,0,0a.84.84,0,0,1,.07.16s.15,0,.2,0,1.69.64,1.63.92c.29,0-.14.39.29.16-.06.06,0,.2.08.13.16.17-.07.13.07.21s.3,0,.18.2c-.31.33.28-.07.19.2.23-.32,0,.25.26.11-.07.37.21.5.35.72a4.26,4.26,0,0,1,.43,1.25s0-.06.06,0,0,.1-.06.05a10.62,10.62,0,0,1,.2,1.36c.05,0,.07.05.08.12s0,0-.06,0a5.75,5.75,0,0,1,0,1c-.31.15.07.78-.1.83.05,0-.06.2-.13.15.35.1-.24.42-.3.68.24-.18-.18.62-.18.85,0-.3-.48,1.2-.61.61A1.18,1.18,0,0,1,26.74,34.07Zm-3.08,1.64s-.07,0-.09,0S23.68,35.61,23.66,35.71Zm-.81-.27s0,0,0,0S22.92,35.44,22.85,35.44Zm5-2.42a.16.16,0,0,0,.1,0C28,33.1,27.91,33.09,27.88,33Zm0,.18-.06.09C27.83,33.22,27.76,33.1,27.86,33.2Zm-.16.22a.86.86,0,0,1-.07.1C27.63,33.47,27.66,33.28,27.7,33.42Zm-.3.18s-.06,0-.08,0S27.42,33.53,27.4,33.6Zm-.13,0c.06,0,.05,0,0,.06S27.24,33.67,27.27,33.64Zm.07.22s-.06,0-.06,0S27.52,33.69,27.34,33.86Zm0,0,0,0Zm0,10.27.83.1C27.7,44.2,27.68,44.31,27.28,44.14ZM28,33c0-.07,0,0,0-.06C28.25,32.29,28.27,32.61,28,33Zm.17-.7c-.21.26,0-.33.05.05C28.18,32.41,28.21,32.27,28.18,32.26Zm1.26,12.12c-.42,0-1-.07-1.18-.12Zm2.6.43h0Zm6.12-.54c-.12,0-.92.28-.74.08a45.76,45.76,0,0,1-7.71.14c.25,0,.17-.07-.06-.09a40.05,40.05,0,0,0,10.2-.4C39.37,44.11,38.61,44.19,38.16,44.27Zm1.07-12.6a1,1,0,0,0,0,.17C39.21,31.77,39.1,31.53,39.23,31.67Zm-.11-.28.05,0h0Zm0,.12c.08.27-.09-.1-.13-.21S39,31.46,39.13,31.51ZM39,31.3s-.07-.11,0-.1S39,31.28,39,31.3Zm.47.77a.59.59,0,0,1,.06.14C39.4,32.08,39.23,31.76,39.47,32.07Zm0-.33s.1.1.08.12Zm.14.53s.1,0,.08.11Zm.08.11s.17,0,.11.15Zm.19.25a.12.12,0,0,1,.06.06S39.87,32.65,39.85,32.63Zm0-.42s0,0,.06,0S39.91,32.27,39.86,32.21Zm.13.6a.23.23,0,0,1,.12.17Zm.15-.16s0-.07,0,0S40.18,32.69,40.14,32.65ZM40.51,44c-.39,0-.3,0,.31-.11C40.9,43.88,40.7,43.93,40.51,44Zm-.26-10.85c.1,0,0,.06.1.09Zm.11.1a.54.54,0,0,1,.24.21Zm.24.21c.07,0,.09.05.13.12Zm.23.19c.1,0,.15.18.22.12C41,33.84,40.9,33.67,40.83,33.63Zm.21-.11s.06,0,.09,0A.06.06,0,0,1,41,33.52Zm.06.32a0,0,0,0,1,0,0c.06,0,.09.07.11.11Zm.51.25s0,0,0,0,0,0,.06,0l.22.15c.17.13.25-.12.23.13C41.47,34.15,41.23,33.86,41.61,34.09Zm.19.1s0,0,.06,0S41.87,34.23,41.8,34.19Zm.22,0s0-.05.08,0Zm1.2.48a1.15,1.15,0,0,0,.32.12,5.4,5.4,0,0,1-1.07-.26C42.75,34.56,43,34.76,43.22,34.68Zm-.68-.48a.08.08,0,0,1,.06,0S42.53,34.23,42.54,34.2Zm.13,0s0,.1,0,.07S42.62,34.23,42.67,34.24Zm.93.3s-.05-.06,0-.1S43.61,34.5,43.6,34.54Zm.06.14s.05.09,0,.08S43.6,34.68,43.66,34.68Zm.24-.14s.05.08,0,.07S43.85,34.53,43.9,34.54Zm-.43.09s0,0,.05,0S43.53,34.66,43.47,34.63Zm-1.06-.31s0-.11.08-.09S42.41,34.32,42.41,34.32Zm0,.15s0,0,0,.06l-.28-.13C42.26,34.39,42.32,34.53,42.45,34.47Zm.21,9.16c-.19,0-.39.06-.31,0S43.51,43.42,42.66,43.63Zm-.06-.17c1-.24,2.15-.64,2.91-.73C44.62,43,43.58,43.25,42.6,43.46Zm2.62-8.67s0,0,0,0h.05Zm.43,7.81.51-.16A3.72,3.72,0,0,1,45.65,42.6Zm.14-7.94a.16.16,0,0,0,.07-.07C45.94,34.64,45.84,34.63,45.79,34.66Zm.13,0c0-.19,0,0,.13,0Zm.14,0c0-.12.1,0,.21-.07Zm.14-.28s.09.07,0,.09S46.15,34.31,46.2,34.29Zm-.24.17c0-.08-.25-.08-.5,0,.06,0,.1.12,0,.13s-.09-.09-.08-.13c-.58.09-1.32.37-.51.4a4.41,4.41,0,0,1-1,0,.9.9,0,0,0,.37-.11,0,0,0,0,1,0,0h0c.23-.14.24-.36-.17-.37,0,.05-.21.09-.27.07.24.15-.23,0-.1.09,0-.08-.19-.1-.34-.11h0c.13,0-.14.18-.12,0a.1.1,0,0,1,0-.06c-.31,0-.62,0-.37-.17-.46-.24-.6.23-.8-.35-.05.48-.36-.38-.37.07,0-.28-.07,0-.26-.13.32.28-.17-.15,0,.08-.24-.2-.23-.59-.55-.45.21-.43-.06,0-.1-.22-.47.27.15-.59-.45-.2.07-.25,0-.55-.34-.55.25-.17-.05-.06,0-.25,0,.16-.25-.17-.23-.32,0,.16-.3,0-.07.05-.13-.3-.5-.24-.33-.46-.13.08-.15,0-.1-.12s-.06-.17-.16-.35l0,0c-.08.15-.06,0,0-.09-.13-.23-.25-.47-.11-.47,0-.13-.1-.26-.16-.38,0,0-.1,0-.11,0s.1,0,.11,0a1.57,1.57,0,0,1-.13-1.28c-.11.13-.23-.59,0-.42a2.62,2.62,0,0,1,0-1.34c0,.09.19,0,.06,0,.17,0,0-.19,0-.26s.34-.13.05-.09c.39-.36,0-.06,0-.33.07,0,.32-.27.11-.21.09-.05.13-.18,0-.22.85-.65.24-.74,1.06-1.68-.24.65.32-.42.33-.23a4.48,4.48,0,0,1,1.36-1.16c0,.09.25-.12.21-.15.25,0,.07-.3.38,0,0,0,.14-.13.31-.22-.05,0-.12,0-.07-.05s.1,0,.1,0a1.37,1.37,0,0,1,.35-.13s0,0,0,0,0,.09.11.08,0-.08,0-.09c.12,0,.19.06.08.26.14-.2.59-.08.3-.15s.23-.23.23.06c-.09-.49,1.27-.18,1.05-.13.23.25.17,0,.23,0-.22-.27.39.12.46-.1-.15.32.26,0,.48.26,0-.1.46,0,0,0,0,0,0,0,0,0a.48.48,0,0,1,.08.16s.15,0,.2,0,1.68.64,1.62.93c.29,0-.15.38.28.16-.05.06,0,.2.09.13.16.17-.08.13.06.21s.31,0,.18.2c-.31.33.28-.07.19.2.23-.32,0,.25.27.11-.08.37.21.5.34.72a4.23,4.23,0,0,1,.44,1.25s0-.06,0,0,0,.1,0,0A10.66,10.66,0,0,1,49.84,28c.08,0,.11.18,0,.12a5.86,5.86,0,0,1,0,1c-.31.14.08.77-.09.82,0,0-.07.2-.14.16.36.09-.23.42-.3.67.38-.52-.7,2.28-.79,1.47a1.21,1.21,0,0,1-.61.85c-.31.38-1,1-.65.5-.76.69-.42-.07-.87.64C46.25,34.15,46.07,34.34,46,34.46Zm-1.11.3s-.07,0-.09,0S44.88,34.66,44.85,34.76Zm-.8-.28s0,0,0,0S44.12,34.48,44.05,34.48Zm5-2.41h.09C49.14,32.14,49.1,32.14,49.08,32.07Zm0,.17a.61.61,0,0,1-.07.1C49,32.26,49,32.15,49.06,32.24Zm-.16.23-.08.1S48.85,32.32,48.9,32.47Zm-.43.4c.14-.06.24-.14.06,0C48.53,32.89,48.48,32.86,48.47,32.87Zm.05,0,0,0S48.52,32.92,48.52,32.91Zm-.06-.23c.06,0,0,0,0,.06A0,0,0,0,1,48.46,32.68Zm0-.06s.11,0,.08,0S48.53,32.64,48.51,32.62Zm-.68.68h.06S47.78,33.35,47.83,33.3Zm0,.17s0,.05-.06,0S47.8,33.43,47.82,33.47Zm-.22.3s-.07.06-.06,0Zm-.28.2-.16.09C47.21,34,47.27,34,47.32,34Zm-.38.22-.24.12s0,0,0-.06S46.87,34.2,46.94,34.19Zm-.38.19,0,0C46.69,34.2,46.69,34.37,46.56,34.38Zm.17-.26s0,0-.06,0S46.8,34.09,46.73,34.12Zm2.8,7.37c-.38.13-.3.08.28-.18C49.89,41.3,49.7,41.4,49.53,41.49Zm2.22-1.33c-1.32.68-3.34,1.41-4.59,2,0,0,0-.06-.48.1a55.86,55.86,0,0,0,5.53-2.35A2.66,2.66,0,0,1,51.75,40.16Zm1.5.57c.1-.06.43-.24.08,0S52.8,41.06,53.25,40.73Zm-4.79,5.36a4.12,4.12,0,0,0-.27-.37A1.08,1.08,0,0,1,48.46,46.09Zm.11.37c-1.1-1.38,0-.07.24.22C48.8,46.69,48.79,46.75,48.57,46.46Zm-.06-2.76c.5-.22,1.32-.63,1.51-.74A7.59,7.59,0,0,1,48.51,43.7Zm.92,3.69c-.13-.17-.31-.42,0,0S49.69,47.68,49.43,47.39Zm1.78-5.24c-.44.26-.37.13,0-.07C51.38,42,51.66,41.88,51.21,42.15Zm.79-.48c.07,0,.08,0,.08,0C52.45,41.57,51.3,42,52,41.67Zm3.25,6.74c-.55.25-1.78.32-.43,0,1-.19-.16.07-.16.1S56,48.19,55.25,48.41Zm-.85,0a17.11,17.11,0,0,1-2,.26,27.09,27.09,0,0,0,3.09-.55C55.11,48.23,54.82,48.3,54.4,48.4ZM53,41.19a18.26,18.26,0,0,0,2.15-1.91,1.83,1.83,0,0,0,.35-.27A18.18,18.18,0,0,1,53,41.19Zm15.19-6.47a.79.79,0,0,1,0,.31C68.13,34.49,68.14,34.14,68.21,34.72Zm0,1.56a2,2,0,0,1,0,.25l0-.34A.28.28,0,0,1,68.16,36.28ZM68,33.47c0,.77-.09-.27-.07-.31S67.94,33.12,68,33.47Zm-.6-3.06,0,.16C67.39,30.52,67.35,30.32,67.38,30.41Zm-2.8-11.55c0,.21.08.53-.1,0S64.43,18.42,64.58,18.86Zm-3.47-8.1a1.13,1.13,0,0,0,.07.2c0-.1-.09-.2-.14-.3ZM55.87,8l0,0S55.9,8.05,55.87,8Zm-.54-4.68c.34.21.25.17-.32-.11C55,3.19,55.14,3.27,55.33,3.35Zm-1.5-.6c.17.1.47.3,0,.06S53.43,2.57,53.83,2.75ZM52,2.16c.19.08.49.26,0,.06S51.58,2,52,2.16Zm-6.66.5c.07,0-.13,0-.32-.06C44.64,2.44,44.74,2.46,45.32,2.66ZM48.71,4a1.65,1.65,0,0,0-.32-.23C49.38,4,49.77,4.11,48.71,4ZM51,5c-.41-.19-.85-.43-1.15-.59.51.24,1,.47,1.45.7ZM42.41.35a28.11,28.11,0,0,1,6.15.78,8.22,8.22,0,0,0,1,.25c-.13.06,1.64.6,2.27.87A27.33,27.33,0,0,0,42.41.35Zm9.5,5.16s0,0-.1-.1l.23.13A.19.19,0,0,0,51.91,5.51Zm0-3.26a25.84,25.84,0,0,1,3.67,1.69A31.77,31.77,0,0,0,51.87,2.25Zm2.73,5.2-.24-.11C54.43,7.28,54.5,7.4,54.6,7.45ZM52.74,6.19a1.45,1.45,0,0,0-.25-.09C52.16,5.92,52.37,6,52.74,6.19Zm.46.43s-.2-.13-.15-.07c-1.29-.69-.11-.08.24.06C53.19,6.59,53.13,6.59,53.2,6.62Zm.08,32.74c-.31.17-.61.32-.79.4.35-.17.7-.36,1.06-.56ZM52.36,6.5A7.2,7.2,0,0,1,53.58,7Zm1,.14c0-.11,0,0,.09,0ZM53,6.09l-.52-.32c.45.25.88.5,1.25.73Zm1.26,32.73-.15.08.89-.54A7.7,7.7,0,0,1,54.23,38.82Zm1.35-.77-.27.15C55.76,37.89,56,37.76,55.58,38.05Zm.23-.23.56-.37C56.26,37.62,56.09,37.62,55.81,37.82Zm.19.65a2.81,2.81,0,0,1,.27-.33l.1-.11Zm.13-.38c-.16.17.18-.44.33-.46A3.55,3.55,0,0,1,56.13,38.09Zm.54-.55a.46.46,0,0,1,.2-.19C56.77,37.51,56.18,38.3,56.67,37.54ZM57,37c.23-.2,0,.15-.11.21S57,37.06,57,37Zm2.85,9.59c-4.8,1.91-3,1.17.22-.15ZM61,46.08l-.38.12.6-.34C61.13,46,61,46.07,61,46.08Zm.66-.44-.18.08.36-.21Zm.6-32.31c0,.13.09.23.12.32-.1-.25-.21-.49-.31-.73C62.14,13.1,62.21,13.26,62.25,13.33Zm-.17,32.13c.08-.25.49-.36.69-.55C62.48,45.13,62.33,45.27,62.08,45.46Zm1.14-29.81s0,.15.06.27L63,15.3Zm-.11,29,.35-.24C63.3,44.58,63.16,44.69,63.11,44.68Zm.25-28.57c.08.14.2.3.23.38s0,.19,0,.3C63.53,16.56,63.44,16.33,63.36,16.11Zm.51,1.29c.08,0,.19.54.33,1-.14-.41-.28-.81-.43-1.2C63.81,17.29,63.84,17.36,63.87,17.4Zm-.08,26.86c.16-.28.69-.58.94-.84A9.84,9.84,0,0,1,63.79,44.26Zm1.63-22.07c-.06-.18-.11-.37-.16-.55C65.3,21.83,65.58,22.32,65.42,22.19ZM66,24.11c-.13-.49-.26-1-.4-1.43A11,11,0,0,1,66,24.11Zm.33,18.13c-.41.41-.68.61-.26.16S66.28,42.21,66.29,42.24Zm.43-.47c-.41.42,0-.09.18-.27C66.91,41.51,67,41.52,66.72,41.77Zm1-1.57c-.07.16-.76.95-.35.59a13.56,13.56,0,0,1-1,1A17.74,17.74,0,0,0,67.85,40Zm.4-.58c.45-.74.14-1,.16-1.92,0,.6.27,1.19,0,1.69A2,2,0,0,1,68.12,39.62Z"/><path class="cls-1" d="M43.44.07l-.26,0c-.32,0-.4,0-.3,0Z"/><path class="cls-1" d="M67.35,28.82l.15.64Z"/><path class="cls-1" d="M65.89,23.05h0l.09.35C66,23.28,65.92,23.16,65.89,23.05Z"/><path class="cls-1" d="M28.67,29.09s0-.09,0-.13h0C28.52,28.9,28.59,29.06,28.67,29.09Z"/><path class="cls-1" d="M62.32,12.7c-.12-.27-.14-.23-.13-.1s.2.43.29.65A1.93,1.93,0,0,0,62.32,12.7Z"/><path class="cls-1" d="M33,2.84c-.27,0-.12,0,.14.06l.74,0A3.6,3.6,0,0,0,33,2.84Z"/><path class="cls-1" d="M24,1.87l-.51.18h0Z"/><path class="cls-1" d="M1.52,26.65a3.73,3.73,0,0,0-.06.42l.06-.42Z"/><path class="cls-1" d="M41.62.86c-.1.52.49.91,1.4,1.23l-.48-.39C42,1.41,41.69,1.13,41.62.86Z"/><path class="cls-1" d="M50.85,1.66H50.8l.1,0Z"/><path class="cls-1" d="M17.64,31.06s0,0,0,.05.05,0,.05,0Z"/><path class="cls-1" d="M18,31.9,18,32s0,0,0-.05Z"/><path class="cls-1" d="M21.45,23.43s0,0,0,0l0,0S21.46,23.45,21.45,23.43Z"/><path class="cls-1" d="M43.47,2.21a.86.86,0,0,0,.35.07l-.1,0C43.51,2.2,43,2.09,43.47,2.21Z"/><polygon class="cls-1" points="24.7 23.5 24.69 23.5 24.69 23.5 24.7 23.5"/><path class="cls-1" d="M28.45,27.6v0s0,0,0,0Z"/><path class="cls-1" d="M16.58,42.51c.35.21.31.13,0,0S16.2,42.26,16.58,42.51Z"/><path class="cls-1" d="M54.06,39.32c.09,0,1-.53.28-.15Z"/><path class="cls-1" d="M51.25,40.77c-.44.2-.29.21,0,.08S51.65,40.59,51.25,40.77Z"/><path class="cls-1" d="M15.83,6.46l-.05,0L16,6.41Z"/><path class="cls-1" d="M48.91,4.4c.2-.15-.17-.19-.22-.21C48.48,4.14,48.26,4.11,48.91,4.4Z"/><path class="cls-1" d="M49.66,4.88c.05,0,.23.16.54.31C50,4.91,47.12,3.75,49.66,4.88Z"/><path class="cls-1" d="M47.86,4c.14.07.68.36,1,.47C48.9,4.4,46.87,3.42,47.86,4Z"/><path class="cls-1" d="M46.61,44.37l-.1-.11S46.51,44.34,46.61,44.37Z"/><path class="cls-1" d="M63.29,45.2c.35-.24.41-.37,0-.07S63,45.39,63.29,45.2Z"/><path class="cls-1" d="M12.38,8l.28-.16C12.08,8.05,11.94,8.26,12.38,8Z"/><path class="cls-1" d="M16,6c.56-.32.77-.53.1-.18C15.58,6.05,15.16,6.44,16,6Z"/><path class="cls-1" d="M16.05,5.83c.54-.3-.28.13,0,0Z"/><path class="cls-1" d="M46.84,3.67c.35.17.56.25.59.2C47.28,3.81,47,3.71,46.84,3.67Z"/><path class="cls-1" d="M14.06,7.05c.27-.12.46-.28.1-.11C13.63,7.17,13.31,7.39,14.06,7.05Z"/></g></g></svg>