<svg xmlns="http://www.w3.org/2000/svg" viewBox="0 0 275.79 214.26"><defs><style>.cls-1{fill:#fff;}</style></defs><g id="Layer_2" data-name="Layer 2"><g id="content"><path class="cls-1" d="M204.14,31.68l2.33,1.45-.36,4,3.1,3.06,1.66,5.38.84,1-.2,2.14-1.83-.17-.34,3.66,2.75,3.64-2.42,2.85-.33,3.66,1,2.56L208,73.27l.95,3.17-3.31,2.46-.45,4.88-1.08,1.75L204,87.36l-1.8,2.91-2.06,2.28-1.44,5.71-3.31,2.47-1.47,2.63-11.8,11.23-3.66-.34-6.13,3.13-4.14,1.47-.27,3.05L165,123.48l-1.52-.14-2.89,1.28-.28,3-3.66-.34-1.56,3.55-3,2.5-3.58,5.52-.14,1.52L147,141.53l-4.17,11.93-2.55,1-2.11,2.88-13.43-1.23-1.78-.78-4.88-.45-9.21-3.61-1.52-.14-3.61-4.33,1.71-18.61,2.17-3.5.16-1.83,2.64-5.3.14-1.52,6.08-9.29L124,101l2.13-3.19,7.8-4.52,4.08-.86,24.53-12.52,1.09-1.75,5-4.15,3.59-15.68L170.22,56l.23-2.44,2.66-2.22L172,46.89l-5-6.3.16-1.83-4.35-2.86-1.89.44-3.05-.28-2.49-3-8.24-.75-2,2,.28-3.05-5.8-.53-3.55,1.82L128.24,34l-.45,4.88L125,38.59,123,37.48,118.27,42l-1.08,1.75-.92-.09-2.38,2.55-1.4,5.11-3.13,4-2,4.44-5.41,2-18-5-3.72-3.11.09-.92L76.9,50.18l.67-7.32,4.87-12.79,2.47-3.46,1.36-4.8L91,17.62l7.22-8.26,5.47-2.58,2.52-.69,4-3.63L122.05.78,123.66,0l16.17,1.48,2.66,7.94-.34,3.66,4.88.45-.36,4-2.89,1.27,2.41,3.91-1,.83-1.83-.16-.28,3,1.84.17L146,24.82l4.69-.8-2.5-3,.09-.92,1.52.14L151.33,17l.45-4.88,4.33-7,6.22-.66,5.93,2.39,1.83.16,5.21,3.56,12.18,4.81,3.33,4,6.46,3.37,2.1,3.88,2.75.25Zm-59.92,153.6-.86,9.46-1.26,3.58-.72,7.93-3.5,4.6-3.47.92-3,2.49L117.68,213l-4.8-1.36-3.66-.34-8-3.5-2.8-3L98.6,203,96,201.17l2-21.36,5.25-6.9,5.72-1.94,5.79.53,10-1.55,13.84,3.42,5,6ZM142,14.91l-.25,2.75.92.08,1.77-2.61Zm5.77,11-.09.92,1.92-.75Zm1.49,3.83-.08.92,1.91-.75-.83-1Z"/><path class="cls-1" d="M216.44,159.79l-1.72,5.79-1.22,2.08-1.44,4.86L209.3,175l-2.27.14-2.19,1.18-8.41-2.49-2.82-1.45-2.25-.66-4.55-3.18-1.37-2.23.33-1.12-1.4-1.44,3.87-13.09,4.13-3.65,3.81-.5,3.55,1.05,6.43.27,8.21,3.86,2.37,4.36Zm56.47-88.42,1.27,1.19L273.46,75,275,77.28l.37,3.57.4.72-.39,1.31-1.12-.33-.67,2.24,1.26,2.61L273,88.88l-.66,2.25.3,1.72-2.48,5,.19,2.09L268,101l-.88,3-.89,1-.34,1.12-1.48,1.6-1.57,1.16-1.61,3.39-2.37,1.13-1.24,1.46-8.76,5.54-2.25-.66-4.21,1.19-2.77.4-.55,1.87-2,.62-.94-.27-2,.43-.55,1.87-2.25-.66-1.41,2-2.18,1.19-2.92,3-.28.93-1,.53-4.08,6.92-1.72.31-1.67,1.53-8.23-2.43-1-.71-3-.88-5.3-3.4-.93-.28L196,130.74l3.37-11.4,1.79-1.91.33-1.13,2.3-3,.28-.94,4.95-5,5.28-2.71,1.73-1.72,5.43-1.86,2.65,0,16.86-4.77.9-1,3.63-2L249.65,84l-.92-1.69.44-1.5,1.94-1-.16-2.9-2.32-4.54.34-1.13-2.37-2.32-1.23,0-1.87-.55-1.18-2.19-5-1.49-1.51,1,.55-1.87-3.55-1-2.44.7-5.07-.08-.88,3-1.68-.49-1.15-1L218,67.12l-.89,1-.56-.17-1.81,1.3-1.5,3-2.46,2.12-1.77,2.53-3.62.55L194.83,72l-1.94-2.4.17-.56-1.86-2,1.33-4.49,4.62-7.37,2-1.86,1.44-2.83,3.45-2,5.53-4.27,3.73-.93,1.67-.11,3-1.77,7.6.42,1.1-.28,9.91,2.93.68,5.28-.67,2.25,3,.88-.72,2.43-2,.44,1,2.74-.72.4L236,58.61l-.55,1.87,1.12.34.9-1,3,.08-1.18-2.18.16-.56.94.28,1.35-1.84.89-3,3.57-3.82,4,.36,3.41,2.23,1.12.33,2.81,2.86,7,4.52,1.57,2.9,3.62,2.9.83,2.69,1.68.5ZM236.2,53.18l-.5,1.68.56.17,1.44-1.41Zm2.23,7.57-.16.56,1.28-.22Zm.46,2.58-.17.56,1.29-.23-.39-.73Z"/><path class="cls-1" d="M73.46,56.09l1.71.36.63,2.46,2.51,1.16,2.15,2.87.71.42.34,1.33L80.38,65,81,67.24l2.42,1.6-.84,2.23.59,2.26,1.14,1.32.42,5.53,1.24,1.69-1.45,2.19.77,3L85,88.36l.29,1.13-.46,2.13-.75,1.8.36,3.74L83,99.34l-.32,1.9L78,110.49l-2.26.58-3,3.19L70.55,116l.48,1.88-1.41,1.57-.94.25-1.46,1.38.49,1.89-2.27.58L65.27,126,64,128.18l-1,4.07.24.94-.56.95.05,8-1.31,1.15-.65,2.18-8.31,2.13-1.23-.08-3,.77L42,148.14l-1,.24-3.08-1.82L35,135l.55-2.56-.3-1.13.45-3.74-.24-1,1.66-6.87,3.13-5,.6-2.37L44.53,108l2.26-1.39,12-12.76.28-1.27L61.19,89,60,78.88l-1.66-1-.39-1.51,1.12-1.9-1.62-2.4-4.32-2.71-.29-1.14-3.23-.78-1,.67-1.89.49-2.14-1.27-5.09,1.31-.8,1.62-.48-1.89-3.59.92-1.74,1.86-4.38,2.53.78,3-1.7.44-1.47-.23L24.2,80.63l-.27,1.27-.57.15-.89,2,.26,3.36-1,3.08L21.5,93.6l-2.83,2.34-11.86.83L3.92,95.7l-.15-.56-2.6-.74L0,89.87l.18-8.71.74-2.6L.71,75.39l1.91-3.51,2.56-6.5,2.73-2.71,1.36-1,1.64-3,6.74-3.54.8-.81,10-2.57,3.29,4.18.58,2.27,3-.77L36,59.88l-1.46,1.38,2.29,1.83-.42.71-1.14.29L35.74,66l1.13-.29.28-1.28,2.64-1.48-2.14-1.26-.15-.57,1-.24.22-2.28-.78-3L39,50.45l3.59-1.73,4.06.17,1.14-.3,3.88,1,8.33.27,2.85,1.69,4.59.63,2.09,1.88,1.7-.44ZM32.62,59.33l.44,1.7.56-.14L34.13,59Zm5.81,5.36.14.56,1-.85Zm1.71,2,.15.57,1-.86L40.56,66ZM70.42,161l1.5,5.85,0,2.41,1.26,4.91-1.11,3.51-1.88,1.29-1.27,2.14-8.5,2.18-3.16.21L55,184l-5.54-.39-2.32-1.21-.29-1.13-1.94-.51-3.4-13.22,1.67-5.26,3-2.39,3.59-.92L55.44,156l9-.91,4.27,2.52Z"/></g></g></svg>