<svg xmlns="http://www.w3.org/2000/svg" viewBox="0 0 163.94 105"><defs><style>.cls-1{fill:#777;}</style></defs><g id="Layer_2" data-name="Layer 2"><g id="content"><path class="cls-1" d="M1.48,3.81c-1.83,2.45-.23,4.82-.23,6.47l0,6c0,3-.62,3-.62,6s-.35,3-.35,6,.82,3,.82,6,.31,3,.31,6-.84,3-.84,6-.45,3-.45,6-.12,3-.12,6,.27,3,.27,6,.35,3,.35,6-.15,3-.15,6-.34,3-.34,6,.6,3,.6,6-.75,3-.75,6a7.18,7.18,0,0,0,.57,3A5.21,5.21,0,0,1,1,98.59a20.2,20.2,0,0,1,.18,2.79A17.73,17.73,0,0,1,1,103.67a24.56,24.56,0,0,1,3,.74,12.82,12.82,0,0,0,1.9.35l1.12.1a6.82,6.82,0,0,0,.82,0c3,0,3-.15,6-.15s3-.37,6-.37,3-.49,6-.49,3-.28,6-.28,3,1.33,6,1.33,3-.21,6-.21,3-1.28,6-1.28,3,.88,6,.88,3-.54,6-.54,3,.5,6,.5,3-.76,6-.76,3,.46,6,.46,3,1,6,1,3-1.1,6-1.1,3,.52,6,.52,3-.89,6-.89,3,.57,6,.57,3,.9,6,.9,3-1.56,6-1.56,3,.41,6,.41,3-.41,6-.41,3,1.08,6,1.08,3-1.28,6-1.28,3,.55,6,.55a24.7,24.7,0,0,1,3,.15l1.21.1.79,0,1.48,0c2.55,0,3.79-.08,4.93-.16-.08-1.4-.17-2.68-.17-5.18v-.86l0-.49c0-.29,0-.54,0-.78-.05-.47-.1-.84-.16-1.21a16.29,16.29,0,0,1-.24-3c0-3,.21-3,.21-6s.13-3,.13-6,.76-3,.76-6-.2-3-.2-6,.62-3,.62-6,.17-3,.17-6-1.6-3-1.6-6,1.57-3,1.57-6-.34-3-.34-6-.68-3-.68-6-.63-3-.63-6,1.6-3,1.6-6-1.23-3-1.23-6,.13-3,.13-6q0-.48,0-.87l.1-.81c.07-.73.18-1.36.29-2a32.68,32.68,0,0,0,.59-4.72c-.36,0-1,0-1.78,0h-3.47l-2.05,0c-.74,0-1.49,0-3,0-3,0-3,1.4-6,1.4h-6l-6,0c-3,0-3-.68-6-.68s-3,.28-6,.28-3-.67-6-.67-3-.33-6-.33-3,.75-6,.75-3-.49-6-.49-3,.77-6,.77-3,.26-6,.26-3-.43-6-.43-3,.43-6,.43-3-.41-6-.41-3-.68-6-.68-3,1-6,1-3-.64-6-.64-3,.92-6,.92-3-.31-6-.31-3-.44-6-.44-3,.38-6,.38h-6c-3,0-3-1.13-6-1.13C13.29.2,10.71,1.48,8.13,1,7.19.78,3.79-1.69,3.31,2.07a15.54,15.54,0,0,0-.08,2.18A3.3,3.3,0,0,0,3.3,5c.07.21.17.24.27.24,4.1.33,8.23,1.43,12.32,1.43,3,0,3-.3,6-.3s3-.18,6-.18,3,.23,6,.23h6c3,0,3,.21,6,.21s3-.8,6-.8,3-.19,6-.19,3,1.39,6,1.39,3-.62,6-.62,3,.14,6,.14,3,.46,6,.46,3-1.29,6-1.29,3,.71,6,.71l6-.06c3,0,3-.45,6-.45s3,1,6,1,3,.29,6,.29,3-1.15,6-1.15,3,.69,6,.69,3,.28,6,.28,3-1.07,6-1.07,3,1,6,1,3-.54,6-.54a9.54,9.54,0,0,0,3-.42l.26-.07.11-.08a1.46,1.46,0,0,1,.28-.13,2.4,2.4,0,0,1,.84-.14,2.11,2.11,0,0,1,.37,0,8.23,8.23,0,0,1-.11,1.12l-.05.47c0,.38,0,.92,0,1.55,0,3-.7,3-.7,6s-.47,3-.47,6,.25,3,.25,6,.42,3,.42,6-.9,3-.9,6,1.17,3,1.17,6l0,6c0,3-.61,3-.61,6s-.58,3-.58,6,.27,3,.27,6,.09,3,.09,6l0,6c0,3,.51,3,.51,6s-.22,3-.22,6c0,1.5.05,2.25.11,3l.07,1.22c0,.34,0,.74,0,1.28a3.36,3.36,0,0,0,.42,1.14c-.05.22-.27.45-1,.45l-.26,0a3.71,3.71,0,0,1-.45-.06,4.05,4.05,0,0,1-.78-.19,6.94,6.94,0,0,1-1.22-.61,5.23,5.23,0,0,0-3-.87c-3,0-3,.51-6,.51s-3,.74-6,.74-3-.79-6-.79-3,1.21-6,1.21-3-1.65-6-1.65-3,1.33-6,1.33-3-.68-6-.68-3,.89-6,.89-3-1.53-6-1.53-3,1.21-6,1.21-3,.2-6,.2-3-1.05-6-1.05-3-.32-6-.32-3,.93-6,.93-3-.78-6-.78-3,.73-6,.73-3-.13-6-.13-3-.77-6-.77-3,1-6,1-3-.44-6-.44-3,.82-6,.82-3-1.19-6-1.19-3,1.35-6,1.35-3-.17-6-.17H6.64c-.17,0-.31,0-.46.06a8.7,8.7,0,0,1-1,.14,3.15,3.15,0,0,1,0-.63c0-.78.29-.91.57-1.85a7.18,7.18,0,0,0,.57-3c0-3,0-3,0-6s-.79-3-.79-6-.14-3-.14-6,1.35-3,1.35-6-1.56-3-1.56-6,.41-3,.41-6,1.22-3,1.22-6-.92-3-.92-6,.66-3,.66-6-.62-3-.62-6,.18-3,.18-6,.16-3,.16-6-1.11-3-1.11-6,.44-3,.44-6c0-1.91,1.19-4.08-.76-5.92l-.24-.21a2.05,2.05,0,0,0-1.09-.48C2.83,3.56,1.65,3.58,1.48,3.81Z"/></g></g></svg>