<svg xmlns="http://www.w3.org/2000/svg" viewBox="0 0 125.19 15.57"><defs><style>.cls-1{fill:#010101;}</style></defs><g id="Layer_2" data-name="Layer 2"><g id="menu"><rect x="3.93" y="5.92" width="118.98" height="2.79" transform="translate(-0.3 3.45) rotate(-3.11)"/><path class="cls-1" d="M107.2,3.77c-.06.21-.33,1.24.11,1.13C107.58,4.86,107.6,3.72,107.2,3.77Z"/><path class="cls-1" d="M92.63,5.43c-.24,0,.53.89.66.66S92.78,5.43,92.63,5.43Z"/><path class="cls-1" d="M81.22,7c.36,0,.43-.24.39-.63l-.22,0A1,1,0,0,0,81.22,7Z"/><path class="cls-1" d="M121.54,7.9c-.23,0,.25.25,0,0Z"/><path class="cls-1" d="M124.72,5.18c-.36-.44-1.12.13-1.71-.24.25.16.62-.49.47-.7-.44-.57-.62,0-1,0,.12-.64-.47-.24-.81-.27-.53,0,.48-.86-.37-.63s-1.28.6-2.08.11a.53.53,0,0,1-.3-.59l4,3.57c-.34-.07-.54-.49,0-.45l-3.52-3.15V3c-.11.55,1.38-.07,1.36.09,0,0-.32.59.16.31a.91.91,0,0,0,.48-.62L122.82,4a1,1,0,0,0-.3,0c-.32,0-.85.42-1.14.12s-.09-.68-.41-.64-.3.79-.59.7c-.48-.15-.32-.54-.9-.07A.9.9,0,0,1,118.42,4c-.31-.22-.31-.84-.63-.8l.09.85c-.23,0-.91-1.62-1-.8,0,.45-.31.39-.62.45s-.61.56-.86.1c-.1-.2,0-.63-.21-.67s-.34.55-.42.8c-.16.45-1.4-1-.9.12,0,.05-.78-.13-.73.34-.3,0-1-.9-.93-.16a.55.55,0,0,1-.26-.35c0,.6-.5,1.17-1,.7-.2-.2-.08-1-.43-1s-.15.51-.17.73a.56.56,0,0,1-1.11.1c-.09-.29-.22.05-.28-.53L108.93,3c-.61.08-.3,1.16-.43,1.63,0,.16-.15.32-.29.18-.39,0,0-.59,0-.78a.85.85,0,0,0-1-.57c-.15,0-.3.39-.44.31s-.23-.42-.39-.51a7.48,7.48,0,0,1-.08,1.91c0-.14-.21-.35-.32-.24-.4.39-.22.64-.87.43-.28-.09-1-.27-1.08-.14.3-.88-.87.09-.52-1.19.12-.43.36-.39.3-.91a4.91,4.91,0,0,0-.09-.85,6.57,6.57,0,0,1-.56,1.58,2.07,2.07,0,0,0-.32.91c0,.47-.78.07-.59.79a.41.41,0,0,0-.33-.45c-.28,0-.17.23-.34.41s-.38-1-.21-1.06c-.16,0-.34.55-.5.66a1.08,1.08,0,0,1-1.08.09c-.44-.2.08-1.06.25-1.29-.26,0-.44.08-.41.46-.1-1-1.23-1.48-.68,0,.83.83-.51,2.21-1,1.28,1,.13,0-1.14.55-1.22-.06-.75-.62-.71-.69,0,0,.15-.49-.13-.61-.07s.07.86,0,1.06c-.15.53-.5.53-.87.31s.54-.54.52-.73S96,5,95.93,5c-.26.12,0,.59-.16.67s-.65-.27-.59.25c-.39-.3-.47-1-.7-.19-.16.56-.32.43-.68.08-1-1-1.71-1.33-2.57.06.36-.6-.89-.72-.84-.17-.29,1.06-1.11-.14-.25-.25-.09-.47-.42-1-.73-.48-.24,0-.18.4-.16.6.21,0,.7.39.39.62-.51.4-.78-.28-1.18-.23a1.17,1.17,0,0,1-1.26-.4c-.12.43-.46.44-.75.23s-.28-.33-.45-.35-.2.26-.4.43c-.46.37-.33-.55-.53-.59-.39-.07-.63-.1-.69-.67A4.54,4.54,0,0,1,84.3,6c-.06-.58-.16-1.93-.79-1-.21.3-.42.88-.72,1.06s-.24-1.1-.54,0c0,.19-.93-.78-1.1-.6a3.92,3.92,0,0,0-.85,1.43,9.2,9.2,0,0,0-.47-1.22c-.06,0-.08.8-.24.64s-.1-.88-.44-1.17-.89.13-1.13.32c-.62.5,1-.13.84.33a3.26,3.26,0,0,1-.75,1.23c-.35.35-.52-.07-.74.08s-.39.46-.75.36S76,7.07,75.71,7a.92.92,0,0,0-.59,0c-.09,0-.21.32-.24.33s0-.43-.07-.88l-.1-1a4.54,4.54,0,0,0-.35-1.26c.08.77.49,3.08-.36,3.29a2.32,2.32,0,0,1-2.06-.39c-.46-.45-.3.33-.57.26s-.53-1-.86-.39c-.12.21-.48,1.39-.58.4-.39-.38-.44.17-.83.1a.24.24,0,0,1-.1-.26.72.72,0,0,0-.59.27c-.22.22-.4-.32-.72.19.06.54-.68-.12-.84-.14-.48-.05-.8.3-1.27.37s-1.52-.2-1.6-1.06c.06.66-.07,1.29-.7,1.22a4,4,0,0,1-1-.4c-.39-.15-.3.55-.47.62S61.75,7.16,61.66,7c-.19-.34-.38,1.05-.47,1.06s-.1-.84-.34-.81-.27.65-.52.75c-.51.2-1.29.35-1.62-.33-.57-1.18-.28-.87-.73.07-.33.68-1-.77-1.16-.46,0,0,.64,2.13-.27,1-.37-.46-.31-.9-.62-.1-.23.6-1.08-1.14-1.17-1.23.1.1-.48,1.48-1,1.35.07,0,.11-.48.09-.58-.54.07-.63.94-1.29,1.06-.16,0-.41,0-.44-.25-.06-.56-.47,0-.58-.3,0-.13.19-.57-.11-.65s-.49.53-.67.65c-.46.31-.29-.59-.35-.91-.47.07-.29.47-.53.85-.14.22-.35-.34-.62.07-.13.18-.74.57-.82.11,0-.09-.28-1.37-.4-1.17s.15.54.15.72c0,.37-.27.33-.49.36s-.06.22-.29.25-.54-.14-.85-.1-2.52.75-2.41-.25c-.16,0-.45,0-.42.34-.18.09-.44,0-.6.17-.29.37-1,.12-1.53.07a4.5,4.5,0,0,0-1-.1l-.45.06c0,.14,0,.22-.14.23-.33,0-1.21-.43-.92.48-.45.06-.15-.26-.34-.41a1.23,1.23,0,0,0-.85-.27c-.24.06-.24.77-.53.48S37,8.4,36.67,8.09c-.58-.6-.25.85-.58.9-.1,0-1.57.2-1.37-.11a4.7,4.7,0,0,1-1,.12c-.51,0-.25-1.09-.86-1,.07.35.64.72.16.83a2.77,2.77,0,0,1-1,.11c-.28,0-.1-.24-.44-.19s-1.15.56-1.34-.17c-.08-.34-.27-.58-.33-.94,0,0,.1-.58,0-.5s-.27.32-.34.08c0-.09.17-.35-.11-.31-.05,0-.05.21,0,.42l.06.42c.05.42.41,1,.28,1.43-.09.26.06.36,0,.58s-.53-.3-.57-.31c-.31-.1-.08.25-.23.3s-.87-.87-.78-1c-.19.3-.45,2-.6.54a1.77,1.77,0,0,0-1.23-.37c-.23.08-1.18,1-1.26.35,0-.26.12-.38-.06-.49-.55.07-.19.31-.4.64-.08.13-.71-1-.75-1.06.4.74-1.21,1.92-1.72,1.64-.15-.08-.2-.27-.35-.38s-.55.24-.78.26-.32-.16-.49-.34-.59-.08-.78-.06A4.16,4.16,0,0,1,18,9.57c-.24-.08-.26-.37-.49-.38s-.52.43-.85.55c-.57.2-1.42-.42-1.87-.07-.22.17-.92,1.16-1,.31,0,.29-.13.58-.39.61,0-.71-.64-.64-1-1.1a.58.58,0,0,1,.1.47c-.16.32-.55-.4-.65-.47a.58.58,0,0,0-.71.06c-.23.18-.18.89-.27.93s-.87-.83-.59.18c-.11-.83-1-.56-1.46-.66s-.27-.63-.53-.89A11.62,11.62,0,0,1,8,10.34c.11-.09-.89-1.17-.94-.54,0-.15.21,1.54-.07,1a3.16,3.16,0,0,1-.33-1.3c-.1.36-.27,1.18-.68,1.13-.25,0-.49-.54-.62-.52s-.29.71-.59.79c.1-.17-.31-.08-.73,0L5.7,9.05a5,5,0,0,1,.2.81c-.24.75-1.36.22-1.87.28.12,0,.27.32.31.35.21.22.39.16.66.14.46,0,.33.73.24.91a.88.88,0,0,1-.43.35l-.76-.67.07.11c.22.34.25-.47.33-.57.37-.48.62.09.52-.9.06.63.61.21.88.43.07.05.18.41.05.47-.3.13.06.57-.19.61.08,0,.65-.12.66-.06s-.63.55-.41.77.63-.71.67-.84c.17-.52-.08-.81.4-1.19.74-.1,1.36.77,2.05.4.22-.12.66-.74.91-.65s0,.71.12.89c.28.36.34-.39.33-.53.32-1.16.34.39.52.36s.16-.59.12-.73c.46.45,1.09-.2,1.6-.18.36,0,1.54.67,1.53-.23.17.61,1.37-.25,1.71-.24s.84.07,1,.44c.24,0,.48.21.68-.09.16,0,.66-.18.7.19.38.08.71-.2,1.1,0,0,0,.36.35.32.35.27,0,.33-.3.64-.37.5-.09.95-.56,1.47-.59.35,0-.21.83-.19,1s.55-.41.53-.39c.16-.22.29-.49.53-.59s.34.23.54.2c0-.39.85-.61.9-.12.22.38,0,1.12.35,1.5-.09-.1,0-.89.12-1s.29,0,.41-.15.09-.52.23-.72c.3-.41.81-.26,1.13.06.78.36.42-.49,1-.57-.21,0-.11,1,.41.95.25,0,1.81,0,1.76-.52.19-.31.91.09.95.44,0,0-.77,1-.26,1,.35,0,.45-1.37.53-1.65.28-1,.67.7.67.7s.19-.55.29-.66.44.28.52.36c.41.39.37-.22.56-.55.35-.63.3.12.37.36s1,.11.85-.5c.16.92,1.69.59,2.26.7.16,0,.6.27.71.17.26-.26.14-1.07.63-1.13.11.41-.55,2.07.2,2a4.79,4.79,0,0,1,.22-2c0,.1.16.69.32.67s.35-.75.52-.88.73.55,1.15.55.45-.48.88-.68a.73.73,0,0,1,.81.06c.16.16.23,1,.34,1,.32.06.79-.92,1.2-.58a7.5,7.5,0,0,1,.64,1.53c.17-.27,0-.68.36-1s1.24-.39,1.27-.74c.13-1.45.47,0,.54.71.29,0,.16-.19.18-.47s.51-.19.63-.21c.39-.08.61-.37,1-.42q.33-.24.42.15c.23.18.39-.13.54-.11s.05.83,0,.83c.59-.08.36-1.26,1.18-.87.32.15.56.42.32.82-.17.17-.49.78,0,.58s.53-.51.81-.78a2.57,2.57,0,0,1,1.26-.64c.24,0,2.61-.61,2.62-.69,0,.42-.12,1.22.27,1.61-.12-.12.34-1,.4-1.16.24-.45.34-.65.68-.42s.95-.27,1.25.07c.1.12,0,.59.24.56s.28-.73.41-.95c0,.06.14.53.25.55a.22.22,0,0,1,.15-.19c.17,0,.35.22.46.36a2.49,2.49,0,0,1,.46.79.88.88,0,0,1,.61-.68c.52-.18.57.14.75.62,0,.09.75-.72.78-1,.13-1.23.52-.47.28.38-.06.68-.22.88.31.81.12-.18,0-.82.18-1.07s.29.58.42.56,0-1,.38-1.05c.28-.23.65-.4.47.22s.41.4.58.14c.4-.64.07-.31.56.18-.24-.24.11-.59.46-.24a1.68,1.68,0,0,0,.66.19c.09,0,.07-.25.24-.3.39-.12.77.06,1-.38s.65.4.65.72c-.13-1.18,1.17-.32.94.06.49-.8,0-.73.61-.09-.23-.23.49-.62.57-.75s-.06-.35.25-.39c.26.12.71.34.76.75,0,.26.05.28.25.26s.14-.4.2-.64,1.2,1,.86-.08c.26,0,.29.32.25.62.14-.31.41-.46.7-.17.07.68.28.37.38,0s-.1-.85.55-.43a1,1,0,0,1,.48.9c-.1-1,.65-.43,1-1,.15-.52.93-.6,1.28-.57a.55.55,0,0,1,.48.22c.2.36.38,0,.68,0s.46.22.53.21c.4-.06,0-.72.15-.74s.34.51.48.57c.36.14.51-.1.81-.21.52-.18.19.89.54,1,.89.16.44-.57.72-1.14.15-.31,1.41-.35,1.65-.18s.46.55.76.06.37-.16.26.26c.32.36,1.11.51.8-.25-.16-.4,1.22-.32,1.41-.31.52,0,0,.83.18,1s1.05-.81,1.34-.76.27.35.42.66c.24.51.48-.81.36-.8.2,0,.3.82.59.78s-.16-1,.26-1c0,.34,0,.86.32.81s0-1,.28-1,.68.51,1,.62a2.16,2.16,0,0,0,1.15.12c.14,0,.47-.09.44-.37-.06-.6.42,0,.67-.09,0-.21.49.21.63.2.51,0,.83-.27,1,.36.06.21.45.08.5.59s.87.67.83.28c0-.06-1.08-1.07-.19-.66.17-.2.14-.57.36-.61.67-.14.44.18.43-.63,0-.43.38-.38.49-.07a11.66,11.66,0,0,1,.21,2.55c.94-.13-.24-2.63.55-2.64.31,0,2.19.59,2.33-.08,0,1,.84-.27,1.28-.22s1.58,1.22,1.88.8c.63-.87.75-.23.84.64.46.47.32-1.22.3-1.47.28.54.78,1.73,1.43,1.21.24-.2-.34-.47-.36-.71s.6.1.63-.24c0-.19-.3-.41.05-.49a.89.89,0,0,1,.74.2,1.15,1.15,0,0,1,.31.8c0,.34.41.83.35.23,0-.18-.5-1.64,0-1.5a3.19,3.19,0,0,1,.63.28c.53-.07.51.77.61,1.18.24.92.36-.4.6-.48s.7.21.64-.38c-.1-.9.35-.07.5.1s.71,0,.92-.16.26.12.42.1c.33,0,.5-.39.87-.28.17.06.83.48,1,.22s-.27-.36.11-.48c.17,0,1.09-.28,1.14.13s1.28-.24,1.59.07c.14.2.61.83.86.52s-.07-.75.29-1,1.65,1.2,1.53.08a1.88,1.88,0,0,1,.68.52c.34.39.18-.13.29-.24a12.78,12.78,0,0,1,.84,2.36c.07.29.47,2.41,0,2-.14,0-1.29-1.05-1.32-.87s.22.23.14.45c-.18,0-.3.23-.35.43s0,1.06.36,1c-1.16.16-2.34.07-3.51.13-.92.05-1.85.13-2.77.12-.19,0-.57-.2-.68-.17-.31.07-.94.84-1.22.3-.2-.37.32-1.35.18-1.49a6.29,6.29,0,0,1-.79.29,1.4,1.4,0,0,0-.12,1.05c-.06-.55-.39-.39-.54-.19s-.28,0-.38.37-.46.21-.64.09-.44-.49-.71-.34-.3.5-.58.34-.67-.78-1-.33c-.19.28-.12.43-.53.38A1.48,1.48,0,0,1,106,8.83c-.52-1-.28.45-.63.69a.6.6,0,0,1-.62,0c-.14-.07-.76-.81-.78-.8s-.37,1.74-.85.82a6.41,6.41,0,0,0-.78-.23c-.24,0-.83-.84-.89-.83.12,0-.12,1-.16,1a.55.55,0,0,1-.63.37c-.06-.59-1.21-.18-1.1.36.06-.86-2.25-.19-2.62-.15s-.56-.49-1.06-.43c-.14-.06-.4-.24-.51,0s-.17.84-.29.86-.08-.85-.37-.57c0,.05-.5.65-.57.42-.28-.9-.75.12-1.29,0-.3-.05-.21-.23-.39-.41s-.7.26-.91.28a1.36,1.36,0,0,1-1.09-.4c-.27-.24-.18,0-.35.18a3.12,3.12,0,0,1-2.81.37c-.67-.27-.21.45-.77.47-.39,0-.68-.34-.8-.76,0,.29,0,.59-.23.66s-.54-.21-.86-.16-.26-.63-.36-.85-.55.85-.79,1-1.24.41-1.36-.18c0,.66-1.1.57-1.43.54a1.66,1.66,0,0,1-1-.37c-.56-.56-.46.56-.79.6s-.5-.22-.76-.3-.11.21-.32.23c-.44.06-.3-.23-.57-.57-.48-.59-.94-1.33-1.41-2a10.47,10.47,0,0,1,.41,1.76c.17,1.67-.26.08-.8.15,0,0,.41.72.27.81-.33.22-1-.57-1.46-.51-.19.16-.46.37-.71.26s-.54-.78-.63-.4c0,.23,0,.75-.29.79s-.43-.4-.41-.66c0,.45-1.07.59-1.12.15.32,1.12-2,.56-2.52.62-.22,0-.85.22-1-.05-.07-.11-.15-.51-.3-.49s-.18.48-.15.74c-.12-.47-.68-1.62-.94-1.2-.08.13.55,1,0,1-.36.58-.57-.5-1-.45.25,1.49-.7,0-.76-.76-.4.06,0,1.15-.25,1.4a1.67,1.67,0,0,1-1.55,0c-.21-.12-.63-1.32-.81-1s.17.85,0,1a6,6,0,0,1-1.12.12c-.37,0-.41-.21-.67-.49s-.25.42-.34.61c-.35.76-.65-.87-.71-.86s-.3.4-.35.48c-.27.43-.58.35-1,.25s-.24.21-.53.23a2.45,2.45,0,0,1-1-.31c-.15-.06-.48.53-.85.56-.17,0-.19-.06-.22-.26a3.64,3.64,0,0,0-.86.12c-.35,0-.14.07-.45-.26s-.19.43-.3.56c-.67.86-.69-1.28-.8-1.56s-.08,1.32-.1,1.36c-.13.24-1,.46-1-.06,0-.11,0-1.77-.24-1.51s-.11,2-.62,2c-.19,0,0-.36-.27-.32s-.51.2-.56-.21c-.28.08-.37.4-.61.56s-.42-.42-.73-.38c.07.66-1.15-.65-1.18-.6-.18.29-.11.59-.53.65a.7.7,0,0,1-.56-.16s-.49-.69-.51-.57c-.07.41.2.9-.41.83s-.83-.81-1.09.13c0,.41-.41-.33-.67.09,0,.28-.67.45-.79.48a1.07,1.07,0,0,1-1-.07c-.42-.31-1.2,0-1.65,0a11,11,0,0,1-1.81-.07c-.11,0-1-.59-.86-.8-.17.29.36,1.18.17,1.34A8.27,8.27,0,0,1,36.58,13c-.33.09-.37.39-.55.69-.3.51-.49-.21-.77-.21-.64,0-.73-.24-.78-1.06.16,1.29-.38,1.21-1.31,1.32s-1.06.06-1.15-1a8.42,8.42,0,0,0-.17,1c-.05.41-.29.22-.41,0,.12,0-.63,0-.45.18-.1-.11-.39-.78-.49-.77s.15.84-.22.89-.64-.43-.92-.71c.31.3-.61.52-.62.57,0,.33-.11.22-.43.26a.61.61,0,0,1,0-.4,1.22,1.22,0,0,1,.05-.28,8,8,0,0,1-1.95.52c-.21,0-.62-.47-.58-.08-.39.62-.83.48-1.41.38-.07,0-.78,0-.69-.29s-.17-1.47-.39-1.11.07,1.2-.33,1.47-.67-.7-1-.66c0,0,.3.54.15.66a1.49,1.49,0,0,1-1.22.08c-.36-.22-.28-.21-.72,0a1.29,1.29,0,0,1-1.1.09c-.36-.16-.33-.44-.63-.07a.75.75,0,0,1-1,0c-.14-.09-.4-.58-.58-.47s-.39.75-.79.86c-.05-.49-.25-.16-.45,0s-.31-.29-.43-.51c.18.42-1.1,1-1.36.88,0,0-1.24-1.72-1.31-.92,0,.24.42.67-.13.64-.31,0-.81-.74-.89-.73s0,.72-.41.77-.11-.3-.18-.37-.41.14-.53.09-.44-.7-.63-.5c-.33.36-.84,1.72-1.46,1-.13-.15-.16-.86-.35-.83s-.21.78-.42,1c-.57.61-1-.21-1.39-.61-.16-.17-.46-.41-.69-.3s.1.52,0,.75c-.32.73-.85,0-1.25-.16L.45,13.76,1,12.1A.5.5,0,0,0,1,12c-.37,0-.33-.33-.36-.5s-.33-.35-.32-.68c0-.76.82-.81,1-1.38.07-.18-.42.1-.39.07-.33,0-.47,0-.59-.15L0,8.9,3.75,5.58,4,5.44c.53-.35.25.54.35.93.24,0,.18-.4.16-.6.33,0,.51.22.87.17.1,0,.12-.3.27-.39a.9.9,0,0,1,.87,0c.14.07.74.49.69.06,0,0,.12.77.26.55s-.1-1,.54-1c.2,0,.23.13.35.26s.59.08.78.06c.57-.07,1.24-.44,1.78,0,.25.2.12.94.4.74a4.63,4.63,0,0,1,1.11-.6c-.05-.42,1.18-.5,1.41-.43s.2,1.3.5.79c.1-.18.17-.78.39-.81s.12.54.41.5a2.83,2.83,0,0,1,.53-.38,8.49,8.49,0,0,1,1.23-.3,5.72,5.72,0,0,1,1.24-.11c.32,0,.54.19.83.15a2.24,2.24,0,0,1,.58-.06c.15,0,.08.5.21.63s.79-.7,1.05-.79a2.58,2.58,0,0,1,1.29-.1.66.66,0,0,1,.45.23c.09.13-.09.63,0,.62s.28-.85.6-1,.27.32.46.49a1,1,0,0,0,1,.14c.43-.18.52-.87,1.06-.46.27.21.72.74,1,.27s-.17-.43.42-.51a4.1,4.1,0,0,1,.86,0c.48,0,2.67-.31,2.72.64-.23-1,1.39-.69,1.77-.45a.59.59,0,0,0,.73.47c.38,0,.32-.45.55-.65a1.16,1.16,0,0,1,.9-.37.26.26,0,0,1,.28.22c.17,0,.34-.11.53,0a6.1,6.1,0,0,0,1.31.64.42.42,0,0,0,.42-.64,13.16,13.16,0,0,1,1.66-.18c.44,0,.88.07,1.31.06A7.36,7.36,0,0,1,41,4.08c.11,0,.29.21.34.2L44,3.92a1.18,1.18,0,0,1,.83.06c.49.24.86-.25,1.33-.1a1.73,1.73,0,0,0,1,.19c.57,0,1.14,0,1.71,0a7.31,7.31,0,0,1,2.24,0c.27.08.28.39.62.17.11-.08.63-1,.79-.68.36.65.3-.09.69-.09s.2,1.24.81,1.16c0-.41-.35-.77.06-.86s1.49-.45,1.46.3c-.08-.45.36-.88.7-.66.18.11.13.35.31.48a.75.75,0,0,0,.82-.08,1.66,1.66,0,0,0,.58-.57c.28,0,.41.24.56.22S60,3,60,3.5c.47-.88.62-.31,1.15.13,0-.47,2.74-.78,3.08-.48s.71,0,1-.06.43.56,1,.22c.31-.2.3-.39.69-.44s.12.22.4.22c.53,0,.53.24.93.64,0,0,.08-.62.19-.63s.48.62.62.73.11-.31.1-.4a1.26,1.26,0,0,1,.66-.7c.51-.27.37.24.9.2s.86.24,1.22.09c1.53-.62,3.4-.51,5-.63,1.19-.09,2.48-.08,3.68-.06,1.37,0,2.73.06,4.07.17.32.31.41-.06.79-.11s.74,0,1-.41c-.06-.58.29.1.32.12.37.23.92,0,1.3,0,.17,0,.21,0,.23.24,0,.45.14.48.46.62.63.26,0-1,0-1.15s.87.32,1,.32.18-.33.47-.25c.09,0,.67.57.76.25,0-.16-.39-.88.21-.59a1.39,1.39,0,0,0,.86.25,26.68,26.68,0,0,1,3.46-.22c.28,0,.47.2.73.24a2.25,2.25,0,0,0,1-.22,8.14,8.14,0,0,1,2.44-.35,6.94,6.94,0,0,1,2.45.06c.34.13.33.32.74.12a4.54,4.54,0,0,1,1.3-.34,16.48,16.48,0,0,1,2.11,0c.81,0,2.22-.53,3,.2.3.31.51.58.44-.06s.68-.09.87-.4.84.07,1.15.14a5.7,5.7,0,0,1,1,.08,34,34,0,0,0,3.62-.41c.45-.06,1.5-.39,1.92,0s.35.17.35-.21c0-.19.94,0,1,0,.46-.06.92.17,1.37.11.16,0,.45-.09.48.22.32,0,.38-.16.61-.28a1.55,1.55,0,0,1,.61-.19L124.89,0l.29,2.56c.07.63-.13,1.29-.05,1.91C125.16,4.68,125.23,5.8,124.72,5.18Zm-109.52,9,.06.08Z"/><path class="cls-1" d="M100.49,4.09a.48.48,0,0,0,0-.17Z"/><path class="cls-1" d="M67.06,11.75a.46.46,0,0,0,0,.14A1.15,1.15,0,0,0,67.06,11.75Z"/><path class="cls-1" d="M14.19,9.16a.5.5,0,0,0,0,.22A1.8,1.8,0,0,0,14.19,9.16Z"/><path class="cls-1" d="M122.27,4.08c.2-.12.25-.57-.06-.56S121.94,4.13,122.27,4.08Z"/><path class="cls-1" d="M122.37,7.22c.16,0,.27-.45.12-.43s-.63.29-.49.44A.77.77,0,0,0,122.37,7.22Z"/><path class="cls-1" d="M122.45,5.77c-.06.5.29.53.47.23l-.1-1C122.88,5.52,122.88,5.72,122.45,5.77Z"/></g></g></svg>