<svg xmlns="http://www.w3.org/2000/svg" viewBox="0 0 68.5 50.68"><defs><style>.cls-1{fill:#010101;}</style></defs><g id="Layer_2" data-name="Layer 2"><g id="menu"><path class="cls-1" d="M41.63,34.13c-.06.06.07.19.13.17A.27.27,0,0,1,41.63,34.13Z"/><path class="cls-1" d="M41,25.09s0,0,.07,0S41,25.08,41,25.09Z"/><polygon class="cls-1" points="39.98 26.7 40 26.67 39.96 26.75 39.98 26.7"/><path class="cls-1" d="M41.7,34.33s.11.28.07.11C41.76,34.42,41.74,34.34,41.7,34.33Z"/><path class="cls-1" d="M40.77,25.26s.07-.05,0-.07S40.75,25.24,40.77,25.26Z"/><path class="cls-1" d="M41.86,34.4a.06.06,0,0,0,.07,0C41.91,34.37,41.89,34.36,41.86,34.4Z"/><path class="cls-1" d="M45.43,23.38h0C45.38,23.48,45.52,23.39,45.43,23.38Z"/><path class="cls-1" d="M42.86,23.63a.1.1,0,0,0,.13,0A.1.1,0,0,0,42.86,23.63Z"/><path class="cls-1" d="M39.79,27.16a.22.22,0,0,0,0,.08C39.84,27.17,39.77,27.07,39.79,27.16Z"/><path class="cls-1" d="M39.69,27.67c0-.07-.06-.13-.08,0S39.66,27.77,39.69,27.67Z"/><path class="cls-1" d="M39.61,27.63c0-.07,0,0,0,0Z"/><path class="cls-1" d="M39.37,29.22s.06.06.06,0S39.37,29.12,39.37,29.22Z"/><path class="cls-1" d="M39.66,31.52s0,0,0,0S39.63,31.43,39.66,31.52Z"/><path class="cls-1" d="M44.9,35.43c-.07,0-.19.12,0,0S44.89,35.46,44.9,35.43Z"/><path class="cls-1" d="M39.56,31.12c-.09-.06.1.11,0,.06C39.74,31.23,39.6,31.14,39.56,31.12Z"/><path class="cls-1" d="M39.54,28.34s0-.05,0,0S39.5,28.38,39.54,28.34Z"/><path class="cls-1" d="M39.45,31.16c0,.07.06,0,.06,0S39.44,31.12,39.45,31.16Z"/><path class="cls-1" d="M39.51,28.68c0-.07,0,0-.07,0s0,0,0,0a.13.13,0,0,0,0,.07S39.49,28.72,39.51,28.68Z"/><path class="cls-1" d="M50.21,28.13s0-.07,0,0Z"/><path class="cls-1" d="M43.68,23.54s0-.06,0-.05A0,0,0,1,0,43.68,23.54Z"/><path class="cls-1" d="M46.47,23.55s0,0,0,.06S46.49,23.54,46.47,23.55Z"/><path class="cls-1" d="M50.36,28.4v0C50.25,28.38,50.36,28.5,50.36,28.4Z"/><path class="cls-1" d="M50.39,29.68s0,0,0,.07S50.38,29.7,50.39,29.68Z"/><path class="cls-1" d="M49.74,32.45c0,.08,0,0,0,0Z"/><path class="cls-1" d="M43.46,35.32a.11.11,0,0,0,.08,0S43.48,35.27,43.46,35.32Z"/><path class="cls-1" d="M50.37,29.31s-.07,0-.07,0S50.37,29.36,50.37,29.31Z"/><path class="cls-1" d="M48.83,33.41s0-.07,0,0S48.79,33.45,48.83,33.41Z"/><path class="cls-1" d="M49.29,33c0-.07,0-.12,0-.05S49.23,33,49.29,33Z"/><path class="cls-1" d="M49.7,32.3s-.08-.06-.08,0S49.71,32.38,49.7,32.3Z"/><path class="cls-1" d="M49,33.14c.07,0,.05-.11,0-.13S49,33.36,49,33.14Z"/><path class="cls-1" d="M46.35,23.49c-.18.12-.12.08,0,.2C46.39,23.62,46.3,23.57,46.35,23.49Z"/><path class="cls-1" d="M45.81,23.47c-.06,0-.05.06,0,.07A0,0,0,0,0,45.81,23.47Z"/><path class="cls-1" d="M48.21,24.54s-.06,0,0,0S48.24,24.57,48.21,24.54Z"/><path class="cls-1" d="M50,27.16c.08-.06-.11-.28,0-.06C49.91,27.07,49.93,27.14,50,27.16Z"/><path class="cls-1" d="M50.21,28.13c0-.06-.1-.06-.07,0S50.26,28.18,50.21,28.13Z"/><path class="cls-1" d="M29,27.19c0-.06-.1-.07-.07,0S29.08,27.24,29,27.19Z"/><path class="cls-1" d="M29.18,28.37c0-.05-.07,0-.07,0A0,0,0,1,0,29.18,28.37Z"/><path class="cls-1" d="M29,27.19s0-.07,0,0Z"/><path class="cls-1" d="M28.09,32c.05-.07,0-.11,0,0S28,32.1,28.09,32Z"/><path class="cls-1" d="M27.81,32.2c.07,0,.05-.1,0-.13S27.83,32.42,27.81,32.2Z"/><path class="cls-1" d="M28.79,26.22c.07-.06-.11-.28,0-.06C28.73,26.13,28.76,26.2,28.79,26.22Z"/><path class="cls-1" d="M27.64,32.47s0-.07-.06,0S27.6,32.52,27.64,32.47Z"/><path class="cls-1" d="M25.28,22.62s0,0,0,.06S25.3,22.61,25.28,22.62Z"/><path class="cls-1" d="M29.18,27.46s0,0,0,0S29.18,27.56,29.18,27.46Z"/><path class="cls-1" d="M29.19,28.74a.08.08,0,0,0,0,.07S29.19,28.76,29.19,28.74Z"/><path class="cls-1" d="M28.5,31.37c0-.06-.07-.06-.08,0A0,0,0,1,0,28.5,31.37Z"/><path class="cls-1" d="M20.66,33.47l.07,0C20.72,33.43,20.69,33.43,20.66,33.47Z"/><path class="cls-1" d="M20.56,33.36a.26.26,0,0,1-.13-.16C20.38,33.25,20.51,33.39,20.56,33.36Z"/><path class="cls-1" d="M18.37,30.19c-.1-.07.09.1,0,0C18.54,30.3,18.4,30.21,18.37,30.19Z"/><path class="cls-1" d="M19.58,24.32a0,0,0,0,0,0-.07S19.56,24.3,19.58,24.32Z"/><path class="cls-1" d="M18.59,26.22a.21.21,0,0,0,0,.08C18.65,26.23,18.57,26.13,18.59,26.22Z"/><path class="cls-1" d="M18.46,30.58a.08.08,0,0,0,0,0C18.58,30.58,18.43,30.5,18.46,30.58Z"/><path class="cls-1" d="M19.77,24.16s.05,0,.07,0S19.79,24.14,19.77,24.16Z"/><path class="cls-1" d="M22.27,34.39a.08.08,0,0,0,.07,0S22.28,34.34,22.27,34.39Z"/><path class="cls-1" d="M28.54,31.52c0,.07,0,0,0,0Z"/><path class="cls-1" d="M22.49,22.56s0,.05,0,.05S22.54,22.55,22.49,22.56Z"/><path class="cls-1" d="M21.8,22.72a.12.12,0,0,0-.13,0A.12.12,0,0,0,21.8,22.72Z"/><path class="cls-1" d="M27,23.6s-.06,0,0,0S27.06,23.64,27,23.6Z"/><path class="cls-1" d="M23.7,34.5c-.06,0-.19.12,0,0S23.7,34.52,23.7,34.5Z"/><path class="cls-1" d="M18.41,26.69c0-.07,0,0,0,0Z"/><path class="cls-1" d="M18.5,26.73c0-.07-.07-.13-.09,0S18.47,26.83,18.5,26.73Z"/><path class="cls-1" d="M25.16,22.56c-.17.12-.12.07,0,.2C25.21,22.69,25.11,22.64,25.16,22.56Z"/><path class="cls-1" d="M24.62,22.54c-.05,0-.05.06,0,.07S24.67,22.55,24.62,22.54Z"/><path class="cls-1" d="M24.24,22.45h0C24.19,22.55,24.33,22.46,24.24,22.45Z"/><path class="cls-1" d="M18.17,28.28s.07.06.07,0S18.17,28.18,18.17,28.28Z"/><path class="cls-1" d="M18.34,27.4s0,0,0,0S18.3,27.44,18.34,27.4Z"/><path class="cls-1" d="M18.31,27.74c0-.06,0,0-.07,0s0,0,0,0,0,0,0,.07S18.29,27.78,18.31,27.74Z"/><path class="cls-1" d="M18.26,30.23c0,.07,0,0,0,0S18.25,30.18,18.26,30.23Z"/><path class="cls-1" d="M10.64,48c.31.09-.3-.11,0,0Z"/><path class="cls-1" d="M33.71,2.74h.13l.34,0C33.65,2.7,32.49,2.82,33.71,2.74Z"/><path class="cls-1" d="M4,44.29l-.25-.19C3.62,44.16,4.61,44.8,4,44.29Z"/><path class="cls-1" d="M40.6,44.78c.32-.06-.63.09,0,0Z"/><path class="cls-1" d="M50.39,50.6c-.4,0-.18.11.42.06S50.9,50.55,50.39,50.6Z"/><path class="cls-1" d="M40.6,44.78c-.56.08-.72.17.11.06C41.17,44.77,41.12,44.68,40.6,44.78Z"/><path class="cls-1" d="M31.78,44.82c.37,0-1.35-.18-1.56-.23A10.17,10.17,0,0,0,31.78,44.82Z"/><path class="cls-1" d="M42.8,44.38c0,.12,1.11-.19.31-.05Z"/><path class="cls-1" d="M33.38,2.81c-.49,0-.42.06,0,.06C34,2.87,33.8,2.83,33.38,2.81Z"/><path class="cls-1" d="M27,1.63l-.28.08Z"/><path class="cls-1" d="M27.61,1.48l-.6.15Z"/><path class="cls-1" d="M27.85,1.35s0-.08-.1-.14Z"/><path class="cls-1" d="M58.67,49.42c.53-.11,2.47-1.2,1-.44A3.89,3.89,0,0,0,58.67,49.42Z"/><path class="cls-1" d="M37.16,2.91c0-.11-1.12-.08-.31,0Z"/><path class="cls-1" d="M43.58,2.33c1.39.45.88.3,0-.14C43.9,1.8,43.13,2.31,43.58,2.33Z"/><path class="cls-1" d="M62.57,10.58h0S62.56,10.58,62.57,10.58Z"/><path class="cls-1" d="M27.79,1.43l-.18.05Z"/><path class="cls-1" d="M27.85,1.35s0,.06-.06.08S27.91,1.41,27.85,1.35Z"/><path class="cls-1" d="M18.75,4.35c.56-.25-.29.1,0,0Z"/><path class="cls-1" d="M26.9,1.17c-.47.1-.93.21-1.4.33l-.07.05C26,1.4,26.47,1.27,26.9,1.17Z"/><path class="cls-1" d="M16.81,49.1l-.12,0,.11,0h0c.66.25,1.12-.24,1.44-.84C18,48.82,17.14,49.05,16.81,49.1Z"/><path class="cls-1" d="M65.27,45.22c-.46.42-.18.24.27-.13C65.53,45.06,65.65,44.9,65.27,45.22Z"/><path class="cls-1" d="M19.44,1l-.21.06.5-.12A.58.58,0,0,0,19.44,1Z"/><path class="cls-1" d="M49.54,50.36c-.64-.92-.06.14.13.2C49.86,50.47,49.57,50.51,49.54,50.36Z"/><path class="cls-1" d="M66,44.66c.25-.23.22-.24.21-.26C66,44.57,65.56,45,66,44.66Z"/><path class="cls-1" d="M35.89,2.88c-.24,0-.15,0,.06.06l.78.05A3.52,3.52,0,0,0,35.89,2.88Z"/><path class="cls-1" d="M8.16,8.3l.15-.36C8.15,8.28,8.12,8.37,8.16,8.3Z"/><path class="cls-1" d="M64.22,15.31c-.18-.54-.11.1-.06.3C64.38,16.22,64.38,15.8,64.22,15.31Z"/><path class="cls-1" d="M44.69,1.13c.16-.2.22-.31-.15.07l-.09.12a.8.8,0,0,1,.16-.08Z"/><path class="cls-1" d="M45.94,1h.2C46,1,45.93,1,45.94,1Z"/><path class="cls-1" d="M67.56,42.7a2.26,2.26,0,0,0-.25.29A3,3,0,0,0,67.56,42.7Z"/><path class="cls-1" d="M66.75,43.74c-.09.1-.34.2,0-.14l.24-.28C66.33,44.11,64.89,45.4,66.75,43.74Z"/><path class="cls-1" d="M67,43.32A2.82,2.82,0,0,0,67.3,43C67.16,43.16,67.1,43.24,67,43.32Z"/><path class="cls-1" d="M45.33.87c-.84-.05-.15,0,.31.06Z"/><path class="cls-1" d="M6.8,11.52c.2-.4,0-.09-.07,0C6.5,12.05,6.66,11.81,6.8,11.52Z"/><path class="cls-1" d="M16.76,49.1l-.07,0S16.69,49.11,16.76,49.1Z"/><path class="cls-1" d="M40.31,44.69a1.27,1.27,0,0,0,.31-.07l-.8.07S39.93,44.73,40.31,44.69Z"/><path class="cls-1" d="M48.48,48.9c-.06,0-.11-.11-.17-.16C48.46,48.94,48.54,49,48.48,48.9Z"/><path class="cls-1" d="M51.72,41.86c-.18.27,1-.38,1-.41s.09-.07.09-.08l-1.12.49Z"/><path class="cls-1" d="M38.74,44.8l.39,0-.94,0C38,44.83,38.22,44.88,38.74,44.8Z"/><path class="cls-1" d="M27.17,43.92l.17,0-.25-.06Z"/><path class="cls-1" d="M49.7,50.21l-.15-.12Z"/><path class="cls-1" d="M19.41,43.37l-.35-.19,0,0Z"/><path class="cls-1" d="M49.51,50.05a6.65,6.65,0,0,1-.57-.8l-.14-.1A5.53,5.53,0,0,0,49.51,50.05Z"/><path class="cls-1" d="M50.76,50.35c.15-.05-.89,0-.5-.08a.85.85,0,0,1-.52,0,.59.59,0,0,0,.45.11Z"/><path class="cls-1" d="M49.55,50.09l0,0Z"/><path class="cls-1" d="M14.76,48.69c.36.08.33,0,.34,0C14.42,48.55,14.32,48.56,14.76,48.69Z"/><path class="cls-1" d="M1.59,41.41a1.64,1.64,0,0,0,.2.26l.08.09a.57.57,0,0,0-.08-.13Z"/><path class="cls-1" d="M5.06,15.51l0,.07c0,.12,0,.1,0,.05-.08.4-.16.48-.25.87C5,16.07,5.22,15.22,5.06,15.51Z"/><path class="cls-1" d="M51.36,50.48h.2l.18,0h-.05C51.25,50.45,49.76,50.52,51.36,50.48Z"/><path class="cls-1" d="M0,38.47c.18-.14.09-.43.14-.67A4.35,4.35,0,0,1,0,38.47Z"/><path class="cls-1" d="M21.47,44.57a6.77,6.77,0,0,0-1,1.14.13.13,0,0,1,0,.06A15,15,0,0,0,21.47,44.57Z"/><path class="cls-1" d="M54.42,3.44h0c-.06-.05-.24-.1-.24-.13s0,0,0,0l.27.13S54.43,3.44,54.42,3.44Z"/><path class="cls-1" d="M16.37,48.84c-.27,0-.55-.09-.83-.13C16.4,48.94,16.79,49,16.37,48.84Z"/><path class="cls-1" d="M21.46,44.23l-1.07,1.24h0C20.71,45.13,21.17,44.6,21.46,44.23Z"/><path class="cls-1" d="M49.7,50.21l0,0Z"/><path class="cls-1" d="M.11,39.42c.07.11.16.22.26.36C.18,39.47,0,39.15.11,39.42Z"/><path class="cls-1" d="M47.12,23.68l-.09,0h0C46.87,23.55,47,23.71,47.12,23.68Z"/><polygon class="cls-1" points="39.33 30.59 39.33 30.59 39.33 30.59 39.33 30.59"/><path class="cls-1" d="M58.09,5.37c-.17-.09-.35-.18-.31-.13l.45.26C58.3,5.54,58.26,5.5,58.09,5.37Z"/><path class="cls-1" d="M39.58,31.43s0,0-.07.06a.64.64,0,0,0,0,.07h0A.1.1,0,0,0,39.58,31.43Z"/><path class="cls-1" d="M47.58,23.93h0l-.11-.08A.12.12,0,0,0,47.58,23.93Z"/><path class="cls-1" d="M47.93,24.15h0A0,0,0,0,0,47.93,24.15Z"/><path class="cls-1" d="M50.43,29.44c-.16-.07,0,.18,0,.14a.17.17,0,0,1,0-.07A.13.13,0,0,0,50.43,29.44Z"/><path class="cls-1" d="M50.43,29.1s0,0,0,0v0S50.45,29.06,50.43,29.1Z"/><path class="cls-1" d="M43.65,35.62c.06,0,0,0,0-.06h0S43.61,35.61,43.65,35.62Z"/><path class="cls-1" d="M50.34,28.08v0Z"/><path class="cls-1" d="M67.92,42l0,.05a1.56,1.56,0,0,1-.33.68,1,1,0,0,0,.36-.63Z"/><path class="cls-1" d="M19.32,43.09c.48.21.21.06,0,0C19,42.89,18.9,42.9,19.32,43.09Z"/><path class="cls-1" d="M20.14,43.68l-.33-.13C21,44.08,22,44.42,20.14,43.68Z"/><path class="cls-1" d="M20.43,43.63c-.46-.19-.41-.07.27.13Z"/><path class="cls-1" d="M20.93,45.05c.32-.42.16-.33-.23.19C20.06,46,21,45.1,20.93,45.05Z"/><path class="cls-1" d="M59.39,6.68c.5.36.58.42.29.15S59.33,6.61,59.39,6.68Z"/><path class="cls-1" d="M44.86,35.72h0a0,0,0,0,1,0-.05h0C44.67,35.71,44.84,35.64,44.86,35.72Z"/><path class="cls-1" d="M46.37,3.19c.21.08.33.11.35.09l-.1,0C46.41,3.18,45.87,3,46.37,3.19Z"/><path class="cls-1" d="M44.08,35.37c.07,0,.08,0,0,0S44.07,35.35,44.08,35.37Z"/><path class="cls-1" d="M44.29,35.7c.08,0,.09,0,0-.05S44.28,35.67,44.29,35.7Z"/><path class="cls-1" d="M67.93,40.74c0,.43,0,.85,0,1.23.63-1.06.78-1.95.3-2.46.12-2.59-1.06-12.07-.33-7,.06-1.91-.87-6.23-2-10.58a2.35,2.35,0,0,1-.07-.23s0-.07,0-.11a116.49,116.49,0,0,0-3.41-11.15h0a.56.56,0,0,0,.14.21c-.12-.16-.29-.7-.38-.83s0,0,.09.31c-.1-.18-.16-.2-.16,0a.35.35,0,0,1,0,.23.49.49,0,0,0,0-.12,2.77,2.77,0,0,0,0,.41,10.85,10.85,0,0,0-3.3-4.28L60,7c1.2.54.18-.3-1.76-1.47l-.45-.26h0c-1-.57-2.14-1.2-3.36-1.78,0,0,0,0,0,0s-.18-.11-.24-.17l-.57-.26c.05.08-1.3-.36-1.31-.53l-.19-.09c-.6-.23-1.2-.43-1.77-.6.15,0,.22,0,.13,0a3,3,0,0,0-.87-.22c-.36-.07-.32,0-.14,0l-.37-.08A6,6,0,0,0,46.14,1l.14,0c.2,0,.54.15,0,.07A.76.76,0,0,1,45.94,1a4.58,4.58,0,0,0-1.33.27c-.27.37-.56.57-.16.08-.81.43-.62,1.22,2,2.21-.46-.63,2.26.94,2.76,1.16-1.33-1,1.72,1,.45.11.51.22,1,.44,1.43.66-.3-.16-1.84-1-.65-.41.25.16,1.72,1,.43.2,1,.6,1.84,1.27,2.89,1.77-.15-.1.23.13.19.1.29.27-.12.13.81.66A53.67,53.67,0,0,0,46,4.36c.55.35-1.5-.22,0,.09A59.8,59.8,0,0,0,36.73,3l.37.12L36,2.94a46,46,0,0,0-6.7.13,15.11,15.11,0,0,0-4,.4,14.62,14.62,0,0,1,1.69-.24c-4.82.74-8,1.24-12.62,3.25a27.42,27.42,0,0,1,4.61-2.37c-.54.42.72-.2.41-.11a31.63,31.63,0,0,0,6.13-2.45,50,50,0,0,0-12.65,5.5A44.07,44.07,0,0,1,25.5,1.5c1.24-.78.74-1.18-.69-1.21C23.46.69,20.4,1.53,14.94,3l.31-.14c3.67-1.11,7.08-2,9-2.49-.1,0-.14,0-.09,0A26.85,26.85,0,0,0,19.73,1c.09,0,0,.09-.16.15.17-.05-.56.06-.34,0a24.85,24.85,0,0,0-7.69,3.15c-.18.06-.87.51-.24.14l.19-.11-.24.17A5.48,5.48,0,0,0,9.17,6.37c-.19.27-.9,1.74-1,1.93-5,12.42-11.3,25.2-6.37,33.33l.26.29-.18-.16a13.15,13.15,0,0,0,4.74,4.39c-.1,0,0,.06.19.18.35.19.4.17.19,0A23.34,23.34,0,0,0,10.93,48c-.48-.11-1.13-.34,0,.07.18,0,1.23.5.59.09.42.13.84.26,1.29.38-.74-.3-.21-.1.46,0,.91.08-.42-.15-.53-.15.64.05,1.22.08,1.77.09a25.21,25.21,0,0,1-8.42-3.2A61.34,61.34,0,0,0,15,48.54c4.24,0,5.75-1.1,5.5-2.77a5.36,5.36,0,0,1-.66.63,4.48,4.48,0,0,0,.65-.69,2,2,0,0,0-.05-.24h0l0,0,0,0a6.32,6.32,0,0,0-1.3-2.25Q18.53,43,18,42.68a2.16,2.16,0,0,0,.28.13l.74.37a25.36,25.36,0,0,0-6.2-5,.29.29,0,0,1,.14.07l-.08-.07c3.57,2.49,9.65,4.61,14.17,5.66-.12,0-.21-.07-.2-.08.47.1.78.2.45.14a27.8,27.8,0,0,0,3.86.65,47.9,47.9,0,0,0,7,.19l.2,0c.47,0,.87-.05.74,0l.69-.06.18,0c.27,0,.74-.06.62,0a38.55,38.55,0,0,0,11.1-2.76,4.29,4.29,0,0,1,1.12-.49c.94-.43,1.86-.91,2.77-1.44-1.13,1.32-1.26,1.16-3.47,2.71.15-.09-.22.11-.18.08-.52.57-2.92,1.26-2.17,1.2-3.12,1.62-4.82.44-3.11,2.83h0l-.28-.37a3,3,0,0,0,.55.75l.86,1.13c.16.17.33.33.5.48l0,0c-.11-.17-.27-.44.05,0,.07.11.12.17.14.21l.32.25c-.18-.28-.34-.55-.49-.75.26.32.47.61.63.85a6.87,6.87,0,0,0,2.75,1.19c.11,0,.14,0,.05,0,6,1.14,13.91-4.69,16.15-8.43C68,41.64,67.86,41.29,67.93,40.74Zm.2-3a.93.93,0,0,1,0,.31C68.07,37.53,68.11,37.18,68.13,37.77ZM68,36.19c.05-.2.06.66,0,.62S67.94,36.21,68,36.19ZM21.88,2.83c.47-.16.3-.05.31,0C21.72,3,21.26,3.05,21.88,2.83ZM18.64,4c.47-.21.5-.11.06.08C18.5,4.17,18.14,4.25,18.64,4ZM15.49,5.58s1.15-.62.4-.16C15.63,5.55,15.29,5.72,15.49,5.58ZM.9,30.24c-.05.29-.23,1-.2.7C.66,30.92,1,29.53.9,30.24ZM.19,37.06a16.21,16.21,0,0,1,.17-1.82C.3,35.84.24,36.44.19,37.06ZM.5,34c0-.17,0-.32.07-.55C.55,33.65.52,33.84.5,34Zm.14-1a3.67,3.67,0,0,1,.11-.94s.05-.2.08-.36C.76,32.14.7,32.57.64,33Zm.5-3.87c-.19,2.15,0-.14.27-.6C.94,31,.65,32.6,1.14,29.14Zm.64-2.3c-.12.05.15-.74.26-1.13C2,26.08,1.86,26.46,1.78,26.84ZM50,5.79h0l0,0Zm-1.77-.64c.37.15.27.14-.32-.05C47.85,5.05,48.05,5.1,48.24,5.15Zm3.35,1.59a46.32,46.32,0,0,0-8.13-2.51,10.75,10.75,0,0,1,1.62.32A39.54,39.54,0,0,1,51.59,6.74ZM50.7,29.32c0-.05,0-.15,0-.15s.06-.09.06-.19C50.76,29.22,50.77,29.48,50.7,29.32Zm0,.27v0h0Zm-.16.52c.15,0,.1.1.09.21S50.61,30.15,50.59,30.11Zm-.5,1.75S50,32,50,32,50.07,31.81,50.09,31.86Zm-.08.23s-.07,0,0,0S50,32,50,32.09ZM50.2,32c-.06.14-.13.28-.2.42S50.13,32.21,50.2,32Zm0-.09a.14.14,0,0,0,.1-.07.56.56,0,0,1,0,.12S50.19,31.94,50.16,31.94Zm.19-1.15s.09,0,.06,0S50.33,30.85,50.35,30.79Zm0,.2h0s0,0,0,0a.11.11,0,0,1-.12,0Zm0,.1a0,0,0,1,1-.07,0S50.32,31,50.32,31.09Zm-.06.66a.17.17,0,0,0,.08-.11l-.06.19S50.29,31.76,50.26,31.75Zm.14-.46s0,.05.05,0a1.72,1.72,0,0,0-.07.21A.79.79,0,0,0,50.4,31.29Zm.12-1.07s0,.1,0,.12S50.41,30.18,50.52,30.22Zm0-1.95s0-.09,0-.07S50.51,28.27,50.51,28.27Zm.05-.56a.06.06,0,0,0,0,0C50.19,26.78,50.29,26.55,50.56,27.71Zm-.24.18c-.06-.06,0-.11,0-.05S50.37,28,50.32,27.89Zm.27.11s0,0-.05,0S50.58,27.92,50.59,28Zm0,2.78a.43.43,0,0,1,.09-.3c0,.18-.07.36-.11.54A.5.5,0,0,0,50.56,30.78Zm.09-2.66c0,.14.12.4,0,.46C50.71,28.44,50.65,28.26,50.65,28.12Zm.08.62a2.18,2.18,0,0,0,0,.24c0-.1,0-.19-.07-.19S50.72,28.78,50.73,28.74Zm0,1.16s0,.07,0,.07A.07.07,0,0,1,50.69,29.9Zm0,.15s0,0,.05-.05v.06Zm-.44-3.42,0-.05v0A.42.42,0,0,0,50.22,26.63Zm-.06-.14s-.07,0-.1,0S50.12,26.39,50.16,26.49Zm-.07-.14a0,0,0,0,0,0,0C49.83,26.09,50,26.07,50.09,26.35Zm-.24-.13s-.06-.06,0-.07S49.91,26.26,49.85,26.22Zm-.07-.41a.06.06,0,0,0,0,0l.09.14S49.79,25.87,49.78,25.81Zm.1.13c0,.07.12.2,0,.13S49.89,26,49.88,25.94Zm.07.6c0,.06,0,.11,0,.05A.05.05,0,0,1,50,26.54Zm-.18-.79c0-.06-.08,0-.05-.07Zm-.17-.27c.14.15,0,.21-.15.15C49.54,25.62,49.64,25.6,49.6,25.48Zm-.22-.29c0,.08.17.18.16.24C49.47,25.27,49.24,25.33,49.38,25.19ZM49.19,25s0,0,0,0l.09.11Zm0,.21s0,.08-.06,0S49.18,25.15,49.23,25.19Zm-.11-.28c-.15,0-.11-.15-.19-.24C49,24.74,49,24.86,49.12,24.91Zm-.53-.48a1,1,0,0,0-.27-.32c.18.14.35.29.51.44C48.75,24.51,48.69,24.44,48.59,24.43Zm.1.07s0,0-.08,0S48.66,24.5,48.69,24.5Zm-.21-.15s-.08,0-.06-.05S48.55,24.36,48.48,24.35Zm-.13-.15s0,0-.06,0S48.29,24.16,48.35,24.2Zm-.08-.12c-.08,0-.2-.16-.25-.08a.09.09,0,0,0,0-.09Zm-.49-.33c-.09,0-.15-.1-.23-.14C47.76,23.71,48.22,24,47.78,23.75Zm.07.23v0C47.94,24,47.9,24,47.85,24Zm-.2-.15c0,.05-.11-.12,0-.06S47.71,23.82,47.65,23.83Zm-2.39-.9a5.52,5.52,0,0,1,2.06.55.6.6,0,0,0-.23-.06A9.7,9.7,0,0,0,45.26,22.93Zm1.61.44s0,.07-.07.05S46.79,23.34,46.87,23.37ZM46,23.23c-.09,0-.08-.06,0,0S46.1,23.25,46,23.23Zm-.51-.11s0,.05-.08,0A.06.06,0,0,1,45.5,23.12Zm-.39-.21s-.06,0-.08,0Zm-.34,0s0,0-.08,0Zm-.61.05a3.42,3.42,0,0,1,.45,0s0,.07,0,.1C44.54,22.86,44.3,23,44.16,23Zm-.55.13c-.67.13,1.08-.3.17,0C43.74,23.11,43.38,23.36,43.61,23.09Zm.14.21s-.19-.05-.1-.06S43.78,23.26,43.75,23.3ZM43.33,4c1.6.37-.42,0-.63-.1A3.64,3.64,0,0,1,43.33,4ZM43.2,23.17c0,.08-.07,0-.15,0Zm-.76.33c-.08,0-.22.14-.32.14C42.23,23.59,42.39,23.45,42.44,23.5Zm-.38.19c-.17.1,0,0,0-.05S42.09,23.67,42.06,23.69Zm0,.15c0,.06-.05,0-.05.12S42,23.8,42.06,23.84Zm-.49.18c-.19.11.18-.17.28-.22A3,3,0,0,0,41.57,24Zm0,.23s-.1,0,0-.05S41.63,24.21,41.58,24.25Zm-.11-.18c0,.05,0,.14-.08.05Zm-.27.52h0C41.07,24.55,41.44,24.43,41.2,24.59Zm-.06-.26s.09-.1.07,0S41.17,24.32,41.14,24.33Zm.1-.09c.06,0,.13-.12.12,0C41.16,24.61,41.42,24.15,41.24,24.24Zm-.16.41c-.09.1,0-.07-.07-.09S41.14,24.51,41.08,24.65Zm-.22-.06.19-.18C41,24.49,40.91,24.53,40.86,24.59Zm-.32.34c.08-.09.15-.18.23-.26s-.09.09-.06.13S40.61,24.86,40.54,24.93Zm0,.24a.1.1,0,0,1-.07,0S40.53,25.14,40.56,25.17Zm2.28-1.86a1.06,1.06,0,0,0-.19.06C42.94,23.12,43,23.48,42.84,23.31ZM37.74,3.13l.31,0C38.8,3.3,37.55,3.18,37.74,3.13Zm-9.5,0c.21,0,.33,0,0,.07h0c-.36.08-.68,0,0-.06Zm0,.29h0c.46,0,.6-.08,1-.09h0c1.11-.06,2.18-.11,3.23-.14A68,68,0,0,0,16.69,5.82,44.13,44.13,0,0,1,28.28,3.41Zm1.23,25c0-.06,0-.16,0-.16s.07-.09.06-.19C29.57,28.28,29.58,28.54,29.51,28.39Zm-.11.79c.14,0,.09.1.08.2S29.42,29.22,29.4,29.18Zm-.07-1.85s0-.09,0-.07S29.33,27.33,29.33,27.33Zm-.58,4.28c0,.08-.13.22-.18.34C28.55,31.79,28.67,31.74,28.75,31.61Zm-.21,0s0-.06,0-.06C28.64,31.32,28.56,31.59,28.54,31.58Zm.05-.25s.15-.08.09,0S28.61,31.34,28.59,31.33Zm.42-.24c-.06.15-.13.29-.2.43S28.93,31.27,29,31.09Zm-.11-.17s-.12.1-.08.11S28.88,30.88,28.9,30.92Zm-.09.23c0,.05-.07,0,0,0S28.83,31.09,28.81,31.15ZM29,31a.2.2,0,0,0,.1-.07,1.17,1.17,0,0,0-.05.11C29,31,29,31,29,31Zm.18-1.16s.09,0,.06,0S29.14,29.92,29.15,29.85Zm0,.2s0,0,0,0h.05a.09.09,0,0,1-.11,0S29.14,30.06,29.15,30.05Zm0,.1c0,.06-.08,0-.07,0S29.13,30.09,29.12,30.15Zm-.05.66s.05,0,.08-.1,0,.13-.07.19S29.09,30.82,29.07,30.81Zm.13-.46s0,0,.05,0,0,.13-.07.2A.78.78,0,0,0,29.2,30.35Zm.12-1.07s0,.1,0,.12S29.21,29.24,29.32,29.28Zm.07-2.51s0,0,0,0C29,25.84,29.12,25.61,29.39,26.77Zm-.25.18c-.06-.06,0-.11,0-.05S29.19,27,29.14,27Zm.27.11s0,0-.05,0S29.4,27,29.41,27.06Zm-.05,2.78a.51.51,0,0,1,.1-.3c0,.18-.07.37-.12.54A.4.4,0,0,0,29.36,29.84Zm.11-2.66c0,.14.12.4,0,.46C29.53,27.51,29.47,27.32,29.47,27.18Zm.07.62c0,.06,0,.15,0,.24,0-.1,0-.19-.06-.19S29.54,27.84,29.54,27.8ZM29.49,29s0,.08,0,.07A.15.15,0,0,1,29.49,29Zm0,.15s0,0,.05,0a.13.13,0,0,0,0,.06ZM29,25.69s0,0,0-.05a.09.09,0,0,0,0-.05A.3.3,0,0,1,29,25.69ZM29,25.55s-.07,0-.1,0S29,25.45,29,25.55Zm-.07-.14s0,0,0,0C28.66,25.15,28.83,25.12,28.92,25.41Zm-.25-.13s-.05-.06,0-.07S28.73,25.32,28.67,25.28Zm-.07-.41v0a.64.64,0,0,1,.08.14S28.62,24.93,28.6,24.87Zm.11.13c0,.06.12.21,0,.13S28.71,25,28.71,25Zm.06.6c0,.06,0,.11,0,0S28.75,25.61,28.77,25.6Zm-.18-.79c0-.06-.07,0-.05-.07Zm-.17-.27c.14.15,0,.21-.14.15C28.36,24.68,28.47,24.66,28.42,24.54Zm-.22-.29c.05.08.18.18.16.24C28.29,24.33,28.06,24.39,28.2,24.25ZM28,24s0,0,0,0l.1.11Zm0,.21a0,0,0,1,1-.06.05S28,24.21,28.05,24.25ZM27.94,24c-.15,0-.11-.16-.19-.25C27.86,23.8,27.83,23.92,27.94,24Zm-.53-.49a.88.88,0,0,0-.27-.31c.17.14.34.28.5.44C27.57,23.58,27.51,23.5,27.41,23.49Zm.1.08s-.07,0-.09,0A.07.07,0,0,1,27.51,23.57Zm-.22-.16s-.07,0-.05-.05S27.37,23.43,27.29,23.41Zm-.12-.14s0,0-.07,0S27.11,23.22,27.17,23.27Zm-.08-.13c-.08,0-.2-.15-.25-.07a.1.1,0,0,0,0-.09Zm-.5-.32c-.09,0-.15-.1-.22-.15C26.57,22.77,27,23.1,26.59,22.82Zm.08.23,0,0C26.75,23,26.72,23.09,26.67,23.05Zm-.21-.16c0,.06-.11-.12,0-.06S26.53,22.89,26.46,22.89ZM24.07,22a5.78,5.78,0,0,1,2.07.56,1.19,1.19,0,0,0-.23-.07A12,12,0,0,0,24.07,22Zm1.61.45s0,.07-.06,0S25.6,22.4,25.68,22.44Zm-.86-.14c-.08,0-.08-.06,0,0S24.91,22.32,24.82,22.3Zm-.51-.12s0,.06-.08,0A.07.07,0,0,1,24.31,22.18Zm-.39-.2a0,0,0,0,1-.08,0S23.91,22,23.92,22Zm-.33,0c-.05,0-.05,0-.09,0ZM23,22l.45,0s0,.08,0,.11C23.35,21.93,23.12,22.06,23,22Zm-.55.13c-.67.13,1.08-.3.17,0C22.55,22.18,22.19,22.42,22.42,22.15Zm.14.21s-.19,0-.1-.06S22.59,22.33,22.56,22.36ZM22,22.23c0,.09-.07.06-.15.05Zm-.36.15a.42.42,0,0,0-.16,0C21.79,22.19,21.85,22.51,21.65,22.38Zm-.4.18c-.08,0-.22.14-.32.14C21,22.66,21.2,22.51,21.25,22.56Zm-.38.2c-.17.09,0,0,.05-.06S20.9,22.74,20.87,22.76Zm0,.14c0,.06-.05,0-.06.12S20.77,22.86,20.87,22.9Zm-.5.19c-.18.1.19-.18.29-.23C20.58,22.94,20.45,23,20.37,23.09Zm0,.22s-.1,0-.05,0S20.44,23.27,20.39,23.31Zm-.12-.18c0,.05,0,.15-.07.05A.18.18,0,0,0,20.27,23.13Zm-.26.52a0,0,0,0,1,0,0C19.88,23.61,20.25,23.49,20,23.65ZM20,23.39s.08-.1.07,0S20,23.38,20,23.39Zm.1-.09c.05-.05.13-.11.12,0C20,23.68,20.23,23.21,20.05,23.3Zm-.16.41c-.09.11,0-.07-.07-.09S20,23.57,19.89,23.71Zm-.22-.06a1.54,1.54,0,0,1,.19-.17C19.85,23.56,19.72,23.59,19.67,23.65Zm-.32.34.23-.26c0,.05-.09.09-.06.13S19.42,23.92,19.35,24Zm0,.24s0,0-.06,0S19.34,24.21,19.36,24.23Zm-.26.17A7.11,7.11,0,0,0,17.86,30a7,7,0,0,1,1.27-5.7S19.07,24.36,19.1,24.4Zm0,.45c0,.07-.12,0-.1-.05S19.13,24.77,19.08,24.85Zm-.41.44s-.05,0-.06,0S18.7,25.23,18.67,25.29Zm-.31.92c0,.05-.11.08-.08,0S18.33,26.2,18.36,26.21ZM18,27.83s.06,0,0,0S18,27.89,18,27.83Zm0,.67c0,.05-.09.07-.08,0S18,28.54,18,28.5Zm-.07.88c0,.07-.06,0-.05,0S17.94,29.34,17.94,29.38Zm0-2.2s.05,0,0,.05S18,27.22,18,27.18ZM18,27a.14.14,0,0,1,0-.09C18.07,26.9,18.05,27.06,18,27Zm.08-.42c0-.06.11,0,.09,0S18.07,26.65,18.08,26.59Zm-.21,2s-.05,0-.05,0S17.85,28.58,17.87,28.6Zm8-25.12c.59,0-.06.06-.31.09C25.51,3.55,25.49,3.52,25.82,3.48ZM19.38,4.85c.39-.07.3,0-.3.14C19,5,19.19,4.92,19.38,4.85ZM18.47,5l.17,0c1-.21-1.16.46-.22.06Zm-3,1.27L15,6.38C15.48,6.14,15.66,6.09,15.43,6.23Zm-.78.28-.59.23C14.58,6.46,14.65,6.47,14.65,6.51Zm-.63,0s0,0,0,0C14.11,6.36,14.5,6.18,14,6.49ZM14.43,3l.29-.11C14.22,3.13,13.94,3.23,14.43,3ZM9.13,6.73c.44-.76.08-.17.07.12C9.76,6,8.67,7.72,9.13,6.73ZM4.67,17.1c.08-.26.24-.65.34-.88l-.46,1.23C4.59,17.35,4.6,17.28,4.67,17.1Zm-.29.8.07-.17c-.24.66-.47,1.34-.7,2C4,19.11,4.15,18.52,4.38,17.9Zm-.75,2.24c0,.1-.07.2-.1.3C3.51,20.38,3.56,20.36,3.63,20.14Zm-1.45,5c.19-.85,0-.72.24-1.36-.12,1.05,0,.09.27-.55C2.52,23.86,2.35,24.5,2.18,25.15Zm6,21.45c.64.31.7.39,0,0S7.49,46.28,8.17,46.6ZM5.29,15.49c.19-.55.45-1.13.72-1.82C7.44,10.35,5.94,13.83,5.29,15.49Zm1.56-3.7a4.16,4.16,0,0,1,.28-.74C7.21,11.16,6.92,11.54,6.85,11.79Zm.6-1.48A11.34,11.34,0,0,1,8,9c.08,0-.79,1.72-.23.76C7.66,10,7.29,10.9,7.45,10.31ZM8,9.4a1.83,1.83,0,0,1,.27-.56l0-.05C8.17,9,8.07,9.19,8,9.4Zm.62-1.75a1.36,1.36,0,0,1,.1-.14C8.76,7.56,7.52,9.63,8.59,7.65Zm.17.18a5.87,5.87,0,0,1,.49-.93c.09-.16.49-.87.59-1C9.69,6.13,9.3,6.79,8.76,7.83Zm2.66-3.08L12.91,4c-.82.44-1.65.94-2.49,1.49A8.38,8.38,0,0,0,11.42,4.75ZM11.64,37s0,0,0,0l0,.05ZM11.48,8c0-.07.18-.14.29-.19A.8.8,0,0,1,11.48,8ZM16.8,41.83c.31.24.22.21-.3-.14C16.45,41.63,16.63,41.74,16.8,41.83Zm-1.54-1.07c.11.09.51.36.5.38S14.84,40.48,15.26,40.76ZM13.9,39.51c0,.15-.28-.19-.29-.18S13.74,39.37,13.9,39.51Zm-1-.83A20.59,20.59,0,0,0,17,42.1a18.56,18.56,0,0,1-4.17-3.49Zm-.51-1.13a1.78,1.78,0,0,1-.42-.36C12.3,37.47,13.77,38.33,12.43,37.55Zm.46-30.49s0,0,.13-.08Zm1.63,31.76a12.15,12.15,0,0,1-1-.63c.4.23.79.49,1.19.71Zm.37.44c-.18-.13-.42-.31,0-.06S15.25,39.46,14.89,39.26Zm1.88.78a3.06,3.06,0,0,1-1.28-.68c.82.44,1.62.83,2.39,1.18A8.28,8.28,0,0,1,16.77,40Zm1.11-10h0C18.2,30.76,18.32,31.63,17.88,30Zm.42.88-.05,0,0,0Zm0-.17v0C18.32,30.88,18.27,30.75,18.34,30.74Zm0,.48a.52.52,0,0,0,0,.17C18.3,31.32,18.21,31.06,18.33,31.22Zm.22,9.83c.46.07.67.08-.2-.31C19.1,41,20.12,41.53,18.55,41.05Zm.05-9.24c.21.24.29.5.5.78C18.8,32.34,18.2,31,18.6,31.81Zm-.07-.51s.1.11.07.13Zm.38.51s0,0,.07,0S19,31.87,18.91,31.81Zm.28.43s0,.08,0,0S19.16,32.21,19.19,32.24Zm0,.52c.1,0,0,.06.09.1Zm.1.11a1.87,1.87,0,0,1,.41.43C19.59,33.16,19.45,33,19.32,32.87Zm.63.62-.11-.1.12.06A.06.06,0,0,0,20,33.49Zm0-.32c.36-.46-.68.11-.12-.49-.64,0-.15-.46-.69-.56.27-.15,0-.07,0-.25,0,.16-.24-.2-.2-.34,0,.2-.51-.35-.37-.45a1.44,1.44,0,0,1-.24-.45c-.08.11,0,0,0-.07a5.11,5.11,0,0,1-.18-.9s-.1,0-.1,0,.09,0,.1,0a8.58,8.58,0,0,1,.27-3.42c.42-.31,0-.06,0-.33.07,0,.35-.23.13-.2.9-1.4,2.81-3.83,4.58-3.21.05-.11.54,0,.23-.08s.26-.21.23.08a3.17,3.17,0,0,1,.8-.09h0c-.07.08,0,.05,0,0a3.81,3.81,0,0,1,1.46.3c.06,0,.14-.13.13,0h-.05l.36.17c-.05-.07-.05-.14,0,0,.08,0,.23.09.08.08l.32.2s0-.05,0,0,0,0,0,0a6.68,6.68,0,0,1,2.4,3.91c0-.06,0-.08.07,0s0,.11-.07.05a5.19,5.19,0,0,1,.13,1s0,0,0,0h0c0,.13,0,.27,0,.4v.05h0a4.8,4.8,0,0,1-.44,2,.68.68,0,0,1-.05.22s0,0,0-.06-.07.14,0,.1c-.25.81-1.54,2.58-1.92,2.57-.58,1.07-3.13.92-3.22,1.3v.05a.28.28,0,0,0,.05.09,5.25,5.25,0,0,1-2.41-.51l.09,0,1.07.23h0c1.7.33-.63-.45-1.91-1.07,0,0,0,0,0,0s0-.11-.07-.12,0,.11.05.15l-.07,0a.05.05,0,0,0,0-.07l0,0a2.54,2.54,0,0,1-.43-.26h0Zm-1.5-7,.06,0ZM28.52,32c-.08.14-.18.28-.28.42C28.3,32.35,28.43,32,28.52,32Zm0-.22c-.07.1,0,0-.05-.05C28.24,32,28.46,31.42,28.52,31.8Zm-.37.76,0-.07C28.21,32.48,28.21,32.49,28.15,32.56Zm-.15.19a.23.23,0,0,0,0-.14C28.09,32.65,28.05,32.7,28,32.75Zm-.19.21s0-.16.06-.15S27.85,32.92,27.81,33Zm-.24.06s-.05,0-.07,0S27.61,33,27.57,33Zm-.76.6c0,.05-.11,0,0,0Zm-.08.15s-.05,0-.06,0S26.71,33.73,26.73,33.77Zm-1.18.68c.05,0,.17,0,.24,0l-.25.09S25.56,34.47,25.55,34.45Zm0-.16s.13,0,.06,0S25.54,34.31,25.53,34.29Zm-.14.28,0,0C25.55,34.4,25.52,34.56,25.39,34.57Zm-.3.1c-.06,0-.23.08-.18,0S25,34.7,25.09,34.67ZM25,34.45s.09.07,0,.09S25,34.46,25,34.45Zm-.17.27c-.1,0-.16,0-.09-.07S24.83,34.75,24.87,34.72Zm-.27.06s.07,0,.08-.06S24.66,34.76,24.6,34.78Zm-.22,0h-.05S24.38,34.81,24.38,34.8Zm-.05-.16s-.12-.14-.06-.15S24.39,34.64,24.33,34.64Zm-.25.21s-.08,0,0,0S24.06,34.85,24.08,34.85Zm-3.59-1s0,0,0,0C20.32,33.75,20.28,33.69,20.49,33.84Zm.05,0,.21.16a1.55,1.55,0,0,1,.51.3,3.48,3.48,0,0,1-.77-.45S20.53,33.9,20.54,33.88Zm.13.08s0,0,.06,0S20.74,34,20.67,34Zm.21,0s.05,0,.09,0S20.88,34,20.88,34Zm.47.08c.08,0-.08.08-.08.08S21.31,34,21.35,34.06Zm0,.11h0l0,0Zm0-.14s.05,0,.06,0S21.39,34.06,21.4,34Zm.13.06s0,.09,0,.06S21.49,34.06,21.53,34.09Zm.66.29c0-.15,0-.09.13,0S22.17,34.51,22.19,34.38Zm.19.14a.06.06,0,0,1-.08,0S22.34,34.5,22.38,34.52Zm0-.16s0,.07,0,.1S22.39,34.4,22.42,34.36Zm.31.13s.05.09,0,.07S22.68,34.48,22.73,34.49Zm-2.68-.94a.19.19,0,0,1,.11.12S19.94,33.52,20.05,33.55Zm1.16,8.37a2.58,2.58,0,0,0-.83-.29c.05,0-.12-.08-.32-.18.61.24,1.23.48,1.89.71A6.18,6.18,0,0,1,21.21,41.92Zm3,1.13a4.88,4.88,0,0,1-.6-.19C23.72,42.86,24.66,43.16,24.18,43.05Zm1.24.18a15.81,15.81,0,0,1-3.14-1c1.2.41,2.47.79,3.83,1.13A5.8,5.8,0,0,1,25.42,43.23Zm.6-8.92.1-.07C26.26,34.19,26.08,34.28,26,34.31Zm.41-.22c0-.05,0,0,.05,0Zm.09,9.42.81.17C26.93,43.6,26.9,43.71,26.52,43.51ZM26.64,34a.71.71,0,0,0,.14-.1C27.77,33,27.69,33.2,26.64,34Zm.8-.92s0,0,0,0S27.4,33.1,27.44,33Zm1.21,10.9a10.91,10.91,0,0,1-1.17-.23Zm8.69.66c-2.58.27-5.53-.23-8.43-.53.25,0,.17,0-.06-.1a40.14,40.14,0,0,0,10.2.52C38.56,44.55,37.8,44.56,37.34,44.6Zm3-19.41c0,.06-.06.11,0,.15a7.13,7.13,0,0,0-1.23,5.56A6.92,6.92,0,0,1,40.33,25.19Zm-.06.6c0,.07-.11,0-.1-.06S40.32,25.71,40.27,25.79Zm-.41.44H39.8C39.83,26.18,39.89,26.16,39.86,26.23Zm-.31.92c0,.05-.11.08-.08,0S39.52,27.14,39.55,27.15Zm-.32,1.62c0-.06.05,0,.05,0S39.23,28.83,39.23,28.77Zm0,.67s-.09.07-.09,0S39.23,29.48,39.21,29.44Zm-.11.9a.08.08,0,0,1,0-.05C39.14,30.25,39.15,30.38,39.1,30.34Zm.08-2.22a0,0,0,0,1,0,.05S39.16,28.16,39.18,28.12Zm0-.17s0-.06,0-.1S39.24,28,39.2,28Zm.07-.42c0-.06.11,0,.1,0S39.26,27.59,39.27,27.53Zm-.26,2s0,0,.05,0S39,29.57,39,29.5ZM39.07,31c.06.06.07.21.16.27C39.32,31.88,39.52,32.37,39.07,31Zm.38.9,0,0h0Zm.08.28a.5.5,0,0,0,0,.17C39.5,32.26,39.41,32,39.53,32.15Zm.18,12.37c-.39,0-.3,0,.32-.08C40.11,44.46,39.91,44.49,39.71,44.52Zm.08-11.77a6.53,6.53,0,0,1,.5.78C40,33.28,39.4,31.94,39.79,32.75Zm-.06-.51s.1.11.07.13Zm.38.51s0,0,.06,0S40.15,32.81,40.11,32.75Zm.24.46c0-.05,0-.07,0,0S40.39,33.25,40.35,33.21Zm.07.48c.1,0,0,.06.09.1Zm.1.12a2,2,0,0,1,.41.42A5.4,5.4,0,0,1,40.52,33.81Zm.73.67a.19.19,0,0,1,.1.12S41.14,34.45,41.25,34.48Zm.44.29s0,0,0,0C41.51,34.68,41.46,34.61,41.69,34.77ZM42,35a1.26,1.26,0,0,1,.5.3,3.62,3.62,0,0,1-.76-.45,0,0,0,0,0,.05,0Zm-.08-.09s0,0,.06,0S41.94,34.93,41.87,34.89Zm.21,0s.05,0,.09,0S42.08,34.91,42.08,34.91Zm.38.16s0-.1.09-.08S42.46,35.07,42.46,35.07Zm.11,0h0l0,0Zm-1.42-.68-.11-.1.12.06S41.15,34.41,41.15,34.43Zm.73,9.94c-.19,0-.4,0-.31,0S42.74,44.24,41.88,44.37Zm0-.18c1-.15,2.2-.44,3-.46C43.9,43.86,42.83,44.07,41.84,44.19Zm.66-8.89.09,0,1.06.24s0,0,0,0h0c1.53.29.29-.23-.66-.5a3.09,3.09,0,0,1-.54-.17s0,0,0,0l0,0a6.47,6.47,0,0,1-.74-.41s0-.05,0-.08l0,.05-.42-.26s0,0,0,0h0l-.07,0c.35-.46-.68.11-.12-.49-.64.06-.15-.45-.69-.56.26-.15,0-.06,0-.25,0,.16-.23-.19-.2-.34,0,.21-.5-.34-.36-.44a1.41,1.41,0,0,1-.24-.46c-.08.12-.06,0,0-.07a4.93,4.93,0,0,1-.18-.9s-.1,0-.11,0,.09,0,.11,0a8.42,8.42,0,0,1,.26-3.42c.43-.32,0-.06,0-.33.07,0,.35-.23.13-.2.91-1.4,2.81-3.83,4.57-3.21.06-.12.55,0,.24-.09s.26-.21.22.08a3.79,3.79,0,0,1,.81-.09h0c-.07.08.05.05,0,0a3.6,3.6,0,0,1,1.45.31c.06,0,.15-.14.14,0l-.05,0a2.92,2.92,0,0,1,.36.17c0-.07-.06-.15,0,0,.09,0,.24.1.08.08a3.53,3.53,0,0,1,.32.21s0-.05,0,0,0,.05,0,0a6.81,6.81,0,0,1,2.4,3.91s0-.06.06,0,0,.1,0,0a7.11,7.11,0,0,1,.13,1s0,0,0,0h0c0,.13,0,.25,0,.38s0,0,0,.07h0a4.8,4.8,0,0,1-.44,2,1,1,0,0,1,0,.22s0,0,0-.07-.07.14,0,.1c-.25.82-1.54,2.58-1.92,2.58-.6,1.08-3.14.91-3.21,1.29v.05a.14.14,0,0,0,0,.09A5.22,5.22,0,0,1,42.5,35.3Zm.1-.34a.06.06,0,0,1,0,0S42.59,35,42.6,35Zm.13.06s0,.1,0,.07A0,0,0,1,1,42.73,35Zm.66.3c0-.15,0-.1.12,0S43.37,35.44,43.39,35.32Zm.19.13s0,0-.09,0S43.54,35.43,43.58,35.45Zm0-.16c.05,0,0,.07,0,.1S43.59,35.33,43.62,35.29Zm.3.14s0,.08,0,.07S43.87,35.41,43.92,35.43Zm-4.3-8.38.05,0Zm10.32,5.5c0,.08-.12.22-.18.34C49.74,32.72,49.87,32.67,49.94,32.55Zm-.21,0v-.06C49.84,32.26,49.75,32.52,49.73,32.51Zm.06-.24s.14-.09.08,0S49.81,32.28,49.79,32.27Zm-.07.68a4.38,4.38,0,0,1-.28.42C49.5,33.29,49.62,32.89,49.72,33Zm0-.21c-.06.1,0,0-.05-.05C49.44,32.92,49.66,32.36,49.71,32.74Zm-.37.76,0-.08C49.4,33.42,49.4,33.43,49.34,33.5Zm-.14.18a.57.57,0,0,0,0-.14C49.29,33.58,49.25,33.63,49.2,33.68Zm-.2.22s0-.16.06-.15S49,33.85,49,33.9Zm-.23.05s-.06,0-.08,0S48.8,33.88,48.77,34Zm-.8.84c1-.82.92-.66-.13.1C47.88,34.86,47.94,34.84,48,34.79Zm-.11,0s0-.07.07,0S47.87,34.76,47.86,34.74Zm.09-.2s0,0,.06,0S47.89,34.58,48,34.54Zm.69-.56s0,0,0,0S48.59,34,48.64,34Zm-1,1-.06,0S47.65,35,47.68,35Zm-.46.25.1-.06C47.46,35.13,47.27,35.22,47.22,35.24Zm-.47.15s.17,0,.23,0l-.24.1A0,0,0,0,0,46.75,35.39Zm0-.17c.05,0,.13,0,.05,0S46.74,35.25,46.73,35.22Zm-.14.28,0,0C46.74,35.34,46.72,35.5,46.59,35.5Zm-.3.1c-.06,0-.24.08-.19,0S46.23,35.64,46.29,35.6Zm0-.22s.09.07,0,.1S46.19,35.39,46.24,35.38Zm-1,.4s-.08,0,0,0S45.26,35.78,45.28,35.78ZM45,43.61l.51-.11Zm.51-8.19c.07,0,.12.15.05.16S45.4,35.43,45.47,35.42Zm.06.33h0s0,0,0,0Zm.35-.1s0,0,0,0S45.79,35.73,45.88,35.65Zm.1-.07s.05.11.08.07S45.91,35.67,46,35.58Zm2.93,7.27c-.39.09-.3,0,.3-.15C49.29,42.69,49.1,42.77,48.91,42.85Zm2.34-1.13A50,50,0,0,1,46,43.37a56.77,56.77,0,0,0,5.72-1.86A3.15,3.15,0,0,1,51.25,41.72Zm.8-35.1c.18.1.45.24,0,0S51.68,6.46,52.05,6.62Zm0,34.77c.37-.14.73-.3,1.11-.46C52.77,41.09,52.27,41.31,52,41.39ZM51.76,6.81a13.22,13.22,0,0,1,1.87.83C53,7.35,52.38,7.07,51.76,6.81Zm2.08,33.8-.16.06c.31-.14.62-.3.94-.46C54.38,40.34,54.18,40.46,53.84,40.61Zm-7.47,5.26c-.28-.46-.33-.49.25-.63-.36.17-.49.41-.07.79C46.46,45.94,46.4,45.87,46.37,45.87Zm1.07,1.47a3.81,3.81,0,0,0-.23-.4A1.28,1.28,0,0,1,47.44,47.34Zm.08.38c-1-1.48,0-.08.22.23C47.72,48,47.71,48,47.52,47.72Zm1.61-3.25a3.6,3.6,0,0,1-1.31.44,9.55,9.55,0,0,0,1.49-.58C49.49,44.3,48.42,44.75,49.13,44.47Zm3.56-2c.11-.05.45-.19.07,0S52.21,42.71,52.69,42.42Zm-1.33.82c.55-.14-.24.22-.28.13Zm-.83.42c-.46.22-.38.1,0-.08C50.72,43.51,51,43.42,50.53,43.66ZM54,50.25c-.58.2-1.81.16-.43-.08,1-.1-.16.06-.17.09S54.75,50.1,54,50.25Zm-1.47,0a12.76,12.76,0,0,1-1.39,0A27.58,27.58,0,0,0,54.27,50,10.26,10.26,0,0,1,52.53,50.21Zm-.11-7.35c.29-.18.56-.36.78-.53.69-.48,1.3-1,1.9-1.42A19.11,19.11,0,0,1,52.42,42.86Zm4.35-33.6c.07,0,.13.08.22.13ZM55.15,7.63c.38.26.73.51,1,.74C55.9,8.2,55.5,7.89,55.15,7.63Zm.68.84s0,0,.05-.05S55.91,8.49,55.83,8.47Zm-.18,0c-1.17-.73-.5-.34.11,0C55.69,8.42,55.65,8.41,55.65,8.43Zm1,31-.45.51S56.43,39.42,56.6,39.38Zm-.81.67c-.17.15.22-.42.37-.43A4,4,0,0,1,55.79,40.05Zm.52-31.59.35.28h0ZM56.88,39s-.13.22-.25.26S56.79,39,56.88,39ZM56.65,4.64c.16.12.43.35,0,.06S56.27,4.43,56.65,4.64ZM54.87,3.9l0,0,0,0Zm-1.1-.61.29.14C54.18,3.53,52.91,3,53.77,3.29ZM51,2.44a38.78,38.78,0,0,0-5.48-1.2A13,13,0,0,1,51,2.44ZM47.87,3.71c-.35-.19-.25-.17.31.09C48.25,3.86,48.05,3.78,47.87,3.71Zm-3.22-2c.06.45.88,1,2,1.55l.07,0,0,0,.65.32C45.77,3,44.39,2.42,44.65,1.68Zm6.8,3.7a2,2,0,0,0-.3-.25C52.12,5.5,52.49,5.64,51.45,5.38Zm2.13,1.25c-.4-.22-.81-.51-1.09-.69.49.28.95.56,1.38.83A2.45,2.45,0,0,1,53.58,6.63Zm.82.48.29.21a.73.73,0,0,0-.2-.1S54.47,7.18,54.4,7.11Zm.86.86a1.76,1.76,0,0,1-.42-.24A1.67,1.67,0,0,1,55.26,8Zm-.15.4a4.36,4.36,0,0,1,.91.47c-.39-.21-.78-.4-1.17-.59ZM55.25,40l-.29.12C55.45,39.82,55.73,39.72,55.25,40Zm.26-.21.57-.32C56,39.59,55.78,39.59,55.51,39.75ZM56,40l-.4.41A3.69,3.69,0,0,1,56,40Zm2.72,8.85c-4.93,1.46-3,.91.23-.13Zm.78-.33.63-.28C59.91,48.49,59.86,48.45,59.53,48.53Zm.9-.41L60.8,48A.86.86,0,0,1,60.43,48.12Zm.63-.2c.11-.24.51-.31.74-.49Zm2.13-34.65a.53.53,0,0,0,.05.2c0-.1-.07-.21-.11-.31C63.16,13.22,63.18,13.27,63.19,13.27Zm-1,34,.37-.21C62.35,47.15,62.21,47.25,62.16,47.24Zm.71-.37c.18-.26.74-.51,1-.74A8.35,8.35,0,0,1,62.87,46.87Zm1.07-31.36a6.26,6.26,0,0,1,.24.75ZM64.71,18c.05.15.1.27.14.37s0,.15,0,.27Zm.43,1.54c-.06-.24-.13-.47-.19-.7a3.31,3.31,0,0,1,.19.4A1.29,1.29,0,0,0,65.14,19.5Zm.12.44a3.56,3.56,0,0,1,.32,1.24h0C65.48,20.76,65.37,20.35,65.26,19.94Zm1.2,5.1c0-.19-.08-.37-.11-.56.06.22.13.41.17.61S66.46,25,66.46,25Zm.1.5c0,.11,0,.08.06.08s.17,1.06.21,1.38Zm.3.7c-.07-.4,0-.31,0-.3C66.93,26.35,67,26.9,66.86,26.24Zm.82,7.16v.16S67.66,33.31,67.68,33.4Z"/><path class="cls-1" d="M41.19,34.14v0s0,0,.06,0A.06.06,0,0,0,41.19,34.14Z"/><polygon class="cls-1" points="29.15 27.14 29.15 27.13 29.15 27.14 29.15 27.14"/><path class="cls-1" d="M23.66,34.79h0s0,0,0-.05h0C23.48,34.77,23.64,34.71,23.66,34.79Z"/><path class="cls-1" d="M22.46,34.68c.06,0,0,0,0-.06h0S22.41,34.67,22.46,34.68Z"/><path class="cls-1" d="M29.24,28.15s0,.05.05,0h0C29.28,28.12,29.27,28.11,29.24,28.15Z"/><path class="cls-1" d="M29.15,28.52c0,.05.09.17.14.12s0,0,0-.05S29.19,28.46,29.15,28.52Z"/><path class="cls-1" d="M62,10c0,.09.06.15.08.21a.49.49,0,0,1,0-.11C62,9.73,61.66,9.3,62,10Z"/><path class="cls-1" d="M65.92,21.65c-.1-.41-.18-.43-.12-.11l.09.34C66,22.05,66,21.82,65.92,21.65Z"/><path class="cls-1" d="M14.49,48.53l1,.18L15,48.54Z"/><path class="cls-1" d="M24.2.32l.49,0h.12c1.36-.4,1-.36-.4,0h0l-.28,0h.19Z"/><path class="cls-1" d="M26.75,23.22a0,0,0,0,1,0,0v0A0,0,0,0,0,26.75,23.22Z"/><path class="cls-1" d="M20.06,33.23a.06.06,0,0,0-.08,0h0S20.05,33.25,20.06,33.23Z"/><path class="cls-1" d="M23.14,34.72s-.05,0-.05.05S23.18,34.76,23.14,34.72Z"/><polygon class="cls-1" points="18.13 29.65 18.13 29.66 18.13 29.66 18.13 29.65"/><path class="cls-1" d="M18.38,30.49s0,0-.07.07a.19.19,0,0,1,0,.07h0A.11.11,0,0,0,18.38,30.49Z"/><path class="cls-1" d="M22.92,34.4s0,0,0,0S23,34.43,22.92,34.4Z"/><path class="cls-1" d="M25.93,22.74l-.08,0h0C25.68,22.62,25.82,22.78,25.93,22.74Z"/><path class="cls-1" d="M26.39,23h0l-.12-.09A.18.18,0,0,0,26.39,23Z"/><path class="cls-1" d="M50.69,42.29c-.45.15-.3.17,0,.07S51.1,42.15,50.69,42.29Z"/><path class="cls-1" d="M53.62,41.09c.09,0,1-.44.29-.13Z"/><path class="cls-1" d="M51.44,43.23h-.08C51.15,43.34,51.44,43.24,51.44,43.23Z"/><path class="cls-1" d="M8.69,7.51a.85.85,0,0,0-.1.14S8.68,7.54,8.69,7.51Z"/><path class="cls-1" d="M24.18,43.05h.08C24.32,43.07,23.93,43,24.18,43.05Z"/><path class="cls-1" d="M15.26,40.76c-.27-.17.25.19,0,0Z"/><path class="cls-1" d="M18.47,5l0,0,.22-.06Z"/><path class="cls-1" d="M23.09,2.72l-.22.09c.07,0-.22.08-.14,0-.19.07-.39.14-.52.2A3.14,3.14,0,0,0,23.09,2.72Z"/><path class="cls-1" d="M62.29,47.77c.37-.21.44-.33,0-.08S62,47.93,62.29,47.77Z"/><path class="cls-1" d="M50.6,5.32c.13.08.64.41.92.55C51.59,5.85,49.66,4.7,50.6,5.32Z"/><path class="cls-1" d="M45.75,45.46a.47.47,0,0,0-.09-.12S45.65,45.42,45.75,45.46Z"/><path class="cls-1" d="M52.3,6.39c.74.58.49.22-.5-.31S51.86,6.15,52.3,6.39Z"/><path class="cls-1" d="M16.66,5.39c.27-.1.48-.24.1-.11C16.22,5.47,15.87,5.66,16.66,5.39Z"/><path class="cls-1" d="M18.62,4.51c.59-.26.82-.45.13-.16C18.26,4.52,17.81,4.88,18.62,4.51Z"/><path class="cls-1" d="M53,2.85l.6.22L53.41,3l.17.07a1.38,1.38,0,0,0-.3-.14c-.13-.11-1.66-.71-1.2-.48l1,.41C53,2.84,53,2.83,53,2.85Z"/><path class="cls-1" d="M14.9,6.19l.29-.14C14.59,6.21,14.44,6.4,14.9,6.19Z"/><path class="cls-1" d="M51.6,5.85c.21-.13-.15-.21-.2-.23C51.19,5.55,51,5.51,51.6,5.85Z"/><path class="cls-1" d="M49.6,4.94c.33.2.54.29.57.25A5.79,5.79,0,0,0,49.6,4.94Z"/></g></g></svg>