<svg xmlns="http://www.w3.org/2000/svg" viewBox="0 0 224.41 82.13"><defs><style>.cls-1{fill:#010101;}</style></defs><g id="Layer_2" data-name="Layer 2"><g id="menu"><path class="cls-1" d="M177.05,2.92c-.16.17-1,1,.14,1C177.83,3.86,178.05,2.89,177.05,2.92Z"/><path class="cls-1" d="M141.66,3.65c-.57,0,1.16.77,1.52.59S142,3.66,141.66,3.65Z"/><path class="cls-1" d="M113.92,4.42c.85,0,1.07-.19,1-.51h-.54C114.14,4.05,113.9,4.24,113.92,4.42Z"/><path class="cls-1" d="M223.48,6.32c0,.55.22-.58,0,0Z"/><path class="cls-1" d="M221,1.16c-1.11.28.16,1-.8,1.44.41-.21-1.11-.55-1.62-.43-1.45.35-.07.52,0,.81-1.54-.14-.65.38-.77.67s-2-.45-1.58.28,1.3,1.11,0,1.76-3.56-.33-1.19-.13c1.32.12,0-1.17.39-1.15,0,0,1.39.3.79-.12A4.11,4.11,0,0,0,214,3.83a9.23,9.23,0,0,1-2.77,0c-.41-.15-.13-.58-.9-.56s-.83.66-1.51.57c-1.15-.16-.71-.48-2.18-.1a5.74,5.74,0,0,1-2.55-.15c-.71-.2-.61-.73-1.39-.71l.1.72c-.57,0-2-1.41-2.27-.72-.16.38-.8.31-1.55.35-.92,0-1.55.45-2.09,0-.22-.16.12-.53-.42-.57-.82-.07-.89.45-1.13.66-.43.37-3.24-.93-2.17.06.05,0-1.88-.15-1.83.26-.71,0-2.29-.81-2.21-.18a1,1,0,0,1-.59-.31c-.15.5-1.35,1-2.4.55-.45-.19-.06-.88-.91-.86s-.44.42-.51.6c-.21.62-2.34.54-2.7,0-.18-.25-.52,0-.59-.46l-.11-.79c-1.47,0-.87,1-1.25,1.36a.69.69,0,0,1-.73.14c-.94,0,0-.51,0-.66-.13-.44-1.64-.6-2.43-.54-.37,0-.79.32-1.11.25s-.49-.37-.88-.45c.31.07-.31,1.4-.43,1.61.07-.12-.46-.3-.74-.22-1,.31-.61.53-2.17.32A13.13,13.13,0,0,0,169,4c.83-.74-2.12,0-1.1-1,.35-.36.91-.31.85-.76.07-.22-.07-.49-.1-.72a5.87,5.87,0,0,1-1.58,1.31,1.78,1.78,0,0,0-.88.75c-.17.4-1.91,0-1.53.64,0-.2-.27-.36-.74-.39-.68,0-.45.19-.89.33-.71.22-.78-.9-.35-.91-.4,0-.9.45-1.31.54a6.94,6.94,0,0,1-2.61,0c-1-.18.34-.89.78-1.07-.63,0-1.09,0-1.05.36-.11-.84-2.79-1.3-1.64,0,1.89.74-1.53,1.84-2.58,1,2.28.15.08-1,1.49-1-.06-.64-1.42-.63-1.66-.06-.05.13-1.17-.13-1.47-.08s.06.72-.11.89a2.4,2.4,0,0,1-2.15.22c-.83-.2,1.37-.43,1.35-.59a14.62,14.62,0,0,0-2,.06c-.66.09-.07.5-.49.56s-1.51-.25-1.45.19c-.91-.28-1-.89-1.67-.2-.45.47-.82.35-1.63,0-2.36-.9-4-1.2-6.24-.07,1-.48-2.05-.65-2-.18-.84.88-2.66-.17-.57-.22a1.25,1.25,0,0,0-1.7-.44c-.59,0-.5.33-.48.5.53,0,1.65.36.88.54-1.3.31-1.85-.28-2.82-.25a6.14,6.14,0,0,1-3-.4,2.08,2.08,0,0,1-1.85.17,4.37,4.37,0,0,0-1-.32c-.66,0-.53.21-1,.34-1.14.29-.71-.48-1.2-.52-.92-.07-1.49-.11-1.56-.6a1.69,1.69,0,0,1-.39,1.13c-.07-.5-.11-1.64-1.77-.91a8,8,0,0,1-1.88.86c-.75.13-.43-.94-1.28-.06,0,.16-2.15-.7-2.59-.55a6.36,6.36,0,0,0-2.24,1.17c-.09-.11-.82-1.06-1-1.06s-.32.67-.68.53c-.52-.2-.12-.75-.9-1a7.18,7.18,0,0,0-2.77.22c-1.57.39,2.43-.06,2,.32a6,6,0,0,1-2,1c-.91.28-1.26-.08-1.82,0a4.3,4.3,0,0,1-1.85.27c-.75-.08-1.38-.27-2.15-.34a6,6,0,0,0-1.41,0,4.29,4.29,0,0,0-.63.27S98.43,3,98.41,2.81a2.28,2.28,0,0,0-.7-1.08c.09.65.77,2.63-1.3,2.76a14.21,14.21,0,0,1-4.92-.42c-1-.4-.77.27-1.41.19s-1.16-.83-2-.37c-.32.17-1.34,1.15-1.46.32-.87-.34-1.08.12-2,0-.19,0-.26-.12-.2-.22a4.09,4.09,0,0,0-1.47.2c-.56.17-.92-.29-1.76.13.07.45-1.62-.14-2-.16-1.17-.07-2,.22-3.11.25-1.35,0-3.64-.24-3.75-1,.08.55-.34,1.08-1.84,1a19.7,19.7,0,0,1-2.3-.38c-.92-.15-.81.45-1.24.5-.14,0,0-.91-.23-1-.43-.29-1.06.87-1.28.88s-.12-.72-.72-.7c-.32,0-.72.53-1.34.61-1.26.14-3.17.24-3.87-.35-1.23-1-.57-.75-1.78,0-.88.56-2.31-.7-2.73-.44-.08,0,1.26,1.83-.8.85-.84-.4-.64-.77-1.48-.1-.62.49-2.46-1-2.67-1.1.23.09-1.34,1.23-2.54,1.09.18,0,.33-.39.3-.48-1.31,0-1.65.77-3.25.84-.39,0-1,0-1-.24-.07-.47-1.16,0-1.36-.27-.08-.11.52-.47-.19-.56s-1.25.42-1.71.52c-1.15.24-.61-.51-.72-.78-1.15,0-.77.38-1.38.69-.36.18-.81-.3-1.52,0-.32.15-1.86.44-2,.05,0-.07-.49-1.16-.81-1s.29.47.27.62C34,4,33.39,4,32.85,4s-.17.19-.73.2c-.73,0-1.28-.14-2.06-.12-1,0-6.17.51-5.78-.32-.39,0-1.09,0-1.05.27a7.66,7.66,0,0,0-1.46.11c-.75.3-2.52.06-3.72,0-.82,0-1.63-.16-2.47-.13L14.49,4c0,.12-.11.18-.38.19-.8,0-2.87-.42-2.27.36-1.11,0-.34-.23-.78-.36A6.71,6.71,0,0,0,9,4c-.57,0-.67.65-1.33.39s-.9-.74-1.48-1C5,2.8,5.84,4,5.4,4.06l-.82,0c0,.59,0,1.23-.17,1l0,.8c0,.35,0,.84,0,1.23,0,1.22-.93.47-.89,2,.3-.12.64-1.45.71-.28a18.82,18.82,0,0,1,0,2.49c-.05.69-.2.21-.18,1.05s.42,2.86-.2,3.2c-.29.17-.5.59-.82.69,0,0-.48-.33-.41,0,0,0,.25.69,0,.84s-.29-.45-.28.22c0,.28.72,0,.72,0,.36-.05.88-.86,1.22-.48s.31-.09.49,0-.27,1.25-.29,1.33c-.1.74.21.25.25.62s-.78,2-.89,1.75c.24.49,1.65,1.33.43,1.5A10.09,10.09,0,0,0,4,25c.06.57.76,3,.23,3.11-.22.05-.31-.35-.41.06,0,1.35.25.51.52,1.06.1.2-.87,1.57-.93,1.66C4.1,30,5,34,4.76,35.23c-.08.36-.24.45-.34.8A9.41,9.41,0,0,0,4.6,38a2,2,0,0,1-.3,1.13A6.46,6.46,0,0,0,4.21,41a29.1,29.1,0,0,1,0,4.07c-.07.56-.32.57-.34,1.14a16.21,16.21,0,0,0,.42,2.12c.15,1.39-.41,3.38-.14,4.5.14.56.94,2.38.21,2.58.25.05.49.39.51,1-.6-.14-.58,1.48-1,2.37.15-.19.31-.34.4-.18.27.44-.35,1.27-.42,1.5a3.54,3.54,0,0,0,0,1.74c.14.56.74.55.77.77s-.74,2,.13,1.46c-.71.14-.52,2.35-.63,3.42-.13,1.23-.54.57-.78,1.16a5.93,5.93,0,0,1,1,.66c-.07-.29-1,2-.5,2.2-.13,0,1.31-.3.82.29a1.36,1.36,0,0,1-1.11.62,2.21,2.21,0,0,1,.92,1.79c0,.61-.48,1.12-.47,1.42s.59.52.65.87c-.14-.1-.09.47,0,1,.56-.07,1.06-.15,1.11-.13a.49.49,0,0,1,.34.73c-.11.31-.49.65-.53.87,0-.11.81-.22.89-.25.54-.17.42-.32.42-.55,0-.39,1.8-.25,2.23-.16a2.18,2.18,0,0,1,.94.47c.48.3.66-.38.87-.46,1-.39,1.49.1,1.37-.74.07.54,1.45.21,2.08.4.16.06.38.36.05.4-.73.11.06.49-.53.51a12,12,0,0,1,1.58,0s-1.57.43-1.07.63,1.62-.58,1.72-.68c.48-.44-.07-.69,1.12-1,1.8,0,3.19.72,4.91.44a10.08,10.08,0,0,1,2.28-.51c.27,0-.17.6.17.76a.56.56,0,0,0,.86-.43c.94-1,.78.34,1.21.33s.46-.49.39-.62c1,.41,2.66-.12,3.88-.07.86,0,3.64.63,3.73-.13.32.52,3.34-.15,4.15-.12a5.9,5.9,0,0,1,2.45.41c.58,0,1.13.21,1.63,0,.41,0,1.62-.12,1.67.19a18.33,18.33,0,0,1,2.67.08,5.33,5.33,0,0,1,.73.31c.66,0,.82-.24,1.59-.28,1.21-.06,2.37-.43,3.62-.44.86,0-.61.7-.59.83S54,77.83,54,77.85a4.4,4.4,0,0,1,1.37-.47c.33,0,.78.21,1.28.19-.05-.33,2.12-.47,2.18-.06.49.33-.2.95.65,1.28-.21-.08,0-.75.42-.82a6.39,6.39,0,0,0,1-.1c.32-.13.29-.44.66-.6a4,4,0,0,1,2.7.09c1.85.35,1.1-.39,2.47-.43-.5,0-.39.86.87.82.61,0,4.37.07,4.31-.36.51-.25,2.2.12,2.25.42,0,0-2,.8-.75.8.83,0,1.26-1.13,1.49-1.36a.68.68,0,0,1,1.06,0,2.75,2.75,0,0,1,.46.63c.19,0,.53-.46.8-.54s1,.26,1.2.32c.94.35.92-.16,1.42-.44.94-.51.72.12.85.32s2.43.14,2.11-.38c.28.79,4,.57,5.38.69a8.92,8.92,0,0,0,1.68.18c.68-.2.47-.89,1.67-.93.23.36-1.59,1.73.24,1.68-.15-.59.26-1.16.78-1.71-.08.09.32.6.7.59s.94-.62,1.37-.72c.74-.18,1.68.5,2.69.51,1.23,0,1.17-.38,2.21-.53a4.57,4.57,0,0,1,2,.09c.36.14.44.84.69.86.77.06,2-.74,3-.44a5.13,5.13,0,0,1,1.35,1.33c.45-.23.15-.58,1-.83.64-.2,3.05-.28,3.18-.57.5-1.22,1.12,0,1.2.63.72,0,.42-.15.5-.4s1.25-.13,1.55-.15c1,0,1.52-.27,2.47-.3.56-.13.89-.08,1,.14.53.17,1-.09,1.31-.06s0,.7-.08.7c1.44,0,1-1,3-.68.75.14,1.29.38.65.7-.42.14-1.28.64-.06.49a9.9,9.9,0,0,0,2-.62,13.69,13.69,0,0,1,3.13-.48l3.41-.22,2.07-.15.67-.06a.87.87,0,0,0,.25,0c-.11.35-.44,1,.46,1.37-.28-.11.95-.86,1.12-1a1.74,1.74,0,0,1,1.68-.33c.83.22,2.33-.18,3,.12.24.11,0,.5.51.49.69,0,.77-.61,1.12-.79-.09,0,.27.46.54.48.05-.09.18-.14.38-.16a2.41,2.41,0,0,1,1,.33,2.75,2.75,0,0,1,1,.69c.14-.29.86-.47,1.56-.55,1.28-.13,1.36.15,1.73.56a5.52,5.52,0,0,0,2-.81c.47-1,1.31-.37.64.33-.24.57-.65.74.64.71.31-.15,0-.7.56-.9s.63.5,1,.49a1.17,1.17,0,0,1,.14-.42,1,1,0,0,1,.89-.45c.72-.18,1.63-.31,1.12.21s.94.35,1.37.14c1-.52.23-.25,1.34.18-.54-.21.35-.49,1.14-.18a9.65,9.65,0,0,0,1.56.19c.22,0,.21-.21.63-.25,1-.08,1.85.09,2.4-.27a1,1,0,0,1,1.46.64c-.14-1,2.87-.22,2.26.09,1.31-.65,0-.62,1.5,0-.54-.21,1.27-.51,1.48-.61.37-.19-.12-.3.64-.32.61.11,1.68.32,1.73.67s.09.24.58.23c.67,0,.4-.33.57-.53s2.75.94,2.08,0c.65,0,.67.28.53.54a1.92,1.92,0,0,1,1.72-.12c.08.58.62.33.92,0s-.13-.73,1.38-.34c.79.2,1,.4,1,.78-.12-.82,1.63-.33,2.61-.82.42-.44,2.31-.46,3.17-.42a2.64,2.64,0,0,1,1.12.2c.45.32.93.06,1.64.06a10.25,10.25,0,0,1,1.25.2c1,0,.1-.61.46-.62.14,0,.76.45,1.09.5a5.86,5.86,0,0,0,2-.13c1.27-.13.34.76,1.17.82,2.14.18,1.15-.46,1.89-.92a12.81,12.81,0,0,1,4-.08c.66.17,1,.48,1.83.09.62-.31.91-.12.58.22.73.32,2.61.49,2-.17-.33-.34,3-.22,3.44-.19,1.25.06,0,.7.31.83.12,0,2.63-.63,3.33-.58.88.07.61.32.93.59.5.43,1.25-.67,1-.66.48,0,.6.7,1.33.68s-.27-.83.76-.86c0,.29-.21.73.65.71.32-.07.36-.29.41-.48a.52.52,0,0,1,.23-.39c.11,0,.24.1.44.23a2.49,2.49,0,0,0,.67.34l.38.08a3.14,3.14,0,0,0,.07-1c0-.2-.06-.58-.29-.58-.52.07,0-1-.05-1.63-.18,0,.2-1.16.2-1.5,0-1.22-.2-2,.35-2.42.18-.13.09-1.09.52-1.15s.61-2,.27-2c-.05,0-1,2.46-.56.36-.16-.43-.47-.41-.5-.94-.09-1.65.17-1-.51-1.12-.36-.06-.31-1,0-1.21.58-.53,1.51-.07,2.16-.17-.06-2.28-2.23.24-2.2-1.67,0-.73.6-5.21,0-5.62.85.07-.19-2.08-.13-3.13s1.11-3.66.77-4.44c-.72-1.63-.17-1.82.58-1.93.41-1.06-1-.95-1.23-.92a3.6,3.6,0,0,0,1.08-3.29c-.15-.6-.41.74-.61.77s.11-1.45-.18-1.57-.36.69-.41-.17a5.32,5.32,0,0,1,.2-1.77.76.76,0,0,1,.7-.63c.29,0,.71-.89.21-.82-.16,0-1.42,1-1.27-.31.05-.47.17-1.06.26-1.49,0-1.3.68-1.13,1-1.33.79-.44-.33-.92-.37-1.51s.21-1.65-.3-1.58c-.77.11,0-.86.11-1.21a4.84,4.84,0,0,0-.1-2.24c-.14-.81.12-.6.11-1a10.46,10.46,0,0,1-.19-2.14,7.46,7.46,0,0,0,.23-2.35c-.1-.19-.33.6-.4-.33,0-.43-.2-2.68.15-2.73s-.14-3.14.14-3.84c.17-.3.73-1.36.47-2s-.63.08-.79-.81c-.11-.62,1.09-3.84.14-3.71A5.85,5.85,0,0,1,220,8.6c.34-.77-.11-.45-.2-.72s1.9-1.66,2-1.73,2.06-.81,1.68.17c0,.34-.95,3-.8,3.07s.2-.5.39-.28a1.25,1.25,0,0,0,.34.89c.27.25.9.22.87-.73.08,2.82-.05,5.66-.06,8.49,0,2.23,0,4.48,0,6.71,0,.45-.19,1.34-.18,1.61,0,.77.68,2.38.2,3-.32.42-1.12-1-1.25-.64,0,0,.22,2,.21,1.95.23.58.58.46.88.42-.47.07-.34.89-.19,1.28.24.59-.05.66.3,1s.16,1.13.05,1.56a3.38,3.38,0,0,0-.32,1.67c.09.51.4.8.26,1.44s-.69,1.51-.32,2.3a1.63,1.63,0,0,1,.29,1.33,6.32,6.32,0,0,1-.58,2.63c-.85,1.11.36.72.55,1.62a3.81,3.81,0,0,1-.06,1.47c-.07.35-.72,1.73-.72,1.79,0-.1,1.46,1.11.67,2.15-.1.67-.17,1.14-.23,1.85a16.4,16.4,0,0,1-.75,2.05c0-.29.8.41.86.51a2.62,2.62,0,0,1,.28,1.58c-.5.07-.21,2.89.26,2.69-.73-.24-.28,5.43-.25,6.32,0,1.14-.45,1.3-.41,2.51-.06.32-.23.93-.06,1.22s.71.53.71.8c0,.06-.72.1-.49.83,0,.14.53,1.29.33,1.43-.39.28-.37.74-.27,1.29.05.27.11.57.17.88a3.55,3.55,0,0,1,.06.47v.24c0,.14,0,.29,0,.43,0,1.32-.2.85-.36,1.51a27.9,27.9,0,0,0,.19,3.82h-.25a23,23,0,0,1-4.67-.39,1.73,1.73,0,0,0-.84-.06,1.1,1.1,0,0,1-.36.19,20.31,20.31,0,0,1-6.84.19c-1.58-.26-.57.37-1.91.36a2.25,2.25,0,0,1-1.84-.68c0,.25-.1.5-.65.55s-1.28-.2-2.06-.18-.52-.54-.74-.73-1.44.69-2,.77c-.85.11-3.06.29-3.26-.22,0,.56-2.75.44-3.52.39a8.93,8.93,0,0,1-2.48-.36c-1.28-.5-1.18.45-2,.48a8.78,8.78,0,0,1-1.8-.3c-.63-.08-.29.17-.81.19-1.05,0-.68-.21-1.3-.51-1.08-.52-2.08-1.18-3.12-1.78a4.48,4.48,0,0,1,.76,1.51c.18,1.42-.66.05-2,.09,0,0,.89.63.54.7-.82.17-2.41-.53-3.45-.5a4.14,4.14,0,0,1-1.74.18c-.3,0-1.2-.68-1.46-.36s-.06.63-.82.65-1-.36-.91-.57c.06.38-2.66.45-2.72.07.63,1-5,.38-6.17.41a8.06,8.06,0,0,1-2.47-.09c-.15-.09-.31-.43-.65-.42a.48.48,0,0,0-.48.61c-.22-.4-1.43-1.4-2.11-1.05-.22.1,1.2.84-.08.87-1,.48-1.33-.44-2.25-.42.42,1.27-1.68,0-1.73-.67-1,0,0,1-.79,1.16a10.68,10.68,0,0,1-3.74-.07c-.5-.11-1.35-1.14-1.82-.85s.28.73,0,.9c-.89,0-1.83.08-2.72,0a3.08,3.08,0,0,1-1.56-.44c-.69-.29-.66.34-.89.5-1,.63-1.46-.76-1.61-.76a2.92,2.92,0,0,0-.9.39,4,4,0,0,1-2.33.17c-.91-.11-.61.16-1.32.16a14.54,14.54,0,0,1-2.44-.3c-.37-.06-1.24.43-2.12.43-.42,0-.47-.06-.5-.22-.64,0-1.44,0-2.1.05-.85,0-.34.06-1-.24s-.52.35-.79.46c-1.73.7-1.51-1.11-1.74-1.35s-.36,1.11-.42,1.14c-.35.2-2.57.34-2.41-.09,0-.09.28-1.5-.37-1.29s-.54,1.67-1.76,1.67c-.46,0,.08-.3-.61-.28s-1.27.14-1.32-.21a9.54,9.54,0,0,0-1.56.45c-.5.09-1-.38-1.71-.36.08.57-2.69-.59-2.77-.56-.46.24-.34.5-1.37.53a4.23,4.23,0,0,1-1.32-.16c-.08,0-1.11-.61-1.17-.51-.2.34.37.77-1.1.68-1.19-.08-1.88-.72-2.64.07,0,.34-.94-.3-1.63,0,0,.24-1.67.35-2,.37a6.93,6.93,0,0,1-2.48-.11,19.42,19.42,0,0,0-4,0c-1.39,0-3,0-4.37-.15-.27,0-2.31-.54-2-.72-.47.24.7,1,.23,1.14,0,0-.62-.16-1.22-.34a8.51,8.51,0,0,1-1.21-.4,2.56,2.56,0,0,0-1.42.55c-.79.42-1.17-.2-1.83-.21-1.54-.05-1.74-.24-1.75-.93.23,1.1-1.08,1-3.33,1.06-2,0-2.57,0-2.65-.89a3.17,3.17,0,0,0-.53.8c-.19.34-.73.17-1,0,.3,0-1.51,0-1.1.13-.23-.09-.85-.68-1.09-.67s.25.72-.65.74a4.26,4.26,0,0,1-2.12-.64c.7.27-1.55.41-1.57.45-.12.28-.31.18-1.09.2-.25-.12.11-.58.13-.57s-4.18.38-4.79.35-1.43-.42-1.39-.09a6.3,6.3,0,0,1-3.43.25c-.18,0-1.89-.06-1.64-.27s-.21-1.26-.8-1,0,1-1,1.24-1.53-.62-2.26-.6c0,0,.65.47.28.56a10.06,10.06,0,0,1-2.95,0,2.63,2.63,0,0,0-1.74,0,8.67,8.67,0,0,1-2.69,0c-.85-.16-.73-.39-1.5-.09a4.64,4.64,0,0,1-2.34,0c-.33-.08-.89-.51-1.34-.43-.82.15-1.05.62-2,.69-.06-.41-.59-.14-1.08,0s-.72-.26-1-.45c.4.36-2.77.77-3.39.68-.09,0-2.77-1.51-3-.84-.08.2.94.59-.39.54a11.93,11.93,0,0,1-2.06-.66c.05,0-.11.61-1.07.63s-.23-.26-.39-.32a5.41,5.41,0,0,1-1.29.06c-.45-.08-1-.62-1.46-.45-.86.28-2.26,1.41-3.66.79-.3-.13-.29-.73-.73-.71-.78,0-.62.64-1.15.82-1.47.49-2.39-.22-3.28-.58a3.43,3.43,0,0,0-1.63-.28c-.61.09.17.45-.1.64-1,.65-2.29-.22-3.28-.22.05.31-.84.26-1.25.27a13.62,13.62,0,0,1-1.7.24l-.91,0c-.34,0-.63,0-.89-.09a8,8,0,0,1-1.21-.27,8.38,8.38,0,0,0-2.15-.51c-.68-.07,0,.36-.08.33-.17.29-.48.4-1.29.5,0-.23-.07-.52-.12-.9-.26-2.42.48-1.35.81-1.9,0-1-.33-.71-.5-.58,0-.75.06-1.34.11-1.92l.06-.89c0-.22,0-.38,0-.61s-.26-.32-.33-.69a6,6,0,0,1,0-2.12c.06-.33.45-1.71.08-1.66.05,0,.66-.17.48-.54-.27-.53-.89.09-.83-1.45a1.56,1.56,0,0,1,.24-.81A6.5,6.5,0,0,0,.32,66c0-1.37-.32-3,.08-4.28.17-.58.8-.19.64-.88a22.85,22.85,0,0,1-.45-2.75c-.37.05-.38-2.91-.3-3.47s1.1-.31.68-1.1C.83,53.24.33,53,.31,52.45s.46-.21.44-.93c0,.08-.27-1.05-.3-1.31-.09-1-.15-2-.19-3s-.08-2,0-3c0-.75.19-1.26.17-2a13,13,0,0,1,0-1.4c0-.36.43-.14.54-.42s-.56-2-.62-2.65a17.11,17.11,0,0,1,0-3.12,3.28,3.28,0,0,1,.21-1.07c.12-.19.53.31.52.05C1,33,.29,32.79.2,32s.28-.6.43-1A6.21,6.21,0,0,0,.8,28.47C.67,27.41.09,27.09.46,25.84c.19-.63.66-1.64.28-2.41s-.38.37-.42-1.08c0-.71,0-1.37,0-2.07,0-1.16-.14-6.49.66-6.49-.85.42-.52-3.44-.3-4.32.36-.05.45-1.06.44-1.7,0-.95-.37-.84-.53-1.43L.54,6.07l0-.14,0-.25c0-.32-.07-.64-.09-1a22,22,0,0,1,0-2.2c0-.62.06-1,.2-1.07C.55,1,.52.49.51,0c.3,0,.62,0,1,0,.94.09,2,.22,2.92.34L5.79.54l1,.09C7.52.68,8.39.47,7.93.11,9.27.08,10.61,0,12,0c1.06,0,2.11.09,3.17.11.65,0,1.3,0,2,0a7.47,7.47,0,0,1,.78.19L24.38.14a7.67,7.67,0,0,1,2,.09C27.53.45,28.5.05,29.6.2A10.66,10.66,0,0,0,32,.41l4.14,0a48.47,48.47,0,0,1,5.4.11c.64.08.63.34,1.48.17.27-.06,1.64-.8,2-.53.78.56.73-.07,1.66-.05,1.12,0,.33,1.05,1.8,1,.13-.34-.72-.66.27-.72.8,0,3.65-.31,3.5.32C52.12.38,53.23,0,54,.23c.42.11.26.31.67.43a4.82,4.82,0,0,0,2,0A5.61,5.61,0,0,0,58.17.17a9.67,9.67,0,0,1,1.31.21c.61,0,3.6-.29,3.66.14,1.24-.72,1.53-.24,2.75.16-.06-.4,6.73-.53,7.5-.26a9.76,9.76,0,0,0,2.29,0c.93,0,1,.5,2.29.23A7,7,0,0,1,79.69.3c.62,0,.28.19.94.21a4.14,4.14,0,0,1,2.18.58c-.12-.05.26-.52.54-.53s1.08.55,1.4.65S85,1,85,.88A3.65,3.65,0,0,1,86.72.32c1.27-.21.85.22,2.14.21,1.09,0,2,.23,2.94.13A117,117,0,0,1,104,.35c2.9,0,6,.05,8.92.12,3.29.08,6.56.18,9.8.33.73.28,1,0,1.91-.05A6.06,6.06,0,0,0,127,.44c-.07-.49.68.1.75.12a15.75,15.75,0,0,0,3.15,0c.4,0,.5.06.52.22.06.38.28.42,1,.54,1.48.25,0-.89.21-1s2.07.31,2.47.32c.57,0,.47-.27,1.16-.19.23,0,1.56.5,1.81.24s-.82-.76.58-.49a8.67,8.67,0,0,0,2.05.26c2.81,0,5.59-.18,8.4,0,.67,0,1.1.2,1.73.24a15,15,0,0,0,2.35-.14,55.5,55.5,0,0,1,5.92-.19,48.2,48.2,0,0,1,5.92.17,3.56,3.56,0,0,0,1.76.13A30.13,30.13,0,0,1,170,.47c1.71-.07,3.38.06,5.1.07,2,0,5.45-.34,7.12.31.7.27,1.16.51,1.09,0s1.64-.06,2.14-.3c.69-.35,2,.09,2.75.16,1,0,1.45.1,2.41.12,2.93,0,5.88-.11,8.8-.18,1.1,0,3.68-.26,4.63.11,1.31.24.83.15.88-.16a10.8,10.8,0,0,1,2.39.07c1.11,0,2.2.18,3.3.15.38,0,1.08-.05,1.12.21a5.06,5.06,0,0,0,1.5-.22c2-.32,4.11.06,6.11,0C219.87.77,222.57.76,221,1.16ZM36.48,81.35a.37.37,0,0,1,.13.07Z"/><path class="cls-1" d="M219.29,56.65a.16.16,0,0,0-.15,0Z"/><path class="cls-1" d="M162,81.65a.34.34,0,0,0,0,.12A.41.41,0,0,0,162,81.65Z"/><path class="cls-1" d="M34.71,77a.24.24,0,0,0,0,.19A.43.43,0,0,0,34.71,77Z"/><path class="cls-1" d="M220.28,4c-.09-.49-.47-.68-.48.07S220.3,4.86,220.28,4Z"/><path class="cls-1" d="M222.94,4.21c0-.39-.37-.71-.36-.33,0,.14.22,1.55.35,1.22A5.28,5.28,0,0,0,222.94,4.21Z"/><path class="cls-1" d="M221.72,3.84c.42.2.46-.63.21-1.12l-.82.11C221.53,2.78,221.69,2.8,221.72,3.84Z"/></g></g></svg>