<svg xmlns="http://www.w3.org/2000/svg" viewBox="0 0 78.83 56.98"><defs><style>.cls-1{fill:#010101;}</style></defs><g id="Layer_2" data-name="Layer 2"><g id="menu"><path class="cls-1" d="M76,18.07c.46-.37.71-.61.64-.62C76.51,17.6,76.19,17.91,76,18.07Z"/><path class="cls-1" d="M30.83,15.59c.38.2.31.08.05-.06S30.49,15.38,30.83,15.59Z"/><path class="cls-1" d="M41.55,13.27c-.17.34-.15.43,0,0S41.69,13,41.55,13.27Z"/><path class="cls-1" d="M15.9.61c-.18-.32-.26-.36-.05,0S16.05.88,15.9.61Z"/><path class="cls-1" d="M65.76,10l-.17-.24C65,9.15,65.76,10,65.76,10Z"/><path class="cls-1" d="M33.85,17.17c.07-.09-.92-.44-.25-.12Z"/><path class="cls-1" d="M45.92,8.13c.09-.17-1.19.85-.48.35C45.45,8.5,45.73,8.25,45.92,8.13Z"/><path class="cls-1" d="M64.3,8.47c0-.07-.77-.67-.22-.19Z"/><path class="cls-1" d="M65.45,34.06c.09.08.43-.94.12-.26Z"/><path class="cls-1" d="M66.77,31.28l-.08.31C67,30.64,67,30.4,66.77,31.28Z"/><path class="cls-1" d="M45.09,53.68c-1.47.48-.13.15.51-.15A3.46,3.46,0,0,0,45.09,53.68Z"/><path class="cls-1" d="M47,53a15,15,0,0,0-1.6.69C46,53.43,46.29,53.34,47,53Z"/><path class="cls-1" d="M44.3,54.12c-.13.05-.4.18-.53.25C44.12,54.26,44.31,54.17,44.3,54.12Z"/><path class="cls-1" d="M66.79,30.82c-.2.53-.1.39,0,0S66.92,30.47,66.79,30.82Z"/><path class="cls-1" d="M18,55.42s0,0,0,0A0,0,0,0,1,18,55.42Z"/><path class="cls-1" d="M74.87,19.28c.42-.33.66-.61,0-.13C74.71,19.32,74.57,19.51,74.87,19.28Z"/><path class="cls-1" d="M8.63,20.47c.06.43.16.38.06-.1.05.24,0-.31,0-.18C8.62,19.87,8.54,19.72,8.63,20.47Z"/><path class="cls-1" d="M45.56,53.34c-.27.14-.73.45.07.12C45.63,53.44,45.62,53.31,45.56,53.34Z"/><path class="cls-1" d="M18.25,55.42c-.13,0-.23,0-.24,0,.18,0,.68.17.83.17s-.12-.08-.45-.14C18.46,55.45,18.18,55.4,18.25,55.42Z"/><path class="cls-1" d="M32.79,16.72c.45.17-.07-.1-.2-.13s0,.07.12.12S33,16.81,32.79,16.72Z"/><path class="cls-1" d="M76.78,11.06c-.22.35-.41.7-.67,1C76.35,11.78,76.57,11.4,76.78,11.06Z"/><path class="cls-1" d="M21.1,43.65c-.12.06-.17.16.1,0S21.23,43.59,21.1,43.65Z"/><path class="cls-1" d="M19.43,44.28a2.85,2.85,0,0,0,.9-.41C19.87,44,18.13,44.92,19.43,44.28Z"/><path class="cls-1" d="M12.68,29.14c-.31-.33-.28-.19-.07,0S13,29.43,12.68,29.14Z"/><path class="cls-1" d="M71,16.61l.25-.05S70.74,16.61,71,16.61Z"/><path class="cls-1" d="M73.54,14.9l-.12.1c-.14.13-.3.25-.39.35C73.57,15,73.92,14.52,73.54,14.9Z"/><path class="cls-1" d="M77.56,15.88c-.17,0,.29,0,.42-.07l.77-.14c-.12.12-.06.08.08-.05C77.27,15.83,76.41,16.07,77.56,15.88Z"/><path class="cls-1" d="M71,16.58c.11,0-.12,0,0,0Z"/><path class="cls-1" d="M73.16,16.56c.57,0,.65-.08.29-.08C73.28,16.51,73.09,16.54,73.16,16.56Z"/><path class="cls-1" d="M17,45c-.36.1-.45.2,0,.08S17.29,44.93,17,45Z"/><path class="cls-1" d="M66.08,31.77c.19-.38.13-.27.09-.23-.12.27-.25.55-.37.83Z"/><path class="cls-1" d="M44.28,10.11l-.41.4C43.11,11.49,44,10.43,44.28,10.11Z"/><path class="cls-1" d="M72.65,20.38c.15-.11.3-.23.23-.21C72.39,20.48,72.33,20.54,72.65,20.38Z"/><path class="cls-1" d="M45.13,9.1c-.06.1-.53.63-.67.82a13.92,13.92,0,0,1,2-1.79C45.37,9,45.32,8.93,45.13,9.1Z"/><path class="cls-1" d="M73.29,20.12c-.11.08,0,0,.13-.07h0l0,0C74.22,19.36,72.42,20.6,73.29,20.12Z"/><path class="cls-1" d="M66.59,30.59l0,.07C66.51,30.86,66.49,31,66.59,30.59Z"/><path class="cls-1" d="M24.27,56.66c.18,0,.37,0,.3,0C24,56.57,23.91,56.58,24.27,56.66Z"/><path class="cls-1" d="M15.25.24s0,0,0,0,0-.05-.05-.06c-.14-.22.26.53.34.59A2.64,2.64,0,0,0,15.25.24Z"/><path class="cls-1" d="M65.13,33.9a.15.15,0,0,1,0-.07l-.24.5Z"/><path class="cls-1" d="M64.91,34.73l.14-.25C65.07,34.3,64.5,35.3,64.91,34.73Z"/><path class="cls-1" d="M33.45,17.24c-.27-.13-.28-.1-.29-.08C33.64,17.4,33.89,17.42,33.45,17.24Z"/><path class="cls-1" d="M65.28,33.93a2.78,2.78,0,0,0,.61-1C66.13,32.44,65.35,33.75,65.28,33.93Z"/><path class="cls-1" d="M41.72,13.63c.31-.6-.41.55-.34.59C41.29,14.53,41.58,13.87,41.72,13.63Z"/><path class="cls-1" d="M76,16.35l-.15,0Z"/><path class="cls-1" d="M49,51.62l.19-.11-.4.2S48.76,51.74,49,51.62Z"/><path class="cls-1" d="M9.77,16.43l.15,0c-.35-.26-.62-.32-.71.21a.25.25,0,0,1,.09,0C9.4,16.35,9.56,16.33,9.77,16.43Z"/><path class="cls-1" d="M65.12,9.85l-.54-.54c-.42-.41-.84-.75-.82-.77a1.32,1.32,0,0,1-.32-.2l0,0A15.45,15.45,0,0,1,65.12,9.85Z"/><path class="cls-1" d="M65.54,10.31l-.27-.3c.11.13.21.26.32.38l0,0Z"/><path class="cls-1" d="M66,10.64l0,0C65.92,10.49,65.92,10.51,66,10.64Z"/><polygon class="cls-1" points="73.64 14.63 73.64 14.62 73.64 14.62 73.64 14.63"/><path class="cls-1" d="M13.94.68h0l0-.05C14.61-.23,15,0,15.56.87,15.07,0,14.7-.35,14.08.45c0-.06,0-.09,0-.07a.87.87,0,0,0-.15.29l0,.07h0A.21.21,0,0,1,13.94.68Z"/><path class="cls-1" d="M16.64,32l-.48,0-.32,0A2.66,2.66,0,0,0,16.64,32Z"/><path class="cls-1" d="M28.94,56.87s0,0,0,0H29l.19,0a5.09,5.09,0,0,0,1.35,0,2,2,0,0,0-.47-.06C29.71,56.89,29.33,56.88,28.94,56.87Z"/><path class="cls-1" d="M76.68,17.14c-.24.11-.47.22-.69.34a8,8,0,0,1-2,1.36,15.85,15.85,0,0,0-1.4,1.32,11.55,11.55,0,0,0,3.36-2.41c-.65.73.17,0,.87-.66l0,0C76.68,17.16,76.66,17.17,76.68,17.14Z"/><path class="cls-1" d="M74.93,10.94l-.26,0C74.17,11.09,74.44,11.08,74.93,10.94Z"/><path class="cls-1" d="M78.14,15.94a.06.06,0,0,1,0,.08.47.47,0,0,0,.12-.13Z"/><path class="cls-1" d="M78.13,16c-.36,0-.37,0,0-.07a19.23,19.23,0,0,0-2.12.41c.93-.06-6.55,1-5.37.22a10.43,10.43,0,0,0,3-2l0,0,0,0A11.76,11.76,0,0,0,75.85,12c2.68-3.94-4.33,1.54-9.78-1.34l.05.07c0,.08.11.15.16.24a3.11,3.11,0,0,1-.26-.34c-.14-.07-.27-.15-.4-.23l.35.42c-.12-.15-.25-.29-.38-.44a7.66,7.66,0,0,1-2.12-2l-.37-.29.34.25c-.15-.21-.3-.42-.44-.65-1.4-.87-3.22-2-2.69-1.55C53,2.41,46.18,7.36,42.59,12.43a14.27,14.27,0,0,0-1.94,5.94c.05-.47.12-1.05.18-1.44a18.16,18.16,0,0,1,1.05-3.44c-1.48,2.41-2.19,4.7-1.81,6a17.75,17.75,0,0,1-3.61-.7l.08,0-.17-.07a21.89,21.89,0,0,1-5-2.28,40.44,40.44,0,0,1-8.92-6.58,43.86,43.86,0,0,0,8,6c-.36-.24-.72-.49-1.07-.75a.53.53,0,0,1-.14-.11c-.67-.5-1.32-1-1.94-1.57.41.3,1.13.56.22,0,.19.08-.69-.5-.65-.55s.07.12.19.24a.16.16,0,0,0,.06.13c-4.88-4.28-8.46-9.52-11-11.6l.07.09c.16.31.1.25-.16-.17l0,0c-.13-.25-.26-.47-.37-.66.11.19.22.41.35.64a2.76,2.76,0,0,0-2-.77,7.12,7.12,0,0,0-.48.83c0-.07.09-.18.07-.16.14-.26.27-.48.39-.67C13,.91,12.31,2,11.76,4.26,10.27,7,10.63,14.61,14.49,18.61a12.89,12.89,0,0,1-1.28-.48l-.45-.34a9.72,9.72,0,0,0,.93.41c-.27-.16-.43-.17-.45-.24a3.07,3.07,0,0,0-.5-.19,5.33,5.33,0,0,0-2.82-1.36c.32.23.7.62,1.06.86-.51-.34-.91-.7-1.21-.84a1.18,1.18,0,0,0-.47.15,2.11,2.11,0,0,0-.12.67c0-.05,0-.12,0-.22a2.18,2.18,0,0,1,0-.41c-2,1.39.6,9.33,4.19,13.23h0c-.08-.15,1.29.92.79.67,0,0-.37-.23-.61-.42A5.88,5.88,0,0,0,16.82,32a.55.55,0,0,1-.18,0c.07,0,.07,0,.07,0s-1.28,0-.87,0c-2.53-.34-6.29-3.08-4.26,1.43a16.23,16.23,0,0,0,5.72,8.16h0c-.33-.18-.2,0,.28.27.19.11.22.1.16,0a10.14,10.14,0,0,0,4.15,1.66c-.87.58-8.63,3-6.18,1.9-2.56,1-9.2.81-8.16.68a7.49,7.49,0,0,1-1.46-.07c.08,0,.15,0,.14.06A1.94,1.94,0,0,1,5.67,46c-3-.47-6.52-2-4.82-.46.88.78.45.46-.12,0A37.71,37.71,0,0,0,8.09,51c-.11-.1-.14-.17.19,0s.27.21.19.2c.56.3,1.13.6,1.73.88.2.44,1.52,1.05,3.13,1.64a1.07,1.07,0,0,1-.19-.16c0-.12.63.24.68.33C16.88,55,20.65,56,20,55.67a32.8,32.8,0,0,0,5.53,1c-.07,0-.05,0,.25,0s.36.05.22.07c.68.06,1.37.11,2.08.13,0,0,0,0,0,0s.19,0,.27.06h.59a7.22,7.22,0,0,1,1.16,0c.72,0,1.45,0,2.19-.09-.95.19.92,0,.79-.06A38.73,38.73,0,0,0,38.23,56c-.28.09-.26.13.33,0,.18-.07.3-.12.28-.13a39.14,39.14,0,0,0,4.55-1.37c-1.41.26,1.7-.58.35-.26l1.33-.64c-.31.15-1.83.7-.68.23.27-.09,1.74-.63.39-.19a9.33,9.33,0,0,0,2.89-1.3c-.15.08.2-.13.16-.11.32-.15.61-.31.92-.47a3.57,3.57,0,0,1,.45-.28s0,0-.05.08c4.64-2.45,8.13-5.95,12-10.39-.53.35.72-1.21-.07-.06a38.46,38.46,0,0,0,3.85-6.73,9.65,9.65,0,0,1-.52.89c.28-.51.54-1,.8-1.56a.28.28,0,0,0,0,.17l.66-1.46-.11.22c.17-.37.32-.73.48-1.1,0,.07,0,.06,0,.05l.39-.88a2.7,2.7,0,0,1,.08-.31,9.2,9.2,0,0,1-.37.89c.19-.46.37-.92.54-1.39-.09.27-.16.51-.22.72v0c1.74-3.91,3.46-7.7,6-10.43-.7.39-1.39.76-2,1.18A19.19,19.19,0,0,1,74,18.84a11.91,11.91,0,0,1,2-1.36c.18-.35-.6-.48-3.07-.48,2.08-.24,4.39-.61,4.57-.59a5.63,5.63,0,0,0-.81.73l.07,0,.22-.17-.17.15c.25-.11.49-.21.75-.3.44-.41.63-.65.64-.77C78,16.2,77.77,16.39,78.13,16Zm-66-12a12,12,0,0,1,.63-1.24c-.17.35-.33.71-.47,1.08C12.41,3.21,11.6,5.62,12.08,4.06Zm-.36,1.33s.17-.5.15-.43l0-.1q-.21.66-.36,1.35C11.6,5.9,11.64,5.69,11.72,5.39Zm-.47,1.32c.05-.2.14-.47.07,0S11.18,7.09,11.25,6.71Zm0,.89c0-.27.06.28.12-.12a13.92,13.92,0,0,0-.09,2.23C11.2,9.06,11.21,8.24,11.22,7.6Zm-.12,2.9c.13.36.24.58.19-.2C11.42,11.09,11.41,11.86,11.1,10.5Zm.48,1.78c0-.07,0,0-.05-.06s0-.12,0-.32l.12.55C11.61,12.39,11.6,12.33,11.58,12.28Zm.18.72c0-.11,0-.23-.07-.34.09.35.19.7.31,1A2.84,2.84,0,0,1,11.76,13Zm.87,2.25c-.22-.08-.41-.87-.46-1.07C12.31,14.54,12.46,14.9,12.63,15.25Zm.12.6s-.09-.17-.06-.11a2,2,0,0,1-.23-.48C12.53,15.34,12.9,16.07,12.75,15.85Zm.68.85a4.06,4.06,0,0,1-.78-1.4,15.3,15.3,0,0,0,1,1.8A2.64,2.64,0,0,1,13.43,16.7ZM14,18c0-.05-.06-.12,0-.12C14.22,18.17,14.22,18.26,14,18Zm.24-.1c-.2,0-.11-.14-.26-.36l.36.46A.93.93,0,0,0,14.28,17.93Zm-1.17.42s0,0,0,0l-.38-.17C12.84,18.26,12.85,18.24,13.11,18.35Zm-3.94-.77c0,.37-.06.75-.07,1.12C9.11,18.4,9.14,17.93,9.17,17.58Zm-.29.71c0,.61-.05,1.11-.07.33C8.8,18,8.91,17.82,8.88,18.29Zm0,2.1s-.05,0-.08-.3C8.79,18.91,8.92,20.32,8.88,20.39ZM9,19.54c0-.37,0-.28.05.3C9.05,19.91,9,19.72,9,19.54Zm.09,2c0-.18,0-.37,0-.29S9.28,22.35,9.11,21.56Zm.1-.62A27.65,27.65,0,0,0,10,24.2,17,17,0,0,1,9.21,20.94ZM13,29a20.14,20.14,0,0,1-1.7-2.25C12.39,28.29,14.31,30.31,13,29Zm2.4-9.82h0S15.35,19.13,15.37,19.14ZM15.23,19h0a3.74,3.74,0,0,1-.51-.55C14.88,18.62,15.05,18.81,15.23,19Zm-.86-.15.15,0C15.11,18.92,14.88,19.06,14.37,18.84ZM4.79,45.94c.67.2-.26,0-.3,0S4.47,45.89,4.79,45.94Zm-2.92-.52c.44.07,1,.26,1.57.41-.72-.16-1.44-.35-2.13-.56ZM1.63,46a4.87,4.87,0,0,1-.51-.5c.47.44.94.87,1.43,1.29C2.24,46.52,1.93,46.26,1.63,46Zm3.19,2.89c-.31-.24-.68-.58-.19-.21C4.93,48.9,4.84,48.86,4.82,48.88Zm1.34.68a27.21,27.21,0,0,1-2.95-2.23A40.19,40.19,0,0,0,6.84,50Zm7.21-3.49c.53-.06.83-.07.28,0S13.37,46.1,13.37,46.07Zm-.57.07c.53,0-.06.07-.29.08C12.51,46.2,12.5,46.17,12.8,46.14Zm.27.15v0C12.86,46.35,12.57,46.35,13.07,46.29Zm-2.85.21h.26a25.85,25.85,0,0,1-2.78-.06C8.59,46.51,9.33,46.49,10.22,46.5ZM8.75,51.17l-.87-.53c.64.38,1.28.77,2,1.12A3.48,3.48,0,0,1,8.75,51.17Zm1.61,1c0-.06-.2-.2-.35-.29l.89.43C10.78,52.24,10.45,52.19,10.36,52.14Zm.77.33c-.6-.41.31.11.59.22A4.23,4.23,0,0,0,11.13,52.47Zm.12-6a2.72,2.72,0,0,1,.48,0Zm.64,0c.07,0-.06-.06-.14-.06.29,0,.56,0,.93,0Zm1.38,7c-.23-.1-.36-.17-.48-.23.57.25,1.16.49,1.75.71ZM24.51,11.52c.29.3.2.28-.28-.13C24.25,11.38,24.26,11.31,24.51,11.52Zm-1.24-1.3c.52.51-1.33-1-1.14-1A8.26,8.26,0,0,1,23.27,10.22ZM19.59,6.35a7.07,7.07,0,0,1,1,1.26C20.39,7.33,18.47,5.16,19.59,6.35Zm0,.3c-.43-.44-.43-.57-.14-.24C19.53,6.38,20.19,7.32,19.61,6.65Zm.42.64c-.78-.91-1.53-1.86-2.23-2.83.42.5.78,1.08,1.23,1.6ZM18.26,4.8l.15.24C18,4.55,18,4.43,18.26,4.8Zm-.56-1c.1.16.23.41-.05,0S17.49,3.52,17.7,3.82Zm-.13.3c-.22-.31-.43-.63-.63-.94h0A7.71,7.71,0,0,1,17.57,4.12ZM17.34,32l-.21-.12C17.18,32,17.41,32,17.34,32Zm-.93-.45c.26.17.52.26.5.29A1.92,1.92,0,0,1,16.41,31.59Zm.77.58.15.07C16.18,32.28,15.84,32.19,17.18,32.17Zm-1.37,0,.12,0-.44,0Zm-3.61-1c.17.07.51.27.05.09S11.5,30.94,12.2,31.21Zm-.87.87s0-.19,0-.31c0,.12,0-.11,0-.13s0,0,0,.06,0-.06,0-.06C11.37,31.29,11.43,32.18,11.33,32.08Zm.08.64c0-.21-.05-.49.08,0S11.49,33.1,11.41,32.72Zm1.21-1.14a12.65,12.65,0,0,0,1.74.4,1.24,1.24,0,0,0,.3.1,12.47,12.47,0,0,1-2.59-.67Zm.89,5.67c-.23-.49-.43-.9-.6-1.25.23.43.51.94.85,1.53C13.63,37.36,13.53,37.24,13.51,37.25Zm1,1.25c-.12-.12-.06,0,0,.11-.08-.16-.19-.31-.39-.64C14.2,38.15,14.33,38.33,14.47,38.5Zm.07.47c-1-1.34,0-.08.22.21C14.74,39.19,14.73,39.25,14.54,39Zm.82.85c-.12-.15-.3-.38,0,0S15.61,40.09,15.36,39.82Zm-.18-.47c.92.94,3.4,2.91,1.7,1.58A12.06,12.06,0,0,1,15.18,39.35Zm1.67,1.86c-.1-.14-.76-.7-.06-.16C17,41.24,16.87,41.2,16.85,41.21Zm1.42.9c-1.36-.83-.34-.24.18.09Zm2,1c-.58-.08-1.53-.72-.31-.27.83.35-.16,0-.18,0S21,43.28,20.31,43.11Zm-1.15-.75c-.33-.22-.78-.4-1.1-.66a14,14,0,0,0,2.7,1.3A5.7,5.7,0,0,1,19.16,42.36Zm.31,2.42-.44.16C19.22,44.78,19.27,44.81,19.47,44.78Zm-3.19.92c-.17.16-.66.17-.94.25C15.66,45.86,16.21,45.7,16.28,45.7Zm-.59,8.63a1.21,1.21,0,0,0-.39-.16c.22.07.45.13.67.21A2.11,2.11,0,0,0,15.69,54.33Zm.67.19a1.1,1.1,0,0,1-.35-.13l.5.16S16.46,54.55,16.36,54.52Zm1.77-9.35c-.07.2-.4.16-.59.25Zm.3,10.07a5.43,5.43,0,0,0,.65.18C19.29,55.45,18.42,55.36,18.43,55.24Zm1.69-10.69.18-.11a.86.86,0,0,0,.29-.08Zm1.43-.62c1.55-.58-.59-.55-.15-.71,1.76.31.43.55-.53,1A7,7,0,0,1,21.55,43.93Zm.81,12.13c-.35-.09-.26-.09.31,0C22.74,56.09,22.55,56.07,22.36,56.06Zm2.53.26c.49,0,1,.1,1.44.13A7.79,7.79,0,0,1,24.89,56.32Zm2.65.3c-.19,0-.5-.1,0-.08S27.94,56.64,27.54,56.62Zm1.14.13c-.48,0-.24-.08.3,0C29,56.73,29,56.76,28.68,56.75Zm11.9-37.17a5,5,0,0,1,.06-1.1A1.39,1.39,0,0,1,40.58,19.58Zm-.64.29c-.19,0-.26-.06,0,0Zm-1.23-.38s0,0,.11.07l-.51-.16ZM37,55.86l.35-.07a4.46,4.46,0,0,1-.46.11Zm-.22.15v0ZM31,56.56a5.14,5.14,0,0,1-1.82,0c.74,0,1.48,0,2.2,0Zm3.17-.19c-.48,0-.47,0-.78,0,.55-.06,1.1-.12,1.65-.2A5,5,0,0,0,34.2,56.37Zm1.69,0c-.18,0-.51,0,0-.08S36.32,56.3,35.89,56.38Zm.87-.16-.29,0C37,56.14,37.25,56.14,36.76,56.22Zm.57-.15c-.68.12.26-.16.26-.16S37.67,56,37.33,56.07Zm.67-.42h0l1.24-.3A4.14,4.14,0,0,1,38,55.65Zm1.58-.29s.06-.1-.14-.07l.74-.2A1.88,1.88,0,0,1,39.58,55.36Zm.84-.16c-.54.2.23-.12.27-.15S40.7,55.12,40.42,55.2Zm1.38-.52c-.36.07-.28,0,.28-.13C42.16,54.55,42,54.62,41.8,54.68Zm.11-.13c.45-.15.89-.32,1.33-.48-.45.29.69-.22.44-.17.09,0,.3-.15.28-.09A6.58,6.58,0,0,1,41.91,54.55Zm2.55-1,.53-.23C44.65,53.53,44.9,53.5,44.46,53.59Zm1.76-.8c.34-.16.68-.34,1-.51A8.72,8.72,0,0,1,46.22,52.79ZM63,8c-.12-.09-.26-.17-.38-.25A2.92,2.92,0,0,1,63,8Zm-1.5-1.15c.89.46-.37-.13.11.25C61.25,6.89,61,6.63,61.48,6.86Zm.24.36c-.43-.24-.87-.45-1.33-.65A6.83,6.83,0,0,1,61.72,7.22ZM60.6,6.39l.11.07c.22.15-.48-.19-.82-.33C59.4,5.94,60.19,6.18,60.6,6.39Zm-1-.1c-.26-.1-.52-.19-.79-.27a1.73,1.73,0,0,1,.62.18ZM58,5.71A6.51,6.51,0,0,1,59.25,6c-.17,0-1.79-.42-.58,0C58.28,5.86,57.42,5.7,58,5.71Zm-1.27-.36c.11,0,.44.15,0,.07S56.2,5.27,56.72,5.35Zm-4.31.12c.13,0-.07-.06.17-.08h.12C53.06,5.48,51,5.69,52.41,5.47Zm-3.84,1.4.69-.33c.23-.1.49-.19.75-.28C49.48,6.46,48.87,6.74,48.57,6.87Zm.37,44.46c.22-.13.44-.24.66-.38A5.76,5.76,0,0,1,48.94,51.33ZM51.26,5.87a5.08,5.08,0,0,1,1-.2c-.47.09-.94.2-1.4.33Zm0,44a2.46,2.46,0,0,1,.27-.17Zm1.39-1c-.2.14-.43.33-.68.48l1.31-1A4.62,4.62,0,0,1,52.68,48.87ZM53.41,5.5c.39,0,.78,0,1.22-.09l.73,0C54.81,5.44,54,5.44,53.41,5.5Zm2.31,40.84.78-.74A5.69,5.69,0,0,1,55.72,46.34Zm1.3-.88c-.14.12-.37.3,0,0S57.28,45.2,57,45.46Zm.2-39.81-.71-.11C56.62,5.55,57.37,5.54,57.22,5.65Zm1.55,37.68c-.27.17-.91,1-1.31,1.31.69-.71,1.36-1.44,2-2.19A10.59,10.59,0,0,1,58.77,43.33Zm.86-.59c-.26.26-.22.18.15-.26C59.85,42.44,59.73,42.59,59.63,42.74Zm-.12-.37c.16-.18.32-.37.47-.56A2.18,2.18,0,0,1,59.51,42.37Zm1.73-2.13a11.22,11.22,0,0,1-1,1.24c.57-.72,1.12-1.45,1.64-2.19C61.68,39.6,61.35,40.08,61.24,40.24ZM62.47,7.68l-.58-.37A5.38,5.38,0,0,1,62.47,7.68ZM62.36,39c-.89,1.23.19-.34.31-.5A3.1,3.1,0,0,1,62.36,39Zm.86-1.62a7.54,7.54,0,0,1-.48.66C63,37.67,63.77,36.3,63.22,37.33Zm.28-.56c.15-.27.32-.53.47-.8A6.8,6.8,0,0,1,63.5,36.77Zm9-19.86c.54,0-.06.06-.29.06C72.26,17,72.24,16.92,72.55,16.91Zm-2.48-.27c.35-.16.52-.13.28,0S69.72,16.8,70.07,16.64Zm.71.32c.66,0,0,.08-.3.05A.55.55,0,0,1,70.78,17Zm-.64-.43c-.47.25-.62.41-.53.51l-.85,0a14.88,14.88,0,0,0,3-1.52C71.22,15.87,70.69,16.21,70.14,16.53Zm2.78-1.42c-.37.28-.78.47-.27.1S72.9,15.08,72.92,15.11ZM74.67,11a1,1,0,0,1,.3,0h0c1.83-.09,1,1.38-1.28,3.19,2.62-2.16,3.6-4.28-2.17-2.3A14.87,14.87,0,0,1,74.67,11Zm-4.26,1,.56-.06C70.78,11.92,70.59,11.92,70.41,12Zm-.23-.26c.43-.09.39.07.11.11C70.49,11.77,69.5,11.77,70.18,11.69ZM66.4,11.4a6.72,6.72,0,0,1,.44.64A3.59,3.59,0,0,1,66.4,11.4Zm.67.76c.12,0,.21,0,.21,0s.06,0,.15,0A.62.62,0,0,1,67.07,12.16Zm.66,15a4.83,4.83,0,0,1-.29.86c.16-.52.31-1,.46-1.56A6.46,6.46,0,0,1,67.73,27.17Zm.5-.78c-.07.28-.08-.09,0-.44S68.26,26.26,68.23,26.39Zm.43-2.32c-.11.4-.08.14,0-.1l.06-.13A1.58,1.58,0,0,1,68.66,24.07Z"/><path class="cls-1" d="M11.81,28c-.33-.48-.4-.54-.21-.22C11.72,27.89,11.84,28,11.81,28Z"/><path class="cls-1" d="M13.63,30.09l-.23-.24S13.49,30,13.63,30.09Z"/><path class="cls-1" d="M8.21,51.12a1.14,1.14,0,0,0,.26.12L8.09,51Z"/><path class="cls-1" d="M63.24,7.84c2,1.24,1.23.77,0,0Z"/><path class="cls-1" d="M.73,45.52,0,44.83C.21,45,.48,45.3.73,45.52Z"/><path class="cls-1" d="M28.08,56.87h0c.07,0,.23,0,.24,0s0,0,0,0l-.28,0S28.07,56.87,28.08,56.87Z"/><path class="cls-1" d="M25.75,56.72H26l-.47,0Z"/><path class="cls-1" d="M13.61,53.91c.17.06.22.06.21,0l-.49-.17Z"/><path class="cls-1" d="M6,46.05l-.28,0,.4.06Z"/><path class="cls-1" d="M36.25,18.65a1.4,1.4,0,0,0-.31-.1l.43.17.09,0Z"/><path class="cls-1" d="M63,7.69h0l.24.15Z"/><path class="cls-1" d="M34.93,18.14a43.69,43.69,0,0,1-4.51-2.32l1,.62C32.53,17.06,33.71,17.63,34.93,18.14Z"/><path class="cls-1" d="M42.72,12.19a14.51,14.51,0,0,0-.84,1.3c.22-.35.46-.71.71-1.06C42.64,12.35,42.67,12.27,42.72,12.19Z"/><path class="cls-1" d="M15.92,1.49l0,.06.09.08C16,1.52,15.91,1.43,15.92,1.49Z"/><path class="cls-1" d="M29.64,15.25c.59.36.59.31,0,0a2.39,2.39,0,0,0-.44-.25l.14.11Z"/><path class="cls-1" d="M13.8,38.05c-.12.1-.23-.24-.32-.32C13.56,37.93,14.47,39.25,13.8,38.05Z"/><path class="cls-1" d="M9.12,22.42c-.14,0,.28,1,.07.29A1.53,1.53,0,0,1,9.12,22.42Z"/></g></g></svg>