<svg xmlns="http://www.w3.org/2000/svg" viewBox="0 0 74.55 56.19"><defs><style>.cls-1{fill:#010101;}</style></defs><g id="Layer_2" data-name="Layer 2"><g id="menu"><path class="cls-1" d="M49.13,24.39l0,0S49.15,24.4,49.13,24.39Z"/><path class="cls-1" d="M52.87,27.75c.08-.06-.15-.26,0-.06C52.79,27.67,52.84,27.75,52.87,27.75Z"/><path class="cls-1" d="M42.86,26.8s0,0,.06-.05S42.87,26.78,42.86,26.8Z"/><path class="cls-1" d="M44.89,36.55c0-.17-.09,0,0,.06S44.93,36.56,44.89,36.55Z"/><path class="cls-1" d="M44.7,25a.11.11,0,0,0,.14,0A.14.14,0,0,0,44.7,25Z"/><path class="cls-1" d="M41.88,29.2a.11.11,0,0,0,0,.08C41.94,29.19,41.84,29.1,41.88,29.2Z"/><polygon class="cls-1" points="42.03 28.68 42.04 28.64 42.01 28.73 42.03 28.68"/><path class="cls-1" d="M42.36,33.92a.08.08,0,0,0,0,0C42.48,33.91,42.31,33.83,42.36,33.92Z"/><path class="cls-1" d="M42.09,33.57c0,.07.06,0,0,0S42.07,33.52,42.09,33.57Z"/><path class="cls-1" d="M42.23,33.55h0C42.46,33.63,42,33.41,42.23,33.55Z"/><path class="cls-1" d="M42.72,27s0-.06,0-.06S42.65,27,42.72,27Z"/><path class="cls-1" d="M47.4,24.32c0,.12.14,0,0,0Z"/><path class="cls-1" d="M47.85,24.44c.06,0,.06-.08,0-.08S47.81,24.43,47.85,24.44Z"/><path class="cls-1" d="M47,37.49a.08.08,0,0,0,.08,0C47,37.43,47,37.44,47,37.49Z"/><path class="cls-1" d="M53.37,33.5c0,.09,0,0,0,0Z"/><path class="cls-1" d="M45.58,24.74s0-.07,0,0S45.54,24.75,45.58,24.74Z"/><path class="cls-1" d="M45.84,37.12c-.05,0-.09.05,0,.07S46,37.11,45.84,37.12Z"/><path class="cls-1" d="M45.14,36.72a.12.12,0,0,0,.08,0C45.2,36.68,45.17,36.67,45.14,36.72Z"/><path class="cls-1" d="M46.58,37.34c-.06,0,0,0,0,0S46.73,37.24,46.58,37.34Z"/><path class="cls-1" d="M41.75,29.73c-.06.05.08.14.1,0S41.76,29.63,41.75,29.73Z"/><path class="cls-1" d="M53.47,29.05s0,0,0,0S53.49,29.14,53.47,29.05Z"/><path class="cls-1" d="M53.23,33.38c0,.06.1,0,.08,0S53.22,33.29,53.23,33.38Z"/><path class="cls-1" d="M52.68,34.35c.08,0,0-.12,0-.15S52.73,34.58,52.68,34.35Z"/><path class="cls-1" d="M53,34.1c0-.08,0-.12-.05,0S52.9,34.2,53,34.1Z"/><path class="cls-1" d="M53.2,28.81c0,.05.14,0,.08,0S53.15,28.72,53.2,28.81Z"/><path class="cls-1" d="M53.28,28.77s-.05-.07,0,0Z"/><path class="cls-1" d="M41.75,29.73c0-.08,0,0,0,0Z"/><path class="cls-1" d="M53.62,30a0,0,0,0,0-.08,0C53.54,30.09,53.63,30.08,53.62,30Z"/><path class="cls-1" d="M53.69,30.42a.08.08,0,0,0,0,.08S53.68,30.44,53.69,30.42Z"/><path class="cls-1" d="M41.72,31.48s.08.05.07,0S41.7,31.38,41.72,31.48Z"/><path class="cls-1" d="M41.72,30.93c0-.08,0,0,0,0Z"/><path class="cls-1" d="M41.79,30.88c0-.09-.07,0-.07.05S41.78,31,41.79,30.88Z"/><path class="cls-1" d="M41.73,30.47c0,.07,0,.09.05,0S41.75,30.46,41.73,30.47Z"/><path class="cls-1" d="M52.53,34.67c0-.05,0-.08-.06-.05S52.5,34.72,52.53,34.67Z"/><path class="cls-1" d="M48.45,24.3c-.18.16-.12.1,0,.22C48.52,24.44,48.4,24.4,48.45,24.3Z"/><path class="cls-1" d="M50.6,25.18s-.06,0,0,0S50.65,25.21,50.6,25.18Z"/><path class="cls-1" d="M48.54,37.47s0,0,0-.06S48.38,37.57,48.54,37.47Z"/><path class="cls-1" d="M30.46,31a.08.08,0,0,0,0,0C30.34,31,30.48,31.12,30.46,31Z"/><path class="cls-1" d="M18.69,33.46s.08.06.08,0S18.68,33.36,18.69,33.46Z"/><path class="cls-1" d="M18.69,32.92c0-.08,0,0,0,0Z"/><path class="cls-1" d="M18.69,32.92c-.07.16.06,0,.08-.06S18.7,32.87,18.69,32.92Z"/><path class="cls-1" d="M25.44,26.29c-.18.16-.12.11,0,.22C25.5,26.43,25.39,26.39,25.44,26.29Z"/><path class="cls-1" d="M25.51,39.46s0,0,0-.06S25.36,39.56,25.51,39.46Z"/><path class="cls-1" d="M18.86,31.18a.11.11,0,0,0,0,.08C18.92,31.18,18.82,31.09,18.86,31.18Z"/><path class="cls-1" d="M18.73,31.71c-.06.06.08.15.1,0S18.74,31.62,18.73,31.71Z"/><polygon class="cls-1" points="19 30.66 19.02 30.62 18.99 30.71 19 30.66"/><path class="cls-1" d="M18.73,31.71c0-.08,0,0,0,0Z"/><path class="cls-1" d="M18.7,32.45c0,.08,0,.09.05,0S18.73,32.44,18.7,32.45Z"/><path class="cls-1" d="M19.06,35.55c0,.08.06,0,.06,0S19,35.51,19.06,35.55Z"/><path class="cls-1" d="M30.6,32a0,0,0,0,0-.08,0A0,0,0,1,0,30.6,32Z"/><path class="cls-1" d="M30.2,35.36c0,.06.11,0,.09,0S30.2,35.28,30.2,35.36Z"/><path class="cls-1" d="M30.66,32.4s0,0,0,.08S30.66,32.42,30.66,32.4Z"/><path class="cls-1" d="M26.12,26.38l0,0S26.13,26.39,26.12,26.38Z"/><path class="cls-1" d="M30.27,30.75s-.05-.07,0,0Z"/><path class="cls-1" d="M29.66,36.34c.08,0,0-.12,0-.15S29.71,36.57,29.66,36.34Z"/><path class="cls-1" d="M29.87,29.73c.08-.06-.16-.26,0-.06C29.79,29.64,29.84,29.72,29.87,29.73Z"/><path class="cls-1" d="M29.51,36.65s0-.07-.07,0S29.47,36.71,29.51,36.65Z"/><path class="cls-1" d="M30.2,30.78s.13,0,.07,0S30.15,30.69,30.2,30.78Z"/><path class="cls-1" d="M27.59,27.16s-.06,0,0,.05S27.64,27.2,27.59,27.16Z"/><path class="cls-1" d="M29.94,36.09c0-.08,0-.13-.06-.05S29.88,36.19,29.94,36.09Z"/><path class="cls-1" d="M22.12,38.71a.12.12,0,0,0,.08,0C22.17,38.67,22.14,38.66,22.12,38.71Z"/><path class="cls-1" d="M24.38,26.31c0,.12.14,0,0,0Z"/><path class="cls-1" d="M22.82,39.11c-.05,0-.1,0,0,.07S22.93,39.1,22.82,39.11Z"/><path class="cls-1" d="M22.56,26.72c.05,0,0-.07,0,0S22.52,26.74,22.56,26.72Z"/><path class="cls-1" d="M30.35,35.49c0,.09,0,0,0,0Z"/><path class="cls-1" d="M19.2,35.54h0C19.44,35.62,19,35.39,19.2,35.54Z"/><path class="cls-1" d="M24,39.48a.07.07,0,0,0,.08,0S24,39.43,24,39.48Z"/><path class="cls-1" d="M24.84,26.43a0,0,0,1,0,0-.08C24.79,26.34,24.8,26.42,24.84,26.43Z"/><path class="cls-1" d="M19.84,28.78s.05,0,.07,0S19.85,28.77,19.84,28.78Z"/><path class="cls-1" d="M19.33,35.91l0,0C19.46,35.89,19.29,35.82,19.33,35.91Z"/><path class="cls-1" d="M19.66,29a0,0,0,0,0,0-.08S19.63,29,19.66,29Z"/><path class="cls-1" d="M21.83,38.45c0,.06,0,.11.09.15S21.84,38.53,21.83,38.45Z"/><path class="cls-1" d="M21.69,26.94a.09.09,0,0,0,.13,0A.09.09,0,0,0,21.69,26.94Z"/><path class="cls-1" d="M9,54.56c.48.2.49.11,0-.07S8.63,54.42,9,54.56Z"/><path class="cls-1" d="M5.32,52.59c-.09.08,1.07.63.3.18Z"/><path class="cls-1" d="M65.42,50.56a10.72,10.72,0,1,1,1-.61A4.29,4.29,0,0,0,65.42,50.56Z"/><path class="cls-1" d="M6.55,53.25c-.67-.32.46.39.31.12C6.83,53.35,6.54,53.26,6.55,53.25Z"/><path class="cls-1" d="M6.55,53.25c.34.13-.32-.14,0,0Z"/><path class="cls-1" d="M45.26,48.11c.33-.11-.67.19,0,0Z"/><path class="cls-1" d="M.06,37.73c0-.46,0-.39-.06,0S0,38.23.06,37.73Z"/><path class="cls-1" d="M47.57,47.37c0,.13,1.17-.36.33-.1Z"/><path class="cls-1" d="M34.7,49.41c.44,0,1.86,0,.35,0C34.66,49.37,33.21,49.39,34.7,49.41Z"/><path class="cls-1" d="M56.65,53c-.43.1-.18.13.46,0S57.19,52.89,56.65,53Z"/><path class="cls-1" d="M63.52,51.3c.7-.3,1-.51.11-.12C62.9,51.49,62.8,51.61,63.52,51.3Z"/><path class="cls-1" d="M45.38,48.16c.48-.14.41-.24-.12,0S44.49,48.4,45.38,48.16Z"/><path class="cls-1" d="M31.51,3.87c.66-.08.46-.1,0-.06S31.07,3.93,31.51,3.87Z"/><path class="cls-1" d="M.74,30.93a5.27,5.27,0,0,0,.2-1A3.51,3.51,0,0,0,.74,30.93Z"/><path class="cls-1" d="M32.36,3.55c-1.07.19-1.4.34-.36.1Z"/><path class="cls-1" d="M49.81.35a3.54,3.54,0,0,0-1-.11C47.7.17,50.23.48,49.81.35Z"/><path class="cls-1" d="M35.28,3.4l.34,0C35.64,3.26,34.39,3.45,35.28,3.4Z"/><path class="cls-1" d="M64.14,8.07s0,0,0,0S64.13,8.08,64.14,8.07Z"/><path class="cls-1" d="M42.84,1.89c.5.22,1.22.17,0,0Z"/><path class="cls-1" d="M42.46,1.84l.38,0c-.19-.08-.35-.2-.36-.37C42.45,1.56,42.08,1.85,42.46,1.84Z"/><polygon class="cls-1" points="25.34 3.01 25.21 2.88 25.34 3.01 25.34 3.01"/><path class="cls-1" d="M25.36,3.08c.06,0,0,0,0-.07S25.4,3.06,25.36,3.08Z"/><path class="cls-1" d="M25,3.21l.29-.11S25.13,3.17,25,3.21Z"/><path class="cls-1" d="M24.55,3.4l-.38.15Z"/><path class="cls-1" d="M24.55,3.4l.34-.14h0Z"/><path class="cls-1" d="M25,3.21l-.13,0Z"/><path class="cls-1" d="M15.82,7.73c.6-.36.82-.6.11-.19C15.43,7.8,15,8.24,15.82,7.73Z"/><path class="cls-1" d="M55.8,44c-.47.23-.31.24,0,.08S56.22,43.78,55.8,44Z"/><path class="cls-1" d="M56.12,52.78c1-.05.07,0-1-.72C55.49,52.49,55.89,52.83,56.12,52.78Z"/><path class="cls-1" d="M51.64,48.47a.66.66,0,0,1,.21.16c-1.09-.79.64-1.16,1.78-1.61l.2-.18C52.77,47.22,50.89,47.91,51.64,48.47Z"/><path class="cls-1" d="M59.85,52.22c1-.5-1.61.63.65-.1C61.29,51.85,59.71,52.28,59.85,52.22Z"/><path class="cls-1" d="M64.47,50.38l-.36.12C62,51.47,61.28,51.8,64.47,50.38Z"/><path class="cls-1" d="M53.31,1.22h0l-.12,0L53,1.12a9.18,9.18,0,0,0-1.54-.4A7.46,7.46,0,0,0,53.31,1.22Z"/><path class="cls-1" d="M30.39,30.68h0Z"/><path class="cls-1" d="M58.9,52.28a9.82,9.82,0,0,0,1.84-.5,26.09,26.09,0,0,1-3.34.74A10.21,10.21,0,0,0,58.9,52.28Z"/><path class="cls-1" d="M27.25,26.79a.05.05,0,0,0,0,0v0S27.24,26.79,27.25,26.79Z"/><path class="cls-1" d="M56.85,43.38c-.16.32,1-.54,1-.59L58,42.7l-1.14.68Z"/><path class="cls-1" d="M24.56,50.59A7.47,7.47,0,0,0,23.61,52l0,.07C24,51.55,24.34,51,24.56,50.59Z"/><path class="cls-1" d="M44.92,48.05l.33-.11c-.28.07-.57.12-.85.18C44.35,48.16,44.52,48.15,44.92,48.05Z"/><path class="cls-1" d="M24.44,50.33a.39.39,0,0,0,.06-.11l-1,1.49h0C23.8,51.33,24.18,50.73,24.44,50.33Z"/><path class="cls-1" d="M18.74,55.9l-.66-.1-.5.06Z"/><path class="cls-1" d="M19.65,55.92l-.91,0C19.7,56,20.13,56,19.65,55.92Z"/><path class="cls-1" d="M22.16,49.59a3.7,3.7,0,0,0-.4-.16l0,0Z"/><path class="cls-1" d="M43.25,48.39l.41-.11-1,.19C42.43,48.53,42.69,48.55,43.25,48.39Z"/><path class="cls-1" d="M30.63,49.08c.32,0,.39,0,.29,0l-.6-.07A1.45,1.45,0,0,0,30.63,49.08Z"/><path class="cls-1" d="M17.9,56c.4,0,.36,0,.36-.06C17.51,55.89,17.41,55.91,17.9,56Z"/><polygon class="cls-1" points="18.84 34.95 18.84 34.96 18.85 34.95 18.84 34.95"/><path class="cls-1" d="M23.88,39.41H24C23.92,39.38,23.88,39.37,23.88,39.41Z"/><path class="cls-1" d="M54.31,1.58s0-.05,0-.07h0c-.07-.05-.26-.08-.27-.1C53.85,1.38,54.37,1.59,54.31,1.58Z"/><path class="cls-1" d="M19.24,35.83s-.06,0-.08.11l0,.06v0A.12.12,0,0,0,19.24,35.83Z"/><path class="cls-1" d="M23.09,39.29h.07s0,0,0,0A0,0,0,0,0,23.09,39.29Z"/><path class="cls-1" d="M57.67,52.75l.22,0C59.12,52.46,55.35,53.11,57.67,52.75Z"/><path class="cls-1" d="M24.68,39.41h0Z"/><path class="cls-1" d="M66.59,13c-.27-.57-.11.12,0,.33C66.89,13.91,66.83,13.45,66.59,13Z"/><path class="cls-1" d="M44.49,0l-.34,0C43.23.09,44,.07,44.49,0Z"/><path class="cls-1" d="M53.94,1.55l-.33-.11C52.64,1.24,54.08,1.64,53.94,1.55Z"/><path class="cls-1" d="M55.35,52.52s.36.55.51.55S55.32,52.57,55.35,52.52Z"/><path class="cls-1" d="M26.83,26.6h0l-.16-.07A.18.18,0,0,0,26.83,26.6Z"/><path class="cls-1" d="M.2,38.81s0,.06,0,.08l.06-.83A5.28,5.28,0,0,0,.2,38.81Z"/><path class="cls-1" d="M20.53,56.1c-.21,0-1.23,0-.49,0,.8.23,1.24-.39,1.51-1.1C21.28,54.93,21.2,56.24,20.53,56.1Z"/><path class="cls-1" d="M50.52,36.92h0Z"/><path class="cls-1" d="M26.12,26.38a.31.31,0,0,0,.16,0l-.18-.06S26.11,26.37,26.12,26.38Z"/><path class="cls-1" d="M46.09,37.27a.09.09,0,0,0-.07-.05S46.05,37.26,46.09,37.27Z"/><path class="cls-1" d="M23.06,39.26s0,0-.06,0S23,39.25,23.06,39.26Z"/><path class="cls-1" d="M30.68,31.79l0-.06s0,0,0,0S30.66,31.8,30.68,31.79Z"/><path class="cls-1" d="M30.67,32.14c-.18-.06,0,.2.08.14a.22.22,0,0,1,0-.08A.09.09,0,0,0,30.67,32.14Z"/><path class="cls-1" d="M53.69,30.16c-.15,0,0,.1,0,.14s0,0,0,0V30.2S53.72,30.15,53.69,30.16Z"/><path class="cls-1" d="M53.69,29.81v-.06l0,0S53.67,29.81,53.69,29.81Z"/><path class="cls-1" d="M53.4,28.7v0Z"/><path class="cls-1" d="M24.93,39.77c.08,0,.09,0,0-.05S24.92,39.74,24.93,39.77Z"/><path class="cls-1" d="M22,49.29c.54.16.23,0,0,0C21.65,49.12,21.55,49.15,22,49.29Z"/><path class="cls-1" d="M23.3,49.72c-.51-.13-.45,0,.32.1Z"/><path class="cls-1" d="M23,49.81a1.55,1.55,0,0,0-.38-.08C24,50.12,25.13,50.34,23,49.81Z"/><path class="cls-1" d="M74.32,38.44v.08s0-.05,0-.08.05,0,.09,0c0-.29-.18-1-.18-.77C73.7,34.19,71.6,26.05,73,31c-.2-2.07-1.83-6.62-3.68-11.18a1.94,1.94,0,0,1-.08-.21.21.21,0,0,1,0-.07c-2.06-5.06-4.37-10.06-5.27-11.61h0a.82.82,0,0,0,.19.21c-.15-.16-.42-.72-.53-.85s0,0,.12.29c-.13-.17-.19-.16-.16,0a.5.5,0,0,1,.09.26s0-.06-.06-.14c0,.12.06.26.11.45A11.75,11.75,0,0,0,59.56,4c1.26.51,1.87.76,1.37.42C63.07,3.78,50.49.4,45.24.08h-.07l-.29,0c-1.4,0-2.16.17-1.75.79a3.68,3.68,0,0,1,.21-.36c.35-.47.29-.34.15-.1a2.24,2.24,0,0,1-.33.52,2.62,2.62,0,0,0,.41.4.57.57,0,0,1,0-.26c.18.46,1.13.92,2.33,1.34H46s0,0,0,0l.91.3a16.5,16.5,0,0,1-2.06-.54c.28.17.59.35.95.54-.34-.58,3.05.91,3.08.77.36.18,1.66.59.57.15.58.16,1.09.33,1.63.5-.35-.13-2.13-.83-.76-.34.3.13,2,.84.49.15C52,4.47,53,5.08,54.18,5.47c-.18-.09.26.1.21.07l.43.2c-1-.29.19.26.54.4a58.29,58.29,0,0,0-10-2.44c.64.3-1.65,0,0,.09a66.42,66.42,0,0,0-10.17-.27l.41.08c-.14,0-.89,0-1.27,0a51.63,51.63,0,0,0-7.22,1.09,16.52,16.52,0,0,0-4.3,1,17,17,0,0,1,1.79-.49c-5.09,1.47-8.5,2.48-13.17,5.29C12.65,9.22,14,8.61,16.05,7.26c-.52.53.75-.32.42-.18A37.53,37.53,0,0,0,23,3.49,54.18,54.18,0,0,0,9.87,11.3,47.87,47.87,0,0,1,23,3.43c1.3-1.07.67-1.42-1-1.22-1.37.57-4.63,1.91-10.43,4.35.43-.31,1.58-.9,1.54-1C17,4.17,20.14,3,21.72,2.33c-.54.11-.88.14-.27,0a1.37,1.37,0,0,1,.32,0L22,2.22A26.61,26.61,0,0,0,16.5,3.74c.12,0,.06.09-.14.18.19-.08-.69.17-.32,0A27.54,27.54,0,0,0,8.12,8.43c-.19.11-.84.67-.23.18L8,8.5l-.26.24a5.76,5.76,0,0,0-1.9,2.33c-.23.43-1.17,3.35-.72,1.82C2.35,19.54.83,30.45.27,38.06c0-.25.07-.4,0,0a3.51,3.51,0,0,1-.11.87,45,45,0,0,0-.1,7.26C0,47.9,2,50,4.66,51.84a5.38,5.38,0,0,0,2.07,1.27,27.16,27.16,0,0,0,6.66,2.68c-.29,0-.41,0,.27.11.19,0,1.18.3.83.1a9.63,9.63,0,0,0,1.26.13c-.84-.21-.24-.07.5,0,1,0-.48-.1-.59-.09.7,0,1.32-.08,1.92-.14A27.69,27.69,0,0,1,8,53.59a66.45,66.45,0,0,0,10,2.21c4.58-.56,6.05-2,5.56-3.76a5.29,5.29,0,0,1-.64.76,5.11,5.11,0,0,0,.61-.83c0-.08-.06-.17-.09-.26l0,0,0,0a6.86,6.86,0,0,0-1.72-2.25c-.4-.13-.78-.26-1.15-.4l.26.08.85.29A27.55,27.55,0,0,0,14.37,45l.16,0-.1-.06c.1.09,4.23,1.58,2.82,1.22,0,0,1.31.51.83.31,2.35,1.06,8,2.06,12.24,2.53h0a3.47,3.47,0,0,1,.62.08,21.09,21.09,0,0,0,4.16.16,52.22,52.22,0,0,0,7.56-.77l.22,0a3,3,0,0,1,.8-.14l.74-.16a.75.75,0,0,1,.19-.07c.28-.08.79-.18.66-.11a42.35,42.35,0,0,0,11.6-4.56A4.41,4.41,0,0,1,58,42.7c.95-.6,1.88-1.25,2.78-2-1,1.59-1.19,1.42-3.36,3.42.15-.13-.23.15-.19.12-.48.67-3,1.76-2.16,1.59-.47.33-.87.66-1.23,1l.47-.16a3.19,3.19,0,0,1-.67.34,5.72,5.72,0,0,0-1.7,2.19L51.74,49a1,1,0,0,0,.18.23c-.44,1.35.71,2.16,2.7,2.44.16.14.32.26.47.37-.11-.11-.21-.23-.32-.35a23.56,23.56,0,0,0,9.34-1.21l1.55-.73-.23.18-1,.43c4.89-1.65,9.48-4.7,10.08-9A11.51,11.51,0,0,1,74.32,38.44ZM19.1,5.45c.49-.23.32-.1.33-.06C19,5.62,18.46,5.78,19.1,5.45ZM15.76,7.2c.49-.3.54-.19.08.07C15.63,7.38,15.27,7.51,15.76,7.2ZM12.59,9.33c0-.07,1.16-.84.4-.24C12.74,9.28,12.39,9.5,12.59,9.33ZM10.48,54.67c.74.24.82.31,0,0S9.7,54.41,10.48,54.67Zm.59-48,.3-.16C10.87,6.86,10.58,7,11.07,6.69ZM5.88,11.47c.37-.89.07-.2.09.12C6.46,10.64,5.54,12.57,5.88,11.47Zm-.13.87c.18-.44.4-1,.61-1.49-.17.4-.41,1-.72,1.87A2.72,2.72,0,0,1,5.75,12.34Zm-.32.2,0-.08,0,.08a1.51,1.51,0,0,0,.09-.16l0,.06s0-.08,0-.06S4.55,14.83,5.43,12.54Zm-.38,1.78a2.39,2.39,0,0,1,.19-.49L5,14.51Zm-.48,1.25A12,12,0,0,1,5,14.12c.08,0-.61,2-.14.86C4.76,15.2,4.49,16.23,4.57,15.57ZM2.69,21.66s0-.11,0-.13a.34.34,0,0,0,0,.08c0-.09,0-.1,0-.08.13-.34,0,.61-.19,1.11C2.59,22.21,2.67,22.1,2.69,21.66ZM.91,33,.79,34.22C.67,34.31.85,33.4.91,33ZM.42,42.16c0-.19,0-.34,0-.6ZM.41,40a3.92,3.92,0,0,0,0-.4l0,1.43A5.07,5.07,0,0,1,.41,40Zm0,3.47c0,.66,0,1.33.08,2,0-.29,0-.53-.06-.9S.44,43.85.44,43.49ZM.51,47a4.09,4.09,0,0,0,.05-.73C.55,46.56.69,46.86.51,47ZM.36,39.44c.15-.87-.07-4.21.13-1.4a9.63,9.63,0,0,1,.14-1.93C.46,37.06.65,39,.36,39.44Zm.4,8.61c-.16-.27.08,0,.33.35ZM1,32.35c.07-1-.05-.79.05-1.51.05.9.06.19.22-.63C1.16,30.91,1.07,31.62,1,32.35Zm.78-5.28c0-.06,0-.09.07-.34C1.82,26.84,1.8,27,1.77,27.07Zm.15-.76.1-.57c.11-.55.22-1.21.37-1.73C2.22,24.75,2.07,25.53,1.92,26.31Zm.61-3c.06-.29.17-.74.25-1-.11.45-.22.92-.32,1.4A3.8,3.8,0,0,1,2.53,23.3Zm.37,27A3.08,3.08,0,0,1,2.65,50c.17.16.36.33.56.49A1.4,1.4,0,0,1,2.9,50.25ZM3,21.47c.13-.62.33-1.28.53-2.07C4.57,15.61,3.44,19.59,3,21.47ZM4.05,17c-.12.33-.26.62-.08,0C4,16.87,4.21,16.51,4.05,17Zm.08.29a4.89,4.89,0,0,1,.2-.84C4.43,16.53,4.17,17,4.13,17.26ZM5.79,52.59c-.24-.13-.3-.18-.23-.16l.49.29Zm3-40.15c-.31.22,0-.09.15-.15ZM7.09,9.89a8.14,8.14,0,0,0,1-.88c.38-.23,1.06-.76,1.5-1.08C8.75,8.52,7.92,9.18,7.09,9.89ZM53,49.9l-.3-.39A1.6,1.6,0,0,1,53,49.9Zm.14.4c-1.27-1.45,0-.08.27.23C53.39,50.54,53.38,50.6,53.14,50.3Zm1,1c-.14-.17-.35-.44,0,0S54.41,51.58,54.11,51.27ZM58,43.86c.11-.07.46-.28.09,0S57.5,44.23,58,43.86ZM55.82,45.5c-.48.3-.4.15,0-.08C56,45.31,56.29,45.18,55.82,45.5Zm.55-.4.29-.17C57.22,44.69,56.42,45.2,56.37,45.1Zm1.37-.73c.29-.24.56-.47.77-.68.68-.62,1.25-1.23,1.85-1.81A19.45,19.45,0,0,1,57.74,44.37ZM59.33,8.13h0S59.36,8.15,59.33,8.13ZM58,7.58c-.07,0-.28-.07-.23-.15Zm-.45-.67h0l-.4-.24Zm1.06-3.83c.38.21.28.18-.35-.1C58.15,2.92,58.36,3,58.56,3.08Zm-1.65-.59c.19.11.52.32,0,.07S56.46,2.32,56.91,2.49Zm-2-.55-.06,0,0,0ZM44.36.39A15.65,15.65,0,0,1,50.68,1,45.58,45.58,0,0,0,44.36.39Zm2.93,2.34c-.4-.16-.29-.14.35,0C47.72,2.83,47.5,2.78,47.29,2.73ZM51.39,4a1.72,1.72,0,0,0-.33-.22C52.14,4.06,52.55,4.16,51.39,4Zm2.48,1c-.46-.18-.94-.43-1.27-.59.56.24,1.11.47,1.6.7Zm1.07.52s0,0-.12-.11l.38.19C55.06,5.6,55,5.56,54.94,5.59ZM54,31c0-.1-.15-.16,0-.15S54.1,31.19,54,31Zm0,.23c0,.2,0,.4,0,.6a.55.55,0,0,0,0-.26A.56.56,0,0,1,54.08,31.24Zm-.69,2.58c-.06.12,0,0-.06,0C53.12,34.06,53.27,33.42,53.39,33.82Zm0-.32c.08-.22,0,.08,0,.07S53.37,33.5,53.37,33.5Zm.06.55c-.08.17-.16.33-.25.49C53.23,34.44,53.31,34,53.43,34.05Zm0-.75s.14-.11.09,0S53.42,33.31,53.41,33.3Zm.05.49c.28-.37.09-.06,0,.18C53.47,33.91,53.45,33.85,53.46,33.79Zm.15-.72c0,.06-.07,0,0,0S53.63,33,53.61,33.07Zm0-.13c-.11,0,0-.17.06-.13S53.56,32.93,53.61,32.94Zm.21,0c0,.17-.1.33-.16.49S53.76,33.18,53.82,33Zm-.07-4.28c0,.15.19.41.06.5A1.21,1.21,0,0,0,53.75,28.7ZM54,30.07c0-.07,0-.23-.08-.24.1,0,0-.43-.06-.41s.05,0,.05-.06C54,29.54,54.09,30.16,54,30.07Zm0,.54s0,.08,0,.08S54,30.63,54,30.61ZM53.9,31c0,.05.09.23-.07.08C53.84,31,53.85,31,53.9,31Zm0,.64s-.08.07-.07,0S53.89,31.57,53.87,31.62Zm0,.22,0,0h0a.11.11,0,0,1-.12.06S53.82,31.85,53.83,31.84Zm0,.11a0,0,0,1,1-.08,0S53.8,31.88,53.81,32Zm-.05.94a.15.15,0,0,0,.1-.08l0,.12S53.79,32.88,53.76,32.89Zm.08-.22a.16.16,0,0,0,.07-.12,1.55,1.55,0,0,1,0,.21S53.87,32.68,53.84,32.67Zm.08-.52c0,.05,0,.05.06.05s0,.15,0,.22A.74.74,0,0,0,53.92,32.15ZM54,30.78s0,0,0-.06S54.1,30.79,54,30.78Zm0-.34s0,0,0,.06S54.06,30.47,54.06,30.44Zm0-.17v0h0ZM52,5.54a13.66,13.66,0,0,1,2.09.62C53.37,5.94,52.67,5.73,52,5.54Zm1.64,23.34s0-.09,0-.08S53.62,28.88,53.62,28.88Zm0-.48c-.57-1.07-.57-1.47,0,0Zm-.29.1c-.08-.06,0-.13,0-.06S53.42,28.59,53.36,28.5Zm.24.05c0-.06,0-.06.07,0S53.63,28.57,53.6,28.55Zm-.53-1.4s0,0,0,0l0-.05Zm-.17-.28,0,0C52.58,26.62,52.76,26.57,52.9,26.87Zm-.16.28a.11.11,0,0,1,0-.06C52.81,27.15,52.78,27.21,52.74,27.15ZM53,27c0-.05-.08,0-.11,0S52.93,26.9,53,27Zm-.38-.25s-.07-.06,0-.07S52.68,26.79,52.61,26.76Zm-.13-.43s0,0,0,0a1.34,1.34,0,0,1,.11.14S52.5,26.38,52.48,26.33Zm.14.27c0-.05,0-.1,0-.15S52.77,26.66,52.62,26.6Zm-.16-.33c-.05-.07-.08,0-.06-.08ZM52.24,26c.17.14,0,.21-.14.17C52.19,26.16,52.3,26.12,52.24,26ZM52,25.71c.06.08.22.18.21.24C52.07,25.79,51.83,25.89,52,25.71Zm.25-20.43c.21.08.53.2,0,0S51.8,5.16,52.21,5.28Zm-.48,20.23s0,0,0,0l.12.11Zm0,.28s0-.1.06-.06S51.78,25.83,51.74,25.79ZM47.9,4.23c.42.11.31.11-.36,0C47.46,4.18,47.68,4.21,47.9,4.23Zm3.81,1.24A51,51,0,0,0,42.6,3.91,11.49,11.49,0,0,1,44.4,4,42.58,42.58,0,0,1,51.71,5.47Zm-.07,20c-.15,0-.14-.13-.22-.22C51.55,25.29,51.51,25.41,51.64,25.45ZM51.12,25c-.14,0-.21-.14-.32-.24a2.18,2.18,0,0,1,.45.32A.57.57,0,0,0,51.12,25Zm0,.05s-.07,0-.09.06S51.08,25.07,51.12,25.07Zm-.41-.28s0,0-.06,0S50.64,24.75,50.71,24.79Zm.16.14s-.12-.05,0-.05S50.93,24.93,50.87,24.93Zm-.26-.26c-.1,0-.24-.14-.28-.05a.11.11,0,0,0,0-.1Zm-.85-.41c.13.06.54.2.48.24S49.92,24.37,49.76,24.26Zm.38.37,0-.05C50.23,24.57,50.2,24.66,50.14,24.63Zm-.24-.14c0,.06-.14-.12,0-.07S50,24.47,49.9,24.49Zm-2.71-.64a6,6,0,0,1,2.31.31.82.82,0,0,0-.26,0A11.37,11.37,0,0,0,47.19,23.85Zm1.8.25s0,.08-.06.07S48.9,24.08,49,24.1Zm-1,0c-.09,0-.09-.06,0,0S48.14,24.08,48,24.08ZM47.48,24s0,.06-.08.06A.06.06,0,0,1,47.48,24ZM47,23.85s-.06.06-.09,0Zm-.36.06c-.05,0-.05,0-.1,0Zm-1.1.26c-.41.55-.37-.1.43-.13A1.41,1.41,0,0,1,45.57,24.17Zm0,.3s-.21,0-.12,0S45.64,24.42,45.61,24.47ZM46,24l.49-.11c-.05,0,0,.08,0,.11C46.4,23.88,46.17,24.06,46,24Zm-1,.36c0,.09-.07.07-.15.08Zm-.37.21a1.76,1.76,0,0,0-.2.09C44.72,24.39,44.87,24.76,44.63,24.61Zm-.4.22a1.68,1.68,0,0,1-.33.23Zm-.38.3c-.18.13,0,0,0-.06S43.87,25.11,43.85,25.13Zm0,.16c0,.07,0,.05,0,.14S43.76,25.26,43.87,25.29Zm-.51.27c-.18.14.17-.22.27-.28A3.63,3.63,0,0,0,43.36,25.56Zm0,.24s-.11,0,0,0S43.45,25.75,43.4,25.8Zm-.14-.18s0,.1,0,.11S43.22,25.65,43.26,25.62Zm-.22.6s0,0,0,0S43.28,26,43,26.22ZM43,25.94s0-.05,0-.07A.05.05,0,0,1,43,25.94Zm.07-.1.1-.1C43.13,26.17,43.15,25.8,43,25.84Zm-.11.46c-.08.13,0-.07-.09-.09S43,26.14,42.92,26.3Zm-.25,0,.18-.22C42.86,26.14,42.72,26.2,42.67,26.27ZM42.42,3.64c1.78.18-.46,0-.69,0A4.49,4.49,0,0,1,42.42,3.64Zm.12,22.87s-.1.08-.16.17l.21-.31C42.56,26.42,42.5,26.48,42.54,26.51Zm-.11.42a.12.12,0,0,1-.06.06S42.4,26.91,42.43,26.93Zm-.22.72c0,.07-.13,0-.12,0S42.25,27.56,42.21,27.65Zm0-.49a6.5,6.5,0,0,0-.93,3.48h0a9.37,9.37,0,0,0,.39,2.7A7.59,7.59,0,0,1,42.18,27,.16.16,0,0,0,42.17,27.16Zm-.34,1-.06,0C41.78,28.13,41.85,28.11,41.83,28.18Zm-.42,2.18c0,.07-.07,0,0,0S41.41,30.32,41.41,30.36Zm-.06-.23s0-.06,0-.1S41.41,30.18,41.35,30.13Zm.09,1.74c0,.05,0,0-.06,0S41.42,31.84,41.44,31.87Zm-.06-2.2c0-.07.11-.05.1,0S41.37,29.74,41.38,29.67Zm.2,2.07c0,.05-.09.09-.1,0S41.61,31.78,41.58,31.74ZM41.5,31c0-.06.06-.05.06,0S41.51,31.08,41.5,31Zm.09,1.72a.06.06,0,0,1,0-.06C41.62,32.63,41.64,32.77,41.59,32.73Zm-.05-3.49c0-.07.05,0,.09,0S41.52,29.32,41.54,29.24ZM40.26,3.71l1.57.14C41.32,3.81,38.59,3.72,40.26,3.71Zm-4-.17.34,0C37.45,3.58,36.06,3.6,36.27,3.54Zm-5.93.82c8.79-.89,10.46-1.1-1.29.25A11.87,11.87,0,0,1,30.34,4.36ZM31,33c0-.1-.15-.16,0-.16S31.08,33.18,31,33Zm0,.23c0,.2,0,.4,0,.6a.61.61,0,0,0,0-.27A.52.52,0,0,1,31.06,33.23Zm-.29.62a.05.05,0,0,1,0,0l0,0h.06S30.82,33.87,30.77,33.85Zm0,.09c0,.06-.08,0-.08,0S30.78,33.87,30.78,33.94Zm0-3.26c0,.15.19.41.06.5A1.21,1.21,0,0,0,30.74,30.68Zm0,2.93s.09-.06.06,0S30.77,33.68,30.78,33.61Zm0-.57c0-.07,0-.08.07-.08S31,33.2,30.81,33Zm.24-.55a.13.13,0,0,1,0-.06S31.05,32.47,31.05,32.49Zm0,.22s0,.07,0,0S31.05,32.74,31.06,32.71Zm-.07,0a.14.14,0,0,1,0-.09S31,32.68,31,32.68Zm0-.63c0-.07,0-.23-.07-.24.05,0,.06-.11,0-.21C31,31.83,31,32.11,31,32.05Zm-.13-.65s.06,0,.06-.06a2.1,2.1,0,0,0,0,.26C30.93,31.49,30.9,31.39,30.85,31.4Zm0,2.74s.05,0,.06,0a1.89,1.89,0,0,1-.05.23A.77.77,0,0,0,30.9,34.14Zm-.29-3.28c-.05,0,0-.09,0-.08S30.61,30.86,30.61,30.86Zm0-.48c-.56-1.07-.56-1.47,0,0Zm-.28.09c-.08-.06,0-.12,0-.06S30.42,30.56,30.36,30.47Zm.24.06c0-.06,0-.06.06,0S30.62,30.55,30.6,30.53Zm-.53-1.4s0,0,0-.05,0,0,0-.06ZM30,29s-.08,0-.11,0S29.93,28.88,30,29Zm-.28-.41.17.25C29.78,28.72,29.69,28.75,29.71,28.58Zm0,.55a.11.11,0,0,1,0-.06C29.81,29.13,29.78,29.19,29.74,29.13Zm-.13-.4s-.07-.05-.05-.06S29.68,28.77,29.61,28.73Zm-.13-.42a.11.11,0,0,1,0,0l.11.14S29.5,28.36,29.48,28.31Zm.14.26s0-.09,0-.14S29.77,28.64,29.62,28.57Zm-.16-.32c-.05-.07-.08,0-.07-.08ZM29.23,28c.17.15.05.23-.13.18C29.19,28.14,29.3,28.09,29.23,28ZM29,27.69c.07.08.22.18.21.24C29.07,27.77,28.83,27.87,29,27.69Zm-.13-.13-.1-.07s0,0,0,0Zm-.08.21s0-.09.05-.05S28.77,27.81,28.74,27.77Zm-.32-.56.14.12C28.61,27.54,28.54,27.41,28.42,27.21Zm-.31-.2c-.14,0-.21-.15-.32-.24a1.86,1.86,0,0,1,.45.32A.57.57,0,0,0,28.11,27Zm0,0s-.08,0-.1.06S28.07,27.06,28.12,27.05Zm-.26-.13s-.12-.05,0-.06S27.92,26.92,27.86,26.92Zm-.16-.14s0,0-.06,0S27.63,26.74,27.7,26.78Zm-.1-.13c-.09,0-.24-.14-.28,0a.09.09,0,0,0,0-.1A2.44,2.44,0,0,1,27.6,26.65Zm-.85-.4c.13.06.54.2.48.23S26.91,26.36,26.75,26.25Zm.38.36,0,0C27.22,26.56,27.19,26.65,27.13,26.61Zm-.25-.14c0,.07-.13-.11,0-.06S27,26.46,26.88,26.47Zm-2.71-.63a6,6,0,0,1,2.32.31.82.82,0,0,0-.26,0A11.37,11.37,0,0,0,24.17,25.84Zm1.81.25s0,.08-.06.07S25.89,26.07,26,26.09Zm-.95,0c-.09,0-.09-.06,0-.05S25.13,26.07,25,26.07ZM24.47,26s0,.06-.08.06A.06.06,0,0,1,24.47,26ZM24,25.84s-.06.06-.1,0ZM13.1,9.85A49.49,49.49,0,0,1,23.76,5.71C20.2,6.9,15.56,8.78,13.1,9.85Zm10.55,16s0,.05-.09,0Zm-1.09.27c-.42.54-.38-.1.42-.13A1.36,1.36,0,0,1,22.56,26.16Zm0,.29c0,.05-.2,0-.11-.05S22.62,26.41,22.59,26.45ZM23,26l.48-.11s0,.08,0,.11C23.39,25.87,23.16,26,23,26Zm-1,.36c0,.09-.06.07-.15.07Zm-.37.21-.16.06C21.75,26.38,21.85,26.71,21.61,26.6Zm-.4.22a1.81,1.81,0,0,1-.33.23Zm-.38.3c-.17.12,0,0,0-.07S20.85,27.09,20.83,27.12Zm0,.15c0,.08-.05.06,0,.14S20.74,27.24,20.85,27.27Zm-.51.27c-.18.14.17-.22.27-.28C20.54,27.35,20.41,27.44,20.34,27.54Zm0,.24s-.11,0-.05,0S20.44,27.73,20.38,27.78Zm-.14-.18s0,.1,0,.11S20.2,27.64,20.24,27.6Zm-.22.61h0C19.88,28.18,20.26,28,20,28.21Zm-.08-.29s0,0,0-.07S20,27.92,19.94,27.92Zm.08-.1.1-.1C20.11,28.16,20.13,27.78,20,27.82Zm-.11.47c-.09.12,0-.08-.1-.09S20,28.13,19.91,28.29Zm-.26,0,.18-.21C19.84,28.12,19.7,28.18,19.65,28.25Zm-.12.25s-.11.08-.17.16c.07-.1.14-.21.21-.3S19.48,28.46,19.53,28.5Zm-.12.42s0,0-.06,0S19.38,28.9,19.41,28.92Zm-.22.71c0,.07-.13,0-.12,0S19.23,29.54,19.19,29.63Zm0-.49a7.73,7.73,0,0,0-.55,6.18A7.56,7.56,0,0,1,19.16,29C19.13,29.05,19.12,29.11,19.15,29.14Zm-.34,1a.07.07,0,0,1-.07,0C18.76,30.11,18.83,30.09,18.81,30.16Zm-.43,2.19c0,.07-.06,0-.05-.05S18.39,32.31,18.38,32.35Zm-.05-.24s0-.06,0-.1S18.39,32.16,18.33,32.11Zm.08,1.74q0,.09-.06,0S18.39,33.83,18.41,33.85Zm-.06-2.2c0-.07.12,0,.11,0S18.35,31.72,18.35,31.65Zm.2,2.07c0,.06-.08.09-.09,0S18.58,33.77,18.55,33.72ZM18.48,33c0-.06.05,0,.05,0S18.49,33.06,18.48,33Zm.08,1.72a.11.11,0,0,1,0-.06C18.59,34.62,18.62,34.75,18.56,34.72Zm0-3.5c0-.06.06,0,.09,0S18.49,31.3,18.51,31.22ZM26,4.87c.22-.08.36,0,0,.07h0c-.38.13-.72.15,0-.06Zm-2.56.73c.63-.14-.06.07-.33.14C23.12,5.72,23.1,5.69,23.45,5.6ZM16.68,8c.42-.13.32-.08-.3.2C16.29,8.19,16.49,8.09,16.68,8Zm-1,.28.05,0,.18-.07C16.93,7.81,14.7,8.83,15.67,8.26Zm-3.12,1.83-.36.16C12.71,9.9,12.87,9.85,12.55,10.09ZM10,11.3s0,0,.12-.11Zm1.14-.78s0-.06,0,0C11.21,10.36,11.6,10.11,11.13,10.52Zm1.74,33.24s0,0,0,0l0,0Zm6.26,4.53c.37.22.26.2-.34-.1C18.72,48.12,18.93,48.21,19.13,48.29Zm.29.26c-.34-.15-.66-.31-1-.47A9.67,9.67,0,0,0,19.42,48.55Zm-2.1-1.19a6,6,0,0,1,.59.33C17.75,47.67,16.82,47.11,17.32,47.36Zm-1.65-1.17c.07.16-.32-.16-.34-.14S15.48,46.07,15.67,46.19Zm-1.15-.76a12.1,12.1,0,0,0,1,.79c1,.64,1.85,1.26,2.83,1.8a20,20,0,0,1-3.91-2.65Zm-.71-1.14A2.12,2.12,0,0,1,13.3,44C13.67,44.22,15.36,44.94,13.81,44.29Zm2.43,1.07A13.22,13.22,0,0,1,15,44.83c.46.2.92.41,1.39.6Zm.46.42c-.21-.1-.5-.27.05-.07S17.12,46,16.7,45.78Zm2.14.58a3.3,3.3,0,0,1-1.47-.55c.94.36,1.87.67,2.75.93A8.38,8.38,0,0,1,18.84,46.36Zm0-10.72c.1.07,0,0-.05,0C19.68,37.46,18.4,35.22,18.8,35.64Zm.41.55s0-.08,0-.09S19.24,36.18,19.21,36.19Zm.07.42a.61.61,0,0,0,0,.18C19.27,36.73,19.13,36.47,19.28,36.61Zm-.07-.33-.06,0Zm.35.75a11.65,11.65,0,0,0,.74,1C20.08,37.83,19.15,36.63,19.56,37Zm0-.36s.12.11.09.14Zm.49.5s0,0,.06,0S20.05,37.23,20,37.17Zm.31.47s0-.08,0,0S20.37,37.68,20.31,37.64Zm.15.51c.11,0,0,.06.11.1Zm.45,9.05c.5,0,.73,0-.26-.31.39.17,1,.18,1.31.42A4.17,4.17,0,0,1,20.91,47.2Zm-.32-8.94a2.38,2.38,0,0,1,.5.4A4.87,4.87,0,0,1,20.59,38.26Zm.77.54c0,.09-.17-.08-.25-.12C21.22,38.68,21.28,38.86,21.36,38.8Zm0-.26s.06,0,.1,0A.06.06,0,0,1,21.34,38.54Zm.13.34a.3.3,0,0,1,.13.12S21.35,38.88,21.47,38.88Zm.54.26s-.07,0,0,.06.06,0,.06,0a1.88,1.88,0,0,0,.87.35c-.35.09-.91-.32-1.3-.5A1.2,1.2,0,0,1,22,39.14Zm.19.1s0,0,.06,0S22.27,39.27,22.2,39.24Zm.23,0c0-.05.05-.06.09-.05S22.43,39.24,22.43,39.24Zm.44.11s0-.11.07-.1S22.87,39.35,22.87,39.35Zm.17.25.08,0-.18,0Zm.86,8.16a2.72,2.72,0,0,0-.94-.19c.06,0-.13-.07-.36-.15.69.18,1.4.35,2.14.5A8,8,0,0,1,23.9,47.76Zm.18-7.93c.9,0,1.54-.45.62-.42,0,0,0,0-.05,0s0,0,0,0h-.2a4.09,4.09,0,0,1-.5,0l.05,0c.15,0-.14.19-.13.06s0-.07,0-.08l-.3,0c.1,0,.12-.15,0-.05l0,0-.36-.07s0,.05,0,0a.07.07,0,0,1,0-.05A4.34,4.34,0,0,1,22,38.82s0,0,0,0,0-.11-.09-.11,0,.09.06.13l-.06,0a.05.05,0,0,0,0,0v0a4.27,4.27,0,0,0-1.22-.67c0-.29-.09-.61-.41-.58.27-.2-.05-.07,0-.28,0,.18-.27-.17-.26-.34,0,.22-.6-.31-.46-.43a1.28,1.28,0,0,1-.33-.43c-.05.07-.05,0,0-.06a4.51,4.51,0,0,1-.32-1s-.1,0-.11,0,.08,0,.11,0a10.26,10.26,0,0,1-.19-3.73c.41-.4,0-.06,0-.35.09,0,.34-.31.11-.24.59-1.08,2.14-4.47,4.49-4.11.05-.13.59-.1.25-.13s.25-.26.25.06a4.36,4.36,0,0,1,.85-.2h0c-.06.05,0,.07,0,0a.08.08,0,0,0,0,0,4.07,4.07,0,0,1,1.52.08h0c.22,0,.27,0,.18.06l.42.13c-.06-.07-.07-.14,0,0,.09,0,.26.06.12.07l.35.18s0-.05,0,0,0,0,0,.05a7.06,7.06,0,0,1,3.14,3.88c0-.06,0-.09.06-.06s0,.13-.06.07a6.22,6.22,0,0,1,.27,1.05s0,0,0,.07a0,0,0,0,1,0,0c0,.14.05.27.06.41a.14.14,0,0,1,0,.07h0a5.48,5.48,0,0,1-.2,2.18.7.7,0,0,1,0,.24s0,0,0-.06-.06.16,0,.1c-.15.9-1.22,2.92-1.7,3-.77,1-.95.71-1.32,1.12,0,0,.12,0,0,0s0,0-.06,0l-.1.11a8.15,8.15,0,0,0-1.23.28c.07,0,.15.13.07.16s-.14-.14-.08-.16c-.67.19-1.24.43-.55.48A5.6,5.6,0,0,1,24.08,39.83Zm0-.18s0-.06,0,0S24.1,39.67,24,39.65Zm.11-.22c.05,0,0,.07,0,.11S24.12,39.48,24.15,39.43Zm.09.26s.06.09,0,.08S24.18,39.69,24.24,39.69Zm.25-.16s.07.09,0,.08S24.44,39.52,24.49,39.53Zm-5.83-8.44.06,0Zm11.71,4.72c-.06.11,0,0-.06-.05C30.1,36,30.25,35.4,30.37,35.81Zm0-.32c.08-.22,0,.08,0,.07Zm0,.55c-.07.16-.15.33-.24.49C30.21,36.43,30.29,36,30.4,36Zm0-.75s.14-.12.1,0S30.4,35.29,30.38,35.29Zm.06.49c.28-.38.09-.06,0,.18C30.45,35.9,30.43,35.84,30.44,35.78Zm.1-.74s.07,0,.05,0S30.52,35.09,30.54,35Zm0-.11c-.1,0,.05-.18.07-.13S30.54,34.92,30.58,34.93ZM30,36.6c.1,0,.11,0,.05.08Zm-.08.3a.43.43,0,0,0,0-.16C30,36.78,30,36.84,29.94,36.9Zm-.52.41c0,.06-.08.06,0,0S29.43,37.27,29.42,37.31Zm-.64.7c0,.06-.12,0-.06,0Zm-.13.22s0,0,0-.06S28.7,38.24,28.65,38.23Zm-.16.29-.06,0S28.45,38.53,28.49,38.52Zm-.47.34.11-.08C28.27,38.71,28.08,38.83,28,38.86Zm-.23.15-.25.14s0,0,0-.06S27.72,39,27.79,39Zm-.41.22,0,0C27.53,39,27.52,39.21,27.38,39.23Zm-.31.15c-.06,0-.24.12-.2,0S27,39.43,27.07,39.38ZM27,39.15s.1.07,0,.1S26.93,39.17,27,39.15Zm-.15.32c-.11.06-.17,0-.11-.06S26.81,39.51,26.84,39.47Zm-.28.1a.27.27,0,0,0,.08-.07C26.72,39.54,26.61,39.54,26.56,39.57Zm-.2.06-.09,0,.06,0S26.35,39.63,26.36,39.63Zm-.35.09s-.08,0-.05,0Zm-.47,0s-.07,0-.1,0S25.57,39.61,25.54,39.72Zm1.82,8.85c.06,0-.29,0-.15,0a4.61,4.61,0,0,1-.61-.1C26.72,48.42,27.66,48.59,27.36,48.57Zm1.27,0A17,17,0,0,1,25.11,48c1.35.27,2.78.5,4.29.67A5.37,5.37,0,0,1,28.63,48.58Zm0-10.2a.27.27,0,0,0,.1-.11C29.72,37.25,29.68,37.41,28.67,38.38Zm.76-1.15c0-.06.11-.06.09,0S29.46,37.25,29.43,37.23Zm.33-.07c0-.06,0-.27.08-.11Zm.11,11.57.89.07C30.32,48.77,30.31,48.89,29.87,48.73Zm.77-13.28c-.21,0,.1-.28.16-.48C30.75,35.13,30.7,35.29,30.64,35.45Zm.17-.53c0-.05,0-.05-.07,0a.17.17,0,0,0,.1-.09Zm0-.26s.05-.06.07-.13a1.7,1.7,0,0,1,0,.22S30.85,34.66,30.82,34.66Zm1.4,14.23a11.48,11.48,0,0,1-1.29-.08Zm9.49-.51c-2.75.65-6,.53-9.19.62.28-.06.18-.08-.07-.1A44.66,44.66,0,0,0,43.54,48C43,48.15,42.19,48.27,41.71,48.38Zm.11-14.72c.1.06,0,0,0,0C42.71,35.48,41.42,33.24,41.82,33.66Zm.41.55c0-.06,0-.08,0-.1A.06.06,0,0,1,42.23,34.21Zm.08.41a.53.53,0,0,0,0,.18C42.29,34.74,42.16,34.48,42.31,34.62Zm-.08-.32,0,0Zm.35.75c.25.38.47.59.75,1C43.1,35.84,42.18,34.65,42.58,35.05Zm0-.36s.12.1.09.13Zm.48.49s0,0,.07,0S43.07,35.25,43,35.18Zm.36.43s0,.08,0,0S43.34,35.58,43.38,35.61Zm.11.55c.1,0,0,.06.11.1A.52.52,0,0,1,43.49,36.16Zm.12.11c.24.11.3.24.5.4A6.25,6.25,0,0,1,43.61,36.27ZM44.25,48c-.42.06-.33,0,.34-.13C44.68,47.83,44.46,47.89,44.25,48Zm.13-11.15c0,.09-.16-.08-.25-.12C44.25,36.69,44.31,36.88,44.38,36.81Zm0-.26s.07,0,.1,0S44.4,36.59,44.36,36.55Zm.14.35c.06,0,.1.07.13.11S44.38,36.89,44.5,36.9Zm.15.12a1.14,1.14,0,0,1,.38.13s-.07,0,0,.06.07,0,.06,0a1.88,1.88,0,0,0,.87.35C45.59,37.61,45,37.2,44.65,37Zm.57.23s0,0,.07,0S45.3,37.28,45.22,37.25Zm.23,0s0,0,.09,0S45.45,37.25,45.45,37.25Zm.44.11s0-.11.08-.1S45.89,37.36,45.89,37.36Zm.17.26.09,0-.19,0Zm.51,9.86c-.2,0-.42.09-.33,0S47.49,47.21,46.57,47.48Zm-.07-.18c1.08-.3,2.32-.79,3.14-.92C48.68,46.65,47.56,47,46.5,47.3ZM49,37.72H49S49,37.77,49,37.72Zm.68-.21s0,0,0,0S49.57,37.61,49.66,37.51Zm.13,8.72.54-.19Zm0-8.81s.08.1.11.06S49.69,37.52,49.75,37.42Zm.34,0c-.06,0-.24.12-.2,0S50,37.44,50.09,37.39ZM50,37.16s.1.07,0,.1S50,37.18,50,37.16Zm.39.08,0,0C50.55,37.05,50.54,37.22,50.4,37.24Zm0-.2a8.45,8.45,0,0,0-1.23.28c.07,0,.15.13.07.16s-.13-.14-.08-.16c-.67.19-1.24.43-.55.48a5.32,5.32,0,0,1-1.69,0c.92.06,1.78-.24.85-.47a3.69,3.69,0,0,1-.78.08l0,0c.15,0-.13.2-.12.06a.27.27,0,0,1,0-.08,3.12,3.12,0,0,1-.71-.1s0,0,0,0,0,0,0-.05a3.82,3.82,0,0,1-1.06-.47v0s0-.11-.09-.11,0,.1.07.14l-.07,0s0,0,0-.05v0a3.77,3.77,0,0,0-1.23-.67c0-.28-.09-.61-.4-.58.26-.2-.06-.07,0-.28,0,.18-.28-.17-.27-.34.06.23-.6-.31-.45-.42a1.22,1.22,0,0,1-.34-.44c0,.08,0,0,0-.06a4.87,4.87,0,0,1-.33-1s-.1,0-.11,0,.08,0,.11,0a10.45,10.45,0,0,1-.19-3.72c.42-.41,0-.07,0-.36.09,0,.33-.3.11-.23.58-1.08,2.13-4.48,4.48-4.12,0-.13.59-.09.24-.13s.25-.26.26.06a4.27,4.27,0,0,1,.84-.2h0c-.06,0,0,.07,0,0v0a4.07,4.07,0,0,1,1.52.09s0,0,0,0c.22,0,.26,0,.17.06l.42.13c-.06-.07-.07-.15,0,0,.09,0,.27.07.11.07l.37.18s0-.05,0,0,0,.05,0,.05a7.18,7.18,0,0,1,3.14,3.88c0-.05,0-.08.06-.05s0,.12-.06.07a7.74,7.74,0,0,1,.28,1.05s0,0,0,.07h0c0,.13.05.26.07.39s0,.1,0,.11a5.27,5.27,0,0,1-.19,2.17,1.21,1.21,0,0,1,0,.26.24.24,0,0,1,0-.09s-.09.1-.07.12h.09c-.16.9-1.22,2.9-1.7,3-.77.95-1,.7-1.32,1.11,0,0,.12,0,0,0s0,0-.06,0Zm-1.85.69s-.08,0-.11,0S48.59,37.62,48.57,37.73Zm-1.51-.07s0-.06,0,0S47.12,37.68,47.06,37.66Zm.11-.22s0,.07,0,.11S47.14,37.49,47.17,37.44Zm.09.26s.07.09,0,.08S47.2,37.7,47.26,37.7Zm.26-.16s.06.09,0,.08A0,0,0,1,1,47.52,37.54Zm.16-.08s0,0,0-.05S47.75,37.46,47.68,37.46ZM53,34.61c.1,0,.11,0,.06.08Zm-.07.3a.38.38,0,0,0,0-.15C53.05,34.79,53,34.85,53,34.91Zm-.18.26s0-.18,0-.17S52.82,35.12,52.79,35.17Zm-1,1.11c1-1,.91-.86-.11.11A.38.38,0,0,0,51.8,36.28Zm-.13,0s0,0,0-.06S51.72,36.25,51.67,36.24Zm.07-.23h.07C51.76,36.08,51.69,36.06,51.74,36Zm.66-.7s.05,0,.05,0S52.36,35.38,52.4,35.31Zm.05-.06c0-.06.11-.07.09,0S52.48,35.27,52.45,35.25Zm-.94,1.28,0,0S51.48,36.54,51.51,36.53Zm-.47.34.11-.08C51.29,36.72,51.1,36.84,51,36.87Zm-.48.29s0,0,0-.06.18-.06.25-.08ZM54,44.85c-.4.15-.31.09.3-.21C54.34,44.63,54.14,44.74,54,44.85Zm2.36-1.55a52.42,52.42,0,0,1-5.42,2.52A61,61,0,0,0,56.8,43,3.23,3.23,0,0,1,56.31,43.3Zm.08-36.56c-.09,0-.18-.1-.16-.07s-.85-.38-.76-.38c.38.18.88.38,1,.44C56.38,6.71,56.32,6.71,56.39,6.74Zm.13,0a.28.28,0,0,1-.12,0Zm-1.13-.7a1.45,1.45,0,0,1,.49.19A1.84,1.84,0,0,1,55.39,6.09Zm.09.55.29.09a5.48,5.48,0,0,1,1,.38C56.37,6.94,55.93,6.8,55.48,6.64Zm1.12.11c0-.12,0,0,.1,0Zm-.48-.59c-.27-.14-.63-.35-.88-.47.64.31,1.2.62,1.69.89Zm1.06,1.09.14.07L57,7.19ZM57.1,42.84l1.12-.66C57.88,42.4,57.36,42.71,57.1,42.84ZM59,41.74s-.08,0-.17.08c.32-.19.63-.41,1-.62C59.51,41.37,59.3,41.53,59,41.74Zm1.43-.9L60.1,41C60.58,40.65,60.87,40.5,60.39,40.84Zm.25-.27.57-.43C61.11,40.33,60.91,40.36,60.64,40.57Zm.22.7c0-.08.25-.34.38-.5C61.13,40.93,61,41.1,60.86,41.27Zm.13-.42c-.17.19.18-.48.33-.51A4.18,4.18,0,0,1,61,40.85Zm.36-.22a1.23,1.23,0,0,1,.41-.62C61.66,40.18,61.52,40.39,61.35,40.63Zm.42-.76c.08-.14.1-.24.23-.32S61.87,39.89,61.77,39.87Zm3.34-29.09a.49.49,0,0,0,.08.11,1,1,0,0,0,.08.21C65.22,11,65.16,10.88,65.11,10.78ZM74,36.65A1,1,0,0,1,74,37C73.89,36.4,73.88,36,74,36.65Zm-.31-1.35c.06.83-.11-.29-.1-.34S73.62,34.92,73.68,35.3ZM72.89,32c0,.05,0,.12,0,.18S72.85,31.9,72.89,32Zm-2.44-8.81c0,.09-.07-.11-.07-.05-.06-.19-.13-.39-.2-.58C70.28,22.78,70.38,23,70.45,23.18Zm-1.2,24.26a1.19,1.19,0,0,1-.37.28Zm-.36-28.35h0c-.17-.44-.34-.87-.52-1.29A3.9,3.9,0,0,1,68.89,19.09ZM68.14,17a1,1,0,0,0,0,.32c-.1-.25-.21-.49-.31-.73A3.51,3.51,0,0,1,68.14,17Zm-1.6-3.38.15.34-.37-.78Zm-.31,35.84.64-.39C66.63,49.38,66.57,49.35,66.23,49.48Zm.91-.56.38-.24A1.18,1.18,0,0,1,67.14,48.92Zm.35-33.18.21.38s0,.16.08.29C67.68,16.18,67.59,16,67.49,15.74Zm.3,32.87c.08-.28.51-.41.73-.63C68.21,48.23,68.05,48.39,67.79,48.61Zm1.81-1.39c.16-.31.72-.65,1-.95A9.57,9.57,0,0,1,69.6,47.22Zm1-23.56c.06.12.07.08.09.08s.32,1.11.41,1.46C70.89,24.68,70.73,24.16,70.56,23.66Zm.43.72c-.13-.43-.08-.33,0-.33C71.08,24.48,71.2,25.07,71,24.38Zm1.24,20.53c-.43.48-.71.7-.28.19S72.21,44.89,72.23,44.91Zm.45-.52c-.43.48,0-.1.18-.31C72.87,44.1,72.91,44.1,72.68,44.39Zm.66-1.1c-1.77,2.06-.39.45.26-.49,0,.08-.11.17-.23.33C73,43.55,73.26,43.41,73.34,43.29Zm.77-1.3c.41-.75.17-1.09.1-1.84.07.57.29,1.1.07,1.57C74.22,41.81,74.16,41.9,74.11,42Z"/><path class="cls-1" d="M42.26,33.84s-.06,0-.07.11,0,0,0,.06l0,0A.11.11,0,0,0,42.26,33.84Z"/><path class="cls-1" d="M46.9,37.42H47C47,37.39,46.9,37.37,46.9,37.42Z"/><path class="cls-1" d="M48,37.78c.08,0,.1,0,0-.05S47.94,37.75,48,37.78Z"/><polygon class="cls-1" points="49.18 37.32 49.19 37.32 49.19 37.32 49.18 37.32"/><path class="cls-1" d="M27.5,38.92h0Z"/><polygon class="cls-1" points="26.16 39.31 26.17 39.31 26.16 39.31 26.16 39.31"/><path class="cls-1" d="M50.26,24.8l0,0v0Z"/><path class="cls-1" d="M49.84,24.61h0l-.15-.07A.2.2,0,0,0,49.84,24.61Z"/><path class="cls-1" d="M49.13,24.39a.31.31,0,0,0,.16,0l-.18,0A.08.08,0,0,0,49.13,24.39Z"/><path class="cls-1" d="M46.12,37.3l.07,0a.11.11,0,0,0,0,0A0,0,0,0,0,46.12,37.3Z"/><path class="cls-1" d="M24.05,51.18c.28-.49.12-.38-.23.24C23.23,52.29,24.1,51.23,24.05,51.18Z"/><polygon class="cls-1" points="41.86 32.96 41.86 32.97 41.87 32.97 41.86 32.96"/><path class="cls-1" d="M21.77,2.31l-.05,0h.05Z"/><path class="cls-1" d="M45.19,0c-.35,0-.44,0-.31.06l.36,0C45.75.08,45.41,0,45.19,0Z"/><path class="cls-1" d="M60.15,4.3c.6.33.69.38.34.12C60.3,4.33,60.08,4.24,60.15,4.3Z"/><path class="cls-1" d="M43.16.91l0-.06C43.05,1,43.08,1,43.16.91Z"/><path class="cls-1" d="M41.24,30.64Z"/><path class="cls-1" d="M63.45,7.49a1.63,1.63,0,0,0,.11.2l0-.12C63.34,7.22,63,6.81,63.45,7.49Z"/><path class="cls-1" d="M22,2.22h0C23.18,1.75,23,1.81,22,2.22Z"/><path class="cls-1" d="M24.29,3c-.43.15-.85.31-1.27.48L23,3.49C23.44,3.28,23.89,3.09,24.29,3Z"/><path class="cls-1" d="M44.84,2.19a9.81,9.81,0,0,1-1.27-.88C43.69,1.67,44.17,2,44.84,2.19Z"/><path class="cls-1" d="M34.24,3.53c-.26,0-.16,0,.07.05l.86-.06A4.74,4.74,0,0,0,34.24,3.53Z"/><path class="cls-1" d="M69.33,19.55c-.18-.45-.27-.45-.14-.06,0,.09.08.19.11.28S69.38,19.74,69.33,19.55Z"/><path class="cls-1" d="M45.6,2.37a.76.76,0,0,0,.39.06l-.12,0C45.64,2.36,45,2.26,45.6,2.37Z"/><path class="cls-1" d="M16.2,3.84,16,3.92l.46-.18A.89.89,0,0,0,16.2,3.84Z"/><path class="cls-1" d="M56.74,44.9l-.08,0C56.43,45.06,56.74,44.92,56.74,44.9Z"/><path class="cls-1" d="M58.79,42.29c.1,0,1-.62.3-.19Z"/><path class="cls-1" d="M15.72,8.24l-.05,0,.23-.09Z"/><path class="cls-1" d="M52.46,5c.88.51.56.16-.59-.27S52,4.8,52.46,5Z"/><path class="cls-1" d="M50.46,4.08a11.64,11.64,0,0,0,1.08.46C51.61,4.51,49.37,3.54,50.46,4.08Z"/><path class="cls-1" d="M51.37,4.3c-.23,0-.47-.07.26.21C51.83,4.34,51.43,4.31,51.37,4.3Z"/><path class="cls-1" d="M17.32,47.36c-.32-.15.29.17,0,0Z"/><path class="cls-1" d="M49.33,3.81c.39.17.63.24.66.2A5,5,0,0,0,49.33,3.81Z"/><path class="cls-1" d="M20.39,5.16l-.22.13c.07,0-.23.11-.15.08l-.53.29C20.07,5.37,20.4,5.22,20.39,5.16Z"/><path class="cls-1" d="M15.93,7.54c.57-.35-.3.15,0,0Z"/><path class="cls-1" d="M13.82,9c.28-.15.49-.33.1-.13C13.36,9.11,13,9.36,13.82,9Z"/><path class="cls-1" d="M12,10.07l.3-.19C11.7,10.13,11.57,10.36,12,10.07Z"/></g></g></svg>