<svg xmlns="http://www.w3.org/2000/svg" viewBox="0 0 125.22 14.95"><defs><style>.cls-1{fill:#010101;}</style></defs><g id="Layer_2" data-name="Layer 2"><g id="menu"><rect x="61.9" y="-51.73" width="2.79" height="118.98" transform="translate(52.76 70.65) rotate(-87.48)"/><path class="cls-1" d="M107.21,8.53c-.08.2-.45,1.2,0,1.14C107.48,9.66,107.62,8.52,107.21,8.53Z"/><path class="cls-1" d="M92.55,8.76c-.24,0,.44.93.6.72S92.69,8.77,92.55,8.76Z"/><path class="cls-1" d="M81.05,9.15c.35.09.45-.19.45-.58h-.23A1,1,0,0,0,81.05,9.15Z"/><path class="cls-1" d="M121.07,14.05c-.22,0,.23.27,0,0Z"/><path class="cls-1" d="M124.51,11.66c-.31-.48-1.13,0-1.68-.41.24.18.67-.43.53-.65-.38-.61-.61,0-.94,0,.19-.63-.45-.29-.78-.36-.53-.1.56-.81-.31-.66s-1.33.48-2.07-.09a.55.55,0,0,1-.25-.62l3.61,3.94c-.33-.1-.49-.54,0-.44l-3.19-3.48,0,.11c-.16.54,1.38.06,1.35.22s-.38.56.13.33a1,1,0,0,0,.54-.58l1.28,1.41a1,1,0,0,0-.3-.05c-.31,0-.88.34-1.15,0s0-.68-.34-.67-.37.75-.65.63c-.47-.2-.27-.57-.9-.15a.92.92,0,0,1-1-.23c-.28-.25-.22-.87-.54-.85v.85c-.23,0-.74-1.7-.89-.9-.09.45-.35.36-.67.39s-.66.5-.86,0c-.08-.2.08-.62-.15-.68s-.38.51-.49.76c-.2.43-1.29-1.16-.91,0,0,0-.76-.21-.76.27-.3,0-.91-1-.91-.26a.55.55,0,0,1-.23-.37c-.08.59-.6,1.12-1,.6-.18-.22,0-1-.34-1s-.2.49-.24.7a.56.56,0,0,1-1.12,0c-.06-.3-.21,0-.22-.56V7.9c-.61,0-.41,1.13-.58,1.58-.07.16-.18.31-.31.16-.4,0,0-.6,0-.78a.86.86,0,0,0-1-.68c-.16,0-.34.37-.47.27s-.19-.44-.34-.54a7.74,7.74,0,0,1-.26,1.89c0-.14-.18-.37-.3-.27-.44.35-.28.61-.91.34-.27-.12-1-.37-1.06-.24.38-.86-.88,0-.4-1.24.16-.41.39-.35.39-.88a4.84,4.84,0,0,0,0-.85,6.24,6.24,0,0,1-.71,1.52,2,2,0,0,0-.41.87c-.09.47-.79,0-.66.73a.41.41,0,0,0-.29-.48c-.28-.06-.19.21-.38.37s-.28-1.07-.1-1.07c-.17,0-.4.51-.57.61a1.09,1.09,0,0,1-1.08,0c-.42-.24.19-1,.38-1.26-.26,0-.45,0-.45.42,0-1-1.09-1.59-.68-.1.74.91-.72,2.15-1.12,1.18.94.22.09-1.14.67-1.16,0-.76-.56-.77-.68-.1,0,.15-.48-.17-.61-.13s0,.86-.09,1.05c-.21.51-.55.48-.9.22s.59-.48.59-.66-.77,0-.84,0c-.28.09-.06.59-.24.65S95,9,95,9.52c-.35-.34-.36-1.06-.67-.26-.22.55-.36.4-.68,0-.93-1.1-1.58-1.49-2.57-.2.42-.55-.82-.8-.82-.25-.39,1-1.09-.24-.22-.27,0-.47-.33-1-.68-.55-.25,0-.23.38-.22.58.22,0,.66.45.33.66-.55.34-.75-.36-1.15-.35a1.17,1.17,0,0,1-1.22-.52c-.16.42-.5.39-.77.16s-.24-.36-.41-.4-.23.25-.44.39C85,8.85,85.24,8,85,7.89c-.38-.1-.62-.15-.62-.73a4.93,4.93,0,0,1-.22,1.32c0-.59,0-1.94-.68-1.1-.23.27-.51.83-.82,1s-.13-1.12-.53-.09c0,.19-.85-.86-1-.7a3.85,3.85,0,0,0-1,1.34,10.5,10.5,0,0,0-.35-1.26c-.06,0-.16.78-.31.61s0-.88-.32-1.21-.9,0-1.15.21c-.67.44,1,0,.8.41A3.34,3.34,0,0,1,78,8.81c-.39.31-.52-.12-.75,0s-.43.43-.78.29-.56-.34-.87-.44A.92.92,0,0,0,75,8.61c-.09,0-.24.3-.27.31l0-.89V7a4.66,4.66,0,0,0-.23-1.29c0,.77.18,3.11-.68,3.24a2.37,2.37,0,0,1-2-.59c-.41-.5-.33.3-.59.2s-.44-1-.82-.48c-.14.2-.62,1.34-.62.35-.34-.42-.45.12-.84,0a.25.25,0,0,1-.06-.27.74.74,0,0,0-.62.21c-.24.19-.37-.36-.74.12,0,.54-.66-.19-.81-.22-.48-.11-.84.21-1.3.24s-1.5-.35-1.5-1.21c0,.66-.2,1.27-.81,1.14A3.93,3.93,0,0,1,62.16,8c-.38-.19-.36.52-.54.57s0-1.08,0-1.25c-.16-.35-.48,1-.58,1s0-.85-.26-.84-.32.61-.59.69c-.52.15-1.32.23-1.58-.48-.45-1.24-.19-.9-.73,0-.4.64-.92-.86-1.1-.57,0,0,.42,2.19-.38,1-.32-.49-.22-.93-.61-.16-.28.57-1-1.24-1-1.34.09.11-.62,1.43-1.11,1.24.08,0,.16-.46.15-.56-.54,0-.72.88-1.39.93-.16,0-.41,0-.41-.3,0-.56-.48,0-.55-.35,0-.13.24-.54,0-.66s-.53.48-.73.58c-.49.27-.23-.61-.26-.93-.47,0-.33.44-.6.79-.16.2-.32-.37-.63,0-.14.17-.79.5-.83,0,0-.08-.14-1.38-.28-1.2s.1.55.08.73c0,.37-.3.3-.52.31s-.08.22-.31.23-.53-.2-.85-.19-2.57.5-2.37-.48c-.16,0-.45,0-.45.3-.19.07-.43-.08-.61.1-.32.34-1,0-1.53-.07a4.51,4.51,0,0,0-1-.21l-.45,0c0,.14-.05.21-.17.22-.33,0-1.16-.55-1,.38-.46,0-.13-.28-.31-.44a1.25,1.25,0,0,0-.82-.36c-.23,0-.3.75-.57.44s-.31-.89-.57-1.22c-.52-.65-.34.82-.67.83-.1,0-1.58.06-1.35-.23a5.37,5.37,0,0,1-1.06,0c-.5-.09-.14-1.11-.75-1.09,0,.36.56.78.08.84a2.8,2.8,0,0,1-1,0c-.28-.08-.07-.24-.42-.23s-1.2.45-1.31-.3a9.16,9.16,0,0,1-.25-1s.17-.57,0-.5-.3.29-.35,0c0-.09.2-.34-.08-.33-.05,0-.07.22-.07.42l0,.43c0,.42.31,1.05.14,1.45s0,.36,0,.57S29,6.53,29,6.51c-.3-.13-.12.24-.27.28s-.78-1-.68-1.08c-.21.28-.63,1.92-.64.48a1.76,1.76,0,0,0-1.19-.49c-.24.06-1.27.84-1.29.22,0-.27.16-.36,0-.5-.56,0-.22.29-.46.61-.09.11-.61-1.06-.64-1.14.32.79-1.4,1.8-1.88,1.47-.14-.1-.17-.29-.31-.41s-.57.19-.8.18-.3-.19-.45-.38-.58-.14-.78-.14a4.31,4.31,0,0,1-1.68-.06c-.23-.1-.21-.4-.45-.43s-.56.38-.9.46c-.58.15-1.37-.55-1.85-.25-.24.16-1,1.07-1.08.21,0,.29-.19.56-.44.57.09-.7-.58-.7-.93-1.2.07.17.13.37.06.48-.2.3-.51-.45-.6-.53a.59.59,0,0,0-.72,0c-.24.15-.27.87-.36.9s-.79-.91-.61.12c0-.84-.94-.66-1.38-.8s-.21-.65-.44-.94a10.49,10.49,0,0,1-.33,1.21C8,5.26,7.08,4.09,7,4.71c0-.15.06,1.55-.16,1a3.08,3.08,0,0,1-.2-1.32c-.14.35-.39,1.15-.79,1.06-.25,0-.44-.59-.56-.58s-.36.67-.67.73c.12-.16-.3-.12-.73,0L5.69,3.83a6.62,6.62,0,0,1,.12.82c-.32.72-1.38.09-1.9.1.13,0,.25.34.28.38.19.23.37.19.64.2.46,0,.26.76.15.93a.88.88,0,0,1-.46.31l-.69-.75.06.12c.18.36.29-.44.38-.53.42-.45.61.14.6-.85,0,.63.59.27.84.51.07.07.14.43,0,.48-.31.1,0,.57-.25.58.08,0,.65,0,.65,0s-.67.48-.47.72.69-.65.75-.77c.21-.51,0-.81.51-1.15.74,0,1.28.9,2,.6.23-.1.73-.67,1-.55s-.1.7,0,.89c.25.38.38-.36.38-.49.44-1.13.3.41.48.41s.22-.57.2-.72c.4.5,1.1-.09,1.6,0s1.48.81,1.55-.08c.11.62,1.39-.11,1.72-.07s.83.15,1,.54c.24,0,.46.26.68,0,.17,0,.68-.11.68.26.37.12.73-.12,1.1.14,0,0,.32.38.28.38.27,0,.35-.27.67-.3.51,0,1-.46,1.52-.45.36,0-.29.81-.29,1s.59-.36.57-.34c.19-.2.34-.46.59-.53s.31.26.52.25c0-.39.9-.52.9,0,.19.4-.13,1.11.21,1.52a1.29,1.29,0,0,1,.21-1c.14-.06.29,0,.42-.1s.14-.52.31-.7c.33-.38.82-.18,1.11.16.74.45.47-.44,1-.46-.21,0-.21,1,.31,1,.26,0,1.81.15,1.8-.35.22-.29.91.18.91.54,0,0-.87.9-.35.93.34,0,.58-1.32.68-1.58.38-1,.6.75.6.75s.24-.53.36-.62.4.32.48.41c.37.42.39-.18.61-.5.41-.59.29.15.33.39s1,.21.89-.41c.08.94,1.63.75,2.19.92.16,0,.57.33.69.24.29-.23.24-1.05.73-1.07.08.43-.74,2,0,2a4.85,4.85,0,0,1,.42-2c0,.1.1.7.25.7s.43-.71.61-.83.67.62,1.08.66.51-.44.95-.59a.72.72,0,0,1,.8.14c.14.17.14,1,.24,1,.31.09.88-.84,1.25-.46a7.47,7.47,0,0,1,.49,1.59c.2-.26.09-.68.45-1s1.28-.26,1.34-.61c.28-1.42.46.07.47.77.29,0,.18-.18.23-.46s.52-.14.64-.15c.4,0,.65-.3,1-.31s.37-.08.4.18c.21.21.4-.09.55,0s0,.83-.07.83c.6,0,.48-1.22,1.26-.75.3.18.51.47.23.84-.18.16-.56.73,0,.58s.58-.46.88-.7a2.67,2.67,0,0,1,1.32-.51c.24,0,2.66-.35,2.67-.43-.06.42-.24,1.2.12,1.63-.11-.13.43-1,.51-1.11.28-.43.4-.62.71-.36s1-.17,1.24.2c.09.13,0,.59.18.58s.35-.7.51-.9c0,0,.09.53.2.57a.19.19,0,0,1,.16-.18c.17,0,.33.26.42.4a2.47,2.47,0,0,1,.38.84.86.86,0,0,1,.67-.62c.54-.13.56.19.69.68,0,.11.82-.63.87-.91.25-1.21.56-.41.25.4-.13.67-.31.86.23.85.13-.17,0-.83.28-1s.23.6.37.6,0-1,.47-1c.3-.21.69-.34.45.27s.37.43.56.18c.46-.59.11-.29.54.24-.21-.26.17-.57.48-.2a1.61,1.61,0,0,0,.64.26c.09,0,.1-.24.27-.28.4-.07.76.14,1-.28s.6.47.57.79c0-1.19,1.2-.21.93.14.57-.75,0-.73.62,0-.21-.26.55-.57.64-.69S70,7,70.29,7c.25.14.68.41.68.83,0,.25,0,.28.23.27s.18-.38.26-.61,1.09,1.16.86,0c.27,0,.26.34.19.64.17-.3.46-.42.72-.11,0,.69.24.4.38,0s0-.86.59-.38a1,1,0,0,1,.39.95c0-1,.69-.37,1.12-.93.19-.5,1-.5,1.33-.43a.55.55,0,0,1,.45.26c.17.38.38.08.67.09s.44.27.51.26c.41,0,.07-.71.22-.71s.29.54.43.61c.34.17.51,0,.82-.13.53-.12.1.9.44,1,.88.24.5-.52.83-1.06.19-.3,1.44-.21,1.67,0s.4.59.75.14.38-.13.22.27c.29.39,1.06.62.83-.17-.12-.41,1.25-.2,1.43-.16.52.1,0,.83.09,1s1.12-.7,1.4-.63.24.38.36.71c.18.52.55-.77.43-.76.2,0,.22.84.51.83s-.06-1,.37-1c0,.35-.13.86.23.85.27-.16.11-1,.38-1s.63.57.93.71a2.3,2.3,0,0,0,1.14.24c.14,0,.48-.05.48-.33,0-.61.42,0,.67,0,0-.22.47.25.61.26.51,0,.85-.2,1,.45,0,.22.45.13.45.64s.79.75.79.36c0-.06-1-1.17-.12-.67.19-.18.19-.55.42-.58.68-.07.41.23.49-.58,0-.42.41-.34.5,0a11.54,11.54,0,0,1,0,2.55c.95,0,0-2.63.81-2.57.3,0,2.12.81,2.32.15-.07,1,.87-.18,1.3-.09s1.45,1.37,1.8,1c.71-.81.76-.16.76.72.42.51.45-1.18.44-1.43.23.56.62,1.8,1.31,1.34.26-.18-.29-.51-.29-.74,0-.39.59.16.66-.18,0-.18-.27-.44.09-.48a.89.89,0,0,1,.72.27,1.15,1.15,0,0,1,.23.83c0,.34.33.86.32.26,0-.18-.34-1.69.2-1.49a3.56,3.56,0,0,1,.6.34c.54,0,.43.82.5,1.24.14.94.39-.37.64-.42s.67.28.67-.32c0-.91.36,0,.49.15s.71,0,.93-.07.25.15.41.14c.33,0,.53-.34.89-.19.16.07.78.55,1,.32s-.23-.39.16-.47c.18,0,1.12-.18,1.12.24s1.3-.11,1.58.22c.12.22.52.89.8.6s0-.75.38-.92,1.53,1.35,1.52.23a1.59,1.59,0,0,1,.62.59c.31.41.2-.12.31-.22a12.11,12.11,0,0,1,.61,2.43c0,.3.23,2.45-.16,2-.14,0-1.18-1.17-1.22-1s.2.25.09.47c-.18,0-.31.19-.38.39s-.14,1.05.25,1c-1.16,0-2.33-.16-3.5-.22-.92,0-1.85-.05-2.77-.15-.19,0-.54-.25-.66-.23-.32,0-1,.74-1.25.18-.16-.39.46-1.32.33-1.47a6,6,0,0,1-.81.21,1.4,1.4,0,0,0-.22,1c0-.55-.35-.42-.52-.24s-.27-.08-.42.33-.47.17-.64,0-.39-.54-.68-.41-.35.46-.61.28-.58-.84-.93-.42c-.22.26-.16.41-.56.32a1.51,1.51,0,0,1-1.06-.73c-.42-1-.32.41-.7.62a.62.62,0,0,1-.61-.09c-.13-.09-.67-.89-.69-.88s-.54,1.69-.93.74a4.93,4.93,0,0,0-.75-.31c-.24-.07-.75-.92-.81-.92.12,0-.21.94-.25,1a.57.57,0,0,1-.67.3c0-.59-1.18-.29-1.13.25.14-.85-2.22-.41-2.59-.4s-.52-.55-1-.53c-.13-.08-.37-.29-.5-.09s-.26.82-.37.83,0-.86-.32-.61c0,.05-.56.61-.6.37-.2-.92-.76,0-1.29-.1-.29-.08-.19-.25-.35-.45s-.72.2-.93.19a1.37,1.37,0,0,1-1-.5c-.24-.26-.18,0-.36.14a3.11,3.11,0,0,1-2.83.1c-.65-.33-.26.42-.82.39-.39,0-.64-.4-.72-.84,0,.3-.06.59-.29.63s-.53-.25-.85-.24-.19-.65-.27-.88-.63.8-.88.87-1.27.29-1.33-.32c0,.67-1.16.47-1.48.41a1.68,1.68,0,0,1-1-.48c-.5-.61-.51.52-.84.53s-.48-.27-.73-.38-.13.2-.35.2c-.43,0-.27-.26-.51-.62-.41-.64-.79-1.42-1.19-2.16a12.14,12.14,0,0,1,.23,1.8c0,1.68-.27.05-.82.07,0,0,.34.75.19.84-.35.18-1-.67-1.4-.66-.2.14-.49.32-.72.19s-.47-.83-.59-.46-.06.75-.38.76-.38-.44-.34-.7c0,.45-1.12.48-1.12,0,.2,1.15-2.08.36-2.58.37-.21,0-.86.13-1-.15-.06-.11-.11-.52-.25-.51s-.24.46-.23.72c-.07-.48-.52-1.68-.82-1.29-.09.12.46,1-.08,1-.41.54-.52-.55-.9-.54.11,1.51-.7,0-.68-.82-.4,0-.07,1.14-.39,1.36a1.63,1.63,0,0,1-1.54-.16c-.2-.13-.5-1.37-.71-1s.08.87-.06,1.06a6.09,6.09,0,0,1-1.13,0c-.37-.07-.39-.25-.62-.55s-.29.39-.39.57c-.43.73-.57-.92-.63-.92s-.34.37-.39.44c-.31.4-.61.29-1,.15s-.26.19-.56.18a2.58,2.58,0,0,1-1-.41c-.15-.07-.53.49-.9.47-.17,0-.19-.07-.19-.27a3.64,3.64,0,0,0-.87,0c-.36,0-.14.06-.42-.3s-.23.4-.35.53c-.75.79-.57-1.34-.65-1.63S52,11.74,52,11.78c-.16.23-1.08.35-1-.16,0-.1.2-1.76-.08-1.53s-.31,2-.81,1.94c-.2,0,0-.35-.24-.34s-.54.14-.54-.27c-.29.05-.41.37-.66.5s-.38-.46-.69-.45c0,.67-1.08-.75-1.12-.71-.2.27-.16.58-.59.6a.72.72,0,0,1-.54-.22s-.42-.73-.45-.62c-.11.4.11.92-.49.79s-.74-.89-1.1,0c0,.41-.37-.37-.67,0,0,.28-.71.38-.84.4a1.11,1.11,0,0,1-1-.17c-.38-.35-1.19-.09-1.64-.13a11.13,11.13,0,0,1-1.8-.25c-.1,0-.92-.68-.77-.88-.2.26.24,1.21,0,1.34a8.21,8.21,0,0,1-1-.92c-.34.06-.41.34-.61.63-.35.48-.48-.26-.75-.29C34,11,34,10.78,34,10c0,1.29-.5,1.16-1.44,1.18s-1.05-.05-1-1.1a6.37,6.37,0,0,0-.26.95c-.1.39-.31.18-.41-.07.12,0-.62-.06-.46.13-.1-.11-.32-.81-.42-.81s.06.85-.31.86-.59-.49-.84-.79c.27.33-.66.45-.67.5-.07.33-.14.21-.46.22a.66.66,0,0,1,0-.4,1.94,1.94,0,0,1,.08-.28,8.05,8.05,0,0,1-2,.33c-.2,0-.57-.52-.56-.13-.45.57-.87.39-1.44.24-.07,0-.77-.11-.66-.36s0-1.48-.28-1.15,0,1.21-.47,1.44-.6-.76-.91-.75c0,0,.25.56.09.67a1.52,1.52,0,0,1-1.22,0c-.33-.26-.26-.24-.72,0a1.31,1.31,0,0,1-1.11,0c-.34-.2-.28-.47-.62-.13a.74.74,0,0,1-1-.06c-.13-.1-.34-.61-.53-.53-.35.16-.47.71-.87.78,0-.49-.24-.18-.44-.08s-.29-.32-.39-.55c.15.43-1.18.86-1.44.74,0,0-1.06-1.83-1.21-1,0,.23.35.7-.19.62-.31,0-.73-.82-.82-.81s-.08.71-.48.72-.08-.31-.14-.38-.42.1-.53,0-.37-.74-.58-.56c-.37.33-1,1.63-1.56.88-.12-.17-.08-.87-.26-.86s-.29.75-.52.95c-.63.55-1-.3-1.32-.74-.15-.19-.43-.46-.66-.37s0,.53-.08.75c-.39.69-.84-.11-1.22-.28L0,8,.71,6.4l0-.11c-.37,0-.3-.37-.31-.54S.13,5.37.18,5c.11-.75.89-.72,1.15-1.27.08-.18-.43.06-.4,0-.33,0-.46,0-.57-.21L0,3.12,4.08.19A1.42,1.42,0,0,1,4.3.06c.56-.29.2.57.25,1,.25,0,.22-.37.22-.58.33,0,.49.27.85.26.1,0,.15-.29.3-.37A.92.92,0,0,1,6.8.39c.13.08.68.56.68.13,0,0,0,.78.2.57s0-1,.64-.95c.2,0,.22.15.32.29s.58.14.78.14c.56,0,1.26-.32,1.76.16.23.22,0,1,.33.78A4.64,4.64,0,0,1,12.67,1c0-.43,1.22-.39,1.45-.29s.07,1.31.42.83c.12-.17.24-.75.47-.76s.06.55.36.54A2.57,2.57,0,0,1,15.93,1,7.53,7.53,0,0,1,17.18.83a5.8,5.8,0,0,1,1.25,0c.31,0,.51.25.81.24a1.89,1.89,0,0,1,.58,0c.15,0,0,.51.15.65s.86-.63,1.12-.69a2.46,2.46,0,0,1,1.29,0,.65.65,0,0,1,.43.26c.07.14-.15.62,0,.62s.36-.82.7-.91.23.35.4.53a1,1,0,0,0,1,.24c.45-.13.61-.81,1.1-.35.26.23.65.81,1,.37s-.13-.45.47-.47a3.52,3.52,0,0,1,.86,0c.47.08,2.69,0,2.64.89-.12-1,1.45-.54,1.81-.27a.59.59,0,0,0,.68.54c.39,0,.36-.42.61-.59A1.18,1.18,0,0,1,35,1.7a.28.28,0,0,1,.26.24c.17.05.35-.07.53,0A5.29,5.29,0,0,0,37,2.74a.41.41,0,0,0,.48-.59,11.64,11.64,0,0,1,1.67,0c.44,0,.87.14,1.3.18a7.3,7.3,0,0,1,.81,0c.11,0,.27.24.32.23l2.7-.09a1.16,1.16,0,0,1,.82.14c.46.29.89-.17,1.33,0a1.74,1.74,0,0,0,1,.29q.86.08,1.71.12a7.27,7.27,0,0,1,2.23.23c.26.1.24.41.6.22.12-.06.72-.91.86-.59.29.68.3-.07.68,0s.08,1.25.69,1.22c.07-.4-.26-.79.15-.84s1.53-.31,1.43.44c0-.46.44-.84.76-.59.17.13.09.36.26.51a.74.74,0,0,0,.82,0,1.72,1.72,0,0,0,.64-.51c.27,0,.38.27.53.27s1.5-.27,1.5.23c.55-.83.65-.25,1.13.24,0-.47,2.81-.5,3.11-.17s.71,0,.95,0,.38.61.93.32c.34-.17.34-.36.73-.37s.11.22.38.26c.53.06.51.28.87.72-.05,0,.13-.61.25-.61s.42.67.54.79.14-.3.14-.39A1.22,1.22,0,0,1,70,3.82c.53-.22.34.28.87.29s.83.32,1.21.21c1.58-.47,3.43-.18,5-.14,1.2,0,2.48.16,3.68.3,1.35.15,2.7.33,4,.57.29.35.41,0,.79,0s.74,0,1-.32c0-.57.28.13.31.16.34.26.92,0,1.3.08.16,0,.2.07.2.27,0,.45.09.49.4.65.6.33.07-1,.13-1.13s.85.4,1,.42.21-.31.49-.2c.09,0,.62.63.73.32.06-.16-.3-.92.27-.57a1.44,1.44,0,0,0,.83.34,26.77,26.77,0,0,1,3.47.11c.28,0,.45.25.71.31a2.3,2.3,0,0,0,1-.12,8.14,8.14,0,0,1,2.46-.11,7.15,7.15,0,0,1,2.44.3c.32.16.29.36.72.19a4.61,4.61,0,0,1,1.32-.21,18.4,18.4,0,0,1,2.1.18c.81,0,2.27-.3,2.93.49.28.34.45.63.45,0s.68,0,.9-.32.83.15,1.13.25.59.15,1,.18a31.59,31.59,0,0,0,3.64-.06c.46,0,1.54-.23,1.91.22.53.31.34.2.37-.17,0-.19.93.11,1,.12.46,0,.89.25,1.35.24.16,0,.45,0,.45.27.32,0,.4-.12.64-.22a1.51,1.51,0,0,1,.63-.13l2.28,0,0,2.58c0,.63-.26,1.27-.23,1.89C125,11.2,125,12.32,124.51,11.66ZM14.63,9.9a.22.22,0,0,1,0,.08A.56.56,0,0,0,14.63,9.9Z"/><path class="cls-1" d="M100.5,8.19a.79.79,0,0,0,0-.17Z"/><path class="cls-1" d="M66.48,12.54a.49.49,0,0,0,0,.13A.66.66,0,0,0,66.48,12.54Z"/><path class="cls-1" d="M14.12,4.77a.8.8,0,0,0,0,.22A.81.81,0,0,0,14.12,4.77Z"/><path class="cls-1" d="M122.18,10.32c.21-.1.31-.55,0-.57S121.84,10.33,122.18,10.32Z"/><path class="cls-1" d="M122,13.45c.17,0,.32-.42.16-.42s-.65.24-.52.4A.73.73,0,0,0,122,13.45Z"/><path class="cls-1" d="M122.19,12c-.1.49.24.55.45.27v-1C122.64,11.81,122.62,12,122.19,12Z"/></g></g></svg>