<svg xmlns="http://www.w3.org/2000/svg" viewBox="0 0 227.47 85.09"><defs><style>.cls-1{fill:#010101;}</style></defs><g id="Layer_2" data-name="Layer 2"><g id="menu"><path class="cls-1" d="M178.66,4.37c-.16.26-.95,1.55.14,1.44C179.44,5.79,179.66,4.33,178.66,4.37Z"/><path class="cls-1" d="M143.27,5.48c-.57,0,1.16,1.15,1.52.88S143.62,5.49,143.27,5.48Z"/><path class="cls-1" d="M115.53,6.62c.85.09,1.07-.27,1-.76l-.54,0A1,1,0,0,0,115.53,6.62Z"/><path class="cls-1" d="M226.08,7.68c0,.54.34-.58,0,0Z"/><path class="cls-1" d="M222.62,1.74c-1.11.43.16,1.44-.8,2.16.41-.31-1.11-.82-1.62-.64-1.45.51-.07.78,0,1.2-1.54-.2-.65.58-.77,1-.19.67-2-.66-1.58.43s1.3,1.66,0,2.63-3.56-.49-1.19-.18c1.32.16,0-1.76.39-1.73,0,0,1.39.45.79-.19a3,3,0,0,0-2.18-.69c-.76,0-2.09.48-2.77.08-.41-.23-.13-.87-.9-.84s-.83,1-1.51.85c-1.15-.23-.71-.71-2.18-.15a3.91,3.91,0,0,1-2.55-.22c-.71-.31-.61-1.1-1.39-1.06l.1,1.08c-.57,0-2-2.12-2.27-1.09-.16.58-.8.47-1.55.53-.92.06-1.56.67-2.09.06-.22-.25.12-.79-.42-.86-.82-.1-.89.68-1.13,1-.43.57-3.24-1.4-2.17.09,0,.07-1.88-.21-1.83.39-.71,0-2.29-1.22-2.21-.27a.93.93,0,0,1-.59-.46,1.63,1.63,0,0,1-2.4.82c-.45-.28-.06-1.32-.91-1.28s-.44.63-.51.9c-.21.92-2.34.8-2.7.06-.18-.38-.52,0-.59-.69L183,3.47c-1.47.06-.87,1.46-1.25,2a.52.52,0,0,1-.73.21c-.94,0,0-.75,0-1-.13-.64-1.64-.9-2.43-.8-.37,0-.79.49-1.11.37s-.49-.55-.88-.67c.31.1-.31,2.11-.43,2.42.07-.18-.46-.46-.74-.34-1,.47-.61.8-2.17.49A8.57,8.57,0,0,0,170.62,6c.83-1.1-2.12,0-1.1-1.55.35-.53.91-.46.85-1.13a4,4,0,0,0-.1-1.08,7.29,7.29,0,0,1-1.58,2,2.25,2.25,0,0,0-.88,1.12c-.17.6-1.91,0-1.53,1,0-.3-.27-.54-.74-.59-.68-.06-.45.29-.89.49-.71.34-.78-1.33-.35-1.35-.4,0-.9.67-1.31.8a4.64,4.64,0,0,1-2.61,0c-1-.28.33-1.34.77-1.62-.62,0-1.08.08-1,.56-.11-1.27-2.79-2-1.64-.08,1.89,1.1-1.53,2.76-2.58,1.55,2.28.23.08-1.45,1.49-1.51-.06-1-1.42-.94-1.66-.09-.06.19-1.17-.19-1.47-.13s.06,1.09-.11,1.34c-.45.67-1.3.64-2.15.34s1.37-.65,1.35-.88a9.71,9.71,0,0,0-2,.08c-.66.14-.07.76-.49.85s-1.51-.39-1.45.27c-.91-.41-1-1.33-1.67-.29-.45.71-.82.52-1.63.06-2.36-1.35-4-1.81-6.24-.11,1-.73-2-1-2-.27-.84,1.32-2.66-.25-.57-.34a1.07,1.07,0,0,0-1.7-.65c-.59,0-.5.49-.48.74.53,0,1.65.54.88.82-1.3.47-1.85-.41-2.82-.37a4.37,4.37,0,0,1-3-.6c-.35.55-1.18.53-1.85.25-.34-.14-.62-.44-1-.48-.66-.06-.53.32-1,.51-1.14.44-.71-.72-1.2-.78-.92-.11-1.49-.16-1.56-.9a3.41,3.41,0,0,1-.39,1.69c-.07-.74-.11-2.46-1.77-1.36a7.08,7.08,0,0,1-1.88,1.28c-.75.2-.43-1.41-1.28-.08,0,.24-2.15-1-2.59-.83a6.17,6.17,0,0,0-2.24,1.76,8.8,8.8,0,0,0-1-1.59c-.16,0-.32,1-.68.79-.52-.3-.12-1.11-.9-1.51s-2.17.11-2.77.33c-1.57.59,2.42-.09,2,.48a5.73,5.73,0,0,1-2,1.5c-.91.42-1.26-.12-1.82,0s-1,.56-1.85.41-1.38-.41-2.15-.52a4.17,4.17,0,0,0-1.41,0c-.23.05-.56.4-.63.41a1.63,1.63,0,0,0,0-.35c0-.21,0-.49,0-.78-.05-.58-.09-1.2-.1-1.33a3.8,3.8,0,0,0-.7-1.62c.09,1,.77,3.93-1.3,4.14a9.75,9.75,0,0,1-4.92-.63c-1-.61-.77.39-1.41.28s-1.16-1.25-2-.55c-.32.25-1.34,1.72-1.46.47-.87-.51-1.08.18-2,.07C86,6.31,85.93,6.2,86,6a2.85,2.85,0,0,0-1.47.3c-.56.26-.92-.43-1.76.2.07.68-1.62-.2-2-.24a19.88,19.88,0,0,0-3.11.38C76.3,6.74,74,6.32,73.9,5.23c.08.84-.34,1.63-1.84,1.49a13.81,13.81,0,0,1-2.3-.57c-.92-.22-.81.68-1.24.75-.14,0,0-1.36-.23-1.57-.43-.44-1.06,1.31-1.28,1.32s-.12-1.08-.72-1.06c-.32,0-.72.81-1.34.92-1.26.22-3.17.36-3.87-.53-1.23-1.54-.57-1.13-1.78,0-.88.84-2.31-1-2.73-.66-.08.07,1.26,2.75-.8,1.29-.84-.6-.64-1.17-1.48-.17-.62.75-2.46-1.52-2.67-1.64.23.13-1.34,1.85-2.54,1.64.18,0,.33-.59.3-.72C48.07,5.8,47.73,6.9,46.13,7c-.39,0-1,0-1-.35-.07-.71-1.16,0-1.36-.41-.08-.17.52-.71-.19-.84s-1.25.63-1.71.78c-1.15.36-.61-.77-.72-1.17-1.15,0-.77.57-1.38,1-.36.27-.81-.45-1.52,0-.32.22-1.86.67-2,.08,0-.11-.49-1.75-.81-1.51s.29.7.27.92c0,.47-.69.4-1.23.43s-.17.27-.73.3c-.73,0-1.28-.22-2.06-.19-1,0-6.17.77-5.78-.48-.39,0-1.09,0-1.05.4-.45.11-1.06-.07-1.46.17-.75.45-2.52.09-3.72,0A18.42,18.42,0,0,0,17.19,6L16.1,6c0,.18-.11.28-.38.29-.8,0-2.87-.63-2.27.54-1.11,0-.34-.35-.78-.54a4.81,4.81,0,0,0-2-.41c-.29,0-.45.28-.63.46a.64.64,0,0,1-.29.21c-.13,0-.14,0-.24-.09C9.1,6.09,8.84,5.4,8.14,5c-1.49-.79,0,1.06-.46,1.1,0,0-.41,0-.8,0,0,.59,0,1.22-.27.91a9,9,0,0,1,.08,1.61.79.79,0,0,1-.25.44A1.8,1.8,0,0,1,6,9.35a.91.91,0,0,0-.61,1.07c.44-.12.95-1.45,1-.28a13,13,0,0,1,.08,2.49c-.09.69-.31.21-.28,1s.64,2.85-.3,3.2c-.44.17-.76.59-1.22.69,0,0-.73-.33-.63,0,0,0,.38.69.07.84-.11.06-.43-.45-.4.22,0,.14.27.15.53.12a4.33,4.33,0,0,0,.54-.08c.54-.05,1.32-.86,1.84-.48.32.24.45-.09.72,0S7,19.45,6.94,19.53c-.15.74.31.25.36.62S6.14,22.12,6,21.9c.37.49,2.47,1.33.65,1.5a6.79,6.79,0,0,0-.56,2.92c.09.57,1.14,3,.35,3.11-.33.05-.47-.35-.63.06.06,1.35.38.51.8,1.06.15.2-1.31,1.57-1.41,1.66,1-.86,2.35,3.19,2,4.38-.12.36-.37.45-.51.8s.27,1.34.28,1.92-.22.75-.47,1.13a4.36,4.36,0,0,0-.12,1.88,19.78,19.78,0,0,1,0,4.07c-.11.56-.49.56-.51,1.14,0,.81.5,1.3.63,2.12.22,1.39-.62,3.38-.21,4.5.2.56,1.4,2.38.32,2.58a1,1,0,0,1,.75,1c-.9-.15-.86,1.48-1.47,2.37.22-.19.46-.34.6-.19.4.45-.54,1.28-.64,1.51a2.54,2.54,0,0,0,0,1.74c.21.56,1.12.55,1.16.77s-1.11,2,.19,1.46c-1.06.14-.78,2.34-.94,3.42-.19,1.23-.82.57-1.16,1.16a10.42,10.42,0,0,1,1.55.66c-.11-.29-1.55,2-.75,2.2-.19,0,2-.3,1.23.29a2.44,2.44,0,0,1-1.66.62c.45.27,1.47.85,1.38,1.75,0,.33-.72.82-.71,1.06s.88.21,1,.52c-.21,0-.13.51,0,1a10.19,10.19,0,0,1,1.17-.19c.33.18.26.61,0,1.09s-.82,1-1,1.31c.08-.17.93-.33,1-.37.57-.26.49-.49.58-.83s.39-.39.72-.4a5.84,5.84,0,0,1,1.22.15c.51.16.63.43.94.72.48.44.66-.58.87-.7,1-.58,1.49.15,1.37-1.11.07.81,1.45.32,2.08.61.16.08.38.53.05.6-.73.15.06.73-.53.76a8.48,8.48,0,0,1,1.58,0s-1.57.65-1.07.94,1.61-.86,1.72-1c.48-.65-.07-1,1.12-1.49,1.8-.07,3.19,1.08,4.91.65.53-.13,1.68-.88,2.28-.75.27,0-.17.89.17,1.14.64.46.88-.49.86-.66.94-1.45.78.51,1.21.5s.46-.74.39-.92c1,.6,2.66-.18,3.88-.12.86,0,3.64,1,3.73-.19.32.79,3.34-.22,4.15-.18s2,.14,2.45.62c.58,0,1.13.31,1.63-.07.41,0,1.62-.18,1.67.3.92.12,1.75-.2,2.67.11,0,0,.83.46.73.47.66,0,.82-.37,1.59-.42,1.21-.09,2.37-.65,3.62-.66.86,0-.61,1-.59,1.24s1.38-.49,1.33-.47A3.63,3.63,0,0,1,57,78c.33-.06.78.31,1.28.29-.05-.5,2.12-.71,2.18-.09.49.49-.2,1.42.65,1.92-.21-.13,0-1.12.42-1.23s.7,0,1-.16.29-.66.66-.9a2.79,2.79,0,0,1,2.7.15c1.85.51,1.1-.59,2.47-.65-.5,0-.39,1.28.87,1.23.61,0,4.37.1,4.31-.54.51-.38,2.2.18,2.25.63,0,0-2,1.2-.75,1.2.83,0,1.26-1.7,1.49-2,.4-.64.78-.41,1.06,0a4.57,4.57,0,0,1,.46.94c.19,0,.53-.69.8-.82s1,.39,1.2.49c.94.52.92-.25,1.42-.66.94-.77.72.18.85.48s2.43.21,2.11-.57c.28,1.18,4,.86,5.38,1,.39,0,1.41.39,1.68.26.68-.3.47-1.34,1.67-1.39.23.54-1.59,2.6.24,2.52a3.71,3.71,0,0,1,.78-2.56c-.08.13.32.89.69.87s1-.92,1.38-1.08c.74-.26,1.68.75,2.69.78,1.23,0,1.17-.58,2.21-.8a3,3,0,0,1,2,.13c.36.21.44,1.26.69,1.29.77.1,2-1.11,3-.65a6.93,6.93,0,0,1,1.35,2c.45-.34.15-.87,1-1.25.64-.29,3.05-.41,3.18-.85.5-1.83,1.12.06,1.2.94.72,0,.42-.23.5-.59s1.25-.2,1.55-.23c1-.06,1.52-.41,2.47-.45.56-.19.89-.12,1,.21.53.25,1-.14,1.31-.1s0,1.05-.08,1.06c1.44-.06,1-1.57,3-1,.75.21,1.29.58.65,1.06-.43.21-1.28,1-.06.73a7.54,7.54,0,0,0,2-.93,9.82,9.82,0,0,1,3.13-.72l3.41-.33,2.07-.22a7,7,0,0,0,.92-.14c-.11.53-.44,1.53.46,2.06-.28-.16.95-1.29,1.12-1.44.62-.57.9-.81,1.68-.5s2.33-.26,3,.18c.24.16,0,.75.51.73.69,0,.77-.91,1.12-1.17-.09.07.27.68.54.71a.43.43,0,0,1,.38-.24,2,2,0,0,1,1.05.49,3.08,3.08,0,0,1,1,1c.14-.44.86-.72,1.56-.83,1.28-.2,1.36.22,1.73.83a4.64,4.64,0,0,0,2-1.2c.47-1.55,1.31-.56.64.49-.24.86-.65,1.11.64,1.06.31-.23,0-1,.56-1.35s.63.76,1,.74a2.5,2.5,0,0,1,.14-.64,1,1,0,0,1,.89-.67c.72-.27,1.63-.47,1.12.32s.94.53,1.37.21c1.05-.78.23-.38,1.34.26-.54-.31.35-.73,1.14-.27a6.62,6.62,0,0,0,1.56.29c.22,0,.21-.31.63-.37,1-.12,1.85.13,2.4-.41.72-.7,1.51.56,1.46,1-.14-1.5,2.87-.32,2.26.14,1.31-1,0-.93,1.5-.07-.54-.31,1.27-.76,1.48-.91.37-.28-.12-.45.64-.48.61.17,1.68.48,1.73,1,0,.32.09.36.58.34.67-.06.4-.5.57-.8s2.75,1.41,2.08,0c.65,0,.67.43.53.81a1.4,1.4,0,0,1,1.72-.18c.08.88.62.5.92,0s-.13-1.09,1.38-.51c.79.3,1,.61,1,1.17-.12-1.23,1.63-.5,2.61-1.23.42-.65,2.31-.69,3.17-.63a2,2,0,0,1,1.12.3c.45.48.93.09,1.64.09a8.89,8.89,0,0,1,1.25.3c1,0,.1-.91.46-.92.14,0,.76.67,1.09.75.84.21,1.23-.09,2-.2,1.27-.2.34,1.13,1.17,1.23,2.14.26,1.15-.69,1.89-1.39.42-.39,3.45-.35,4-.12s1,.73,1.83.14c.62-.47.91-.18.58.33.73.48,2.61.73,2-.26-.32-.51,3-.32,3.45-.28,1.25.09,0,1,.31,1.25.12.08,2.63-1,3.33-.87.88.1.61.47.93.88.5.65,1.25-1,1-1,.48,0,.6,1.06,1.33,1,.38,0,.32-.33.28-.65s.09-.63.22-.65c.06.44,0,1.1.44,1.06.29-.21-.24-1.27,0-1.3s.28.16.55.35a3.1,3.1,0,0,0,.84.5l.41.13a1.82,1.82,0,0,0,.11-1c0-.19-.09-.62-.43-.71-.78-.23-.05-.34-.07-.7-.28,0,.3-1.16.29-1.5,0-1.22-.29-2,.52-2.42.28-.13.14-1.09.79-1.15s.91-2,.41-2c-.07,0-1.43,2.45-.84.36-.24-.43-.72-.41-.76-.94-.13-1.65.26-1-.76-1.13-.55,0-.46-1-.06-1.2.87-.53,2.27-.08,3.24-.17-.09-2.28-3.34.24-3.31-1.67,0-.74.91-5.21.07-5.62,1.27.07-.29-2.08-.19-3.13s1.66-3.66,1.14-4.44c-1.06-1.63-.24-1.83.87-1.93.62-1.06-1.53-.95-1.84-.92.7-.61,2.25-1.67,1.63-3.29-.24-.61-.63.74-.92.77-.5,0,.16-1.45-.26-1.57-.24-.06-.55.69-.62-.18a3.57,3.57,0,0,1,.3-1.76,1.1,1.1,0,0,1,1-.63c.43,0,1.07-.89.31-.82-.23,0-2.12,1-1.9-.31a10.19,10.19,0,0,1,.4-1.49c-.06-1.3,1-1.14,1.54-1.33,1.19-.44-.49-.92-.56-1.51s.31-1.65-.44-1.58c-1.16.11-.07-.86.16-1.21.37-.56,0-1.71-.15-2.24-.21-.81.18-.61.16-1,0-.8-.46-1.25-.29-2.14.08-.39.66-1.94.35-2.35-.14-.19-.49.6-.6-.33-.06-.43-.29-2.68.23-2.73s-.2-3.14.2-3.84c.27-.31,1.1-1.36.72-2s-1,.08-1.19-.81c-.17-.62,1.63-3.84.2-3.71A4.76,4.76,0,0,1,220.8,10c.52-.77-.16-.45-.29-.72s2.84-1.66,3.06-1.73,3.08-.81,2.51.17c0,.34-1.42,3-1.2,3.07s.31-.5.59-.28a1.1,1.1,0,0,0,.51.89.82.82,0,0,0,1.3-.73c.12,2.82-.08,5.66-.08,8.49,0,2.23,0,4.48,0,6.71,0,.45-.28,1.34-.26,1.61.07.77,1,2.38.3,3-.48.42-1.69-1-1.88-.64,0-.05.33,2,.31,1.95.34.58.87.46,1.33.42-.71.07-.52.89-.28,1.28.35.59-.09.66.44,1s.24,1.13.07,1.56-.66,1-.47,1.67c.13.51.6.8.38,1.44s-1,1.51-.48,2.3c.34.49.53.35.44,1.32a4.7,4.7,0,0,1-.87,2.64c-1.27,1.11.54.72.83,1.62a2.62,2.62,0,0,1-.09,1.47c-.1.35-1.08,1.73-1.08,1.79,0-.1,2.18,1.11,1,2.15-.15.67-.24,1.14-.34,1.85s-1.13,1.91-1.12,2.05c0-.29,1.2.41,1.28.51a1.86,1.86,0,0,1,.43,1.58c-.76.07-.31,2.89.38,2.69-1.09-.24-.4,5.43-.37,6.32.05,1.14-.67,1.3-.62,2.51-.08.32-.34.93-.08,1.22s1.06.53,1.07.8c0,.06-1.08.1-.75.83.06.13.8,1.29.51,1.43-.59.29-.56.73-.41,1.3a15.23,15.23,0,0,1,.35,3.37c-.09,1.28-.31.74-.55,1.32s.21,2.78.28,3.92h-.24a17.6,17.6,0,0,1-4.86-.59c-1.15-.31-.7,0-1.39.21a11.32,11.32,0,0,1-1.16.23l-.69.09c-.29,0-.41.06-.55.08a13.52,13.52,0,0,1-1.85.17,14.45,14.45,0,0,1-3.48-.29c-1.58-.39-.57.55-1.91.54a1.94,1.94,0,0,1-1.84-1,.71.71,0,0,1-.65.83c-.67.08-1.28-.3-2.06-.27s-.52-.81-.74-1.1-1.44,1.05-2,1.16c-.85.16-3.06.43-3.26-.33,0,.84-2.75.65-3.52.59a6.31,6.31,0,0,1-2.48-.54c-1.28-.75-1.18.68-2,.71a6.33,6.33,0,0,1-1.8-.44c-.63-.12-.29.26-.81.28-1,0-.68-.32-1.3-.76-1.08-.79-2.08-1.77-3.12-2.67a8.49,8.49,0,0,1,.76,2.26c.18,2.13-.66.08-2,.14,0,0,.89.94.54,1-.82.25-2.41-.8-3.45-.75a2.93,2.93,0,0,1-1.74.27c-.3-.08-1.2-1-1.46-.55-.17.3-.06,1-.83,1a.85.85,0,0,1-.9-.87c.06.57-2.66.68-2.72.11.63,1.45-5,.57-6.17.62-.52,0-2.06.22-2.47-.14-.15-.14-.31-.65-.65-.63s-.52.59-.48.92c-.22-.6-1.43-2.1-2.11-1.59-.22.17,1.2,1.26-.08,1.32-.95.71-1.33-.67-2.25-.63.42,1.9-1.68,0-1.73-1-1,0,0,1.46-.79,1.74a7.19,7.19,0,0,1-3.74-.1c-.5-.16-1.35-1.72-1.82-1.27s.28,1.09,0,1.34c-.89,0-1.83.12-2.72.06s-1-.29-1.56-.66-.66.52-.89.75c-1,.94-1.46-1.14-1.61-1.14s-.78.49-.9.58a2.77,2.77,0,0,1-2.33.26c-.91-.16-.61.25-1.32.25a9.76,9.76,0,0,1-2.44-.46c-.37-.09-1.24.64-2.12.65-.42,0-.47-.09-.5-.34a16.55,16.55,0,0,0-2.1.09c-.85,0-.34.08-1.05-.37s-.52.53-.79.7c-1.73,1-1.51-1.67-1.74-2s-.36,1.67-.42,1.72c-.35.3-2.57.51-2.41-.14,0-.14.28-2.24-.37-1.94s-.54,2.51-1.76,2.51c-.46,0,.08-.45-.61-.42s-1.27.21-1.32-.31c-.69.08-1,.49-1.56.67s-1-.57-1.71-.54c.08.85-2.69-.89-2.77-.83-.46.35-.34.74-1.37.79a2.74,2.74,0,0,1-1.32-.25c-.08,0-1.11-.9-1.17-.76-.2.52.37,1.16-1.1,1-1.19-.11-1.88-1.08-2.64.1,0,.52-.94-.45-1.63.07,0,.35-1.67.52-2,.55a4.74,4.74,0,0,1-2.48-.16c-1-.42-2.9,0-4-.07-1.39,0-3-.06-4.37-.21-.27,0-2.31-.82-2-1.08-.47.35.7,1.52.23,1.71,0,0-.62-.25-1.22-.52a6.14,6.14,0,0,1-1.21-.6c-.81.09-1,.46-1.42.83-.79.63-1.17-.3-1.83-.32-1.54-.07-1.74-.36-1.75-1.39.23,1.64-1.08,1.5-3.33,1.58-2,.08-2.57,0-2.65-1.33a5.5,5.5,0,0,0-.53,1.2c-.19.51-.73.25-1-.06.3,0-1.51,0-1.1.2-.23-.14-.85-1-1.09-1s.25,1.08-.65,1.11c-1.05.05-1.48-.59-2.12-1,.7.4-1.55.62-1.57.68-.12.42-.31.27-1.09.3-.25-.18.11-.88.13-.86a36,36,0,0,1-4.79.52c-.48,0-1.43-.63-1.39-.13-1,.75-2.06.54-3.43.38-.18,0-1.89-.1-1.64-.41s-.21-1.89-.8-1.45,0,1.53-1,1.85-1.53-.93-2.26-.9c0,0,.65.7.28.85a6.68,6.68,0,0,1-2.95,0c-.84-.31-.67-.28-1.74,0a5.69,5.69,0,0,1-2.69.05c-.85-.23-.73-.58-1.5-.13a3.16,3.16,0,0,1-2.34,0c-.33-.12-.89-.76-1.34-.64-.82.22-1.05.92-2,1-.06-.63-.59-.22-1.08-.08s-.72-.39-1-.68c.4.55-2.77,1.16-3.39,1-.09,0-2.77-2.26-3-1.25-.08.3.94.87-.39.8-.75,0-1.85-1-2.06-1a1,1,0,0,1-1.07,1c-1,0-.23-.39-.39-.48a3.47,3.47,0,0,1-1.29.08c-.45-.11-1-.92-1.46-.67-.86.43-2.26,2.11-3.66,1.19-.3-.2-.29-1.09-.73-1.07-.78,0-.62,1-1.15,1.23-1.47.74-2.39-.32-3.28-.86a2.46,2.46,0,0,0-1.63-.43c-.61.14.17.67-.1,1-1,1-2.29-.33-3.28-.33.05.47-.84.39-1.25.41a4.3,4.3,0,0,0-.46.07l-.72.14a8,8,0,0,1-1.8.15c-3.59-.1-3-1.09-5-1.39-.65-.09-.18.55-.25.51-.31.42-.67.59-1.53.73A7.82,7.82,0,0,1,.13,84c-.41-2.29.71-1.59,1.2-2.3,0-1-.49-.55-.74-.34,0-1.52.31-2.4.27-4,0-.46-.37-.53-.48-1.23l-.06-.48,0-.24,0-.13a3.44,3.44,0,0,1,0-.56,3.51,3.51,0,0,1,.15-1c.1-.33.68-1.71.13-1.66.07,0,1-.18.71-.54C.85,71-.09,71.58,0,70a1.22,1.22,0,0,1,.34-.81,4.23,4.23,0,0,0,.13-1.88c0-1.37-.48-3,.11-4.28.27-.58,1.21-.19,1-.88a17.53,17.53,0,0,1-.68-2.75C.34,59.49.32,56.52.43,56s1.66-.3,1-1.09c-.22-.27-1-.51-1-1.06s.69-.21.66-.93a8.53,8.53,0,0,1-.45-1.31c-.14-1-.23-2-.3-3a27.67,27.67,0,0,1,0-3c0-.75.28-1.26.25-2a10.86,10.86,0,0,1,0-1.4c0-.36.65-.14.81-.42s-.83-2-.93-2.65A11.64,11.64,0,0,1,.39,36,2.36,2.36,0,0,1,.71,34.9c.17-.19.79.31.78.05,0-.62-1-.8-1.19-1.6s.42-.6.65-1a4.27,4.27,0,0,0,.25-2.49C1,28.77.13,28.45.69,27.2c.28-.63,1-1.64.42-2.41s-.57.37-.63-1.08a20.4,20.4,0,0,1,0-2.07c.09-1.16-.21-6.49,1-6.49C.2,15.57.71,11.71,1,10.83c.54-.06.67-1.06.65-1.7a4.22,4.22,0,0,0-.11-.76,2.54,2.54,0,0,0-.21-.54A3.27,3.27,0,0,1,.91,6.72,16.2,16.2,0,0,1,.5,2.42c0-.63.09-1,.29-1C.82,1,.77.49.76,0a4.75,4.75,0,0,1,1,0c2,.26,4.27.8,5.9.9C8.77,1,10.24.7,9.44.17L11.55.08c.67,0,1.34,0,2,0,1.06,0,2.11.14,3.17.16.65,0,1.3-.07,2,0,.26,0,.68.29.78.28L26,.21a5.26,5.26,0,0,1,2,.13c1.15.34,2.12-.26,3.22,0a7.52,7.52,0,0,0,2.4.31l4.14.06a32.37,32.37,0,0,1,5.4.16c.64.12.63.51,1.48.25.27-.08,1.64-1.2,2-.8.78.85.73-.1,1.66-.06,1.12,0,.33,1.58,1.8,1.51.13-.51-.72-1,.27-1.08.8-.07,3.65-.47,3.5.48-.13-.57,1-1.09,1.77-.79.42.16.26.45.67.64a3.26,3.26,0,0,0,2-.05A4.39,4.39,0,0,0,59.78.26c.67,0,.95.32,1.31.31.61,0,3.6-.43,3.66.21C66-.3,66.28.43,67.5,1c-.06-.6,6.73-.8,7.5-.39a6.78,6.78,0,0,0,2.29,0c.93,0,1,.74,2.29.35.79-.24.78-.48,1.72-.52.62,0,.28.29.94.31,1.29.06,1.26.34,2.18.87-.12-.06.26-.77.54-.79s1.08.83,1.4,1,.29-.38.28-.49A3,3,0,0,1,88.33.48c1.27-.31.85.32,2.14.31A19.68,19.68,0,0,0,93.41,1C97.19.31,101.7.57,105.58.53c2.9,0,6,.07,8.92.18,3.29.11,6.56.26,9.8.49.73.43,1,0,1.91-.08a4.3,4.3,0,0,0,2.41-.46c-.07-.73.68.15.75.18.85.32,2.23,0,3.15,0,.4,0,.5.08.52.32.06.58.28.62,1,.81,1.48.38.05-1.33.21-1.45a22.45,22.45,0,0,1,2.47.48c.57,0,.47-.4,1.16-.28.23,0,1.56.76,1.81.37.13-.2-.82-1.15.58-.74a5.55,5.55,0,0,0,2,.38c2.81,0,5.59-.25,8.4-.05.67.05,1.1.3,1.73.36a10.08,10.08,0,0,0,2.35-.22,38.94,38.94,0,0,1,5.92-.27,32.22,32.22,0,0,1,5.92.25c.79.19.76.43,1.76.2A19.71,19.71,0,0,1,171.61.7c1.71-.1,3.38.1,5.1.1,2,0,5.45-.51,7.12.47.7.41,1.16.77,1.09-.05s1.64-.07,2.14-.45c.69-.52,2,.14,2.75.25,1,0,1.45.16,2.41.18,2.93.07,5.88-.17,8.8-.28,1.1,0,3.68-.39,4.63.17,1.31.37.83.23.88-.24,0-.24,2.26.09,2.39.1,1.11,0,2.2.27,3.3.23.38,0,1.08-.08,1.12.31a3.56,3.56,0,0,0,1.5-.31c2-.49,4.11.08,6.11,0C221.48,1.16,224.18,1.14,222.62,1.74ZM38.09,83.93a.36.36,0,0,1,.13.1A.41.41,0,0,0,38.09,83.93Z"/><path class="cls-1" d="M219.8,58a.28.28,0,0,0-.22,0Z"/><path class="cls-1" d="M163.64,84.38a.69.69,0,0,0,0,.18A.86.86,0,0,0,163.64,84.38Z"/><path class="cls-1" d="M36.32,77.45a.51.51,0,0,0,0,.28A.94.94,0,0,0,36.32,77.45Z"/><path class="cls-1" d="M221.29,5.4c-.14-.49-.72-.68-.72.07S221.32,6.22,221.29,5.4Z"/><path class="cls-1" d="M225.27,5.57c0-.39-.55-.71-.54-.33,0,.14.34,1.55.53,1.22A3.31,3.31,0,0,0,225.27,5.57Z"/><path class="cls-1" d="M223.45,5.2c.62.2.68-.63.31-1.12l-1.23.11C223.16,4.13,223.4,4.16,223.45,5.2Z"/></g></g></svg>