<svg xmlns="http://www.w3.org/2000/svg" viewBox="0 0 193.23 21.09"><defs><style>.cls-1{fill:#010101;}</style></defs><g id="Layer_2" data-name="Layer 2"><g id="menu"><rect x="3.75" y="7.62" width="187.28" height="4.7" transform="translate(-0.4 5.3) rotate(-3.11)"/><path class="cls-1" d="M166.53,4.09c-.1.21-.55,1.25.15,1.13C167.1,5.18,167.18,4,166.53,4.09Z"/><path class="cls-1" d="M143.54,6.21c-.37,0,.8.87,1,.65S143.77,6.21,143.54,6.21Z"/><path class="cls-1" d="M125.53,8.1c.56,0,.68-.26.63-.64l-.35,0A.78.78,0,0,0,125.53,8.1Z"/><path class="cls-1" d="M188.79,9.7c-.35,0,.39.25,0,0Z"/><path class="cls-1" d="M192.83,6.7c-.2-.48-.48-.38-.78-.27a.87.87,0,0,1-.94-.06c.25.26.59-1,.43-1.32-.45-.84-.6.27-.93.42.11-1-.46-.13-.79,0s-.15-.21-.07-.48.11-.49-.3,0a5.31,5.31,0,0,1-2,1.64c-.38.2-.32.1-.18-.14a2,2,0,0,1,.33-.36s0,.06,0,.16.28-.12.62-.46.69-.77.68-.69-.31.79.16.18a2.37,2.37,0,0,0,.47-1.33h-.11c-.38,0-1.1.44-1.21.13s.22-.7-.2-.65-.54.8-.8.71L186.88,4l-.24-.13c-.15-.05-.31,0-.78.22A2.11,2.11,0,0,1,184.19,4c-.47-.21-.44-.84-.95-.79l.11.85c-.37,0-1.38-1.59-1.52-.77-.08.46-.5.4-1,.46s-1,.59-1.36.13c-.15-.19.05-.63-.31-.66-.54,0-.54.56-.69.82-.25.45-2.17-1-1.41.14,0,.06-1.23-.1-1.17.37-.46,0-1.55-.87-1.45-.13a.65.65,0,0,1-.41-.34,1,1,0,0,1-1.52.73c-.31-.2-.1-1-.65-1s-.26.52-.29.73c-.11.73-1.5.71-1.76.14-.13-.29-.34.06-.41-.52l-.13-.93c-.95.09-.5,1.17-.72,1.64-.08.16-.24.33-.47.19-.61.07,0-.59,0-.78-.12-.5-1.11-.64-1.63-.54-.23,0-.48.41-.7.33s-.34-.41-.6-.5c.21.07-.11,1.67-.18,1.92,0-.14-.32-.34-.49-.24-.65.41-.37.65-1.39.46-.44-.08-1.63-.24-1.7-.1.5-.9-1.37.11-.78-1.18.2-.43.57-.4.5-.92a3,3,0,0,0-.11-.84,5.8,5.8,0,0,1-.94,1.6,1.81,1.81,0,0,0-.53.91c-.08.48-1.24.1-.95.81,0-.24-.2-.42-.51-.44s-.27.24-.55.42c-.45.29-.57-1-.29-1.05-.26,0-.56.56-.82.68a2.55,2.55,0,0,1-1.7.12c-.68-.19.16-1.07.44-1.3-.41,0-.7.1-.65.47-.14-1-1.91-1.44-1.08,0,1.28.8-.87,2.22-1.61,1.31,1.49.1,0-1.14.9-1.24-.08-.75-1-.69-1.08,0,0,.15-.77-.11-1,0s.09.85,0,1.06c-.26.53-.81.55-1.38.33s.86-.55.84-.73a5.51,5.51,0,0,0-1.33.13c-.42.13,0,.6-.28.69s-1-.26-.93.26c-.61-.29-.71-1-1.1-.17-.26.57-.52.44-1.06.11-1.59-1-2.67-1.28-4.07.13.6-.6-1.37-.69-1.3-.14-.49,1.07-1.74-.1-.39-.24-.13-.47-.63-1-1.14-.46-.38,0-.3.41-.27.61.34,0,1.09.36.6.61-.82.41-1.22-.26-1.85-.2a2.44,2.44,0,0,1-2-.36c-.2.44-.75.45-1.19.26-.23-.1-.43-.33-.7-.34-.43,0-.33.27-.65.44-.72.38-.49-.54-.81-.57-.61-.06-1-.08-1.06-.65A3.13,3.13,0,0,1,130.4,7c-.08-.59-.18-1.93-1.21-1-.33.3-.69.89-1.17,1.07s-.34-1.09-.83,0c0,.18-1.45-.75-1.72-.57A4.29,4.29,0,0,0,124.08,8a7.15,7.15,0,0,0-.7-1.21c-.1,0-.16.8-.4.65s-.12-.88-.65-1.16-1.41.16-1.79.36c-1,.52,1.57-.16,1.31.3a3.92,3.92,0,0,1-1.22,1.25c-.57.37-.82,0-1.18.11s-.62.47-1.18.38-.92-.27-1.42-.33a2.25,2.25,0,0,0-.93,0c-.14.05-.34.33-.39.34s0-.43-.08-.88-.11-.94-.12-1a3.49,3.49,0,0,0-.53-1.25c.11.77.68,3.07-.66,3.31a5.44,5.44,0,0,1-3.24-.33c-.7-.44-.48.34-.9.28s-.81-.94-1.35-.37c-.19.22-.79,1.41-.92.43-.6-.38-.7.18-1.31.12-.13,0-.18-.13-.14-.26a1.62,1.62,0,0,0-1,.29c-.35.22-.62-.31-1.13.22.07.53-1.07-.1-1.32-.12a10.54,10.54,0,0,0-2,.41c-.87.1-2.38-.16-2.5-1,.09.66-.15,1.29-1.13,1.24a7.6,7.6,0,0,1-1.53-.37c-.6-.14-.5.57-.77.64-.09,0-.08-1.07-.22-1.23-.3-.34-.63,1.06-.78,1.08S93.82,9,93.43,9c-.21,0-.43.65-.83.76-.81.22-2,.4-2.55-.27-.86-1.17-.41-.87-1.15.08-.54.7-1.55-.73-1.81-.42,0,.06.94,2.12-.46,1-.57-.44-.47-.89-1-.08-.38.61-1.67-1.11-1.81-1.2.15.1-.8,1.51-1.58,1.39.12,0,.19-.48.16-.58-.85.09-1,1-2.06,1.1-.26,0-.65,0-.69-.24-.07-.56-.75,0-.9-.28-.06-.13.31-.57-.16-.65s-.78.54-1.08.67c-.73.33-.43-.58-.52-.89-.75.07-.47.47-.85.86-.23.23-.55-.33-1,.09-.2.18-1.18.59-1.29.13,0-.08-.4-1.36-.59-1.16s.22.54.21.72c0,.37-.43.34-.78.38s-.1.22-.46.26-.85-.13-1.35-.07-4,.82-3.79-.18c-.25,0-.71,0-.67.36-.28.09-.69,0-.94.18-.47.38-1.63.16-2.42.12a10.86,10.86,0,0,0-1.62-.07l-.7.08c0,.14-.06.22-.24.23-.52.06-1.89-.39-1.45.51-.72.08-.24-.26-.53-.4a2.7,2.7,0,0,0-1.34-.25c-.36.08-.39.79-.84.51s-.59-.84-1.06-1.14c-.89-.58-.42.86-.94.92-.16,0-2.47.26-2.15-.06a15.32,15.32,0,0,1-1.65.15c-.8,0-.37-1.08-1.33-1,.1.34,1,.7.23.82a6.78,6.78,0,0,1-1.62.14c-.45,0-.15-.23-.7-.17s-1.83.59-2.09-.13c-.13-.34-.42-.57-.5-.94,0,0,.18-.58,0-.49,0,0-.44.32-.55.09s.28-.36-.16-.31c-.09,0-.08.21-.05.42a3.53,3.53,0,0,0,.07.42c.06.42.62,1,.39,1.43-.14.26.08.36,0,.57s-.84-.28-.89-.29c-.49-.09-.15.26-.39.31s-1.33-.85-1.19-1c-.31.31-.77,2-1,.57a3.77,3.77,0,0,0-1.92-.34c-.37.09-1.89,1-2,.39,0-.26.21-.38-.06-.49-.88.09-.32.31-.66.66-.12.12-1.08-1-1.14-1.05.6.74-2,2-2.77,1.7-.24-.08-.31-.27-.54-.37s-.86.26-1.24.29-.49-.15-.75-.33-.92-.06-1.23,0a10.27,10.27,0,0,1-2.65.15c-.37-.06-.39-.36-.76-.36-.53,0-.83.45-1.36.58-.89.22-2.22-.37-2.94,0-.36.18-1.49,1.19-1.66.34a.67.67,0,0,1-.63.63c.06-.71-1-.62-1.6-1.08.13.17.24.35.14.47-.27.33-.85-.38-1-.45a1.33,1.33,0,0,0-1.12.09c-.36.18-.32.89-.46.94s-1.34-.8-.94.19c-.14-.83-1.56-.53-2.27-.61s-.4-.62-.8-.88a10,10,0,0,1-.36,1.25c.18-.1-1.36-1.15-1.47-.52,0-.15.28,1.54-.14,1A2.12,2.12,0,0,1,8,13a4.26,4.26,0,0,1-.38.72c-.14.25-.24.44-.43.41s-.66-.53-.81-.51,0,.69-.17.77c0-.16-.36-.08-.63,0,.09.23.2.38.18.38a1.82,1.82,0,0,1-.86,0c-.38-.09-.8-.38-1.06-.44.13,0,.29.54.32.58.22.3.4.2.67.18.46,0,.32.47.23.72s-.31.48-.52.85c-.08.14-.09.21-.06.23a8.21,8.21,0,0,0,.84-.67c.78-.51.58.09,1.16-.94-.36.66.36.23.51.45,0,.06.06.42-.1.48-.39.14-.12.58-.45.62.12,0,.9-.13.9-.06A4.83,4.83,0,0,1,6.9,17c-.23.17-.47.36-.32.47s.46-.1.7-.32a2.34,2.34,0,0,0,.46-.55c.26-.53-.1-.81.65-1.21,1.17-.13,2.12.73,3.23.34.34-.13,1.05-.76,1.45-.68.17,0-.07.71.16.89.43.34.55-.41.53-.54.55-1.18.53.37.81.34s.27-.59.22-.74c.7.44,1.72-.23,2.52-.22.56,0,2.41.61,2.42-.29.24.61,2.16-.29,2.69-.28s1.32,0,1.62.4c.38,0,.75.2,1.06-.11.26,0,1-.2,1.1.17.6.06,1.13-.22,1.74,0,0,0,.56.34.5.35.42-.05.51-.32,1-.39.79-.12,1.52-.59,2.33-.65.56,0-.35.85-.33,1s.88-.44.85-.41a2.08,2.08,0,0,1,.86-.61c.21-.06.52.22.84.19,0-.4,1.35-.64,1.42-.15.34.37-.07,1.12.51,1.48-.15-.09,0-.88.21-1s.46,0,.65-.16.16-.53.39-.73a1.57,1.57,0,0,1,1.77,0c1.22.34.69-.5,1.57-.59-.32,0-.19,1,.62.93.4,0,2.85-.07,2.79-.58.31-.31,1.44.07,1.49.42,0,0-1.25,1-.44,1,.54,0,.75-1.38.88-1.66.48-1,1,.68,1,.68s.32-.56.49-.67.67.27.8.34c.64.38.59-.23.9-.57.58-.64.47.12.57.35s1.59.08,1.35-.52c.23.91,2.65.53,3.54.62.26,0,.94.26,1.11.15.43-.26.25-1.07,1-1.15.17.41-.93,2.09.26,2a3.36,3.36,0,0,1,.4-2c-.05.1.24.69.49.66s.58-.76.85-.9c.47-.23,1.13.53,1.79.52s.73-.5,1.4-.71a1.71,1.71,0,0,1,1.28,0c.24.16.34,1,.51,1,.5,0,1.27-.95,1.9-.62a5.76,5.76,0,0,1,1,1.51c.28-.28.07-.69.6-1s2-.43,2-.79c.25-1.45.73,0,.82.7.47,0,.26-.19.3-.48s.81-.2,1-.23c.62-.09,1-.38,1.59-.45.35-.17.57-.12.66.13.35.18.61-.14.84-.12s.06.83,0,.84c.94-.1.6-1.28,1.89-.92.49.14.86.41.47.81-.27.18-.8.8,0,.58a5.16,5.16,0,0,0,1.3-.8,5.22,5.22,0,0,1,2-.68L82.22,11l1.33-.25a3.09,3.09,0,0,0,.6-.14c-.05.42-.23,1.22.39,1.6-.19-.12.56-1,.66-1.17.38-.47.55-.67,1.07-.45s1.51-.29,2,0c.17.12.05.59.37.56s.46-.74.67-1c0,.06.21.52.39.54,0-.11.1-.17.24-.2a1.17,1.17,0,0,1,.7.35,2.16,2.16,0,0,1,.7.78c.08-.35.54-.59,1-.7.82-.2.89.12,1.16.59a3,3,0,0,0,1.26-1c.24-1.24.83-.49.43.36-.12.69-.37.9.47.81.19-.18,0-.82.3-1.08s.44.58.66.55a1.83,1.83,0,0,1,.06-.5.66.66,0,0,1,.56-.56c.45-.24,1-.43.74.21s.63.38.9.11c.65-.64.13-.31.88.16-.36-.22.2-.58.73-.25a3.53,3.53,0,0,0,1,.17c.14,0,.12-.25.4-.31.61-.13,1.2,0,1.54-.41s1,.39,1,.71c-.16-1.18,1.86-.36,1.48,0,.81-.81,0-.73,1-.1-.36-.23.79-.64.92-.77s-.09-.35.4-.4c.4.11,1.12.31,1.17.73,0,.26.07.28.39.25s.24-.41.34-.65,1.85,1,1.35-.1c.42,0,.45.31.38.61a.79.79,0,0,1,1.11-.2c.09.69.43.37.6-.06s-.13-.85.88-.45a1,1,0,0,1,.72.89c-.13-1,1-.45,1.65-1.06.24-.53,1.47-.63,2-.61a1.13,1.13,0,0,1,.74.2c.32.36.61,0,1.07,0a5,5,0,0,1,.83.19c.64-.06,0-.71.26-.74s.53.5.74.55c.56.13.8-.11,1.29-.23.81-.19.26.88.81.93,1.4.13.72-.58,1.17-1.16a4.76,4.76,0,0,1,2.61-.23c.44.18.71.53,1.2,0s.58-.17.39.24c.5.35,1.73.48,1.27-.27-.23-.39,1.94-.36,2.23-.35.82,0,0,.83.26,1A13.72,13.72,0,0,1,135.8,8c.58,0,.42.34.64.65.36.5.78-.83.59-.81.31,0,.44.81.91.76s-.23-1,.44-1c0,.34-.09.86.47.8.41-.18.05-1,.48-1s1.06.49,1.55.59a5.5,5.5,0,0,0,1.81.09c.23,0,.75-.12.71-.39-.08-.6.66-.07,1.06-.11,0-.21.77.2,1,.18.79-.06,1.31-.3,1.6.32.09.21.71.08.78.58s1.33.64,1.28.26c0-.06-1.65-1-.26-.65.27-.21.23-.58.57-.63,1.07-.16.69.17.7-.64,0-.43.61-.4.78-.09.39.67.15,1.78.25,2.54,1.49-.15-.29-2.62.95-2.66.48,0,3.43.53,3.66-.14,0,1,1.34-.3,2-.27s2.45,1.18,2.94.75c1-.9,1.18-.26,1.3.61.71.45.55-1.23.51-1.48.43.53,1.19,1.71,2.22,1.16.38-.2-.51-.46-.54-.69-.05-.39.94.08,1-.26s-.47-.41.09-.49a1.91,1.91,0,0,1,1.16.17.9.9,0,0,1,.46.8c0,.33.63.81.55.21,0-.18-.74-1.63.12-1.51a7.41,7.41,0,0,1,1,.27c.85-.09.79.75.94,1.16.33.92.57-.42,1-.49s1.08.18,1-.41c-.12-.9.56-.08.8.09s1.11-.07,1.45-.2c.52-.2.4.12.66.1.52-.06.8-.41,1.38-.31.26,0,1.29.45,1.54.19s-.41-.36.19-.49c.28,0,1.74-.32,1.79.09s2-.27,2.51,0c.21.19.93.81,1.34.49s-.09-.75.48-1c.39-.15,2.57,1.15,2.42,0a2.74,2.74,0,0,1,1,.51c.53.37.29-.15.46-.26s1.2,2.17,1.26,2.34.66,2.4,0,2c-.22,0-2-1-2-.83s.34.22.2.45a.72.72,0,0,0-.56.44c-.14.33-.08,1.06.54,1-1.83.2-3.69.14-5.53.24-1.46.07-2.92.18-4.38.2-.29,0-.88-.17-1.05-.14-.5.08-1.51.87-1.94.34-.3-.36.55-1.36.33-1.5,0,0-1.28.33-1.25.31-.37.29-.27.7-.22,1.06-.07-.55-.6-.38-.85-.18s-.43,0-.61.39-.72.22-1,.11-.68-.48-1.11-.32-.49.51-.92.35-1-.75-1.52-.29c-.3.28-.2.43-.84.39a2.7,2.7,0,0,1-1.75-.59c-.78-1-.45.45-1,.71a1.38,1.38,0,0,1-1,0c-.23-.07-1.17-.79-1.21-.78s-.63,1.75-1.36.85a11.5,11.5,0,0,0-1.22-.2c-.38,0-1.29-.82-1.38-.81.19,0-.22,1-.28,1a1.08,1.08,0,0,1-1,.39c-.08-.59-1.89-.14-1.74.4.12-.87-3.55-.13-4.12-.07-.75.08-.88-.48-1.67-.4-.21-.06-.61-.23-.8,0s-.29.85-.47.87c0,0-.11-.85-.57-.56-.09.05-.81.67-.91.45-.41-.9-1.19.14-2,.06-.47,0-.33-.22-.6-.4s-1.12.29-1.45.31a2.8,2.8,0,0,1-1.7-.37c-.42-.22-.28,0-.55.19a7.47,7.47,0,0,1-4.44.47c-1-.25-.35.45-1.23.49a1.25,1.25,0,0,1-1.24-.74c0,.3,0,.59-.38.67s-.85-.19-1.36-.14-.37-.62-.53-.83-.89.87-1.27,1c-.54.15-2,.44-2.14-.15,0,.67-1.76.62-2.26.59a3.58,3.58,0,0,1-1.64-.34c-.87-.54-.74.58-1.26.63s-.78-.2-1.19-.28-.18.21-.51.25c-.69.07-.46-.22-.88-.55-.73-.58-1.43-1.32-2.15-2a7.08,7.08,0,0,1,.59,1.75c.21,1.67-.42.09-1.27.18,0,0,.62.7.4.8-.53.24-1.61-.53-2.28-.46a1.68,1.68,0,0,1-1.12.27c-.2,0-.83-.76-1-.38s0,.75-.49.81a.62.62,0,0,1-.63-.65c.06.44-1.7.62-1.76.18.47,1.11-3.22.63-4,.7-.34,0-1.34.25-1.62,0-.1-.1-.23-.5-.45-.47s-.31.48-.27.74c-.17-.46-1-1.6-1.44-1.17-.14.13.83.95,0,1-.59.6-.89-.47-1.49-.41.35,1.48-1.1,0-1.17-.74-.62.07,0,1.15-.44,1.41a4,4,0,0,1-2.44,0c-.33-.1-1-1.3-1.24-.93s.23.85,0,1a13.07,13.07,0,0,1-1.77.15c-.58,0-.64-.19-1-.46s-.41.43-.55.62c-.58.77-1-.85-1.09-.84s-.49.41-.57.49c-.43.44-.92.37-1.5.28s-.39.22-.85.24a5.18,5.18,0,0,1-1.61-.27c-.24-.06-.77.55-1.35.58-.27,0-.31,0-.34-.24a9,9,0,0,0-1.36.14c-.56.06-.22.08-.7-.25s-.31.44-.49.58c-1.08.88-1-1.26-1.21-1.54s-.17,1.32-.2,1.36c-.22.25-1.66.49-1.58,0,0-.11.09-1.78-.32-1.51s-.24,2-1,2c-.3,0,0-.36-.42-.31s-.82.21-.87-.2c-.45.09-.61.42-1,.58s-.65-.41-1.13-.35c.09.66-1.79-.61-1.84-.56-.29.29-.19.59-.86.66a1.5,1.5,0,0,1-.87-.14c-.06,0-.76-.67-.79-.56-.11.42.29.9-.68.84-.78,0-1.27-.78-1.71.18.06.4-.63-.32-1.06.11,0,.27-1.06.46-1.27.5a2.52,2.52,0,0,1-1.61,0c-.65-.29-1.89.07-2.59.09-.91,0-2,.05-2.86,0-.17,0-1.53-.56-1.32-.77-.29.29.52,1.17.22,1.33,0,0-.41-.17-.81-.36a4.78,4.78,0,0,1-.82-.43c-.52.1-.6.39-.89.7-.48.52-.77-.19-1.2-.19-1,0-1.15-.22-1.2-1,.22,1.29-.63,1.22-2.1,1.37-1.31.13-1.67.08-1.78-1a4.47,4.47,0,0,0-.29,1c-.11.4-.47.22-.66,0,.2,0-1,0-.7.19-.16-.1-.6-.77-.76-.76s.21.84-.37.9-1-.41-1.42-.68c.47.29-1,.54-1,.59-.06.33-.19.22-.69.27-.17-.13,0-.69,0-.68a19.07,19.07,0,0,1-3.09.58c-.32,0-1-.44-.91-.05-.62.63-1.32.49-2.22.42-.11,0-1.24,0-1.08-.27s-.22-1.47-.59-1.11.08,1.21-.56,1.49-1-.68-1.51-.63c0,0,.45.53.22.66a3.69,3.69,0,0,1-1.92.12c-.56-.22-.45-.2-1.14,0a3,3,0,0,1-1.74.13c-.57-.15-.5-.43-1,0a1.69,1.69,0,0,1-1.52.07c-.22-.08-.61-.56-.9-.45-.52.2-.64.76-1.27.88-.07-.49-.4-.15-.71,0s-.48-.28-.67-.5c.28.42-1.75,1-2.17.92-.05,0-1.89-1.67-2-.87,0,.24.64.65-.23.64-.48,0-1.24-.72-1.38-.7a.77.77,0,0,1-.66.78c-.63.07-.16-.3-.27-.36a2,2,0,0,1-.83.11c-.3-.07-.67-.69-1-.48-.54.37-1.38,1.74-2.34,1.07-.2-.15-.23-.85-.52-.82-.5.05-.36.78-.69,1a1.19,1.19,0,0,1-.64.23,1.36,1.36,0,0,1-.29,0c-.1,0-.16-.06-.36-.1a9.91,9.91,0,0,1-1.66-.62A3.13,3.13,0,0,0,4.46,20c-.74.15-.08.54-.5.78a3.5,3.5,0,0,1-3,0,8.37,8.37,0,0,0,.07-1.25c-.35.39-.37-1.09-.42-1.73a25.28,25.28,0,0,1-.43-2.7c-.09-3.08.71-2.73.85-4.39.05-.54-.43-.1-.4-.16C.3,10.33.16,10.05,0,9.33c.12-.05.3-.1.51-.16,1.42-.39,1.16.5,1.71.86.65-.06.28-.4.09-.59,1,0,1.62.15,2.63.07.29,0,.27-.31.71-.42A7.3,7.3,0,0,1,7,8.92h.55A1.86,1.86,0,0,1,7.86,9c.21.06,1.14.47,1.08,0,0,.05.16.77.38.54s-.11-1,.89-1c.31,0,.36.12.54.24s.93.07,1.24,0c.88-.09,1.95-.48,2.79-.07.38.2.17.94.61.73a9.49,9.49,0,0,1,1.76-.63c-.06-.42,1.87-.54,2.24-.47s.27,1.29.76.76c.17-.18.29-.78.65-.81s.16.53.63.49a4.68,4.68,0,0,1,.84-.41c.63-.14,1.29-.25,1.94-.33a14.39,14.39,0,0,1,2-.16,10.29,10.29,0,0,0,1.3.14A5.61,5.61,0,0,1,28.38,8c.24,0,.12.51.31.63s1.28-.73,1.69-.83a6.31,6.31,0,0,1,2-.13,1.29,1.29,0,0,1,.71.21c.13.13-.17.63,0,.62.4-.05.48-.86,1-1s.41.32.7.48a2.39,2.39,0,0,0,1.63.11c.68-.2.85-.89,1.69-.5.42.2,1.11.72,1.58.24s-.26-.42.68-.52a8.73,8.73,0,0,1,1.35-.07c.76,0,4.21-.4,4.27.55-.33-1,2.2-.73,2.79-.51.06.43.72.5,1.14.46.61-.07.52-.47.89-.67a2.53,2.53,0,0,1,1.43-.4.42.42,0,0,1,.43.21c.28,0,.55-.12.83,0a10.89,10.89,0,0,0,2,.6c.46,0,1-.25.69-.65.86-.09,1.74-.22,2.61-.23.69,0,1.38,0,2.07,0,.42,0,.85-.09,1.27-.08.17,0,.46.2.52.19L67,6.22a3,3,0,0,1,1.31,0c.76.23,1.37-.28,2.09-.14a4.09,4.09,0,0,0,1.57.16l2.7-.1a17.38,17.38,0,0,1,3.53-.06c.41.07.42.37,1,.14.17-.07,1-1,1.27-.69.54.63.47-.11,1.08-.12s.28,1.23,1.23,1.13c.06-.41-.51-.75.13-.86s2.36-.5,2.3.25c-.11-.44.59-.88,1.12-.68.28.11.19.35.46.48A1.78,1.78,0,0,0,88,5.65,2.73,2.73,0,0,0,89,5.06c.43,0,.63.22.86.2.4,0,2.32-.46,2.39,0,.76-.9,1-.34,1.8.09-.06-.47,4.35-.87,4.87-.57.31.17,1.12-.05,1.49-.09.6-.07.67.55,1.51.19.5-.22.49-.4,1.09-.46.41,0,.2.21.63.2.84,0,.83.22,1.45.61-.08,0,.14-.62.32-.64s.74.61,1,.71.17-.31.15-.4a2,2,0,0,1,1.07-.71c.82-.29.57.22,1.41.17a11.45,11.45,0,0,0,1.92,0c2.43-.66,5.38-.61,7.9-.78,1.89-.13,3.92-.16,5.81-.18,2.15,0,4.29,0,6.41,0,.49.31.64-.06,1.24-.13A2.4,2.4,0,0,0,133.8,3c-.08-.58.44.09.49.11A6,6,0,0,0,136.35,3c.25,0,.32,0,.35.23.06.45.2.48.7.61,1,.24,0-1,.07-1.15A10.87,10.87,0,0,1,139.1,3c.37,0,.3-.34.75-.27.15,0,1.05.55,1.19.23.08-.16-.58-.87.35-.6a3.17,3.17,0,0,0,1.35.23c1.83-.1,3.63-.4,5.46-.34.44,0,.73.19,1.15.22a5.36,5.36,0,0,0,1.51-.25,20.82,20.82,0,0,1,3.85-.43,17.27,17.27,0,0,1,3.87,0c.52.12.51.31,1.15.1a10,10,0,0,1,2.05-.38c1.11-.14,2.21-.05,3.33-.1s3.52-.6,4.65.11c.48.3.79.57.71-.07s1.07-.12,1.37-.43,1.33,0,1.81.09.95.08,1.57.06c1.91-.05,3.82-.34,5.72-.53.71-.07,2.38-.44,3,0,.87.24.55.15.56-.22,0-.19,1.47,0,1.56,0,.54-.07,1.9.1,3,0,.4,0,1.16-.12,1,.19a6.57,6.57,0,0,0,1.7-.34c.41-.09.82-.15,1.22-.2.19,1.56,0,3.5.14,5C193.22,5.55,193.38,8.13,192.83,6.7ZM21.13,19.34l.09.08Z"/><path class="cls-1" d="M155.76,6.55a.27.27,0,0,0,0-.18A1.15,1.15,0,0,0,155.76,6.55Z"/><path class="cls-1" d="M102.88,15.26a1.06,1.06,0,0,0,0,.14A.5.5,0,0,0,102.88,15.26Z"/><path class="cls-1" d="M19.7,14.32a.35.35,0,0,0,0,.21A.88.88,0,0,0,19.7,14.32Z"/><path class="cls-1" d="M190.07,5.85c.32-.12.41-.58-.07-.56S189.54,5.91,190.07,5.85Z"/><path class="cls-1" d="M190.13,9c.26,0,.44-.46.2-.43s-1,.31-.78.46A1.89,1.89,0,0,0,190.13,9Z"/><path class="cls-1" d="M190.3,7.54c-.11.5.44.52.74.21l-.13-1C191,7.28,191,7.47,190.3,7.54Z"/></g></g></svg>